<svg width="473" height="473" viewBox="0 0 473 473" fill="none" xmlns="http://www.w3.org/2000/svg">
<path d="M431.061 231.595C423.68 186.908 404.424 145.013 374.84 110.718C357.608 90.7411 335.197 69.0058 308.247 51.8283C240.284 8.51381 156.09 20.8118 121.088 64.3278C86.0861 107.844 22.7041 301.774 27.4341 352.858C32.1641 403.942 170.28 450.296 260.15 438.944C350.02 427.592 426.646 369.886 434.214 306.504C437.181 281.657 434.914 254.921 431.061 231.595Z" fill="#C886D3"/>
<path opacity="0.7" d="M431.061 231.595C423.68 186.908 404.424 145.013 374.84 110.718C357.608 90.7411 335.197 69.0058 308.247 51.8283C240.284 8.51381 156.09 20.8118 121.088 64.3278C86.0861 107.844 22.7041 301.774 27.4341 352.858C32.1641 403.942 170.28 450.296 260.15 438.944C350.02 427.592 426.646 369.886 434.214 306.504C437.181 281.657 434.914 254.921 431.061 231.595Z" fill="white"/>
<path d="M427.592 437.998H438.944" stroke="#455A64" stroke-miterlimit="10" stroke-linecap="round" stroke-linejoin="round"/>
<path d="M176.902 437.998H420.024" stroke="#455A64" stroke-miterlimit="10" stroke-linecap="round" stroke-linejoin="round"/>
<path d="M51.084 437.998H168.388" stroke="#455A64" stroke-miterlimit="10" stroke-linecap="round" stroke-linejoin="round"/>
<path d="M433.67 348.19C433.703 348.211 434.353 345.695 434.376 345.532C434.639 343.641 434.036 339.83 432.11 338.9C430.723 338.23 429.172 339.036 428.666 340.425C428.149 341.844 428.804 343.585 429.579 344.782C430.49 346.187 433.667 348.188 433.67 348.19Z" fill="#5D3464"/>
<path d="M395.7 347.365C397.234 348.036 400.989 347.951 400.992 347.951C401.031 347.95 400.185 345.493 400.114 345.345C399.29 343.622 396.686 340.776 394.566 341.063C393.039 341.269 392.189 342.797 392.534 344.235C392.886 345.703 394.392 346.794 395.7 347.365Z" fill="#5D3464"/>
<path d="M444.875 334.586C442.748 334.357 440.221 337.272 439.445 339.016C439.378 339.167 438.598 341.646 438.638 341.645C438.638 341.645 438.675 341.644 438.683 341.644C438.28 342.101 437.855 342.596 437.4 343.146C436.568 344.167 435.637 345.33 434.71 346.663C433.78 347.993 432.807 349.464 431.921 351.105C431.032 352.749 430.18 354.525 429.539 356.468C429.532 356.49 429.527 356.513 429.52 356.536C429.531 355.91 429.503 354.157 429.486 354.023C429.241 352.129 427.653 348.613 425.55 348.225C424.034 347.945 422.752 349.132 422.631 350.606C422.508 352.111 423.598 353.617 424.663 354.567C425.862 355.638 429.193 356.676 429.458 356.758C428.865 358.614 428.406 360.566 428.051 362.568C427.847 363.712 427.677 364.87 427.521 366.035C427.514 365.493 427.502 365.009 427.493 364.941C427.247 363.047 425.66 359.532 423.557 359.143C422.041 358.863 420.758 360.051 420.637 361.523C420.513 363.029 421.605 364.535 422.669 365.484C423.749 366.448 426.571 367.391 427.32 367.63C427.265 368.077 427.204 368.523 427.151 368.97C426.895 371.117 426.648 373.26 426.342 375.354C426.234 376.092 426.101 376.816 425.971 377.539C425.963 377.058 425.953 376.653 425.945 376.59C425.699 374.697 424.112 371.181 422.009 370.792C420.494 370.512 419.211 371.7 419.09 373.173C418.967 374.677 420.057 376.184 421.122 377.133C422.152 378.054 424.748 378.946 425.638 379.234C425.482 379.971 425.327 380.71 425.142 381.418C425.005 381.898 424.907 382.37 424.743 382.844C424.591 383.317 424.439 383.786 424.289 384.25C423.967 385.134 423.642 386.047 423.306 386.9C423.077 387.495 422.849 388.059 422.62 388.626C422.736 387.893 422.932 386.452 422.935 386.329C422.964 385.061 422.514 382.999 421.617 381.548C421.623 381.361 421.612 381.174 421.582 380.988C421.348 379.529 419.976 378.445 418.488 378.841C416.421 379.392 415.111 383.019 415.012 384.926C415.007 385.038 415.081 386.266 415.139 387.04C415.035 386.591 414.94 386.153 414.826 385.691C414.609 384.777 414.366 383.871 414.108 382.896C413.967 382.429 413.824 381.958 413.68 381.481C413.548 381.006 413.347 380.521 413.181 380.036C412.772 378.919 412.304 377.805 411.806 376.695C412.607 376.503 415.437 375.783 416.574 374.909C417.706 374.041 418.906 372.62 418.896 371.111C418.885 369.633 417.694 368.354 416.162 368.52C414.036 368.751 412.191 372.139 411.805 374.009C411.781 374.125 411.654 375.499 411.6 376.255C411.297 375.59 410.997 374.924 410.667 374.261C409.717 372.348 408.696 370.44 407.686 368.532C407.375 367.948 407.075 367.362 406.77 366.778C407.056 366.712 410.439 365.927 411.712 364.951C412.843 364.082 414.044 362.662 414.033 361.152C414.023 359.673 412.832 358.394 411.299 358.561C409.173 358.791 407.328 362.179 406.942 364.049C406.913 364.19 406.735 366.166 406.714 366.671C406.044 365.381 405.389 364.091 404.795 362.792C403.972 361.001 403.264 359.198 402.707 357.401C402.84 357.371 406.375 356.567 407.679 355.567C408.81 354.698 410.011 353.278 410 351.767C409.99 350.289 408.799 349.01 407.268 349.176C405.141 349.407 403.296 352.795 402.91 354.665C402.885 354.788 402.748 356.294 402.698 357.011C402.631 357.019 402.643 357.017 402.577 357.024C402.004 355.092 401.692 353.148 401.489 351.312C401.37 350.25 401.315 349.228 401.285 348.233C401.959 348.151 405.033 347.741 406.306 346.971C407.527 346.232 408.876 344.952 409.031 343.45C409.182 341.98 408.139 340.577 406.599 340.574C404.46 340.571 402.255 343.734 401.665 345.551C401.633 345.65 401.419 346.69 401.274 347.45C401.267 347 401.251 346.537 401.253 346.106C401.256 344.488 401.358 343.007 401.459 341.697C401.522 340.952 401.595 340.28 401.669 339.652C402.288 339.226 404.762 337.48 405.522 336.232C406.265 335.015 406.872 333.256 406.318 331.852C405.775 330.478 404.202 329.713 402.834 330.421C400.934 331.403 400.434 335.228 400.749 337.111C400.776 337.274 401.493 339.771 401.526 339.749C401.526 339.749 401.556 339.729 401.563 339.724C401.48 340.327 401.397 340.974 401.321 341.684C401.191 342.995 401.056 344.478 401.018 346.102C400.976 347.724 400.976 349.488 401.143 351.345C401.309 353.208 401.577 355.159 402.115 357.133C402.121 357.156 402.13 357.178 402.136 357.2C401.801 356.671 400.81 355.225 400.721 355.123C399.472 353.678 396.208 351.623 394.239 352.458C392.821 353.061 392.406 354.758 393.117 356.054C393.845 357.377 395.585 358.031 396.997 358.237C398.589 358.469 401.939 357.497 402.205 357.42C402.734 359.295 403.429 361.176 404.237 363.042C404.698 364.109 405.196 365.169 405.708 366.226C405.402 365.779 405.126 365.38 405.081 365.329C403.832 363.885 400.568 361.829 398.599 362.664C397.181 363.267 396.766 364.965 397.478 366.26C398.206 367.584 399.946 368.237 401.358 368.443C402.79 368.652 405.663 367.882 406.421 367.667C406.621 368.07 406.817 368.476 407.02 368.878C407.99 370.809 408.967 372.733 409.866 374.649C410.184 375.325 410.472 376 410.762 376.677C410.49 376.279 410.258 375.947 410.217 375.9C408.967 374.455 405.704 372.4 403.735 373.235C402.317 373.838 401.902 375.536 402.614 376.831C403.342 378.153 405.082 378.808 406.494 379.013C407.861 379.213 410.519 378.525 411.419 378.274C411.696 378.975 411.975 379.677 412.21 380.369C412.361 380.845 412.54 381.293 412.664 381.779C412.798 382.258 412.93 382.733 413.062 383.202C413.281 384.116 413.513 385.057 413.704 385.954C413.842 386.576 413.962 387.172 414.084 387.772C413.776 387.097 413.145 385.786 413.08 385.683C412.064 384.067 409.149 381.54 407.076 382.068C405.584 382.448 404.916 384.064 405.423 385.452C405.941 386.87 407.563 387.78 408.927 388.197C410.428 388.656 413.754 388.237 414.169 388.181C414.368 389.174 414.553 390.143 414.712 391.059C415.272 394.235 415.617 396.902 415.833 398.768C415.871 399.1 415.904 399.396 415.933 399.675H409.496L411.461 437.998H423.202L425.166 399.677H419.169C419.214 399.585 419.256 399.499 419.303 399.401C420.126 397.687 421.266 395.224 422.499 392.21C422.891 391.258 423.291 390.234 423.691 389.178C424.093 389.262 427.385 389.931 428.92 389.585C430.311 389.271 431.996 388.484 432.618 387.108C433.229 385.761 432.683 384.101 431.222 383.61C429.195 382.929 426.1 385.231 424.966 386.767C424.899 386.858 424.283 387.923 423.906 388.601C424.068 388.169 424.228 387.75 424.389 387.304C424.713 386.422 425.01 385.532 425.332 384.577C425.472 384.109 425.613 383.637 425.755 383.161C425.907 382.692 426.007 382.177 426.136 381.68C426.412 380.522 426.635 379.336 426.834 378.135C427.607 378.416 430.366 379.376 431.795 379.276C433.218 379.176 435.003 378.654 435.827 377.388C436.634 376.149 436.347 374.425 434.977 373.718C433.076 372.738 429.668 374.545 428.315 375.892C428.231 375.976 427.368 377.052 426.906 377.652C427.019 376.929 427.136 376.209 427.227 375.474C427.49 373.353 427.691 371.199 427.901 369.051C427.964 368.392 428.036 367.738 428.105 367.081C428.378 367.184 431.635 368.396 433.235 368.284C434.658 368.184 436.443 367.661 437.267 366.395C438.074 365.156 437.785 363.433 436.417 362.726C434.516 361.746 431.108 363.553 429.755 364.9C429.653 365.001 428.414 366.551 428.118 366.96C428.271 365.516 428.436 364.077 428.658 362.666C428.959 360.718 429.363 358.825 429.89 357.018C430.018 357.066 433.409 358.346 435.049 358.231C436.471 358.131 438.257 357.609 439.081 356.343C439.887 355.104 439.6 353.38 438.23 352.674C436.33 351.694 432.922 353.5 431.568 354.848C431.479 354.936 430.534 356.115 430.098 356.688C430.039 356.656 430.049 356.662 429.989 356.632C430.577 354.704 431.39 352.91 432.232 351.269C432.719 350.317 433.237 349.435 433.761 348.587C434.369 348.89 437.159 350.245 438.645 350.305C440.071 350.362 441.902 350.038 442.86 348.872C443.797 347.729 443.701 345.984 442.417 345.131C440.636 343.948 437.05 345.371 435.557 346.561C435.475 346.626 434.722 347.375 434.182 347.929C434.424 347.55 434.667 347.155 434.907 346.796C435.802 345.449 436.703 344.27 437.511 343.233C437.976 342.646 438.406 342.126 438.815 341.642C439.566 341.629 442.592 341.537 443.916 340.916C445.207 340.309 446.683 339.178 446.995 337.701C447.297 336.256 446.406 334.752 444.875 334.586ZM421.331 391.717C420.046 394.675 418.863 397.089 418.013 398.765C417.842 399.102 417.688 399.401 417.545 399.677H417.403C417.361 399.349 417.314 398.992 417.259 398.591C417 396.707 416.592 394.023 415.957 390.829C415.759 389.819 415.527 388.744 415.278 387.643C415.528 387.543 416.946 386.97 418.203 386.267C419.298 387.452 422.103 388.84 422.466 389.016C422.084 389.955 421.703 390.865 421.331 391.717Z" fill="#5D3464"/>
<path opacity="0.3" d="M395.7 347.365C397.234 348.036 400.989 347.951 400.992 347.951C401.031 347.95 400.185 345.493 400.114 345.345C399.29 343.622 396.686 340.776 394.566 341.063C393.039 341.269 392.189 342.797 392.534 344.235C392.886 345.703 394.392 346.794 395.7 347.365Z" fill="#5D3464"/>
<path opacity="0.3" d="M433.67 348.19C433.703 348.211 434.353 345.695 434.376 345.532C434.639 343.641 434.036 339.83 432.11 338.9C430.723 338.23 429.172 339.036 428.666 340.425C428.149 341.844 428.804 343.585 429.579 344.782C430.49 346.187 433.667 348.188 433.67 348.19Z" fill="#5D3464"/>
<path opacity="0.3" d="M444.875 334.586C442.748 334.357 440.221 337.272 439.445 339.016C439.378 339.167 438.598 341.646 438.638 341.645C438.638 341.645 438.675 341.644 438.683 341.644C438.28 342.101 437.855 342.596 437.4 343.146C436.568 344.167 435.637 345.33 434.71 346.663C433.78 347.993 432.807 349.464 431.921 351.105C431.032 352.749 430.18 354.525 429.539 356.468C429.532 356.49 429.527 356.513 429.52 356.536C429.531 355.91 429.503 354.157 429.486 354.023C429.241 352.129 427.653 348.613 425.55 348.225C424.034 347.945 422.752 349.132 422.631 350.606C422.508 352.111 423.598 353.617 424.663 354.567C425.862 355.638 429.193 356.676 429.458 356.758C428.865 358.614 428.406 360.566 428.051 362.568C427.847 363.712 427.677 364.87 427.521 366.035C427.514 365.493 427.502 365.009 427.493 364.941C427.247 363.047 425.66 359.532 423.557 359.143C422.041 358.863 420.758 360.051 420.637 361.523C420.513 363.029 421.605 364.535 422.669 365.484C423.749 366.448 426.571 367.391 427.32 367.63C427.265 368.077 427.204 368.523 427.151 368.97C426.895 371.117 426.648 373.26 426.342 375.354C426.234 376.092 426.101 376.816 425.971 377.539C425.963 377.058 425.953 376.653 425.945 376.59C425.699 374.697 424.112 371.181 422.009 370.792C420.494 370.512 419.211 371.7 419.09 373.173C418.967 374.677 420.057 376.184 421.122 377.133C422.152 378.054 424.748 378.946 425.638 379.234C425.482 379.971 425.327 380.71 425.142 381.418C425.005 381.898 424.907 382.37 424.743 382.844C424.591 383.317 424.439 383.786 424.289 384.25C423.967 385.134 423.642 386.047 423.306 386.9C423.077 387.495 422.849 388.059 422.62 388.626C422.736 387.893 422.932 386.452 422.935 386.329C422.964 385.061 422.514 382.999 421.617 381.548C421.623 381.361 421.612 381.174 421.582 380.988C421.348 379.529 419.976 378.445 418.488 378.841C416.421 379.392 415.111 383.019 415.012 384.926C415.007 385.038 415.081 386.266 415.139 387.04C415.035 386.591 414.94 386.153 414.826 385.691C414.609 384.777 414.366 383.871 414.108 382.896C413.967 382.429 413.824 381.958 413.68 381.481C413.548 381.006 413.347 380.521 413.181 380.036C412.772 378.919 412.304 377.805 411.806 376.695C412.607 376.503 415.437 375.783 416.574 374.909C417.706 374.041 418.906 372.62 418.896 371.111C418.885 369.633 417.694 368.354 416.162 368.52C414.036 368.751 412.191 372.139 411.805 374.009C411.781 374.125 411.654 375.499 411.6 376.255C411.297 375.59 410.997 374.924 410.667 374.261C409.717 372.348 408.696 370.44 407.686 368.532C407.375 367.948 407.075 367.362 406.77 366.778C407.056 366.712 410.439 365.927 411.712 364.951C412.843 364.082 414.044 362.662 414.033 361.152C414.023 359.673 412.832 358.394 411.299 358.561C409.173 358.791 407.328 362.179 406.942 364.049C406.913 364.19 406.735 366.166 406.714 366.671C406.044 365.381 405.389 364.091 404.795 362.792C403.972 361.001 403.264 359.198 402.707 357.401C402.84 357.371 406.375 356.567 407.679 355.567C408.81 354.698 410.011 353.278 410 351.767C409.99 350.289 408.799 349.01 407.268 349.176C405.141 349.407 403.296 352.795 402.91 354.665C402.885 354.788 402.748 356.294 402.698 357.011C402.631 357.019 402.643 357.017 402.577 357.024C402.004 355.092 401.692 353.148 401.489 351.312C401.37 350.25 401.315 349.228 401.285 348.233C401.959 348.151 405.033 347.741 406.306 346.971C407.527 346.232 408.876 344.952 409.031 343.45C409.182 341.98 408.139 340.577 406.599 340.574C404.46 340.571 402.255 343.734 401.665 345.551C401.633 345.65 401.419 346.69 401.274 347.45C401.267 347 401.251 346.537 401.253 346.106C401.256 344.488 401.358 343.007 401.459 341.697C401.522 340.952 401.595 340.28 401.669 339.652C402.288 339.226 404.762 337.48 405.522 336.232C406.265 335.015 406.872 333.256 406.318 331.852C405.775 330.478 404.202 329.713 402.834 330.421C400.934 331.403 400.434 335.228 400.749 337.111C400.776 337.274 401.493 339.771 401.526 339.749C401.526 339.749 401.556 339.729 401.563 339.724C401.48 340.327 401.397 340.974 401.321 341.684C401.191 342.995 401.056 344.478 401.018 346.102C400.976 347.724 400.976 349.488 401.143 351.345C401.309 353.208 401.577 355.159 402.115 357.133C402.121 357.156 402.13 357.178 402.136 357.2C401.801 356.671 400.81 355.225 400.721 355.123C399.472 353.678 396.208 351.623 394.239 352.458C392.821 353.061 392.406 354.758 393.117 356.054C393.845 357.377 395.585 358.031 396.997 358.237C398.589 358.469 401.939 357.497 402.205 357.42C402.734 359.295 403.429 361.176 404.237 363.042C404.698 364.109 405.196 365.169 405.708 366.226C405.402 365.779 405.126 365.38 405.081 365.329C403.832 363.885 400.568 361.829 398.599 362.664C397.181 363.267 396.766 364.965 397.478 366.26C398.206 367.584 399.946 368.237 401.358 368.443C402.79 368.652 405.663 367.882 406.421 367.667C406.621 368.07 406.817 368.476 407.02 368.878C407.99 370.809 408.967 372.733 409.866 374.649C410.184 375.325 410.472 376 410.762 376.677C410.49 376.279 410.258 375.947 410.217 375.9C408.967 374.455 405.704 372.4 403.735 373.235C402.317 373.838 401.902 375.536 402.614 376.831C403.342 378.153 405.082 378.808 406.494 379.013C407.861 379.213 410.519 378.525 411.419 378.274C411.696 378.975 411.975 379.677 412.21 380.369C412.361 380.845 412.54 381.293 412.664 381.779C412.798 382.258 412.93 382.733 413.062 383.202C413.281 384.116 413.513 385.057 413.704 385.954C413.842 386.576 413.962 387.172 414.084 387.772C413.776 387.097 413.145 385.786 413.08 385.683C412.064 384.067 409.149 381.54 407.076 382.068C405.584 382.448 404.916 384.064 405.423 385.452C405.941 386.87 407.563 387.78 408.927 388.197C410.428 388.656 413.754 388.237 414.169 388.181C414.368 389.174 414.553 390.143 414.712 391.059C415.272 394.235 415.617 396.902 415.833 398.768C415.871 399.1 415.904 399.396 415.933 399.675H409.496L411.461 437.998H423.202L425.166 399.677H419.169C419.214 399.585 419.256 399.499 419.303 399.401C420.126 397.687 421.266 395.224 422.499 392.21C422.891 391.258 423.291 390.234 423.691 389.178C424.093 389.262 427.385 389.931 428.92 389.585C430.311 389.271 431.996 388.484 432.618 387.108C433.229 385.761 432.683 384.101 431.222 383.61C429.195 382.929 426.1 385.231 424.966 386.767C424.899 386.858 424.283 387.923 423.906 388.601C424.068 388.169 424.228 387.75 424.389 387.304C424.713 386.422 425.01 385.532 425.332 384.577C425.472 384.109 425.613 383.637 425.755 383.161C425.907 382.692 426.007 382.177 426.136 381.68C426.412 380.522 426.635 379.336 426.834 378.135C427.607 378.416 430.366 379.376 431.795 379.276C433.218 379.176 435.003 378.654 435.827 377.388C436.634 376.149 436.347 374.425 434.977 373.718C433.076 372.738 429.668 374.545 428.315 375.892C428.231 375.976 427.368 377.052 426.906 377.652C427.019 376.929 427.136 376.209 427.227 375.474C427.49 373.353 427.691 371.199 427.901 369.051C427.964 368.392 428.036 367.738 428.105 367.081C428.378 367.184 431.635 368.396 433.235 368.284C434.658 368.184 436.443 367.661 437.267 366.395C438.074 365.156 437.785 363.433 436.417 362.726C434.516 361.746 431.108 363.553 429.755 364.9C429.653 365.001 428.414 366.551 428.118 366.96C428.271 365.516 428.436 364.077 428.658 362.666C428.959 360.718 429.363 358.825 429.89 357.018C430.018 357.066 433.409 358.346 435.049 358.231C436.471 358.131 438.257 357.609 439.081 356.343C439.887 355.104 439.6 353.38 438.23 352.674C436.33 351.694 432.922 353.5 431.568 354.848C431.479 354.936 430.534 356.115 430.098 356.688C430.039 356.656 430.049 356.662 429.989 356.632C430.577 354.704 431.39 352.91 432.232 351.269C432.719 350.317 433.237 349.435 433.761 348.587C434.369 348.89 437.159 350.245 438.645 350.305C440.071 350.362 441.902 350.038 442.86 348.872C443.797 347.729 443.701 345.984 442.417 345.131C440.636 343.948 437.05 345.371 435.557 346.561C435.475 346.626 434.722 347.375 434.182 347.929C434.424 347.55 434.667 347.155 434.907 346.796C435.802 345.449 436.703 344.27 437.511 343.233C437.976 342.646 438.406 342.126 438.815 341.642C439.566 341.629 442.592 341.537 443.916 340.916C445.207 340.309 446.683 339.178 446.995 337.701C447.297 336.256 446.406 334.752 444.875 334.586ZM421.331 391.717C420.046 394.675 418.863 397.089 418.013 398.765C417.842 399.102 417.688 399.401 417.545 399.677H417.403C417.361 399.349 417.314 398.992 417.259 398.591C417 396.707 416.592 394.023 415.957 390.829C415.759 389.819 415.527 388.744 415.278 387.643C415.528 387.543 416.946 386.97 418.203 386.267C419.298 387.452 422.103 388.84 422.466 389.016C422.084 389.955 421.703 390.865 421.331 391.717Z" fill="#5D3464"/>
<path d="M172.172 297.045V377.317C172.172 381.764 168.566 385.367 164.122 385.367H125.94C121.495 385.367 117.889 381.764 117.889 377.317V297.045C117.889 292.599 121.495 288.996 125.94 288.996H141.905L141.921 289.054C142.393 290.753 143.48 291.858 144.685 291.858H145.377C146.582 291.858 147.669 290.753 148.141 289.054L148.16 288.996H164.122C168.566 288.996 172.172 292.599 172.172 297.045Z" stroke="#41074A" stroke-miterlimit="10" stroke-linecap="round" stroke-linejoin="round"/>
<path d="M165.55 301.775H122.034V305.559H165.55V301.775Z" stroke="#41074A" stroke-miterlimit="10" stroke-linecap="round" stroke-linejoin="round"/>
<path d="M165.55 312.18H122.034V315.964H165.55V312.18Z" stroke="#41074A" stroke-miterlimit="10" stroke-linecap="round" stroke-linejoin="round"/>
<path d="M165.55 322.586H122.034V326.37H165.55V322.586Z" stroke="#41074A" stroke-miterlimit="10" stroke-linecap="round" stroke-linejoin="round"/>
<path d="M165.55 343.398H122.034V347.182H165.55V343.398Z" stroke="#41074A" stroke-miterlimit="10" stroke-linecap="round" stroke-linejoin="round"/>
<path d="M165.55 353.805H122.034V357.589H165.55V353.805Z" stroke="#41074A" stroke-miterlimit="10" stroke-linecap="round" stroke-linejoin="round"/>
<path d="M165.55 364.211H122.034V367.995H165.55V364.211Z" stroke="#41074A" stroke-miterlimit="10" stroke-linecap="round" stroke-linejoin="round"/>
<path d="M395.428 60.532V140.804C395.428 145.252 391.822 148.855 387.377 148.855H349.196C344.751 148.855 341.145 145.252 341.145 140.804V60.532C341.145 56.0867 344.751 52.4834 349.196 52.4834H365.161L365.177 52.5411C365.649 54.2401 366.736 55.345 367.941 55.345H368.632C369.838 55.345 370.925 54.2401 371.397 52.5411L371.416 52.4834H387.377C391.822 52.4834 395.428 56.0867 395.428 60.532Z" stroke="#41074A" stroke-miterlimit="10" stroke-linecap="round" stroke-linejoin="round"/>
<path d="M390.446 110.176H346.455V140.009H390.446V110.176Z" stroke="#41074A" stroke-miterlimit="10" stroke-linecap="round" stroke-linejoin="round"/>
<path d="M346.455 140.008L390.445 110.176" stroke="#41074A" stroke-miterlimit="10" stroke-linecap="round" stroke-linejoin="round"/>
<path d="M390.445 140.008L346.455 110.176" stroke="#41074A" stroke-miterlimit="10" stroke-linecap="round" stroke-linejoin="round"/>
<path d="M390.446 95.0059H346.455V102.591H390.446V95.0059Z" stroke="#41074A" stroke-miterlimit="10" stroke-linecap="round" stroke-linejoin="round"/>
<path d="M346.455 102.59L390.445 95.0059" stroke="#41074A" stroke-miterlimit="10" stroke-linecap="round" stroke-linejoin="round"/>
<path d="M390.445 102.59L346.455 95.0059" stroke="#41074A" stroke-miterlimit="10" stroke-linecap="round" stroke-linejoin="round"/>
<path d="M390.446 80.5947H346.455V88.1788H390.446V80.5947Z" stroke="#41074A" stroke-miterlimit="10" stroke-linecap="round" stroke-linejoin="round"/>
<path d="M346.455 88.1798L390.445 80.5947" stroke="#41074A" stroke-miterlimit="10" stroke-linecap="round" stroke-linejoin="round"/>
<path d="M390.445 88.1798L346.455 80.5947" stroke="#41074A" stroke-miterlimit="10" stroke-linecap="round" stroke-linejoin="round"/>
<path d="M390.446 66.1846H346.455V73.7687H390.446V66.1846Z" stroke="#41074A" stroke-miterlimit="10" stroke-linecap="round" stroke-linejoin="round"/>
<path d="M346.455 73.7696L390.445 66.1846" stroke="#41074A" stroke-miterlimit="10" stroke-linecap="round" stroke-linejoin="round"/>
<path d="M390.445 73.7696L346.455 66.1846" stroke="#41074A" stroke-miterlimit="10" stroke-linecap="round" stroke-linejoin="round"/>
<path d="M408.064 121.479C412.803 121.479 416.645 117.637 416.645 112.898C416.645 108.158 412.803 104.316 408.064 104.316C403.324 104.316 399.482 108.158 399.482 112.898C399.482 117.637 403.324 121.479 408.064 121.479Z" stroke="#41074A" stroke-miterlimit="10" stroke-linecap="round" stroke-linejoin="round"/>
<path d="M403.648 110.571L407.939 115.398L418.129 102.526" stroke="#41074A" stroke-miterlimit="10" stroke-linecap="round" stroke-linejoin="round"/>
<path d="M104.352 72.8425V153.114C104.352 157.562 100.746 161.165 96.3013 161.165H58.1198C53.6745 161.165 50.0693 157.562 50.0693 153.114V72.8425C50.0693 68.3973 53.6755 64.7939 58.1198 64.7939H74.0845L74.1006 64.8517C74.5726 66.5507 75.6596 67.6556 76.8648 67.6556H77.5563C78.7615 67.6556 79.8485 66.5507 80.3205 64.8517L80.3394 64.7939H96.3013C100.746 64.7939 104.352 68.3973 104.352 72.8425Z" stroke="#41074A" stroke-miterlimit="10" stroke-linecap="round" stroke-linejoin="round"/>
<path d="M90.4548 87.9785H63.9668V112.575H90.4548V87.9785Z" stroke="#41074A" stroke-miterlimit="10" stroke-linecap="round" stroke-linejoin="round"/>
<path d="M96.3346 132.932H58.0869V147.198H96.3346V132.932Z" stroke="#41074A" stroke-miterlimit="10" stroke-linecap="round" stroke-linejoin="round"/>
<path d="M72.9992 121.234C72.9992 122.268 72.161 123.106 71.128 123.106C70.094 123.106 69.2559 122.267 69.2559 121.234C69.2559 120.201 70.094 119.363 71.128 119.363C72.161 119.363 72.9992 120.201 72.9992 121.234Z" stroke="#41074A" stroke-miterlimit="10" stroke-linecap="round" stroke-linejoin="round"/>
<path d="M79.0822 121.234C79.0822 122.268 78.244 123.106 77.211 123.106C76.177 123.106 75.3389 122.267 75.3389 121.234C75.3389 120.201 76.177 119.363 77.211 119.363C78.244 119.363 79.0822 120.201 79.0822 121.234Z" stroke="#41074A" stroke-miterlimit="10" stroke-linecap="round" stroke-linejoin="round"/>
<path d="M83.2931 123.106C84.3265 123.106 85.1643 122.268 85.1643 121.234C85.1643 120.201 84.3265 119.363 83.2931 119.363C82.2596 119.363 81.4219 120.201 81.4219 121.234C81.4219 122.268 82.2596 123.106 83.2931 123.106Z" stroke="#41074A" stroke-miterlimit="10" stroke-linecap="round" stroke-linejoin="round"/>
<path d="M50.4795 76.7842H103.821" stroke="#41074A" stroke-miterlimit="10" stroke-linecap="round" stroke-linejoin="round"/>
<path d="M231.505 401.622C240.093 401.622 247.055 394.661 247.055 386.073C247.055 377.485 240.093 370.523 231.505 370.523C222.918 370.523 215.956 377.485 215.956 386.073C215.956 394.661 222.918 401.622 231.505 401.622Z" stroke="#41074A" stroke-miterlimit="10" stroke-linecap="round" stroke-linejoin="round"/>
<path d="M223.505 381.856L231.279 390.603L249.744 367.279" stroke="#41074A" stroke-miterlimit="10" stroke-linecap="round" stroke-linejoin="round"/>
<path d="M313.272 80.1872V318.753C313.272 331.972 302.555 342.68 289.345 342.68H175.872C162.662 342.68 151.944 331.972 151.944 318.753V80.1872C151.944 66.9772 162.662 56.2676 175.872 56.2676H223.318L223.365 56.4397C224.768 61.4886 227.999 64.774 231.581 64.774H233.635C237.218 64.774 240.448 61.4895 241.851 56.4397L241.906 56.2676H289.345C302.556 56.2676 313.272 66.9763 313.272 80.1872Z" fill="white"/>
<path d="M279.319 119.879H152.234V255.982H279.319V119.879Z" fill="#455A64" stroke="#455A64" stroke-miterlimit="10" stroke-linecap="round" stroke-linejoin="round"/>
<path d="M241.853 56.4397C240.449 61.4886 237.22 64.774 233.637 64.774H231.583C228.001 64.774 224.77 61.4895 223.367 56.4397L223.32 56.2676H175.873C163.943 56.2676 154.049 65.0029 152.243 76.4249H312.977C311.171 65.002 301.277 56.2676 289.347 56.2676H241.908L241.853 56.4397Z" fill="#E7DFEC"/>
<path d="M323.532 143.852V113.535H320.79V74.7212C320.79 61.5075 310.078 50.7959 296.865 50.7959H168.354C155.14 50.7959 144.43 61.5075 144.43 74.7212V335.845C144.43 349.058 155.141 359.769 168.354 359.769H296.864C310.077 359.769 320.789 349.057 320.789 335.845V169.69H323.532V151.775H320.79V143.851H323.532V143.852ZM313.273 318.753C313.273 331.972 302.555 342.68 289.346 342.68H175.872C162.662 342.68 151.945 331.972 151.945 318.753V80.1872C151.945 66.9772 162.662 56.2676 175.872 56.2676H223.319L223.366 56.4397C224.769 61.4885 227.999 64.774 231.582 64.774H233.636C237.218 64.774 240.449 61.4895 241.852 56.4397L241.906 56.2676H289.346C302.555 56.2676 313.273 66.9763 313.273 80.1872V318.753Z" fill="#5D3464" stroke="#82498C" stroke-miterlimit="10" stroke-linejoin="round"/>
<path d="M294.094 54.0918H171.124C157.91 54.0918 147.199 64.8034 147.199 78.0171V332.548C147.199 345.762 157.911 356.473 171.124 356.473H294.095C307.309 356.473 318.019 345.762 318.019 332.548V78.0161C318.019 64.8034 307.308 54.0918 294.094 54.0918ZM313.272 318.753C313.272 331.972 302.555 342.68 289.345 342.68H175.872C162.662 342.68 151.944 331.972 151.944 318.753V80.1872C151.944 66.9773 162.662 56.2676 175.872 56.2676H223.318L223.365 56.4398C224.768 61.4886 227.999 64.774 231.581 64.774H233.635C237.218 64.774 240.448 61.4895 241.851 56.4398L241.906 56.2676H289.345C302.555 56.2676 313.272 66.9763 313.272 80.1872V318.753Z" fill="#455A64" stroke="#263238" stroke-miterlimit="10" stroke-linejoin="round"/>
<path d="M234.363 57.4108C234.363 56.1706 233.357 55.165 232.117 55.165C230.877 55.165 229.871 56.1706 229.871 57.4108C229.871 58.651 230.877 59.6566 232.117 59.6566C233.357 59.6566 234.363 58.651 234.363 57.4108Z" fill="white"/>
<path d="M166.284 66.0175C166.284 68.2898 163.732 69.1081 163.721 70.8421V70.9604H166.198V71.7247H162.893V71.0786C162.893 68.6446 165.445 68.1716 165.445 66.0497C165.445 65.2749 165.186 64.8653 164.561 64.8653C163.947 64.8653 163.678 65.3061 163.678 65.974V66.6419H162.892V66.0279C162.892 64.8757 163.419 64.1113 164.582 64.1113C165.756 64.1113 166.284 64.8662 166.284 66.0175Z" fill="#455A64"/>
<path d="M170.41 66.0072V66.2011C170.41 66.9768 170.099 67.5265 169.495 67.7525C170.13 67.99 170.41 68.5604 170.41 69.3144V69.8962C170.41 71.0484 169.872 71.8024 168.708 71.8024C167.556 71.8024 167.018 71.0484 167.018 69.8962V69.3787H167.804V69.9492C167.804 70.6274 168.084 71.0371 168.687 71.0371C169.301 71.0371 169.571 70.6388 169.571 69.8744V69.2926C169.571 68.5491 169.259 68.1943 168.623 68.1726H168.171V67.4186H168.666C169.226 67.3968 169.571 67.0421 169.571 66.3856V66.0403C169.571 65.2655 169.301 64.8672 168.687 64.8672C168.084 64.8672 167.804 65.2873 167.804 65.9656V66.3534H167.018V66.0091C167.018 64.8568 167.556 64.1133 168.708 64.1133C169.872 64.1114 170.41 64.8549 170.41 66.0072Z" fill="#455A64"/>
<path d="M172.037 66.5771V67.6215H171.229V66.5771H172.037ZM172.037 70.6799V71.7243H171.229V70.6799H172.037Z" fill="#455A64"/>
<path d="M173.739 67.2563C173.977 66.8467 174.353 66.6319 174.859 66.6319C175.829 66.6319 176.259 67.3424 176.259 68.4199V69.8956C176.259 71.0479 175.71 71.8018 174.558 71.8018C173.404 71.8018 172.866 71.0479 172.866 69.8956V69.3886H173.652V69.9486C173.652 70.6269 173.932 71.0365 174.536 71.0365C175.139 71.0365 175.419 70.6278 175.419 69.9486V68.4842C175.419 67.8059 175.139 67.3963 174.536 67.3963C174.073 67.3963 173.761 67.6546 173.685 68.2042V68.3764H172.899L173.104 64.1865H176.076V64.9405H173.858L173.739 67.2563Z" fill="#455A64"/>
<path d="M180.45 65.9967V66.1367H179.663V65.9428C179.663 65.2645 179.383 64.8663 178.769 64.8663C178.134 64.8663 177.854 65.2749 177.854 66.0828V67.7733C178.058 67.2568 178.468 66.9654 179.07 66.9654C180.04 66.9654 180.47 67.6655 180.47 68.7534V69.8952C180.47 71.0474 179.899 71.8014 178.747 71.8014C177.583 71.8014 177.013 71.0474 177.013 69.8952V66.0507C177.013 64.8549 177.552 64.1123 178.747 64.1123C179.911 64.1114 180.45 64.8445 180.45 65.9967ZM177.855 68.8177V69.9482C177.855 70.6265 178.135 71.0361 178.749 71.0361C179.352 71.0361 179.643 70.6274 179.643 69.9482V68.8177C179.643 68.1394 179.352 67.7298 178.749 67.7298C178.135 67.7308 177.855 68.1394 177.855 68.8177Z" fill="#455A64"/>
<path d="M262.747 66.3281H260.618V71.6494H262.747V66.3281Z" fill="#455A64"/>
<path d="M265.585 65.2617H263.456V71.6491H265.585V65.2617Z" fill="#455A64"/>
<path d="M268.422 64.5049H266.294V71.6491H268.422V64.5049Z" fill="#455A64"/>
<path d="M271.26 63.1895H269.132V71.6495H271.26V63.1895Z" fill="#455A64"/>
<path d="M297.601 71.5037H284.83V63.6992H297.601V71.5037ZM285.54 70.7942H296.892V64.4087H285.54V70.7942Z" fill="#455A64"/>
<path d="M293.344 65.1807H286.604V70.0223H293.344V65.1807Z" fill="#455A64"/>
<path d="M298.764 66.6816H297.157V68.5207H298.764V66.6816Z" fill="#455A64"/>
<path d="M280.147 69.8057C280.064 69.8057 279.98 69.784 279.903 69.7386C277.305 68.1937 275.587 69.6279 275.515 69.6884C275.316 69.8606 275.015 69.8388 274.843 69.6411C274.671 69.4425 274.69 69.1445 274.887 68.9714C274.978 68.89 277.175 67.0084 280.391 68.9193C280.618 69.0537 280.692 69.3469 280.557 69.573C280.468 69.7225 280.309 69.8057 280.147 69.8057Z" fill="#455A64"/>
<path d="M281.108 68.2022C281.025 68.2022 280.941 68.1804 280.864 68.135C277.107 65.9006 274.581 68.0622 274.555 68.083C274.358 68.258 274.057 68.2372 273.883 68.0404C273.709 67.8427 273.728 67.5409 273.925 67.3678C273.957 67.3394 277.002 64.7304 281.352 67.3158C281.578 67.4501 281.653 67.7434 281.518 67.9695C281.429 68.1199 281.271 68.2022 281.108 68.2022Z" fill="#455A64"/>
<path d="M281.981 66.3463C281.898 66.3463 281.814 66.3246 281.737 66.2792C276.978 63.4487 273.814 66.1136 273.681 66.229C273.483 66.4012 273.181 66.3804 273.009 66.1827C272.835 65.985 272.855 65.6851 273.052 65.512C273.089 65.4788 276.849 62.2624 282.225 65.4599C282.452 65.5943 282.526 65.8875 282.391 66.1136C282.302 66.2631 282.143 66.3463 281.981 66.3463Z" fill="#455A64"/>
<path d="M278.712 70.6049C278.712 71.2661 278.176 71.8016 277.515 71.8016C276.854 71.8016 276.318 71.2661 276.318 70.6049C276.318 69.9436 276.854 69.4082 277.515 69.4082C278.176 69.4082 278.712 69.9436 278.712 70.6049Z" fill="#455A64"/>
<path d="M274.155 114.961H136.412V248.604H274.155V114.961Z" fill="#BA68C8" stroke="#455A64" stroke-miterlimit="10" stroke-linecap="round" stroke-linejoin="round"/>
<path d="M262.676 126.098H147.891V211.709H262.676V126.098Z" fill="white" stroke="#455A64" stroke-miterlimit="10" stroke-linecap="round" stroke-linejoin="round"/>
<path d="M261.28 126.098L146.494 211.709" stroke="#455A64" stroke-miterlimit="10" stroke-linecap="round" stroke-linejoin="round"/>
<path d="M147.891 126.098L262.676 211.709" stroke="#455A64" stroke-miterlimit="10" stroke-linecap="round" stroke-linejoin="round"/>
<path d="M189.706 228.927C191.97 228.927 193.805 227.091 193.805 224.828C193.805 222.564 191.97 220.729 189.706 220.729C187.443 220.729 185.607 222.564 185.607 224.828C185.607 227.091 187.443 228.927 189.706 228.927Z" fill="white" stroke="#455A64" stroke-miterlimit="10" stroke-linecap="round" stroke-linejoin="round"/>
<path d="M205.285 228.927C207.548 228.927 209.384 227.091 209.384 224.828C209.384 222.564 207.548 220.729 205.285 220.729C203.021 220.729 201.186 222.564 201.186 224.828C201.186 227.091 203.021 228.927 205.285 228.927Z" fill="white" stroke="#455A64" stroke-miterlimit="10" stroke-linecap="round" stroke-linejoin="round"/>
<path d="M220.862 228.927C223.126 228.927 224.961 227.091 224.961 224.828C224.961 222.564 223.126 220.729 220.862 220.729C218.598 220.729 216.763 222.564 216.763 224.828C216.763 227.091 218.598 228.927 220.862 228.927Z" fill="white" stroke="#455A64" stroke-miterlimit="10" stroke-linecap="round" stroke-linejoin="round"/>
<path d="M230.125 260.902H165.109V333.054H230.125V260.902Z" fill="#BA68C8" stroke="#455A64" stroke-miterlimit="10" stroke-linecap="round" stroke-linejoin="round"/>
<path d="M223.681 286.32H170.914V325.676H223.681V286.32Z" fill="white" stroke="#455A64" stroke-miterlimit="10" stroke-linecap="round" stroke-linejoin="round"/>
<path d="M223.038 286.32L170.272 325.675" stroke="#455A64" stroke-miterlimit="10" stroke-linecap="round" stroke-linejoin="round"/>
<path d="M170.914 286.32L223.681 325.675" stroke="#455A64" stroke-miterlimit="10" stroke-linecap="round" stroke-linejoin="round"/>
<path d="M217.006 268.281H176.831V276.48H217.006V268.281Z" fill="white" stroke="#455A64" stroke-miterlimit="10" stroke-linecap="round" stroke-linejoin="round"/>
<path d="M302.853 260.902H237.504V333.054H302.853V260.902Z" fill="#BA68C8" stroke="#455A64" stroke-miterlimit="10" stroke-linecap="round" stroke-linejoin="round"/>
<path d="M296.652 286.32H243.885V325.676H296.652V286.32Z" fill="white" stroke="#455A64" stroke-miterlimit="10" stroke-linecap="round" stroke-linejoin="round"/>
<path d="M296.01 286.32L243.243 325.675" stroke="#455A64" stroke-miterlimit="10" stroke-linecap="round" stroke-linejoin="round"/>
<path d="M243.885 286.32L296.652 325.675" stroke="#455A64" stroke-miterlimit="10" stroke-linecap="round" stroke-linejoin="round"/>
<path d="M289.976 268.281H249.802V276.48H289.976V268.281Z" fill="white" stroke="#455A64" stroke-miterlimit="10" stroke-linecap="round" stroke-linejoin="round"/>
<path d="M166.172 92.8232H184.209" stroke="#455A64" stroke-miterlimit="10" stroke-linecap="round" stroke-linejoin="round"/>
<path d="M166.172 98.5625H184.209" stroke="#455A64" stroke-miterlimit="10" stroke-linecap="round" stroke-linejoin="round"/>
<path d="M166.172 104.303H184.209" stroke="#455A64" stroke-miterlimit="10" stroke-linecap="round" stroke-linejoin="round"/>
<path d="M277.679 92.8232H198.148V105.121H277.679V92.8232Z" fill="#BA68C8" stroke="#455A64" stroke-miterlimit="10" stroke-linecap="round" stroke-linejoin="round"/>
<path d="M351.478 214.973C351.478 214.973 351.712 211.006 350.544 211.006C349.377 211.006 347.277 211.006 347.277 211.94C347.277 212.873 347.043 214.741 347.043 214.741C347.043 214.741 343.076 215.908 342.608 216.608C342.142 217.308 339.574 217.074 339.341 219.176C339.107 221.276 339.574 228.044 339.574 228.044L352.878 223.843C352.878 223.843 353.812 222.443 354.045 221.042C354.279 219.642 354.745 217.074 355.446 216.374C356.146 215.674 357.313 214.041 355.446 214.041C353.579 214.04 351.478 214.973 351.478 214.973Z" fill="#FFBDA7" stroke="#313337" stroke-miterlimit="10" stroke-linecap="round" stroke-linejoin="round"/>
<path d="M351.478 214.973C351.478 214.973 350.544 215.673 350.544 217.306Z" fill="#FFBDA7"/>
<path d="M351.478 214.973C351.478 214.973 350.544 215.673 350.544 217.306" stroke="#313337" stroke-miterlimit="10" stroke-linecap="round" stroke-linejoin="round"/>
<path d="M360.114 181.599C360.114 181.599 355.213 187.434 355.213 189.067C355.213 190.701 355.213 193.035 355.213 193.035C355.213 193.035 349.611 198.17 349.611 199.336C349.611 200.503 351.245 202.37 351.245 202.37C351.245 202.37 350.779 211.939 352.179 213.106C353.579 214.273 358.247 213.572 358.247 213.572L359.415 217.774L377.153 213.572L381.821 208.205C381.821 208.205 386.022 206.104 387.889 197.935C389.757 189.766 386.956 181.364 383.222 179.03C379.487 176.696 367.584 172.028 362.916 172.962C358.246 173.896 356.379 178.564 360.114 181.599Z" fill="#FFBDA7" stroke="#263238" stroke-miterlimit="10" stroke-linecap="round" stroke-linejoin="round"/>
<path d="M387.888 197.935C389.755 189.766 386.954 181.364 383.22 179.03C379.485 176.696 367.583 172.028 362.914 172.962C358.247 173.895 356.379 178.563 360.113 181.598L362.213 184.399C362.213 184.399 358.246 188.366 358.712 189.534C359.178 190.701 361.513 191.401 361.513 191.401C361.513 191.401 360.346 195.369 361.747 196.069C363.147 196.769 363.847 195.369 363.847 195.369C363.847 195.369 364.081 199.102 364.313 202.137C364.547 205.171 365.481 211.006 368.515 212.407C371.233 213.662 373.772 213.606 377.125 213.58L377.151 213.574L381.818 208.207C381.82 208.204 386.02 206.104 387.888 197.935Z" fill="#263238" stroke="#263238" stroke-miterlimit="10" stroke-linecap="round" stroke-linejoin="round"/>
<path d="M360.58 198.402C360.58 198.402 362.214 193.735 363.848 195.368C365.481 197.002 365.015 203.071 363.848 204.471C362.68 205.871 360.58 204.004 360.58 204.004" fill="#FFBDA7"/>
<path d="M360.58 198.402C360.58 198.402 362.214 193.735 363.848 195.368C365.481 197.002 365.015 203.071 363.848 204.471C362.68 205.871 360.58 204.004 360.58 204.004" stroke="#263238" stroke-miterlimit="10" stroke-linecap="round" stroke-linejoin="round"/>
<path d="M354.045 221.042L353.579 218.241C353.579 218.241 362.682 213.573 367.349 212.64C372.017 211.706 375.518 211.706 377.152 212.64C378.785 213.573 380.886 219.408 380.886 219.408C380.886 219.408 372.484 216.607 366.649 218.475C360.814 220.342 354.279 222.91 354.279 222.91L354.045 221.042Z" fill="white" stroke="#313337" stroke-miterlimit="10" stroke-linecap="round" stroke-linejoin="round"/>
<path d="M338.234 435.363C338.234 435.363 335.55 437.242 332.329 438.584C329.108 439.927 327.498 440.732 328.034 442.611C328.572 444.489 332.865 445.294 337.965 446.637C343.065 447.979 350.313 450.127 353.265 449.589C356.217 449.053 356.755 447.442 356.755 445.832C356.755 444.222 354.607 437.779 354.607 437.779L338.234 435.363Z" fill="#263238"/>
<path d="M382.522 436.438C382.522 436.438 381.18 445.295 382.254 447.174C383.327 449.052 391.38 449.052 392.991 447.979C394.601 446.905 395.138 444.758 395.138 444.758L394.064 434.021L380.912 436.438" fill="#263238"/>
<path d="M336.892 315.651C336.892 315.651 336.892 352.692 337.429 367.455C337.965 382.217 340.918 399.396 341.186 400.47C341.455 401.544 340.381 430.801 340.381 430.801L337.16 432.948L336.892 436.706C336.892 436.706 340.381 441.806 345.48 443.953C350.58 446.1 355.68 443.684 355.68 443.684C355.68 443.684 358.364 432.68 358.901 431.606C359.438 430.532 361.049 398.323 361.049 393.491C361.049 388.66 361.049 372.287 361.049 372.287L365.88 332.83L366.149 328.804C366.149 328.804 373.127 372.824 374.201 378.998C375.275 385.171 379.301 399.397 379.837 404.497C380.374 409.597 381.716 429.459 381.716 429.459L380.911 436.438L383.058 439.659C383.058 439.659 386.279 441.001 389.768 441.001C393.258 441.001 394.599 437.512 394.599 437.512C394.599 437.512 394.599 431.875 394.599 429.459C394.599 427.043 393.794 423.823 393.794 423.017C393.794 422.211 395.405 392.954 394.868 383.023C394.331 373.092 391.378 323.972 391.378 323.972L392.183 315.651C392.183 315.651 371.784 320.751 357.827 317.798C343.869 314.846 337.158 312.43 337.158 312.43V314.577L336.892 315.651Z" fill="#703E78" stroke="#552E5B" stroke-miterlimit="10" stroke-linecap="round" stroke-linejoin="round"/>
<path d="M398.624 227.111C398.624 227.111 400.258 228.745 402.358 234.346C404.459 239.948 417.529 270.99 415.896 272.623C414.262 274.257 391.389 290.362 391.389 290.362L389.056 283.593L399.558 269.59L391.856 254.419C391.856 254.419 389.055 251.385 390.222 244.382C391.389 237.38 398.624 227.111 398.624 227.111Z" fill="#455A64" stroke="#313337" stroke-miterlimit="10" stroke-linecap="round" stroke-linejoin="round"/>
<path d="M396.472 245.264L401.82 267.576L408.642 271.448L399.558 269.588L392.968 256.512L396.472 245.264Z" fill="#2C383E" stroke="#313337" stroke-miterlimit="10" stroke-linecap="round" stroke-linejoin="round"/>
<path d="M398.158 239.715L388.355 272.157L388.822 279.159C388.822 279.159 389.522 280.793 390.922 283.827C392.322 286.861 400.724 308.8 400.024 309.967C399.324 311.134 394.657 313.234 394.657 313.234L394.423 317.202C394.423 317.202 387.421 320.003 381.819 321.403C376.218 322.803 363.615 323.27 354.512 322.337C345.41 321.403 333.973 316.035 333.973 316.035C333.973 316.035 335.141 306.699 336.541 301.798C337.941 296.897 342.376 275.658 342.376 275.658L339.342 257.453L336.541 263.755C336.541 263.755 330.24 274.025 328.606 275.191C326.972 276.358 322.071 277.291 319.27 274.725C316.469 272.157 317.402 263.988 319.27 260.254C321.137 256.519 332.106 233.413 332.106 231.779C332.106 230.145 355.446 221.277 355.446 221.277C355.446 221.277 366.882 217.775 374.117 217.775C381.352 217.775 384.62 220.577 384.62 220.577C384.62 220.577 396.756 224.078 398.623 227.111C400.491 230.145 398.857 236.68 398.857 236.68" fill="#455A64"/>
<path d="M398.158 239.715L388.355 272.157L388.822 279.159C388.822 279.159 389.522 280.793 390.922 283.827C392.322 286.861 400.724 308.8 400.024 309.967C399.324 311.134 394.657 313.234 394.657 313.234L394.423 317.202C394.423 317.202 387.421 320.003 381.819 321.403C376.218 322.803 363.615 323.27 354.512 322.337C345.41 321.403 333.973 316.035 333.973 316.035C333.973 316.035 335.141 306.699 336.541 301.798C337.941 296.897 342.376 275.658 342.376 275.658L339.342 257.453L336.541 263.755C336.541 263.755 330.24 274.025 328.606 275.191C326.972 276.358 322.071 277.291 319.27 274.725C316.469 272.157 317.402 263.988 319.27 260.254C321.137 256.519 332.106 233.413 332.106 231.779C332.106 230.145 355.446 221.277 355.446 221.277C355.446 221.277 366.882 217.775 374.117 217.775C381.352 217.775 384.62 220.577 384.62 220.577C384.62 220.577 396.756 224.078 398.623 227.111C400.491 230.145 398.857 236.68 398.857 236.68" stroke="#313337" stroke-miterlimit="10" stroke-linecap="round" stroke-linejoin="round"/>
<path d="M393.907 311.104L388.565 284.727L396.579 312.106L394.657 313.234L393.907 311.104Z" fill="#2C383E" stroke="#313337" stroke-miterlimit="10" stroke-linecap="round" stroke-linejoin="round"/>
<path d="M336.617 245.278L335.841 241.814" stroke="#313337" stroke-miterlimit="10" stroke-linecap="round" stroke-linejoin="round"/>
<path d="M339.342 257.451L337.452 249.012" stroke="#313337" stroke-miterlimit="10" stroke-linecap="round" stroke-linejoin="round"/>
<path d="M356.146 275.657L378.085 271.689" stroke="#313337" stroke-miterlimit="10" stroke-linecap="round" stroke-linejoin="round"/>
<path d="M374.271 275.813L378.552 275.424" stroke="#313337" stroke-miterlimit="10" stroke-linecap="round" stroke-linejoin="round"/>
<path d="M360.581 277.056L372.66 275.959" stroke="#313337" stroke-miterlimit="10" stroke-linecap="round" stroke-linejoin="round"/>
<path d="M349.419 223.714C349.419 223.714 354.556 220.525 355.266 219.993C355.974 219.461 364.477 215.565 370.855 215.033C377.232 214.502 378.827 215.033 378.827 215.033L381.484 219.462C381.484 219.462 363.061 220.703 357.746 222.297C352.431 223.891 347.826 224.599 347.826 224.599L349.419 223.714Z" fill="#455A64" stroke="#313337" stroke-miterlimit="10" stroke-linecap="round" stroke-linejoin="round"/>
<path d="M73.9815 419.141L75.409 428.774C75.409 428.774 71.1274 439.834 72.1983 444.829C73.2692 449.824 77.1932 449.824 78.9773 448.398C80.7615 446.971 82.5457 443.046 82.5457 439.834C82.5457 436.623 82.189 429.13 82.189 427.346C82.189 425.562 81.1181 420.567 81.1181 420.567L73.9815 419.141Z" fill="#FFBDA7" stroke="#2C383E" stroke-miterlimit="10" stroke-linecap="round" stroke-linejoin="round"/>
<path d="M76.6275 444.358C74.1215 444.058 72.8993 441.455 72.3412 439.611C72.0167 441.574 71.8984 443.438 72.1974 444.829C73.2682 449.824 77.1922 449.824 78.9764 448.398C80.5345 447.151 82.0925 443.999 82.4624 441.081C81.1948 442.644 79.0634 444.651 76.6275 444.358Z" fill="#2C383E" stroke="#2C383E" stroke-miterlimit="10" stroke-linecap="round" stroke-linejoin="round"/>
<path d="M135.306 417.686C135.306 417.686 142.366 432.747 143.621 434.787C144.876 436.827 151.309 444.044 150.838 444.515C150.367 444.986 148.642 445.927 145.033 445.299C141.425 444.671 138.758 442.004 137.032 440.279C135.307 438.553 131.384 437.925 129.658 436.984C127.933 436.042 129.188 430.708 130.129 428.825C131.071 426.943 131.071 425.687 131.071 425.687L127.933 416.588L135.306 417.686Z" fill="#FFBDA7" stroke="#2C383E" stroke-miterlimit="10" stroke-linecap="round" stroke-linejoin="round"/>
<path d="M150.837 444.515C151.108 444.244 149.096 441.744 147.099 439.279C145.565 439.893 143.338 440.512 141.423 439.965C138.129 439.024 132.794 430.082 130.127 428.826C129.186 430.709 127.931 436.043 129.656 436.984C131.382 437.926 135.305 438.554 137.03 440.279C138.756 442.005 141.423 444.673 145.032 445.3C148.641 445.927 150.367 444.986 150.837 444.515Z" fill="#2C383E" stroke="#2C383E" stroke-miterlimit="10" stroke-linecap="round" stroke-linejoin="round"/>
<path d="M61.1368 297.475C61.1368 297.475 54.3578 319.953 56.1419 332.441C57.9261 344.929 65.4184 366.693 65.775 369.19C66.1317 371.688 63.2776 382.035 66.1317 392.382C68.9858 402.729 71.1266 423.066 71.1266 423.066L81.8306 422.353L87.5397 332.798C87.5397 332.798 105.023 372.759 106.807 375.256C108.591 377.754 123.576 418.784 123.576 418.784L136.064 419.498C136.064 419.498 127.857 371.33 126.074 366.692C124.29 362.054 120.365 353.847 120.365 353.847C120.365 353.847 112.515 307.107 111.088 302.112C109.661 297.117 103.596 283.916 103.596 283.916L69.7009 285.344L61.1368 297.475Z" fill="#703E78" stroke="#552E5B" stroke-miterlimit="10" stroke-linecap="round" stroke-linejoin="round"/>
<path d="M81.1303 289.003C81.1303 289.003 93.1918 290.659 102.415 288.294C102.415 288.294 92.9553 237.919 92.9553 236.973C92.9553 236.027 69.7783 240.284 69.7783 240.284L81.1303 289.003Z" fill="white" stroke="#2C383E" stroke-miterlimit="10" stroke-linecap="round" stroke-linejoin="round"/>
<path d="M92.8378 219.363L88.7388 228.286L91.6326 242.031C91.6326 242.031 88.98 244.684 84.3986 244.684C79.8171 244.684 76.9233 243.478 76.9233 243.478L72.3418 224.91L82.2284 210.441C82.2284 210.441 84.3976 217.434 92.8378 219.363Z" fill="#FFBDA7" stroke="#263238" stroke-miterlimit="10" stroke-linecap="round" stroke-linejoin="round"/>
<path d="M84.293 218.633L89.0589 226.08L92.0379 220.718L84.293 218.633Z" fill="#263238" stroke="#263238" stroke-miterlimit="10" stroke-linecap="round" stroke-linejoin="round"/>
<path d="M78.8503 203.691C78.8503 203.691 81.0204 204.415 81.7441 202.003C82.4678 199.592 83.4317 197.18 85.8431 196.457C88.2544 195.733 90.4246 194.287 91.6307 192.839C92.8369 191.393 96.4534 188.74 96.4534 188.74C96.4534 188.74 100.794 195.733 100.794 197.18C100.794 198.628 99.3974 199.794 100.311 201.039C101.99 203.327 104.89 206.285 104.651 207.068C104.087 208.929 101.516 211.167 101.516 211.167C101.516 211.167 101.758 218.401 99.8288 220.33C97.8999 222.259 90.907 220.812 88.4947 220.33C86.0824 219.848 81.0194 217.919 80.537 216.954C80.0545 215.989 78.3669 210.202 78.3669 210.202C78.3669 210.202 77.8863 204.414 78.8503 203.691Z" fill="#FFBDA7" stroke="#263238" stroke-miterlimit="10" stroke-linecap="round" stroke-linejoin="round"/>
<path d="M95.7305 203.209C96.2635 203.209 96.6955 202.507 96.6955 201.642C96.6955 200.776 96.2635 200.074 95.7305 200.074C95.1976 200.074 94.7656 200.776 94.7656 201.642C94.7656 202.507 95.1976 203.209 95.7305 203.209Z" fill="#263238"/>
<path d="M93.0781 198.627C93.0781 198.627 94.2843 195.492 97.6596 196.698" stroke="#263238" stroke-miterlimit="10" stroke-linecap="round" stroke-linejoin="round"/>
<path d="M100.312 212.855C100.312 212.855 97.6594 214.301 95.4893 211.408" stroke="#263238" stroke-miterlimit="10" stroke-linecap="round" stroke-linejoin="round"/>
<path d="M100.795 197.179C100.795 197.179 102.724 196.937 105.377 194.285C108.029 191.632 110.923 189.945 103.929 182.469C96.9364 174.994 80.056 173.065 74.028 175.476C67.9992 177.888 59.5599 189.222 58.595 195.973C57.6301 202.725 61.4888 207.066 61.73 209.478C61.9713 211.889 55.7012 213.818 61.4888 220.088C67.2764 226.358 72.8228 226.117 78.8507 225.152C84.8796 224.187 86.8085 216.229 86.8085 216.229C86.8085 216.229 82.7095 215.988 81.5033 214.3C80.2981 212.613 77.1631 208.513 77.4043 205.619C77.6455 202.725 81.5033 204.895 83.6744 202.966C85.8445 201.037 83.6744 197.661 87.2919 196.696C90.9094 195.731 95.4909 194.767 96.2136 192.356C96.9373 189.945 96.9373 189.945 96.9373 189.945C96.9373 189.945 100.795 195.25 100.795 197.179Z" fill="#263238" stroke="#263238" stroke-miterlimit="10" stroke-linecap="round" stroke-linejoin="round"/>
<path d="M80.5396 211.649C80.5396 211.649 76.9221 212.613 74.752 209.478C72.5818 206.343 73.3055 202.003 76.1984 201.279C79.0922 200.556 80.2974 206.343 80.2974 206.343" fill="#FFBDA7"/>
<path d="M80.5396 211.649C80.5396 211.649 76.9221 212.613 74.752 209.478C72.5818 206.343 73.3055 202.003 76.1984 201.279C79.0922 200.556 80.2974 206.343 80.2974 206.343" stroke="#263238" stroke-miterlimit="10" stroke-linecap="round" stroke-linejoin="round"/>
<path d="M86.0859 318.717C86.0859 318.717 78.6125 319.919 70.8932 318.954C63.1738 317.989 53.2881 314.612 53.2881 314.612L66.3145 283.753C66.3145 283.753 52.8057 238.894 52.8057 237.21C52.8057 236.084 61.4616 231.004 67.2511 227.741C70.1553 226.095 72.3406 224.912 72.3406 224.912C72.3406 224.912 82.4628 250.473 82.7087 255.052C82.8979 258.732 84.0237 270.774 84.7048 277.273C84.8845 278.881 85.0264 280.14 85.121 280.859C85.6035 284.472 86.0859 318.717 86.0859 318.717Z" fill="#455A64" stroke="#2C383E" stroke-miterlimit="10" stroke-linecap="round" stroke-linejoin="round"/>
<path d="M84.7057 277.273C82.019 270.821 78.3296 261.683 76.5511 256.168C74.0821 248.505 68.9358 232.849 67.252 227.741C70.1562 226.095 72.3414 224.912 72.3414 224.912C72.3414 224.912 82.4636 250.473 82.7096 255.052C82.8988 258.732 84.0245 270.774 84.7057 277.273Z" fill="#455A64" stroke="#2C383E" stroke-miterlimit="10" stroke-linecap="round" stroke-linejoin="round"/>
<path d="M143.959 211.166C143.959 211.166 146.996 203.357 146.996 202.393C146.996 201.428 148.299 189.222 148.299 189.222C148.299 189.222 148.742 187.798 149.615 187.798C150.488 187.798 150.488 188.296 150.488 189.17C150.488 190.044 150.239 193.536 150.239 193.536C150.239 193.536 151.237 188.671 151.486 186.676C151.736 184.68 152.11 183.432 152.983 183.931C153.856 184.43 153.981 185.054 153.981 186.301C153.981 187.549 153.357 193.038 153.357 193.038C153.357 193.038 156.227 184.68 156.476 183.557C156.726 182.434 157.599 182.559 157.973 183.807C158.348 185.054 156.476 190.168 156.476 191.166C156.476 192.164 155.978 193.786 155.978 193.786C155.978 193.786 158.348 190.667 159.221 189.545C160.094 188.422 160.842 187.799 160.967 189.17C161.092 190.542 159.969 192.413 159.471 193.287C158.972 194.161 157.599 197.279 157.599 197.279L157.474 199.774L161.715 197.404C161.715 197.404 163.088 197.903 162.589 199.026C162.09 200.149 157.723 203.267 157.723 203.267C157.723 203.267 155.727 205.013 155.353 205.512C154.979 206.011 152.733 207.009 152.733 207.009L148.866 215.117L143.959 211.166Z" fill="#FFBDA7" stroke="#2C383E" stroke-miterlimit="10" stroke-linecap="round" stroke-linejoin="round"/>
<path d="M151.436 213.815C151.436 213.815 137.927 249.507 136.962 250.226C135.998 250.955 110.2 247.332 110.2 247.332L107.305 269.279L117.437 313.892C117.437 313.892 112.366 317.269 109.954 317.269C107.551 317.269 102.481 317.269 102.481 317.269C102.481 317.269 99.4819 294.121 96.9088 276.421C95.4236 266.204 94.0897 257.804 93.56 256.744C92.1126 253.85 88.7354 228.289 88.7354 228.289L90.4287 225.63L93.0113 225.848L110.2 227.324L127.805 233.832L143.48 209.473L151.436 213.815Z" fill="#455A64" stroke="#2C383E" stroke-miterlimit="10" stroke-linecap="round" stroke-linejoin="round"/>
<path d="M96.9088 276.422C95.4236 266.205 94.0897 257.804 93.56 256.745C92.1126 253.85 88.7354 228.289 88.7354 228.289L90.4287 225.631L93.0113 225.848C94.1843 229.907 97.8453 242.943 98.5927 251.4C99.3779 260.349 97.3818 273.489 96.9088 276.422Z" fill="#455A64" stroke="#2C383E" stroke-miterlimit="10" stroke-linecap="round" stroke-linejoin="round"/>
<path d="M110.199 247.335L112.292 237.102L114.973 247.825L110.199 247.335Z" fill="#2C383E" stroke="#2C383E" stroke-miterlimit="10" stroke-linecap="round" stroke-linejoin="round"/>
<path d="M52.8072 237.209C52.8072 237.209 41.8715 270.32 40.4525 279.78C39.0335 289.24 48.257 289.476 52.7505 287.821C57.244 286.165 60.3185 261.806 60.3185 261.806L52.8072 237.209Z" fill="#455A64" stroke="#2C383E" stroke-miterlimit="10" stroke-linecap="round" stroke-linejoin="round"/>
<path d="M53.6963 255.656L59.6088 289.949L84.6778 287.347L78.5288 253.291L53.6963 255.656Z" fill="#2C383E" stroke="#2C383E" stroke-miterlimit="10" stroke-linecap="round" stroke-linejoin="round"/>
<path d="M52.2773 278.125L52.5138 295.153C52.5138 295.153 56.5343 285.22 56.0613 282.145C55.5883 279.071 52.2773 278.125 52.2773 278.125Z" fill="#2C383E" stroke="#2C383E" stroke-miterlimit="10" stroke-linecap="round" stroke-linejoin="round"/>
<path d="M40.9252 278.36C40.9252 278.36 38.3237 283.327 38.7967 287.347C39.2697 291.368 45.8917 294.915 47.5472 294.915C49.2027 294.915 51.8165 295.273 51.8165 295.273L51.8582 278.212L46.3657 277.414" fill="#455A64"/>
<path d="M40.9252 278.36C40.9252 278.36 38.3237 283.327 38.7967 287.347C39.2697 291.368 45.8917 294.915 47.5472 294.915C49.2027 294.915 51.8165 295.273 51.8165 295.273L51.8582 278.212L46.3657 277.414" stroke="#2C383E" stroke-miterlimit="10" stroke-linecap="round" stroke-linejoin="round"/>
<path d="M53.2235 277.651C53.2235 277.651 52.987 268.9 52.987 267.718C52.987 266.535 58.8995 262.751 60.3185 261.805C61.7375 260.859 62.6835 260.859 62.2105 262.515C61.7375 264.17 56.771 267.245 56.771 267.245L56.5345 268.9C56.5345 268.9 60.555 265.353 62.92 264.88C65.285 264.407 65.758 263.697 65.758 265.116C65.758 266.535 62.2105 268.191 61.2645 268.9C60.3185 269.61 57.0075 272.684 57.0075 272.684C57.0075 272.684 61.2645 270.083 64.1025 269.61C66.9405 269.137 67.65 269.137 67.65 270.083C67.65 271.029 66.704 271.502 65.285 272.211C63.866 272.921 59.8455 274.576 59.8455 274.576L58.4265 276.468C58.4265 276.468 65.285 275.049 65.9945 274.576C66.704 274.103 67.8865 274.34 66.4675 275.759C65.0485 277.178 59.3725 279.306 59.3725 279.306C59.3725 279.306 58.8995 282.144 57.9535 283.8C57.0075 285.455 54.406 285.692 54.406 285.692L52.041 284.746L52.2775 278.124L53.2235 277.651Z" fill="#FFBDA7" stroke="#2C383E" stroke-miterlimit="10" stroke-linecap="round" stroke-linejoin="round"/>
</svg>
