<svg width="500" height="500" viewBox="0 0 500 500" fill="none" xmlns="http://www.w3.org/2000/svg">
<path d="M438.66 127.62C435.32 122.235 431.646 117.065 427.66 112.14C404.66 83.9196 377.36 58.7896 344.87 41.9396C294.31 15.7196 230.28 9.57956 175.87 28.5996C111.25 51.1796 82.7197 106.64 71.9997 171.22C70.5064 180.24 69.3597 189.31 68.5597 198.43C65.8897 228.19 67.1997 258.29 63.5597 287.94C59.8197 318.32 42.9997 345.39 43.4097 376.53C43.5743 394.245 48.403 411.604 57.4097 426.86C82.7497 469 134.18 475.77 179 468.44C308.49 447.24 323.13 396.84 377.75 385.73C427.01 375.73 460.75 325.11 470.4 278.57C481.05 227.1 466.06 171.56 438.66 127.62Z" fill="#C886D3"/>
<path opacity="0.7" d="M438.66 127.62C435.32 122.235 431.646 117.065 427.66 112.14C404.66 83.9196 377.36 58.7896 344.87 41.9396C294.31 15.7196 230.28 9.57956 175.87 28.5996C111.25 51.1796 82.7197 106.64 71.9997 171.22C70.5064 180.24 69.3597 189.31 68.5597 198.43C65.8897 228.19 67.1997 258.29 63.5597 287.94C59.8197 318.32 42.9997 345.39 43.4097 376.53C43.5743 394.245 48.403 411.604 57.4097 426.86C82.7497 469 134.18 475.77 179 468.44C308.49 447.24 323.13 396.84 377.75 385.73C427.01 375.73 460.75 325.11 470.4 278.57C481.05 227.1 466.06 171.56 438.66 127.62Z" fill="white"/>
<g opacity="0.3">
<path d="M84 87V89.5" stroke="#41074A" stroke-linejoin="round"/>
<path d="M84 94.9004V113.8" stroke="#41074A" stroke-linejoin="round" stroke-dasharray="5.4 5.4"/>
<path d="M84 116.5V119H86.5" stroke="#41074A" stroke-linejoin="round"/>
<path d="M91.4102 119H246.05" stroke="#41074A" stroke-linejoin="round" stroke-dasharray="4.91 4.91"/>
<path d="M248.5 119H251V121.5" stroke="#41074A" stroke-linejoin="round"/>
<path d="M251 126.52V374.99" stroke="#41074A" stroke-linejoin="round" stroke-dasharray="5.02 5.02"/>
<path d="M251 377.5V380H253.5" stroke="#41074A" stroke-linejoin="round"/>
<path d="M256.5 380H261" stroke="#41074A" stroke-linejoin="round" stroke-dasharray="3 3"/>
<path d="M262.5 380H265" stroke="#41074A" stroke-linejoin="round"/>
<path d="M53 373V370.5" stroke="#41074A" stroke-linejoin="round"/>
<path d="M53 365.36V265.07" stroke="#41074A" stroke-linejoin="round" stroke-dasharray="5.14 5.14"/>
<path d="M53 262.5V260H55.5" stroke="#41074A" stroke-linejoin="round"/>
<path d="M60.0596 260H94.2196" stroke="#41074A" stroke-linejoin="round" stroke-dasharray="4.56 4.56"/>
<path d="M96.5 260H99V262.5" stroke="#41074A" stroke-linejoin="round"/>
<path d="M99 267.461V374.021" stroke="#41074A" stroke-linejoin="round" stroke-dasharray="4.96 4.96"/>
<path d="M99 376.5V379H101.5" stroke="#41074A" stroke-linejoin="round"/>
<path d="M106.59 379H215.96" stroke="#41074A" stroke-linejoin="round" stroke-dasharray="5.09 5.09"/>
<path d="M218.5 379H221V376.5" stroke="#41074A" stroke-linejoin="round"/>
<path d="M221 371.48V163.01" stroke="#41074A" stroke-linejoin="round" stroke-dasharray="5.02 5.02"/>
<path d="M221 160.5V158H223.5" stroke="#41074A" stroke-linejoin="round"/>
<path d="M228.38 158H421.06" stroke="#41074A" stroke-linejoin="round" stroke-dasharray="4.88 4.88"/>
<path d="M423.5 158H426" stroke="#41074A" stroke-linejoin="round"/>
<path d="M96 62.8604C96 59.6778 94.7357 56.6255 92.4853 54.3751C90.2348 52.1246 87.1826 50.8604 84 50.8604C80.8174 50.8604 77.7652 52.1246 75.5147 54.3751C73.2643 56.6255 72 59.6778 72 62.8604C72 69.4804 84 82.8604 84 82.8604C84 82.8604 96 69.4804 96 62.8604Z" stroke="#41074A" stroke-linejoin="round"/>
<path d="M89.1404 62.8607C89.1404 61.8441 88.8389 60.8503 88.2741 60.0051C87.7093 59.1598 86.9066 58.501 85.9673 58.112C85.0281 57.7229 83.9947 57.6211 82.9976 57.8195C82.0005 58.0178 81.0847 58.5073 80.3658 59.2262C79.647 59.945 79.1574 60.8609 78.9591 61.8579C78.7608 62.855 78.8626 63.8885 79.2516 64.8277C79.6406 65.7669 80.2995 66.5697 81.1447 67.1345C81.99 67.6992 82.9838 68.0007 84.0004 68.0007C85.3628 67.9981 86.6686 67.4557 87.632 66.4923C88.5953 65.5289 89.1377 64.2231 89.1404 62.8607Z" stroke="#41074A" stroke-linejoin="round"/>
<path d="M441.32 140.391C441.239 137.848 440.172 135.435 438.344 133.665C436.515 131.894 434.07 130.904 431.525 130.904C428.981 130.904 426.535 131.894 424.707 133.665C422.879 135.435 421.812 137.848 421.73 140.391C421.73 145.801 431.53 156.721 431.53 156.721C431.53 156.721 441.32 145.801 441.32 140.391Z" stroke="#41074A" stroke-linejoin="round"/>
<path d="M431.53 144.589C433.85 144.589 435.73 142.709 435.73 140.389C435.73 138.07 433.85 136.189 431.53 136.189C429.21 136.189 427.33 138.07 427.33 140.389C427.33 142.709 429.21 144.589 431.53 144.589Z" stroke="#41074A" stroke-linejoin="round"/>
<path d="M427.3 201.551C427.359 198.947 426.897 196.357 425.941 193.935C424.985 191.512 423.555 189.304 421.734 187.442C419.914 185.579 417.739 184.1 415.339 183.089C412.938 182.079 410.36 181.559 407.755 181.559C405.151 181.559 402.572 182.079 400.172 183.089C397.771 184.1 395.596 185.579 393.776 187.442C391.955 189.304 390.525 191.512 389.569 193.935C388.613 196.357 388.151 198.947 388.21 201.551C388.21 212.341 407.75 234.131 407.75 234.131C407.75 234.131 427.3 212.341 427.3 201.551Z" stroke="#41074A" stroke-linejoin="round"/>
<path d="M407.75 209.93C412.378 209.93 416.13 206.178 416.13 201.55C416.13 196.922 412.378 193.17 407.75 193.17C403.122 193.17 399.37 196.922 399.37 201.55C399.37 206.178 403.122 209.93 407.75 209.93Z" stroke="#41074A" stroke-linejoin="round"/>
<path d="M104.51 219.22C104.51 215.183 102.907 211.312 100.052 208.458C97.1982 205.604 93.3269 204 89.2903 204C85.2537 204 81.3824 205.604 78.5281 208.458C75.6738 211.312 74.0703 215.183 74.0703 219.22C74.0703 227.62 89.2903 244.58 89.2903 244.58C89.2903 244.58 104.51 227.62 104.51 219.22Z" stroke="#41074A" stroke-linejoin="round"/>
<path d="M95.8095 219.221C95.8095 217.932 95.4271 216.671 94.7107 215.599C93.9943 214.527 92.976 213.691 91.7846 213.197C90.5933 212.704 89.2823 212.575 88.0175 212.826C86.7528 213.078 85.591 213.699 84.6792 214.611C83.7674 215.523 83.1464 216.684 82.8948 217.949C82.6432 219.214 82.7724 220.525 83.2658 221.716C83.7593 222.908 84.595 223.926 85.6672 224.642C86.7394 225.359 88 225.741 89.2895 225.741C90.1458 225.741 90.9936 225.573 91.7846 225.245C92.5757 224.917 93.2944 224.437 93.8999 223.832C94.5053 223.226 94.9856 222.507 95.3132 221.716C95.6409 220.925 95.8095 220.077 95.8095 219.221Z" stroke="#41074A" stroke-linejoin="round"/>
<path d="M60.79 391.2C60.79 389.915 60.5367 388.641 60.0447 387.454C59.5527 386.266 58.8316 385.187 57.9225 384.278C57.0135 383.369 55.9342 382.647 54.7464 382.155C53.5587 381.663 52.2856 381.41 51 381.41C49.7143 381.41 48.4413 381.663 47.2535 382.155C46.0657 382.647 44.9865 383.369 44.0774 384.278C43.1683 385.187 42.4472 386.266 41.9552 387.454C41.4632 388.641 41.21 389.915 41.21 391.2C41.21 396.61 51 407.52 51 407.52C51 407.52 60.79 396.61 60.79 391.2Z" stroke="#41074A" stroke-linejoin="round"/>
<path d="M50.9998 395.4C53.3194 395.4 55.1998 393.52 55.1998 391.2C55.1998 388.88 53.3194 387 50.9998 387C48.6802 387 46.7998 388.88 46.7998 391.2C46.7998 393.52 48.6802 395.4 50.9998 395.4Z" stroke="#41074A" stroke-linejoin="round"/>
</g>
<path d="M342 74.1809V378.481C342 386.568 338.79 394.325 333.075 400.048C327.36 405.77 319.607 408.99 311.52 409.001H166.78C158.685 409.001 150.922 405.785 145.199 400.062C139.475 394.338 136.26 386.575 136.26 378.481V74.1809C136.262 66.0882 139.479 58.3279 145.202 52.6065C150.926 46.885 158.687 43.6709 166.78 43.6709H227.3L227.36 43.8909C229.15 50.3309 233.27 54.5209 237.84 54.5209H240.46C245.03 54.5209 249.15 50.3309 250.94 43.8909L251.01 43.6709H311.52C319.606 43.6815 327.357 46.9003 333.071 52.6206C338.786 58.3409 341.997 66.0952 342 74.1809Z" fill="#E0D6E4"/>
<path d="M262.45 266.551V170.261H306.65C307.032 170.262 307.407 170.153 307.73 169.947C308.052 169.742 308.309 169.448 308.47 169.101L342 95.7009V86.0809L305.32 166.261H262.45V43.6709H258.45V93.0009C218.53 89.0609 195.14 107.881 182.51 124.561C174.57 135.199 168.668 147.215 165.1 160.001L136.26 141.691V146.431L187.91 179.221V237.731L136.29 228.311V232.381L258.48 254.661V265.661L136.29 363.261V368.381L191.55 324.241L233.66 381.241C233.846 381.492 234.089 381.697 234.368 381.838C234.648 381.978 234.957 382.051 235.27 382.051C235.438 382.051 235.606 382.031 235.77 381.991L302.16 364.991V409.001H306.16V326.191C306.159 325.822 306.055 325.46 305.861 325.146C305.667 324.831 305.39 324.577 305.06 324.411L290.15 316.871L315.63 289.071L342 299.231V295.001L315.73 284.901C315.354 284.754 314.943 284.725 314.551 284.816C314.158 284.907 313.802 285.114 313.53 285.411L286.41 315.001L235.35 289.171L261.69 268.121C261.927 267.934 262.118 267.695 262.25 267.423C262.382 267.151 262.45 266.853 262.45 266.551ZM302.13 327.421V360.761L236.05 377.691L194.65 321.691L231.91 291.921L302.13 327.421ZM258.45 250.561L191.88 238.421V181.701L258.45 224.001V250.561ZM258.45 219.231L168.65 162.231C172.041 149.504 177.809 137.534 185.65 126.951C203.11 103.891 227.59 93.8209 258.4 96.9509L258.45 219.231Z" fill="white"/>
<path d="M342.04 225.38H336.05L320.93 263.19H290.69L306.65 226.22H283.13V190.1H318.41L342.04 144.23V225.38Z" fill="#BBB3BF"/>
<path d="M174 79H144V104H174V79Z" fill="#BBB3BF"/>
<path d="M200.6 79H179V97H200.6V79Z" fill="#BBB3BF"/>
<path d="M177.68 158.62L251.93 206.57V106C251.93 106 198.82 100.88 177.68 158.62Z" fill="#BBB3BF"/>
<path d="M221 79H207V90.67H221V79Z" fill="#BBB3BF"/>
<path d="M247 314L220 333L235 361L289 358L292 332L271 323L262 337L253 332L261 317L247 314Z" fill="#BBB3BF"/>
<path d="M160.48 257.591V311.611L136.26 323.931V256.451L160.48 257.591Z" fill="#BBB3BF"/>
<path d="M200.8 291.12V259.49L167.2 257.91V308.2L200.8 291.12Z" fill="#BBB3BF"/>
<path d="M205.84 259.73V288.56L226 278.31V260.67L205.84 259.73Z" fill="#BBB3BF"/>
<path d="M355.13 155.39V116.72H351.63V67.2104C351.627 59.1168 348.411 51.3555 342.688 45.6325C336.965 39.9094 329.204 36.6931 321.11 36.6904H157.19C149.096 36.6931 141.335 39.9094 135.612 45.6325C129.889 51.3555 126.673 59.1168 126.67 67.2104V400.28C126.67 408.375 129.885 416.138 135.609 421.861C141.333 427.585 149.096 430.8 157.19 430.8H321.11C329.204 430.8 336.967 427.585 342.691 421.861C348.414 416.138 351.63 408.375 351.63 400.28V188.35H355.13V165.5H351.63V155.39H355.13ZM342 378.48C342 386.568 338.79 394.325 333.075 400.047C327.36 405.77 319.607 408.99 311.52 409H166.78C158.686 409 150.923 405.785 145.199 400.061C139.475 394.338 136.26 386.575 136.26 378.48V74.1804C136.263 66.0878 139.479 58.3274 145.203 52.606C150.926 46.8845 158.687 43.6704 166.78 43.6704H227.3L227.36 43.8904C229.15 50.3304 233.27 54.5204 237.84 54.5204H240.46C245.03 54.5204 249.15 50.3304 250.94 43.8904L251.01 43.6704H311.52C319.606 43.681 327.357 46.8998 333.071 52.6201C338.786 58.3404 341.997 66.0947 342 74.1804V378.48Z" fill="#5D3464" stroke="#82498C" stroke-linejoin="round"/>
<path d="M317.58 40.9004H160.72C156.712 40.9004 152.744 41.6899 149.042 43.2238C145.34 44.7577 141.976 47.0059 139.143 49.8401C136.309 52.6743 134.062 56.0388 132.53 59.7416C130.997 63.4444 130.209 67.4129 130.21 71.4204V396.08C130.21 404.173 133.424 411.934 139.146 417.658C144.867 423.381 152.627 426.598 160.72 426.6H317.58C325.673 426.598 333.433 423.381 339.154 417.658C344.876 411.934 348.09 404.173 348.09 396.08V71.4204C348.091 67.4129 347.303 63.4444 345.77 59.7416C344.238 56.0388 341.991 52.6743 339.157 49.8401C336.324 47.0059 332.96 44.7577 329.258 43.2238C325.556 41.6899 321.587 40.9004 317.58 40.9004ZM342 378.48C342 386.568 338.79 394.325 333.075 400.047C327.36 405.77 319.607 408.99 311.52 409H166.78C158.686 409 150.923 405.785 145.199 400.061C139.475 394.338 136.26 386.575 136.26 378.48V74.1804C136.263 66.0877 139.479 58.3274 145.203 52.606C150.926 46.8845 158.687 43.6704 166.78 43.6704H227.3L227.36 43.8904C229.15 50.3304 233.27 54.5204 237.84 54.5204H240.46C245.03 54.5204 249.15 50.3304 250.94 43.8904L251.01 43.6704H311.52C319.606 43.681 327.357 46.8998 333.071 52.6201C338.786 58.3404 341.997 66.0946 342 74.1804V378.48Z" fill="#455A64" stroke="#263238" stroke-linejoin="round"/>
<path d="M238.52 47.9905C240.1 47.9905 241.38 46.71 241.38 45.1305C241.38 43.551 240.1 42.2705 238.52 42.2705C236.941 42.2705 235.66 43.551 235.66 45.1305C235.66 46.71 236.941 47.9905 238.52 47.9905Z" fill="white"/>
<path d="M154.55 56.11C154.55 59.01 151.3 60.05 151.28 62.27V62.42H154.44V63.42H150.22V62.6C150.22 59.49 153.48 58.89 153.48 56.18C153.48 55.18 153.15 54.67 152.35 54.67C151.55 54.67 151.23 55.24 151.23 56.09V56.94H150.23V56.16C150.23 54.69 150.91 53.71 152.39 53.71C153.87 53.71 154.55 54.64 154.55 56.11Z" fill="#263238"/>
<path d="M159.81 56.1007V56.3507C159.866 56.7654 159.782 57.1868 159.572 57.5487C159.362 57.9107 159.038 58.1927 158.65 58.3507C159.035 58.5128 159.356 58.7956 159.565 59.1565C159.774 59.5173 159.86 59.9365 159.81 60.3507V61.0907C159.81 62.5607 159.13 63.5207 157.64 63.5207C156.15 63.5207 155.49 62.5207 155.49 61.0907V60.4007H156.49V61.1307C156.49 61.9907 156.85 62.5107 157.62 62.5107C158.39 62.5107 158.74 62.0007 158.74 61.0307V60.2907C158.74 59.3407 158.34 58.8907 157.53 58.8607H157V57.8607H157.63C157.797 57.8625 157.962 57.8282 158.113 57.7601C158.265 57.6919 158.401 57.5917 158.51 57.4662C158.619 57.3406 158.7 57.1929 158.747 57.0331C158.793 56.8733 158.805 56.7053 158.78 56.5407V56.1007C158.78 55.1007 158.44 54.6007 157.66 54.6007C156.88 54.6007 156.53 55.1407 156.53 56.0007V56.5007H155.53V56.1007C155.53 54.6307 156.21 53.6807 157.68 53.6807C159.15 53.6807 159.81 54.6307 159.81 56.1007Z" fill="#263238"/>
<path d="M161.89 56.8301V58.1601H160.89V56.8301H161.89ZM161.89 62.0601V63.3901H160.89V62.0601H161.89Z" fill="#263238"/>
<path d="M164.06 57.69C164.2 57.4374 164.409 57.2294 164.662 57.0897C164.915 56.9501 165.202 56.8843 165.49 56.9C166.73 56.9 167.27 57.8 167.27 59.18V61.06C167.27 62.53 166.57 63.49 165.1 63.49C163.63 63.49 162.95 62.49 162.95 61.06V60.41H163.95V61.13C163.95 61.99 164.31 62.51 165.08 62.51C165.85 62.51 166.2 61.99 166.2 61.13V59.26C166.2 58.39 165.85 57.87 165.08 57.87C164.942 57.8575 164.802 57.874 164.67 57.9186C164.538 57.9633 164.417 58.0349 164.314 58.1291C164.212 58.2232 164.13 58.3377 164.074 58.4653C164.018 58.5929 163.99 58.7307 163.99 58.87V59.09H162.99L163.25 53.75H167V54.75H164.17L164.06 57.69Z" fill="#263238"/>
<path d="M172.62 56.0807V56.2607H171.62V56.0007C171.62 55.1307 171.26 54.6207 170.48 54.6207C169.7 54.6207 169.31 55.1407 169.31 56.1707V58.3307C169.426 58.019 169.64 57.7532 169.919 57.5729C170.198 57.3927 170.529 57.3077 170.86 57.3307C172.1 57.3307 172.65 58.2207 172.65 59.6107V61.0707C172.65 62.5407 171.92 63.5007 170.45 63.5007C168.98 63.5007 168.24 62.5007 168.24 61.0707V56.1507C168.24 54.6307 168.92 53.6807 170.45 53.6807C171.98 53.6807 172.62 54.6107 172.62 56.0807ZM169.31 59.6807V61.1307C169.31 61.9907 169.67 62.5107 170.45 62.5107C171.23 62.5107 171.59 61.9907 171.59 61.1307V59.6807C171.59 58.8207 171.22 58.3007 170.45 58.3007C169.68 58.3007 169.31 58.8207 169.31 59.6807Z" fill="#263238"/>
<path d="M277.6 56.5107H274.88V63.3007H277.6V56.5107Z" fill="#263238"/>
<path d="M281.22 55.1504H278.5V63.3004H281.22V55.1504Z" fill="#263238"/>
<path d="M284.84 54.1807H282.12V63.2907H284.84V54.1807Z" fill="#263238"/>
<path d="M288.45 52.5H285.74V63.29H288.45V52.5Z" fill="#263238"/>
<path d="M322.05 63.1104H305.76V53.1104H322.05V63.1104ZM306.67 62.2004H321.15V54.0604H306.67V62.2004Z" fill="#263238"/>
<path d="M316.62 55.04H308.02V61.22H316.62V55.04Z" fill="#263238"/>
<path d="M323.529 56.96H321.479V59.31H323.529V56.96Z" fill="#263238"/>
<path d="M299.79 60.9405C299.681 60.9451 299.573 60.9173 299.48 60.8605C296.16 58.8605 293.97 60.7205 293.88 60.7905C293.758 60.8965 293.599 60.9497 293.437 60.9384C293.276 60.9272 293.126 60.8524 293.02 60.7305C292.967 60.6709 292.928 60.6015 292.902 60.5264C292.877 60.4513 292.867 60.372 292.873 60.293C292.878 60.214 292.899 60.1368 292.935 60.066C292.97 59.9952 293.02 59.9322 293.08 59.8805C293.19 59.7705 296 57.3705 300.08 59.8105C300.149 59.8516 300.209 59.9061 300.257 59.9706C300.305 60.0352 300.34 60.1087 300.36 60.1868C300.379 60.2648 300.383 60.346 300.371 60.4256C300.359 60.5052 300.331 60.5816 300.29 60.6505C300.238 60.737 300.164 60.809 300.077 60.8597C299.989 60.9103 299.891 60.9381 299.79 60.9405Z" fill="#263238"/>
<path d="M301 58.9006C300.89 58.899 300.783 58.8679 300.69 58.8106C295.9 55.9606 292.69 58.7206 292.64 58.7506C292.517 58.8498 292.36 58.8975 292.203 58.8836C292.046 58.8697 291.9 58.7954 291.796 58.6762C291.693 58.557 291.639 58.4023 291.647 58.2446C291.655 58.0869 291.724 57.9385 291.84 57.8306C291.84 57.8306 295.77 54.4706 301.31 57.7706C301.448 57.852 301.549 57.9849 301.59 58.1403C301.632 58.2958 301.61 58.4612 301.53 58.6006C301.474 58.6913 301.396 58.7664 301.303 58.8189C301.211 58.8714 301.106 58.8995 301 58.9006Z" fill="#263238"/>
<path d="M302.13 56.5308C302.02 56.5319 301.912 56.5006 301.82 56.4408C295.74 52.8308 291.71 56.2308 291.54 56.3808C291.418 56.4868 291.259 56.54 291.097 56.5288C290.936 56.5175 290.786 56.4427 290.68 56.3208C290.628 56.2612 290.588 56.1919 290.563 56.1168C290.537 56.0417 290.527 55.9624 290.533 55.8833C290.538 55.8043 290.559 55.7272 290.595 55.6564C290.631 55.5856 290.68 55.5225 290.74 55.4708C290.79 55.4708 295.58 51.3208 302.44 55.4008C302.509 55.441 302.569 55.4945 302.617 55.5582C302.665 55.6219 302.699 55.6945 302.719 55.7718C302.738 55.849 302.742 55.9294 302.731 56.0083C302.719 56.0871 302.691 56.1627 302.65 56.2308C302.596 56.3214 302.52 56.3967 302.429 56.4492C302.338 56.5018 302.235 56.5299 302.13 56.5308Z" fill="#263238"/>
<path d="M296.43 63.4907C297.275 63.4907 297.96 62.8057 297.96 61.9607C297.96 61.1157 297.275 60.4307 296.43 60.4307C295.585 60.4307 294.9 61.1157 294.9 61.9607C294.9 62.8057 295.585 63.4907 296.43 63.4907Z" fill="#263238"/>
<path d="M441.24 321.229C441.29 321.229 442.24 317.569 442.24 317.329C442.63 314.559 441.75 308.979 438.92 307.609C438.447 307.402 437.937 307.297 437.421 307.299C436.905 307.301 436.395 307.411 435.924 307.622C435.453 307.833 435.032 308.14 434.687 308.524C434.341 308.907 434.08 309.359 433.92 309.849C433.16 311.929 434.12 314.479 435.26 316.229C436.58 318.289 441.24 321.219 441.24 321.229Z" fill="#5D3464"/>
<path d="M385.61 320C387.86 321 393.36 320.85 393.36 320.85C393.36 320.85 392.18 317.25 392.08 317.03C390.87 314.51 387.08 310.34 383.95 310.76C383.434 310.841 382.94 311.03 382.503 311.315C382.065 311.6 381.692 311.975 381.409 312.414C381.126 312.852 380.938 313.346 380.859 313.863C380.78 314.379 380.811 314.906 380.95 315.41C381.49 317.58 383.69 319.18 385.61 320Z" fill="#5D3464"/>
<path d="M457.66 301.289C454.54 300.959 450.84 305.229 449.66 307.779C449.56 308.009 448.42 311.639 448.48 311.639H448.54C447.95 312.309 447.33 313.029 446.66 313.839C445.44 315.329 444.08 317.029 442.72 318.989C441.232 321.077 439.87 323.25 438.64 325.499C437.244 328.006 436.076 330.634 435.15 333.349V333.449C435.15 332.539 435.15 329.969 435.1 329.769C434.74 326.999 432.41 321.849 429.33 321.279C428.816 321.197 428.291 321.224 427.789 321.359C427.286 321.494 426.818 321.734 426.415 322.062C426.012 322.391 425.682 322.801 425.449 323.266C425.215 323.731 425.083 324.24 425.06 324.759C424.87 326.969 426.47 329.169 428.06 330.569C429.82 332.139 434.7 333.659 435.06 333.779C434.184 336.567 433.496 339.41 433 342.289C432.7 343.969 432.45 345.659 432.22 347.369C432.22 346.569 432.22 345.859 432.22 345.769C431.86 342.989 429.53 337.839 426.45 337.269C425.935 337.189 425.41 337.217 424.908 337.353C424.405 337.49 423.937 337.73 423.534 338.06C423.131 338.389 422.802 338.8 422.569 339.265C422.336 339.73 422.203 340.239 422.18 340.759C421.99 342.959 423.59 345.169 425.18 346.559C426.77 347.949 430.9 349.349 432 349.709C431.91 350.359 431.83 351.009 431.75 351.709C431.37 354.849 431.01 357.989 430.56 361.059C430.41 362.139 430.21 363.199 430.02 364.259C430.02 363.559 430.02 362.959 430.02 362.869C429.66 360.099 427.34 354.949 424.25 354.379C423.735 354.299 423.21 354.327 422.708 354.463C422.205 354.6 421.737 354.84 421.334 355.17C420.931 355.499 420.602 355.91 420.369 356.375C420.136 356.84 420.003 357.349 419.98 357.869C419.8 360.069 421.4 362.279 422.98 363.669C424.56 365.059 428.3 366.329 429.6 366.749C429.37 367.829 429.15 368.909 428.88 369.949C428.67 370.649 428.53 371.339 428.29 372.039C428.05 372.739 427.84 373.419 427.63 374.099C427.15 375.389 426.68 376.729 426.19 377.979C425.85 378.849 425.52 379.679 425.19 380.509C425.36 379.429 425.65 377.319 425.65 377.139C425.612 374.68 424.947 372.271 423.72 370.139C423.728 369.865 423.711 369.59 423.67 369.319C423.605 368.803 423.432 368.306 423.163 367.861C422.894 367.416 422.534 367.032 422.107 366.735C421.679 366.438 421.194 366.234 420.683 366.136C420.172 366.039 419.646 366.05 419.14 366.169C416.14 366.979 414.19 372.299 414.04 375.089C414.04 375.249 414.14 377.089 414.23 378.189C414.08 377.529 413.94 376.889 413.77 376.189C413.45 374.849 413.1 373.529 412.72 372.099L412 369.999C411.81 369.309 411.51 368.599 411.27 367.889C410.67 366.249 409.99 364.619 409.27 362.989C410.44 362.709 414.59 361.649 416.27 360.379C417.95 359.109 419.69 357.019 419.67 354.809C419.684 354.289 419.589 353.772 419.39 353.291C419.191 352.81 418.894 352.376 418.516 352.018C418.139 351.66 417.691 351.385 417.2 351.211C416.71 351.037 416.188 350.968 415.67 351.009C412.55 351.349 409.85 356.309 409.29 359.009C409.29 359.189 409.07 361.199 408.99 362.299C408.54 361.299 408.1 360.359 407.62 359.379C406.23 356.579 404.73 353.789 403.25 350.989C402.79 350.129 402.35 349.279 401.91 348.419C402.33 348.319 407.28 347.169 409.15 345.739C410.81 344.469 412.56 342.389 412.55 340.179C412.564 339.659 412.469 339.142 412.27 338.661C412.071 338.18 411.774 337.746 411.396 337.388C411.019 337.03 410.571 336.755 410.08 336.581C409.59 336.407 409.068 336.338 408.55 336.379C405.44 336.719 402.74 341.679 402.17 344.379C402.17 344.589 401.87 347.479 401.84 348.219C400.84 346.329 399.89 344.439 399.02 342.539C397.834 339.973 396.812 337.335 395.96 334.639C396.16 334.639 401.34 333.419 403.25 331.949C404.91 330.679 406.67 328.599 406.65 326.389C406.664 325.869 406.569 325.352 406.37 324.871C406.171 324.39 405.874 323.956 405.496 323.598C405.119 323.24 404.671 322.965 404.18 322.791C403.69 322.617 403.168 322.548 402.65 322.589C399.53 322.929 396.83 327.889 396.26 330.589C396.26 330.769 396.02 332.979 395.95 334.029H395.77C394.993 331.292 394.461 328.491 394.18 325.659C394.01 324.109 393.93 322.609 393.88 321.149C394.88 321.029 399.37 320.429 401.24 319.299C403.11 318.169 405 316.299 405.24 314.139C405.31 313.624 405.271 313.1 405.126 312.601C404.981 312.102 404.732 311.639 404.397 311.242C404.061 310.845 403.646 310.523 403.178 310.297C402.71 310.071 402.199 309.945 401.68 309.929C398.54 309.929 395.31 314.559 394.45 317.219C394.4 317.369 394.09 318.889 393.87 319.999C393.87 319.349 393.87 318.669 393.87 317.999C393.87 315.629 394.03 313.469 394.18 311.549C394.27 310.449 394.37 309.469 394.48 308.549C395.39 307.919 399.01 305.369 400.13 303.549C401.25 301.729 402.13 299.189 401.29 297.129C401.115 296.639 400.84 296.192 400.481 295.815C400.122 295.438 399.688 295.142 399.207 294.944C398.726 294.745 398.209 294.651 397.689 294.666C397.17 294.68 396.659 294.804 396.19 295.029C393.41 296.469 392.67 302.079 393.13 304.839C393.13 305.069 394.23 308.729 394.27 308.699H394.33C394.21 309.589 394.08 310.539 393.97 311.579C393.78 313.499 393.58 315.669 393.53 318.049C393.444 320.611 393.504 323.175 393.71 325.729C393.931 328.593 394.41 331.431 395.14 334.209C395.137 334.242 395.137 334.276 395.14 334.309C394.64 333.529 393.14 331.409 393.06 331.259C391.23 329.149 386.45 326.139 383.57 327.359C383.096 327.575 382.673 327.889 382.328 328.28C381.983 328.67 381.725 329.129 381.569 329.626C381.413 330.123 381.364 330.648 381.424 331.165C381.485 331.682 381.654 332.181 381.92 332.629C382.99 334.569 385.54 335.519 387.61 335.829C389.94 336.169 394.85 334.739 395.24 334.629C396.049 337.438 397.052 340.188 398.24 342.859C398.91 344.429 399.64 345.979 400.39 347.529C399.94 346.869 399.54 346.289 399.47 346.219C397.64 344.099 392.86 341.089 389.98 342.309C389.506 342.525 389.083 342.839 388.738 343.23C388.393 343.62 388.135 344.079 387.979 344.576C387.823 345.073 387.774 345.598 387.834 346.115C387.895 346.632 388.064 347.131 388.33 347.579C389.4 349.519 391.95 350.479 394.02 350.779C396.09 351.079 400.32 349.949 401.43 349.639C401.73 350.229 402.02 350.819 402.31 351.409C403.73 354.239 405.16 357.059 406.48 359.869C406.95 360.869 407.37 361.869 407.79 362.869C407.4 362.289 407.06 361.799 407 361.729C405.17 359.619 400.38 356.599 397.5 357.829C397.025 358.045 396.602 358.359 396.258 358.75C395.913 359.14 395.655 359.6 395.5 360.097C395.345 360.595 395.297 361.119 395.359 361.637C395.421 362.154 395.592 362.652 395.86 363.099C396.92 365.029 399.47 365.989 401.54 366.289C403.61 366.589 407.44 365.579 408.76 365.209C409.16 366.209 409.57 367.269 409.92 368.279C410.14 368.979 410.4 369.629 410.58 370.349C410.76 371.069 410.97 371.739 411.16 372.429C411.49 373.769 411.83 375.149 412.11 376.429C412.31 377.349 412.48 378.219 412.66 379.099C412.21 378.099 411.29 376.189 411.19 376.039C409.7 373.669 405.43 369.969 402.4 370.739C401.893 370.88 401.423 371.127 401.019 371.464C400.615 371.8 400.288 372.219 400.058 372.692C399.828 373.164 399.701 373.681 399.686 374.206C399.671 374.731 399.768 375.254 399.97 375.739C400.73 377.819 403.11 379.149 405.11 379.739C407.31 380.409 412.18 379.799 412.79 379.739C413.08 381.189 413.35 382.609 413.58 383.959C414.4 388.609 414.91 392.509 415.23 395.249C415.28 395.729 415.33 396.169 415.37 396.579H405.94L408.82 452.719H426.02L428.9 396.579H420L420.2 396.169C421.4 393.659 423.08 390.049 424.88 385.639C425.46 384.239 426.04 382.739 426.63 381.189C427.22 381.319 432.04 382.299 434.29 381.789C436.29 381.329 438.79 380.179 439.71 378.159C439.939 377.693 440.068 377.183 440.088 376.663C440.108 376.144 440.018 375.626 439.825 375.143C439.631 374.66 439.339 374.223 438.966 373.861C438.593 373.498 438.148 373.219 437.66 373.039C434.66 372.039 430.16 375.409 428.49 377.659C428.4 377.799 427.49 379.359 426.94 380.349C427.18 379.719 427.41 379.099 427.65 378.449C428.12 377.159 428.56 375.849 429.03 374.449C429.24 373.769 429.44 373.079 429.65 372.379C429.86 371.679 430.02 370.939 430.21 370.209C430.61 368.509 430.94 366.769 431.21 365.019C432.34 365.429 436.39 366.829 438.48 366.689C440.57 366.549 443.18 365.769 444.39 363.919C444.689 363.493 444.894 363.009 444.993 362.498C445.092 361.988 445.083 361.462 444.965 360.955C444.847 360.448 444.623 359.972 444.309 359.557C443.994 359.143 443.596 358.799 443.14 358.549C440.36 357.109 435.36 359.759 433.38 361.729C433.26 361.849 431.99 363.429 431.32 364.309C431.48 363.249 431.65 362.199 431.79 361.119C432.17 358.009 432.47 354.859 432.79 351.709L433.09 348.819C433.49 348.969 438.26 350.749 440.61 350.579C442.69 350.439 445.31 349.669 446.51 347.819C446.809 347.393 447.016 346.909 447.115 346.398C447.215 345.887 447.207 345.36 447.09 344.853C446.973 344.345 446.75 343.868 446.437 343.452C446.123 343.036 445.725 342.691 445.27 342.439C442.48 341.009 437.49 343.649 435.51 345.629C435.36 345.779 433.51 348.049 433.11 348.629C433.33 346.509 433.58 344.399 433.9 342.339C434.318 339.542 434.923 336.776 435.71 334.059C435.89 334.129 440.86 336.009 443.26 335.839C445.35 335.689 447.96 334.929 449.17 333.069C449.469 332.643 449.674 332.159 449.773 331.648C449.872 331.138 449.863 330.612 449.745 330.105C449.627 329.598 449.403 329.122 449.089 328.707C448.774 328.293 448.376 327.949 447.92 327.699C445.14 326.259 440.15 328.909 438.16 330.879C438.03 331.009 436.65 332.739 436.01 333.579L435.85 333.489C436.708 330.779 437.809 328.151 439.14 325.639C439.85 324.239 440.61 322.949 441.38 321.709C442.27 322.149 446.38 324.139 448.53 324.229C450.68 324.319 453.3 323.829 454.71 322.129C455.053 321.737 455.311 321.278 455.465 320.78C455.62 320.282 455.668 319.757 455.607 319.24C455.545 318.722 455.376 318.223 455.109 317.775C454.843 317.327 454.485 316.94 454.06 316.639C451.45 314.909 446.2 316.989 444.01 318.739C443.89 318.829 442.79 319.929 442.01 320.739C442.37 320.189 442.73 319.609 443.08 319.079C444.39 317.079 445.71 315.379 446.89 313.859C447.57 312.999 448.2 312.239 448.8 311.529C449.9 311.529 454.33 311.379 456.27 310.469C458.21 309.559 460.33 307.919 460.79 305.759C460.898 305.258 460.901 304.741 460.8 304.239C460.698 303.736 460.494 303.261 460.201 302.841C459.907 302.421 459.529 302.067 459.092 301.8C458.655 301.533 458.167 301.359 457.66 301.289ZM423.16 384.999C421.28 389.329 419.55 392.869 418.3 395.319C418.05 395.819 417.82 396.249 417.61 396.659H417.41C417.34 396.179 417.28 395.659 417.2 395.069C416.82 392.309 416.2 388.369 415.29 383.689C415 382.209 414.66 380.639 414.29 379.029C415.757 378.446 417.189 377.778 418.58 377.029C420.18 378.769 424.29 380.799 424.82 381.029C424.26 382.409 423.71 383.749 423.16 384.999Z" fill="#5D3464"/>
<path opacity="0.3" d="M385.61 320C387.86 321 393.36 320.85 393.36 320.85C393.36 320.85 392.18 317.25 392.08 317.03C390.87 314.51 387.08 310.34 383.95 310.76C383.434 310.841 382.94 311.03 382.503 311.315C382.065 311.6 381.692 311.975 381.409 312.414C381.126 312.852 380.938 313.346 380.859 313.863C380.78 314.379 380.811 314.906 380.95 315.41C381.49 317.58 383.69 319.18 385.61 320Z" fill="#5D3464"/>
<path opacity="0.3" d="M441.24 321.229C441.29 321.229 442.24 317.569 442.24 317.329C442.63 314.559 441.75 308.979 438.92 307.609C438.447 307.402 437.937 307.297 437.421 307.299C436.905 307.301 436.395 307.411 435.924 307.622C435.453 307.833 435.032 308.14 434.687 308.524C434.341 308.907 434.08 309.359 433.92 309.849C433.16 311.929 434.12 314.479 435.26 316.229C436.58 318.289 441.24 321.219 441.24 321.229Z" fill="#5D3464"/>
<path opacity="0.3" d="M457.66 301.289C454.54 300.959 450.84 305.229 449.66 307.779C449.56 308.009 448.42 311.639 448.48 311.639H448.54C447.95 312.309 447.33 313.029 446.66 313.839C445.44 315.329 444.08 317.029 442.72 318.989C441.232 321.077 439.87 323.25 438.64 325.499C437.244 328.006 436.076 330.634 435.15 333.349V333.449C435.15 332.539 435.15 329.969 435.1 329.769C434.74 326.999 432.41 321.849 429.33 321.279C428.816 321.197 428.291 321.224 427.789 321.359C427.286 321.494 426.818 321.734 426.415 322.062C426.012 322.391 425.682 322.801 425.449 323.266C425.215 323.731 425.083 324.24 425.06 324.759C424.87 326.969 426.47 329.169 428.06 330.569C429.82 332.139 434.7 333.659 435.06 333.779C434.184 336.567 433.496 339.41 433 342.289C432.7 343.969 432.45 345.659 432.22 347.369C432.22 346.569 432.22 345.859 432.22 345.769C431.86 342.989 429.53 337.839 426.45 337.269C425.935 337.189 425.41 337.217 424.908 337.353C424.405 337.49 423.937 337.73 423.534 338.06C423.131 338.389 422.802 338.8 422.569 339.265C422.336 339.73 422.203 340.239 422.18 340.759C421.99 342.959 423.59 345.169 425.18 346.559C426.77 347.949 430.9 349.349 432 349.709C431.91 350.359 431.83 351.009 431.75 351.709C431.37 354.849 431.01 357.989 430.56 361.059C430.41 362.139 430.21 363.199 430.02 364.259C430.02 363.559 430.02 362.959 430.02 362.869C429.66 360.099 427.34 354.949 424.25 354.379C423.735 354.299 423.21 354.327 422.708 354.463C422.205 354.6 421.737 354.84 421.334 355.17C420.931 355.499 420.602 355.91 420.369 356.375C420.136 356.84 420.003 357.349 419.98 357.869C419.8 360.069 421.4 362.279 422.98 363.669C424.56 365.059 428.3 366.329 429.6 366.749C429.37 367.829 429.15 368.909 428.88 369.949C428.67 370.649 428.53 371.339 428.29 372.039C428.05 372.739 427.84 373.419 427.63 374.099C427.15 375.389 426.68 376.729 426.19 377.979C425.85 378.849 425.52 379.679 425.19 380.509C425.36 379.429 425.65 377.319 425.65 377.139C425.612 374.68 424.947 372.271 423.72 370.139C423.728 369.865 423.711 369.59 423.67 369.319C423.605 368.803 423.432 368.306 423.163 367.861C422.894 367.416 422.534 367.032 422.107 366.735C421.679 366.438 421.194 366.234 420.683 366.136C420.172 366.039 419.646 366.05 419.14 366.169C416.14 366.979 414.19 372.299 414.04 375.089C414.04 375.249 414.14 377.089 414.23 378.189C414.08 377.529 413.94 376.889 413.77 376.189C413.45 374.849 413.1 373.529 412.72 372.099L412 369.999C411.81 369.309 411.51 368.599 411.27 367.889C410.67 366.249 409.99 364.619 409.27 362.989C410.44 362.709 414.59 361.649 416.27 360.379C417.95 359.109 419.69 357.019 419.67 354.809C419.684 354.289 419.589 353.772 419.39 353.291C419.191 352.81 418.894 352.376 418.516 352.018C418.139 351.66 417.691 351.385 417.2 351.211C416.71 351.037 416.188 350.968 415.67 351.009C412.55 351.349 409.85 356.309 409.29 359.009C409.29 359.189 409.07 361.199 408.99 362.299C408.54 361.299 408.1 360.359 407.62 359.379C406.23 356.579 404.73 353.789 403.25 350.989C402.79 350.129 402.35 349.279 401.91 348.419C402.33 348.319 407.28 347.169 409.15 345.739C410.81 344.469 412.56 342.389 412.55 340.179C412.564 339.659 412.469 339.142 412.27 338.661C412.071 338.18 411.774 337.746 411.396 337.388C411.019 337.03 410.571 336.755 410.08 336.581C409.59 336.407 409.068 336.338 408.55 336.379C405.44 336.719 402.74 341.679 402.17 344.379C402.17 344.589 401.87 347.479 401.84 348.219C400.84 346.329 399.89 344.439 399.02 342.539C397.834 339.973 396.812 337.335 395.96 334.639C396.16 334.639 401.34 333.419 403.25 331.949C404.91 330.679 406.67 328.599 406.65 326.389C406.664 325.869 406.569 325.352 406.37 324.871C406.171 324.39 405.874 323.956 405.496 323.598C405.119 323.24 404.671 322.965 404.18 322.791C403.69 322.617 403.168 322.548 402.65 322.589C399.53 322.929 396.83 327.889 396.26 330.589C396.26 330.769 396.02 332.979 395.95 334.029H395.77C394.993 331.292 394.461 328.491 394.18 325.659C394.01 324.109 393.93 322.609 393.88 321.149C394.88 321.029 399.37 320.429 401.24 319.299C403.11 318.169 405 316.299 405.24 314.139C405.31 313.624 405.271 313.1 405.126 312.601C404.981 312.102 404.732 311.639 404.397 311.242C404.061 310.845 403.646 310.523 403.178 310.297C402.71 310.071 402.199 309.945 401.68 309.929C398.54 309.929 395.31 314.559 394.45 317.219C394.4 317.369 394.09 318.889 393.87 319.999C393.87 319.349 393.87 318.669 393.87 317.999C393.87 315.629 394.03 313.469 394.18 311.549C394.27 310.449 394.37 309.469 394.48 308.549C395.39 307.919 399.01 305.369 400.13 303.549C401.25 301.729 402.13 299.189 401.29 297.129C401.115 296.639 400.84 296.192 400.481 295.815C400.122 295.438 399.688 295.142 399.207 294.944C398.726 294.745 398.209 294.651 397.689 294.666C397.17 294.68 396.659 294.804 396.19 295.029C393.41 296.469 392.67 302.079 393.13 304.839C393.13 305.069 394.23 308.729 394.27 308.699H394.33C394.21 309.589 394.08 310.539 393.97 311.579C393.78 313.499 393.58 315.669 393.53 318.049C393.444 320.611 393.504 323.175 393.71 325.729C393.931 328.593 394.41 331.431 395.14 334.209C395.137 334.242 395.137 334.276 395.14 334.309C394.64 333.529 393.14 331.409 393.06 331.259C391.23 329.149 386.45 326.139 383.57 327.359C383.096 327.575 382.673 327.889 382.328 328.28C381.983 328.67 381.725 329.129 381.569 329.626C381.413 330.123 381.364 330.648 381.424 331.165C381.485 331.682 381.654 332.181 381.92 332.629C382.99 334.569 385.54 335.519 387.61 335.829C389.94 336.169 394.85 334.739 395.24 334.629C396.049 337.438 397.052 340.188 398.24 342.859C398.91 344.429 399.64 345.979 400.39 347.529C399.94 346.869 399.54 346.289 399.47 346.219C397.64 344.099 392.86 341.089 389.98 342.309C389.506 342.525 389.083 342.839 388.738 343.23C388.393 343.62 388.135 344.079 387.979 344.576C387.823 345.073 387.774 345.598 387.834 346.115C387.895 346.632 388.064 347.131 388.33 347.579C389.4 349.519 391.95 350.479 394.02 350.779C396.09 351.079 400.32 349.949 401.43 349.639C401.73 350.229 402.02 350.819 402.31 351.409C403.73 354.239 405.16 357.059 406.48 359.869C406.95 360.869 407.37 361.869 407.79 362.869C407.4 362.289 407.06 361.799 407 361.729C405.17 359.619 400.38 356.599 397.5 357.829C397.025 358.045 396.602 358.359 396.258 358.75C395.913 359.14 395.655 359.6 395.5 360.097C395.345 360.595 395.297 361.119 395.359 361.637C395.421 362.154 395.592 362.652 395.86 363.099C396.92 365.029 399.47 365.989 401.54 366.289C403.61 366.589 407.44 365.579 408.76 365.209C409.16 366.209 409.57 367.269 409.92 368.279C410.14 368.979 410.4 369.629 410.58 370.349C410.76 371.069 410.97 371.739 411.16 372.429C411.49 373.769 411.83 375.149 412.11 376.429C412.31 377.349 412.48 378.219 412.66 379.099C412.21 378.099 411.29 376.189 411.19 376.039C409.7 373.669 405.43 369.969 402.4 370.739C401.893 370.88 401.423 371.127 401.019 371.464C400.615 371.8 400.288 372.219 400.058 372.692C399.828 373.164 399.701 373.681 399.686 374.206C399.671 374.731 399.768 375.254 399.97 375.739C400.73 377.819 403.11 379.149 405.11 379.739C407.31 380.409 412.18 379.799 412.79 379.739C413.08 381.189 413.35 382.609 413.58 383.959C414.4 388.609 414.91 392.509 415.23 395.249C415.28 395.729 415.33 396.169 415.37 396.579H405.94L408.82 452.719H426.02L428.9 396.579H420L420.2 396.169C421.4 393.659 423.08 390.049 424.88 385.639C425.46 384.239 426.04 382.739 426.63 381.189C427.22 381.319 432.04 382.299 434.29 381.789C436.29 381.329 438.79 380.179 439.71 378.159C439.939 377.693 440.068 377.183 440.088 376.663C440.108 376.144 440.018 375.626 439.825 375.143C439.631 374.66 439.339 374.223 438.966 373.861C438.593 373.498 438.148 373.219 437.66 373.039C434.66 372.039 430.16 375.409 428.49 377.659C428.4 377.799 427.49 379.359 426.94 380.349C427.18 379.719 427.41 379.099 427.65 378.449C428.12 377.159 428.56 375.849 429.03 374.449C429.24 373.769 429.44 373.079 429.65 372.379C429.86 371.679 430.02 370.939 430.21 370.209C430.61 368.509 430.94 366.769 431.21 365.019C432.34 365.429 436.39 366.829 438.48 366.689C440.57 366.549 443.18 365.769 444.39 363.919C444.689 363.493 444.894 363.009 444.993 362.498C445.092 361.988 445.083 361.462 444.965 360.955C444.847 360.448 444.623 359.972 444.309 359.557C443.994 359.143 443.596 358.799 443.14 358.549C440.36 357.109 435.36 359.759 433.38 361.729C433.26 361.849 431.99 363.429 431.32 364.309C431.48 363.249 431.65 362.199 431.79 361.119C432.17 358.009 432.47 354.859 432.79 351.709L433.09 348.819C433.49 348.969 438.26 350.749 440.61 350.579C442.69 350.439 445.31 349.669 446.51 347.819C446.809 347.393 447.016 346.909 447.115 346.398C447.215 345.887 447.207 345.36 447.09 344.853C446.973 344.345 446.75 343.868 446.437 343.452C446.123 343.036 445.725 342.691 445.27 342.439C442.48 341.009 437.49 343.649 435.51 345.629C435.36 345.779 433.51 348.049 433.11 348.629C433.33 346.509 433.58 344.399 433.9 342.339C434.318 339.542 434.923 336.776 435.71 334.059C435.89 334.129 440.86 336.009 443.26 335.839C445.35 335.689 447.96 334.929 449.17 333.069C449.469 332.643 449.674 332.159 449.773 331.648C449.872 331.138 449.863 330.612 449.745 330.105C449.627 329.598 449.403 329.122 449.089 328.707C448.774 328.293 448.376 327.949 447.92 327.699C445.14 326.259 440.15 328.909 438.16 330.879C438.03 331.009 436.65 332.739 436.01 333.579L435.85 333.489C436.708 330.779 437.809 328.151 439.14 325.639C439.85 324.239 440.61 322.949 441.38 321.709C442.27 322.149 446.38 324.139 448.53 324.229C450.68 324.319 453.3 323.829 454.71 322.129C455.053 321.737 455.311 321.278 455.465 320.78C455.62 320.282 455.668 319.757 455.607 319.24C455.545 318.722 455.376 318.223 455.109 317.775C454.843 317.327 454.485 316.94 454.06 316.639C451.45 314.909 446.2 316.989 444.01 318.739C443.89 318.829 442.79 319.929 442.01 320.739C442.37 320.189 442.73 319.609 443.08 319.079C444.39 317.079 445.71 315.379 446.89 313.859C447.57 312.999 448.2 312.239 448.8 311.529C449.9 311.529 454.33 311.379 456.27 310.469C458.21 309.559 460.33 307.919 460.79 305.759C460.898 305.258 460.901 304.741 460.8 304.239C460.698 303.736 460.494 303.261 460.201 302.841C459.907 302.421 459.529 302.067 459.092 301.8C458.655 301.533 458.167 301.359 457.66 301.289ZM423.16 384.999C421.28 389.329 419.55 392.869 418.3 395.319C418.05 395.819 417.82 396.249 417.61 396.659H417.41C417.34 396.179 417.28 395.659 417.2 395.069C416.82 392.309 416.2 388.369 415.29 383.689C415 382.209 414.66 380.639 414.29 379.029C415.757 378.446 417.189 377.778 418.58 377.029C420.18 378.769 424.29 380.799 424.82 381.029C424.26 382.409 423.71 383.749 423.16 384.999Z" fill="#5D3464"/>
<path d="M387 452.801H471.74" stroke="#263238" stroke-linejoin="round"/>
<path d="M88 452.801H378" stroke="#263238" stroke-linejoin="round"/>
<path d="M49.1201 452.801H79.0001" stroke="#263238" stroke-linejoin="round"/>
<path d="M330.31 449.5C330.26 450.235 330.146 450.965 329.97 451.68C329.15 454.68 324.48 453.6 321.74 454.68C319 455.76 315.43 457.15 312.96 457.97C310.49 458.79 302.82 459.35 298.96 458.52C296.42 457.98 295.2 456.6 295.15 455.17C295.133 454.384 295.42 453.621 295.95 453.04C297.59 451.12 303.89 448.65 307.46 445.91C311.03 443.17 315.69 436.58 315.69 436.58C320.9 437.96 329.69 436.86 329.69 436.86C329.69 436.86 330.23 439.86 330.23 440.7C330.422 443.63 330.449 446.568 330.31 449.5Z" fill="#263238" stroke="#263238" stroke-linecap="round" stroke-linejoin="round"/>
<path d="M330.31 449.5C330.26 450.235 330.146 450.964 329.97 451.68C329.15 454.68 324.48 453.6 321.74 454.68C319 455.76 315.43 457.15 312.96 457.97C310.49 458.79 302.82 459.35 298.96 458.52C296.42 457.98 295.2 456.6 295.15 455.17C296.55 456.17 299.96 457.98 306.44 457.41C315.44 456.64 318.51 453.52 322.22 451.97C324.853 450.948 327.557 450.123 330.31 449.5Z" fill="#263238" stroke="#263238" stroke-linecap="round" stroke-linejoin="round"/>
<path d="M329.93 438.239C329.81 437.479 329.7 436.869 329.7 436.869C326.942 437.186 324.166 437.319 321.39 437.269L321.19 437.419C321.19 437.419 321.74 437.139 322.02 439.339C322.177 440.795 322.177 442.263 322.02 443.719C322.02 443.719 328.26 442.239 329.15 440.159C329.41 439.549 329.68 438.879 329.93 438.239Z" fill="#FFBDA7" stroke="#263238" stroke-linecap="round" stroke-linejoin="round"/>
<path d="M361 460.9C358.48 462.5 346.12 469.41 344 469.81C341.88 470.21 334 469.67 331.77 467.81C330.02 466.37 329.55 464.44 330.68 462.81C331.046 462.301 331.508 461.87 332.04 461.54C334.7 459.81 339.35 454.89 341.48 452.1C343.61 449.31 346.93 444.39 346.93 444.39L347.19 442.93L360.75 443.33C360.75 443.33 361.01 446.25 361.14 446.79C361.635 448.664 361.993 450.573 362.21 452.5C362.37 453.63 362.55 454.69 362.66 455.66C362.87 458 362.74 459.78 361 460.9Z" fill="#263238" stroke="#263238" stroke-linecap="round" stroke-linejoin="round"/>
<path d="M361 460.9C358.48 462.5 346.12 469.41 344 469.81C341.88 470.21 334 469.67 331.77 467.81C330.02 466.37 329.55 464.44 330.68 462.81C330.85 463.74 332.13 468.45 340.39 468.11C349.54 467.72 356.74 459.54 360.83 456.81C361.48 456.37 362.09 455.99 362.66 455.66C362.87 458 362.74 459.78 361 460.9Z" fill="#263238" stroke="#263238" stroke-linecap="round" stroke-linejoin="round"/>
<path d="M360.7 443.359L347.14 442.959L346.88 444.419L346.24 445.349C346.58 445.349 350.65 445.129 351.79 446.149C352.93 447.169 353.12 450.669 355.91 449.739C357.808 449.049 359.559 448.008 361.07 446.669C360.93 445.889 360.7 443.359 360.7 443.359Z" fill="#FFBDA7" stroke="#263238" stroke-linecap="round" stroke-linejoin="round"/>
<path d="M305.56 310.71C305.56 310.71 304.46 339.51 306.66 357.06C308.86 374.61 309.4 387.23 309.66 388.06C309.92 388.89 315.14 423.71 315.41 425.91C315.68 428.11 316.51 430.57 316.51 431.39C316.51 432.21 317.33 432.49 321.45 433.59C324.19 434.193 327.045 434.002 329.68 433.04C329.68 433.04 331.6 414.12 331.6 409.18C331.6 404.24 329.13 381.75 329.13 380.93C329.13 380.11 330.77 342.54 330.77 342.54L332.14 343.63C332.14 343.63 334.06 375.72 334.89 381.75C335.72 387.78 335.98 393.27 337.08 396.29C338.18 399.31 340.65 418.5 341.74 421.29C342.83 424.08 343.66 434.45 343.66 434.45L344.48 437.74C344.48 437.74 345.58 440.74 352.48 440.74C359.38 440.74 360.71 439.09 360.71 439.09C360.71 439.09 360.98 424.56 360.98 417.7C360.98 410.84 357.41 390.55 356.87 385.89C356.33 381.23 355.49 362.3 356.59 358.46C357.69 354.62 359.59 332.14 359.59 322.54C359.682 318.053 359.498 313.565 359.04 309.1C359.04 309.1 332.99 310.74 324.21 309.37C315.43 308 307.21 306.08 307.21 306.08L305.56 310.71Z" fill="#703E78" stroke="#263238" stroke-linecap="round" stroke-linejoin="round"/>
<path d="M313.521 309.619C313.521 309.619 325.311 313.179 344.231 311.539L344.501 306.599L314.341 296.449L313.521 309.619Z" fill="#808080" stroke="#263238" stroke-linecap="round" stroke-linejoin="round"/>
<path d="M329.507 308.726L321.723 308.436L321.608 311.503L329.393 311.794L329.507 308.726Z" fill="white" stroke="#263238" stroke-linecap="round" stroke-linejoin="round"/>
<path d="M346.701 228.71C346.701 228.71 337.101 227.62 332.441 228.99C327.781 230.36 322.021 231.99 320.371 236.39C318.721 240.79 310.641 305.92 310.641 305.92C310.641 305.92 319.551 308.8 327.501 308.8C335.451 308.8 343.961 308.25 343.961 308.25C343.961 308.25 344.781 273.14 346.701 266.84C348.621 260.54 346.701 228.71 346.701 228.71Z" fill="#BA68C8" stroke="#263238" stroke-linecap="round" stroke-linejoin="round"/>
<path d="M324.92 233.2C324.92 233.2 325.26 240.01 327.25 241.67C329.24 243.33 329.41 243.84 329.41 243.84L330.57 256.84C330.57 256.84 334.9 249 335.4 248C335.886 246.205 336.22 244.372 336.4 242.52C337.848 241.432 339.237 240.267 340.56 239.03C342.05 237.53 343.22 227.56 343.22 226.39C343.22 225.22 342.89 218.91 342.89 218.91C342.89 218.91 339.39 226.72 335.57 230.21C331.75 233.7 328.09 234.04 327.26 233.87C326.43 233.7 324.92 233.2 324.92 233.2Z" fill="#FFBDA7" stroke="#263238" stroke-linecap="round" stroke-linejoin="round"/>
<path d="M324.76 231.2C324.76 231.2 324.42 255.31 324.42 265.11C324.42 274.91 321.42 287.22 318.27 295.53C315.12 303.84 308.27 326.2 306.14 331.36C304.745 334.768 303.579 338.266 302.65 341.83C302.65 341.83 299.49 339.33 299.32 331.19C299.15 323.05 301.15 313.57 301.48 307.75C301.81 301.93 301.98 289.75 301.98 289.75C301.98 289.75 301.98 292.57 297.66 294.75C293.34 296.93 290.66 297.91 287.85 292.59C285.04 287.27 285.36 284.11 288.02 279.29C290.68 274.47 293.17 262 295.33 256.35C297.49 250.7 297.33 242.72 299.66 241.06C301.99 239.4 313.12 234.91 317.61 232.25C322.1 229.59 323.93 229.59 323.93 229.59C323.93 229.59 324.59 229.21 324.76 231.2Z" fill="#455A64" stroke="#263238" stroke-linecap="round" stroke-linejoin="round"/>
<path d="M292.85 276.909C292.85 276.909 289.52 283.789 290.47 286.159C291.42 288.529 294.47 291.159 298.07 289.009C301.67 286.859 302.81 286.639 301.62 282.129C300.43 277.619 295.93 274.299 292.85 276.909Z" stroke="#263238" stroke-linecap="round" stroke-linejoin="round"/>
<path d="M303.83 253.678C303.72 251.358 303.65 249.818 303.65 249.818Z" fill="white"/>
<path d="M303.83 253.678C303.72 251.358 303.65 249.818 303.65 249.818" stroke="#263238" stroke-linecap="round" stroke-linejoin="round"/>
<path d="M302 289.719C302 289.719 304.33 277.079 304.33 269.929C304.33 266.019 304.13 260.359 303.95 256.039" fill="#455A64"/>
<path d="M302 289.719C302 289.719 304.33 277.079 304.33 269.929C304.33 266.019 304.13 260.359 303.95 256.039" stroke="#263238" stroke-linecap="round" stroke-linejoin="round"/>
<path d="M323.93 229.538C323.93 229.538 322.48 229.538 319.02 231.398C318.25 235.778 316.77 245.968 317.77 255.308C318.63 263.208 321.47 271.438 323.4 276.308C324.03 272.601 324.364 268.849 324.4 265.088C324.4 255.288 324.74 231.178 324.74 231.178C324.59 229.208 323.93 229.538 323.93 229.538Z" fill="#455A64" stroke="#263238" stroke-linecap="round" stroke-linejoin="round"/>
<path d="M314.001 208.05C314.001 208.05 315.371 216.83 316.751 220.62C318.131 224.41 321.401 228.53 322.751 231.12C324.101 233.71 327.051 236.45 330.321 236.45C333.591 236.45 338.061 231.98 338.921 230.45C339.781 228.92 342.191 226.14 342.371 224.45C342.551 222.76 342.541 219.98 342.541 219.98C343.592 219.632 344.524 218.996 345.232 218.143C345.939 217.291 346.392 216.257 346.541 215.16C347.019 213.09 346.837 210.922 346.021 208.96C345.218 207.039 344.237 205.197 343.091 203.46C340.681 199.46 332.771 197.26 325.191 198.46C317.611 199.66 313.831 202.89 314.001 208.05Z" fill="#FFBDA7" stroke="#263238" stroke-linecap="round" stroke-linejoin="round"/>
<path d="M314.211 214.998C317.499 214.368 320.88 214.413 324.151 215.128C324.151 215.128 325.011 218.228 323.151 220.288C321.291 222.348 317.811 221.668 316.781 221.288C315.751 220.908 314.151 219.148 314.211 214.998Z" fill="white" stroke="#263238" stroke-linecap="round" stroke-linejoin="round"/>
<path d="M327.59 214.849C330.889 214.17 334.291 214.17 337.59 214.849C337.59 214.849 338.49 217.929 336.59 220.029C334.69 222.129 331.27 221.479 330.24 221.149C329.21 220.819 327.59 218.999 327.59 214.849Z" fill="white" stroke="#263238" stroke-linecap="round" stroke-linejoin="round"/>
<path d="M324.15 215.109C325.224 214.595 326.452 214.502 327.59 214.849" stroke="#263238" stroke-linecap="round" stroke-linejoin="round"/>
<path d="M337.54 214.83L342.22 211.67" stroke="#263238" stroke-linecap="round" stroke-linejoin="round"/>
<path d="M324.42 216.539C324.42 216.539 326.27 215.819 327.42 216.539" stroke="#263238" stroke-linecap="round" stroke-linejoin="round"/>
<path d="M328.53 213.669C330.512 212.842 332.695 212.626 334.8 213.049" stroke="#263238" stroke-linecap="round" stroke-linejoin="round"/>
<path d="M323.08 214.179C321.394 213.228 319.404 212.97 317.53 213.459" stroke="#263238" stroke-linecap="round" stroke-linejoin="round"/>
<path d="M324.42 218.289C324.42 218.289 324.21 225.799 324.31 226.109C324.894 226.68 325.657 227.033 326.47 227.109C327.376 227.006 328.272 226.832 329.15 226.589" stroke="#263238" stroke-linecap="round" stroke-linejoin="round"/>
<path d="M325.24 229C325.24 229 327.3 230.75 331.1 229.2" stroke="#263238" stroke-linecap="round" stroke-linejoin="round"/>
<path d="M310.9 199.789C310.9 199.789 305.22 201.509 306.25 205.129C307.28 208.749 313.83 209.949 320.37 208.219C325.05 206.884 329.609 205.157 334 203.059C333.571 203.588 333.367 204.264 333.433 204.941C333.498 205.618 333.828 206.243 334.35 206.679C336.24 208.399 336.07 203.059 336.07 203.059C336.07 203.059 335.9 209.259 338.31 210.119C340.72 210.979 340.89 211.489 340.89 211.489C340.89 211.489 340.03 214.939 341.06 215.279C342.09 215.619 342.26 211.669 342.26 211.669C342.26 211.669 342.61 209.599 344.33 209.259L346.05 208.909C346.05 208.909 345.71 197.379 344.67 193.079C343.63 188.779 333.14 183.779 324.02 187.079C314.9 190.379 310.55 194.799 310.9 199.789Z" fill="#263238" stroke="#263238" stroke-linecap="round" stroke-linejoin="round"/>
<path d="M291.181 281.57L295.181 275.25L298.501 280.57C297.003 281.446 295.449 282.225 293.851 282.9C292.913 282.56 292.017 282.114 291.181 281.57Z" fill="#FFBDA7" stroke="#263238" stroke-linecap="round" stroke-linejoin="round"/>
<path d="M299.32 284.888C300.291 285.304 301.294 285.638 302.32 285.888C303.317 285.83 304.29 285.563 305.177 285.105C306.064 284.646 306.846 284.007 307.47 283.228C308.47 281.568 306.8 281.398 306.8 281.398L304.8 283.228L301.47 283.068L299.32 284.888Z" fill="#FFBDA7" stroke="#263238" stroke-linecap="round" stroke-linejoin="round"/>
<path d="M289.021 268.27L298.661 282.9L306.801 283.07L298.161 268.27H289.021Z" fill="#263238" stroke="#263238" stroke-linecap="round" stroke-linejoin="round"/>
<path d="M299 277.749C299 277.749 291.19 280.409 291.19 281.569C291.261 282.162 291.561 282.704 292.027 283.078C292.492 283.452 293.086 283.629 293.68 283.569C295.01 283.569 300.16 280.239 300.68 279.239C301.2 278.239 300.65 277.579 299 277.749Z" fill="#FFBDA7" stroke="#263238" stroke-linecap="round" stroke-linejoin="round"/>
<path d="M294.5 283.729C294.62 284.185 294.849 284.606 295.168 284.955C295.487 285.303 295.886 285.569 296.33 285.729C297.83 286.219 302.33 283.069 303.15 281.899C303.97 280.729 301.48 281.069 299.66 281.739C297.84 282.409 294.5 283.729 294.5 283.729Z" fill="#FFBDA7" stroke="#263238" stroke-linecap="round" stroke-linejoin="round"/>
<path d="M291.34 272.1C291.132 272.262 290.959 272.465 290.83 272.695C290.701 272.925 290.618 273.179 290.588 273.441C290.557 273.703 290.579 273.969 290.651 274.222C290.724 274.476 290.846 274.713 291.01 274.92C292.18 276.58 295.01 276.92 295.01 276.92L291.34 272.1Z" fill="#FFBDA7" stroke="#263238" stroke-linecap="round" stroke-linejoin="round"/>
<path d="M343.21 226.379C343.21 226.379 336.73 269.769 335.21 273.589C333.69 277.409 338.04 306.749 338.04 310.739C338.04 314.729 341.86 315.399 343.35 316.229C344.84 317.059 356.99 322.879 358.81 325.869C360.63 328.859 365.3 335.179 365.3 335.179C365.3 335.179 362.51 306.959 362.14 291.709C361.99 285.559 362.47 276.419 362.47 276.419C362.47 276.419 369.47 240.179 368.79 237.519C368.11 234.859 356.99 230.519 352.16 228.879C349.23 227.865 346.241 227.03 343.21 226.379Z" fill="#455A64" stroke="#263238" stroke-linecap="round" stroke-linejoin="round"/>
<path d="M351.351 232C351.521 230.87 351.681 229.66 351.801 228.72C348.985 227.764 346.117 226.973 343.211 226.35C343.211 226.35 336.731 269.74 335.211 273.56C334.919 274.661 334.817 275.804 334.911 276.94C335.791 275.7 339.511 270.38 342.861 264.42C346.701 257.63 351.001 234.36 351.351 232Z" fill="#455A64" stroke="#263238" stroke-linecap="round" stroke-linejoin="round"/>
<path d="M338.891 313.738C342.03 314.721 345.259 315.391 348.531 315.738C354.351 316.398 368.111 321.888 373.011 327.908C374.593 329.701 375.987 331.651 377.171 333.728C377.171 333.728 370.301 334.728 368.971 334.858C367.641 334.988 364.651 335.188 364.651 335.188C364.651 335.188 359.331 327.538 356.651 325.378C353.971 323.218 339.881 316.228 338.891 313.738Z" fill="#455A64" stroke="#263238" stroke-linecap="round" stroke-linejoin="round"/>
<path d="M314.34 431.18V435.92C314.342 436.31 314.457 436.691 314.672 437.016C314.887 437.341 315.192 437.596 315.55 437.75C317.634 438.542 319.807 439.076 322.02 439.34C324.753 439.787 327.557 439.346 330.02 438.08C330.325 437.904 330.579 437.65 330.754 437.344C330.93 437.039 331.022 436.692 331.02 436.34V432C331.022 431.757 330.971 431.516 330.87 431.295C330.769 431.074 330.621 430.877 330.436 430.719C330.251 430.561 330.034 430.445 329.8 430.38C329.566 430.314 329.32 430.301 329.08 430.34C326.08 430.83 320.18 431.49 315.79 430.04C315.617 429.993 315.436 429.987 315.26 430.023C315.085 430.059 314.92 430.135 314.779 430.246C314.638 430.357 314.525 430.499 314.449 430.661C314.373 430.823 314.336 431.001 314.34 431.18Z" fill="#564E58" stroke="#263238" stroke-linecap="round" stroke-linejoin="round"/>
<path d="M343.001 436.22V441.57C343 442.01 343.13 442.44 343.374 442.807C343.617 443.174 343.964 443.46 344.371 443.63C346.722 444.52 349.174 445.121 351.671 445.42C354.761 445.937 357.937 445.438 360.721 444C361.079 443.805 361.377 443.515 361.581 443.162C361.786 442.81 361.89 442.407 361.881 442V437.14C361.881 436.866 361.822 436.595 361.708 436.347C361.593 436.098 361.426 435.878 361.218 435.701C361.009 435.524 360.764 435.394 360.501 435.322C360.237 435.249 359.96 435.234 359.691 435.28C356.301 435.83 349.691 436.57 344.691 434.93C344.492 434.869 344.282 434.857 344.077 434.894C343.873 434.931 343.68 435.016 343.515 435.142C343.35 435.268 343.217 435.431 343.128 435.619C343.038 435.806 342.995 436.012 343.001 436.22Z" fill="#564E58" stroke="#263238" stroke-linecap="round" stroke-linejoin="round"/>
<path d="M354.2 318.289L348.79 323.269L356.8 331.059L359.82 326.079L354.2 318.289Z" fill="#FFBDA7" stroke="#263238" stroke-linecap="round" stroke-linejoin="round"/>
<path d="M361.661 258.3C361.661 258.3 360.501 268.11 360.991 271.6C361.481 275.09 369.301 294.5 369.301 294.5L352.681 318.56C352.681 318.56 354.681 327.03 360.331 329.69C360.331 329.69 376.671 313.78 379.781 310.41C386.441 303.19 388.991 296.92 388.991 294.26C388.991 291.6 372.631 243.17 372.301 242C371.971 240.83 370.301 236.35 366.151 235.18" fill="#455A64"/>
<path d="M361.661 258.3C361.661 258.3 360.501 268.11 360.991 271.6C361.481 275.09 369.301 294.5 369.301 294.5L352.681 318.56C352.681 318.56 354.681 327.03 360.331 329.69C360.331 329.69 376.671 313.78 379.781 310.41C386.441 303.19 388.991 296.92 388.991 294.26C388.991 291.6 372.631 243.17 372.301 242C371.971 240.83 370.301 236.35 366.151 235.18" stroke="#263238" stroke-linecap="round" stroke-linejoin="round"/>
<path d="M370.9 294.46C370.9 294.46 375.64 291.62 380.62 293.51" stroke="#263238" stroke-linecap="round" stroke-linejoin="round"/>
<path d="M376.59 291.379C378.646 291.011 380.765 291.436 382.52 292.569" stroke="#263238" stroke-linecap="round" stroke-linejoin="round"/>
<path d="M320.46 82.4102C324.948 82.4106 329.379 83.4126 333.431 85.3433C337.483 87.274 341.052 90.0846 343.88 93.5702H399.94C404.052 93.6737 407.961 95.3801 410.833 98.3254C413.705 101.271 415.313 105.221 415.313 109.335C415.313 113.449 413.705 117.4 410.833 120.345C407.961 123.29 404.052 124.997 399.94 125.1H347.94C345.729 129.948 342.28 134.128 337.94 137.22L321.15 150.22C321.086 150.267 321.009 150.292 320.93 150.29C320.857 150.291 320.786 150.266 320.73 150.22L302.3 136.83C298.52 134.032 295.46 130.374 293.374 126.159C291.287 121.944 290.233 117.293 290.3 112.59C290.31 104.593 293.491 96.9254 299.144 91.2684C304.797 85.6114 312.462 82.426 320.46 82.4102Z" fill="#263238"/>
<path d="M400.699 122L327.999 122V91.17L400.699 91.17C404.786 91.17 408.706 92.7935 411.596 95.6835C414.486 98.5734 416.109 102.493 416.109 106.58C416.111 108.605 415.713 110.609 414.939 112.48C414.165 114.351 413.031 116.051 411.599 117.483C410.168 118.915 408.469 120.051 406.599 120.826C404.729 121.601 402.724 122 400.699 122Z" fill="white" stroke="#263238" stroke-linecap="round" stroke-linejoin="round"/>
<path d="M402.339 102.061H363.359" stroke="#263238" stroke-linejoin="round"/>
<path d="M402.339 106.98H363.359" stroke="#263238" stroke-linejoin="round"/>
<path d="M402.339 111.891H363.359" stroke="#263238" stroke-linejoin="round"/>
<path d="M303.26 133.79L321.68 147.19L338.47 134.19C342.645 131.227 345.987 127.24 348.176 122.612C350.364 117.984 351.325 112.871 350.967 107.764C350.608 102.657 348.941 97.7284 346.127 93.4519C343.313 89.1754 339.445 85.6949 334.897 83.345C330.349 80.9951 325.273 79.8548 320.156 80.0339C315.04 80.213 310.056 81.7053 305.683 84.3675C301.31 87.0297 297.696 90.7721 295.187 95.2349C292.679 99.6977 291.361 104.731 291.36 109.85C291.298 114.499 292.345 119.096 294.415 123.259C296.484 127.423 299.517 131.033 303.26 133.79Z" fill="white" stroke="#263238" stroke-linecap="round" stroke-linejoin="round"/>
<path d="M347.26 110C347.262 115.192 345.724 120.267 342.841 124.585C339.959 128.903 335.86 132.269 331.064 134.258C326.269 136.247 320.991 136.768 315.898 135.757C310.806 134.747 306.128 132.248 302.455 128.579C298.783 124.909 296.281 120.232 295.266 115.141C294.251 110.049 294.769 104.771 296.754 99.9737C298.739 95.1764 302.102 91.0754 306.418 88.1894C310.733 85.3034 315.808 83.7619 321 83.7599C324.45 83.748 327.868 84.4185 331.058 85.7327C334.249 87.047 337.147 88.979 339.588 91.4177C342.028 93.8564 343.963 96.7537 345.279 99.9427C346.596 103.132 347.269 106.55 347.26 110Z" fill="#BA68C8" stroke="#263238" stroke-linejoin="round"/>
<path d="M340.06 128.06L321.18 123.15L301.18 127.22C301.43 127.52 301.7 127.81 301.97 128.09C304.422 130.676 307.376 132.735 310.65 134.142C313.924 135.55 317.451 136.275 321.015 136.275C324.579 136.275 328.105 135.55 331.379 134.142C334.654 132.735 337.607 130.676 340.06 128.09V128.06Z" fill="white" stroke="#263238" stroke-linecap="round" stroke-linejoin="round"/>
<path d="M317.809 121.85C316.193 122.713 314.747 123.862 313.539 125.24C311.669 127.43 308.539 133.24 308.829 133.02C309.119 132.8 317.919 127.43 317.919 127.43L317.809 121.85Z" fill="#BA68C8" stroke="#263238" stroke-linecap="round" stroke-linejoin="round"/>
<path d="M325.14 120.75L318.24 128.31L320.21 135.21L328.32 124.92L325.14 120.75Z" fill="#BA68C8" stroke="#263238" stroke-linecap="round" stroke-linejoin="round"/>
<path d="M312.44 94.3605C312.44 94.3605 307.95 95.2405 307.44 91.3005C306.93 87.3605 313.03 81.7705 321.79 81.7705C330.55 81.7705 337.45 89.1105 337.12 96.2305C336.819 100.824 335.251 105.244 332.59 109.001C330.952 110.34 329.046 111.312 327 111.851C325.47 112.061 324.38 109.851 325.14 107.031C325.9 104.211 323.5 103.411 324.49 100.791C325.48 98.1705 326.79 98.1605 327.22 97.2805C327.65 96.4005 322.84 94.5405 318.46 94.7605C314.08 94.9805 312.44 94.3605 312.44 94.3605Z" fill="#263238" stroke="#263238" stroke-linecap="round" stroke-linejoin="round"/>
<path d="M317.26 117.58L317.18 118C316.95 119.35 316.24 123.57 316.05 126.12C315.84 129.19 318.05 129.12 318.9 128.2C319.75 127.28 324.38 122.73 325.14 120.76C325.9 118.79 327.66 112.87 327.66 112.87L317.26 117.58Z" fill="#FFBDA7" stroke="#263238" stroke-linecap="round" stroke-linejoin="round"/>
<path d="M312.44 94.3599C312.44 94.3599 310.91 102.91 310.36 107.36C309.81 111.81 309.26 114.47 311.13 117.36C313 120.25 318.24 118.36 320.87 117.25C323.631 115.886 326.303 114.349 328.87 112.65C328.87 112.65 332.59 112.87 334.12 111.01C334.378 110.678 334.559 110.293 334.649 109.882C334.739 109.471 334.735 109.046 334.64 108.636C334.544 108.227 334.358 107.844 334.095 107.516C333.832 107.188 333.499 106.923 333.12 106.74C332.478 106.717 331.837 106.821 331.235 107.045C330.633 107.27 330.081 107.612 329.61 108.05C328.96 108.82 329.07 109.7 328.3 109.7C327.53 109.7 326.44 109.91 326.66 109.15C326.88 108.39 328.52 105.86 328.08 104.22C327.64 102.58 324.36 101.48 327.08 99.9499C329.8 98.4199 332.67 98.5299 331.36 96.2299C330.05 93.9299 323.25 91.5199 318.98 92.3899C316.736 92.8098 314.543 93.4703 312.44 94.3599Z" fill="#FFBDA7" stroke="#263238" stroke-linecap="round" stroke-linejoin="round"/>
<path d="M313.86 96.88C313.86 96.88 316.43 96.34 316.27 98.96C316.21 99.96 311.67 104.77 312.33 105.86C312.779 106.564 313.376 107.162 314.08 107.61" stroke="#263238" stroke-linecap="round" stroke-linejoin="round"/>
<path d="M319.34 99.6198C319.69 99.3323 320.1 99.1276 320.54 99.0213C320.981 98.915 321.439 98.9098 321.882 99.006C322.325 99.1022 322.74 99.2974 323.096 99.5769C323.452 99.8564 323.741 100.213 323.94 100.62" stroke="#263238" stroke-linecap="round" stroke-linejoin="round"/>
<path d="M313 110.79C313 110.79 313.66 112.43 316.28 112.21C317.456 112.215 318.618 111.955 319.68 111.45" stroke="#263238" stroke-linecap="round" stroke-linejoin="round"/>
<path d="M320.85 103.22C320.7 103.94 320.26 104.46 319.85 104.38C319.44 104.3 319.28 103.64 319.44 102.92C319.6 102.2 320.03 101.68 320.44 101.76C320.85 101.84 321 102.5 320.85 103.22Z" fill="#263238"/>
<path d="M314.48 100.79C314.34 101.49 313.93 102 313.56 101.93C313.19 101.86 313 101.23 313.14 100.53C313.28 99.8299 313.69 99.3199 314.06 99.3999C314.43 99.4799 314.62 100.09 314.48 100.79Z" fill="#263238"/>
<path d="M190.24 134.592C185.751 134.592 181.318 135.595 177.266 137.528C173.214 139.46 169.645 142.273 166.82 145.762H110.76C108.656 145.709 106.563 146.077 104.604 146.846C102.645 147.614 100.86 148.767 99.353 150.236C97.8464 151.705 96.649 153.461 95.8315 155.4C95.0139 157.339 94.5928 159.422 94.5928 161.527C94.5928 163.631 95.0139 165.714 95.8315 167.653C96.649 169.592 97.8464 171.348 99.353 172.817C100.86 174.287 102.645 175.439 104.604 176.208C106.563 176.976 108.656 177.345 110.76 177.292H162.76C164.969 182.141 168.418 186.322 172.76 189.412L189.55 202.412C189.609 202.462 189.683 202.49 189.76 202.492C189.835 202.49 189.908 202.465 189.97 202.422L208.41 189.002C212.188 186.204 215.247 182.548 217.334 178.335C219.42 174.122 220.475 169.473 220.41 164.772C220.399 156.773 217.218 149.104 211.562 143.447C205.907 137.789 198.239 134.605 190.24 134.592Z" fill="#263238"/>
<path d="M109.16 174.271H181.86V143.441H109.16C105.071 143.444 101.151 145.07 98.2596 147.961C95.3683 150.852 93.7429 154.773 93.7402 158.861C93.7429 162.949 95.3687 166.869 98.2602 169.759C101.152 172.648 105.072 174.271 109.16 174.271Z" fill="white" stroke="#263238" stroke-linecap="round" stroke-linejoin="round"/>
<path d="M107.521 154.33H146.501" stroke="#263238" stroke-linejoin="round"/>
<path d="M107.521 159.25H146.501" stroke="#263238" stroke-linejoin="round"/>
<path d="M107.521 164.172H146.501" stroke="#263238" stroke-linejoin="round"/>
<path d="M206.601 186.062L188.171 199.462L171.381 186.462C167.206 183.499 163.863 179.512 161.675 174.884C159.486 170.256 158.525 165.142 158.884 160.035C159.243 154.929 160.91 150 163.724 145.723C166.538 141.447 170.405 137.966 174.953 135.616C179.502 133.267 184.578 132.126 189.694 132.305C194.811 132.484 199.795 133.977 204.168 136.639C208.54 139.301 212.155 143.044 214.663 147.506C217.172 151.969 218.49 157.002 218.491 162.122C218.554 166.77 217.509 171.366 215.441 175.53C213.373 179.693 210.343 183.304 206.601 186.062Z" fill="white" stroke="#263238" stroke-linecap="round" stroke-linejoin="round"/>
<path d="M192.806 188.035C207.119 185.732 216.856 172.262 214.553 157.948C212.25 143.635 198.78 133.898 184.467 136.201C170.153 138.504 160.417 151.974 162.72 166.288C165.022 180.601 178.493 190.338 192.806 188.035Z" fill="#BA68C8" stroke="#263238" stroke-linejoin="round"/>
<path d="M211.44 175.121C213.33 164.431 202.83 160.051 201.78 154.611C201.78 154.611 204.41 154.081 205.29 149.511C206.17 144.941 204.23 138.791 194.92 136.861C185.61 134.931 174.71 142.861 172.92 150.041C171.13 157.221 176.26 160.581 173.62 163.221C173.167 163.621 172.65 163.942 172.09 164.171C170.77 164.971 168.91 166.111 167.66 166.801C165.56 167.961 164.39 179.401 175.36 180.801C186.33 182.201 188.89 178.701 194.96 178.001C198.78 177.561 205.1 177.951 209.26 178.301" fill="#263238"/>
<path d="M211.44 175.121C213.33 164.431 202.83 160.051 201.78 154.611C201.78 154.611 204.41 154.081 205.29 149.511C206.17 144.941 204.23 138.791 194.92 136.861C185.61 134.931 174.71 142.861 172.92 150.041C171.13 157.221 176.26 160.581 173.62 163.221C173.167 163.621 172.65 163.942 172.09 164.171C170.77 164.971 168.91 166.111 167.66 166.801C165.56 167.961 164.39 179.401 175.36 180.801C186.33 182.201 188.89 178.701 194.96 178.001C198.78 177.561 205.1 177.951 209.26 178.301" stroke="#263238" stroke-linecap="round" stroke-linejoin="round"/>
<path d="M208.621 172.53C204.941 172.53 200.371 175.16 198.791 175.16C197.211 175.16 197.031 168.49 197.031 168.49L188.771 166.73C188.771 166.73 189.651 173.23 189.301 175.87C188.951 178.51 182.971 178.87 180.511 179.2C178.051 179.53 176.651 181.14 175.951 184.83C175.945 184.907 175.945 184.984 175.951 185.06C179.109 186.822 182.6 187.905 186.201 188.24C189.761 187.61 193.351 186.9 196.201 186.17C198.111 185.68 199.971 185.25 201.731 184.88C205.87 182.505 209.285 179.048 211.611 174.88C211.473 174.197 211.097 173.585 210.549 173.154C210.001 172.724 209.317 172.503 208.621 172.53Z" fill="#FFBDA7" stroke="#263238" stroke-linecap="round" stroke-linejoin="round"/>
<path d="M176.5 185.391C182.109 188.312 188.583 189.111 194.734 187.641C200.884 186.172 206.298 182.532 209.98 177.391C205.6 177.951 205.2 180.261 202.65 180.261C199.84 180.261 196.5 179.911 192.65 181.661C188.8 183.411 188.25 184.121 182.81 184.121C180.643 184.115 178.496 184.547 176.5 185.391Z" fill="#BA68C8" stroke="#263238" stroke-linecap="round" stroke-linejoin="round"/>
<path d="M196.15 144.941C196.15 144.941 202.3 149.691 202.65 156.191C203 162.691 200.89 167.431 198.79 169.721C196.69 172.011 193.87 171.121 191.06 169.191C189.203 167.84 187.596 166.175 186.31 164.271C185.455 164.184 184.652 163.815 184.03 163.221C183.317 162.637 182.821 161.831 182.62 160.931C182.62 160.931 187.89 160.761 189.12 157.241C190.35 153.721 189.3 150.571 191.06 148.111C192.362 146.523 194.151 145.409 196.15 144.941Z" fill="#FFBDA7" stroke="#263238" stroke-linecap="round" stroke-linejoin="round"/>
<path d="M194.571 153.902C194.571 153.902 191.571 152.502 190.351 155.132" stroke="#263238" stroke-linecap="round" stroke-linejoin="round"/>
<path d="M198.08 153C198.08 153 200.19 151.42 200.89 153.17" stroke="#263238" stroke-linecap="round" stroke-linejoin="round"/>
<path d="M197.21 166.382C196.786 166.477 196.346 166.478 195.922 166.387C195.497 166.295 195.097 166.113 194.75 165.852" stroke="#263238" stroke-linecap="round" stroke-linejoin="round"/>
<path d="M198.26 154.432C197.877 156.161 197.699 157.93 197.73 159.702C197.91 161.812 197.21 162.342 196.15 161.992" stroke="#263238" stroke-linecap="round" stroke-linejoin="round"/>
<path d="M192.691 158.771C193.038 158.771 193.321 158.162 193.321 157.411C193.321 156.66 193.038 156.051 192.691 156.051C192.343 156.051 192.061 156.66 192.061 157.411C192.061 158.162 192.343 158.771 192.691 158.771Z" fill="#263238"/>
<path d="M200.03 158.04C200.378 158.04 200.66 157.431 200.66 156.68C200.66 155.929 200.378 155.32 200.03 155.32C199.682 155.32 199.4 155.929 199.4 156.68C199.4 157.431 199.682 158.04 200.03 158.04Z" fill="#263238"/>
<path d="M189.35 307.43C184.862 307.43 180.43 308.432 176.379 310.363C172.327 312.294 168.757 315.104 165.93 318.59H109.87C105.758 318.693 101.848 320.4 98.9765 323.345C96.1045 326.29 94.4971 330.241 94.4971 334.355C94.4971 338.468 96.1045 342.419 98.9765 345.364C101.848 348.31 105.758 350.016 109.87 350.12H161.87C164.082 354.967 167.531 359.147 171.87 362.24L188.66 375.24C188.724 375.287 188.801 375.311 188.88 375.31C188.953 375.311 189.024 375.286 189.08 375.24L207.51 361.85C211.29 359.051 214.35 355.393 216.436 351.178C218.523 346.963 219.576 342.312 219.51 337.61C219.499 329.612 216.319 321.945 210.666 316.288C205.013 310.631 197.348 307.446 189.35 307.43Z" fill="#263238"/>
<path d="M108.55 347.42H181.25V316.59H108.55C104.463 316.59 100.543 318.213 97.6531 321.103C94.7632 323.993 93.1397 327.913 93.1397 332C93.1383 334.024 93.536 336.029 94.3098 337.9C95.0836 339.771 96.2185 341.471 97.6496 342.903C99.0807 344.335 100.78 345.471 102.65 346.246C104.52 347.021 106.525 347.42 108.55 347.42Z" fill="white" stroke="#263238" stroke-linecap="round" stroke-linejoin="round"/>
<path d="M106.909 327.48H145.889" stroke="#263238" stroke-linejoin="round"/>
<path d="M106.909 332.4H145.889" stroke="#263238" stroke-linejoin="round"/>
<path d="M106.909 337.311H145.889" stroke="#263238" stroke-linejoin="round"/>
<path d="M206 359.21L187.57 372.61L170.78 359.61C166.605 356.647 163.263 352.66 161.074 348.032C158.886 343.404 157.925 338.291 158.283 333.184C158.642 328.077 160.309 323.148 163.123 318.872C165.937 314.595 169.805 311.115 174.353 308.765C178.901 306.415 183.977 305.275 189.094 305.454C194.21 305.633 199.194 307.125 203.567 309.787C207.94 312.45 211.554 316.192 214.063 320.655C216.571 325.118 217.889 330.151 217.89 335.27C217.952 339.918 216.906 344.514 214.838 348.677C212.771 352.84 209.741 356.451 206 359.21Z" fill="white" stroke="#263238" stroke-linecap="round" stroke-linejoin="round"/>
<path d="M161.84 335.061C161.84 340.252 163.379 345.328 166.264 349.644C169.148 353.961 173.248 357.326 178.044 359.312C182.841 361.299 188.119 361.819 193.211 360.806C198.303 359.793 202.98 357.293 206.651 353.622C210.323 349.951 212.823 345.274 213.836 340.182C214.848 335.09 214.329 329.812 212.342 325.015C210.355 320.219 206.99 316.119 202.674 313.235C198.357 310.35 193.282 308.811 188.09 308.811C184.641 308.804 181.224 309.478 178.037 310.795C174.849 312.112 171.952 314.046 169.514 316.484C167.075 318.923 165.141 321.82 163.825 325.007C162.508 328.195 161.833 331.612 161.84 335.061Z" fill="#BA68C8" stroke="#263238" stroke-linejoin="round"/>
<path d="M167.87 351.809C170.239 354.666 173.187 356.988 176.519 358.623C179.851 360.258 183.492 361.168 187.201 361.294C190.911 361.42 194.605 360.758 198.04 359.352C201.475 357.947 204.573 355.829 207.13 353.139L194.49 350.319L177 349.449L167.87 351.809Z" fill="#BA68C8" stroke="#263238" stroke-linecap="round" stroke-linejoin="round"/>
<path d="M180.58 343.08C181.72 338.89 180.39 332.41 180.39 332.41C183.25 329.56 191.82 343.41 191.82 343.41C191.82 343.41 191.63 345.89 194.49 350.27C194.65 350.525 194.824 350.772 195.01 351.01C193.24 353.85 189.49 359.22 186.68 358.66C183.87 358.1 179.48 352.66 177 349.4C179.6 347.81 179.71 346.28 180.58 343.08Z" fill="#FFBDA7" stroke="#263238" stroke-linecap="round" stroke-linejoin="round"/>
<path d="M177.63 326.901C177.63 326.901 176.3 326.701 176.11 329.181C175.92 331.661 177.06 333.001 178 333.001H179.52C179.763 334.48 180.097 335.943 180.52 337.381C181.28 340.241 181.28 341.771 187.38 344.241C193.48 346.711 195 346.341 196.72 343.671C198.44 341.001 198.43 331.291 198.62 327.101C198.81 322.911 199.57 318.101 199.57 318.101C198.311 316.822 196.826 315.788 195.19 315.051C192.33 313.721 183.57 315.241 180.9 316.581C178.23 317.921 179.19 324.771 179.19 324.771L177.63 326.901Z" fill="#FFBDA7" stroke="#263238" stroke-linecap="round" stroke-linejoin="round"/>
<path d="M195.759 339.72C193.985 340.187 192.108 340.078 190.399 339.41" stroke="#263238" stroke-linecap="round" stroke-linejoin="round"/>
<path d="M195.729 329.37C195.729 330 195.989 330.52 196.299 330.52C196.609 330.52 196.88 330 196.88 329.37C196.88 328.74 196.619 328.23 196.299 328.23C195.979 328.23 195.729 328.74 195.729 329.37Z" fill="#263238"/>
<path d="M190.21 330.13C190.21 330.77 190.46 331.28 190.78 331.28C191.1 331.28 191.35 330.77 191.35 330.13C191.35 329.49 191.1 328.99 190.78 328.99C190.46 328.99 190.21 329.5 190.21 330.13Z" fill="#263238"/>
<path d="M197.45 325.751C197.157 325.515 196.802 325.372 196.428 325.338C196.055 325.304 195.679 325.382 195.35 325.561" stroke="#263238" stroke-linecap="round" stroke-linejoin="round"/>
<path d="M191.159 326.131C191.159 326.131 188.869 325.181 187.159 327.851" stroke="#263238" stroke-linecap="round" stroke-linejoin="round"/>
<path d="M194.25 328.381L194.97 336.041L191.35 336.421" stroke="#263238" stroke-linecap="round" stroke-linejoin="round"/>
<path d="M173.82 313.56C174.01 310.51 178.82 311.65 181.82 310.51C184.82 309.37 190.2 305.94 194.77 305.94C195.965 305.85 197.155 306.182 198.13 306.878C199.106 307.574 199.807 308.591 200.11 309.75L199.91 306.7C199.91 306.7 202.96 308.42 202.77 311.65C202.58 314.88 200.3 318.7 198.77 318.51C197.24 318.32 184.29 317.75 183.53 319.66C182.77 321.57 185.63 325.18 185.63 325.18C185.44 327.09 182.63 326.7 182.39 327.47C182.282 329.312 182.346 331.16 182.58 332.99C182.595 334.063 182.322 335.119 181.79 336.05C181.753 337 182.031 337.935 182.58 338.71C183.036 339.213 183.596 339.61 184.221 339.872C184.847 340.135 185.522 340.257 186.2 340.23C186.2 340.23 190.58 336.23 193.82 336.8C197.06 337.37 197.82 338.9 197.82 338.9H197.91C197.82 339.58 197.72 340.21 197.61 340.81C197.07 339.97 195.49 337.92 193.06 337.92C190.06 337.92 186.77 341.54 186.77 341.54C186.77 341.54 190.01 343.63 191.72 343.63C193.43 343.63 193.06 341.54 194.2 341.73C195.34 341.92 194.96 343.06 195.53 343.06C196.244 342.931 196.887 342.547 197.34 341.98C197.196 342.558 196.974 343.113 196.68 343.63C194.96 346.3 193.44 346.63 187.34 344.2C181.24 341.77 181.24 340.2 180.48 337.34L180.27 336.53C180.451 335.172 180.755 333.833 181.18 332.53C181.23 330.22 180.93 327.99 180.29 327.22C179.29 326.07 177.62 326.84 177.62 326.84C177.62 326.84 173.63 316.61 173.82 313.56Z" fill="#263238" stroke="#263238" stroke-linecap="round" stroke-linejoin="round"/>
</svg>
