<svg width="500" height="500" viewBox="0 0 500 500" fill="none" xmlns="http://www.w3.org/2000/svg">
<path d="M500 382.4H0V382.65H500V382.4Z" fill="#C2BDC6"/>
<path d="M449.9 391.92H359V392.17H449.9V391.92Z" fill="#C2BDC6"/>
<path d="M331.22 389.211H306.33V389.461H331.22V389.211Z" fill="#C2BDC6"/>
<path d="M388.11 401.211H349.52V401.461H388.11V401.211Z" fill="#C2BDC6"/>
<path d="M75.1 399.529H52.46V399.779H75.1V399.529Z" fill="#C2BDC6"/>
<path d="M110.89 399.529H84V399.779H110.89V399.529Z" fill="#C2BDC6"/>
<path d="M225.15 395.311H178.31V395.561H225.15V395.311Z" fill="#C2BDC6"/>
<path d="M237 337.8H43.91C42.3973 337.797 40.9475 337.195 39.8788 336.124C38.8102 335.054 38.21 333.603 38.21 332.09V60.66C38.2231 59.156 38.8292 57.718 39.8964 56.6582C40.9637 55.5985 42.4059 55.0026 43.91 55H237C238.514 55 239.967 55.6016 241.038 56.6724C242.108 57.7433 242.71 59.1956 242.71 60.71V332.09C242.71 333.604 242.108 335.057 241.038 336.128C239.967 337.198 238.514 337.8 237 337.8ZM43.91 55.2C42.4636 55.2026 41.0774 55.7791 40.0556 56.8027C39.0338 57.8264 38.46 59.2136 38.46 60.66V332.09C38.46 333.536 39.0338 334.924 40.0556 335.947C41.0774 336.971 42.4636 337.547 43.91 337.55H237C238.447 337.547 239.834 336.971 240.858 335.948C241.881 334.924 242.457 333.537 242.46 332.09V60.66C242.457 59.2127 241.881 57.8255 240.858 56.8021C239.834 55.7787 238.447 55.2026 237 55.2H43.91Z" fill="#C2BDC6"/>
<path d="M453.31 337.8H260.21C258.696 337.797 257.246 337.195 256.175 336.125C255.105 335.054 254.503 333.604 254.5 332.09V60.66C254.516 59.1551 255.124 57.7171 256.193 56.6576C257.262 55.5981 258.705 55.0025 260.21 55H453.31C454.812 55.0052 456.252 55.6022 457.317 56.6617C458.382 57.7212 458.987 59.1578 459 60.66V332.09C459 333.601 458.401 335.05 457.335 336.121C456.268 337.191 454.821 337.795 453.31 337.8ZM260.21 55.2C258.763 55.2026 257.375 55.7787 256.352 56.8021C255.329 57.8255 254.753 59.2127 254.75 60.66V332.09C254.753 333.537 255.329 334.924 256.352 335.948C257.375 336.971 258.763 337.547 260.21 337.55H453.31C454.757 337.547 456.145 336.971 457.168 335.948C458.191 334.924 458.767 333.537 458.77 332.09V60.66C458.767 59.2127 458.191 57.8255 457.168 56.8021C456.145 55.7787 454.757 55.2026 453.31 55.2H260.21Z" fill="#C2BDC6"/>
<path d="M316.49 196.369H421.42V79.7891L316.49 79.7891V196.369Z" fill="#D5C8DD"/>
<path d="M294.04 196.369L416.58 196.369V79.7891L294.04 79.7891V196.369Z" fill="#E4E1E6"/>
<path d="M404.54 188.89V87.29H306.08V188.89H404.54Z" fill="white"/>
<path d="M355.95 190.19V85.9902H354.67V190.19H355.95Z" fill="#E4E1E6"/>
<path d="M81.1202 356.789H215.16L215.16 86.3891H81.1202L81.1202 356.789Z" fill="#D5C8DD"/>
<path d="M71.7997 356.789H212.68L212.68 86.3891H71.7997L71.7997 356.789Z" fill="#DED9E2"/>
<path d="M200.87 344.98L200.87 98.1797L83.6001 98.1797L83.6001 344.98H200.87Z" fill="white"/>
<path d="M127.84 344.98L150.97 98.1904H124.27L101.13 344.98H127.84Z" fill="#F3F3F3"/>
<path d="M148.53 344.98L171.67 98.1904H158.31L135.18 344.98H148.53Z" fill="#F3F3F3"/>
<path d="M265.85 382.4H290.9V276.51H265.85V382.4Z" fill="#D5C8DD"/>
<path d="M280.43 382.399H265.86V367.779H295.71L280.43 382.399Z" fill="#F3F3F3"/>
<path d="M414.66 382.4H439.71V276.51H414.66V382.4Z" fill="#D5C8DD"/>
<path d="M265.85 377.359H427.38V276.499H265.85V377.359Z" fill="#F3F3F3"/>
<path d="M412.81 382.399H427.39V367.779H397.53L412.81 382.399Z" fill="#F3F3F3"/>
<path d="M277.16 339.33H416.08V314.09H277.16V339.33Z" fill="#DED9E2"/>
<path d="M277.16 369.961H416.08V344.721H277.16V369.961Z" fill="#DED9E2"/>
<path d="M389.67 316.789H303.56C302.346 316.789 301.181 316.307 300.322 315.448C299.463 314.589 298.98 313.424 298.98 312.209V311.899H394.24V312.209C394.24 313.424 393.758 314.589 392.899 315.448C392.04 316.307 390.875 316.789 389.66 316.789H389.67Z" fill="#F3F3F3"/>
<path d="M277.16 308.689H416.08V283.449H277.16V308.689Z" fill="#DED9E2"/>
<path d="M389.67 286.15H303.56C302.346 286.15 301.181 285.668 300.322 284.809C299.463 283.95 298.98 282.785 298.98 281.57V281.26H394.24V281.57C394.24 282.783 393.759 283.947 392.902 284.805C392.046 285.664 390.883 286.148 389.67 286.15Z" fill="#F3F3F3"/>
<path d="M389.67 347.43H303.56C302.346 347.43 301.181 346.947 300.322 346.088C299.463 345.229 298.98 344.064 298.98 342.85V342.54H394.24V342.85C394.24 344.063 393.759 345.226 392.902 346.085C392.046 346.943 390.883 347.427 389.67 347.43Z" fill="#F3F3F3"/>
<path d="M292.33 274.74H297.27V228.92H292.33V274.74Z" fill="#E4E1E6"/>
<path d="M292.97 274.711H294.36V228.891H292.97V274.711Z" fill="#F3F3F3"/>
<path d="M283.91 276.51H305.68C305.681 276.149 305.612 275.792 305.474 275.458C305.337 275.125 305.136 274.821 304.881 274.566C304.627 274.31 304.324 274.108 303.991 273.969C303.658 273.831 303.301 273.76 302.94 273.76H286.66C285.931 273.76 285.231 274.049 284.716 274.565C284.2 275.081 283.91 275.78 283.91 276.51Z" fill="#DED9E2"/>
<path d="M285.34 261.44C285.716 261.438 286.076 261.287 286.341 261.022C286.607 260.756 286.758 260.396 286.76 260.02V234.74C286.758 234.365 286.607 234.005 286.341 233.739C286.076 233.473 285.716 233.323 285.34 233.32C284.963 233.32 284.6 233.47 284.333 233.736C284.065 234.002 283.913 234.363 283.91 234.74V260C283.909 260.189 283.945 260.376 284.016 260.551C284.087 260.725 284.193 260.884 284.325 261.018C284.458 261.152 284.616 261.258 284.791 261.331C284.965 261.403 285.152 261.44 285.34 261.44Z" fill="#DED9E2"/>
<path d="M272.7 241.05H316.9L315.33 236.69C314.3 233.852 312.421 231.399 309.948 229.666C307.476 227.932 304.53 227.001 301.51 227H288.09C285.071 227.001 282.125 227.932 279.652 229.666C277.18 231.399 275.301 233.852 274.27 236.69L272.7 241.05Z" fill="#D4C8DD"/>
<path d="M405.39 274.74H410.33V228.92H405.39V274.74Z" fill="#E4E1E6"/>
<path d="M406.04 274.711H407.43V228.891H406.04V274.711Z" fill="#F3F3F3"/>
<path d="M397 276.51H418.77C418.77 275.782 418.482 275.084 417.969 274.569C417.455 274.053 416.758 273.762 416.03 273.76H399.72C398.993 273.762 398.296 274.053 397.782 274.569C397.269 275.084 396.98 275.782 396.98 276.51H397Z" fill="#DED9E2"/>
<path d="M398.4 261.44C398.776 261.438 399.136 261.287 399.402 261.022C399.667 260.756 399.818 260.396 399.821 260.02V234.74C399.818 234.365 399.667 234.005 399.402 233.739C399.136 233.473 398.776 233.323 398.4 233.32C398.025 233.323 397.665 233.473 397.399 233.739C397.134 234.005 396.983 234.365 396.981 234.74V260C396.979 260.188 397.015 260.374 397.086 260.548C397.156 260.722 397.26 260.881 397.392 261.014C397.524 261.148 397.681 261.255 397.854 261.328C398.027 261.401 398.213 261.439 398.4 261.44Z" fill="#DED9E2"/>
<path d="M385.76 241.05H430L428.42 236.69C427.389 233.846 425.505 231.389 423.027 229.655C420.548 227.921 417.595 226.994 414.57 227H401.16C398.14 227.001 395.194 227.932 392.722 229.666C390.249 231.399 388.37 233.852 387.34 236.69L385.76 241.05Z" fill="#D4C8DD"/>
<path d="M250 427.56C357.083 427.56 443.89 422.492 443.89 416.24C443.89 409.988 357.083 404.92 250 404.92C142.918 404.92 56.1104 409.988 56.1104 416.24C56.1104 422.492 142.918 427.56 250 427.56Z" fill="#F5F5F5"/>
<path d="M166.53 113.94L165.9 113.16C170.294 109.596 174.867 106.258 179.6 103.16L180.15 104C175.443 107.078 170.897 110.396 166.53 113.94Z" fill="#263238"/>
<path d="M159.151 120.25L158.471 119.51C159.811 118.3 161.191 117.09 162.561 115.92L163.211 116.69C161.841 117.85 160.481 119.05 159.151 120.25Z" fill="#263238"/>
<path d="M269.903 242.292C317.776 200.353 332.632 139.012 303.085 105.284C273.537 71.5565 210.776 78.213 162.902 120.152C115.029 162.091 100.174 223.432 129.721 257.16C159.268 290.888 222.03 284.231 269.903 242.292Z" fill="#263238"/>
<path d="M262.813 234.198C304.342 197.816 317.23 144.605 291.599 115.347C265.967 86.0886 211.522 91.8637 169.993 128.246C128.463 164.628 115.575 217.839 141.207 247.097C166.838 276.356 221.283 270.58 262.813 234.198Z" fill="white"/>
<path d="M237.15 103.89C193.86 107.4 149.481 144.89 138.021 187.55L294.791 174.86C306.251 132.16 280.44 100.39 237.15 103.89Z" fill="#BA68C8"/>
<path opacity="0.7" d="M138 187.55L216.39 181.2L175.65 131C157.71 146.16 143.75 166.2 138 187.55Z" fill="white"/>
<path opacity="0.4" d="M237.15 103.891C215.51 105.651 193.59 115.891 175.65 131.021L216.41 181.201L237.15 103.891Z" fill="white"/>
<path opacity="0.1" d="M237.15 103.89L216.41 181.2L286.5 122.05C276.07 109.21 258.8 102.14 237.15 103.89Z" fill="white"/>
<path d="M235.334 202.832C252.279 187.987 257.54 166.278 247.084 154.343C236.628 142.408 214.416 144.767 197.471 159.612C180.526 174.456 175.265 196.165 185.721 208.101C196.176 220.036 218.389 217.677 235.334 202.832Z" fill="white"/>
<path d="M227.453 193.836C237.34 185.175 240.408 172.506 234.305 165.539C228.202 158.572 215.239 159.946 205.352 168.608C195.465 177.269 192.398 189.939 198.501 196.905C204.604 203.872 217.566 202.498 227.453 193.836Z" fill="#263238"/>
<path d="M275.08 139.85C256.43 146.892 238.746 156.267 222.45 167.75L229.82 180.95C246.485 169.094 261.678 155.297 275.08 139.85Z" fill="#263238"/>
<path d="M147 217.06C146.767 217.072 146.535 217.03 146.321 216.937C146.108 216.844 145.918 216.703 145.768 216.525C145.618 216.347 145.511 216.136 145.456 215.91C145.401 215.684 145.399 215.448 145.45 215.22C145.566 214.658 145.857 214.146 146.28 213.758C146.704 213.37 147.239 213.126 147.81 213.06L234 206.23C234.244 206.193 234.492 206.216 234.725 206.297C234.958 206.378 235.167 206.515 235.335 206.695C235.502 206.876 235.623 207.094 235.687 207.332C235.751 207.57 235.755 207.82 235.7 208.06C235.587 208.621 235.298 209.132 234.876 209.519C234.453 209.905 233.919 210.147 233.35 210.21L147.23 217.05L147 217.06Z" fill="#BA68C8"/>
<path d="M221.551 225.26C221.317 225.274 221.084 225.234 220.869 225.142C220.655 225.049 220.464 224.908 220.314 224.73C220.163 224.551 220.056 224.339 220.002 224.112C219.948 223.885 219.947 223.648 220.001 223.42C220.114 222.858 220.404 222.346 220.829 221.959C221.253 221.573 221.79 221.331 222.361 221.27L250.361 219.04C250.605 219.001 250.855 219.023 251.089 219.103C251.323 219.183 251.534 219.32 251.702 219.501C251.871 219.681 251.993 219.901 252.057 220.14C252.122 220.378 252.126 220.629 252.071 220.87C251.956 221.434 251.666 221.946 251.242 222.334C250.818 222.722 250.282 222.966 249.711 223.03L221.711 225.25L221.551 225.26Z" fill="#BA68C8"/>
<path d="M79.1504 261.081C78.9177 261.092 78.6854 261.05 78.4717 260.957C78.258 260.865 78.0687 260.724 77.9186 260.545C77.7685 260.367 77.6617 260.157 77.6065 259.93C77.5513 259.704 77.5492 259.468 77.6004 259.241C77.7192 258.673 78.0161 258.159 78.4478 257.772C78.8795 257.385 79.4235 257.146 80.0004 257.091L108 254.861C108.244 254.824 108.493 254.847 108.726 254.928C108.959 255.009 109.168 255.146 109.337 255.326C109.505 255.506 109.627 255.724 109.692 255.962C109.757 256.2 109.763 256.45 109.71 256.691C109.596 257.252 109.308 257.764 108.886 258.152C108.464 258.539 107.93 258.784 107.36 258.851L79.3604 261.071L79.1504 261.081Z" fill="#BA68C8"/>
<path d="M104.09 244.71C103.858 244.722 103.626 244.68 103.412 244.588C103.199 244.495 103.01 244.353 102.86 244.175C102.711 243.996 102.605 243.786 102.551 243.559C102.498 243.333 102.497 243.097 102.55 242.87C102.665 242.309 102.954 241.8 103.376 241.413C103.798 241.027 104.332 240.784 104.9 240.72L188.9 234.05C189.144 234.013 189.393 234.037 189.626 234.118C189.859 234.199 190.068 234.335 190.236 234.515C190.405 234.696 190.527 234.914 190.592 235.152C190.657 235.389 190.663 235.639 190.61 235.88C190.494 236.443 190.204 236.954 189.78 237.342C189.356 237.73 188.821 237.974 188.25 238.04L104.25 244.7L104.09 244.71Z" fill="#BA68C8"/>
<path d="M284.39 334.512L287.95 341.702L305.56 335.372L302 328.182L284.39 334.512Z" fill="#FDA5A4"/>
<path d="M198.77 393.642L204.12 399.632L217.72 384.182L211.13 379.602L198.77 393.642Z" fill="#FDA5A4"/>
<path d="M205.34 399.001L201.7 389.911C201.642 389.766 201.535 389.645 201.398 389.57C201.262 389.496 201.103 389.471 200.95 389.501L193.84 391.001C193.664 391.039 193.5 391.116 193.358 391.225C193.216 391.335 193.099 391.474 193.017 391.633C192.935 391.793 192.889 391.969 192.883 392.148C192.876 392.327 192.909 392.506 192.98 392.671C194.2 395.571 195.22 397.671 196.69 401.311C197.6 403.581 200.1 410.511 201.36 413.641C202.62 416.771 205.81 415.811 205.58 414.401C204.51 408.111 204.48 403.021 205.37 400.451C205.541 399.98 205.531 399.463 205.34 399.001Z" fill="#263238"/>
<path d="M288.76 341.24L284.87 333.38C284.798 333.239 284.682 333.126 284.538 333.059C284.395 332.992 284.234 332.975 284.08 333.01L276.98 334.76C276.807 334.799 276.645 334.878 276.507 334.99C276.369 335.102 276.258 335.244 276.184 335.405C276.109 335.567 276.073 335.743 276.078 335.921C276.082 336.098 276.127 336.272 276.21 336.43C277.66 339.24 279.85 343.25 281.62 346.81C283.68 350.98 283.96 351.11 286.38 355.99C287.84 358.94 291.23 358.29 290.89 356.92C289.33 350.68 288.46 349.6 289.06 343.25C289.148 342.565 289.044 341.869 288.76 341.24Z" fill="#263238"/>
<path d="M357.999 205.241C357.629 207.841 357.229 210.641 356.919 213.351C356.609 216.061 356.299 218.821 356.069 221.551C355.539 226.886 355.379 232.253 355.589 237.611C355.589 238.261 355.649 238.911 355.729 239.521L355.909 241.301C355.907 241.828 356.071 242.343 356.378 242.772C356.685 243.201 357.119 243.522 357.619 243.691C358.526 244.106 359.485 244.395 360.469 244.551C362.932 244.916 365.427 245.01 367.909 244.831C369.219 244.741 370.559 244.641 371.909 244.481C373.259 244.321 374.629 244.111 375.909 243.921L377.849 249.631C376.467 250.281 375.052 250.858 373.609 251.361C372.185 251.891 370.733 252.345 369.259 252.721C367.749 253.121 366.216 253.431 364.669 253.651C363.035 253.901 361.382 254.008 359.729 253.971C357.873 253.948 356.029 253.669 354.249 253.141C352.08 252.483 350.108 251.297 348.509 249.691C346.845 247.947 345.696 245.777 345.189 243.421C345.119 243.111 345.089 242.941 345.059 242.741L344.959 242.161L344.749 240.981C344.599 240.201 344.499 239.431 344.409 238.661C343.759 232.683 343.632 226.66 344.029 220.661C344.219 217.721 344.429 214.801 344.789 211.901C345.149 209.001 345.499 206.151 346.059 203.141L357.999 205.241Z" fill="#FDA5A4"/>
<path d="M345.189 198.001C339.929 203.591 342.049 217.701 342.049 217.701L356.829 220.001C356.829 220.001 360.259 212.001 358.969 203.751C357.389 193.731 350.939 191.851 345.189 198.001Z" fill="#BA68C8"/>
<path opacity="0.2" d="M350 204.191C347.56 201.051 345 199.931 343.64 200.191C340.37 206.601 342.03 217.661 342.03 217.661L352.5 219.361C353.7 216.111 353.85 209.101 350 204.191Z" fill="black"/>
<path d="M373.939 244.79L382.509 239.17L384.409 247.87C384.409 247.87 379.079 253.27 374.639 249.46L373.939 244.79Z" fill="#FDA5A4"/>
<path d="M387.78 237.291L388.77 244.811L384.41 247.871L382.5 239.171L387.78 237.291Z" fill="#FDA5A4"/>
<path opacity="0.2" d="M305.55 335.382L296.48 338.642L292.92 331.442L301.99 328.182L305.55 335.382Z" fill="black"/>
<path opacity="0.2" d="M211.13 379.602L217.72 384.182L211.34 391.422L204.75 386.832L211.13 379.602Z" fill="black"/>
<path d="M314.74 178.711C308.66 209.821 292.47 237.891 290.21 244.091C296.01 246.521 317.9 255.641 329.83 260.611C352.08 227.501 355.49 203.541 356 197.741C356.036 197.326 355.962 196.91 355.787 196.533C355.611 196.155 355.34 195.831 355 195.591C354.05 194.901 352.53 193.821 350.68 192.591C349.68 191.951 348.61 191.281 347.46 190.591C346.83 190.221 346.18 189.861 345.52 189.511C340.042 186.857 334.416 184.52 328.67 182.511C327.59 182.121 326.48 181.741 325.39 181.401C324.3 181.061 323.39 180.791 322.44 180.531C318.18 179.391 314.74 178.711 314.74 178.711Z" fill="#BA68C8"/>
<path d="M338.56 223.071L340.75 223.631C339.305 225.028 337.546 226.057 335.62 226.631C333.419 227.29 331.079 227.325 328.86 226.731C326.896 226.33 325.098 225.347 323.7 223.911C323.11 223.248 322.663 222.471 322.384 221.629C322.106 220.786 322.002 219.895 322.08 219.011C322.226 216.91 322.819 214.865 323.82 213.011C324.982 210.747 326.548 208.714 328.44 207.011C330.144 205.413 332.199 204.235 334.44 203.571C336.455 202.994 338.587 202.959 340.62 203.471C342.168 203.805 343.57 204.625 344.62 205.811C345.59 206.985 346.082 208.481 346 210.001C345.923 211.752 345.448 213.462 344.61 215.001C343.553 217.054 342.02 218.823 340.14 220.161C337.71 221.911 335.44 222.511 333.34 221.981C333.119 221.95 332.907 221.874 332.717 221.759C332.526 221.644 332.36 221.492 332.23 221.311C332.076 220.937 332.076 220.516 332.23 220.141C331.193 220.807 329.939 221.047 328.73 220.811C328.21 220.707 327.731 220.453 327.355 220.08C326.978 219.706 326.719 219.231 326.61 218.711C326.375 217.345 326.649 215.94 327.38 214.761C328.341 212.877 329.707 211.227 331.38 209.931C333.446 208.311 335.336 207.715 337.05 208.141C337.591 208.232 338.08 208.518 338.423 208.946C338.766 209.374 338.939 209.914 338.91 210.461L339.85 209.191L342.56 209.881L336.56 218.131C336.31 218.451 336.079 218.784 335.87 219.131C335.783 219.28 335.741 219.45 335.75 219.621C335.76 219.674 335.785 219.723 335.822 219.762C335.859 219.802 335.907 219.829 335.96 219.841C336.529 219.878 337.096 219.746 337.59 219.461C338.704 218.985 339.721 218.307 340.59 217.461C341.519 216.597 342.296 215.583 342.89 214.461C343.37 213.652 343.683 212.754 343.808 211.821C343.933 210.888 343.869 209.939 343.62 209.031C343.08 207.391 341.72 206.298 339.54 205.751C337.763 205.281 335.889 205.33 334.14 205.891C332.311 206.5 330.65 207.527 329.29 208.891C327.845 210.284 326.636 211.902 325.71 213.681C324.888 215.189 324.446 216.874 324.42 218.591C324.398 219.297 324.52 219.999 324.778 220.655C325.036 221.312 325.424 221.909 325.92 222.411C327.043 223.453 328.424 224.178 329.92 224.511C331.432 224.917 333.012 225.005 334.56 224.771C336.003 224.51 337.37 223.929 338.56 223.071ZM330 215.321C329.553 216.032 329.333 216.863 329.37 217.701C329.395 217.955 329.5 218.193 329.668 218.383C329.837 218.574 330.061 218.706 330.31 218.761C330.73 218.86 331.17 218.839 331.58 218.701C331.992 218.568 332.382 218.376 332.74 218.131C333.51 217.595 334.2 216.952 334.79 216.221C335.468 215.448 336.055 214.599 336.54 213.691C336.949 213.027 337.135 212.249 337.07 211.471C337.039 211.209 336.925 210.963 336.746 210.769C336.566 210.575 336.329 210.443 336.07 210.391C335.362 210.262 334.631 210.401 334.02 210.781C333.131 211.293 332.35 211.972 331.72 212.781C331.059 213.566 330.483 214.417 330 215.321Z" fill="white"/>
<path d="M338.29 164.451C337.1 170.311 334.02 180.691 328.72 182.721C330.44 186.881 332.88 191.871 339.23 194.781C345.58 197.691 346.29 192.781 345.56 189.781C340.12 185.781 342.15 181.401 344.95 177.631L338.29 164.451Z" fill="#FDA5A4"/>
<path opacity="0.2" d="M341 169.811L344.94 177.581C344.271 178.452 343.682 179.383 343.18 180.361C341.01 179.061 338.89 175.201 339.65 172.681C339.923 171.65 340.38 170.678 341 169.811Z" fill="black"/>
<path d="M354.28 164.67C360.55 165.13 366.1 149.49 356.95 147.67C350.78 146.44 350.84 150.13 350.19 154.17C349.54 158.21 350.31 164.38 354.28 164.67Z" fill="#263238"/>
<path d="M338.999 156.75C337.389 164.55 336.049 169.03 338.849 174.03C343.069 181.54 353.489 180.6 357.409 173.44C360.929 166.99 362.979 155.32 356.299 150.22C354.832 149.09 353.099 148.354 351.267 148.081C349.434 147.809 347.563 148.009 345.829 148.663C344.096 149.317 342.559 150.404 341.364 151.819C340.168 153.234 339.354 154.932 338.999 156.75Z" fill="#FDA5A4"/>
<path d="M337.67 162.331C343.94 162.791 348.14 148.491 338.99 146.661C332.82 145.431 332.3 149.041 332.4 152.901C332.5 157.001 333.69 162.001 337.67 162.331Z" fill="#263238"/>
<path d="M342.729 151.391C346.959 153.441 367.349 157.831 366.179 149.061C365.009 140.291 354.119 136.221 354.119 136.221C354.119 136.221 360.459 143.171 355.229 141.501C349.999 139.831 348.499 138.611 342.229 137.501C342.229 137.501 348.389 142.611 341.229 141.171C337.076 140.275 332.738 140.967 329.069 143.111C330.889 144.334 332.341 146.029 333.271 148.014C334.201 149.999 334.574 152.2 334.349 154.381C333.859 162.091 342.729 151.391 342.729 151.391Z" fill="#263238"/>
<path d="M334 162.701C334.275 164.515 335.252 166.149 336.72 167.251C338.64 168.661 340.39 167.041 340.52 164.701C340.63 162.591 339.77 159.311 337.52 158.841C335.27 158.371 333.7 160.441 334 162.701Z" fill="#FDA5A4"/>
<path d="M303.919 249.811L295.579 276.671L338.509 303.671C331.099 316.031 293.449 328.331 293.449 328.331L299.449 340.511C299.449 340.511 351.879 336.511 362.509 313.331C372.739 291.071 329.809 260.611 329.809 260.611L303.919 249.811Z" fill="#263238"/>
<path opacity="0.2" d="M309.49 285.42L302 280.73L311.22 267.33C311.22 267.33 311.48 278.07 309.49 285.42Z" fill="black"/>
<path opacity="0.2" d="M309.49 285.42L302 280.73L311.22 267.33C311.22 267.33 311.48 278.07 309.49 285.42Z" fill="black"/>
<path d="M320.53 256.74C320.53 256.74 285.91 314.32 271.62 333C255.97 353.46 215.45 392 215.45 392L203.38 383.6C203.38 383.6 238.38 345.02 251.57 323.67C266.62 299.35 290.21 244.07 290.21 244.07L320.53 256.74Z" fill="#263238"/>
<path d="M216.71 393.28L202.5 383.4L205.45 379.15L221.53 389.92L216.71 393.28Z" fill="#BA68C8"/>
<path d="M299.95 342.182L292.76 327.672L297.45 325.352L305.73 341.452L299.95 342.182Z" fill="#BA68C8"/>
<path d="M350.07 162.061C349.9 162.681 350.07 163.281 350.5 163.391C350.93 163.501 351.38 163.091 351.55 162.461C351.72 161.831 351.55 161.241 351.11 161.131C350.67 161.021 350.24 161.441 350.07 162.061Z" fill="#263238"/>
<path d="M357.13 164.001C356.96 164.631 357.13 165.221 357.56 165.331C357.99 165.441 358.439 165.031 358.609 164.401C358.779 163.771 358.61 163.181 358.18 163.071C357.75 162.961 357.3 163.361 357.13 164.001Z" fill="#263238"/>
<path d="M354.799 163.682C355.025 165.795 355.54 167.868 356.329 169.842C355.818 170.029 355.273 170.103 354.73 170.058" stroke="black" stroke-width="0.2"/>
<path d="M350.11 170.54C349.433 170.27 348.817 169.864 348.302 169.349C347.786 168.833 347.381 168.218 347.11 167.54C347.097 167.491 347.104 167.439 347.128 167.395C347.152 167.35 347.192 167.316 347.24 167.3C347.288 167.287 347.339 167.292 347.383 167.314C347.427 167.336 347.462 167.374 347.48 167.42C347.787 168.16 348.264 168.817 348.872 169.338C349.48 169.86 350.202 170.23 350.98 170.42C351.005 170.425 351.029 170.435 351.05 170.449C351.071 170.463 351.088 170.482 351.102 170.504C351.115 170.526 351.123 170.55 351.127 170.575C351.13 170.6 351.127 170.626 351.12 170.65C351.113 170.675 351.101 170.698 351.086 170.718C351.07 170.737 351.05 170.754 351.028 170.766C351.005 170.778 350.981 170.786 350.955 170.788C350.93 170.791 350.904 170.788 350.88 170.78C350.618 170.719 350.361 170.639 350.11 170.54Z" fill="#263238"/>
<path d="M348.51 159.191C348.451 159.162 348.4 159.121 348.36 159.071C348.328 159.032 348.305 158.987 348.292 158.939C348.279 158.891 348.275 158.84 348.282 158.791C348.288 158.741 348.305 158.694 348.33 158.651C348.355 158.608 348.389 158.57 348.43 158.541C348.899 158.16 349.452 157.897 350.044 157.773C350.635 157.65 351.247 157.67 351.83 157.831C351.924 157.867 352.001 157.938 352.044 158.029C352.086 158.121 352.092 158.225 352.06 158.321C352.026 158.414 351.956 158.491 351.867 158.534C351.777 158.577 351.674 158.583 351.58 158.551C351.117 158.427 350.631 158.416 350.163 158.519C349.695 158.622 349.258 158.835 348.89 159.141C348.836 159.18 348.772 159.206 348.706 159.214C348.64 159.223 348.572 159.215 348.51 159.191Z" fill="#263238"/>
<path d="M360.83 162.38C360.773 162.356 360.722 162.317 360.684 162.268C360.646 162.219 360.62 162.161 360.61 162.1C360.536 161.628 360.351 161.18 360.069 160.794C359.787 160.407 359.417 160.094 358.99 159.88C358.94 159.864 358.894 159.837 358.855 159.803C358.816 159.768 358.784 159.725 358.762 159.678C358.74 159.63 358.729 159.578 358.728 159.526C358.727 159.474 358.736 159.422 358.756 159.373C358.777 159.325 358.806 159.281 358.844 159.245C358.882 159.208 358.927 159.18 358.976 159.162C359.025 159.144 359.077 159.136 359.13 159.139C359.182 159.142 359.233 159.156 359.28 159.18C359.823 159.443 360.294 159.833 360.654 160.317C361.015 160.801 361.253 161.365 361.35 161.96C361.36 162.009 361.36 162.059 361.35 162.108C361.341 162.156 361.321 162.203 361.293 162.244C361.265 162.285 361.229 162.32 361.187 162.347C361.146 162.373 361.099 162.392 361.05 162.4C360.976 162.419 360.899 162.412 360.83 162.38Z" fill="#263238"/>
<path d="M205.05 402.07C204.797 401.403 204.622 400.708 204.53 400C204.524 399.962 204.529 399.922 204.545 399.887C204.561 399.851 204.587 399.821 204.62 399.8C204.649 399.779 204.684 399.768 204.72 399.768C204.756 399.768 204.791 399.779 204.82 399.8C205.1 399.99 207.51 401.74 207.43 402.75C207.419 402.863 207.379 402.971 207.314 403.063C207.249 403.156 207.162 403.231 207.06 403.28C206.896 403.37 206.712 403.418 206.525 403.418C206.338 403.418 206.154 403.37 205.99 403.28C205.549 402.994 205.218 402.568 205.05 402.07ZM205 400.4C205.25 401.78 205.69 402.73 206.19 402.99C206.304 403.046 206.43 403.071 206.557 403.062C206.683 403.053 206.805 403.011 206.91 402.94C207.05 402.88 207.07 402.8 207.07 402.74C207.1 402.22 205.92 401.13 205 400.4Z" fill="#BA68C8"/>
<path d="M204.54 400C204.53 399.975 204.526 399.948 204.526 399.922C204.527 399.895 204.534 399.869 204.545 399.845C204.556 399.82 204.572 399.799 204.592 399.781C204.611 399.763 204.634 399.749 204.66 399.74C204.75 399.74 206.93 398.94 207.98 399.49C208.108 399.555 208.221 399.646 208.31 399.758C208.4 399.87 208.465 400.001 208.5 400.14C208.553 400.276 208.56 400.425 208.518 400.565C208.476 400.704 208.389 400.826 208.27 400.91C207.52 401.43 205.27 400.66 204.59 400.08C204.567 400.057 204.55 400.03 204.54 400ZM208.11 400.17C208.048 400.027 207.939 399.91 207.8 399.84C206.922 399.614 205.996 399.666 205.15 399.99C206.03 400.5 207.62 400.9 208.07 400.59C208.07 400.59 208.2 400.5 208.14 400.26L208.11 400.17Z" fill="#BA68C8"/>
<path d="M288.119 342.441C288.114 342.407 288.118 342.372 288.133 342.34C288.147 342.308 288.17 342.28 288.199 342.262C288.232 342.24 288.27 342.229 288.309 342.229C288.348 342.229 288.387 342.24 288.419 342.262C288.749 342.512 291.639 344.672 291.589 345.792C291.585 345.894 291.554 345.995 291.5 346.082C291.446 346.17 291.37 346.242 291.279 346.292C291.135 346.393 290.967 346.455 290.792 346.471C290.616 346.487 290.439 346.456 290.279 346.382C289.189 345.942 288.449 343.741 288.109 342.471L288.119 342.441ZM291.209 345.691C291.129 345.061 289.749 343.791 288.639 342.911C289.169 344.631 289.819 345.781 290.429 346.031C290.534 346.076 290.649 346.094 290.762 346.083C290.875 346.073 290.984 346.034 291.079 345.971C291.119 345.955 291.152 345.927 291.176 345.892C291.199 345.856 291.211 345.814 291.209 345.771V345.691Z" fill="#BA68C8"/>
<path d="M315.049 192.322L311.889 190.212C310.799 189.502 309.689 188.812 308.579 188.122C306.349 186.752 304.089 185.452 301.809 184.202C299.529 182.952 297.219 181.812 294.889 180.792C293.729 180.262 292.559 179.792 291.389 179.342L289.639 178.722L289.199 178.572L288.979 178.492C288.979 178.492 288.909 178.492 288.819 178.422C287.98 178.35 287.134 178.401 286.309 178.572C285.159 178.783 284.023 179.067 282.909 179.422C280.454 180.204 278.041 181.111 275.679 182.142C270.829 184.232 265.889 186.612 261.089 189.042L257.699 184.042C262.038 180.348 266.662 177.004 271.529 174.042C274.05 172.507 276.665 171.135 279.359 169.932C280.821 169.298 282.32 168.757 283.849 168.312C285.688 167.747 287.606 167.481 289.529 167.522C290.16 167.554 290.789 167.631 291.409 167.752L291.879 167.862L292.159 167.932L292.709 168.072L294.909 168.642C296.349 169.072 297.799 169.502 299.179 170.032C301.953 171.022 304.667 172.171 307.309 173.472C309.939 174.732 312.489 176.132 314.979 177.612C316.209 178.372 317.439 179.142 318.649 179.942C319.859 180.742 321.019 181.542 322.319 182.512L315.049 192.322Z" fill="#FDA5A4"/>
<path d="M327 183.831C325.23 179.451 308.5 173.461 308.5 173.461L303.09 187.581C303.09 187.581 308.94 191.451 313.79 194.351C323 199.901 330.46 192.451 327 183.831Z" fill="#BA68C8"/>
<path d="M262.7 186.931L259.31 194.281L254.14 187.581C254.14 187.581 258.04 181.021 260.82 183.581L262.7 186.931Z" fill="#FDA5A4"/>
<path d="M252.16 196.59L249.54 190.71L254.14 187.58L259.31 194.28L252.16 196.59Z" fill="#FDA5A4"/>
</svg>
