<svg id="SvgjsSvg1001" width="20" height="20" xmlns="http://www.w3.org/2000/svg" version="1.1" xmlns:xlink="http://www.w3.org/1999/xlink" xmlns:svgjs="http://svgjs.com/svgjs"><defs id="SvgjsDefs1002"></defs><g id="SvgjsG1008"><svg xmlns="http://www.w3.org/2000/svg" viewBox="0 0 64 64" width="256" height="256"><path fill="#fa90bc" d="M54.542,42.895c-.132-.198-.331-.34-.56-.399l-14.08-3.695c-.193-.052-.399-.04-.588,.03-.222,.084-5.007,1.941-6.107,6.347-3.105-1.541-11.778-6.547-14.809-15.592,1.39-.516,3.88-1.754,5.149-4.294,.093-.186,.124-.397,.087-.602l-2.663-15.078c-.057-.322-.272-.593-.572-.722l-2.803-1.201c-3.598-1.543-7.726-1.216-11.039,.876C3.251,10.651,1.186,14.225,1.032,18.126c-.146,3.657,.212,7.525,1.062,11.495,2.132,9.952,14.047,24.9,27.734,30.436,3.485,1.41,6.877,2.113,10.11,2.113,4.191,0,8.114-1.182,11.622-3.535,5.135-3.444,6.498-10.466,3.039-15.655l-.057-.085Z" class="colorfa90bc svgShape"></path><path fill="#fcdeed" d="M50.481,57.027c-5.656,3.795-12.547,4.22-19.927,1.236C17.807,53.105,6.016,38.674,3.988,29.216c-.816-3.812-1.16-7.516-1.021-11.012,.132-3.313,1.816-6.229,4.623-8.001,1.635-1.032,3.457-1.555,5.296-1.555,1.327,0,2.664,.272,3.946,.822l2.322,.994,2.514,14.232c-1.451,2.52-4.667,3.305-4.698,3.312-.259,.06-.482,.223-.617,.452-.134,.228-.17,.502-.097,.758,3.585,12.593,16.786,18.051,17.346,18.277,.287,.114,.615,.087,.879-.079,.264-.166,.431-.448,.45-.759,.221-3.555,3.786-5.435,4.8-5.899l13.397,3.516c2.688,4.279,1.531,9.951-2.647,12.753Z" class="colorfcdeed svgShape"></path><path fill="#fa90bc" d="M29.263 6.692l-.551.025c-.535.024-.949.477-.924 1.012s.517.935 1.011.924l.552-.025c6.645-.29 12.957 2.071 17.766 6.669 4.809 4.599 7.458 10.796 7.458 17.45 0 .535.433.969.969.969s.969-.433.969-.969c0-7.188-2.861-13.882-8.057-18.85-5.195-4.968-12.004-7.529-19.193-7.205zM41.297 4.185l-.36.016c-.535.024-.948.476-.924 1.011.025.535.478.936 1.011.925l.36-.016c4.238-.196 8.285 1.324 11.36 4.264 3.076 2.941 4.769 6.903 4.769 11.158 0 .535.433.969.969.969s.969-.434.969-.969c0-4.789-1.906-9.249-5.367-12.558-3.462-3.31-8.001-5.015-12.787-4.8zM59.271 5.168c-2.404-2.299-5.563-3.479-8.884-3.335l-.243.011c-.535.024-.948.477-.924 1.011.025.535.476.941 1.011.924l.243-.011c2.779-.125 5.44.869 7.459 2.8 2.019 1.93 3.13 4.532 3.13 7.325 0 .535.433.969.969.969s.969-.434.969-.969c0-3.327-1.324-6.426-3.729-8.725z" class="colorfa90bc svgShape"></path></svg></g></svg>