<svg version="1.2" xmlns="http://www.w3.org/2000/svg" viewBox="0 0 3000 2000" width="3000" height="2000"><style>.a{fill:#e24897}.b{fill:#d1d3d4}.c{fill:#0b2d50}.d{fill:#6d75ca}.e{fill:#f9cbcb}.f{fill:#ebb0b0}.g{fill:#3b2612}.h{fill:#fff}.i{fill:#ee91c1}.j{fill:#646a6c}.k{fill:#a7acdf}.l{fill:#ccc}.m{fill:#e86dac}.n{fill:#f9daea}.o{mix-blend-mode:multiply;fill:#e6e7e8}.p{fill:#d3d6f0}.q{fill:#3c5773}.r{fill:#f3b6d5}.s{fill:#fdeaea}.t{fill:#323263}.u{fill:#46bda9}.v{fill:#97d1d8}.w{fill:#2ea1d8}.x{fill:#803431}.y{fill:#666}.z{fill:#de5185}.A{fill:#b5e5dd}</style><path class="a" d="m1388.1 1619h-457c-5-0.1-10-1.1-14.5-3.3-4.5-2.1-8.5-5.1-11.7-9-3.2-3.8-5.5-8.2-6.8-13.1-1.3-4.8-1.6-9.8-0.7-14.7q42.1-245-0.4-469.9c-0.9-4.5-0.8-9.2 0.2-13.7 1-4.5 2.8-8.7 5.5-12.5 2.7-3.7 6-6.9 10-9.3 3.9-2.4 8.3-4 12.8-4.7 38.7-5.9 77.6-10.3 116.7-13.2 39-2.9 78.2-4.3 117.3-4.2 39.2 0.1 78.3 1.7 117.3 4.7 39.1 3.1 78 7.7 116.7 13.7 3.9 0.6 7.8 2 11.3 3.9 3.5 2 6.7 4.6 9.3 7.7 2.6 3 4.7 6.5 6.1 10.3 1.4 3.8 2.1 7.8 2.1 11.9v481.2c0 4.5-0.9 8.9-2.6 13-1.7 4.2-4.3 8-7.4 11.1-3.2 3.2-7 5.7-11.1 7.5-4.2 1.7-8.6 2.6-13.1 2.6z"/><path class="b" d="m925.8 1578.9q42.1-245-0.4-469.9c-0.9-4.5-0.8-9.2 0.2-13.7 0.9-4.5 2.8-8.7 5.5-12.5 2.6-3.7 6-6.9 9.9-9.3 4-2.4 8.3-4 12.9-4.7q26.8-4.1 53.8-7.2 27-3.1 54-5.3 27.1-2.1 54.2-3.3 27.1-1.3 54.3-1.5-30.7-0.3-61.4 0.7-30.7 0.9-61.3 3.1-30.6 2.1-61.1 5.5-30.5 3.4-60.9 8c-4.5 0.7-8.9 2.3-12.8 4.7-4 2.4-7.3 5.6-10 9.3-2.7 3.8-4.5 8-5.5 12.5-1 4.5-1.1 9.2-0.2 13.7q42.5 224.9 0.4 469.9c-0.9 4.9-0.6 9.9 0.7 14.7 1.3 4.9 3.6 9.3 6.8 13.1 3.2 3.9 7.2 6.9 11.7 9 4.5 2.2 9.5 3.2 14.5 3.3h28.3c-5-0.1-9.9-1.1-14.4-3.3-4.5-2.1-8.5-5.1-11.7-9-3.2-3.8-5.6-8.2-6.9-13.1-1.3-4.8-1.5-9.8-0.6-14.7z"/><path fill-rule="evenodd" class="c" d="m1482.8 1064.1c18.5 85.9-409.9 75.7-406.1 6.9-0.2-64.4 58-148.7 55.9-237.1 0.7-25-0.6-52.4 1.4-77.9-10.4-105.2 86.6-113.4 145.5-97.2 146.7-23.3 180.6 91.8 149.4 195.5 5.4 32.5 17.1 71.2 34.2 100.4 18.9 38.7 39 73.7 19.7 109.4zm-223-407.3c-52.2-8.7-122.5 3.1-124.1 83 7.4-50.3 33.4-89.6 124.1-83zm171.4 94.1c6.6 29.9-7.4 66.1-3 99.2 13.5-31.8 11.6-69.6 3-99.2zm17.5 180c14.6 48.2 31 96.3 33.8 128.9q0.9-1.8 1.7-3.7 0.8-1.8 1.4-3.7 0.6-2 1.1-3.9 0.4-2 0.7-4c5.5-36-21.7-76.9-38.7-113.6z"/><path class="d" d="m1530.8 1161.4c-76.2-71-260.5-90.6-364.1-56.2l-0.4-0.5c-9.4 3.1-19 6.4-28.5 9.3l0.3 0.4c-43.1 15.7-95.5 38.4-108.8 57.1-28.8 40.3-26.2 328.9-26.2 328.9h556c0 0 0.6-298.6-28.3-339z"/><path class="e" d="m1333.9 1093.1c-0.4 7.6-50.3 77.8-50.3 77.8l-54.7-81.3c3.9-20.7 16.6-86.7 20.4-106.2l70.6 1.5 0.4 3.4z"/><path class="f" d="m1333.9 1093.1c-18.4-21.8-25.3-87.5-90.2-79.9l5.6-29 70.6 1.5 0.4 2.6z"/><path class="e" d="m1162.8 864.3l18 58.2q-0.3-0.1-0.5-0.1-0.2-0.1-0.5-0.1-0.2 0-0.4 0-0.2 0-0.5 0.1l-0.1-0.3c-91.2-3.5-98-98.7-35.6-87.6 2.4 11.1 12 20.5 19.6 29.8zm237.1 65.1c-2.2 0.6-4.3 0.8-6.9 1.3 0.4-0.9 10.4-52.2 10.9-54.7q2.4-3.8 4.6-7.7 2.2-3.9 4.2-8 2-4 3.8-8.1 1.8-4.1 3.4-8.3c54.2-17.1 67.6 64.8-20 85.5z"/><path class="e" d="m1433.2 834.9c-19.5 227.4-281 214.6-296.3-8 9.6-216.4 298.5-208.3 296.3 8z"/><path class="f" d="m1289.5 666.4c-2.5-0.1-4.8 0.1-7.2 0.2 185.4 11.7 172.6 333.1-6.6 334.9 192.6 8.1 214.6-326.4 13.8-335.1z"/><path class="g" d="m1323.8 918.7c-3.4 11.6-9.4 19.9-16.5 24.8v0.2c-21.6 15.6-48.6 0.7-53.5-25q8.6 1.6 17.4 2.4 8.8 0.8 17.6 0.8 8.8 0 17.6-0.8 8.7-0.8 17.4-2.4z"/><path class="h" d="m1317.5 919.7v7.6c-18.6 4.1-37.7 3.1-57.4-0.6v-7q7.1 0.9 14.3 1.4 7.2 0.4 14.4 0.4 7.2 0 14.4-0.4 7.1-0.5 14.3-1.4z"/><path class="a" d="m1307.3 943.5v0.2c-2.8 2.1-6 3.7-9.4 4.8-3.3 1.1-6.9 1.6-10.4 1.5-3.6-0.1-7.1-0.7-10.4-2-3.3-1.2-6.4-3-9.2-5.3 6.9-9.6 33.4-9.4 39.4 0.8z"/><path class="i" d="m1206.5 875.6c-0.4-9.5 29.1-9.5 28.7 0 0.4 9.5-29.1 9.5-28.7 0zm136 0c-0.3-9.5 29.2-9.5 28.8 0 0.4 9.5-29.1 9.5-28.8 0z"/><path class="c" d="m1201 858.9c3.2-22.8 47.8-23.7 50.2 0-13.4-11.9-36.4-10.7-50.2 0zm120 0c3.1-22.8 47.7-23.7 50.1 0-13.4-11.9-36.4-10.7-50.1 0z"/><path class="b" d="m1276.6 1392.5c-0.3-23.4 36.4-23.4 36.1 0 0.3 23.5-36.5 23.5-36.1 0zm0 60.5c-0.3-23.4 36.4-23.4 36.1 0 0.3 23.4-36.5 23.4-36.1 0z"/><path class="j" d="m1266.4 1392.5c-0.3-23.4 36.5-23.4 36.1 0 0.4 23.5-36.4 23.5-36.1 0zm0 60.5c-0.3-23.4 36.5-23.4 36.1 0 0.4 23.4-36.4 23.4-36.1 0z"/><path class="b" d="m1276.6 1257.5c-0.3-23.4 36.4-23.4 36.1 0 0.3 23.5-36.5 23.4-36.1 0zm0 60.5c-0.3-23.4 36.4-23.4 36.1 0 0.3 23.4-36.5 23.4-36.1 0z"/><path class="j" d="m1266.4 1257.5c-0.3-23.4 36.5-23.4 36.1 0 0.4 23.5-36.4 23.4-36.1 0zm0 60.5c-0.3-23.4 36.5-23.4 36.1 0 0.4 23.4-36.4 23.4-36.1 0z"/><path fill-rule="evenodd" class="k" d="m1283.6 1170.9c-34.4-24-69.3-43.4-104.9-56.4l50.2-24.9zm50.2-81.9l54.7 25.5c-41.6 13.2-77.6 31.1-104.9 56.4z"/><path class="c" d="m1238.7 718c0 0 12 61.5-97 142.3-70.1-256.8 357.3-276.2 291.8 12.1 0 0-86.5-56.6-93.1-115.7 0 0-2.6 28 0 36.2 0 0-74.7-2.5-101.7-74.9z"/><path class="h" d="m1435.6 837h-11.3c27.6-244.2-307.7-244-280.1 0h-11.2c-28-259 330.6-258.8 302.6 0z"/><path fill-rule="evenodd" class="h" d="m1150.6 827.4c0.3-15.6-24.3-15.6-24 0-0.3 15.6 24.3 15.6 24 0zm291.4 0c0.2-15.6-24.3-15.6-24.1 0-0.2 15.6 24.3 15.6 24.1 0zm-170.8 152.6q0.1 0 0.1-0.1c-0.4-0.9-3.5-13.5-3.9-14.9-4.2 0.7-8.6 2.8-9.8 7-66.1 16.8-118.6 0.8-115.7-68l-11.3-0.6c-6.4 78.5 67.2 98.6 130.7 79.3 3 2.4 7.3 1.8 10.8 0.7z"/><path fill-rule="evenodd" class="l" d="m1272.1 983.4c-3.5 1.1-7.8 1.7-10.8-0.7-48.9 13.8-112.2 9.4-127.2-44.9 17.1 51.3 78.4 54.5 126 41.3 3 2.4 7.3 1.8 10.8 0.6l-0.8-3.4q0 0 0.1 0c-0.5-1.4-2.6-9.7-3-11.3h0.2c0.4 1.4 3.5 14 3.9 14.9q0 0.1-0.1 0.1zm-130.2-79.4q-0.3 3.8-0.2 7.7 0 3.8 0.4 7.6 0.4 3.8 1.1 7.6 0.7 3.8 1.7 7.5c-3.1-8.9-4.6-19.1-4.3-30.5z"/><path class="m" d="m1091 882.7c0 21.2 15.3 38.4 34.2 38.4v-76.7c-18.9 0-34.2 17.2-34.2 38.3z"/><path class="l" d="m1092.3 874.5c0-1 0.1-2 0.2-2.9q-0.4 1.4-0.7 2.7-0.3 1.4-0.4 2.8-0.2 1.4-0.3 2.8-0.1 1.4-0.1 2.8c0 21.2 15.3 38.4 34.2 38.4v-8.4c-18.3-0.8-32.9-17.6-32.9-38.2z"/><path class="a" d="m1429.4 793.2c-1.5 0-3-0.3-4.4-0.8-1.4-0.6-2.7-1.4-3.9-2.4-1.1-1.1-2-2.3-2.6-3.7-0.7-1.4-1.1-2.9-1.2-4.4-5.8-68.3-63.2-122.1-133-122.1-69.8 0-127.3 53.8-133 122.1-0.1 1.5-0.5 3-1.2 4.4-0.7 1.4-1.6 2.6-2.7 3.7-1.1 1-2.4 1.8-3.8 2.4-1.5 0.5-3 0.8-4.5 0.8-8.1 0.1-13.6-7.6-11.9-15.5 7.8-80.6 76.6-143.6 159.5-142.3 81.7 1.2 148.5 64.8 154.9 145.2 0.1 1.6-0.2 3.3-0.7 4.8-0.6 1.5-1.5 2.9-2.7 4.1-1.1 1.2-2.5 2.1-4 2.8-1.5 0.6-3.1 0.9-4.8 0.9z"/><path class="l" d="m1275.3 657.8c-69.8 0-127.2 53.8-133 122.1q-0.1 2.1-0.9 4-0.9 1.8-2.2 3.3-1.4 1.6-3.2 2.5-1.8 1-3.8 1.4c7.3 5.4 18.6 0 19.1-9.2 5.6-76.9 80.7-135 157.4-119.9q-4.1-1-8.3-1.8-4.1-0.8-8.3-1.4-4.1-0.5-8.4-0.8-4.2-0.2-8.4-0.2zm166.3 122.4c-5.8-71.1-58.9-128.9-127.7-142 64.4 16.2 113.2 72 118.8 140 0.1 1.5-0.1 3-0.5 4.4-0.5 1.5-1.2 2.8-2.1 4-0.9 1.2-2.1 2.2-3.4 2.9-1.3 0.8-2.7 1.3-4.2 1.6 8 5.9 20.2-1 19.1-10.9z"/><path class="a" d="m1138.6 830.4c-2.7 0-5.4 0.5-7.9 1.6-2.5 1-4.8 2.5-6.8 4.5-1.9 1.9-3.4 4.2-4.5 6.7-1 2.5-1.5 5.2-1.5 7.9v63.2c0 5.5 2.2 10.8 6 14.7 3.9 3.9 9.2 6.1 14.7 6.1 5.5 0 10.8-2.2 14.7-6.1 3.8-3.9 6-9.2 6-14.7v-63.2c0-2.7-0.5-5.4-1.5-7.9-1.1-2.5-2.6-4.8-4.5-6.7-2-1.9-4.2-3.5-6.8-4.5-2.5-1.1-5.2-1.6-7.9-1.6z"/><path class="l" d="m1142.7 830.8c6.3 5.6 2.1 66.3 3.2 74.4 0.2 12.9-12.1 23-24.8 20.3 2.5 3.8 6 6.7 10.2 8.3 4.2 1.5 8.8 1.7 13.1 0.4 4.3-1.2 8.1-3.8 10.8-7.4 2.7-3.6 4.1-8 4.1-12.5v-63.2c0-2.3-0.4-4.7-1.2-6.9-0.8-2.3-2-4.4-3.5-6.2-1.5-1.8-3.3-3.4-5.3-4.6-2.1-1.3-4.3-2.1-6.6-2.6z"/><path class="m" d="m1441.9 839.4v76.6c44.8-0.2 44.7-76.5 0-76.6z"/><path class="l" d="m1474.8 869.4c0-1-0.1-1.9-0.1-2.9q0.3 1.4 0.6 2.8 0.3 1.4 0.5 2.8 0.2 1.4 0.3 2.8 0.1 1.4 0.1 2.8c0 21.1-15.4 38.3-34.3 38.3v-8.4c18.3-0.8 32.9-17.6 32.9-38.2z"/><path class="a" d="m1428.5 825.3c-2.7 0-5.4 0.6-7.9 1.6-2.5 1.1-4.8 2.6-6.7 4.5-1.9 1.9-3.5 4.2-4.5 6.7-1.1 2.6-1.6 5.3-1.6 8v63.2c0 5.5 2.2 10.8 6.1 14.6 3.9 3.9 9.1 6.1 14.6 6.1 5.5 0 10.8-2.2 14.7-6.1 3.9-3.8 6.1-9.1 6.1-14.6v-63.2c0-2.7-0.6-5.4-1.6-8-1-2.5-2.6-4.8-4.5-6.7-1.9-1.9-4.2-3.4-6.7-4.5-2.5-1-5.2-1.6-8-1.6z"/><path class="l" d="m1424.5 825.7c-6.4 5.7-2.2 66.3-3.3 74.4 0 3.1 0.7 6.1 2 8.9 1.3 2.7 3.2 5.2 5.6 7.1 2.4 2 5.1 3.4 8.1 4.1 3 0.8 6.1 0.8 9.1 0.2-10.1 17.2-38.9 9.2-38.2-11.1v-63.2c0-2.4 0.4-4.8 1.2-7 0.8-2.2 2-4.3 3.5-6.2 1.5-1.8 3.3-3.4 5.4-4.6 2-1.2 4.2-2.1 6.6-2.6z"/><path class="m" d="m1304.8 979.2c-11.3 2-36.1 14.7-40.4-3.7-5.1-18.2 22.8-19 33.6-22.7 1.7-0.5 3.6-0.6 5.3-0.3 1.8 0.2 3.5 0.8 5.1 1.7 1.5 1 2.9 2.2 3.9 3.6 1.1 1.4 1.9 3.1 2.3 4.8 0.5 1.7 0.6 3.6 0.3 5.3-0.2 1.8-0.8 3.5-1.7 5.1-1 1.5-2.2 2.9-3.6 3.9-1.4 1.1-3.1 1.9-4.8 2.3z"/><path fill-rule="evenodd" class="l" d="m1314.9 967.9c-0.2 1.8-0.8 3.5-1.7 5.1-1 1.5-2.2 2.9-3.6 3.9-1.4 1.1-3.1 1.9-4.8 2.3-5.5 0.8-26.2 8.5-31.4 5.9 2.1 0.5 25-6.1 27.5-6.5 13.1-2.9 13.5-22.7 0.8-26.3q2.3 0.1 4.4 0.9 2.1 0.7 3.8 2.1 1.8 1.4 3 3.3 1.2 1.8 1.7 4c0.5 1.7 0.6 3.6 0.3 5.3zm-36.1-2.1c0.3-0.1 0.6-0.1 0.9 0 0.3 0 0.5 0.2 0.6 0.5 0.2 0.3 0.2 0.6 0.1 0.9-0.1 0.2-0.2 0.5-0.5 0.6-0.3 0.2-0.6 0.2-0.9 0.1-0.2-0.1-0.5-0.3-0.6-0.5-0.2-0.3-0.2-0.6-0.1-0.9 0.1-0.3 0.3-0.5 0.5-0.7zm6.3 1.2c0-0.3 0.2-0.5 0.4-0.7 0.2-0.2 0.5-0.3 0.8-0.3 0.3 0 0.6 0.2 0.8 0.4 0.2 0.2 0.3 0.5 0.3 0.8-0.1 0.3-0.2 0.5-0.4 0.7-0.2 0.2-0.5 0.3-0.8 0.3-0.3 0-0.6-0.2-0.8-0.4-0.2-0.2-0.3-0.5-0.3-0.8z"/><path class="l" d="m1284.9 974.4c0.1-0.3 0.2-0.6 0.4-0.8 0.2-0.2 0.5-0.3 0.8-0.3 0.3 0 0.6 0.2 0.8 0.4 0.2 0.2 0.3 0.5 0.3 0.8 0 0.3-0.2 0.6-0.4 0.8-0.2 0.2-0.5 0.3-0.8 0.3-0.3 0-0.6-0.2-0.8-0.4-0.2-0.2-0.3-0.5-0.3-0.8zm-4.5-2.5c0.2-0.2 0.5-0.2 0.8-0.1 0.3 0.1 0.5 0.3 0.7 0.5 0.1 0.3 0.1 0.6 0.1 0.9-0.1 0.3-0.3 0.5-0.6 0.7-0.2 0.1-0.5 0.1-0.8 0-0.3-0.1-0.5-0.3-0.7-0.5-0.1-0.3-0.2-0.6-0.1-0.9 0.1-0.3 0.3-0.5 0.6-0.6zm1.3-10.9c0.3-0.1 0.6-0.1 0.9 0 0.3 0.1 0.5 0.3 0.6 0.5 0.2 0.3 0.2 0.6 0.1 0.9 0 0.2-0.2 0.5-0.5 0.6-0.2 0.2-0.6 0.2-0.8 0.1-0.3-0.1-0.5-0.3-0.7-0.5-0.1-0.3-0.2-0.6-0.1-0.9 0.1-0.3 0.3-0.5 0.5-0.7zm6.7 0.5c0.3-0.1 0.6-0.2 0.9-0.1 0.2 0.1 0.5 0.3 0.6 0.5 0.2 0.3 0.2 0.6 0.1 0.9-0.1 0.3-0.3 0.5-0.5 0.7-0.3 0.1-0.6 0.2-0.9 0.1-0.3-0.1-0.5-0.3-0.7-0.6-0.1-0.2-0.1-0.5-0.1-0.8 0.1-0.3 0.3-0.6 0.6-0.7zm3.2-3.8c0.3-0.1 0.6-0.1 0.9 0 0.2 0 0.5 0.2 0.6 0.5 0.2 0.3 0.2 0.6 0.1 0.9-0.1 0.3-0.3 0.5-0.5 0.6-0.3 0.2-0.6 0.2-0.9 0.1-0.3-0.1-0.5-0.3-0.7-0.5-0.1-0.3-0.1-0.6 0-0.9 0-0.3 0.2-0.5 0.5-0.7zm5.5 1.7c0.3-0.2 0.6-0.2 0.9-0.1 0.3 0.1 0.5 0.3 0.6 0.6 0.2 0.2 0.2 0.5 0.1 0.8-0.1 0.3-0.2 0.5-0.5 0.7-0.3 0.1-0.6 0.1-0.8 0-0.3-0.1-0.6-0.2-0.7-0.5-0.1-0.3-0.2-0.6-0.1-0.8 0.1-0.3 0.3-0.6 0.5-0.7zm2.6-4.2c0.3-0.1 0.6-0.2 0.8-0.1 0.3 0.1 0.6 0.3 0.7 0.6 0.2 0.2 0.2 0.5 0.1 0.8-0.1 0.3-0.3 0.6-0.5 0.7-0.3 0.1-0.6 0.2-0.9 0.1-0.3-0.1-0.5-0.3-0.7-0.6-0.1-0.2-0.1-0.5-0.1-0.8 0.1-0.3 0.3-0.5 0.6-0.7zm5.1 3.9c0.3-0.1 0.6-0.1 0.9 0 0.2 0.1 0.5 0.3 0.6 0.5 0.2 0.3 0.2 0.6 0.1 0.9-0.1 0.3-0.3 0.5-0.5 0.6-0.3 0.2-0.6 0.2-0.9 0.1-0.3-0.1-0.5-0.3-0.7-0.5-0.1-0.3-0.1-0.6 0-0.9 0-0.3 0.2-0.5 0.5-0.7zm-2 4.4c0.2-0.1 0.5-0.1 0.8-0.1 0.3 0.1 0.5 0.3 0.7 0.6 0.1 0.2 0.1 0.5 0.1 0.8-0.1 0.3-0.3 0.6-0.6 0.7-0.2 0.1-0.5 0.2-0.8 0.1-0.3-0.1-0.5-0.3-0.6-0.6-0.2-0.2-0.2-0.5-0.1-0.8 0-0.3 0.2-0.5 0.5-0.7zm-2.6 6.6c-0.3 0.1-0.6 0.1-0.9 0-0.2-0.1-0.5-0.4-0.6-0.6-0.1-0.3-0.1-0.6 0.1-0.9 0.1-0.3 0.3-0.5 0.6-0.6 0.3-0.1 0.6-0.1 0.8 0 0.3 0.2 0.5 0.4 0.6 0.7 0.1 0.2 0.1 0.5 0 0.8-0.1 0.3-0.3 0.5-0.6 0.6zm5.8 1.4c-0.3 0.1-0.6 0-0.9-0.1-0.2-0.1-0.4-0.3-0.5-0.6-0.1-0.3-0.1-0.6 0-0.8 0.1-0.3 0.3-0.5 0.6-0.6 0.3-0.1 0.6-0.1 0.8 0 0.3 0.1 0.5 0.3 0.6 0.6 0.1 0.3 0.1 0.6 0 0.9-0.1 0.2-0.3 0.5-0.6 0.6zm-9.8 2.7c-0.3 0.1-0.6 0.1-0.8 0-0.3-0.1-0.5-0.3-0.6-0.6-0.1-0.3-0.1-0.6 0-0.9 0.1-0.2 0.3-0.5 0.6-0.6 0.3-0.1 0.6-0.1 0.9 0.1 0.2 0.1 0.4 0.3 0.5 0.6 0.1 0.3 0.1 0.6 0 0.8-0.1 0.3-0.3 0.5-0.6 0.6zm-5-6.2c0.3-0.1 0.6-0.1 0.9 0 0.3 0.1 0.5 0.3 0.6 0.5 0.2 0.3 0.2 0.6 0.1 0.9 0 0.3-0.2 0.5-0.5 0.6-0.3 0.2-0.6 0.2-0.8 0.1-0.3-0.1-0.5-0.3-0.7-0.5-0.1-0.3-0.2-0.6-0.1-0.9q0.1-0.4 0.5-0.7zm4.1-3.5c0.2-0.1 0.5-0.1 0.8-0.1 0.3 0.1 0.5 0.3 0.7 0.6 0.1 0.2 0.1 0.5 0.1 0.8-0.1 0.3-0.3 0.6-0.6 0.7-0.2 0.1-0.5 0.2-0.8 0.1-0.3-0.1-0.5-0.3-0.7-0.6-0.1-0.2-0.1-0.5-0.1-0.8 0.1-0.3 0.3-0.5 0.6-0.7zm-26.2 0.8c0-0.3 0.1-0.6 0.3-0.8 0.1-0.2 0.4-0.4 0.7-0.4 0.3-0.1 0.6 0 0.8 0.2 0.2 0.2 0.4 0.4 0.5 0.7 0 0.3-0.1 0.6-0.3 0.8-0.2 0.2-0.4 0.4-0.7 0.4-0.3 0.1-0.6 0-0.8-0.2-0.3-0.1-0.4-0.4-0.5-0.7zm5.3 4.4c0.3-0.1 0.6-0.1 0.9 0 0.3 0 0.5 0.2 0.7 0.5 0.1 0.3 0.1 0.6 0.1 0.9-0.1 0.2-0.3 0.5-0.6 0.6-0.2 0.2-0.5 0.2-0.8 0.1-0.3-0.1-0.5-0.3-0.7-0.5-0.1-0.3-0.2-0.6-0.1-0.9 0.1-0.3 0.3-0.5 0.5-0.7zm-0.2 6.1c0.2-0.2 0.5-0.2 0.8-0.1 0.3 0.1 0.5 0.3 0.7 0.5 0.1 0.3 0.2 0.6 0.1 0.9-0.1 0.3-0.3 0.5-0.5 0.6-0.3 0.2-0.6 0.2-0.9 0.1-0.3-0.1-0.5-0.3-0.7-0.5-0.1-0.3-0.1-0.6-0.1-0.9 0.1-0.3 0.3-0.5 0.6-0.6zm35.1-9.6c-0.2 0.1-0.5 0.1-0.8 0-0.3-0.1-0.5-0.4-0.6-0.6-0.1-0.3-0.1-0.6 0-0.9 0.1-0.3 0.4-0.5 0.6-0.6 0.3-0.1 0.6-0.1 0.9 0 0.3 0.1 0.5 0.4 0.6 0.7 0.1 0.2 0.1 0.5 0 0.8-0.1 0.3-0.4 0.5-0.7 0.6zm-34.9-3.8c0.3-0.2 0.6-0.2 0.9-0.1 0.2 0.1 0.5 0.3 0.6 0.6 0.1 0.2 0.2 0.5 0.1 0.8-0.1 0.3-0.3 0.5-0.5 0.7-0.3 0.1-0.6 0.1-0.9 0-0.2-0.1-0.5-0.3-0.6-0.5-0.1-0.3-0.2-0.6-0.1-0.9 0.1-0.2 0.3-0.5 0.5-0.6zm-6.3 7.5c0.2-0.1 0.5-0.1 0.8 0 0.3 0 0.5 0.2 0.7 0.5 0.1 0.3 0.1 0.6 0.1 0.8-0.1 0.3-0.3 0.6-0.6 0.7-0.2 0.1-0.5 0.2-0.8 0.1-0.3-0.1-0.5-0.3-0.7-0.6-0.1-0.2-0.1-0.5-0.1-0.8 0.1-0.3 0.3-0.5 0.6-0.7z"/><path class="b" d="m1020.9 1177.6c-31.6 41.2-51 351.4-16.3 385.4 43.1 42.3 228.2 24 228.2 24l18.5-121.7-100.3-1.9 23.5-147.9z"/><path class="n" d="m2621.3 1014.5c2.8 15.7 1.1 32.4-4.3 47.9-2.7 7.8-6.3 15.2-10.7 22.2-4.4 7-9.5 13.5-15.4 19.3-5.8 5.9-12.3 11-19.3 15.4-7 4.4-14.5 8-22.3 10.7-15.4 5.4-32.1 7.1-47.8 4.3q5.7-0.9 11.3-2.3 5.6-1.4 11.1-3.1 5.5-1.8 10.8-3.9 5.4-2.2 10.6-4.7c6.7-3.3 13.1-7.1 19.1-11.4 6.1-4.4 11.8-9.2 17-14.4 5.3-5.3 10.1-11 14.5-17 4.3-6.1 8.1-12.5 11.4-19.2 6.7-13.4 11.2-28.1 14-43.8zm-119.8-488c15.7-2.8 32.3-1.1 47.8 4.3 7.8 2.7 15.3 6.3 22.3 10.7 7 4.4 13.5 9.5 19.3 15.4 5.9 5.8 11 12.3 15.4 19.3 4.4 7 8 14.5 10.7 22.3 5.4 15.5 7.1 32.1 4.3 47.8-2.8-15.6-7.3-30.3-14-43.8-3.3-6.7-7.1-13.1-11.4-19.1-4.4-6.1-9.2-11.8-14.5-17-5.2-5.3-10.9-10.1-17-14.5-6-4.3-12.4-8.1-19.1-11.4-13.5-6.7-28.1-11.2-43.8-14zm-632.8 119.8c-2.7-15.7-1-32.3 4.3-47.8 2.8-7.8 6.3-15.3 10.7-22.3 4.4-7 9.6-13.5 15.4-19.3 5.9-5.9 12.3-11 19.3-15.4 7-4.4 14.5-8 22.3-10.7 15.5-5.4 32.2-7.1 47.9-4.3-15.7 2.8-30.4 7.3-43.9 14-6.6 3.3-13 7.1-19.1 11.4-6 4.4-11.7 9.2-17 14.5-5.3 5.2-10.1 10.9-14.4 17-4.4 6-8.2 12.4-11.5 19.1q-2.5 5.2-4.6 10.5-2.2 5.4-3.9 10.9-1.8 5.5-3.2 11.1-1.3 5.6-2.3 11.3zm119.9 488c-15.7 2.8-32.4 1.1-47.9-4.3-7.8-2.7-15.3-6.3-22.2-10.7-7-4.4-13.5-9.5-19.4-15.4-5.8-5.8-11-12.3-15.4-19.3-4.4-7-8-14.4-10.7-22.2-5.3-15.5-7.1-32.2-4.3-47.9 2.9 15.7 7.3 30.4 14 43.8 3.3 6.7 7.2 13.1 11.5 19.2 4.3 6 9.1 11.7 14.4 17 5.3 5.2 11 10 17 14.4 6.1 4.3 12.5 8.1 19.1 11.4q5.2 2.5 10.6 4.7 5.4 2.1 10.9 3.9 5.5 1.7 11.1 3.1 5.6 1.4 11.3 2.3z"/><path class="n" d="m2581.1 646.3v368.2c0 10.5-2 20.8-6 30.5-4 9.6-9.9 18.4-17.3 25.8-7.4 7.4-16.2 13.3-25.8 17.3-9.7 4-20.1 6-30.5 6h-512.9c-10.5 0-20.8-2-30.5-6-9.7-4-18.4-9.9-25.8-17.3-7.4-7.4-13.3-16.2-17.3-25.8-4-9.7-6.1-20-6.1-30.5v-368.2c0-10.4 2.1-20.8 6.1-30.5 4-9.6 9.9-18.4 17.3-25.8 7.4-7.4 16.1-13.3 25.8-17.3 9.7-4 20-6 30.5-6h512.9c10.4 0 20.8 2 30.5 6 9.6 4 18.4 9.9 25.8 17.3 7.4 7.4 13.3 16.2 17.3 25.8 4 9.7 6 20.1 6 30.5z"/><path class="d" d="m1029.3 1171.5c-36.2 37.2-91.6 343.1-61.1 380.9 37.8 47 223.8 50.4 223.8 50.4l32.6-118.7-99.4-13.5 59-179z"/><path class="o" d="m998.7 1534.3c-31.9-31.2 9.5-281.2 36.3-356.4l-5.7-6.4c-36.2 37.2-91.6 343.1-61.1 380.9 37.8 47 223.8 50.4 223.8 50.4l7.7-27.7c-58.2 2-173.2-13.6-201-40.8z"/><path class="h" d="m1219.3 1194.4h477.7c4.1 0 8.2 0.8 12.1 2.4 3.8 1.6 7.3 3.9 10.2 6.8 3 3 5.3 6.5 6.9 10.3 1.6 3.8 2.4 8 2.4 12.1v345.2c0 4.1-0.8 8.2-2.4 12.1-1.6 3.8-3.9 7.3-6.9 10.2-2.9 3-6.4 5.3-10.2 6.9-3.9 1.6-8 2.4-12.1 2.4h-477.7c-4.1 0-8.2-0.8-12.1-2.4-3.8-1.6-7.3-3.9-10.2-6.9-3-2.9-5.3-6.4-6.9-10.2-1.6-3.9-2.4-8-2.4-12.2v-345.1c0-4.1 0.8-8.3 2.4-12.1 1.6-3.8 3.9-7.3 6.9-10.3 2.9-2.9 6.4-5.2 10.2-6.8 3.9-1.6 8-2.4 12.1-2.4z"/><path class="p" d="m1681.3 1194.4v172.9c0 21.9-4.3 43.6-12.7 63.8-8.4 20.2-20.6 38.6-36.1 54-15.5 15.5-33.8 27.8-54.1 36.2-20.2 8.3-41.8 12.6-63.7 12.6h-327v37.2c0 4.2 0.8 8.3 2.4 12.2 1.6 3.8 3.9 7.3 6.9 10.2 2.9 3 6.4 5.3 10.2 6.9 3.9 1.6 8 2.4 12.1 2.4h477.7c4.1 0 8.2-0.8 12.1-2.4 3.8-1.6 7.3-3.9 10.2-6.9 3-2.9 5.3-6.4 6.9-10.2 1.6-3.9 2.4-8 2.4-12.2v-345.1c0-4.1-0.8-8.2-2.4-12.1-1.6-3.8-3.9-7.3-6.9-10.3-2.9-2.9-6.4-5.2-10.2-6.8-3.9-1.6-8-2.4-12.1-2.4z"/><path class="p" d="m1438.1 1392.5c0-12.2 7.4-23.2 18.7-27.9 11.3-4.7 24.3-2.1 33 6.6 8.7 8.6 11.2 21.6 6.6 32.9-4.7 11.3-15.8 18.7-28 18.7-4 0-7.9-0.8-11.6-2.3-3.6-1.5-7-3.7-9.8-6.6-2.8-2.8-5-6.1-6.6-9.8-1.5-3.6-2.3-7.6-2.3-11.6z"/><path class="f" d="m2301 730.7c24-14.1 38.4 26.6-7.2 35.4z"/><path class="q" d="m2294.7 779.3l26.7-84.6 12 3.8-26.7 84.6z"/><path class="e" d="m2308.6 952.9l10.9-84.7 30.3 6.6-24-82.3-4-13.7c-9.1-2.6-26.7-23.7-17.9-33.8 1.7-2 10.3 9.1 11.4 6.4 5.7-13.8 11.6-29.2 10-38.4-1.8-11 5.3-16 6.8-10.5 3.7 4.8 9.3 47.3 7.3 62 5.1 8.7 11.1 12 21.5 28 45.5 70.2 112.4 188.6-52.3 160.4z"/><path class="a" d="m2308.6 952.9l10.9-84.7 30.3 6.6-26.2-80.3 34-15.1c28.1 43.3 74.2 117.7 59.8 155.7-8.8 23.5-46 28.5-108.8 17.8z"/><path class="a" d="m2331.6 1094.1h-192.4c-0.9-11.4-2-23.2-3.2-35-5.6-56.4-13-114.4-8.3-152.3-0.6-14 4.4-23.8 12.6-30.7q0.3-0.2 0.6-0.5 0.3-0.2 0.6-0.4 0.3-0.2 0.5-0.4 0.3-0.3 0.6-0.5 0.5-0.3 0.9-0.7 0.1 0 0.2 0 0-0.1 0.1-0.1 0-0.1 0.1-0.1 0.1-0.1 0.1-0.1c15.6-10.7 39.6-13.7 59.9-16.7 1.3-0.4 4.9-0.6 9.6-0.8q1.3 0 2.7 0h0.3c13.8-0.3 34.9 0 45.5 0.1 2.6 0.1 4.5 0.1 5.6 0.1q6.5 1.5 13 3 6.4 1.6 12.9 3.1 6.5 1.5 13 3.1 6.5 1.5 13 3c4.3 1 2.1 38.2 4.7 87v0.1c2.4 44.4 5.3 97.7 7.4 138.8z"/><path class="r" d="m2275.8 857.2c-14.9 39.5-60.4 33.6-71.9-0.6 12.8-1.4 45.2-1.9 63.7-0.6 3.3 0.2 6 0.9 8.2 1.2z"/><path class="e" d="m2267.6 856c-17.2 21.4-37 28.3-54.1-0.2l6.5-57.4 37.6-0.2z"/><path class="f" d="m2267.6 856c-1.4 1.8-2.8 3.2-4.2 4.8-6.4-21.5-11.6-50.6-45.5-44.8l2.1-17.6 37.6-0.2z"/><path class="e" d="m2306 726.3c-2.8 77.7-79.4 117.8-118.3 36.3h-0.1c-46.6-104.8 108.9-157 118.4-36.3z"/><path class="c" d="m2201.5 725.4c5.9-4.7 14.9-6 21.1-0.6 2.1 2-1.3 5.2-3.2 2.9-3.4-3.9-11.6-4-16.5-0.6q-0.4 0.3-0.8 0.2-0.5 0-0.7-0.4-0.3-0.3-0.3-0.8 0-0.4 0.4-0.7zm82.1 2.2c-12.4-7.3-16.1 3.3-19.5 0.9-3.2-5.3 7.7-7.1 10.8-6.7 2.4-0.8 15.7 5.6 8.7 5.8z"/><path class="s" d="m2203.4 736.7c-0.2-12.2 19-12.2 18.8 0 0.2 12.2-19 12.2-18.8 0zm61.6 0c-0.2-12.2 19-12.2 18.8 0 0.2 12.2-19 12.2-18.8 0z"/><path class="c" d="m2205.6 736.7c-0.2-9.3 14.5-9.3 14.4 0 0.1 9.4-14.6 9.4-14.4 0zm61.6-0.1c-0.1-9.3 14.5-9.3 14.4 0 0.1 9.3-14.5 9.3-14.4 0z"/><path class="h" d="m2213.8 734.3c-1.8-1.7 1-4.5 2.7-2.7 1.8 1.7-1 4.5-2.7 2.7zm61.3 0c-1.7-1.7 1-4.5 2.7-2.7 1.8 1.7-0.9 4.5-2.7 2.7z"/><path class="g" d="m2258.7 775.3c-1.6 5.5-4.4 9.5-7.8 11.8v0.1c-10.3 7.4-23.2 0.3-25.5-11.9q4.1 0.8 8.3 1.1 4.2 0.4 8.4 0.4 4.2 0 8.3-0.4 4.2-0.3 8.3-1.1z"/><path class="h" d="m2255.7 775.7v3.7c-8.8 1.9-17.9 1.5-27.3-0.3v-3.4q3.4 0.5 6.8 0.7 3.4 0.2 6.9 0.2 3.4 0 6.8-0.2 3.4-0.2 6.8-0.7z"/><path class="a" d="m2250.9 787.1v0.1c-1.4 1-2.9 1.8-4.5 2.3-1.6 0.5-3.3 0.7-5 0.7-1.7 0-3.3-0.4-4.9-0.9-1.6-0.6-3.1-1.5-4.4-2.6 3.3-4.6 15.9-4.5 18.8 0.4z"/><path class="i" d="m2205.6 754.9c-0.2-4.5 13.9-4.5 13.7 0 0.2 4.5-13.9 4.5-13.7 0zm64.8 0c-0.2-4.5 13.9-4.5 13.7 0 0.2 4.5-13.9 4.5-13.7 0z"/><path class="c" d="m2309.4 684.6q-0.6 0-1.1 0.1-0.6 0-1.2 0.1-0.5 0-1.1 0-0.5 0-1.1 0l-25.5-32.8c21.7-94.6 127.4 11.1 30 32.6z"/><path class="l" d="m2309.4 684.6c-7.1-14.6-15.4-33.9-7.7-28.6 25.3 18.6 50-15.1 36-32.5 29.6 25.9 0.6 58.8-28.3 61.1z"/><path class="a" d="m2274.8 642.5c0 0-1.9-7.2 7.4-5.1 14.5 3.2 36.2 43.7 30.1 49.9-7.8 7.9-37.5-44.8-37.5-44.8z"/><path class="c" d="m2309.4 729.9c-2.6 16.4-8.2 31.6-17.1 44.9 7.8-20.2 10.1-44.6-1.9-64.3-3 5.7-3.3 13.3-3.6 19.1-30.9-0.9-66.3-32.5-73.9-49.7-22.6 18.1-26.9 37.8-31.7 63.6-42.1-131.1 152-159.8 128.2-13.6z"/><path class="a" d="m2165.9 956.1l-29.9 103-10.1 35h-56.4c9-72.1 25.4-181.1 70.8-218q0.3-0.2 0.6-0.5 0.3-0.2 0.6-0.4 0.3-0.2 0.5-0.4 0.3-0.3 0.6-0.5 0.5-0.3 0.9-0.7 0.1 0 0.2 0 0-0.1 0.1-0.1 0-0.1 0.1-0.1 0.1-0.1 0.1-0.1z"/><path class="t" d="m798.4 747h-434c-2.8 0-5.6-0.5-8.2-1.6-2.7-1.1-5.1-2.7-7.1-4.7-2-2-3.6-4.4-4.6-7-1.1-2.6-1.7-5.5-1.7-8.3 0-2.8 0.6-5.6 1.7-8.3 1-2.6 2.6-5 4.6-7 2-2 4.4-3.6 7.1-4.7 2.6-1.1 5.4-1.6 8.2-1.6h434c2.8 0 5.7 0.5 8.3 1.6 2.6 1.1 5 2.7 7 4.7 2 2 3.6 4.4 4.7 7 1.1 2.7 1.6 5.5 1.6 8.3 0 2.8-0.5 5.7-1.6 8.3-1.1 2.6-2.7 5-4.7 7-2 2-4.4 3.6-7 4.7-2.6 1.1-5.5 1.6-8.3 1.6z"/><path class="u" d="m828.5 544.3c-30.1-7-31.9 38.4-53.1 49.6 0.7-27.4-3-65.6-30.6-78.5-27.5-6.2-39.6 26.7-40.4 48.9-18.4-7.3-24.9-37.1-45.3-38.7-9.7 2.2-10.8 14.2-9 22.5 2.1 27.5 26.1 45.2 53.3 39.1q0.2 11.6 1.7 23.2 1.6 11.5 4.6 22.8 2.9 11.2 7.1 22 4.3 10.9 9.8 21.1l31 1.4c6.4-19 11.3-41.3 15-61 28.1 2.6 91.2-47.5 55.9-72.4z"/><path class="a" d="m709.8 644h60.1v60h-60.1z"/><path class="l" d="m769.9 646.6v57.4c-3.3-22.9-18.4-38.4-60.1-36.9v-20.5z"/><path class="a" d="m705.5 643.1h68.1v11.8h-68.1z"/><path fill-rule="evenodd" class="v" d="m730.8 622.8c0.8 3.4-4.5 4.4-4.7 0.8-0.8-3.4 4.5-4.4 4.7-0.8zm11.2-30.8c-3 0-3-4.7 0-4.7 3 0 3 4.7 0 4.7zm-3.2-39.9c-3 0-3-4.6 0-4.6 3 0 3 4.6 0 4.6zm-26.7 28c-3 0-3-4.7 0-4.7 3 0 3 4.7 0 4.7zm21.6 29.5c0.1-2.5 4.1-4.6 5.3-1.7 1.4 3.4-5.1 6-5.3 1.7zm21.8 9.7c-2.6-2.7 1.9-7.2 3.8-3.4 1.2 2.4-1.5 5.5-3.8 3.4zm8.1-50.8c-3.1 0-3-4.7 0-4.7 3 0 3 4.7 0 4.7zm-44.9 30.5q0.1 0.3 0.1 0.7 0 0.3-0.1 0.6-0.1 0.3-0.2 0.6c-6.1 6.3-6.1-8.8 0-2.5q0.1 0.3 0.2 0.6zm14.9-24.9c-3 0-3-4.7 0-4.7 3.1 0 3 4.7 0 4.7zm-52.2-2.4c-3 0-3-4.7 0-4.7 3 0 3 4.7 0 4.7zm-10.4-30.7c-3 0-3-4.7 0-4.7 3 0 3 4.7 0 4.7zm25.5 33.2c-3.1-3.8 4.8-5.9 5.9-2.3 0.8 3.2-4.1 3.8-5.9 2.3zm-37-14.5c-3.1 0-3.1-4.7 0-4.7 3 0 3 4.7 0 4.7zm64.6-22.7c-3 0-3-4.7 0-4.7 3 0 3 4.7 0 4.7zm21.4 2.5c-1.5-2.8 2.9-5.2 4.2-2.2 1.5 2.9-2.9 5.3-4.2 2.2zm-21.8 20.2c-3 0-3-4.7 0-4.7 3 0 3 4.7 0 4.7zm38.2 22.5c-2.9-3.3 3.6-6 4.7-2.3 0.7 2.7-3 3.9-4.7 2.3zm11.9 21.9q0.1 0.4 0 0.8-0.1 0.4-0.3 0.8-0.3 0.4-0.6 0.6 0 0 0 0 0 0 0 0 0 0 0 0 0 0 0 0 0 0 0 0 0 0 0 0-0.1 0.1-0.2 0.2-0.1 0-0.2 0.1-0.1 0.1-0.2 0.2 0 0.1 0 0.1 0 0 0 0c-6.9 4.9-3.8-8.9 1.3-3.6q0.2 0.3 0.2 0.8zm-1.6 2.9q0 0 0.1-0.1-0.1 0.1-0.1 0.1zm0.7-0.7q0 0 0 0 0 0 0 0 0 0 0 0 0 0 0 0zm27.7-2.5c0 2.3-3.7 3-4.5 0.7-1.1-2.7 2.3-6.9 4.6-3.6 0.6 0.9 0.1 1.9-0.1 2.9zm0-0.1l-0.1 0.4q0.1-0.1 0.1-0.3 0-0.1 0-0.1zm17.1-41.1c-2.6-2.6 1.9-7.1 3.8-3.3 1.2 2.4-1.5 5.4-3.8 3.3zm9.7 10.3c-1.6-2.7 3-6.3 4.5-2.9 1.2 2.7-2.8 5.8-4.5 2.9zm-27.6 6.1c-2.9-3.3 3.6-6 4.7-2.3 0.7 2.7-3 3.9-4.7 2.3zm-60.2 57.7c-3.1 0-2.9-5 0.3-4.7 3.1 0 2.9 5-0.3 4.7zm-25.2 0.2c-1.3-2.8 3.4-5.3 4.6-2.2 1.3 2.7-3.5 5.2-4.6 2.2zm43.6 3.8c-3 0-3-4.7 0-4.7 3 0 3 4.7 0 4.7z"/><path class="w" d="m422.9 551.2c-2.4 3.9-7.4-2.3-6.8-6.5h2.4c-0.2 2.7 1.4 5.4 3.2 5.3q0.2 0 0.4 0.1 0.3 0.1 0.4 0.3 0.2 0.1 0.3 0.3 0.1 0.3 0.1 0.5z"/><path class="n" d="m412.7 569.2h133.1v133.1h-133.1z"/><path class="a" d="m545.8 544.7v24.5h-133.1v-24.5h3.4c-0.6 4.2 4.4 10.4 6.8 6.5q0-0.2-0.1-0.5-0.1-0.2-0.3-0.3-0.1-0.2-0.4-0.3-0.2-0.1-0.4-0.1c-1.8 0.1-3.4-2.6-3.2-5.3z"/><path class="x" d="m418.5 551.2c0-2.9 4.4-2.9 4.4 0 0 2.8-4.4 2.8-4.4 0z"/><path class="n" d="m427.3 544.7h-2.4c-2-11.8-12.1 1.4-2 6.5-2.4 3.9-7.4-2.3-6.8-6.5 0.1-9.3 11.1-9.3 11.2 0z"/><path class="x" d="m429.7 551.2c-0.1-2.9 4.4-2.9 4.3 0 0.1 2.8-4.4 2.8-4.3 0z"/><path class="n" d="m438.4 544.7h-2.4c-0.1-6.1-6.2-6.2-6.3 0-0.2 2.7 1.4 5.4 3.1 5.3 0.3 0 0.6 0.2 0.9 0.4 0.2 0.2 0.3 0.5 0.3 0.8 0 0.3-0.1 0.6-0.3 0.8-0.3 0.3-0.6 0.4-0.9 0.4-14.1-3.2 1.9-26.6 5.6-7.7z"/><path class="x" d="m440.8 551.2c0-2.9 4.4-2.9 4.4 0 0 2.8-4.4 2.8-4.4 0z"/><path class="n" d="m449.6 544.7h-2.4c-2-11.8-12 1.4-2 6.5-2.3 3.9-7.4-2.3-6.8-6.5 0.1-9.3 11.1-9.3 11.2 0z"/><path class="x" d="m452 551.2c0-2.9 4.4-2.9 4.4 0 0 2.8-4.4 2.8-4.4 0z"/><path class="n" d="m460.8 544.7h-2.5c-1.9-11.8-12 1.4-1.9 6.5-2.4 3.9-7.4-2.3-6.8-6.5 0-9.3 11.1-9.3 11.2 0z"/><path class="x" d="m463.2 551.2c-0.1-2.9 4.4-2.9 4.3 0 0.1 2.8-4.4 2.8-4.3 0z"/><path class="n" d="m471.9 544.7h-2.4c-1.9-11.8-12 1.4-2 6.5-2.3 3.9-7.3-2.3-6.7-6.5 0-9.3 11.1-9.3 11.1 0z"/><path class="x" d="m474.3 551.2c0-2.9 4.4-2.9 4.4 0 0 2.8-4.4 2.8-4.4 0z"/><path class="n" d="m483.1 544.7h-2.4c-2-11.8-12.1 1.4-2 6.5-2.4 3.9-7.4-2.3-6.8-6.5 0.1-9.3 11.1-9.3 11.2 0z"/><path class="x" d="m485.5 551.2c-0.1-2.9 4.4-2.9 4.3 0 0.1 2.8-4.4 2.8-4.3 0z"/><path class="n" d="m494.2 544.7h-2.4c-0.1-6.4-6.4-5.9-6.3 0.3 0 2.7 1.4 5 3.1 5 0.4 0 0.6 0.2 0.9 0.4 0.2 0.2 0.3 0.5 0.3 0.8 0 0.3-0.1 0.6-0.3 0.8-0.3 0.3-0.5 0.4-0.9 0.4-14.1-3.2 1.9-26.6 5.6-7.7z"/><path class="x" d="m496.6 551.2c0-2.9 4.4-2.9 4.4 0 0 2.8-4.4 2.8-4.4 0z"/><path class="n" d="m505.4 544.7h-2.4c-2-11.8-12 1.4-2 6.5-2.3 3.9-7.4-2.3-6.8-6.5 0.1-9.3 11.1-9.3 11.2 0z"/><path class="x" d="m507.8 551.2c0-2.9 4.4-2.9 4.4 0 0 2.8-4.4 2.8-4.4 0z"/><path class="n" d="m516.6 544.7h-2.5c-2.2-12.6-11 3.4-3.1 5.3 0.3 0 0.6 0.2 0.8 0.4 0.2 0.2 0.3 0.5 0.3 0.8 0 0.3-0.1 0.6-0.3 0.8-0.2 0.3-0.5 0.4-0.8 0.4-14.1-3.2 1.9-26.6 5.6-7.7z"/><path class="x" d="m519 551.2c-0.1-2.9 4.4-2.9 4.3 0 0.1 2.8-4.4 2.8-4.3 0z"/><path class="n" d="m527.7 544.7h-2.4c-1.9-11.8-12 1.4-2 6.5-2.3 3.9-7.3-2.3-6.7-6.5 0-9.3 11.1-9.3 11.1 0z"/><path class="x" d="m530.1 551.2c0-2.9 4.4-2.9 4.4 0 0 2.8-4.4 2.8-4.4 0z"/><path class="n" d="m538.9 544.7h-2.4c-2-11.8-12.1 1.4-2 6.5-2.3 3.9-7.4-2.3-6.8-6.5 0.1-9.3 11.1-9.3 11.2 0z"/><path class="a" d="m424.7 585.1h9.9v9.8h-9.9zm20 0h9.8v9.9h-9.8zm19.9 0h9.8v9.8h-9.8zm19.9 0h9.9v9.9h-9.9zm19.9 0h9.9v9.9h-9.9zm20 0h9.8v9.8h-9.8zm-99.7 18.8h9.9v9.9h-9.9zm20 0h9.8v9.9h-9.8zm19.9 0h9.8v9.8h-9.8zm19.9 0h9.9v9.9h-9.9zm19.9 0h9.9v9.8h-9.9zm20 0h9.8v9.9h-9.8zm-99.7 18.8h9.9v9.9h-9.9zm20 0h9.8v9.8h-9.8zm19.9 0h9.8v9.9h-9.8zm19.9 0h9.9v9.8h-9.9zm19.9 0h9.9v9.9h-9.9zm20 0h9.8v9.8h-9.8zm-99.7 18.8h9.9v9.9h-9.9zm20 0h9.8v9.9h-9.8zm19.9 0h9.8v9.8h-9.8zm19.9 0h9.9v9.9h-9.9zm19.9 0h9.9v9.9h-9.9zm20 0h9.8v9.8h-9.8z"/><path class="y" d="m529.3 1398.6l13.4-9.7 13.5 18.6-13.4 9.7z"/><path class="y" d="m643.7 1406.6l13.5-18.7 13.3 9.7-13.5 18.6z"/><path fill-rule="evenodd" class="y" d="m668.3 1576.5c22.7 9.4-8.2 34.4-12.7 10.3q-14.4-15-28.8-29.9l18.2-14.8q11.7 17.2 23.3 34.4zm-109.8-34.4q9.2 7.4 18.3 14.8-14.4 14.9-28.8 29.9c-4.5 24.1-35.4-0.9-12.7-10.3q11.6-17.2 23.2-34.4z"/><path class="l" d="m558.5 1542.1q-1.5 2.3-3 4.5l14.9 12.1q-14.4 15-28.8 29.9 0 1.2-0.4 2.4-0.3 1.2-0.8 2.3-0.6 1.1-1.4 2-0.9 0.9-1.9 1.6c5.5 0.5 11-4.6 10.9-10.1q14.4-15 28.8-29.9z"/><path class="z" d="m694.3 1485c-2.2 124.4-187.2 124.4-189.3 0 2.1-124.4 187.1-124.4 189.3 0z"/><path class="l" d="m622.9 1393.2c114.7 37.3 67 210.3-51.5 182.1 123.3 35.5 174.1-148.5 51.5-182.1z"/><path class="h" d="m682.5 1485c-1.9 108.9-163.9 108.9-165.8 0 1.9-109 164-109 165.8 0z"/><path fill-rule="evenodd" class="l" d="m599.6 1567.9c-108.9-1.9-109-164 0-165.8 109 1.8 109 163.9 0 165.8zm0-161.7c-103.5 1.8-103.5 155.8 0 157.5 103.5-1.7 103.5-155.7 0-157.5z"/><path fill-rule="evenodd" class="z" d="m605.6 1555.7c0.1-7.8-12.1-7.8-12 0-0.1 7.7 12.1 7.7 12 0zm44.8-21.4c0.1-4.6-7-4.6-7 0 0 4.5 7.1 4.5 7 0zm-100.1 1.5c4.5 0 4.5-7.1 0-7-4.5-0.1-4.5 7 0 7zm-1.5-100.1c0 4.5 7.1 4.5 7 0 0.1-4.5-7-4.5-7 0zm100.1-1.5c-4.5-0.1-4.5 7 0 7 4.5 0 4.5-7.1 0-7zm-120 56.8c7.8 0.1 7.8-12.1 0-12-7.7-0.1-7.7 12.1 0 12zm64.7-76.7c-0.1 7.7 12.1 7.7 12 0 0.1-7.8-12.1-7.8-12 0zm76.7 64.7c-7.7-0.1-7.7 12.1 0 12 7.8 0.1 7.8-12.1 0-12z"/><path class="l" d="m630.1 1503c-1.7-2.8-2.3-4.4-4.8-2.8l-18.3-11.5q0.2-0.9 0.1-1.8-0.1-0.9-0.6-1.8-0.5-0.8-1.2-1.4-0.8-0.5-1.7-0.8l-0.6-47.8c4-2.1-1.6-6.5-1.9-10.5-0.2 4-5.7 8.5-1.6 10.5l0.7 48.1q-0.2 0.1-0.3 0.1-0.1 0.1-0.3 0.2-0.1 0.1-0.2 0.2-0.1 0.1-0.2 0.2l-4.8-3-1.8 3 4.9 3q-0.1 0.8 0.1 1.5 0.1 0.8 0.5 1.5 0.4 0.7 0.9 1.2 0.6 0.5 1.3 0.8l0.1 7.3 3.5-0.1-0.1-7q0.1 0 0.3-0.1 0.1 0 0.3-0.1 0.1-0.1 0.3-0.2 0.1 0 0.3-0.1l18.5 11.5c-0.4 4.6 6.3 2.2 9.9 4.1q-0.5-0.5-0.9-1-0.4-0.5-0.9-1-0.4-0.6-0.8-1.1-0.4-0.6-0.7-1.1z"/><path class="z" d="m601.9 1496.3l-0.4-64c4-2.1-1.5-6.5-1.8-10.6-0.3 4.1-5.8 8.5-1.7 10.6l0.4 64z"/><path class="z" d="m628.1 1500.3c-1.7-2.7-2.3-4.3-4.7-2.8l-30.8-19.5-1.8 3 30.7 19.4c-0.4 4.6 6.3 2.2 9.9 4.2q-0.5-0.5-0.9-1-0.4-0.5-0.9-1.1-0.4-0.5-0.8-1.1-0.3-0.5-0.7-1.1z"/><path class="y" d="m605.3 1484.7c0 6.3-9.8 6.2-9.7 0-0.1-6.3 9.8-6.2 9.7 0z"/><path class="z" d="m559.1 1390.8l-37.1 21.4c-1.6 1-3.5 1.6-5.4 1.8-1.8 0.3-3.8 0.1-5.6-0.3-1.8-0.5-3.6-1.4-5.1-2.5-1.5-1.2-2.8-2.6-3.7-4.3-1-1.6-1.6-3.5-1.8-5.3-0.3-1.9-0.1-3.8 0.4-5.7 0.4-1.8 1.3-3.5 2.5-5.1 1.1-1.5 2.6-2.7 4.2-3.7l37.1-21.4c1.6-1 3.5-1.6 5.3-1.8 1.9-0.3 3.9-0.1 5.7 0.4 1.8 0.4 3.6 1.3 5.1 2.4 1.5 1.2 2.7 2.6 3.7 4.3 1 1.6 1.6 3.5 1.8 5.4 0.3 1.8 0.1 3.8-0.4 5.6-0.5 1.8-1.3 3.6-2.5 5.1-1.1 1.5-2.6 2.8-4.2 3.7z"/><path class="l" d="m565.5 1373c-2.4-5.4-7-10.6-13.2-10.1 9 4.6 13.8 19.9 3.3 25.7-3.2 1.3-43.9 27-46.7 25.3 8.4 6.3 44.6-21.7 52.2-24.2 1.3-0.8 2.6-1.9 3.5-3.2 1-1.3 1.7-2.7 2.1-4.3 0.5-1.5 0.6-3.1 0.4-4.7-0.2-1.6-0.8-3.2-1.6-4.5z"/><path class="z" d="m640.1 1390.8l37.1 21.4c1.7 1 3.5 1.6 5.4 1.8 1.9 0.3 3.8 0.2 5.6-0.3 1.9-0.5 3.6-1.4 5.1-2.5 1.5-1.2 2.8-2.6 3.7-4.3 1-1.6 1.6-3.5 1.8-5.3 0.3-1.9 0.2-3.8-0.3-5.7-0.5-1.8-1.4-3.6-2.5-5.1-1.2-1.5-2.6-2.7-4.3-3.7l-37.1-21.4c-1.6-1-3.4-1.6-5.3-1.8-1.9-0.3-3.8-0.1-5.7 0.4-1.8 0.4-3.5 1.3-5 2.4-1.6 1.2-2.8 2.6-3.8 4.3-0.9 1.6-1.5 3.5-1.8 5.4-0.2 1.8-0.1 3.8 0.4 5.6 0.5 1.8 1.3 3.6 2.5 5.1 1.1 1.5 2.6 2.8 4.2 3.7z"/><path class="l" d="m693.7 1388.2c-7.9-2.6-43.5-30.4-52.2-24.2 2.5-1.7 43.6 24.1 46.7 25.3 10.4 5.8 5.7 21.1-3.4 25.7 12.6 0.5 21.1-20.1 8.9-26.8z"/><path class="a" d="m2043.9 1373.7h37v217.8h-37z"/><path class="d" d="m2080.9 1398.6h36.9v192.9h-36.9z"/><path class="u" d="m2117.8 1414.8h37v176.7h-37z"/><path class="d" d="m2154.8 1431.7l33.3-16.1 77.1 159-33.3 16.1z"/><path class="u" d="m2478.4 1453.8c-15.2-59.2-99.1-74.7-134.3-24.5-26.5 34.1-17.2 87.7 19.2 110.9h87.9c25.2-17.8 35.5-56.6 27.2-86.4z"/><path class="a" d="m2464.1 1528.1v57.1c-0.2 9.9-11.9 8.8-19 9.9-12.5 0.4-97.7 8.4-96.9-10.8v-56.2c38.8 4.4 78.1 5 115.9 0z"/><path class="l" d="m2464.1 1528.1v57.1c-0.2 9.9-11.9 8.8-19 9.9-0.1-41.4-55.6-49.7-96.9-48v-11.5c0 0 5-2.5 12.5-6.2 35 3.2 69.5 3.2 103.4-1.3z"/><path fill-rule="evenodd" class="a" d="m2471.9 1535.3q0.5-0.2 1-0.6 0.4-0.5 0.7-1.1 0.2-0.5 0.2-1.2c-0.4-2.7 1.7-10.8-3.1-10.6h-128.4q-0.6 0-1.2 0.2-0.6 0.3-1 0.7-0.5 0.4-0.7 1-0.2 0.6-0.2 1.2c0.4 2.7-1.7 10.8 3.1 10.7h128.4q0.6 0 1.2-0.3zm-35.5-149.2c-1.8-3.1-6.4-4.2-9.2-2.4 7.2-7.8-4.7-16.2-9.6-5.8 5-19.8-17.2-25.9-18.7-4-7.6-8.9-15.7 2-11.9 11-12.1-10-17.6 12.4-6.6 18 16.4 1.6 64 11.4 56-16.8zm-9.2-2.4q-0.6 0.6-1.3 1.2 0.5-0.8 1.3-1.2z"/><path fill-rule="evenodd" class="A" d="m2347 1462.1c-1.5-3.3 4.1-5.8 5.2-2.2 0.8 2.9-3.9 5.3-5.2 2.2zm11.4-15.7c-3.1 0-3.1-4.9 0-4.9 3.2 0 3.2 4.9 0 4.9zm21.3-23c-3.2 0-3.2-4.9 0-4.9 3.1 0 3.1 4.9 0 4.9zm-5.8 62c-3.1 0-3.1-4.9 0-4.9 3.2 0 3.2 4.9 0 4.9zm23.5-29.4c-3.2-3.8 4.7-6.2 5.9-2.4 0.8 3.2-3.9 4-5.9 2.4zm-57.3 35c-2.8-2.9 3.1-6.7 5-3.6 1.6 2.7-3 5.6-5 3.6zm23 19.8c-1.6-3.3 4-5.8 5.2-2.1 0.7 2.8-3.9 5.3-5.2 2.1zm49.3-10.3c-1.5-3 3.1-5.7 4.5-2.5 1.5 3-3 5.8-4.5 2.5zm-32.7-40.9c-3.2 0-3.2-4.9 0-4.9 3.1 0 3.1 4.9 0 4.9zm-19.5-32.2c-3.2 0-3.2-4.9 0-4.9 3.1 0 3.1 4.9 0 4.9zm65.6-11c-3-3.3 3.4-6.3 4.6-2.4 0.8 2.6-2.9 4.1-4.6 2.4zm-37 22.9c-2.9-3.2 3.5-6.2 4.7-2.3 0.8 2.6-2.9 4.1-4.7 2.3zm8.1 44.9c-3.2 0-3.2-4.9 0-4.9 3.1 0 3.1 4.9 0 4.9zm5.9 24.7q0 0.4-0.2 0.8-0.2 0.4-0.5 0.7-0.3 0.3-0.7 0.5 0 0 0 0 0 0 0 0.1 0 0 0 0-0.1 0-0.1 0.1 0-0.1 0-0.1 0 0 0.1 0 0 0 0 0 0 0 0-0.1c-1.2 2.7-5.4 1.2-4.6-1.7 0.6-2.6 4.8-4.3 5.9-1.1q0.1 0.4 0.1 0.8zm51.5-38.4c-3.2 0-3.2-4.9 0-4.9 3.1 0 3.1 4.9 0 4.9zm-5.1 32.3c-1.6-3 3-5.7 4.4-2.5 1.6 3-3 5.8-4.4 2.5zm-24.2-26.7c-3.1-3.6 4.1-6.3 5.2-2.4 0.8 2.9-3.4 4-5.2 2.4zm6.9 31.3c-1.3-2.9 3.8-5.8 5.1-2.5 1.3 2.9-3.8 5.8-5.1 2.5zm37.8-23.2c-3.1 0-3.1-4.9 0-4.9 3.2 0 3.2 4.9 0 4.9zm-24-43.6c-3.2 0-3.2-4.9 0-4.9 3.1 0 3.1 4.9 0 4.9zm-24.1 5.2c-3.2 0-3.2-4.9 0-4.9 3.1 0 3.1 4.9 0 4.9zm25.8 41.9c-3.2 0-3.2-4.9 0-4.9 3.1 0 3.1 4.9 0 4.9zm-44.8-58.7c-2.9-3.2 3.5-6.2 4.7-2.4 0.7 2.7-2.9 4.2-4.7 2.4zm33.3-5c-3.2 0-3.2-4.9 0-4.9 3.2 0 3.2 4.9 0 4.9zm-36.8-5.5c-3.1 0-3.1-4.9 0-4.9 3.2 0 3.2 4.9 0 4.9zm68.9 37c-3.1 0-3.1-4.9 0-4.9 3.2 0 3.2 4.9 0 4.9zm-109.6 42.5c-3.1 0-3.1-4.9 0-4.9 3.2 0 3.2 4.9 0 4.9zm-11.4 15.1c-1.3-2.9 3.8-5.7 5.1-2.4 1.3 2.9-3.8 5.7-5.1 2.4zm-7.5-44.4c-3.1 0-3.1-4.9 0-4.9 3.2 0 3.2 4.9 0 4.9z"/><path class="t" d="m2629 1646.4h-2258c-15.6 0-28.2-12.3-28.2-27.4 0-15.2 12.6-27.5 28.2-27.5h2258c15.6 0 28.2 12.3 28.2 27.5 0 15.1-12.6 27.4-28.2 27.4z"/><path class="b" d="m1697.4 367.2h-251c-6.1 0-12.2 1.2-17.9 3.5-5.6 2.4-10.8 5.8-15.1 10.1-4.3 4.4-7.8 9.5-10.1 15.2-2.3 5.6-3.5 11.7-3.5 17.8v123.8c0 6.2 1.2 12.2 3.5 17.9 2.3 5.6 5.8 10.8 10.1 15.1 4.3 4.3 9.5 7.8 15.1 10.1 5.7 2.4 11.8 3.6 17.9 3.6v36.7l45.3-36.7h205.7c6.1 0 12.1-1.2 17.8-3.6 5.7-2.3 10.8-5.8 15.1-10.1 4.4-4.3 7.8-9.5 10.1-15.1 2.4-5.7 3.6-11.7 3.6-17.9v-123.8c0-6.1-1.2-12.2-3.6-17.8-2.3-5.7-5.7-10.8-10.1-15.2-4.3-4.3-9.4-7.7-15.1-10.1-5.7-2.3-11.7-3.5-17.8-3.5z"/><path class="d" d="m1674.8 353.6h-251c-6.1 0-12.2 1.2-17.8 3.6-5.7 2.3-10.8 5.8-15.1 10.1-4.4 4.3-7.8 9.5-10.2 15.1-2.3 5.7-3.5 11.7-3.5 17.9v123.8c0 6.1 1.2 12.2 3.5 17.8 2.4 5.7 5.8 10.8 10.2 15.2 4.3 4.3 9.4 7.7 15.1 10.1 5.6 2.3 11.7 3.5 17.8 3.5v36.8l45.3-36.8h205.7c6.1 0 12.2-1.2 17.9-3.5 5.6-2.4 10.8-5.8 15.1-10.1 4.3-4.4 7.7-9.5 10.1-15.2 2.3-5.6 3.5-11.7 3.5-17.8v-123.8c0-6.2-1.2-12.2-3.5-17.9-2.4-5.6-5.8-10.8-10.1-15.1-4.3-4.3-9.5-7.8-15.1-10.1-5.7-2.4-11.8-3.6-17.9-3.6z"/><path class="h" d="m1413.6 454.8c0-5 3-9.5 7.6-11.4 4.6-1.9 9.9-0.9 13.5 2.7 3.5 3.5 4.6 8.8 2.7 13.5-2 4.6-6.5 7.6-11.5 7.6-1.6 0-3.2-0.3-4.7-1-1.5-0.6-2.9-1.5-4-2.6-1.2-1.2-2.1-2.5-2.7-4-0.6-1.5-0.9-3.2-0.9-4.8zm39.5 0c0-5 3-9.5 7.7-11.4 4.6-1.9 9.9-0.9 13.4 2.7 3.6 3.5 4.6 8.8 2.7 13.5-1.9 4.6-6.4 7.6-11.4 7.6-1.6 0-3.2-0.3-4.7-1-1.5-0.6-2.9-1.5-4-2.6-1.2-1.2-2.1-2.5-2.7-4-0.6-1.5-1-3.2-1-4.8zm39.6 0c0-5 3-9.5 7.6-11.4 4.7-1.9 10-0.9 13.5 2.7 3.6 3.5 4.6 8.8 2.7 13.5-1.9 4.6-6.4 7.6-11.4 7.6-1.6 0-3.3-0.3-4.8-1-1.5-0.6-2.8-1.5-4-2.6-1.1-1.2-2-2.5-2.6-4-0.7-1.5-1-3.2-1-4.8zm39.6 0c0-5 3-9.5 7.6-11.4 4.6-1.9 10-0.9 13.5 2.7 3.5 3.5 4.6 8.8 2.7 13.5-1.9 4.6-6.4 7.6-11.4 7.6-1.7 0-3.3-0.3-4.8-1-1.5-0.6-2.8-1.5-4-2.6-1.1-1.2-2-2.5-2.7-4-0.6-1.5-0.9-3.2-0.9-4.8zm39.6 0c0-5 3-9.5 7.6-11.4 4.6-1.9 9.9-0.9 13.5 2.7 3.5 3.5 4.6 8.8 2.7 13.5-2 4.6-6.5 7.6-11.5 7.6-1.6 0-3.2-0.3-4.7-1-1.5-0.6-2.9-1.5-4-2.6-1.2-1.2-2.1-2.5-2.7-4-0.6-1.5-0.9-3.2-0.9-4.8zm39.6 0c-0.1-5 3-9.5 7.6-11.4 4.6-1.9 9.9-0.9 13.5 2.7 3.5 3.5 4.6 8.8 2.6 13.5-1.9 4.6-6.4 7.6-11.4 7.6-1.6 0-3.2-0.3-4.7-1-1.5-0.6-2.9-1.5-4-2.6-1.2-1.2-2.1-2.5-2.7-4-0.6-1.5-1-3.2-0.9-4.8zm39.5 0c0-5 3-9.5 7.7-11.4 4.6-1.9 9.9-0.9 13.4 2.7 3.6 3.5 4.6 8.8 2.7 13.5-1.9 4.6-6.4 7.6-11.4 7.6-1.6 0-3.2-0.3-4.7-1-1.5-0.6-2.9-1.5-4.1-2.6-1.1-1.2-2-2.5-2.6-4-0.7-1.5-1-3.2-1-4.8z"/><path class="b" d="m1816.4 646h208.7c5.1 0 10.2 1 14.9 2.9 4.7 2 8.9 4.8 12.5 8.4 3.6 3.6 6.5 7.9 8.5 12.6 1.9 4.7 2.9 9.7 2.9 14.8v103c0 5.1-1 10.2-2.9 14.9-2 4.7-4.9 8.9-8.5 12.5-3.6 3.6-7.8 6.5-12.5 8.4-4.7 2-9.8 3-14.9 3v30.6l-37.7-30.6h-171c-5.1 0-10.2-1-14.9-3-4.7-1.9-8.9-4.8-12.5-8.4-3.6-3.6-6.5-7.8-8.4-12.5-2-4.7-3-9.8-3-14.9v-103c0-5.1 1-10.1 3-14.8 1.9-4.7 4.8-9 8.4-12.6 3.6-3.6 7.8-6.4 12.5-8.4 4.7-1.9 9.8-2.9 14.9-2.9z"/><path class="a" d="m1804.6 633.3h208.7c5.1 0 10.1 1 14.8 3 4.7 1.9 9 4.8 12.6 8.4 3.6 3.6 6.5 7.9 8.4 12.6 2 4.7 3 9.7 3 14.8v103c0 5.1-1 10.1-3 14.8-1.9 4.7-4.8 9-8.4 12.6-3.6 3.6-7.9 6.5-12.6 8.4-4.7 2-9.7 3-14.8 3v30.5l-37.7-30.5h-171c-5.1 0-10.2-1-14.9-3-4.7-1.9-9-4.8-12.6-8.4-3.6-3.6-6.4-7.9-8.4-12.6-1.9-4.7-2.9-9.7-2.9-14.8v-103c0-5.1 1-10.1 2.9-14.8 2-4.7 4.8-9 8.4-12.6 3.6-3.6 7.9-6.5 12.6-8.4 4.7-2 9.8-3 14.9-3z"/><path class="h" d="m1923.7 747.5h-25c-1.7-25.8 18.4-24.1 24-39.8-0.8-12.8-20.6-9.3-20.3 6.3l-25.6-3.2c1.8-48.4 89.6-37 69.7 7.2-4.1 8.7-24.6 16.9-22.8 29.5zm-25.9 6.6h26.8v23.6h-26.8z"/></svg>