<svg width="566" height="455" viewBox="0 0 566 455" fill="none" xmlns="http://www.w3.org/2000/svg">
<g filter="url(#filter0_i_131_36)">
<path d="M0 0V454.5H152.5C137.245 403.671 168.499 348.455 228.5 346.5C270.043 345.146 321.5 385 304.5 454.5H459.5V306C517 319.5 566 280 566 226C562 172 515 132.5 459.5 148V0H0Z" fill="#8446CB"/>
</g>
<path d="M458.5 306V453.5H305.768C313.838 419.038 305.174 391.795 289.211 373.277C273.087 354.573 249.549 344.814 228.467 345.501C168.227 347.464 136.655 402.488 151.166 453.5H1V1H458.5V148V149.318L459.769 148.963C514.566 133.659 561.022 172.598 565 226.037C564.978 279.342 516.619 318.383 459.729 305.026L458.5 304.738V306Z" stroke="white" stroke-width="2"/>
<mask id="mask0_131_36" style="mask-type:alpha" maskUnits="userSpaceOnUse" x="2" y="236" width="455" height="216">
<path d="M2 451.827H98.3941C98.3941 401.327 132.357 372.827 172.313 365.827C193.323 347.381 216.265 341.327 241.737 344.827C272.703 349.827 295.178 371.327 305.666 399.327C330.127 415.62 343.84 427.25 368.906 451.827H457V378.827L452.005 383.827C385.578 319.327 354.837 284.321 310.161 261.327C238.234 230.738 202.781 229.278 146.841 249.327C102.39 269.327 77.7072 289.906 43.9539 332.827C14.3509 377.242 4.58668 403.211 2 451.827Z" fill="#D9D9D9"/>
</mask>
<g mask="url(#mask0_131_36)">
<g filter="url(#filter1_dd_131_36)">
<path fill-rule="evenodd" clip-rule="evenodd" d="M896.224 465.498C896.319 582.15 788.237 669.973 667.799 648.694C613.483 633.375 592.357 617.195 567.824 595.083C543.292 572.972 531.051 557.686 501.116 529.632L450.699 482.876L380.702 557.807C354.011 584.466 334.292 599.536 307.544 619.128C287.874 631.056 255.922 651.767 206.282 651.14C94.5355 649.73 24.6049 581.036 12.2284 462.81L12.2215 454.302C17.4076 345.296 79.7816 267.41 199.41 258.453C236.063 258.315 263.583 266.75 296.251 282.198C324.431 298.123 356.735 325.623 382.897 352.749L450.655 428.421L470.317 406.469L500.989 372.224C522.394 344.559 535.192 336.12 567.059 307.505C597.337 284.507 653.949 255.44 690.603 255.502C812.206 247.31 892.283 325.278 896.211 449.332L896.224 465.498ZM474.294 457.596L556.222 534.693C572.765 549.995 587.733 564.447 606.636 578.046C627.116 595.046 683.693 616.371 705.851 616.254C783.195 616.191 861.644 533.576 861.589 465.526L861.576 449.36C864.02 360.591 781.928 271.662 683.551 296.349C636.937 302.777 568.654 346.598 544.289 378.995L474.294 457.596ZM425.488 456.518L342.758 361.291C329.748 344.618 303.453 327.25 283.686 317.945C263.919 308.639 232.622 300.019 210.464 300.136C123.666 292.15 45.2208 377.698 50.7929 454.271L50.7997 462.779C50.4361 549.992 133.278 626.827 219.001 610.692C263.131 602.387 309.082 574.032 340.543 542.525L414.555 467.588L425.488 456.518Z" fill="url(#paint0_linear_131_36)"/>
</g>
<path d="M231.774 236.929C110.046 221.619 -2.65095 352.882 1.62988 458.84L44.7528 460.355C41.2078 384.404 124.442 259.492 231.774 267.362C282.991 271.117 349.795 320.604 405.779 384.981C411.376 390.847 416.71 396.482 422.423 402.4L434.528 414.253C497.051 475.303 550.279 554.633 670.373 580.383C785.564 600.075 851.229 549.585 851.229 441.42L805.837 442.935C804.019 529.185 769.006 560.096 670.57 546.302C604.212 537.002 517.748 451.629 466.303 399.371L452.685 384.981C447.143 379.241 442.984 375.731 437.554 370.041C368.708 303.941 337.69 255.106 231.774 236.929Z" fill="url(#paint1_linear_131_36)"/>
<path d="M231.768 242.987C110.04 227.677 1.88507 353.639 6.1659 459.597L53.8269 458.082C50.2819 382.131 124.435 267.065 231.768 274.935C282.985 278.69 349.788 328.177 405.773 392.554C411.37 398.42 416.704 404.055 422.417 409.973L434.521 421.826C497.045 482.876 550.273 562.206 670.367 587.957C785.558 607.648 864.089 550.342 864.089 442.177L814.157 442.177C815.641 537.234 768.61 567.731 670.563 553.875C604.217 544.498 517.741 459.203 466.296 406.944L452.678 392.554C447.137 386.814 442.978 383.304 437.548 377.614C368.702 311.514 337.684 261.164 231.768 242.987Z" fill="url(#paint2_linear_131_36)"/>
<path d="M231.775 249.804C110.047 234.494 9.45446 354.396 13.7353 460.354L53.076 458.082C49.531 382.132 124.443 274.639 231.775 282.509C282.992 286.264 349.796 335.751 405.78 400.128C411.377 405.994 416.711 411.629 422.424 417.547L434.529 429.401C497.052 490.45 550.28 569.78 670.374 595.531C785.566 615.222 861.823 551.857 861.823 443.692L820.969 442.177C822.453 537.235 768.617 575.306 670.571 561.449C604.224 552.072 517.749 466.777 466.304 414.518L452.686 400.128C447.145 394.389 442.985 390.878 437.555 385.188C368.71 319.089 337.691 267.981 231.775 249.804Z" fill="url(#paint3_linear_131_36)"/>
<path d="M231.772 256.62C110.044 241.311 13.9897 352.882 18.2705 458.84H54.6853C51.1402 382.889 124.44 282.213 231.772 290.083C282.989 293.838 349.793 343.325 405.777 407.702C411.374 413.568 416.708 419.203 422.421 425.121L434.526 436.974C497.049 498.024 550.277 577.354 670.371 603.104C785.562 622.796 873.923 550.342 873.923 442.177L829.287 442.177C830.771 537.235 768.614 582.879 670.568 569.023C604.221 559.646 517.746 474.35 466.301 422.092L452.683 407.702C447.141 401.962 442.982 398.452 437.552 392.762C368.706 326.662 337.688 274.797 231.772 256.62Z" fill="url(#paint4_linear_131_36)"/>
<path d="M231.775 339.311C110.047 324.001 35.9322 372.573 40.2131 478.531L98.4683 458.082C94.9233 382.131 163.047 350.927 239.186 368.712C290.476 380.692 349.795 426.635 405.78 491.012C411.377 496.878 416.711 502.513 422.424 508.432L434.528 520.285C497.052 581.334 550.476 639.852 670.57 665.603C785.761 685.295 912.51 551.099 912.51 442.934L873.17 442.177C874.654 537.234 768.617 656.738 670.57 642.882C604.224 633.505 517.748 557.661 466.303 505.402L452.685 491.012C447.144 485.273 442.985 481.763 437.555 476.072C368.709 409.973 337.691 357.488 231.775 339.311Z" fill="url(#paint5_linear_131_36)"/>
<path d="M233.284 329.329C111.556 314.019 32.9051 373.194 37.186 479.152L93.9259 458.083C90.3808 382.132 154.295 339.657 236.913 361.001C286.638 373.847 351.305 416.653 407.29 481.03C412.887 486.896 418.221 492.531 423.934 498.449L436.038 510.303C498.562 571.352 551.986 636.066 672.08 661.817C787.271 681.508 906.455 550.342 906.455 442.178H864.088C865.572 537.235 775.907 641.806 677.86 627.949C611.513 618.573 519.258 547.679 467.813 495.42L454.195 481.03C448.654 475.291 444.495 471.78 439.065 466.09C370.219 399.991 339.201 347.506 233.284 329.329Z" fill="url(#paint6_linear_131_36)"/>
<path d="M231.773 323.802C110.046 308.492 28.3681 366.152 32.6489 472.11L89.2705 458.297C85.7254 382.346 149.001 337.885 233.132 354.322C283.535 364.17 349.794 411.126 405.779 475.502C411.376 481.369 416.71 487.004 422.423 492.922L434.527 504.775C497.051 565.824 554.86 630.764 674.954 656.515C790.145 676.206 900.388 551.099 900.388 442.935L867.116 442.935C868.6 537.992 773.001 639.534 674.954 625.677C608.608 616.3 517.747 542.151 466.302 489.893L452.685 475.502C447.143 469.763 442.984 466.253 437.554 460.563C368.708 394.463 337.69 341.979 231.773 323.802Z" fill="url(#paint7_linear_131_36)"/>
<path d="M231.409 318.092C109.49 302.873 36.0174 366.966 40.3049 472.294L84.7335 458.297C81.1829 382.798 143.198 329.865 236.556 348.07C287.027 357.913 349.614 404.897 405.686 468.891C411.291 474.722 416.634 480.324 422.356 486.207L434.479 497.99C497.1 558.676 550.608 621.363 670.89 646.961C786.261 666.535 895.749 549.914 895.749 442.392L871.53 441.427C873.017 535.919 769.09 620.303 670.89 606.528C604.44 597.207 517.829 535.144 466.304 483.196L452.665 468.891C447.115 463.186 442.949 459.697 437.51 454.04C368.557 388.334 337.49 336.161 231.409 318.092Z" fill="url(#paint8_linear_131_36)"/>
<path d="M231.78 309.017C110.052 293.707 34.4211 355.911 38.7019 461.869L80.3106 458.082C76.7656 382.132 139.321 323.27 234.646 336.145C285.539 343.019 349.801 396.341 405.785 460.718C411.382 466.584 416.716 472.219 422.429 478.138L434.534 489.991C497.057 551.04 554.86 615.617 674.955 641.367C790.146 661.059 892.083 550.342 892.083 442.177L861.064 442.935C862.549 537.992 769.218 628.716 671.172 614.859C604.825 605.482 517.754 527.367 466.309 475.108L452.691 460.718C447.149 454.979 442.99 451.469 437.56 445.778C368.714 379.679 337.696 327.194 231.78 309.017Z" fill="url(#paint9_linear_131_36)"/>
<path d="M231.779 295.384C110.051 280.074 27.6108 358.94 31.8916 464.898L77.2847 458.082C73.7396 382.132 136.135 308.741 238.429 325.541C289.105 333.864 349.8 382.708 405.785 447.085C411.382 452.951 416.716 458.586 422.429 464.504L434.533 476.358C497.057 537.407 550.481 606.528 670.575 632.279C785.766 651.97 888.939 551.314 888.939 443.149L851.23 442.177C852.714 537.235 768.622 622.263 670.575 608.406C604.229 599.029 517.753 513.734 466.308 461.475L452.69 447.085C447.149 441.346 442.99 437.835 437.559 432.145C368.714 366.046 337.696 313.561 231.779 295.384Z" fill="url(#paint10_linear_131_36)"/>
<path d="M231.785 263.575C110.057 248.265 17.7763 352.882 22.0571 458.84H64.3042C60.7591 382.89 124.453 289.787 231.785 297.657C283.002 301.412 349.806 350.899 405.79 415.276C411.387 421.142 416.721 426.777 422.434 432.696L434.539 444.549C497.062 505.598 550.29 584.928 670.384 610.679C785.575 630.37 875.438 551.1 875.438 442.935L835.341 442.178C836.825 537.235 768.627 590.454 670.581 576.597C604.234 567.22 517.759 481.925 466.314 429.666L452.696 415.276C447.154 409.537 442.995 406.027 437.565 400.336C368.719 334.237 337.701 281.752 231.785 263.575Z" fill="url(#paint11_linear_131_36)"/>
<path d="M231.776 274.562C110.048 259.252 25.4977 352.646 29.7785 458.604H66.6937C63.1487 382.654 124.444 300.774 231.776 308.644C282.993 312.399 349.797 361.886 405.781 426.263C411.378 432.129 416.712 437.764 422.425 443.682L434.53 455.536C497.053 516.585 550.281 595.915 670.375 621.666C785.566 641.357 878.348 550.557 878.348 442.392L843.064 437.623C844.548 532.681 768.943 598.899 670.572 587.584C594.586 578.844 507.738 493.599 466.305 440.653L452.687 426.263C447.145 420.524 442.986 417.013 437.556 411.323C368.71 345.224 337.692 292.739 231.776 274.562Z" fill="url(#paint12_linear_131_36)"/>
<path d="M213.463 668.632C93.1727 676.205 10.4177 560.833 1.63086 458.839H55.3455C65.1806 540.636 120.408 623.947 213.463 608.8C264.152 600.549 342.076 594.794 398.06 530.417C403.657 524.551 408.991 518.916 414.704 512.997L426.809 501.144C489.332 440.095 545.026 335.387 665.12 309.636C777.483 294.279 870.03 339.197 873.17 442.934L805.838 442.934C791.839 351.38 742.156 338.296 665.12 349.019C601.816 357.831 502.345 453.753 450.9 506.011L433.5 522.674C427.958 528.413 422.404 532.673 416.974 538.364C348.128 604.463 319.38 650.455 213.463 668.632Z" fill="url(#paint13_linear_131_36)"/>
<path d="M213.459 661.816C93.1686 669.39 14.9529 560.834 6.16602 458.84H66.6896C76.5247 540.636 131.752 645.154 224.807 630.007C275.496 621.756 342.072 588.736 398.056 524.359C403.653 518.493 408.987 512.858 414.7 506.939L426.805 495.086C489.328 434.037 542.556 339.174 662.65 313.424C775.013 298.066 873.052 339.198 876.192 442.935L814.156 442.935C799.548 348.011 743.679 330.3 662.65 342.961C600.352 352.695 504.729 445.207 453.284 497.466L434.37 515.643C428.829 521.382 423.157 525.1 417.726 530.79C348.881 596.89 319.375 643.639 213.459 661.816Z" fill="url(#paint14_linear_131_36)"/>
<path d="M230.859 595.925C110.568 603.499 48.24 560.834 39.4531 458.84C62.5874 459.38 75.4638 459.182 98.4636 458.083C108.299 539.879 173.361 562.975 252.042 542.909C301.807 530.218 363.136 481.018 419.12 416.641C424.717 410.775 432.439 403.411 438.152 397.493L453.283 382.345C515.806 321.296 563.738 241.473 679.49 230.87C791.853 215.512 909.365 339.199 912.505 442.936L855.765 442.936C849.19 348.145 780.624 260.48 690.838 274.04C624.583 284.047 528.181 338.044 476.736 390.303L463.118 404.693C457.577 410.432 453.417 413.942 447.987 419.633C379.142 485.732 336.775 577.748 230.859 595.925Z" fill="url(#paint15_linear_131_36)"/>
<path d="M242.212 570.559C121.921 578.132 47.488 560.835 38.7012 458.841C60.2616 459.153 72.3713 459.022 93.9289 458.083C103.764 539.879 152.183 565.63 245.238 550.483C295.926 542.231 360.989 488.378 416.973 424.001C422.57 418.135 427.148 413.257 432.861 407.338L447.992 393.706C510.515 332.657 558.447 249.804 676.468 233.899C790.706 226.326 903.317 339.198 906.458 442.935H857.282C850.707 348.144 769.28 261.995 679.494 275.555C613.24 285.561 528.185 348.648 476.74 400.906L463.123 415.297C457.581 421.036 453.422 424.546 447.992 430.236C379.146 496.336 348.128 552.382 242.212 570.559Z" fill="url(#paint16_linear_131_36)"/>
<path d="M242.21 583.049C121.92 590.623 48.9997 561.965 40.2129 459.971L89.2701 458.297C99.1051 540.093 149.155 572.82 242.21 557.672C292.899 549.421 360.988 495.567 416.972 431.19C422.569 425.324 430.929 417.416 436.642 411.498L448.747 400.137C511.27 339.088 563.742 252.833 681.006 241.846C793.731 233.838 897.264 339.198 900.404 442.935C882.502 442.955 872.316 442.568 854.255 442.177C847.68 347.387 770.792 270.326 681.006 283.886C614.751 293.892 528.184 361.138 476.739 413.397L463.121 427.787C457.58 433.526 453.421 437.036 447.99 442.727C379.145 508.826 348.126 564.872 242.21 583.049Z" fill="url(#paint17_linear_131_36)"/>
<path d="M242.21 591.764C121.919 599.338 49.7556 560.834 40.9688 458.84C58.3718 458.796 67.252 458.896 84.7301 458.297C94.5652 540.093 149.155 576.99 242.21 561.843C292.898 553.592 357.204 503.525 413.189 439.148C418.786 433.282 427.146 423.102 432.859 417.184L445.72 405.823C508.244 344.774 564.498 256.62 681.005 248.289C796 245.26 892.605 339.198 895.746 442.935H851.984C845.41 348.144 770.791 280.171 681.005 293.732C614.751 303.738 528.183 369.853 476.738 422.112L463.121 436.502C457.579 442.241 453.42 445.751 447.99 451.442C379.144 517.541 348.126 573.587 242.21 591.764Z" fill="url(#paint18_linear_131_36)"/>
<path d="M242.211 602.368C121.92 609.941 45.9743 560.834 37.1875 458.84C54.1759 459.079 63.0819 458.997 80.3105 458.082C90.1456 539.879 149.156 583.433 242.211 568.286C292.9 560.035 354.936 511.483 410.92 447.106C416.517 441.239 423.365 432.948 429.078 427.03L444.208 411.125C506.732 350.076 574.334 261.165 681.007 255.863C796.198 252.45 888.942 339.198 892.083 442.935C876.605 443.1 867.69 442.593 851.986 442.177C845.411 347.387 770.793 272.224 681.007 285.785C614.752 295.791 528.185 380.457 476.74 432.716L463.122 447.106C457.581 452.845 453.421 456.355 447.991 462.045C379.146 528.145 348.127 584.191 242.211 602.368Z" fill="url(#paint19_linear_131_36)"/>
<path d="M215.734 652.343C95.4431 659.917 22.5232 560.834 13.7363 458.84H56.8594C66.6944 540.636 131.757 633.036 224.812 617.889C275.501 609.638 339.807 575.476 395.791 511.099C401.388 505.233 406.722 499.597 412.435 493.679L424.54 481.826C487.063 420.777 540.291 341.447 660.385 315.696C772.748 300.339 870.787 339.198 873.927 442.935L820.969 442.935C806.362 348.012 742.34 323.66 660.385 336.902C594.762 347.506 504.734 437.633 453.289 489.892L436.645 508.069C431.103 513.808 428.457 515.254 423.027 520.945C354.181 587.044 321.65 634.166 215.734 652.343Z" fill="url(#paint20_linear_131_36)"/>
<path d="M219.512 645.911C99.2217 653.485 27.0583 560.833 18.2715 458.84H62.0329C71.8679 540.636 126.457 625.462 219.512 610.315C270.201 602.064 342.073 562.985 398.057 498.608C403.654 492.741 408.988 487.106 414.701 481.188L426.805 469.335C489.329 408.286 542.557 328.955 662.651 303.205C775.014 287.847 878.348 339.198 881.489 442.935H829.287C820.246 348.986 749.919 316.608 662.651 329.328C596.346 338.993 506.999 428.929 455.554 481.188L443.449 494.436C437.908 500.175 430.723 506.923 425.292 512.613C356.447 578.713 325.429 627.734 219.512 645.911Z" fill="url(#paint21_linear_131_36)"/>
<path d="M224.054 634.551C103.763 642.125 30.8435 560.834 22.0566 458.84H60.6404C70.4755 540.636 130.999 618.273 224.054 603.126C274.742 594.875 342.075 546.323 398.059 481.946C403.656 476.08 408.99 470.445 414.703 464.526L426.808 452.673C489.331 391.624 542.559 312.294 662.653 286.543C775.016 271.186 875.324 339.198 878.465 442.935H835.342C828.767 348.144 752.636 307.064 662.85 320.625C596.595 330.631 511.541 416.427 460.096 468.686L446.478 483.076C440.937 488.815 436.778 492.533 431.347 498.223C362.502 564.323 329.97 616.374 224.054 634.551Z" fill="url(#paint22_linear_131_36)"/>
<path d="M242.21 611.456C121.92 619.03 48.9997 560.833 40.2129 458.84C54.8767 458.775 63.1144 458.754 77.2836 458.082C87.1186 539.879 149.155 592.522 242.21 577.374C292.899 569.123 354.179 518.672 410.163 454.295C415.76 448.429 423.364 441.28 429.077 435.361L441.181 423.243C503.705 362.194 584.168 267.224 681.006 262.679C790.288 252.926 883.804 343.036 888.938 443.149L850.472 442.935C843.897 348.144 770.792 281.313 681.006 294.873C614.751 304.88 528.184 389.545 476.739 441.804L463.121 456.194C457.58 461.933 453.421 465.444 447.99 471.134C379.145 537.233 348.126 593.279 242.21 611.456Z" fill="url(#paint23_linear_131_36)"/>
<path d="M231.62 625.09C111.33 632.663 38.4099 560.461 29.623 458.467H66.6937C76.5288 540.263 138.565 606.155 231.62 591.008C282.309 582.757 349.641 534.204 405.626 469.827C411.223 463.961 416.557 458.326 422.27 452.408L434.374 440.555C496.898 379.505 550.126 300.175 670.22 274.425C782.583 259.067 875.207 339.413 878.348 443.15L843.056 442.935C836.481 348.144 760.202 294.946 670.416 308.506C604.161 318.513 517.594 403.179 466.149 455.437L452.531 469.827C446.99 475.567 442.831 479.077 437.4 484.767C368.555 550.867 337.537 606.913 231.62 625.09Z" fill="url(#paint24_linear_131_36)"/>
</g>
<defs>
<filter id="filter0_i_131_36" x="0" y="0" width="566" height="458.5" filterUnits="userSpaceOnUse" color-interpolation-filters="sRGB">
<feFlood flood-opacity="0" result="BackgroundImageFix"/>
<feBlend mode="normal" in="SourceGraphic" in2="BackgroundImageFix" result="shape"/>
<feColorMatrix in="SourceAlpha" type="matrix" values="0 0 0 0 0 0 0 0 0 0 0 0 0 0 0 0 0 0 127 0" result="hardAlpha"/>
<feOffset dy="4"/>
<feGaussianBlur stdDeviation="2"/>
<feComposite in2="hardAlpha" operator="arithmetic" k2="-1" k3="1"/>
<feColorMatrix type="matrix" values="0 0 0 0 0 0 0 0 0 0 0 0 0 0 0 0 0 0 0.25 0"/>
<feBlend mode="normal" in2="shape" result="effect1_innerShadow_131_36"/>
</filter>
<filter id="filter1_dd_131_36" x="-30.6793" y="192.014" width="972.204" height="517.172" filterUnits="userSpaceOnUse" color-interpolation-filters="sRGB">
<feFlood flood-opacity="0" result="BackgroundImageFix"/>
<feColorMatrix in="SourceAlpha" type="matrix" values="0 0 0 0 0 0 0 0 0 0 0 0 0 0 0 0 0 0 127 0" result="hardAlpha"/>
<feOffset dx="4" dy="16"/>
<feGaussianBlur stdDeviation="20.65"/>
<feComposite in2="hardAlpha" operator="out"/>
<feColorMatrix type="matrix" values="0 0 0 0 0 0 0 0 0 0 0 0 0 0 0 0 0 0 0.2 0"/>
<feBlend mode="normal" in2="BackgroundImageFix" result="effect1_dropShadow_131_36"/>
<feColorMatrix in="SourceAlpha" type="matrix" values="0 0 0 0 0 0 0 0 0 0 0 0 0 0 0 0 0 0 127 0" result="hardAlpha"/>
<feOffset dx="-2" dy="-22"/>
<feGaussianBlur stdDeviation="20.45"/>
<feComposite in2="hardAlpha" operator="out"/>
<feColorMatrix type="matrix" values="0 0 0 0 0 0 0 0 0 0 0 0 0 0 0 0 0 0 0.2 0"/>
<feBlend mode="normal" in2="effect1_dropShadow_131_36" result="effect2_dropShadow_131_36"/>
<feBlend mode="normal" in="SourceGraphic" in2="effect2_dropShadow_131_36" result="shape"/>
</filter>
<linearGradient id="paint0_linear_131_36" x1="11.4454" y1="469.988" x2="896.225" y2="467.088" gradientUnits="userSpaceOnUse">
<stop offset="0.255" stop-color="#A087F1"/>
<stop offset="0.4899" stop-color="#EAE7F9"/>
<stop offset="0.49" stop-color="white"/>
<stop offset="0.4901" stop-color="#F4E9F3"/>
<stop offset="0.685" stop-color="#E056A3"/>
</linearGradient>
<linearGradient id="paint1_linear_131_36" x1="897.378" y1="397.492" x2="29.6218" y2="398.248" gradientUnits="userSpaceOnUse">
<stop stop-color="#F684EB"/>
<stop offset="0.115" stop-color="#F379E7"/>
<stop offset="0.245" stop-color="#751396"/>
<stop offset="0.925" stop-color="#7E23A3"/>
<stop offset="1" stop-color="#D9CFFF"/>
</linearGradient>
<linearGradient id="paint2_linear_131_36" x1="897.377" y1="405.066" x2="29.6201" y2="405.821" gradientUnits="userSpaceOnUse">
<stop offset="0.035" stop-color="#FF8EE7"/>
<stop offset="0.125" stop-color="#EA66D8"/>
<stop offset="0.215" stop-color="#B51C94"/>
<stop offset="0.345" stop-color="#762DA0"/>
<stop offset="0.7" stop-color="#7F34B1"/>
<stop offset="0.95" stop-color="#6927A2"/>
<stop offset="1" stop-color="#CEC2FF"/>
</linearGradient>
<linearGradient id="paint3_linear_131_36" x1="897.38" y1="412.639" x2="29.6237" y2="413.395" gradientUnits="userSpaceOnUse">
<stop offset="0.105" stop-color="#F07EDE"/>
<stop offset="0.15" stop-color="#C444B7"/>
<stop offset="0.225" stop-color="#7F0686"/>
<stop offset="0.455" stop-color="#8136C2"/>
<stop offset="0.925" stop-color="#780EA3"/>
<stop offset="1" stop-color="#DEE5FF"/>
</linearGradient>
<linearGradient id="paint4_linear_131_36" x1="897.376" y1="420.213" x2="29.6199" y2="420.969" gradientUnits="userSpaceOnUse">
<stop offset="0.08" stop-color="#FA81E6"/>
<stop offset="0.15" stop-color="#D134A2"/>
<stop offset="0.175" stop-color="#BB13A5"/>
<stop offset="0.3" stop-color="#9846C8"/>
<stop offset="0.855" stop-color="#6B36B1"/>
<stop offset="1" stop-color="#CFD6FF"/>
</linearGradient>
<linearGradient id="paint5_linear_131_36" x1="897.38" y1="503.525" x2="29.623" y2="504.281" gradientUnits="userSpaceOnUse">
<stop offset="0.015" stop-color="#790C62"/>
<stop offset="0.135" stop-color="#EA66D8"/>
<stop offset="0.185" stop-color="#F4ACEF"/>
<stop offset="0.275" stop-color="#FFE3FB"/>
<stop offset="0.345" stop-color="#F4AFEB"/>
<stop offset="0.44" stop-color="#B4A3FF"/>
<stop offset="0.615" stop-color="#B8A8FF"/>
<stop offset="0.67" stop-color="#FAF4FF"/>
<stop offset="0.775" stop-color="#9163B9"/>
<stop offset="0.9" stop-color="#311E9B"/>
</linearGradient>
<linearGradient id="paint6_linear_131_36" x1="897.376" y1="495.951" x2="29.6196" y2="496.707" gradientUnits="userSpaceOnUse">
<stop offset="0.025" stop-color="#840A5B"/>
<stop offset="0.1" stop-color="#EA66E1"/>
<stop offset="0.225" stop-color="#F9E0FB"/>
<stop offset="0.31" stop-color="#FCC0FF"/>
<stop offset="0.43" stop-color="#C09BFF"/>
<stop offset="0.615" stop-color="#C6A5FF"/>
<stop offset="0.675" stop-color="#F4F2FD"/>
<stop offset="0.735" stop-color="#BD94F7"/>
<stop offset="0.9" stop-color="#3C1F96"/>
</linearGradient>
<linearGradient id="paint7_linear_131_36" x1="897.378" y1="488.378" x2="29.6216" y2="489.133" gradientUnits="userSpaceOnUse">
<stop offset="0.06" stop-color="#7B0D54"/>
<stop offset="0.105" stop-color="#EA66E8"/>
<stop offset="0.18" stop-color="#F7C7F4"/>
<stop offset="0.245" stop-color="#FCE9FB"/>
<stop offset="0.325" stop-color="#F2A0E7"/>
<stop offset="0.41" stop-color="#B996FE"/>
<stop offset="0.575" stop-color="#B596FF"/>
<stop offset="0.685" stop-color="#E8E0FF"/>
<stop offset="0.77" stop-color="#B985EF"/>
<stop offset="0.915" stop-color="#3E109A"/>
</linearGradient>
<linearGradient id="paint8_linear_131_36" x1="898.051" y1="479.823" x2="28.9387" y2="480.586" gradientUnits="userSpaceOnUse">
<stop offset="0.02" stop-color="#8B0F66"/>
<stop offset="0.16" stop-color="#EB74DF"/>
<stop offset="0.26" stop-color="#FDEAFF"/>
<stop offset="0.335" stop-color="#F6BAF2"/>
<stop offset="0.44" stop-color="#A586F5"/>
<stop offset="0.59" stop-color="#AB8DF6"/>
<stop offset="0.665" stop-color="#F9F7FD"/>
<stop offset="0.77" stop-color="#A780EE"/>
<stop offset="0.87" stop-color="#5217B8"/>
</linearGradient>
<linearGradient id="paint9_linear_131_36" x1="897.379" y1="473.23" x2="29.6222" y2="473.986" gradientUnits="userSpaceOnUse">
<stop offset="0.04" stop-color="#9D1387"/>
<stop offset="0.12" stop-color="#E866EA"/>
<stop offset="0.195" stop-color="#EFB5F5"/>
<stop offset="0.255" stop-color="#FFEBF6"/>
<stop offset="0.3" stop-color="#F7C7F7"/>
<stop offset="0.38" stop-color="#C4A2FF"/>
<stop offset="0.59" stop-color="#C5A4FF"/>
<stop offset="0.66" stop-color="#F8F0FF"/>
<stop offset="0.75" stop-color="#A078F1"/>
<stop offset="0.875" stop-color="#4F0DA0"/>
</linearGradient>
<linearGradient id="paint10_linear_131_36" x1="897.379" y1="459.597" x2="29.6223" y2="460.353" gradientUnits="userSpaceOnUse">
<stop offset="0.03" stop-color="#B61B9E"/>
<stop offset="0.165" stop-color="#EA66D8"/>
<stop offset="0.24" stop-color="#FDECFF"/>
<stop offset="0.305" stop-color="#EAB6F5"/>
<stop offset="0.36" stop-color="#BA9FFF"/>
<stop offset="0.44" stop-color="#C0A7FF"/>
<stop offset="0.555" stop-color="#C2AAFF"/>
<stop offset="0.6" stop-color="#CEBCFF"/>
<stop offset="0.64" stop-color="#F7F3FF"/>
<stop offset="0.695" stop-color="#CEA0FF"/>
<stop offset="0.845" stop-color="#5E23A6"/>
</linearGradient>
<linearGradient id="paint11_linear_131_36" x1="897.378" y1="427.787" x2="29.6214" y2="428.543" gradientUnits="userSpaceOnUse">
<stop offset="0.065" stop-color="#F06EDC"/>
<stop offset="0.125" stop-color="#CF44B7"/>
<stop offset="0.235" stop-color="#B90CA2"/>
<stop offset="0.365" stop-color="#9B5ADA"/>
<stop offset="0.87" stop-color="#8447CB"/>
<stop offset="1" stop-color="#D7DCFA"/>
</linearGradient>
<linearGradient id="paint12_linear_131_36" x1="897.379" y1="438.774" x2="29.6229" y2="439.53" gradientUnits="userSpaceOnUse">
<stop stop-color="#EA69D9"/>
<stop offset="0.145" stop-color="#E578CD"/>
<stop offset="0.33" stop-color="#D6C4F5"/>
<stop offset="0.525" stop-color="#EBE6FE"/>
<stop offset="0.96" stop-color="#CEC4FD"/>
</linearGradient>
<linearGradient id="paint13_linear_131_36" x1="891.327" y1="479.674" x2="-0.649827" y2="546.177" gradientUnits="userSpaceOnUse">
<stop offset="0.115" stop-color="#F37AE7"/>
<stop offset="0.16" stop-color="#F9D4F1"/>
<stop offset="0.24" stop-color="#F7B3F2"/>
<stop offset="0.37" stop-color="#F939DF"/>
<stop offset="0.59" stop-color="#F338DC"/>
<stop offset="0.7349" stop-color="#6F2596"/>
<stop offset="0.735" stop-color="#6F2596"/>
<stop offset="0.77" stop-color="#9E51C2"/>
<stop offset="0.805" stop-color="#CBCFF4"/>
<stop offset="0.865" stop-color="#EBEFFF"/>
<stop offset="0.935" stop-color="#DACFFF"/>
</linearGradient>
<linearGradient id="paint14_linear_131_36" x1="891.323" y1="472.1" x2="-0.653785" y2="538.604" gradientUnits="userSpaceOnUse">
<stop offset="0.08" stop-color="#F173DD"/>
<stop offset="0.15" stop-color="#F9D4F1"/>
<stop offset="0.2" stop-color="#F7B3F0"/>
<stop offset="0.355" stop-color="#EE55C9"/>
<stop offset="0.53" stop-color="#ED48C4"/>
<stop offset="0.74" stop-color="#8429B3"/>
<stop offset="0.775" stop-color="#9E51C2"/>
<stop offset="0.82" stop-color="#CBCFF4"/>
<stop offset="0.885" stop-color="#EBEFFF"/>
<stop offset="0.98" stop-color="#CEC2FF"/>
</linearGradient>
<linearGradient id="paint15_linear_131_36" x1="909.479" y1="353.948" x2="17.5026" y2="420.452" gradientUnits="userSpaceOnUse">
<stop offset="0.08" stop-color="#790C61"/>
<stop offset="0.175" stop-color="#660944"/>
<stop offset="0.56" stop-color="#D743C8"/>
<stop offset="0.715" stop-color="#9E51C2"/>
<stop offset="0.79" stop-color="#2D0B57"/>
<stop offset="0.875" stop-color="#311E9B"/>
</linearGradient>
<linearGradient id="paint16_linear_131_36" x1="909.484" y1="364.552" x2="17.5071" y2="431.055" gradientUnits="userSpaceOnUse">
<stop offset="0.08" stop-color="#840A5B"/>
<stop offset="0.19" stop-color="#730E45"/>
<stop offset="0.36" stop-color="#D345C5"/>
<stop offset="0.63" stop-color="#CF46C5"/>
<stop offset="0.72" stop-color="#9E51C2"/>
<stop offset="0.81" stop-color="#250C4E"/>
<stop offset="0.91" stop-color="#3C1E96"/>
</linearGradient>
<linearGradient id="paint17_linear_131_36" x1="909.483" y1="375.155" x2="17.5056" y2="441.659" gradientUnits="userSpaceOnUse">
<stop offset="0.04" stop-color="#7B0D54"/>
<stop offset="0.19" stop-color="#7A1556"/>
<stop offset="0.455" stop-color="#E339E1"/>
<stop offset="0.565" stop-color="#D73DDB"/>
<stop offset="0.715" stop-color="#9E51C2"/>
<stop offset="0.81" stop-color="#320C69"/>
<stop offset="0.9" stop-color="#3E109A"/>
</linearGradient>
<linearGradient id="paint18_linear_131_36" x1="909.482" y1="385.759" x2="17.5049" y2="452.262" gradientUnits="userSpaceOnUse">
<stop offset="0.08" stop-color="#8B0F66"/>
<stop offset="0.2" stop-color="#950854"/>
<stop offset="0.425" stop-color="#E44CDA"/>
<stop offset="0.605" stop-color="#D74DD6"/>
<stop offset="0.71" stop-color="#9E51C2"/>
<stop offset="0.8" stop-color="#3A0E74"/>
<stop offset="0.89" stop-color="#5217B8"/>
</linearGradient>
<linearGradient id="paint19_linear_131_36" x1="909.483" y1="396.362" x2="17.5064" y2="462.865" gradientUnits="userSpaceOnUse">
<stop offset="0.08" stop-color="#9D1387"/>
<stop offset="0.19" stop-color="#AF0763"/>
<stop offset="0.4349" stop-color="#DE51CC"/>
<stop offset="0.57" stop-color="#E155D3"/>
<stop offset="0.665" stop-color="#9E51C2"/>
<stop offset="0.735" stop-color="#622C91"/>
<stop offset="0.83" stop-color="#441977"/>
<stop offset="0.915" stop-color="#4F0DA0"/>
</linearGradient>
<linearGradient id="paint20_linear_131_36" x1="891.328" y1="464.526" x2="-0.6489" y2="531.029" gradientUnits="userSpaceOnUse">
<stop offset="0.085" stop-color="#F07EDE"/>
<stop offset="0.155" stop-color="#F9D4F1"/>
<stop offset="0.2" stop-color="#F7B3F0"/>
<stop offset="0.37" stop-color="#EF56DB"/>
<stop offset="0.57" stop-color="#ED3BD5"/>
<stop offset="0.635" stop-color="#9926AA"/>
<stop offset="0.75" stop-color="#9E51C2"/>
<stop offset="0.835" stop-color="#CBCFF4"/>
<stop offset="0.875" stop-color="#EBEFFF"/>
<stop offset="0.975" stop-color="#DEE5FF"/>
</linearGradient>
<linearGradient id="paint21_linear_131_36" x1="891.324" y1="447.863" x2="-0.653045" y2="514.367" gradientUnits="userSpaceOnUse">
<stop offset="0.07" stop-color="#FA81E6"/>
<stop offset="0.1" stop-color="#F7B3F0"/>
<stop offset="0.175" stop-color="#F9D4F2"/>
<stop offset="0.21" stop-color="#F7B3E8"/>
<stop offset="0.3" stop-color="#F939C9"/>
<stop offset="0.6" stop-color="#F94BCE"/>
<stop offset="0.7" stop-color="#9040B6"/>
<stop offset="0.765" stop-color="#A96FCE"/>
<stop offset="0.81" stop-color="#CBCFF4"/>
<stop offset="0.855" stop-color="#EBEFFF"/>
<stop offset="0.95" stop-color="#CFD6FF"/>
</linearGradient>
<linearGradient id="paint22_linear_131_36" x1="891.326" y1="431.201" x2="-0.650516" y2="497.705" gradientUnits="userSpaceOnUse">
<stop offset="0.08" stop-color="#F06EDC"/>
<stop offset="0.11" stop-color="#F9D4F2"/>
<stop offset="0.18" stop-color="#F7B3EB"/>
<stop offset="0.315" stop-color="#EC65CF"/>
<stop offset="0.565" stop-color="#E950C7"/>
<stop offset="0.695" stop-color="#9E51C2"/>
<stop offset="0.755" stop-color="#AD7BD3"/>
<stop offset="0.815" stop-color="#CBCFF4"/>
<stop offset="0.875" stop-color="#EBEFFF"/>
<stop offset="0.94" stop-color="#D7DCFA"/>
</linearGradient>
<linearGradient id="paint23_linear_131_36" x1="909.482" y1="405.45" x2="17.5058" y2="471.954" gradientUnits="userSpaceOnUse">
<stop offset="0.08" stop-color="#B61B9D"/>
<stop offset="0.245" stop-color="#CD438B"/>
<stop offset="0.375" stop-color="#DC49DE"/>
<stop offset="0.59" stop-color="#CC4BD7"/>
<stop offset="0.725" stop-color="#9E51C2"/>
<stop offset="0.81" stop-color="#6129A3"/>
<stop offset="0.935" stop-color="#5D22A6"/>
</linearGradient>
<linearGradient id="paint24_linear_131_36" x1="898.893" y1="419.084" x2="6.91588" y2="485.587" gradientUnits="userSpaceOnUse">
<stop offset="0.02" stop-color="#EA66D8"/>
<stop offset="0.45" stop-color="#FD9DEC"/>
<stop offset="0.625" stop-color="#F8D6FF"/>
<stop offset="0.945" stop-color="#CEC4FD"/>
</linearGradient>
</defs>
</svg>
