<svg width="570" height="469" viewBox="0 0 570 469" fill="none" xmlns="http://www.w3.org/2000/svg">
<g filter="url(#filter0_d_131_207)">
<path d="M563 467.5V13H410.013C429.273 64.6763 390.324 117.346 339.393 117.346C292.478 117.346 244.081 69.1483 264.823 13H110.744V161.072C61.2078 148.045 8.34938 183.308 7.03621 240.078C5.38697 293.024 60.3717 338.461 110.743 315.604V467.5H563Z" fill="#C551D0"/>
<path d="M111.744 161.072V14H263.4C253.603 41.9271 260.637 67.85 275.958 86.8564C291.503 106.14 315.609 118.346 339.393 118.346C390.573 118.346 429.777 65.8985 411.44 14H562V466.5H111.743V315.604V314.053L110.33 314.694C85.5333 325.946 59.5823 320.408 39.9881 305.472C20.3818 290.527 7.22216 266.227 8.03573 240.109H8.03576L8.03594 240.101C9.33344 184.008 61.5473 149.168 110.489 162.04L111.744 162.369V161.072Z" stroke="white" stroke-width="2"/>
</g>
<mask id="mask0_131_207" style="mask-type:alpha" maskUnits="userSpaceOnUse" x="113" y="15" width="445" height="211">
<path d="M113.211 15.4839V104.576C208.905 202.036 324.229 241.906 393.423 218.772C469.488 190.715 536.229 123.773 557.671 30.3282V15.4839H454.766C454.275 46.0016 447.455 71.2247 429.738 88.825C413.162 103.937 400.288 108.629 371.831 110.483C355.185 118.403 345.507 120.09 329.136 118.358C307.328 114.143 296.082 109.761 280.062 93.7472C238.742 71.4119 212.357 51.3544 175.188 15.4839H113.211Z" fill="#D9D9D9"/>
</mask>
<g mask="url(#mask0_131_207)">
<g filter="url(#filter1_dd_131_207)">
<path fill-rule="evenodd" clip-rule="evenodd" d="M543.792 27.9574C543.884 142.794 437.687 229.252 319.35 208.304C265.981 193.223 245.224 177.294 221.119 155.527C197.015 133.76 184.988 118.712 155.575 91.0942L106.037 45.0651L37.2604 118.831C11.0351 145.075 -8.3395 159.911 -34.621 179.197C-53.9475 190.94 -85.3427 211.328 -134.117 210.712C-243.914 209.323 -312.625 141.698 -324.786 25.3118L-324.793 16.9356C-319.697 -90.3742 -258.411 -167.049 -140.869 -175.867C-104.855 -176.003 -77.8155 -167.699 -45.7167 -152.491C-18.0286 -136.814 13.7116 -109.742 39.4179 -83.037L105.994 -8.54263L125.313 -30.1533L155.45 -63.8659C176.481 -91.1002 189.057 -99.4077 220.367 -127.578C250.117 -150.218 305.742 -178.833 341.756 -178.771C461.238 -186.837 539.919 -110.081 543.779 12.0426L543.792 27.9574ZM129.22 20.1781L209.72 96.076C225.974 111.14 240.681 125.368 259.254 138.755C279.377 155.491 334.967 176.484 356.738 176.368C432.734 176.307 509.814 94.9767 509.76 27.985L509.747 12.0702C512.149 -75.3176 431.489 -162.863 334.828 -138.56C289.027 -132.232 221.935 -89.0927 197.994 -57.1994L129.22 20.1781ZM81.2662 19.1173L-0.0208424 -74.6288C-12.8049 -91.0423 -38.6412 -108.14 -58.0634 -117.3C-77.4856 -126.461 -108.237 -134.948 -130.008 -134.832C-215.292 -142.694 -292.369 -58.4768 -286.894 16.9048L-286.887 25.281C-287.245 111.137 -205.848 186.777 -121.619 170.893C-78.2594 162.717 -33.1099 134.803 -2.19724 103.786L70.5235 30.0151L81.2662 19.1173Z" fill="url(#paint0_linear_131_207)"/>
</g>
<path d="M-109.067 -197.056C-228.672 -212.128 -339.403 -82.9065 -335.196 21.4032L-292.826 22.8944C-296.309 -51.8746 -214.527 -174.844 -109.067 -167.097C-58.7431 -163.4 6.8957 -114.683 61.9035 -51.3073C67.4029 -45.5324 72.6441 -39.985 78.2572 -34.1586L90.1508 -22.4897C151.584 37.6097 203.883 115.706 321.883 141.056C435.065 160.441 499.584 110.736 499.584 4.2544L454.983 5.74577C453.197 90.6536 418.795 121.084 322.076 107.504C256.876 98.3496 171.919 14.3048 121.371 -37.141L107.991 -51.3073C102.546 -56.9571 98.4598 -60.4127 93.1242 -66.0147C25.4795 -131.086 -4.99792 -179.162 -109.067 -197.056Z" fill="url(#paint1_linear_131_207)"/>
<path d="M-109.072 -191.092C-228.677 -206.163 -334.945 -82.1615 -330.739 22.1482L-283.909 20.657C-287.392 -54.1119 -214.532 -167.389 -109.072 -159.641C-58.7482 -155.944 6.89044 -107.227 61.8982 -43.8519C67.3977 -38.0771 72.6388 -32.5296 78.2519 -26.7033L90.1455 -15.0344C151.578 45.065 203.878 123.161 321.877 148.511C435.059 167.897 512.22 111.482 512.22 4.99978L463.159 4.99957C464.617 98.5782 418.407 128.601 322.07 114.96C256.881 105.729 171.914 21.7602 121.366 -29.6857L107.986 -43.8519C102.541 -49.5017 98.4545 -52.9573 93.1189 -58.5593C25.4742 -123.63 -5.00309 -173.197 -109.072 -191.092Z" fill="url(#paint2_linear_131_207)"/>
<path d="M-109.067 -184.381C-228.672 -199.453 -327.51 -81.4155 -323.304 22.8942L-284.65 20.6574C-288.133 -54.1116 -214.527 -159.932 -109.067 -152.185C-58.7437 -148.488 6.89494 -99.7711 61.9027 -36.3957C67.4022 -30.6208 72.6433 -25.0734 78.2564 -19.247L90.15 -7.57815C151.583 52.5213 203.882 130.617 321.882 155.968C435.064 175.353 509.991 112.973 509.991 6.491L469.85 4.99971C471.308 98.5783 418.411 136.057 322.075 122.416C256.885 113.185 171.918 29.2164 121.371 -22.2294L107.99 -36.3957C102.546 -42.0455 98.459 -45.501 93.1234 -51.103C25.4787 -116.174 -4.99857 -166.487 -109.067 -184.381Z" fill="url(#paint3_linear_131_207)"/>
<path d="M-109.066 -177.671C-228.671 -192.743 -323.049 -82.907 -318.843 21.4027H-283.064C-286.547 -53.3663 -214.526 -152.477 -109.066 -144.729C-58.7422 -141.032 6.8965 -92.3155 61.9043 -28.94C67.4037 -23.1651 72.6449 -17.6177 78.258 -11.7913L90.1516 -0.122466C151.585 59.977 203.884 138.073 321.883 163.423C435.065 182.809 521.885 111.481 521.885 4.99941L478.028 4.99965C479.486 98.5783 418.413 143.513 322.076 129.872C256.887 120.641 171.92 36.6721 121.372 -14.7737L107.992 -28.94C102.547 -34.5898 98.4606 -38.0454 93.125 -43.6474C25.4803 -108.719 -4.99701 -159.777 -109.066 -177.671Z" fill="url(#paint4_linear_131_207)"/>
<path d="M-109.07 -96.2664C-228.674 -111.338 -301.496 -63.5222 -297.29 40.7875L-240.051 20.6564C-243.534 -54.1126 -176.598 -84.8309 -101.788 -67.3233C-51.392 -55.5292 6.89265 -10.3008 61.9005 53.0747C67.3999 58.8495 72.641 64.397 78.2541 70.2233L90.1477 81.8922C151.581 141.992 204.073 199.6 322.072 224.95C435.254 244.335 559.792 112.227 559.792 5.74493L521.138 4.99933C522.596 98.5779 418.409 216.223 322.072 202.582C256.883 193.351 171.916 118.687 121.368 67.241L107.988 53.0747C102.543 47.4249 98.4567 43.9693 93.1211 38.3673C25.4763 -26.7039 -5.00087 -78.3721 -109.07 -96.2664Z" fill="url(#paint5_linear_131_207)"/>
<path d="M-107.584 -106.094C-227.189 -121.165 -304.468 -62.9111 -300.262 41.3985L-244.512 20.6574C-247.995 -54.1115 -185.196 -95.9262 -104.019 -74.9141C-55.1613 -62.2676 8.37817 -20.128 63.386 43.2474C68.8854 49.0222 74.1266 54.5697 79.7397 60.396L91.6333 72.0649C153.066 132.164 205.559 195.872 323.558 221.222C436.74 240.607 553.845 111.482 553.845 4.99973H512.217C513.675 98.5782 425.573 201.523 329.237 187.881C264.048 178.651 173.402 108.859 122.854 57.4137L109.474 43.2474C104.029 37.5976 99.9423 34.1419 94.6067 28.54C26.9619 -36.5311 -3.51541 -88.1994 -107.584 -106.094Z" fill="url(#paint6_linear_131_207)"/>
<path d="M-109.066 -111.535C-228.671 -126.606 -308.923 -69.8433 -304.717 34.4664L-249.083 20.8683C-252.566 -53.9006 -190.394 -97.6697 -107.731 -81.4887C-58.2066 -71.7945 6.89665 -25.569 61.9045 37.8065C67.4039 43.5813 72.645 49.1288 78.2582 54.9551L90.1517 66.624C151.585 126.723 208.385 190.653 326.385 216.003C439.567 235.388 547.886 112.227 547.886 5.74538L515.195 5.74531C516.654 99.3239 422.721 199.286 326.385 185.645C261.196 176.414 171.92 103.419 121.372 51.9728L107.992 37.8065C102.547 32.1567 98.4608 28.7011 93.1251 23.0991C25.4804 -41.972 -4.99693 -93.6403 -109.066 -111.535Z" fill="url(#paint7_linear_131_207)"/>
<path d="M-109.428 -117.155C-229.219 -132.137 -301.411 -69.0413 -297.198 34.6481L-253.545 20.8688C-257.033 -53.4556 -196.099 -105.566 -104.37 -87.6433C-54.7793 -77.9539 6.71581 -31.7007 61.8096 31.2979C67.3176 37.0384 72.5669 42.5528 78.1888 48.3445L90.101 59.944C151.63 119.686 204.204 181.398 322.388 206.597C435.747 225.867 543.325 111.06 543.325 5.21145L519.529 4.26062C520.989 97.2828 418.875 180.354 322.388 166.794C257.097 157.618 171.997 96.5198 121.37 45.3799L107.969 31.2979C102.516 25.6817 98.423 22.2467 93.079 16.678C25.3286 -48.0062 -5.19635 -99.3672 -109.428 -117.155Z" fill="url(#paint8_linear_131_207)"/>
<path d="M-109.06 -126.089C-228.665 -141.16 -302.976 -79.9239 -298.77 24.3858L-257.887 20.6578C-261.37 -54.1112 -199.906 -112.058 -106.244 -99.3828C-56.2384 -92.6156 6.90263 -40.1232 61.9104 23.2522C67.4098 29.0271 72.6511 34.5746 78.2642 40.4009L90.1577 52.0698C151.591 112.169 208.386 175.741 326.385 201.091C439.567 220.477 539.726 111.482 539.726 5.00015L509.249 5.74583C510.707 99.3244 419.005 188.637 322.668 174.996C257.479 165.765 171.926 88.8644 121.378 37.4185L107.998 23.2522C102.553 17.6024 98.4668 14.1469 93.1311 8.54491C25.4864 -56.5262 -4.99095 -108.194 -109.06 -126.089Z" fill="url(#paint9_linear_131_207)"/>
<path d="M-109.063 -139.511C-228.668 -154.582 -309.671 -76.9427 -305.465 27.367L-260.863 20.6567C-264.347 -54.1123 -203.039 -126.361 -102.53 -109.822C-52.7372 -101.629 6.89906 -53.545 61.9069 9.83046C67.4063 15.6053 72.6473 21.1527 78.2605 26.9791L90.154 38.648C151.587 98.7474 204.079 166.793 322.079 192.143C435.261 211.529 536.634 112.438 536.634 5.95605L499.582 4.99955C501.04 98.5781 418.415 182.283 322.079 168.642C256.89 159.411 171.922 75.4426 121.375 23.9967L107.994 9.83046C102.55 4.18064 98.4631 0.725073 93.1274 -4.87692C25.4827 -69.9481 -4.99452 -121.616 -109.063 -139.511Z" fill="url(#paint10_linear_131_207)"/>
<path d="M-109.054 -170.824C-228.658 -185.896 -319.329 -82.9062 -315.123 21.4035H-273.613C-277.096 -53.3655 -214.514 -145.02 -109.054 -137.272C-58.7299 -133.576 6.90884 -84.8587 61.9167 -21.4832C67.4161 -15.7084 72.6575 -10.1609 78.2706 -4.33458L90.1642 7.33428C151.597 67.4337 203.897 145.53 321.896 170.88C435.078 190.265 523.373 112.228 523.373 5.74552L483.976 5.00045C485.434 98.5791 418.425 150.969 322.089 137.328C256.9 128.098 171.933 44.1289 121.385 -7.31695L108.005 -21.4832C102.56 -27.133 98.4732 -30.5886 93.1376 -36.1906C25.4928 -101.262 -4.98475 -152.93 -109.054 -170.824Z" fill="url(#paint11_linear_131_207)"/>
<path d="M-109.065 -160.008C-228.669 -175.08 -311.745 -83.1386 -307.539 21.1711H-271.267C-274.751 -53.5979 -214.525 -134.204 -109.065 -126.456C-58.7409 -122.759 6.89779 -74.0427 61.9056 -10.6672C67.405 -4.89231 72.6461 0.655099 78.2593 6.48147L90.1528 18.1503C151.586 78.2498 203.885 156.346 321.885 181.696C435.067 201.081 526.23 111.693 526.23 5.211L491.561 0.516717C493.019 94.0953 418.733 159.283 322.078 148.144C247.417 139.54 162.084 55.6217 121.373 3.49909L107.993 -10.6672C102.548 -16.317 98.4619 -19.7726 93.1262 -25.3746C25.4815 -90.4457 -4.99579 -142.114 -109.065 -160.008Z" fill="url(#paint12_linear_131_207)"/>
<path d="M-127.058 227.932C-245.25 235.387 -326.562 121.81 -335.195 21.4027H-282.418C-272.754 101.927 -218.49 183.942 -127.058 169.031C-77.2533 160.908 -0.68839 155.242 54.3194 91.8666C59.8188 86.0918 65.06 80.5444 70.6731 74.718L82.5667 63.0492C144 2.94977 198.722 -100.129 316.722 -125.479C427.125 -140.598 518.057 -96.3781 521.142 5.74525L454.984 5.7446C441.23 -84.3846 392.414 -97.2657 316.722 -86.7091C254.521 -78.0341 156.785 16.3951 106.238 67.841L89.1407 84.244C83.6958 89.8938 78.2388 94.088 72.9031 99.69C5.2584 164.761 -22.9889 210.037 -127.058 227.932Z" fill="url(#paint13_linear_131_207)"/>
<path d="M-127.057 221.222C-245.249 228.678 -322.101 121.81 -330.734 21.4026H-271.266C-261.603 101.927 -207.338 204.819 -115.907 189.907C-66.1022 181.784 -0.687518 149.278 54.3203 85.9024C59.8197 80.1276 65.0608 74.5802 70.674 68.7538L82.5675 57.0849C144.001 -3.01448 196.3 -96.401 314.299 -121.751C424.702 -136.87 521.031 -96.3782 524.117 5.74513L463.162 5.74505C448.81 -87.7016 393.915 -105.137 314.299 -92.6733C253.088 -83.0906 159.132 7.98209 108.585 59.4279L90.001 77.3222C84.5562 82.972 78.983 86.6321 73.6474 92.2341C6.00262 157.305 -22.988 203.327 -127.057 221.222Z" fill="url(#paint14_linear_131_207)"/>
<path d="M-109.964 156.356C-228.156 163.811 -289.398 121.81 -298.031 21.4033C-275.301 21.9352 -262.649 21.7401 -240.05 20.6577C-230.387 101.182 -166.459 123.918 -89.1503 104.165C-40.2535 91.671 20.0058 43.2364 75.0136 -20.1391C80.513 -25.9139 88.1004 -33.1631 93.7135 -38.9895L108.58 -53.9014C170.013 -114.001 217.109 -192.582 330.842 -203.021C441.245 -218.139 556.707 -96.3769 559.793 5.74643L504.042 5.74672C497.582 -87.5694 430.212 -173.871 341.992 -160.522C276.893 -150.671 182.172 -97.5133 131.624 -46.0675L118.244 -31.9013C112.799 -26.2515 108.713 -22.7958 103.377 -17.1939C35.7323 47.8773 -5.89523 138.461 -109.964 156.356Z" fill="url(#paint15_linear_131_207)"/>
<path d="M-98.8107 131.384C-217.003 138.84 -290.138 121.811 -298.771 21.4038C-277.587 21.7108 -265.689 21.5825 -244.507 20.6573C-234.843 101.181 -187.269 126.532 -95.8373 111.62C-46.0329 103.497 17.8951 50.4811 72.9029 -12.8943C78.4023 -18.6692 82.9001 -23.471 88.5132 -29.2974L103.38 -42.7181C164.813 -102.818 211.909 -184.381 327.871 -200.038C440.117 -207.494 550.764 -96.3777 553.849 5.74565H505.532C499.072 -87.5705 419.065 -172.38 330.845 -159.031C265.746 -149.18 182.175 -87.0751 131.627 -35.6293L118.247 -21.463C112.802 -15.8132 108.716 -12.3576 103.38 -6.75563C35.7354 58.3155 5.25814 113.489 -98.8107 131.384Z" fill="url(#paint16_linear_131_207)"/>
<path d="M-98.811 143.68C-217.003 151.136 -288.652 122.923 -297.285 22.5162L-249.084 20.8682C-239.42 101.392 -190.243 133.61 -98.811 118.698C-49.0067 110.575 17.8947 57.5583 72.9025 -5.81716C78.4019 -11.592 86.6164 -19.3762 92.2296 -25.2026L104.123 -36.3865C165.556 -96.4859 217.112 -181.399 332.331 -192.215C443.09 -200.099 544.817 -96.3782 547.902 5.74515C530.312 5.76512 520.304 5.38417 502.558 4.99955C496.098 -88.3166 420.551 -164.179 332.331 -150.83C267.232 -140.979 182.175 -74.7788 131.627 -23.3329L118.247 -9.16669C112.802 -3.51687 108.715 -0.061313 103.38 5.54068C35.7351 70.6119 5.25777 125.786 -98.811 143.68Z" fill="url(#paint17_linear_131_207)"/>
<path d="M-98.8103 152.26C-217.003 159.716 -287.907 121.81 -296.541 21.4031C-279.441 21.3605 -270.716 21.4584 -253.543 20.8685C-243.879 101.393 -190.242 137.716 -98.8103 122.804C-49.0059 114.681 14.1787 65.3931 69.1866 2.01758C74.686 -3.75729 82.9005 -13.7783 88.5136 -19.6046L101.151 -30.7885C162.584 -90.888 217.856 -177.671 332.332 -185.872C445.321 -188.854 540.241 -96.3775 543.327 5.74578H500.329C493.869 -87.5703 420.552 -154.486 332.332 -141.136C267.233 -131.286 182.176 -66.1991 131.628 -14.7532L118.248 -0.587035C112.803 5.06278 108.716 8.51836 103.381 14.1204C35.7359 79.1915 5.25856 134.365 -98.8103 152.26Z" fill="url(#paint18_linear_131_207)"/>
<path d="M-98.8103 162.698C-217.003 170.154 -291.624 121.81 -300.258 21.403C-283.566 21.638 -274.815 21.5577 -257.887 20.6571C-248.223 101.181 -190.242 144.058 -98.8103 129.146C-49.006 121.023 11.9486 73.2267 66.9564 9.8512C72.4558 4.07632 79.1837 -4.08588 84.7968 -9.91225L99.6638 -25.5697C161.097 -85.6691 227.52 -173.197 332.332 -178.416C445.514 -181.777 536.641 -96.3778 539.726 5.7455C524.518 5.90823 515.759 5.40859 500.329 4.99963C493.868 -88.3165 420.552 -162.31 332.332 -148.96C267.233 -139.11 182.175 -55.7608 131.628 -4.31499L118.247 9.8512C112.803 15.501 108.716 18.9566 103.381 24.5586C35.7358 89.6297 5.25849 144.804 -98.8103 162.698Z" fill="url(#paint19_linear_131_207)"/>
<path d="M-124.829 211.896C-243.021 219.352 -314.669 121.81 -323.303 21.4031H-280.932C-271.268 101.927 -207.34 192.89 -115.908 177.978C-66.1041 169.855 -2.91944 136.224 52.0884 72.849C57.5878 67.0741 62.8289 61.5267 68.442 55.7003L80.3356 44.0315C141.769 -16.068 194.068 -94.164 312.067 -119.514C422.47 -134.633 518.799 -96.3777 521.885 5.74561L469.85 5.74572C455.498 -87.7009 392.593 -111.674 312.067 -98.6374C247.589 -88.1991 159.131 0.526598 108.583 51.9724L92.2292 69.8667C86.7844 75.5165 84.1846 76.9398 78.8489 82.5418C11.2042 147.613 -20.7598 194.002 -124.829 211.896Z" fill="url(#paint20_linear_131_207)"/>
<path d="M-121.113 205.565C-239.305 213.02 -310.21 121.81 -318.844 21.4029H-275.846C-266.182 101.927 -212.545 185.434 -121.113 170.522C-71.3086 162.399 -0.690524 123.928 54.3173 60.5521C59.8167 54.7773 65.0578 49.2298 70.6709 43.4034L82.5645 31.7346C143.997 -28.3648 196.297 -106.461 314.296 -131.811C424.699 -146.929 526.231 -96.3779 529.317 5.74539H478.026C469.142 -86.7417 400.042 -118.616 314.296 -106.094C249.148 -96.5793 161.359 -8.04239 110.812 43.4034L98.9182 56.4458C93.4734 62.0956 86.4135 68.738 81.0778 74.34C13.4331 139.411 -17.0442 187.67 -121.113 205.565Z" fill="url(#paint21_linear_131_207)"/>
<path d="M-116.651 194.381C-234.843 201.837 -306.491 121.81 -315.125 21.4028H-277.214C-267.551 101.927 -208.083 178.356 -116.651 163.444C-66.8465 155.322 -0.688492 107.525 54.3193 44.1493C59.8187 38.3744 65.0599 32.8269 70.673 27.0006L82.5666 15.3317C144 -44.7677 196.299 -122.864 314.298 -148.214C424.701 -163.332 523.26 -96.378 526.346 5.74533H483.975C477.515 -87.5708 402.711 -128.012 314.491 -114.662C249.392 -104.812 165.822 -20.3503 115.274 31.0955L101.894 45.2618C96.4488 50.9116 92.3623 54.5717 87.0267 60.1737C19.3819 125.245 -12.5821 176.486 -116.651 194.381Z" fill="url(#paint22_linear_131_207)"/>
<path d="M-98.8111 171.646C-217.004 179.102 -288.652 121.81 -297.285 21.4032C-282.877 21.3392 -274.783 21.3187 -260.861 20.6576C-251.198 101.182 -190.243 153.006 -98.8111 138.094C-49.0067 129.971 11.2045 80.3053 66.2123 16.9298C71.7117 11.155 79.1829 4.11637 84.7961 -1.71L96.6896 -13.6395C158.123 -73.7389 237.183 -167.232 332.331 -171.705C439.707 -181.307 531.592 -92.5992 536.636 5.95699L498.841 5.74576C492.381 -87.5704 420.551 -153.362 332.331 -140.012C267.232 -130.162 182.175 -46.813 131.627 4.63282L118.247 18.7991C112.802 24.4489 108.715 27.9044 103.38 33.5064C35.735 98.5776 5.25775 153.752 -98.8111 171.646Z" fill="url(#paint23_linear_131_207)"/>
<path d="M-109.217 185.066C-227.41 192.522 -299.058 121.443 -307.691 21.0354H-271.267C-261.604 101.56 -200.649 166.426 -109.217 151.514C-59.413 143.392 6.74508 95.5948 61.7529 32.2193C67.2523 26.4444 72.4934 20.897 78.1065 15.0707L90.0001 3.4018C151.433 -56.6976 203.732 -134.794 321.732 -160.144C432.135 -175.262 523.144 -96.1668 526.23 5.95656L491.554 5.74536C485.093 -87.5708 410.145 -139.941 321.925 -126.592C256.826 -116.742 171.768 -33.3928 121.221 18.053L107.84 32.2193C102.396 37.8691 98.3092 41.3247 92.9735 46.9267C25.3288 111.998 -5.1485 167.172 -109.217 185.066Z" fill="url(#paint24_linear_131_207)"/>
</g>
<defs>
<filter id="filter0_d_131_207" x="0.3" y="0.3" width="569.4" height="467.9" filterUnits="userSpaceOnUse" color-interpolation-filters="sRGB">
<feFlood flood-opacity="0" result="BackgroundImageFix"/>
<feColorMatrix in="SourceAlpha" type="matrix" values="0 0 0 0 0 0 0 0 0 0 0 0 0 0 0 0 0 0 127 0" result="hardAlpha"/>
<feOffset dy="-6"/>
<feGaussianBlur stdDeviation="3.35"/>
<feComposite in2="hardAlpha" operator="out"/>
<feColorMatrix type="matrix" values="0 0 0 0 0 0 0 0 0 0 0 0 0 0 0 0 0 0 0.3 0"/>
<feBlend mode="normal" in2="BackgroundImageFix" result="effect1_dropShadow_131_207"/>
<feBlend mode="normal" in="SourceGraphic" in2="effect1_dropShadow_131_207" result="shape"/>
</filter>
<filter id="filter1_dd_131_207" x="-367.693" y="-242.251" width="956.784" height="510.996" filterUnits="userSpaceOnUse" color-interpolation-filters="sRGB">
<feFlood flood-opacity="0" result="BackgroundImageFix"/>
<feColorMatrix in="SourceAlpha" type="matrix" values="0 0 0 0 0 0 0 0 0 0 0 0 0 0 0 0 0 0 127 0" result="hardAlpha"/>
<feOffset dx="4" dy="16"/>
<feGaussianBlur stdDeviation="20.65"/>
<feComposite in2="hardAlpha" operator="out"/>
<feColorMatrix type="matrix" values="0 0 0 0 0 0 0 0 0 0 0 0 0 0 0 0 0 0 0.2 0"/>
<feBlend mode="normal" in2="BackgroundImageFix" result="effect1_dropShadow_131_207"/>
<feColorMatrix in="SourceAlpha" type="matrix" values="0 0 0 0 0 0 0 0 0 0 0 0 0 0 0 0 0 0 127 0" result="hardAlpha"/>
<feOffset dx="-2" dy="-22"/>
<feGaussianBlur stdDeviation="20.45"/>
<feComposite in2="hardAlpha" operator="out"/>
<feColorMatrix type="matrix" values="0 0 0 0 0 0 0 0 0 0 0 0 0 0 0 0 0 0 0.2 0"/>
<feBlend mode="normal" in2="effect1_dropShadow_131_207" result="effect2_dropShadow_131_207"/>
<feBlend mode="normal" in="SourceGraphic" in2="effect2_dropShadow_131_207" result="shape"/>
</filter>
<linearGradient id="paint0_linear_131_207" x1="-325.555" y1="32.3775" x2="543.792" y2="29.5336" gradientUnits="userSpaceOnUse">
<stop offset="0.255" stop-color="#A087F1"/>
<stop offset="0.4899" stop-color="#EAE7F9"/>
<stop offset="0.49" stop-color="white"/>
<stop offset="0.4901" stop-color="#F4E9F3"/>
<stop offset="0.685" stop-color="#E056A3"/>
</linearGradient>
<linearGradient id="paint1_linear_131_207" x1="544.928" y1="-38.99" x2="-307.693" y2="-38.2489" gradientUnits="userSpaceOnUse">
<stop stop-color="#F684EB"/>
<stop offset="0.115" stop-color="#F379E7"/>
<stop offset="0.245" stop-color="#751396"/>
<stop offset="0.925" stop-color="#7E23A3"/>
<stop offset="1" stop-color="#D9CFFF"/>
</linearGradient>
<linearGradient id="paint2_linear_131_207" x1="544.928" y1="-31.5346" x2="-307.693" y2="-30.7935" gradientUnits="userSpaceOnUse">
<stop offset="0.035" stop-color="#FF8EE7"/>
<stop offset="0.125" stop-color="#EA66D8"/>
<stop offset="0.215" stop-color="#B51C94"/>
<stop offset="0.345" stop-color="#762DA0"/>
<stop offset="0.7" stop-color="#7F34B1"/>
<stop offset="0.95" stop-color="#6927A2"/>
<stop offset="1" stop-color="#CEC2FF"/>
</linearGradient>
<linearGradient id="paint3_linear_131_207" x1="544.928" y1="-24.0786" x2="-307.693" y2="-23.3374" gradientUnits="userSpaceOnUse">
<stop offset="0.105" stop-color="#F07EDE"/>
<stop offset="0.15" stop-color="#C444B7"/>
<stop offset="0.225" stop-color="#7F0686"/>
<stop offset="0.455" stop-color="#8136C2"/>
<stop offset="0.925" stop-color="#780EA3"/>
<stop offset="1" stop-color="#DEE5FF"/>
</linearGradient>
<linearGradient id="paint4_linear_131_207" x1="544.929" y1="-16.6229" x2="-307.692" y2="-15.8817" gradientUnits="userSpaceOnUse">
<stop offset="0.08" stop-color="#FA81E6"/>
<stop offset="0.15" stop-color="#D134A2"/>
<stop offset="0.175" stop-color="#BB13A5"/>
<stop offset="0.3" stop-color="#9846C8"/>
<stop offset="0.855" stop-color="#6B36B1"/>
<stop offset="1" stop-color="#CFD6FF"/>
</linearGradient>
<linearGradient id="paint5_linear_131_207" x1="544.926" y1="65.3931" x2="-307.695" y2="66.1342" gradientUnits="userSpaceOnUse">
<stop offset="0.015" stop-color="#790C62"/>
<stop offset="0.135" stop-color="#EA66D8"/>
<stop offset="0.185" stop-color="#F4ACEF"/>
<stop offset="0.275" stop-color="#FFE3FB"/>
<stop offset="0.345" stop-color="#F4AFEB"/>
<stop offset="0.44" stop-color="#B4A3FF"/>
<stop offset="0.615" stop-color="#B8A8FF"/>
<stop offset="0.67" stop-color="#FAF4FF"/>
<stop offset="0.775" stop-color="#9163B9"/>
<stop offset="0.9" stop-color="#311E9B"/>
</linearGradient>
<linearGradient id="paint6_linear_131_207" x1="544.925" y1="57.9368" x2="-307.697" y2="58.6779" gradientUnits="userSpaceOnUse">
<stop offset="0.025" stop-color="#840A5B"/>
<stop offset="0.1" stop-color="#EA66E1"/>
<stop offset="0.225" stop-color="#F9E0FB"/>
<stop offset="0.31" stop-color="#FCC0FF"/>
<stop offset="0.43" stop-color="#C09BFF"/>
<stop offset="0.615" stop-color="#C6A5FF"/>
<stop offset="0.675" stop-color="#F4F2FD"/>
<stop offset="0.735" stop-color="#BD94F7"/>
<stop offset="0.9" stop-color="#3C1F96"/>
</linearGradient>
<linearGradient id="paint7_linear_131_207" x1="544.929" y1="50.4813" x2="-307.692" y2="51.2224" gradientUnits="userSpaceOnUse">
<stop offset="0.06" stop-color="#7B0D54"/>
<stop offset="0.105" stop-color="#EA66E8"/>
<stop offset="0.18" stop-color="#F7C7F4"/>
<stop offset="0.245" stop-color="#FCE9FB"/>
<stop offset="0.325" stop-color="#F2A0E7"/>
<stop offset="0.41" stop-color="#B996FE"/>
<stop offset="0.575" stop-color="#B596FF"/>
<stop offset="0.685" stop-color="#E8E0FF"/>
<stop offset="0.77" stop-color="#B985EF"/>
<stop offset="0.915" stop-color="#3E109A"/>
</linearGradient>
<linearGradient id="paint8_linear_131_207" x1="545.587" y1="42.0596" x2="-308.366" y2="42.8075" gradientUnits="userSpaceOnUse">
<stop offset="0.02" stop-color="#8B0F66"/>
<stop offset="0.16" stop-color="#EB74DF"/>
<stop offset="0.26" stop-color="#FDEAFF"/>
<stop offset="0.335" stop-color="#F6BAF2"/>
<stop offset="0.44" stop-color="#A586F5"/>
<stop offset="0.59" stop-color="#AB8DF6"/>
<stop offset="0.665" stop-color="#F9F7FD"/>
<stop offset="0.77" stop-color="#A780EE"/>
<stop offset="0.87" stop-color="#5217B8"/>
</linearGradient>
<linearGradient id="paint9_linear_131_207" x1="544.93" y1="35.5695" x2="-307.691" y2="36.3106" gradientUnits="userSpaceOnUse">
<stop offset="0.04" stop-color="#9D1387"/>
<stop offset="0.12" stop-color="#E866EA"/>
<stop offset="0.195" stop-color="#EFB5F5"/>
<stop offset="0.255" stop-color="#FFEBF6"/>
<stop offset="0.3" stop-color="#F7C7F7"/>
<stop offset="0.38" stop-color="#C4A2FF"/>
<stop offset="0.59" stop-color="#C5A4FF"/>
<stop offset="0.66" stop-color="#F8F0FF"/>
<stop offset="0.75" stop-color="#A078F1"/>
<stop offset="0.875" stop-color="#4F0DA0"/>
</linearGradient>
<linearGradient id="paint10_linear_131_207" x1="544.927" y1="22.1479" x2="-307.694" y2="22.8891" gradientUnits="userSpaceOnUse">
<stop offset="0.03" stop-color="#B61B9E"/>
<stop offset="0.165" stop-color="#EA66D8"/>
<stop offset="0.24" stop-color="#FDECFF"/>
<stop offset="0.305" stop-color="#EAB6F5"/>
<stop offset="0.36" stop-color="#BA9FFF"/>
<stop offset="0.44" stop-color="#C0A7FF"/>
<stop offset="0.555" stop-color="#C2AAFF"/>
<stop offset="0.6" stop-color="#CEBCFF"/>
<stop offset="0.64" stop-color="#F7F3FF"/>
<stop offset="0.695" stop-color="#CEA0FF"/>
<stop offset="0.845" stop-color="#5E23A6"/>
</linearGradient>
<linearGradient id="paint11_linear_131_207" x1="544.93" y1="-9.1668" x2="-307.691" y2="-8.42565" gradientUnits="userSpaceOnUse">
<stop offset="0.065" stop-color="#F06EDC"/>
<stop offset="0.125" stop-color="#CF44B7"/>
<stop offset="0.235" stop-color="#B90CA2"/>
<stop offset="0.365" stop-color="#9B5ADA"/>
<stop offset="0.87" stop-color="#8447CB"/>
<stop offset="1" stop-color="#D7DCFA"/>
</linearGradient>
<linearGradient id="paint12_linear_131_207" x1="544.929" y1="1.6499" x2="-307.692" y2="2.39104" gradientUnits="userSpaceOnUse">
<stop stop-color="#EA69D9"/>
<stop offset="0.145" stop-color="#E578CD"/>
<stop offset="0.33" stop-color="#D6C4F5"/>
<stop offset="0.525" stop-color="#EBE6FE"/>
<stop offset="0.96" stop-color="#CEC4FD"/>
</linearGradient>
<linearGradient id="paint13_linear_131_207" x1="538.983" y1="41.9129" x2="-337.455" y2="107.133" gradientUnits="userSpaceOnUse">
<stop offset="0.115" stop-color="#F37AE7"/>
<stop offset="0.16" stop-color="#F9D4F1"/>
<stop offset="0.24" stop-color="#F7B3F2"/>
<stop offset="0.37" stop-color="#F939DF"/>
<stop offset="0.59" stop-color="#F338DC"/>
<stop offset="0.7349" stop-color="#6F2596"/>
<stop offset="0.735" stop-color="#6F2596"/>
<stop offset="0.77" stop-color="#9E51C2"/>
<stop offset="0.805" stop-color="#CBCFF4"/>
<stop offset="0.865" stop-color="#EBEFFF"/>
<stop offset="0.935" stop-color="#DACFFF"/>
</linearGradient>
<linearGradient id="paint14_linear_131_207" x1="538.984" y1="34.4565" x2="-337.454" y2="99.6764" gradientUnits="userSpaceOnUse">
<stop offset="0.08" stop-color="#F173DD"/>
<stop offset="0.15" stop-color="#F9D4F1"/>
<stop offset="0.2" stop-color="#F7B3F0"/>
<stop offset="0.355" stop-color="#EE55C9"/>
<stop offset="0.53" stop-color="#ED48C4"/>
<stop offset="0.74" stop-color="#8429B3"/>
<stop offset="0.775" stop-color="#9E51C2"/>
<stop offset="0.82" stop-color="#CBCFF4"/>
<stop offset="0.885" stop-color="#EBEFFF"/>
<stop offset="0.98" stop-color="#CEC2FF"/>
</linearGradient>
<linearGradient id="paint15_linear_131_207" x1="556.82" y1="-81.8565" x2="-319.617" y2="-16.6367" gradientUnits="userSpaceOnUse">
<stop offset="0.08" stop-color="#790C61"/>
<stop offset="0.175" stop-color="#660944"/>
<stop offset="0.56" stop-color="#D743C8"/>
<stop offset="0.715" stop-color="#9E51C2"/>
<stop offset="0.79" stop-color="#2D0B57"/>
<stop offset="0.875" stop-color="#311E9B"/>
</linearGradient>
<linearGradient id="paint16_linear_131_207" x1="556.823" y1="-71.4184" x2="-319.614" y2="-6.19856" gradientUnits="userSpaceOnUse">
<stop offset="0.08" stop-color="#840A5B"/>
<stop offset="0.19" stop-color="#730E45"/>
<stop offset="0.36" stop-color="#D345C5"/>
<stop offset="0.63" stop-color="#CF46C5"/>
<stop offset="0.72" stop-color="#9E51C2"/>
<stop offset="0.81" stop-color="#250C4E"/>
<stop offset="0.91" stop-color="#3C1E96"/>
</linearGradient>
<linearGradient id="paint17_linear_131_207" x1="556.823" y1="-60.9798" x2="-319.615" y2="4.24012" gradientUnits="userSpaceOnUse">
<stop offset="0.04" stop-color="#7B0D54"/>
<stop offset="0.19" stop-color="#7A1556"/>
<stop offset="0.455" stop-color="#E339E1"/>
<stop offset="0.565" stop-color="#D73DDB"/>
<stop offset="0.715" stop-color="#9E51C2"/>
<stop offset="0.81" stop-color="#320C69"/>
<stop offset="0.9" stop-color="#3E109A"/>
</linearGradient>
<linearGradient id="paint18_linear_131_207" x1="556.823" y1="-50.541" x2="-319.614" y2="14.6789" gradientUnits="userSpaceOnUse">
<stop offset="0.08" stop-color="#8B0F66"/>
<stop offset="0.2" stop-color="#950854"/>
<stop offset="0.425" stop-color="#E44CDA"/>
<stop offset="0.605" stop-color="#D74DD6"/>
<stop offset="0.71" stop-color="#9E51C2"/>
<stop offset="0.8" stop-color="#3A0E74"/>
<stop offset="0.89" stop-color="#5217B8"/>
</linearGradient>
<linearGradient id="paint19_linear_131_207" x1="556.823" y1="-40.1033" x2="-319.614" y2="25.1166" gradientUnits="userSpaceOnUse">
<stop offset="0.08" stop-color="#9D1387"/>
<stop offset="0.19" stop-color="#AF0763"/>
<stop offset="0.4349" stop-color="#DE51CC"/>
<stop offset="0.57" stop-color="#E155D3"/>
<stop offset="0.665" stop-color="#9E51C2"/>
<stop offset="0.735" stop-color="#622C91"/>
<stop offset="0.83" stop-color="#441977"/>
<stop offset="0.915" stop-color="#4F0DA0"/>
</linearGradient>
<linearGradient id="paint20_linear_131_207" x1="538.982" y1="27.0006" x2="-337.456" y2="92.2205" gradientUnits="userSpaceOnUse">
<stop offset="0.085" stop-color="#F07EDE"/>
<stop offset="0.155" stop-color="#F9D4F1"/>
<stop offset="0.2" stop-color="#F7B3F0"/>
<stop offset="0.37" stop-color="#EF56DB"/>
<stop offset="0.57" stop-color="#ED3BD5"/>
<stop offset="0.635" stop-color="#9926AA"/>
<stop offset="0.75" stop-color="#9E51C2"/>
<stop offset="0.835" stop-color="#CBCFF4"/>
<stop offset="0.875" stop-color="#EBEFFF"/>
<stop offset="0.975" stop-color="#DEE5FF"/>
</linearGradient>
<linearGradient id="paint21_linear_131_207" x1="538.981" y1="10.5973" x2="-337.457" y2="75.8172" gradientUnits="userSpaceOnUse">
<stop offset="0.07" stop-color="#FA81E6"/>
<stop offset="0.1" stop-color="#F7B3F0"/>
<stop offset="0.175" stop-color="#F9D4F2"/>
<stop offset="0.21" stop-color="#F7B3E8"/>
<stop offset="0.3" stop-color="#F939C9"/>
<stop offset="0.6" stop-color="#F94BCE"/>
<stop offset="0.7" stop-color="#9040B6"/>
<stop offset="0.765" stop-color="#A96FCE"/>
<stop offset="0.81" stop-color="#CBCFF4"/>
<stop offset="0.855" stop-color="#EBEFFF"/>
<stop offset="0.95" stop-color="#CFD6FF"/>
</linearGradient>
<linearGradient id="paint22_linear_131_207" x1="538.983" y1="-5.80578" x2="-337.455" y2="59.4141" gradientUnits="userSpaceOnUse">
<stop offset="0.08" stop-color="#F06EDC"/>
<stop offset="0.11" stop-color="#F9D4F2"/>
<stop offset="0.18" stop-color="#F7B3EB"/>
<stop offset="0.315" stop-color="#EC65CF"/>
<stop offset="0.565" stop-color="#E950C7"/>
<stop offset="0.695" stop-color="#9E51C2"/>
<stop offset="0.755" stop-color="#AD7BD3"/>
<stop offset="0.815" stop-color="#CBCFF4"/>
<stop offset="0.875" stop-color="#EBEFFF"/>
<stop offset="0.94" stop-color="#D7DCFA"/>
</linearGradient>
<linearGradient id="paint23_linear_131_207" x1="556.823" y1="-31.1556" x2="-319.615" y2="34.0642" gradientUnits="userSpaceOnUse">
<stop offset="0.08" stop-color="#B61B9D"/>
<stop offset="0.245" stop-color="#CD438B"/>
<stop offset="0.375" stop-color="#DC49DE"/>
<stop offset="0.59" stop-color="#CC4BD7"/>
<stop offset="0.725" stop-color="#9E51C2"/>
<stop offset="0.81" stop-color="#6129A3"/>
<stop offset="0.935" stop-color="#5D22A6"/>
</linearGradient>
<linearGradient id="paint24_linear_131_207" x1="546.416" y1="-17.7353" x2="-330.021" y2="47.4846" gradientUnits="userSpaceOnUse">
<stop offset="0.02" stop-color="#EA66D8"/>
<stop offset="0.45" stop-color="#FD9DEC"/>
<stop offset="0.625" stop-color="#F8D6FF"/>
<stop offset="0.945" stop-color="#CEC4FD"/>
</linearGradient>
</defs>
</svg>
