<svg width="962" height="962" viewBox="0 0 962 962" fill="none" xmlns="http://www.w3.org/2000/svg">
<g clip-path="url(#clip0_2_197)">
<path d="M813.908 608.395C744.137 772.678 558.283 864.711 397.109 839.886C370.883 835.846 298.983 823.813 235.326 767.043C112.782 657.759 86.5744 441.361 185.428 288.86C257.375 177.866 386.349 114.947 508.899 118.094C535.296 118.772 636.461 122.95 725.368 196.261C738.427 207.029 767.229 232.616 793.186 273.209C854.14 368.529 859.379 501.33 813.908 608.395Z" fill="#E1D1FB"/>
<path d="M151.155 139.056C150.482 136.192 154.51 134.289 156.977 136.289C182.025 156.601 242.208 217.424 227.209 323.718C208.391 457.08 240.563 505.743 280.609 535.426C280.609 535.426 225.613 521.467 191.011 472.088C106.057 350.853 163.116 189.972 151.155 139.056Z" fill="#CAAAFF"/>
<path d="M170.218 180.71C173.351 195.557 176.144 210.449 178.302 225.407C180.551 240.354 182.274 255.352 183.453 270.376C184.566 285.401 185.352 300.443 185.396 315.491C185.519 330.538 184.894 345.573 184.205 360.666C183.613 375.754 182.919 390.951 184.023 406.256C185.109 421.529 188.324 436.935 194.704 451.378C196.298 454.978 197.976 458.566 199.881 462.033C201.712 465.532 203.723 468.963 205.805 472.36C210.009 479.139 214.741 485.689 220.014 491.905C230.598 504.318 243.364 515.328 257.426 524.647C258.906 525.627 261.027 525.386 262.163 524.108C263.278 522.854 263.029 521.065 261.618 520.072L261.608 520.065C258.262 517.715 254.951 515.335 251.775 512.835C250.163 511.607 248.618 510.32 247.045 509.058C245.53 507.747 243.955 506.486 242.488 505.135C236.516 499.821 230.985 494.15 225.966 488.155C215.87 476.219 207.789 462.919 201.666 449.131C198.694 442.205 196.318 435.102 194.583 427.866C192.855 420.628 191.767 413.264 191.166 405.84C189.962 390.986 190.506 375.939 190.972 360.849C191.415 345.754 191.74 330.583 191.342 315.424C191.166 307.845 190.833 300.269 190.343 292.703C190.123 288.919 189.818 285.139 189.522 281.359C189.183 277.581 188.82 273.806 188.422 270.035C186.796 254.949 184.638 239.913 181.932 224.958C179.144 210.013 175.898 195.138 171.993 180.395C171.881 179.974 171.395 179.711 170.907 179.807C170.433 179.901 170.132 180.301 170.218 180.71Z" fill="#E1D1FB"/>
<path d="M216.041 458.268C212.97 461.527 207.569 460.59 205.721 456.511C195.527 434.005 172.458 367.766 210.557 291.456C242.73 227.015 254.052 189.015 257.996 171.408C258.83 167.685 263.932 167.191 265.473 170.682C282.464 209.194 327.328 340.194 216.041 458.268Z" fill="#AD7EFA"/>
<path d="M210.463 455.893C210.353 455.913 210.241 455.922 210.126 455.92C209.16 455.905 208.39 455.111 208.405 454.146C208.421 453.051 210.551 343.657 251.238 252.036C251.63 251.154 252.662 250.756 253.546 251.147C254.428 251.54 254.826 252.572 254.434 253.455C214.043 344.41 211.917 453.112 211.9 454.199C211.888 455.049 211.27 455.749 210.463 455.893Z" fill="#D0B4FF"/>
<path d="M651.453 289.292C641.713 272.183 634.218 249.175 649.525 231.954C677.174 200.85 732.469 193.939 746.293 242.322C752.011 262.337 747.973 277.894 741.27 289.256C735.062 299.78 742.715 313.043 754.934 313.043H843.06V430.626C843.06 441.243 831.132 447.321 822.409 441.267C763.289 400.234 732.462 448.634 732.396 470.417C732.324 494.609 742.837 551.633 780.853 549.904C798.225 549.116 812.712 543.273 823.321 537.162C832.107 532.101 843.06 538.264 843.06 548.403V657.999H751.858C741.03 657.999 734.572 669.958 740.462 679.044C747.23 689.483 752.896 704.618 753.205 726.159C753.991 780.992 670.261 771.087 649.525 753.808C634.714 741.464 634.104 701.888 645.637 677.413C649.897 668.37 642.89 657.999 632.893 657.999H544.119V538.069C544.119 529.327 534.623 523.95 527.106 528.417C511.828 537.496 488.229 548.879 464.631 549.904C424.887 551.633 419.703 506.705 417.975 472.145C416.448 441.622 474.641 392.211 520.577 422.334C528.104 427.27 543.552 434.492 543.552 425.492V313.042H637.759C649.958 313.042 657.488 299.894 651.453 289.292Z" fill="#AF3AF9"/>
<path d="M700.295 769.21C695.654 769.21 690.847 768.904 685.933 768.284C670.113 766.288 655.734 761.256 648.407 755.15C632.424 741.83 632.655 700.862 644.055 676.667C645.769 673.031 645.49 668.957 643.291 665.492C641.009 661.894 637.122 659.747 632.893 659.747H544.119C543.154 659.747 542.371 658.964 542.371 657.998V538.068C542.371 534.608 540.581 531.523 537.583 529.817C534.573 528.103 530.991 528.14 527.999 529.919C512.279 539.261 488.536 550.614 464.708 551.65C446.385 552.464 433.16 543.587 425.438 525.312C418.888 509.81 417.107 489.78 416.229 472.23C415.395 455.549 430.88 434.226 453.049 421.527C476.622 408.026 501.584 407.788 521.536 420.871C528.465 425.415 537.826 429.299 540.868 427.661C541.124 427.523 541.803 427.156 541.803 425.491V313.041C541.803 312.076 542.586 311.293 543.552 311.293H637.76C642.822 311.293 647.36 308.689 649.895 304.329C652.46 299.917 652.475 294.619 649.935 290.155C636.018 265.713 635.425 245.185 648.219 230.791C665.12 211.779 691.977 201.934 713.513 206.843C730.387 210.69 742.626 223.119 747.975 241.841C753.019 259.495 751.269 275.746 742.777 290.144C740.197 294.517 740.163 299.765 742.685 304.183C745.228 308.634 749.807 311.293 754.934 311.293H843.061C844.027 311.293 844.809 312.076 844.809 313.041V430.624C844.809 436.223 841.857 441.109 836.911 443.697C831.964 446.284 826.026 445.903 821.413 442.703C792.076 422.34 771.585 425.541 759.559 431.808C742.274 440.818 734.176 460.176 734.146 470.421C734.09 489.145 740.106 522.848 756.911 538.956C763.709 545.471 771.715 548.556 780.774 548.156C795.15 547.504 809.171 543.295 822.449 535.645C827.167 532.926 832.777 532.919 837.456 535.621C842.061 538.283 844.809 543.061 844.809 548.402V657.998C844.809 658.963 844.026 659.746 843.061 659.746H751.859C747.437 659.746 743.543 662.056 741.44 665.924C739.328 669.811 739.511 674.36 741.93 678.092C750.3 691.002 754.682 707.166 754.954 726.133C755.197 743.059 747.478 755.75 732.634 762.834C723.822 767.039 712.65 769.21 700.295 769.21ZM545.868 656.25H632.893C638.326 656.25 643.317 659.005 646.244 663.619C649.055 668.05 649.42 673.486 647.219 678.158C635.471 703.091 637.231 741.285 650.645 752.465C664.392 763.921 705.916 771.709 731.128 759.679C744.842 753.135 751.683 741.866 751.457 726.184C751.195 707.885 747.002 692.345 738.997 679.995C735.869 675.171 735.633 669.287 738.368 664.256C741.092 659.244 746.135 656.25 751.859 656.25H841.313V548.403C841.313 544.325 839.217 540.679 835.706 538.65C832.123 536.579 827.82 536.588 824.194 538.676C810.428 546.607 795.873 550.972 780.933 551.65C770.916 552.112 762.009 548.685 754.492 541.481C736.893 524.613 730.591 489.738 730.649 470.412C730.683 458.985 739.174 438.492 757.943 428.708C770.822 421.994 792.636 418.473 823.407 439.831C827 442.325 831.443 442.611 835.29 440.6C839.062 438.626 841.313 434.897 841.313 430.625V314.79H754.934C748.536 314.79 742.821 311.473 739.649 305.917C736.496 300.396 736.539 293.836 739.765 288.367C747.752 274.828 749.383 259.497 744.613 242.803C738.226 220.451 723.753 212.765 712.735 210.253C692.38 205.606 666.923 215.012 650.832 233.115C642.671 242.297 636.417 259.347 652.973 288.426C656.137 293.984 656.116 300.586 652.918 306.087C649.749 311.537 644.083 314.79 637.76 314.79H545.3V425.491C545.3 428.592 543.794 430.055 542.53 430.738C535.853 434.344 520.279 424.229 519.619 423.796C500.806 411.456 477.176 411.736 454.787 424.562C434.036 436.447 418.962 456.866 419.721 472.056C420.584 489.301 422.32 508.951 428.658 523.952C435.852 540.976 447.583 548.893 464.556 548.157C487.658 547.153 510.837 536.05 526.214 526.912C530.3 524.484 535.196 524.436 539.313 526.778C543.417 529.113 545.868 533.334 545.868 538.068V656.25Z" fill="#FCFCFC"/>
<path d="M208 532.226C197.632 539.184 183.95 545.951 168.526 547.493C134.375 550.908 120.716 513.343 119.007 480.899C117.301 448.457 146.328 417.721 171.941 421.137C184.005 422.745 197.204 430.413 207.795 438.077C216.347 444.267 228.289 438.18 228.289 427.622V311.095H346.177C356.002 311.095 362.514 300.95 358.408 292.023C349.159 271.919 338.769 241.371 353.259 228.186C375.777 207.695 436.608 207.695 446.853 238.431C452.589 255.641 444.796 276.346 436.827 291.236C432.021 300.213 438.507 311.048 448.688 311.048H549.305V418.964C549.305 430.477 536.284 437.63 526.896 430.968C483.372 400.078 435.84 432.662 431.485 468.947C426.362 511.635 453.683 547.493 482.711 544.079C497.451 542.344 514.392 534.006 527.499 526.217C537.125 520.497 549.305 527.367 549.305 538.564V657.762H433.416C420.156 657.762 411.286 643.93 417.034 631.98C423.884 617.741 451.955 600.258 450.268 586.766C446.853 559.446 386.023 552.686 353.259 557.774C328.252 561.656 340.683 600.774 354.896 632.122C360.344 644.138 351.667 657.762 338.475 657.762H228.289V542.839C228.289 532.406 216.663 526.413 208 532.226Z" fill="#AF3AF9"/>
<path d="M549.305 659.51H433.417C426.529 659.51 420.226 656.024 416.555 650.185C412.931 644.419 412.521 637.33 415.459 631.222C418.403 625.102 425.04 618.464 431.458 612.046C440.289 603.214 449.422 594.081 448.535 586.983C447.877 581.727 444.802 576.994 439.391 572.914C427.063 563.616 390.367 553.782 353.528 559.501C348.552 560.274 345.12 562.523 343.036 566.378C337.334 576.928 341.986 599.412 356.488 631.399C359.307 637.616 358.791 644.739 355.108 650.453C351.452 656.124 345.235 659.51 338.476 659.51H228.29C227.325 659.51 226.542 658.727 226.542 657.762V542.839C226.542 538.661 224.354 534.999 220.69 533.045C216.932 531.042 212.552 531.277 208.975 533.678C195.582 542.666 182.031 547.899 168.701 549.232C157.685 550.335 148.054 547.41 140.054 540.544C133.865 535.232 119.253 518.795 117.263 480.991C116.348 463.606 124.264 444.977 137.92 432.372C148.469 422.634 160.958 417.909 172.174 419.403C182.584 420.791 194.914 426.597 208.822 436.66C212.298 439.176 216.65 439.517 220.462 437.569C224.269 435.625 226.542 431.906 226.542 427.622V311.095C226.542 310.129 227.325 309.347 228.29 309.347H346.178C350.197 309.347 353.888 307.332 356.05 303.957C358.21 300.586 358.498 296.398 356.821 292.753C346.44 270.187 337.191 240.445 352.084 226.892C366.356 213.904 395.945 208.535 419.442 214.672C434.512 218.606 444.837 226.847 448.513 237.877C454.494 255.821 446.298 277.247 438.369 292.06C436.405 295.731 436.506 300.049 438.64 303.612C440.773 307.172 444.53 309.299 448.69 309.299H549.306C550.272 309.299 551.054 310.082 551.054 311.047V418.964C551.054 425.08 547.653 430.636 542.177 433.465C536.819 436.232 530.729 435.832 525.887 432.393C507.443 419.303 486.71 416.781 467.508 425.29C448.888 433.539 435.43 450.758 433.222 469.155C430.428 492.437 437.591 515.82 451.916 530.178C460.991 539.274 471.848 543.598 482.509 542.342C497.383 540.591 514.7 531.789 526.607 524.713C531.69 521.692 537.787 521.63 542.912 524.546C548.01 527.447 551.054 532.687 551.054 538.564V657.761C551.054 658.727 550.271 659.51 549.305 659.51ZM375.68 554.492C398.607 554.492 426.279 558.645 441.497 570.122C447.69 574.793 451.225 580.32 452.004 586.549C453.103 595.344 443.356 605.092 433.93 614.518C427.719 620.73 421.295 627.154 418.61 632.738C416.196 637.756 416.535 643.583 419.516 648.324C422.543 653.139 427.739 656.013 433.417 656.013H547.557V538.564C547.557 533.961 545.174 529.857 541.182 527.585C537.164 525.299 532.383 525.348 528.392 527.72C516.193 534.968 498.401 543.992 482.916 545.815C471.186 547.198 459.287 542.52 449.439 532.647C434.375 517.548 426.83 493.06 429.75 468.739C432.101 449.142 446.366 430.833 466.091 422.093C486.467 413.068 508.422 415.712 527.908 429.542C531.667 432.209 536.4 432.514 540.57 430.359C544.88 428.133 547.557 423.766 547.557 418.964V312.796H448.689C443.288 312.796 438.409 310.034 435.639 305.409C432.867 300.781 432.735 295.175 435.285 290.411C442.89 276.203 450.783 255.747 445.195 238.984C441.905 229.113 432.445 221.681 418.559 218.055C396.086 212.19 367.923 217.207 354.435 229.479C348.413 234.96 341.126 250.277 359.997 291.292C362.174 296.025 361.798 301.465 358.993 305.844C356.185 310.227 351.394 312.843 346.177 312.843H230.038V427.622C230.038 433.163 226.978 438.168 222.051 440.684C217.121 443.203 211.265 442.747 206.77 439.493C193.527 429.91 181.404 424.162 171.711 422.869C161.529 421.508 150.073 425.912 140.292 434.941C127.378 446.86 119.893 464.435 120.754 480.807C122.086 506.099 130.152 527.439 142.332 537.892C149.577 544.11 158.332 546.76 168.352 545.753C181.105 544.478 194.116 539.439 207.027 530.774C211.626 527.689 217.491 527.377 222.335 529.96C227.159 532.532 230.038 537.347 230.038 542.839V656.013H338.476C344.041 656.013 349.16 653.226 352.17 648.559C355.206 643.848 355.63 637.974 353.304 632.844C338.119 599.351 333.629 576.429 339.961 564.716C342.563 559.901 346.947 556.985 352.992 556.046C359.314 555.064 367.17 554.492 375.68 554.492Z" fill="#FCFCFC"/>
<g opacity="0.3">
<path d="M668.798 237.389C667.713 237.592 666.627 236.946 666.306 235.865C665.602 233.5 664.991 231.069 664.488 228.64C664.244 227.459 665.004 226.303 666.185 226.058C666.199 226.056 666.213 226.053 666.227 226.051C667.394 225.832 668.525 226.588 668.767 227.755C669.243 230.063 669.824 232.372 670.493 234.619C670.837 235.775 670.179 236.991 669.022 237.336C668.948 237.358 668.873 237.375 668.798 237.389ZM665.439 218.658C665.355 218.674 665.269 218.684 665.182 218.69C663.978 218.771 662.937 217.861 662.856 216.657C662.69 214.185 662.628 211.681 662.672 209.215C662.693 208.009 663.684 207.052 664.895 207.07C666.101 207.091 667.061 208.087 667.04 209.293C666.998 211.637 667.057 214.015 667.215 216.365C667.29 217.481 666.513 218.457 665.439 218.658ZM666.289 199.652C666.05 199.697 665.799 199.702 665.545 199.662C664.354 199.473 663.541 198.354 663.73 197.162C664.117 194.72 664.616 192.264 665.212 189.863C665.503 188.692 666.688 187.98 667.858 188.269C669.029 188.559 669.743 189.745 669.452 190.915C668.886 193.195 668.412 195.527 668.044 197.847C667.896 198.784 667.171 199.487 666.289 199.652ZM671.367 181.311C670.972 181.384 670.552 181.35 670.152 181.189C669.033 180.739 668.491 179.466 668.942 178.347C669.867 176.051 670.902 173.769 672.018 171.561C672.563 170.486 673.877 170.055 674.954 170.599C676.03 171.143 676.461 172.458 675.916 173.534C674.856 175.63 673.872 177.798 672.994 179.98C672.705 180.698 672.076 181.178 671.367 181.311ZM680.408 164.562C679.854 164.665 679.261 164.556 678.761 164.209C677.77 163.521 677.524 162.16 678.212 161.17C679.62 159.142 681.134 157.145 682.713 155.237C683.481 154.307 684.858 154.176 685.788 154.946C686.718 155.715 686.848 157.092 686.079 158.022C684.578 159.835 683.139 161.733 681.801 163.66C681.46 164.152 680.953 164.46 680.408 164.562ZM692.928 150.232C692.211 150.366 691.443 150.138 690.913 149.56C690.099 148.669 690.16 147.288 691.05 146.473C692.874 144.804 694.792 143.192 696.752 141.683C697.708 140.947 699.08 141.126 699.816 142.082C700.551 143.037 700.373 144.409 699.417 145.145C697.555 146.579 695.732 148.11 693.999 149.696C693.688 149.982 693.315 150.159 692.928 150.232ZM770.654 130.409C770.357 130.465 770.044 130.459 769.731 130.382C767.452 129.82 765.118 129.35 762.794 128.986C761.602 128.799 760.787 127.682 760.975 126.49C761.161 125.298 762.279 124.483 763.471 124.67C765.918 125.054 768.377 125.548 770.776 126.139C771.948 126.428 772.663 127.612 772.374 128.783C772.163 129.643 771.47 130.257 770.654 130.409ZM708.303 139.039C707.412 139.206 706.475 138.803 706.002 137.971C705.406 136.922 705.773 135.589 706.822 134.992C708.971 133.77 711.2 132.627 713.447 131.594C714.545 131.095 715.84 131.569 716.344 132.666C716.848 133.762 716.368 135.059 715.272 135.563C713.138 136.544 711.022 137.63 708.98 138.79C708.764 138.913 708.535 138.996 708.303 139.039ZM751.782 127.967C751.641 127.993 751.494 128.007 751.345 128.004C748.996 127.967 746.616 128.031 744.268 128.193C743.065 128.276 742.021 127.367 741.938 126.164C741.856 124.961 742.762 123.912 743.967 123.834C746.437 123.664 748.942 123.597 751.413 123.636C752.62 123.655 753.582 124.649 753.563 125.855C753.546 126.911 752.782 127.78 751.782 127.967ZM725.792 131.562C724.709 131.765 723.624 131.121 723.301 130.042C722.955 128.886 723.611 127.669 724.766 127.322C727.132 126.613 729.561 125.996 731.985 125.491C732 125.488 732.015 125.485 732.031 125.482C733.196 125.264 734.326 126.017 734.569 127.183C734.816 128.364 734.059 129.521 732.877 129.767C730.575 130.248 728.268 130.834 726.02 131.507C725.945 131.529 725.868 131.548 725.792 131.562Z" fill="#988DF8"/>
<path d="M785.153 135.413C784.731 135.492 784.28 135.448 783.858 135.258C782.831 134.795 781.777 134.347 780.726 133.924C779.607 133.474 779.064 132.202 779.514 131.083C779.963 129.963 781.236 129.419 782.355 129.871C783.462 130.315 784.57 130.787 785.651 131.273C786.75 131.768 787.241 133.062 786.747 134.161C786.441 134.84 785.833 135.286 785.153 135.413Z" fill="#988DF8"/>
</g>
<g opacity="0.3">
<path d="M830.393 184.287C829.357 184.48 828.305 183.899 827.938 182.875C827.559 181.815 827.15 180.744 826.725 179.695C826.272 178.576 826.811 177.303 827.929 176.85C829.052 176.395 830.321 176.936 830.774 178.054C831.222 179.159 831.652 180.286 832.051 181.403C832.457 182.538 831.866 183.789 830.731 184.196C830.619 184.236 830.506 184.266 830.393 184.287Z" fill="#988DF8"/>
<path d="M766.033 296.628C765.045 296.812 764.05 296.981 763.049 297.134C761.856 297.315 760.742 296.496 760.56 295.303C760.378 294.111 761.203 292.991 762.391 292.814C764.702 292.462 766.994 292.017 769.228 291.485C770.403 291.207 771.579 291.93 771.859 293.103C772.139 294.277 771.414 295.455 770.24 295.735C768.858 296.064 767.443 296.364 766.033 296.628ZM751.555 298.087C751.436 298.109 751.312 298.122 751.185 298.124C748.748 298.162 746.283 298.097 743.857 297.931C742.653 297.849 741.745 296.806 741.827 295.603C741.91 294.399 742.954 293.487 744.156 293.573C746.46 293.731 748.802 293.792 751.118 293.757C752.324 293.738 753.317 294.7 753.336 295.906C753.352 296.986 752.583 297.895 751.555 298.087ZM781.211 292.301C780.198 292.491 779.163 291.94 778.776 290.946C778.338 289.821 778.896 288.555 780.02 288.118C782.171 287.282 784.315 286.341 786.394 285.323C787.479 284.793 788.786 285.24 789.317 286.323C789.848 287.407 789.4 288.716 788.316 289.246C786.127 290.319 783.869 291.309 781.604 292.19C781.474 292.24 781.342 292.277 781.211 292.301ZM732.908 296.314C732.636 296.365 732.349 296.364 732.061 296.304C729.677 295.806 727.286 295.2 724.955 294.503C723.799 294.157 723.142 292.941 723.488 291.785C723.833 290.628 725.049 289.971 726.206 290.317C728.42 290.979 730.69 291.555 732.954 292.027C734.135 292.273 734.892 293.431 734.645 294.612C734.459 295.505 733.753 296.156 732.908 296.314ZM797.795 283.628C796.965 283.783 796.083 283.446 795.581 282.701C794.907 281.7 795.172 280.342 796.172 279.668C798.085 278.38 799.97 276.991 801.775 275.541C802.715 274.785 804.091 274.934 804.846 275.876C805.602 276.816 805.452 278.19 804.512 278.946C802.612 280.473 800.627 281.935 798.613 283.292C798.358 283.464 798.079 283.575 797.795 283.628ZM812.075 271.525C811.411 271.649 810.699 271.465 810.171 270.965C809.294 270.136 809.256 268.753 810.085 267.877C811.675 266.196 813.213 264.429 814.655 262.624C815.407 261.681 816.781 261.527 817.726 262.281C818.668 263.035 818.821 264.409 818.068 265.352C816.55 267.251 814.932 269.111 813.259 270.879C812.929 271.227 812.513 271.443 812.075 271.525ZM823.376 256.597C822.872 256.691 822.332 256.609 821.856 256.325C820.82 255.707 820.482 254.366 821.1 253.33C822.288 251.341 823.404 249.282 824.418 247.207C824.947 246.124 826.254 245.673 827.34 246.204C828.423 246.734 828.872 248.042 828.343 249.126C827.275 251.309 826.101 253.478 824.851 255.57C824.517 256.129 823.971 256.486 823.376 256.597ZM831.153 239.56C830.803 239.626 830.433 239.607 830.071 239.488C828.925 239.111 828.301 237.877 828.678 236.73C829.402 234.532 830.039 232.278 830.573 230.031C830.852 228.857 832.031 228.131 833.202 228.41C834.376 228.689 835.102 229.866 834.823 231.04C834.261 233.407 833.59 235.781 832.828 238.095C832.57 238.88 831.91 239.419 831.153 239.56ZM835.001 221.226C834.804 221.262 834.599 221.272 834.39 221.252C833.189 221.137 832.309 220.07 832.424 218.87C832.644 216.572 832.769 214.234 832.795 211.92C832.808 210.714 833.801 209.748 835.004 209.761C836.21 209.774 837.177 210.763 837.164 211.97C837.136 214.405 837.005 216.867 836.773 219.286C836.678 220.277 835.934 221.051 835.001 221.226ZM834.727 202.506C834.683 202.514 834.639 202.521 834.593 202.527C833.397 202.676 832.305 201.826 832.156 200.629C831.945 198.939 831.68 197.236 831.368 195.565C831.255 194.96 831.135 194.358 831.01 193.759C830.762 192.578 831.519 191.42 832.7 191.173C833.89 190.899 835.038 191.682 835.286 192.862C835.418 193.493 835.544 194.126 835.663 194.762C835.991 196.52 836.27 198.312 836.491 200.089C836.635 201.241 835.853 202.295 834.727 202.506Z" fill="#988DF8"/>
<path d="M715.062 290.455C714.636 290.535 714.181 290.489 713.757 290.296C712.68 289.805 711.594 289.282 710.529 288.742C709.452 288.197 709.022 286.882 709.568 285.806C710.113 284.73 711.426 284.299 712.503 284.845C713.516 285.358 714.548 285.855 715.569 286.32C716.666 286.82 717.151 288.116 716.65 289.214C716.343 289.887 715.737 290.329 715.062 290.455Z" fill="#988DF8"/>
</g>
<path d="M713.303 265.008C713.636 265.289 714.111 265.328 714.485 265.105L725.16 258.746C730.33 261.381 735.957 263.212 741.866 264.082L746.883 275.441C747.059 275.839 747.469 276.082 747.902 276.046L762.755 274.797C763.189 274.761 763.552 274.453 763.659 274.031L766.709 261.993C772.389 260.149 777.632 257.405 782.289 253.943L793.877 258.43C794.283 258.588 794.744 258.47 795.025 258.137L804.645 246.752C804.926 246.419 804.965 245.945 804.742 245.571L798.383 234.896C801.018 229.726 802.849 224.098 803.719 218.19L815.078 213.173C815.476 212.997 815.719 212.588 815.683 212.154L814.434 197.301C814.398 196.867 814.09 196.504 813.668 196.397L801.63 193.347C799.786 187.667 797.042 182.424 793.58 177.767L798.068 166.179C798.225 165.773 798.107 165.311 797.774 165.03L786.389 155.411C786.057 155.13 785.582 155.091 785.208 155.314L774.532 161.673C769.362 159.037 763.735 157.207 757.827 156.337L752.81 144.978C752.634 144.579 752.224 144.336 751.79 144.373L736.938 145.621C736.504 145.658 736.141 145.966 736.033 146.388L732.983 158.425C727.303 160.27 722.06 163.014 717.403 166.476L705.816 161.988C705.41 161.831 704.948 161.949 704.667 162.281L695.048 173.667C694.767 173.999 694.728 174.474 694.951 174.848L701.309 185.523C698.674 190.693 696.844 196.321 695.974 202.229L684.614 207.246C684.216 207.422 683.973 207.832 684.009 208.266L685.258 223.118C685.295 223.552 685.602 223.915 686.024 224.022L698.062 227.073C699.906 232.752 702.65 237.995 706.112 242.653L701.625 254.24C701.467 254.646 701.585 255.107 701.918 255.389L713.303 265.008Z" fill="#988DF8"/>
<path d="M752.59 224.939C745.411 226.281 738.122 222.188 735.678 215.08C732.993 207.267 737.163 198.727 744.975 196.041C748.76 194.739 752.825 194.99 756.42 196.746C760.016 198.502 762.713 201.553 764.014 205.338C766.7 213.151 762.529 221.691 754.717 224.377C754.013 224.619 753.302 224.806 752.59 224.939ZM747.759 198.911C747.204 199.015 746.655 199.159 746.111 199.346C740.122 201.405 736.924 207.954 738.983 213.944C741.043 219.933 747.59 223.134 753.581 221.072C759.571 219.013 762.768 212.464 760.709 206.474C759.711 203.572 757.644 201.233 754.886 199.887C752.646 198.793 750.166 198.461 747.759 198.911Z" fill="#B7B2FF"/>
<path d="M756.868 246.153C755.635 246.384 754.383 246.553 753.116 246.66C752.718 246.694 752.318 246.721 751.918 246.741C749.947 246.843 747.971 246.788 746.021 246.577C745.994 246.575 745.967 246.572 745.941 246.569C745.866 246.56 745.79 246.552 745.715 246.542C745.568 246.526 745.421 246.507 745.275 246.489C744.89 246.439 744.596 246.146 744.528 245.783C744.511 245.696 744.508 245.603 744.52 245.51C744.582 245.031 745.02 244.695 745.498 244.756C747.961 245.074 750.474 245.128 752.969 244.918C765.36 243.878 775.72 236.483 781.113 226.214C784.113 220.503 785.576 213.902 784.997 207.01C784.895 205.802 784.734 204.607 784.514 203.432C783.033 195.518 778.91 188.412 772.677 183.146C765.517 177.097 756.43 174.198 747.09 174.983C727.801 176.607 713.441 193.61 715.062 212.89C715.162 214.079 715.322 215.259 715.54 216.423C716.485 221.472 718.523 226.257 721.527 230.429C721.604 230.537 721.654 230.656 721.677 230.779C721.737 231.101 721.612 231.444 721.328 231.648C720.935 231.929 720.391 231.843 720.108 231.449C716.955 227.069 714.814 222.045 713.822 216.745C713.593 215.522 713.426 214.285 713.32 213.037C711.618 192.794 726.708 174.943 746.943 173.241C756.749 172.416 766.288 175.46 773.804 181.811C780.348 187.339 784.676 194.798 786.231 203.107C786.462 204.341 786.632 205.595 786.739 206.863C787.563 216.67 784.52 226.209 778.169 233.725C772.64 240.271 765.178 244.599 756.868 246.153Z" fill="#B7B2FF"/>
<g opacity="0.3">
<path d="M606.103 307.674C605.53 307.781 604.931 307.505 604.653 306.958C604.134 305.937 603.639 304.887 603.182 303.835C602.885 303.152 603.197 302.358 603.881 302.06C604.564 301.759 605.359 302.076 605.656 302.759C606.092 303.76 606.564 304.762 607.059 305.736C607.397 306.399 607.132 307.212 606.468 307.55C606.35 307.61 606.227 307.65 606.103 307.674Z" fill="#988DF8"/>
<path d="M602.269 298.029C601.597 298.155 600.925 297.753 600.728 297.084C600.171 295.192 599.705 293.25 599.342 291.313C599.266 290.905 599.194 290.495 599.126 290.083C599.005 289.346 599.546 288.673 600.237 288.53C600.972 288.409 601.666 288.907 601.788 289.641C601.853 290.035 601.922 290.427 601.995 290.817C602.34 292.665 602.785 294.517 603.316 296.321C603.527 297.036 603.118 297.786 602.404 297.997C602.358 298.01 602.313 298.021 602.269 298.029ZM599.986 284.208C599.924 284.219 599.859 284.228 599.794 284.23C599.049 284.261 598.42 283.683 598.388 282.938C598.288 280.55 598.335 278.134 598.528 275.759C598.588 275.015 599.243 274.464 599.982 274.523C600.725 274.584 601.277 275.234 601.217 275.977C601.033 278.243 600.989 280.548 601.084 282.826C601.113 283.504 600.635 284.086 599.986 284.208ZM601.124 270.245C600.955 270.277 600.778 270.276 600.601 270.24C599.871 270.088 599.404 269.373 599.556 268.643C600.044 266.307 600.683 263.974 601.457 261.713C601.698 261.007 602.463 260.632 603.17 260.874C603.875 261.115 604.251 261.882 604.01 262.587C603.272 264.744 602.662 266.966 602.198 269.195C602.082 269.746 601.645 270.148 601.124 270.245ZM605.659 256.99C605.384 257.041 605.092 257.007 604.822 256.877C604.152 256.55 603.873 255.742 604.199 255.072C605.247 252.922 606.437 250.819 607.737 248.821C608.144 248.196 608.981 248.021 609.604 248.426C610.228 248.832 610.405 249.667 609.999 250.293C608.759 252.198 607.624 254.205 606.625 256.255C606.43 256.654 606.065 256.914 605.659 256.99ZM613.294 245.244C612.911 245.316 612.499 245.221 612.177 244.95C611.607 244.471 611.533 243.62 612.012 243.05C613.55 241.222 615.214 239.471 616.96 237.847C617.506 237.338 618.359 237.37 618.867 237.916C619.375 238.462 619.344 239.316 618.799 239.823C617.133 241.373 615.545 243.042 614.078 244.787C613.869 245.034 613.59 245.189 613.294 245.244ZM623.547 235.709C623.05 235.801 622.521 235.609 622.205 235.173C621.768 234.569 621.904 233.726 622.507 233.289C624.443 231.89 626.484 230.598 628.573 229.451C629.23 229.094 630.047 229.333 630.406 229.986C630.764 230.638 630.525 231.459 629.872 231.817C627.879 232.911 625.934 234.142 624.089 235.476C623.922 235.597 623.737 235.673 623.547 235.709ZM635.817 228.971C635.195 229.087 634.558 228.752 634.316 228.143C634.042 227.451 634.38 226.666 635.073 226.391C637.285 225.512 639.581 224.761 641.898 224.158C642.624 223.982 643.357 224.404 643.544 225.124C643.732 225.845 643.299 226.582 642.578 226.77C640.368 227.344 638.177 228.061 636.068 228.899C635.985 228.932 635.901 228.955 635.817 228.971ZM656.376 224.953C656.299 224.968 656.22 224.976 656.139 224.976C654.171 224.994 652.171 225.12 650.192 225.351C649.892 225.384 649.598 225.42 649.305 225.46C648.566 225.558 647.888 225.04 647.789 224.301C647.689 223.561 648.21 222.861 648.947 222.785C649.26 222.744 649.572 222.704 649.887 222.669C651.955 222.429 654.051 222.297 656.114 222.278C656.86 222.272 657.469 222.87 657.475 223.615C657.481 224.279 657.007 224.835 656.376 224.953Z" fill="#988DF8"/>
</g>
<g opacity="0.3">
<path d="M668.1 337.679C667.376 337.814 666.675 337.342 666.53 336.617C666.383 335.887 666.857 335.175 667.588 335.029C669.787 334.588 671.978 334.01 674.1 333.309C674.805 333.083 675.571 333.459 675.805 334.167C676.039 334.875 675.654 335.638 674.947 335.872C672.721 336.606 670.424 337.213 668.119 337.675C668.112 337.676 668.106 337.677 668.1 337.679ZM661.263 338.625C661.215 338.635 661.167 338.641 661.118 338.644C658.776 338.828 656.4 338.87 654.054 338.771C653.309 338.738 652.732 338.111 652.764 337.366C652.795 336.62 653.428 336.045 654.168 336.074C656.406 336.169 658.674 336.128 660.909 335.954C661.651 335.896 662.3 336.452 662.358 337.194C662.412 337.889 661.931 338.501 661.263 338.625ZM681.18 333.356C680.592 333.466 679.981 333.173 679.713 332.607C679.395 331.934 679.682 331.13 680.356 330.811C682.384 329.85 684.372 328.759 686.262 327.565C686.895 327.169 687.726 327.356 688.123 327.986C688.521 328.616 688.332 329.45 687.702 329.848C685.72 331.099 683.637 332.243 681.51 333.249C681.402 333.3 681.292 333.336 681.18 333.356ZM647.492 338.034C647.341 338.063 647.183 338.065 647.023 338.039C644.704 337.653 642.386 337.121 640.134 336.454C639.419 336.244 639.011 335.493 639.222 334.778C639.433 334.065 640.184 333.657 640.898 333.867C643.046 334.501 645.255 335.009 647.466 335.377C648.2 335.5 648.698 336.195 648.575 336.929C648.479 337.504 648.033 337.933 647.492 338.034ZM692.827 326.001C692.357 326.089 691.855 325.924 691.533 325.529C691.061 324.951 691.148 324.101 691.724 323.63C693.459 322.214 695.124 320.678 696.675 319.061C697.192 318.522 698.046 318.506 698.583 319.022C699.121 319.538 699.139 320.393 698.623 320.93C696.996 322.624 695.25 324.236 693.431 325.721C693.25 325.869 693.041 325.961 692.827 326.001ZM702.369 316.066C702.01 316.133 701.626 316.055 701.311 315.819C700.715 315.372 700.595 314.526 701.042 313.93C702.39 312.135 703.641 310.243 704.759 308.308C705.132 307.662 705.958 307.441 706.602 307.814C707.248 308.187 707.468 309.011 707.096 309.656C705.923 311.686 704.612 313.67 703.2 315.55C702.989 315.831 702.689 316.007 702.369 316.066ZM709.258 304.13C709.005 304.178 708.737 304.154 708.482 304.045C707.797 303.753 707.478 302.961 707.769 302.275C708.65 300.211 709.409 298.074 710.028 295.925C710.235 295.211 710.983 294.797 711.698 295.003C712.414 295.21 712.828 295.957 712.621 296.674C711.971 298.927 711.175 301.168 710.252 303.333C710.069 303.765 709.686 304.05 709.258 304.13Z" fill="#988DF8"/>
<path d="M634.215 334.108C633.959 334.156 633.687 334.13 633.43 334.019C632.371 333.559 631.321 333.065 630.308 332.551C629.644 332.214 629.377 331.403 629.714 330.738C630.052 330.075 630.863 329.809 631.528 330.144C632.493 330.634 633.496 331.104 634.506 331.544C635.19 331.841 635.503 332.636 635.205 333.319C635.019 333.746 634.64 334.028 634.215 334.108Z" fill="#988DF8"/>
</g>
<path d="M632.114 316.77C632.337 316.958 632.654 316.985 632.905 316.835L640.048 312.58C643.508 314.344 647.274 315.568 651.227 316.151L654.584 323.751C654.702 324.018 654.976 324.181 655.266 324.156L665.205 323.321C665.496 323.296 665.739 323.09 665.81 322.808L667.851 314.753C671.652 313.519 675.16 311.683 678.277 309.366L686.03 312.369C686.302 312.474 686.611 312.395 686.799 312.172L693.236 304.554C693.424 304.331 693.45 304.014 693.301 303.763L689.046 296.62C690.81 293.161 692.034 289.395 692.616 285.441L700.217 282.084C700.484 281.966 700.647 281.692 700.622 281.402L699.787 271.463C699.762 271.173 699.556 270.93 699.274 270.858L691.219 268.817C689.985 265.016 688.149 261.508 685.832 258.392L688.835 250.638C688.94 250.366 688.862 250.057 688.639 249.869L681.021 243.432C680.798 243.244 680.48 243.218 680.23 243.367L673.087 247.623C669.627 245.859 665.861 244.634 661.908 244.052L658.551 236.451C658.433 236.185 658.159 236.022 657.869 236.046L647.93 236.882C647.64 236.906 647.397 237.112 647.325 237.395L645.284 245.45C641.483 246.684 637.975 248.52 634.858 250.837L627.105 247.834C626.833 247.729 626.524 247.807 626.336 248.03L619.9 255.648C619.712 255.871 619.685 256.188 619.834 256.439L624.089 263.582C622.326 267.042 621.101 270.807 620.519 274.761L612.918 278.118C612.651 278.236 612.489 278.51 612.513 278.801L613.349 288.739C613.373 289.029 613.579 289.272 613.862 289.344L621.916 291.385C623.151 295.186 624.986 298.694 627.303 301.811L624.3 309.564C624.195 309.836 624.274 310.145 624.496 310.333L632.114 316.77Z" fill="#988DF8"/>
<path d="M658.422 290.139C656.282 290.539 654.08 290.244 652.089 289.272C649.64 288.076 647.803 285.997 646.917 283.419C645.087 278.099 647.927 272.282 653.248 270.451C658.58 268.628 664.389 271.463 666.218 276.784C667.105 279.362 666.934 282.131 665.738 284.58C664.542 287.029 662.463 288.867 659.884 289.753C659.403 289.918 658.913 290.047 658.422 290.139ZM655.192 272.721C654.835 272.788 654.479 272.882 654.126 273.002C650.212 274.349 648.122 278.628 649.468 282.543C650.12 284.438 651.471 285.968 653.273 286.847C655.075 287.727 657.111 287.85 659.008 287.201C660.904 286.549 662.433 285.197 663.313 283.396C664.193 281.594 664.318 279.557 663.666 277.66C662.442 274.1 658.789 272.049 655.192 272.721Z" fill="#B7B2FF"/>
<path d="M661.38 304.908C660.541 305.065 659.687 305.18 658.819 305.254C657.095 305.4 655.354 305.37 653.641 305.165C653.564 305.155 653.487 305.145 653.41 305.135C652.816 305.059 652.362 304.607 652.257 304.047C652.231 303.911 652.227 303.768 652.245 303.624C652.34 302.885 653.018 302.367 653.756 302.46C655.353 302.666 656.98 302.701 658.591 302.565H658.592C658.68 302.558 658.769 302.549 658.857 302.541C662.667 302.184 666.244 300.89 669.338 298.811C671.018 297.682 672.555 296.32 673.909 294.746C673.92 294.733 673.931 294.721 673.942 294.708C673.976 294.668 674.009 294.629 674.042 294.59C677.958 289.955 679.835 284.072 679.326 278.025C679.261 277.243 679.156 276.47 679.014 275.709C678.055 270.585 675.386 265.986 671.351 262.576C666.715 258.66 660.833 256.784 654.787 257.292C648.745 257.803 643.254 260.634 639.337 265.268C635.422 269.903 633.544 275.786 634.053 281.832C634.117 282.601 634.221 283.365 634.362 284.119C634.974 287.387 636.293 290.485 638.238 293.185C638.357 293.352 638.434 293.536 638.469 293.725C638.562 294.223 638.369 294.753 637.931 295.068C637.325 295.502 636.484 295.367 636.047 294.761C633.872 291.739 632.395 288.273 631.71 284.617C631.552 283.773 631.436 282.92 631.364 282.059C630.795 275.293 632.895 268.712 637.277 263.526C641.658 258.341 647.792 255.168 654.561 254.603C661.326 254.034 667.907 256.133 673.092 260.516C677.607 264.33 680.593 269.476 681.666 275.208C681.825 276.059 681.942 276.924 682.016 277.799C683.116 290.896 674.032 302.543 661.38 304.908Z" fill="#B7B2FF"/>
<path d="M437.745 485.344C437.745 485.344 433.683 474.652 428.939 475.631C424.195 476.61 419.006 480.255 419.006 480.255L411.385 490.562C411.385 490.562 432.778 498.99 440.303 494.16C440.303 494.16 462.155 497.936 489.75 493.408C485.756 484.974 483.375 476.531 481.977 469.977C468 477.888 452.946 483.797 437.745 485.344Z" fill="#FED1A7"/>
<path d="M553.498 407.796C553.498 407.796 522.211 447.202 481.977 469.977C483.375 476.531 485.756 484.974 489.75 493.408C510.622 489.983 534.778 481.809 555.257 463.647L553.498 407.796Z" fill="#490889"/>
<path d="M592.516 582.455C586.398 553.392 580.279 536.567 559.792 481.478C553.345 464.143 547.49 446.603 550.32 428.325L553.498 407.796C553.498 407.796 593.312 394.324 637.446 407.229C637.446 407.229 697.658 433.386 656.76 562.57C638.326 583.194 616.752 589.072 592.516 582.455Z" fill="#490889"/>
<path d="M560.275 381.596L570.599 406.399C571.252 407.965 572.661 409.081 574.334 409.368C580.286 410.389 594.682 411.984 604.137 405.767C605.263 405.026 605.55 403.495 604.779 402.388L585.706 375.005L560.275 381.596Z" fill="#FED1A7"/>
<path d="M570.952 343.649C570.518 344.057 552.653 379.14 552.653 379.14L572.902 388.915L594.775 358.179C594.775 358.179 578.211 336.816 570.952 343.649Z" fill="#FED1A7"/>
<path d="M585.572 361.867L575.473 378.702C575.32 378.957 575.138 379.188 574.92 379.391C573.718 380.51 569.604 383.765 566.424 379.333C563.714 375.557 561.171 372.123 558.446 370.707C556.855 369.88 554.897 370.541 554.089 372.141C552.425 375.439 549.202 382.162 547.178 388.537C546.67 390.134 547.495 391.849 549.049 392.479C553.149 394.14 561.253 397.144 568.443 398.137C569.624 398.3 570.794 397.801 571.497 396.838C574.59 392.6 583.31 380.756 586.286 377.791C589.051 375.037 594.154 376.075 596.453 376.736C597.326 376.987 598.256 376.866 599.033 376.398C601.366 374.992 605.437 371.493 601.713 365.569C600.787 364.096 601.259 362.134 602.712 361.178C605.317 359.464 608.144 356.248 605.451 351.04C602.725 345.768 597.857 345.294 594.541 345.7C593.074 345.879 591.585 345.11 591.022 343.743C590.772 343.136 590.277 342.617 589.356 342.431C587.618 342.078 586.477 340.489 586.818 338.749C587.403 335.765 586.963 331.89 582.199 329.271C573.462 324.467 565.809 332.294 563.864 338.901C561.917 345.508 571.686 350.177 577.831 350.957C582.344 351.529 584.819 356.455 585.815 359.03C586.177 359.965 586.088 361.008 585.572 361.867Z" fill="#490889"/>
<path d="M582.032 382.832C582.032 382.832 586.378 372.607 591.351 373.024C596.324 373.441 600.237 378.396 594.074 383.965C586.408 390.892 582.032 382.832 582.032 382.832Z" fill="#FED1A7"/>
<path d="M588.597 838.589C598.213 839.42 614.902 840.77 628.059 841.349C635.967 841.697 640.521 840.923 643.143 839.873C643.139 840.169 643.13 840.448 643.119 840.708C643.057 842.092 641.931 843.2 640.533 843.278C615.673 844.665 595.901 843.758 588.862 843.33C587.407 843.241 586.54 841.659 587.284 840.418C587.656 839.798 588.107 839.19 588.597 838.589Z" fill="#7E44DB"/>
<path d="M628.059 841.349C614.902 840.77 598.213 839.42 588.597 838.589C598.051 826.99 628.059 819.172 628.059 819.172H636.534C642.363 827.574 643.207 835.574 643.143 839.873C640.521 840.923 635.968 841.697 628.059 841.349Z" fill="#490889"/>
<path d="M637.961 805.336L637.167 821.031C637.082 822.73 635.809 824.158 634.107 824.401C632.414 824.644 630.146 824.675 627.741 823.874C626.261 823.382 625.163 822.135 624.89 820.614L622.149 805.336H637.961Z" fill="#FED1A7"/>
<path d="M748.041 841.233C752.211 840.651 754.098 838.485 754.889 836.169C754.894 836.19 754.9 836.211 754.905 836.232C755.518 838.675 754.096 841.206 751.253 842.411C747.816 843.866 744.058 844.114 741.14 843.994C738.011 843.865 735.138 842.569 733.559 840.497L733.535 840.465C736.677 842.02 741.087 842.203 748.041 841.233Z" fill="#7E44DB"/>
<path d="M728.38 805.236H735.37C746.016 805.018 752.701 827.473 754.889 836.169C754.099 838.485 752.212 840.651 748.042 841.232C741.087 842.202 736.677 842.019 733.536 840.465C727.784 832.896 724.933 821.811 723.562 815.342C722.003 807.984 728.38 805.236 728.38 805.236Z" fill="#490889"/>
<path d="M734.471 790.669L738.352 806.105C738.828 807.997 737.922 809.955 736.172 810.853C734.001 811.967 730.944 813.138 728.135 812.799C726.813 812.64 725.716 811.709 725.28 810.465L719.582 794.225L734.471 790.669Z" fill="#FED1A7"/>
<path d="M739.101 795.13C734.272 799.414 718.566 799.979 718.566 799.979C661.991 664.194 638.405 626.813 638.405 626.813C646.574 678.065 640.166 809.619 640.166 809.619C630.83 813.739 618.793 809.619 618.793 809.619C618.035 725.714 606.222 635.554 590.986 577.866C629.224 577.006 650.005 568.67 656.644 563.419C688.519 614.806 739.101 795.13 739.101 795.13Z" fill="#490889"/>
<path d="M581.354 615.811L588.39 659.573C589.617 667.204 596.685 672.497 604.393 671.557L709.701 658.712C714.852 658.083 718.759 653.782 718.862 648.617C719.088 637.309 718.644 617.185 713.898 598.851L581.354 615.811Z" fill="#E89D5A"/>
<path d="M607.34 668.649C607.19 668.649 607.061 668.537 607.042 668.385C607.022 668.22 607.14 668.07 607.303 668.05L609.688 667.759C609.857 667.732 610.003 667.856 610.022 668.02C610.043 668.185 609.925 668.335 609.761 668.355L607.377 668.646C607.364 668.647 607.352 668.649 607.34 668.649ZM601.771 668.51C601.75 668.51 601.727 668.507 601.704 668.502C600.91 668.322 600.125 668.07 599.371 667.752C599.219 667.688 599.147 667.511 599.212 667.358C599.278 667.206 599.454 667.134 599.606 667.199C600.326 667.502 601.077 667.744 601.838 667.917C601.999 667.953 602.101 668.114 602.064 668.276C602.032 668.415 601.908 668.51 601.771 668.51ZM615.287 667.679C615.137 667.679 615.008 667.567 614.989 667.415C614.969 667.25 615.087 667.1 615.252 667.08L617.636 666.79C617.794 666.77 617.95 666.887 617.97 667.052C617.99 667.216 617.872 667.366 617.709 667.386L615.323 667.676C615.311 667.678 615.3 667.679 615.287 667.679ZM623.235 666.71C623.085 666.71 622.956 666.598 622.937 666.446C622.917 666.281 623.034 666.131 623.198 666.111L625.582 665.82C625.752 665.797 625.897 665.917 625.917 666.081C625.938 666.246 625.82 666.396 625.656 666.416L623.271 666.707C623.259 666.709 623.247 666.71 623.235 666.71ZM631.182 665.74C631.032 665.74 630.903 665.628 630.884 665.475C630.864 665.311 630.982 665.161 631.145 665.141L633.53 664.851C633.699 664.824 633.845 664.949 633.864 665.112C633.885 665.277 633.767 665.427 633.603 665.447L631.219 665.737C631.206 665.739 631.194 665.74 631.182 665.74ZM639.13 664.771C638.979 664.771 638.85 664.659 638.832 664.507C638.811 664.343 638.929 664.192 639.093 664.173L641.477 663.882C641.647 663.863 641.792 663.979 641.812 664.143C641.833 664.308 641.715 664.458 641.551 664.478L639.167 664.769C639.154 664.77 639.142 664.771 639.13 664.771ZM594.903 664.624C594.824 664.624 594.745 664.594 594.686 664.532C594.12 663.942 593.603 663.3 593.15 662.623C593.058 662.484 593.095 662.298 593.232 662.206C593.368 662.112 593.556 662.15 593.648 662.288C594.083 662.937 594.577 663.551 595.119 664.115C595.234 664.236 595.23 664.425 595.111 664.54C595.052 664.596 594.978 664.624 594.903 664.624ZM647.077 663.801C646.927 663.801 646.798 663.69 646.779 663.538C646.759 663.373 646.877 663.223 647.04 663.203L649.425 662.912C649.595 662.89 649.74 663.009 649.759 663.173C649.78 663.338 649.662 663.488 649.498 663.508L647.114 663.799C647.101 663.801 647.089 663.801 647.077 663.801ZM655.025 662.832C654.874 662.832 654.745 662.72 654.727 662.568C654.706 662.403 654.824 662.253 654.989 662.233L657.373 661.943C657.531 661.917 657.687 662.04 657.707 662.205C657.727 662.369 657.609 662.519 657.445 662.539L655.06 662.829C655.048 662.831 655.036 662.832 655.025 662.832ZM662.973 661.863C662.823 661.863 662.694 661.751 662.675 661.599C662.654 661.435 662.772 661.284 662.936 661.264L665.32 660.973C665.489 660.955 665.635 661.07 665.655 661.234C665.675 661.399 665.558 661.549 665.394 661.569L663.01 661.86C662.997 661.862 662.985 661.863 662.973 661.863ZM670.92 660.893C670.77 660.893 670.641 660.781 670.622 660.628C670.602 660.464 670.719 660.314 670.884 660.295L673.268 660.004C673.437 659.982 673.583 660.102 673.603 660.266C673.623 660.43 673.505 660.581 673.341 660.6L670.957 660.891C670.944 660.892 670.932 660.893 670.92 660.893ZM678.868 659.924C678.717 659.924 678.589 659.812 678.57 659.66C678.549 659.496 678.667 659.345 678.831 659.326L681.215 659.034C681.384 659.009 681.53 659.132 681.55 659.296C681.571 659.46 681.453 659.611 681.289 659.631L678.905 659.922C678.891 659.923 678.88 659.924 678.868 659.924ZM686.815 658.954C686.665 658.954 686.536 658.843 686.517 658.691C686.497 658.526 686.614 658.376 686.778 658.356L689.163 658.065C689.332 658.047 689.478 658.162 689.497 658.326C689.518 658.491 689.4 658.641 689.236 658.661L686.852 658.952C686.839 658.954 686.827 658.954 686.815 658.954ZM694.762 657.985C694.612 657.985 694.483 657.873 694.464 657.721C694.444 657.556 694.562 657.406 694.727 657.386L697.111 657.096C697.279 657.074 697.425 657.193 697.445 657.358C697.465 657.522 697.347 657.672 697.182 657.692L694.798 657.982C694.786 657.984 694.774 657.985 694.762 657.985ZM591.321 657.594C591.177 657.594 591.051 657.491 591.025 657.345L590.64 654.97C590.614 654.807 590.725 654.653 590.889 654.626C591.055 654.599 591.206 654.712 591.233 654.875L591.616 657.241C591.645 657.405 591.536 657.56 591.373 657.589C591.355 657.592 591.338 657.594 591.321 657.594ZM702.71 657.016C702.56 657.016 702.431 656.904 702.412 656.752C702.391 656.587 702.509 656.437 702.673 656.417L705.057 656.126C705.226 656.1 705.372 656.223 705.392 656.387C705.413 656.552 705.295 656.702 705.131 656.722L702.747 657.013C702.734 657.015 702.722 657.016 702.71 657.016ZM710.461 655.29C710.357 655.29 710.255 655.235 710.201 655.138C710.118 654.994 710.168 654.811 710.312 654.729C710.986 654.344 711.612 653.877 712.175 653.341C712.296 653.226 712.486 653.232 712.6 653.351C712.714 653.471 712.709 653.662 712.589 653.776C711.991 654.346 711.325 654.841 710.609 655.249C710.563 655.277 710.511 655.29 710.461 655.29ZM590.047 649.69C589.902 649.69 589.775 649.585 589.751 649.437L589.369 647.065C589.343 646.902 589.454 646.748 589.618 646.721C589.79 646.691 589.935 646.807 589.962 646.97L590.343 649.341C590.37 649.505 590.259 649.659 590.095 649.685C590.079 649.688 590.062 649.69 590.047 649.69ZM715.162 649.08C715.138 649.08 715.114 649.077 715.09 649.071C714.929 649.032 714.831 648.869 714.871 648.708C715.039 648.025 715.131 647.32 715.145 646.612L715.149 646.398C715.152 646.233 715.286 646.101 715.45 646.101C715.451 646.101 715.452 646.101 715.453 646.101C715.619 646.103 715.752 646.239 715.75 646.405L715.746 646.625C715.731 647.376 715.633 648.125 715.453 648.852C715.42 648.989 715.297 649.08 715.162 649.08ZM588.776 641.785C588.631 641.785 588.503 641.68 588.48 641.533L588.099 639.161C588.073 638.997 588.184 638.843 588.348 638.817C588.515 638.791 588.665 638.901 588.692 639.065L589.072 641.437C589.099 641.601 588.988 641.754 588.824 641.781C588.808 641.783 588.791 641.785 588.776 641.785ZM715.485 641.097C715.32 641.097 715.186 640.964 715.184 640.798C715.179 640.023 715.17 639.222 715.156 638.4C715.153 638.234 715.285 638.098 715.451 638.094C715.609 638.067 715.753 638.224 715.757 638.389C715.771 639.213 715.78 640.015 715.785 640.795C715.786 640.961 715.653 641.095 715.486 641.097C715.486 641.097 715.486 641.097 715.485 641.097ZM587.505 633.88C587.36 633.88 587.232 633.775 587.209 633.627L586.828 631.256C586.802 631.092 586.913 630.938 587.076 630.911C587.249 630.883 587.395 630.997 587.421 631.16L587.801 633.531C587.828 633.695 587.717 633.849 587.553 633.875C587.536 633.878 587.52 633.88 587.505 633.88ZM715.293 633.09C715.133 633.09 715.001 632.964 714.994 632.802C714.961 632.015 714.923 631.216 714.879 630.406C714.87 630.241 714.997 630.099 715.163 630.09C715.349 630.072 715.469 630.209 715.479 630.374C715.522 631.186 715.56 631.988 715.593 632.777C715.601 632.942 715.472 633.083 715.306 633.089C715.302 633.09 715.298 633.09 715.293 633.09ZM586.235 625.975C586.089 625.975 585.962 625.87 585.938 625.722L585.557 623.351C585.53 623.187 585.641 623.033 585.805 623.007C585.973 622.984 586.123 623.092 586.149 623.255L586.531 625.627C586.558 625.791 586.447 625.944 586.283 625.971C586.266 625.973 586.25 625.975 586.235 625.975ZM714.805 625.096C714.65 625.096 714.518 624.977 714.505 624.82C714.442 624.03 714.373 623.233 714.299 622.429C714.283 622.265 714.405 622.119 714.57 622.103C714.747 622.086 714.881 622.209 714.896 622.375C714.971 623.18 715.04 623.979 715.105 624.772C715.117 624.936 714.994 625.082 714.829 625.095C714.821 625.096 714.813 625.096 714.805 625.096ZM584.964 618.07C584.819 618.07 584.691 617.965 584.668 617.817L584.236 615.14L585.472 614.982C585.659 614.964 585.788 615.078 585.809 615.241C585.829 615.406 585.713 615.556 585.549 615.577L584.928 615.657L585.26 617.722C585.286 617.886 585.175 618.04 585.011 618.066C584.995 618.068 584.979 618.07 584.964 618.07ZM713.992 617.13C713.842 617.13 713.712 617.019 713.694 616.867C713.594 616.078 713.489 615.285 713.38 614.489C713.357 614.325 713.472 614.173 713.636 614.151C713.792 614.116 713.952 614.242 713.974 614.407C714.085 615.205 714.19 616.001 714.289 616.792C714.31 616.957 714.193 617.107 714.029 617.128C714.016 617.129 714.003 617.13 713.992 617.13ZM591.07 614.868C590.921 614.868 590.792 614.757 590.772 614.606C590.751 614.442 590.868 614.291 591.032 614.27L593.414 613.965C593.598 613.939 593.729 614.062 593.75 614.225C593.771 614.389 593.654 614.54 593.491 614.561L591.109 614.866C591.095 614.867 591.082 614.868 591.07 614.868ZM599.012 613.852C598.863 613.852 598.734 613.741 598.714 613.59C598.693 613.426 598.81 613.275 598.974 613.254L601.356 612.949C601.539 612.925 601.672 613.046 601.692 613.209C601.714 613.373 601.597 613.524 601.433 613.545L599.05 613.85C599.037 613.851 599.024 613.852 599.012 613.852ZM606.954 612.836C606.804 612.836 606.675 612.725 606.656 612.573C606.634 612.409 606.751 612.258 606.915 612.237L609.298 611.933C609.479 611.91 609.613 612.03 609.634 612.192C609.655 612.357 609.538 612.507 609.374 612.528L606.992 612.833C606.978 612.835 606.965 612.836 606.954 612.836ZM614.895 611.82C614.745 611.82 614.617 611.709 614.597 611.558C614.576 611.393 614.693 611.243 614.856 611.221L617.239 610.917C617.43 610.896 617.554 611.013 617.575 611.176C617.596 611.341 617.48 611.491 617.316 611.513L614.933 611.817C614.919 611.819 614.907 611.82 614.895 611.82ZM622.836 610.803C622.687 610.803 622.558 610.692 622.538 610.541C622.517 610.376 622.634 610.226 622.798 610.205L625.18 609.9C625.371 609.882 625.495 609.997 625.517 610.16C625.538 610.324 625.421 610.475 625.257 610.496L622.875 610.801C622.861 610.802 622.848 610.803 622.836 610.803ZM630.779 609.787C630.629 609.787 630.5 609.676 630.481 609.525C630.459 609.36 630.576 609.21 630.74 609.189L633.123 608.884C633.31 608.868 633.438 608.981 633.459 609.144C633.48 609.308 633.363 609.459 633.199 609.48L630.817 609.785C630.803 609.786 630.79 609.787 630.779 609.787ZM712.804 609.212C712.661 609.212 712.535 609.11 712.509 608.964C712.37 608.178 712.224 607.393 712.071 606.608C712.039 606.445 712.145 606.287 712.308 606.256C712.469 606.219 712.628 606.33 712.66 606.493C712.814 607.282 712.96 608.071 713.099 608.86C713.129 609.023 713.02 609.179 712.856 609.207C712.839 609.21 712.821 609.212 712.804 609.212ZM638.72 608.77C638.571 608.77 638.442 608.659 638.422 608.508C638.401 608.344 638.518 608.193 638.682 608.172L641.064 607.867C641.251 607.842 641.379 607.964 641.4 608.127C641.422 608.292 641.305 608.442 641.141 608.463L638.758 608.768C638.745 608.77 638.732 608.77 638.72 608.77ZM646.661 607.755C646.512 607.755 646.383 607.644 646.363 607.493C646.342 607.328 646.459 607.177 646.623 607.156L649.005 606.852C649.191 606.828 649.32 606.948 649.342 607.111C649.363 607.276 649.246 607.426 649.082 607.447L646.7 607.752C646.686 607.754 646.673 607.755 646.661 607.755ZM654.603 606.738C654.454 606.738 654.325 606.627 654.305 606.476C654.284 606.311 654.401 606.161 654.565 606.14L656.947 605.835C657.131 605.813 657.263 605.931 657.283 606.094C657.305 606.259 657.188 606.409 657.024 606.431L654.641 606.735C654.628 606.737 654.615 606.738 654.603 606.738ZM662.545 605.722C662.396 605.722 662.267 605.611 662.247 605.46C662.226 605.295 662.343 605.145 662.507 605.124L664.889 604.819C665.071 604.799 665.205 604.916 665.226 605.079C665.247 605.243 665.13 605.394 664.966 605.415L662.584 605.72C662.57 605.721 662.557 605.722 662.545 605.722ZM670.487 604.705C670.337 604.705 670.208 604.594 670.189 604.443C670.167 604.279 670.284 604.128 670.448 604.107L672.831 603.802C673.012 603.785 673.146 603.899 673.167 604.062C673.188 604.227 673.071 604.377 672.907 604.398L670.525 604.703C670.511 604.705 670.498 604.705 670.487 604.705ZM678.428 603.69C678.279 603.69 678.15 603.579 678.13 603.427C678.109 603.263 678.226 603.112 678.39 603.091L680.772 602.787C680.964 602.76 681.087 602.883 681.108 603.046C681.13 603.211 681.013 603.361 680.849 603.382L678.466 603.687C678.453 603.689 678.44 603.69 678.428 603.69ZM686.369 602.673C686.22 602.673 686.091 602.562 686.071 602.411C686.05 602.246 686.167 602.096 686.331 602.074L688.713 601.77C688.903 601.746 689.028 601.866 689.05 602.029C689.071 602.194 688.954 602.344 688.79 602.366L686.408 602.67C686.394 602.672 686.381 602.673 686.369 602.673ZM694.311 601.657C694.162 601.657 694.033 601.546 694.013 601.395C693.992 601.23 694.109 601.08 694.273 601.059L696.655 600.754C696.844 600.732 696.97 600.851 696.991 601.014C697.013 601.178 696.896 601.329 696.732 601.35L694.349 601.655C694.336 601.656 694.323 601.657 694.311 601.657ZM711.174 601.373C711.039 601.373 710.916 601.28 710.883 601.143C710.757 600.623 710.628 600.105 710.496 599.588L710.233 599.622C710.061 599.649 709.918 599.527 709.897 599.363C709.875 599.198 709.992 599.048 710.156 599.026L710.945 598.926L711.011 599.182C711.168 599.787 711.319 600.393 711.466 601.002C711.506 601.163 711.406 601.326 711.245 601.365C711.221 601.37 711.198 601.373 711.174 601.373ZM702.253 600.64C702.104 600.64 701.975 600.529 701.955 600.378C701.934 600.214 702.051 600.063 702.215 600.042L704.597 599.737C704.784 599.718 704.912 599.834 704.934 599.997C704.955 600.162 704.838 600.312 704.674 600.333L702.292 600.638C702.278 600.639 702.265 600.64 702.253 600.64Z" fill="white"/>
<path d="M608.11 579.965L607.993 576.536C608.247 575.681 608.916 575.013 609.775 574.761C612.986 573.82 620.999 571.862 625.288 574.287L626.377 578.15L608.11 579.965Z" fill="#FEB360"/>
<path d="M617.934 575.393C617.202 575.674 616.446 575.77 615.665 575.681C614.72 575.573 613.968 574.836 613.848 573.896L612.49 563.284L617.891 562.593L619.248 573.197C619.368 574.141 618.826 575.051 617.934 575.393Z" fill="#FEB360"/>
<path d="M660.418 573.271L660.301 569.842C660.555 568.987 661.223 568.319 662.082 568.067C665.294 567.126 673.307 565.168 677.596 567.593L678.685 571.456L660.418 573.271Z" fill="#FEB360"/>
<path d="M670.241 568.7C669.51 568.98 668.754 569.077 667.972 568.987C667.027 568.879 666.275 568.142 666.155 567.202L664.654 555.472L670.055 554.781L671.555 566.503C671.676 567.447 671.134 568.357 670.241 568.7Z" fill="#FEB360"/>
<path d="M612.274 565.956L670.106 556.601C671.425 556.388 672.426 555.289 672.487 553.961C672.573 552.102 672.505 549.344 671.725 546.576C670.839 543.428 667.774 541.398 664.506 541.737C653.639 542.866 626.058 546.403 611.626 554.362C610.1 555.204 609.083 556.73 608.89 558.456C608.706 560.102 608.721 562.267 609.505 564.371C609.922 565.489 611.091 566.147 612.274 565.956Z" fill="#FAB566"/>
<path opacity="0.58" d="M610.849 563.611C610.486 563.611 610.156 563.361 610.07 562.992C610.049 562.897 609.535 560.646 609.85 558.373C610.101 556.536 611.323 554.927 613.038 554.177C616.175 552.803 622.199 550.379 627.296 549.581C627.734 549.518 628.142 549.811 628.211 550.248C628.279 550.685 627.98 551.095 627.543 551.163C622.442 551.961 616.149 554.563 613.68 555.643C612.473 556.172 611.613 557.301 611.436 558.591C611.162 560.575 611.625 562.609 611.63 562.63C611.73 563.061 611.461 563.491 611.031 563.591C610.97 563.605 610.909 563.611 610.849 563.611Z" fill="white"/>
<path d="M580.995 582.093C599.728 579.452 680.787 568.213 704.729 568.04C706.79 568.025 708.637 569.299 709.331 571.23C711.53 577.35 716.205 591.623 717.729 606.169C717.936 608.148 716.702 609.999 714.801 610.617L662.284 627.685L643.166 630.132L584.361 626.071C582.289 625.928 580.579 624.407 580.212 622.371C578.906 615.122 576.133 598.076 576.696 586.803C576.815 584.408 578.609 582.429 580.995 582.093Z" fill="#FFB461"/>
<path d="M643.028 625.737C643.022 625.737 643.015 625.736 643.008 625.736L640.612 625.57C640.446 625.558 640.322 625.416 640.332 625.25C640.344 625.085 640.49 624.986 640.653 624.971L643.049 625.137C643.215 625.149 643.339 625.291 643.328 625.457C643.317 625.616 643.185 625.737 643.028 625.737ZM645.217 625.457C645.068 625.457 644.939 625.346 644.919 625.195C644.898 625.03 645.015 624.88 645.179 624.859L647.561 624.554C647.751 624.529 647.876 624.65 647.897 624.814C647.919 624.978 647.802 625.129 647.638 625.15L645.255 625.454C645.242 625.456 645.229 625.457 645.217 625.457ZM635.041 625.186C635.034 625.186 635.027 625.185 635.02 625.185L632.624 625.019C632.459 625.007 632.334 624.865 632.345 624.699C632.357 624.533 632.5 624.433 632.665 624.42L635.061 624.586C635.227 624.597 635.352 624.74 635.34 624.906C635.33 625.064 635.198 625.186 635.041 625.186ZM627.053 624.633C627.046 624.633 627.04 624.633 627.033 624.633L624.637 624.468C624.471 624.457 624.347 624.313 624.357 624.148C624.369 623.982 624.53 623.88 624.678 623.869L627.074 624.033C627.24 624.044 627.364 624.188 627.353 624.353C627.342 624.512 627.21 624.633 627.053 624.633ZM653.159 624.44C653.01 624.44 652.881 624.329 652.861 624.178C652.84 624.014 652.957 623.863 653.121 623.842L655.503 623.537C655.69 623.515 655.819 623.634 655.84 623.797C655.861 623.961 655.744 624.112 655.58 624.133L653.198 624.438C653.184 624.439 653.171 624.44 653.159 624.44ZM619.067 624.082C619.06 624.082 619.053 624.081 619.046 624.081L616.65 623.915C616.484 623.903 616.36 623.761 616.371 623.595C616.383 623.429 616.54 623.326 616.691 623.316L619.087 623.482C619.253 623.494 619.377 623.636 619.367 623.802C619.355 623.961 619.224 624.082 619.067 624.082ZM611.079 623.53C611.072 623.53 611.065 623.529 611.059 623.529L608.662 623.364C608.497 623.352 608.372 623.209 608.383 623.044C608.395 622.878 608.55 622.773 608.704 622.765L611.1 622.93C611.265 622.942 611.39 623.085 611.379 623.25C611.368 623.409 611.236 623.53 611.079 623.53ZM661.101 623.424C660.951 623.424 660.823 623.313 660.803 623.161C660.782 622.997 660.898 622.846 661.063 622.825L661.218 622.805L663.298 622.124C663.455 622.075 663.625 622.16 663.677 622.316C663.728 622.474 663.641 622.643 663.484 622.696L661.138 623.421C661.126 623.423 661.113 623.424 661.101 623.424ZM603.092 622.979C603.085 622.979 603.078 622.978 603.071 622.978L600.675 622.812C600.509 622.801 600.385 622.658 600.396 622.492C600.408 622.328 600.56 622.22 600.716 622.213L603.112 622.379C603.278 622.391 603.402 622.533 603.391 622.699C603.38 622.858 603.249 622.979 603.092 622.979ZM595.104 622.427C595.097 622.427 595.091 622.426 595.084 622.426L592.687 622.261C592.522 622.25 592.397 622.107 592.408 621.941C592.42 621.776 592.569 621.667 592.728 621.662L595.125 621.827C595.29 621.838 595.415 621.981 595.404 622.147C595.392 622.305 595.261 622.427 595.104 622.427ZM587.116 621.875C587.11 621.875 587.103 621.874 587.096 621.874L584.538 621.697L584.496 621.469C584.466 621.306 584.566 621.115 584.73 621.085C584.819 621.065 584.903 621.081 584.969 621.126L587.137 621.275C587.303 621.286 587.427 621.43 587.416 621.595C587.405 621.754 587.274 621.875 587.116 621.875ZM668.721 620.977C668.595 620.977 668.477 620.896 668.435 620.77C668.384 620.612 668.471 620.442 668.628 620.391L670.913 619.649C671.069 619.601 671.24 619.686 671.292 619.842C671.343 620 671.256 620.169 671.099 620.221L668.814 620.963C668.784 620.972 668.752 620.977 668.721 620.977ZM676.336 618.502C676.21 618.502 676.092 618.421 676.05 618.295C675.998 618.137 676.086 617.967 676.243 617.916L678.527 617.174C678.687 617.127 678.855 617.21 678.906 617.367C678.958 617.525 678.871 617.695 678.713 617.746L676.429 618.488C676.398 618.497 676.366 618.502 676.336 618.502ZM583.841 616.114C583.696 616.114 583.568 616.009 583.545 615.86C583.423 615.101 583.299 614.307 583.174 613.483C583.15 613.319 583.262 613.165 583.426 613.141C583.598 613.124 583.743 613.229 583.768 613.392C583.893 614.214 584.016 615.008 584.137 615.766C584.164 615.929 584.052 616.084 583.888 616.109C583.873 616.112 583.857 616.114 583.841 616.114ZM683.95 616.028C683.824 616.028 683.706 615.946 683.665 615.82C683.613 615.662 683.7 615.493 683.857 615.442L686.142 614.7C686.3 614.649 686.469 614.735 686.52 614.891C686.572 615.049 686.485 615.218 686.327 615.269L684.043 616.012C684.013 616.022 683.981 616.028 683.95 616.028ZM691.564 613.553C691.438 613.553 691.32 613.472 691.279 613.345C691.227 613.188 691.314 613.018 691.471 612.967L693.755 612.225C693.913 612.175 694.082 612.261 694.133 612.417C694.185 612.575 694.098 612.744 693.941 612.795L691.657 613.538C691.626 613.548 691.595 613.553 691.564 613.553ZM699.178 611.078C699.052 611.078 698.934 610.997 698.893 610.871C698.841 610.713 698.928 610.544 699.085 610.493L701.37 609.75C701.527 609.696 701.698 609.786 701.748 609.942C701.8 610.1 701.713 610.269 701.556 610.32L699.271 611.063C699.241 611.073 699.209 611.078 699.178 611.078ZM706.793 608.603C706.667 608.603 706.549 608.522 706.508 608.396C706.456 608.238 706.543 608.069 706.7 608.018L708.984 607.275C709.141 607.222 709.311 607.31 709.362 607.467C709.414 607.625 709.327 607.794 709.17 607.845L706.886 608.588C706.855 608.598 706.824 608.603 706.793 608.603ZM582.687 608.185C582.539 608.185 582.409 608.075 582.389 607.924C582.287 607.138 582.187 606.341 582.09 605.536C582.071 605.372 582.188 605.222 582.353 605.203C582.517 605.185 582.667 605.3 582.686 605.465C582.783 606.267 582.883 607.063 582.985 607.846C583.006 608.01 582.89 608.162 582.726 608.183C582.712 608.184 582.7 608.185 582.687 608.185ZM712.872 605.144C712.722 605.144 712.593 605.032 712.574 604.88C712.476 604.087 712.369 603.295 712.254 602.506C712.23 602.341 712.343 602.189 712.507 602.166C712.673 602.132 712.825 602.255 712.848 602.419C712.963 603.213 713.072 604.009 713.17 604.807C713.19 604.971 713.073 605.121 712.908 605.141C712.895 605.143 712.884 605.144 712.872 605.144ZM581.802 600.222C581.648 600.222 581.517 600.104 581.503 599.947C581.431 599.146 581.365 598.344 581.305 597.548C581.293 597.383 581.417 597.239 581.582 597.226C581.77 597.241 581.891 597.339 581.904 597.504C581.964 598.297 582.029 599.095 582.1 599.895C582.116 600.059 581.993 600.205 581.828 600.22C581.82 600.221 581.81 600.222 581.802 600.222ZM711.611 597.237C711.47 597.237 711.344 597.137 711.316 596.994C711.162 596.203 711.003 595.419 710.84 594.644C710.806 594.482 710.909 594.322 711.071 594.288C711.24 594.256 711.393 594.358 711.427 594.519C711.592 595.298 711.751 596.085 711.905 596.88C711.937 597.042 711.831 597.2 711.668 597.231C711.649 597.235 711.63 597.237 711.611 597.237ZM581.32 592.226C581.156 592.226 581.023 592.097 581.019 591.933C581.004 591.283 580.996 590.643 580.995 590.015L580.997 589.521C580.998 589.356 581.133 589.222 581.297 589.222C581.298 589.222 581.298 589.222 581.299 589.222C581.465 589.223 581.599 589.359 581.598 589.524L581.596 590.015C581.597 590.638 581.605 591.273 581.62 591.919C581.623 592.084 581.493 592.222 581.327 592.226C581.324 592.226 581.322 592.226 581.32 592.226ZM709.872 589.419C709.737 589.419 709.615 589.327 709.581 589.191C709.384 588.402 709.184 587.627 708.982 586.868C708.94 586.707 709.035 586.544 709.196 586.501C709.356 586.462 709.52 586.554 709.563 586.714C709.764 587.475 709.966 588.253 710.163 589.045C710.203 589.206 710.106 589.369 709.944 589.409C709.921 589.415 709.896 589.419 709.872 589.419ZM584.283 586.652C584.135 586.652 584.006 586.544 583.985 586.393C583.962 586.229 584.077 586.078 584.241 586.054L586.621 585.722C586.779 585.69 586.937 585.814 586.96 585.979C586.983 586.142 586.868 586.294 586.703 586.316L584.324 586.649C584.31 586.651 584.296 586.652 584.283 586.652ZM592.216 585.55C592.068 585.55 591.939 585.441 591.919 585.29C591.896 585.126 592.011 584.975 592.175 584.952L594.555 584.624C594.714 584.591 594.87 584.716 594.893 584.881C594.916 585.044 594.801 585.196 594.637 585.219L592.257 585.547C592.244 585.549 592.23 585.55 592.216 585.55ZM600.153 584.463C600.005 584.463 599.876 584.354 599.855 584.203C599.833 584.039 599.948 583.888 600.113 583.865L602.495 583.542C602.663 583.523 602.81 583.635 602.833 583.8C602.855 583.964 602.74 584.116 602.575 584.138L600.193 584.461C600.18 584.462 600.166 584.463 600.153 584.463ZM608.09 583.393C607.941 583.393 607.812 583.283 607.792 583.132C607.77 582.968 607.886 582.817 608.049 582.795L610.431 582.476C610.601 582.448 610.746 582.57 610.769 582.734C610.79 582.899 610.675 583.05 610.511 583.072L608.129 583.39C608.116 583.392 608.103 583.393 608.09 583.393ZM616.029 582.338C615.881 582.338 615.752 582.227 615.731 582.077C615.71 581.913 615.825 581.762 615.99 581.739L618.372 581.426C618.539 581.405 618.688 581.521 618.709 581.685C618.731 581.85 618.615 582 618.451 582.022L616.068 582.335C616.055 582.337 616.042 582.338 616.029 582.338ZM707.749 581.695C707.62 581.695 707.5 581.61 707.461 581.481C707.222 580.683 706.986 579.916 706.757 579.188C706.707 579.029 706.795 578.861 706.953 578.811C707.115 578.758 707.28 578.85 707.329 579.007C707.56 579.738 707.796 580.507 708.037 581.308C708.085 581.467 707.994 581.634 707.835 581.682C707.806 581.691 707.777 581.695 707.749 581.695ZM623.972 581.299C623.822 581.299 623.693 581.189 623.674 581.037C623.652 580.873 623.768 580.722 623.933 580.7L626.317 580.392C626.477 580.371 626.632 580.488 626.653 580.652C626.674 580.817 626.558 580.967 626.393 580.988L624.01 581.296C623.997 581.298 623.984 581.299 623.972 581.299ZM631.914 580.28C631.765 580.28 631.636 580.169 631.616 580.017C631.596 579.854 631.712 579.703 631.876 579.682L634.26 579.381C634.429 579.354 634.576 579.477 634.595 579.641C634.616 579.806 634.5 579.956 634.335 579.977L631.952 580.278C631.939 580.28 631.926 580.28 631.914 580.28ZM639.858 579.283C639.709 579.283 639.579 579.171 639.56 579.019C639.539 578.854 639.656 578.705 639.821 578.684L642.205 578.39C642.38 578.363 642.519 578.487 642.539 578.651C642.56 578.816 642.443 578.965 642.278 578.985L639.895 579.28C639.883 579.282 639.87 579.283 639.858 579.283ZM647.804 578.308C647.654 578.308 647.525 578.197 647.506 578.044C647.486 577.88 647.604 577.73 647.769 577.71L650.153 577.423C650.33 577.399 650.467 577.522 650.487 577.685C650.506 577.85 650.389 577.999 650.225 578.019L647.84 578.306C647.828 578.308 647.817 578.308 647.804 578.308ZM655.756 577.363C655.606 577.363 655.476 577.25 655.458 577.097C655.438 576.933 655.556 576.783 655.721 576.764L658.107 576.487C658.278 576.461 658.422 576.586 658.44 576.75C658.46 576.914 658.342 577.064 658.177 577.083L655.791 577.36C655.779 577.362 655.767 577.363 655.756 577.363ZM663.71 576.452C663.559 576.452 663.429 576.338 663.412 576.185C663.394 576.02 663.512 575.871 663.677 575.852L666.065 575.587C666.247 575.578 666.378 575.69 666.396 575.853C666.414 576.018 666.294 576.166 666.13 576.184L663.744 576.45C663.733 576.451 663.721 576.452 663.71 576.452ZM671.67 575.582C671.518 575.582 671.387 575.468 671.371 575.313C671.354 575.149 671.473 575.001 671.638 574.983L674.028 574.732C674.208 574.727 674.341 574.835 674.358 574.999C674.375 575.165 674.256 575.312 674.091 575.329L671.701 575.58C671.69 575.581 671.68 575.582 671.67 575.582ZM679.636 574.768C679.483 574.768 679.353 574.652 679.337 574.497C679.321 574.332 679.441 574.185 679.607 574.169L681.999 573.939C682.168 573.917 682.31 574.044 682.326 574.209C682.342 574.374 682.221 574.521 682.055 574.536L679.665 574.767C679.656 574.768 679.645 574.768 679.636 574.768ZM705.274 574.075C705.15 574.075 705.034 573.998 704.991 573.875L704.685 573.015C704.336 573.018 703.972 573.023 703.594 573.031C703.593 573.031 703.59 573.031 703.588 573.031C703.425 573.031 703.291 572.901 703.288 572.737C703.285 572.571 703.416 572.434 703.582 572.43C703.992 572.422 704.385 572.416 704.761 572.414C704.969 572.414 705.15 572.533 705.214 572.709L705.558 573.675C705.613 573.831 705.531 574.003 705.374 574.058C705.341 574.069 705.308 574.075 705.274 574.075ZM687.609 574.031C687.454 574.031 687.323 573.913 687.31 573.756C687.296 573.592 687.418 573.446 687.583 573.432C688.402 573.361 689.201 573.294 689.979 573.23C690.143 573.221 690.288 573.341 690.302 573.506C690.315 573.671 690.192 573.816 690.027 573.83C689.251 573.893 688.453 573.958 687.635 574.029C687.626 574.03 687.617 574.031 687.609 574.031ZM695.591 573.414C695.434 573.414 695.302 573.292 695.292 573.133C695.28 572.968 695.406 572.825 695.572 572.814C696.405 572.758 697.205 572.709 697.972 572.665C698.15 572.641 698.28 572.783 698.289 572.948C698.298 573.114 698.172 573.255 698.006 573.265C697.24 573.308 696.442 573.358 695.611 573.413C695.604 573.413 695.598 573.414 695.591 573.414Z" fill="white"/>
<path d="M661.511 635.942L644.762 638.085C642.567 638.366 640.51 636.97 639.972 634.834L635.974 618.965C635.338 616.437 637.063 613.921 639.66 613.588L659.781 611.014C662.326 610.688 664.601 612.604 664.699 615.156L665.325 631.457C665.411 633.709 663.756 635.655 661.511 635.942Z" fill="#FEB360"/>
<path d="M659.071 633.242L646.324 634.873C644.653 635.087 643.087 634.024 642.678 632.399L639.635 620.32C639.151 618.396 640.464 616.481 642.441 616.228L657.755 614.269C659.692 614.021 661.423 615.48 661.498 617.422L661.974 629.828C662.04 631.542 660.78 633.023 659.071 633.242Z" fill="#F1B27A"/>
<path d="M649.109 504.807C653.06 521.132 653.164 537.101 652.563 542.916C652.336 545.109 650.575 546.82 648.376 546.974C645.878 547.149 642.48 547.378 639.442 547.553C636.103 547.746 632.398 545.635 629.919 543.872C628.654 542.971 627.018 544.373 627.724 545.756C628.941 548.138 631.056 550.014 633.155 551.609C634.417 552.568 638.614 554.272 638.321 556.161C638.229 556.757 637.869 557.276 637.483 557.739C635.151 560.537 631.623 562.032 628.141 563.101C627.704 563.235 627.243 563.378 626.935 563.716C626.849 565.968 633.776 568.469 635.564 569.063C638.242 569.952 641.083 570.328 643.896 570.032C650.866 569.298 657.302 564.487 661.057 558.686C671.092 543.179 676.281 524.454 678.177 510.132C668.841 500.8 654.746 503.166 649.109 504.807Z" fill="#FED1A7"/>
<path d="M678.177 511.607C685.622 455.365 642.28 412.119 642.28 412.119L616.493 442.182C636.071 466.585 645.378 488.947 649.629 506.51C655.267 504.868 668.841 502.274 678.177 511.607Z" fill="#490889"/>
<path d="M649.013 506.235C648.293 506.235 647.639 505.745 647.462 505.014C642.222 483.363 631.176 461.929 614.634 441.309C614.082 440.621 614.192 439.616 614.879 439.064C615.566 438.513 616.573 438.622 617.124 439.31C633.963 460.299 645.215 482.153 650.567 504.262C650.775 505.12 650.248 505.982 649.391 506.19C649.264 506.221 649.138 506.235 649.013 506.235Z" fill="#490889"/>
<path d="M299.766 839.65C299.77 839.376 299.752 839.098 299.681 838.819C295.534 822.376 274.95 812.135 274.95 812.135L266.793 812.774C262.103 827.266 262.705 836.154 263.458 840.113C263.479 840.224 263.513 840.33 263.542 840.437C270.271 841.039 284.12 841.431 299.766 839.65Z" fill="#490889"/>
<path d="M263.543 840.437C263.906 841.759 264.882 842.789 266.131 843.051C275.703 845.064 290.916 843.444 297.303 842.609C298.712 842.425 299.742 841.122 299.766 839.65C284.121 841.431 270.272 841.039 263.543 840.437Z" fill="#7E44DB"/>
<path d="M263.514 800.625L266.968 817.256C267.221 818.475 268.158 819.387 269.292 819.493C270.68 819.624 272.657 819.7 274.644 819.408C276.426 819.146 277.668 817.336 277.351 815.392L274.95 800.625H263.514Z" fill="#FED1A7"/>
<path d="M335.093 840.227C326.084 839.975 321.425 838.914 319.016 837.93C319.01 838.825 319.015 839.737 319.044 840.681C319.075 841.69 319.822 842.496 320.742 842.49L370.205 842.171C371.783 842.16 372.706 840.33 372.022 838.882C365.536 839.418 349.019 840.617 335.093 840.227Z" fill="#7E44DB"/>
<path d="M372.021 838.882C371.962 838.756 371.911 838.628 371.826 838.509C367.457 832.405 356.332 820.251 334.347 814.979L323.8 814.646C323.8 814.646 319.104 822.809 319.016 837.929C321.425 838.914 326.084 839.974 335.093 840.227C349.018 840.616 365.536 839.418 372.021 838.882Z" fill="#490889"/>
<path d="M321.375 799.154C321.541 799.931 323.736 811.765 324.586 816.353C324.788 817.443 325.637 818.243 326.648 818.299C328.454 818.401 331.367 818.413 333.871 817.733C335.223 817.366 336.13 815.988 336.034 814.459L334.854 795.741L321.375 799.154Z" fill="#FED1A7"/>
<path d="M313.383 580.657C313.383 580.657 327.891 680.35 338.361 798.983C338.556 801.193 336.796 803.115 334.625 803.572C331.427 804.246 326.725 805.046 322.833 804.937C320.755 804.878 319.019 803.337 318.669 801.288C315.102 780.372 289.651 668.113 282.971 643.406C282.971 643.406 275.298 748.355 277.751 802.804C277.812 804.158 276.821 805.332 275.474 805.488C273.432 805.723 270.165 805.903 266.007 805.461C264.429 805.294 263.156 804.101 262.93 802.529C260.39 784.827 245.767 679.455 246.388 603.549C246.424 599.269 251.411 564.099 251.411 564.099L313.383 580.657Z" fill="#490889"/>
<path d="M249.23 586.403C247.739 585.873 246.699 584.521 246.537 582.946C244.607 564.228 235.266 448.171 294.24 400.43C294.24 400.43 297.622 391.581 325.422 413.333C353.221 435.084 338.337 457.883 331.682 489.33C323.628 527.382 309.497 558.487 315.75 581.904C316.181 583.52 315.331 585.217 313.762 585.795C292.167 593.753 270.656 594.017 249.23 586.403Z" fill="#FFB461"/>
<path d="M317.245 365.657C317.227 367.309 293.678 400.757 293.678 400.757C293.678 400.757 297.905 409.082 318.084 415.841L335.502 380.028L317.245 365.657Z" fill="#FED1A7"/>
<path d="M335.784 346.491C335.784 346.491 344.164 365.74 344.726 375.843C345.289 385.945 347.466 392.501 335.784 394.535C324.103 396.57 314.262 390.75 308.931 380.687C308.931 380.687 300.578 365.18 302.452 358.829C304.325 352.479 335.784 346.491 335.784 346.491Z" fill="#FED1A7"/>
<path d="M312.923 373.451L313.588 373.158C314.434 372.785 314.797 371.777 314.372 370.955C312.725 367.772 309.513 360.479 313.662 358.778C319.008 356.585 340.186 352.266 344.755 344.752C349.146 337.53 345.255 328.207 339.408 325.555C339.016 325.378 338.555 325.519 338.354 325.899L337.867 326.821C337.533 327.452 336.601 327.356 336.403 326.67C336.212 326.012 335.336 325.885 334.973 326.466C333.569 328.714 329.777 332.359 319.637 334.23C305.225 336.89 295.697 342.722 295.46 352.68C295.445 353.312 294.772 353.664 294.232 353.335C293.168 352.686 291.465 352.382 289.189 354.296C285.231 357.624 286.851 366.256 295.527 373.358C295.939 373.695 295.936 374.338 295.49 374.629C293.917 375.653 291.572 378.089 297.648 381.337C303.932 384.696 308.624 384.42 310.431 384.122C310.881 384.048 311.171 383.613 311.072 383.168L309.144 374.415C309.035 373.92 309.412 373.451 309.919 373.451H312.923Z" fill="#490889"/>
<path d="M313.286 375.298C313.286 375.298 310.09 363.002 304.577 366.45C299.064 369.897 307.438 380.226 311.87 380.686L313.286 375.298Z" fill="#FED1A7"/>
<path d="M334.365 423.427L335.989 467.033C340.601 468.62 344.991 469.854 349.172 470.776C351.787 462.357 357.546 452.023 362.261 444.34C344.936 438.216 334.365 423.427 334.365 423.427Z" fill="#FFB461"/>
<path d="M420.859 422.686C397.094 448.344 377.859 449.854 362.261 444.34C357.545 452.024 351.787 462.357 349.172 470.777C412.635 484.768 427.58 426.426 427.58 426.426L420.859 422.686Z" fill="#FED1A7"/>
<path d="M425.68 419.96C425.68 419.96 428.417 417.02 433.484 417.944C438.55 418.868 443.06 420.628 446.217 417.944C449.373 415.26 450.483 418.862 450.483 418.862L441.03 426.048L425.68 419.96Z" fill="#FED1A7"/>
<path d="M420.025 424.986C420.025 424.986 421.901 417.142 427.554 418.217C433.207 419.292 446.039 426.271 449.346 424.986C452.654 423.7 456.882 420.623 459.052 421.711L455.231 426.462C455.231 426.462 465.055 420.794 466.746 424.277L450.399 433.476C450.399 433.476 426.482 431.082 420.025 424.986Z" fill="#FED1A7"/>
<path d="M307.984 480.498C307.984 480.498 352.663 517.917 400.909 501.59C403.901 500.577 407.173 500.797 409.967 502.272L423.837 509.598C429.658 512.672 436.868 510.654 440.246 505.003C442.173 501.779 443.817 498.098 444.144 494.571L417.004 483.584L419.005 480.256C419.005 480.256 405.754 479.133 402.286 488.63C402.286 488.63 377.047 499.128 334.482 452.311C334.482 452.311 315.167 468.734 307.984 480.498Z" fill="#FED1A7"/>
<path d="M305.579 480.111C305.432 480.111 305.283 480.069 305.152 479.979C286.339 467.269 277.49 446.753 277.402 446.547C277.238 446.157 277.42 445.709 277.808 445.545C278.197 445.379 278.645 445.56 278.811 445.95C278.896 446.151 287.581 466.262 306.008 478.712C306.358 478.948 306.45 479.423 306.213 479.774C306.066 479.993 305.825 480.111 305.579 480.111Z" fill="#EBAB71"/>
<path d="M333.599 451.675C333.348 451.675 333.102 451.551 332.956 451.324C332.899 451.236 327.152 442.29 316.205 422.689C312.839 416.661 308.415 412.845 303.057 411.345C294.182 408.865 285.63 413.623 285.545 413.671C285.177 413.874 284.712 413.751 284.502 413.384C284.294 413.016 284.422 412.55 284.789 412.341C285.158 412.132 293.955 407.21 303.455 409.869C309.227 411.479 313.966 415.541 317.541 421.942C328.46 441.493 334.185 450.408 334.242 450.496C334.471 450.85 334.368 451.324 334.013 451.553C333.885 451.636 333.741 451.675 333.599 451.675Z" fill="#EBAB71"/>
</g>
<defs>
<clipPath id="clip0_2_197">
<rect width="962" height="962" fill="white"/>
</clipPath>
</defs>
</svg>
