<svg width="970" height="970" viewBox="0 0 970 970" fill="none" xmlns="http://www.w3.org/2000/svg">
<g clip-path="url(#clip0_3_1316)">
<path d="M432.424 119.027C334.922 120.749 184.068 157.821 140.647 253.089C125.481 286.363 126.508 335.279 128.561 433.11C129.165 461.865 130.166 503.777 137.194 555.78C151.793 663.806 161.732 737.346 199.347 780.167C293.6 887.464 634.062 884.364 779.449 691.194C858.759 585.819 870.959 435.919 798.44 312.034C718.599 175.639 562.956 116.721 432.424 119.027Z" fill="#E6D9FB"/>
<path d="M711.204 440.997L711.025 438.762C710.026 426.313 699.208 416.979 686.747 417.814C680.243 418.25 674.156 421.173 669.748 425.976L601.88 499.948C592.553 510.114 580.778 517.72 567.677 522.042L561.453 524.095C552.65 526.999 543.412 528.365 534.145 528.135L434.527 525.651L516.862 492.268C527.069 488.129 532.01 476.517 527.913 466.293L526.804 463.523C523.363 454.934 514.459 449.837 505.307 451.193C472.76 456.017 398.106 467.301 366.051 473.96C335.221 480.365 292.08 538.274 271.818 567.811C264.408 578.614 260.414 591.248 260.317 604.348C260.204 619.249 267.668 633.187 280.134 641.353L287.198 645.98C300.362 654.603 316.033 658.573 331.714 657.259L530.649 640.585C556.132 638.448 579.508 625.582 594.945 605.194L706.14 458.341C709.899 453.377 711.702 447.204 711.204 440.997Z" fill="#FFB461"/>
<path d="M350.223 665.322L260.463 560.186C256.677 555.752 250.014 555.226 245.58 559.012L164.862 627.924C160.428 631.71 159.903 638.373 163.688 642.807L253.449 747.944C257.234 752.378 263.898 752.904 268.332 749.118L349.049 680.205C353.483 676.419 354.009 669.756 350.223 665.322Z" fill="#FFB461"/>
<path d="M716.028 435.209L715.849 432.974C714.85 420.525 704.032 411.19 691.571 412.026C685.068 412.462 678.981 415.385 674.573 420.188L606.704 494.16C597.377 504.326 585.602 511.932 572.501 516.254L566.278 518.307C557.474 521.211 548.236 522.577 538.969 522.346L439.351 519.863L521.686 486.479C531.894 482.341 536.834 470.729 532.737 460.505L531.628 457.735C528.187 449.146 519.283 444.049 510.131 445.405C477.584 450.229 402.931 461.513 370.876 468.172C340.046 474.577 296.904 532.486 276.643 562.023C269.233 572.826 265.239 585.459 265.141 598.559C265.028 613.461 272.493 627.399 284.958 635.564L292.022 640.192C305.186 648.815 320.857 652.785 336.539 651.47L535.473 634.796C560.957 632.66 584.332 619.794 599.769 599.406L710.964 452.553C714.723 447.589 716.526 441.416 716.028 435.209Z" fill="#FFB461"/>
<path d="M353.875 674.421L273.152 743.327C268.724 747.119 262.059 746.588 258.268 742.16L168.516 637.022C164.725 632.584 165.255 625.919 169.683 622.137L174.602 617.941L250.405 553.222C254.833 549.44 261.499 549.961 265.29 554.399L274.56 565.261L347.383 650.444L352.023 655.764H352.032L355.042 659.416C358.834 663.843 358.303 670.631 353.875 674.421Z" fill="#FFB461"/>
<path opacity="0.2" d="M353.875 674.421L273.152 743.327C268.724 747.118 262.059 746.587 258.268 742.16L168.516 637.021C164.725 632.584 165.255 625.918 169.683 622.137L174.602 617.94C178.008 628.677 186.343 638.574 207.391 635.024C250.319 627.789 252.701 653.155 271.541 663.361C294.374 675.738 327.723 658.46 352.023 655.763H352.032L355.042 659.415C358.834 663.843 358.303 670.63 353.875 674.421Z" fill="#FFB461"/>
<path d="M596.791 499.567C597.615 498.29 599.119 495.571 599.215 491.92C599.403 484.825 594.14 479.291 593.433 479.609C593.052 479.78 593.535 481.859 593.806 482.78C594.37 484.698 594.976 484.883 594.925 485.764C594.821 487.578 592.203 487.648 590.822 490.055C589.827 491.788 589.748 494.257 590.822 496.21C592.604 499.451 596.621 499.565 596.791 499.567Z" fill="#FED1A7"/>
<path d="M709.195 653.666L707.173 646.707L715.617 640.449L720.88 638.481L717.764 648.22L709.195 653.666Z" fill="#FED1A7"/>
<path d="M698.743 793.841C698.743 793.841 703.362 805.46 702.147 810.613C707.105 810.515 710.314 809.883 710.314 809.883C710.314 809.883 708.321 804.584 707.932 801.959C707.406 798.413 707.445 792.674 707.445 792.674L698.743 793.841Z" fill="#FED1A7"/>
<path d="M647.832 821.016C648.131 821.376 648.661 822.13 648.705 823.15C648.729 823.705 648.602 824.161 648.443 824.58C647.655 826.653 646.419 826.926 645.084 829.125C644.269 830.468 644.423 830.873 643.675 831.48C642.69 832.279 641.499 832.325 640.467 832.337C638.722 832.357 636.21 832.295 633.047 831.918C634.705 829.782 636.467 827.611 638.342 825.42C639.164 824.459 639.985 823.521 640.803 822.605L645.677 820.958C646.395 820.977 647.114 820.997 647.832 821.016Z" fill="#7E44DB"/>
<path d="M643.78 797.354C643.78 797.354 640.994 811.889 644.539 815.959C647.558 820.029 643.081 817.126 643.081 817.126L637.733 821.793L634.524 827.336C634.524 827.336 637.478 813.11 636.69 807.464C635.903 801.819 635.509 798.011 635.509 798.011L643.78 797.354Z" fill="#FED1A7"/>
<path d="M633.277 638.365C633.277 638.365 625.793 645.06 625.793 672.631C625.793 700.201 629.338 760.069 629.338 760.069L635.01 802.932C635.01 802.932 640.892 803.141 644.831 801.959C648.375 785.811 654.152 758.494 651.394 735.65C650.213 710.836 661.241 679.721 661.241 679.721C661.241 679.721 670.694 711.23 677.39 726.985C684.085 742.739 696.833 792.094 698.015 795.639C705.85 796.35 709.196 794.278 709.196 794.278C709.196 794.278 704.172 741.163 699.446 721.076C694.72 700.989 695.113 652.544 687.236 638.758C669.512 631.669 633.277 638.365 633.277 638.365Z" fill="url(#paint0_linear_3_1316)"/>
<path d="M633.277 638.365C633.277 638.365 625.793 645.06 625.793 672.631C625.793 700.202 629.338 760.069 629.338 760.069L635.011 802.932C635.011 802.932 640.892 803.141 644.831 801.959C648.376 785.811 654.152 758.494 651.395 735.65C650.213 710.836 661.241 679.721 661.241 679.721C661.241 679.721 670.694 711.23 677.39 726.985C684.086 742.739 696.834 792.095 698.015 795.64C705.85 796.35 709.196 794.278 709.196 794.278C709.196 794.278 704.173 741.164 699.447 721.076C694.72 700.989 695.114 652.544 687.237 638.758C669.512 631.669 633.277 638.365 633.277 638.365Z" fill="#51056F"/>
<path opacity="0.25" d="M672.152 688.882C674.485 704.049 679.152 712.217 690.82 722.717C700.154 729.718 693.153 744.886 696.654 756.553C697.82 760.053 701.321 763.553 702.488 767.054C706.829 775.737 702.774 786.359 704.743 795.553C707.806 795.13 709.196 794.278 709.196 794.278C709.196 794.278 704.172 741.163 699.446 721.076C694.72 700.989 695.114 652.544 687.236 638.758C669.512 631.669 633.277 638.365 633.277 638.365C633.277 638.365 625.793 645.06 625.793 672.631C625.793 674.868 625.817 677.32 625.86 679.933C633.629 686.809 649.518 688.337 659.318 680.715C659.91 680.271 660.54 679.999 661.191 679.867C661.221 679.779 661.241 679.721 661.241 679.721C661.241 679.721 661.258 679.775 661.283 679.857C665.742 679.043 671.14 684.834 672.152 688.882Z" fill="#51056F"/>
<path d="M700.932 815.021C700.932 815.021 699.781 815.021 699.877 816.507C699.973 817.994 699.359 823.109 705.21 823.348C711.061 823.588 711.963 822.934 712.155 822.934C712.347 822.934 710.62 818.042 710.62 818.042L708.749 815.644L703.714 815.116L700.932 815.021Z" fill="#7E44DB"/>
<path d="M713.906 820.155C713.781 818.919 713.09 816.975 712.394 815.411C711.361 813.087 712.21 812.217 711.222 810.1C710.881 809.368 710.549 808.674 709.828 807.986C709.662 807.828 708.047 806.336 705.696 806.412C705.233 806.427 704.521 806.458 703.751 806.868C702.843 807.352 702.389 808.078 702.001 808.716C701.391 809.718 701.531 810.025 700.591 812.897C700.515 813.127 700.35 813.628 700.223 814.319C700.125 814.848 700.086 815.293 700.068 815.596C701.603 815.596 707.503 815.836 708.749 816.748C709.996 817.659 710.62 819.194 710.62 820.729C710.62 822.263 711.387 822.983 712.155 822.935C712.84 822.892 714.202 821.622 713.906 820.155Z" fill="#51056F"/>
<path d="M643.032 813.918C644.35 813.939 645.317 814.988 646.046 817.516C646.775 820.044 650.275 822.28 646.192 821.745C642.108 821.21 639.143 826.995 637.684 829.135C636.226 831.274 632.311 833.174 632.408 831.083C632.505 828.993 634.233 828.016 634.719 825.877C635.205 823.738 640.025 813.871 643.032 813.918Z" fill="#51056F"/>
<path d="M712.294 641.691C713.264 638.997 719.311 621.299 709.536 605.16C701.534 591.947 687.687 587.636 685.713 587.053C673.694 583.504 667.671 588.064 663.879 583.867C657.444 576.746 664.733 552.488 678.833 547.629C694.726 542.152 713.792 563.212 721.519 577.045C731.655 595.193 729.16 613.23 728.574 616.944C727.05 626.598 723.506 633.96 720.88 638.481C718.018 639.551 715.156 640.622 712.294 641.691Z" fill="#AF3AF9"/>
<path d="M670.791 544.205C656.604 543.638 645.663 543.862 639.483 550.038C632.955 556.562 639.552 563.926 638.134 580.99C635.965 607.115 619.317 613.498 618.065 640.001C617.642 648.932 619.154 656.231 620.327 660.626C623.981 665.176 629.961 671.598 638.786 676.966C651.628 684.78 659.075 683.418 677.519 688.465C707.687 696.722 710.371 706.554 725.33 704.049C740.448 701.517 753.712 688.794 752.11 681.808C751.15 677.624 745.056 678.809 738.039 672.427C728.995 664.203 732.483 656.352 725.607 647.513C715.731 634.819 701.973 642.579 693.557 631.577C685.043 620.447 688.42 598.515 695.596 586.56C700.283 578.752 702.29 569.602 706.279 561.414C706.61 560.734 706.995 559.619 706.826 558.224C706.178 552.892 697.29 550 690.558 547.878C680.291 544.642 671.957 544.251 670.791 544.205Z" fill="#AF3AF9"/>
<path d="M658.841 543.619L661.639 542.758C661.639 542.758 662.371 546.546 671.367 547.019C676.36 547.019 679.589 544.221 679.589 544.221L681.501 545.615C681.501 545.615 677.306 550.855 670.635 550.721C662.026 550.549 658.841 543.619 658.841 543.619Z" fill="url(#paint1_linear_3_1316)"/>
<path d="M664.538 532.096C665.077 527.935 668.366 525.27 669.084 524.699C672.089 522.31 672.7 522.07 673.732 521.874L675.142 521.66C675.142 521.66 675.217 521.662 675.296 521.667C676.121 521.717 678.594 522.682 679.043 522.998C680.479 524.008 679.422 531.161 675.068 540.057C674.897 540.81 674.726 541.564 674.554 542.317C678.349 542.984 679.289 543.669 679.319 544.215C679.384 545.4 675.229 546.91 671.378 547.009C666.548 547.132 661.421 545.054 661.519 543.503C661.559 542.876 662.47 542.102 665.976 541.341C666.524 540.571 667.072 539.8 667.62 539.03C667.122 538.427 664.141 535.161 664.538 532.096Z" fill="#FED1A7"/>
<path d="M670.507 530.529C671.602 529.873 672.437 531.282 671.921 532.514C671.405 533.745 669.671 534.516 668.62 533.782C667.568 533.048 669.033 531.411 670.507 530.529Z" fill="#FED1A7"/>
<path d="M812.478 530.508C798.06 514.862 764.513 519.153 745.906 531.718C737.259 537.557 732.822 544.454 722.606 545.033C714.839 545.473 702.484 542.552 695.977 534.139C695.157 533.079 691.878 528.634 686.955 523.028C684.784 520.556 682.626 518.237 679.28 517.713C678.43 517.579 675.602 517.119 673.733 518.946C672.218 520.425 671.846 522.998 672.294 524.853C672.562 525.961 672.909 526.078 672.859 526.804C672.72 528.844 669.005 529.732 669.213 530.76C669.36 531.494 671.294 531.225 671.627 532.146C671.992 533.156 669.868 534.025 668.956 536.564C667.246 537.708 666.167 540.556 665.793 544.366C665.244 549.966 665.807 554.518 666.868 557.945C671.977 574.448 675.633 586.252 684.478 592.844C696.189 601.57 706.735 593.513 736.526 592.239C777.318 590.494 787.489 604.321 802.15 594.862C820.456 583.05 827.447 546.752 812.478 530.508Z" fill="#51056F"/>
<path d="M598.515 498.573C598.151 501.986 596.921 517.085 607.335 529.834C617.067 541.746 630.849 544.125 633.41 544.512C645.802 546.385 651.146 541.044 655.476 544.683C662.824 550.858 658.92 575.884 645.617 582.625C630.622 590.224 608.855 571.968 599.31 559.322C586.787 542.731 586.792 524.523 586.866 520.762C587.055 510.991 589.559 503.213 591.542 498.376C592.356 498.13 593.596 497.859 595.117 497.912C596.565 497.963 597.734 498.289 598.515 498.573Z" fill="#AF3AF9"/>
<path opacity="0.2" d="M725.784 694.063C722.156 690.345 726.149 682.845 720.791 677.269C715.818 672.094 710.187 676.275 702.181 671.823C691.912 666.111 694.742 655.656 684.933 650.035C677.879 645.993 674.564 650.339 663.599 648.22C652.653 646.104 639.32 638.557 632.734 625.071C629.935 619.34 628.904 613.643 628.767 608.551C623.844 617.347 618.737 625.776 618.065 640.002C617.642 648.932 619.154 656.231 620.327 660.626C623.981 665.176 629.961 671.597 638.786 676.966C651.628 684.78 659.075 683.418 677.519 688.465C707.687 696.722 710.371 706.554 725.33 704.049C734.992 702.431 743.876 696.651 748.626 690.865C734.684 697.072 728.416 696.763 725.784 694.063Z" fill="#AF3AF9"/>
<path d="M618.333 169.175L361.179 155.325C339.997 154.185 322.736 169.778 322.736 190.159V331.064C322.736 351.446 339.997 368.393 361.179 368.915L445.25 370.986L484.484 417.35C486.849 420.146 490.989 420.601 493.905 418.386L531.637 373.115L618.333 375.251C637.938 375.734 653.752 360.345 653.752 340.882V206.324C653.752 186.86 637.938 170.23 618.333 169.175Z" fill="#8147E0"/>
<path d="M659.089 202.231V336.791C659.089 344.788 656.308 352.1 651.803 357.897C645.339 366.222 635.06 371.441 623.503 371.152L536.782 369.02L499.108 412.198C496.329 415.381 491.374 415.343 488.654 412.121L450.372 366.888L366.517 364.823C345.333 364.302 328.29 347.353 328.29 326.97V186.062C328.29 175.77 332.473 166.702 339.563 160.393C346.499 154.2 355.921 150.669 366.407 151.229L623.612 165.081C643.223 166.133 659.089 182.763 659.089 202.231Z" fill="#C7A6F6"/>
<path d="M581.72 248.854C580.299 222.185 562.175 199.778 539.604 196.941C521.652 194.685 505.679 204.833 497.177 221.25C488.654 204.025 472.532 192.281 454.241 192.779C430.979 193.413 412.084 214.534 410.594 241.713C409.609 259.673 416.127 276.179 426.826 287.307L492.49 340.791C495.327 343.101 499.026 343.205 501.857 341.057L566.175 292.259C576.437 282.113 582.658 266.465 581.72 248.854Z" fill="white"/>
<path opacity="0.2" d="M651.694 357.897C645.23 366.222 635.005 371.441 623.448 371.151L536.755 369.019L499.094 412.197C496.316 415.381 491.367 415.342 488.647 412.12L450.369 366.887L366.516 364.823C345.332 364.302 328.29 347.353 328.29 326.97V186.062C328.29 175.769 332.473 166.701 339.563 160.393C351.727 180.95 372.128 201.41 405.737 201.41C414.1 201.41 421.387 202.24 427.831 203.745C472.321 214.125 474.021 256.627 473.182 280.126C472.429 301.059 485.776 321.375 522.462 325.427C532.938 326.594 545.318 326.42 559.817 324.568C615.507 317.43 649.186 325.745 651.694 357.897Z" fill="#CAAAFF"/>
<path d="M425.585 364.98C424.379 364.377 412.019 368.718 411.597 368.718C411.175 368.718 413.406 367.814 415.757 366.367C418.109 364.92 415.155 366.126 409.065 365.402C402.976 364.679 399.541 367.062 398.273 367.452C387.3 370.828 398.092 370.648 400.142 371.673C402.192 372.697 408.885 375.471 415.818 372.758C422.751 370.045 426.791 365.583 425.585 364.98Z" fill="#FED1A7"/>
<path d="M324.768 199.453C325.725 203.526 325.673 207.989 325.673 207.989L323.21 212.526L325.355 215.187L328.388 210.409L328.936 191.644C328.936 191.644 323.812 195.381 324.768 199.453Z" fill="#FED1A7"/>
<path d="M256.679 308.796C256.679 308.796 282.103 261.492 300.808 237.618C319.512 213.744 322.907 210.023 322.907 210.023L326.489 213.194C326.489 213.194 312.796 296.458 306.553 305.444C300.309 314.43 256.679 308.796 256.679 308.796Z" fill="#AF3AF9"/>
<path d="M256.679 308.796C261.241 301.234 268.995 289.773 280.977 277.98C295.004 264.174 299.264 265.227 306.811 254.567C320.068 235.843 322.907 210.024 322.907 210.024V210.023L326.488 213.193C326.488 213.193 312.796 296.458 306.553 305.444C300.309 314.43 256.679 308.796 256.679 308.796Z" fill="#AF3AF9"/>
<path d="M235.421 562.054L235.208 554.577L230.233 553.354L232.107 562.054H235.421Z" fill="#FED1A7"/>
<path d="M260.598 552.014L256.43 555.94C256.43 555.94 253.599 555.767 252.771 553.977L256.43 548.073L260.598 552.014Z" fill="#FED1A7"/>
<path d="M247.027 399.241C245.983 406.109 244.145 416.609 240.917 429.181C231.028 467.691 219.956 479.422 217.698 502.503C216.492 514.843 217.555 532.972 229.132 556.123C231.454 556.243 233.776 556.363 236.099 556.483C237.575 543.274 239.835 529.117 243.18 514.216C252.111 474.421 266.074 441.373 279.68 415.655C268.795 410.183 257.911 404.713 247.027 399.241Z" fill="#59106E"/>
<path d="M246.052 553.995C245.705 553.842 245.31 553.84 244.963 553.991L235.683 558.011C235.125 558.252 234.613 558.587 234.168 559.001L232.05 560.973C231.588 561.403 231.487 562.096 231.807 562.641L232.968 564.621C233.633 565.753 235.116 566.091 236.198 565.349C240.464 562.426 249.73 555.621 246.052 553.995Z" fill="#59106E"/>
<path d="M253.212 553.278C251.121 554.576 250.579 555.702 250.56 556.565C250.529 557.951 251.85 558.304 253.266 560.741C254.872 563.502 254.123 564.68 255.507 565.73C256.018 566.118 256.642 566.353 260.9 566.222C264.831 566.101 266.798 566.03 266.91 565.527C266.984 565.193 266.544 564.363 261.108 562.268C259.754 559.925 258.4 557.584 257.046 555.241L253.212 553.278Z" fill="#59106E"/>
<path opacity="0.3" d="M224.42 508.308C227.984 499.79 236.728 501.544 240.612 491.505C243.551 483.909 239.291 480.977 240.001 469.814C240.967 454.615 249.423 451.236 250.082 439.874C250.376 434.82 249.114 428.124 243.142 419.912C245.037 411.448 246.252 404.341 247.027 399.241C257.911 404.713 268.796 410.183 279.68 415.655C266.074 441.373 252.111 474.421 243.18 514.216C239.835 529.117 237.575 543.274 236.099 556.483C233.776 556.363 231.454 556.243 229.132 556.123C228.59 555.039 228.094 553.978 227.597 552.916C229.005 550.933 230.174 548.719 230.835 546.19C234.657 531.583 219.245 520.673 224.42 508.308Z" fill="#51056F"/>
<path d="M302.569 407.347C308.29 429.644 307.942 448.234 306.857 459.928C305.77 471.63 302.273 504.629 278.246 535.024C271.588 543.447 265.059 549.514 260.527 553.355C258.49 551.623 256.453 549.893 254.417 548.161C259.202 539.229 265.02 526.426 269.073 510.276C272.824 495.331 276.303 481.468 273.401 463.561C270.156 443.543 260.071 425.475 259.305 424.125C255.274 417.02 251.124 411.466 251.973 403.656C252.759 396.422 257.606 389.358 263.582 386.548C274.383 381.471 292.218 388.718 302.569 407.347Z" fill="#59106E"/>
<path d="M296.484 270.455L296.303 273.085C296.148 275.336 294.486 277.196 292.266 277.6L279.68 280.129L304.655 289.804L302.253 282.848C301.7 281.248 301.518 279.543 301.72 277.863L302.342 272.681L296.484 270.455Z" fill="#FED1A7"/>
<path d="M300.995 274.446C301.548 274.143 306.044 273.597 306.663 271.179C307.505 267.898 304.555 263.904 304.188 263.261C302.649 260.57 302.263 260.207 301.547 259.751L300.554 259.169C300.554 259.169 300.497 259.147 300.437 259.127C299.803 258.918 297.66 258.901 297.228 259.004C295.848 259.331 294.5 265.012 295.102 272.987C295.051 273.292 295.002 273.6 294.956 273.911C294.835 274.718 301.035 274.731 300.995 274.446Z" fill="#FED1A7"/>
<path d="M305.223 258.662C304.705 260.167 302.651 261.722 301.734 262.416C301.6 262.518 301.212 262.861 300.86 263.415C300.81 263.495 300.765 263.589 300.726 263.71C300.219 265.281 302.74 267.059 302.277 267.768C301.941 268.283 300.241 267.643 300.051 268.085C299.872 268.501 301.291 269.321 301.087 269.818C300.934 270.195 300.065 269.873 299.534 270.456C299.27 270.746 299.355 270.969 299.088 271.843C298.936 272.338 298.722 272.88 298.552 273.183C297.73 274.654 295.321 275.24 294.842 274.669C294.709 274.51 294.817 274.371 294.672 273.831C294.672 273.831 294.538 273.33 294.174 272.755C293.655 271.934 292.432 271.367 291.193 270.516C288.897 268.94 288.251 267.568 288.056 267.103C288.035 267.051 288.015 267.003 287.998 266.959C287.965 266.88 287.937 266.802 287.912 266.722C287.393 265.043 288.722 263.233 289.438 262.39C290.462 261.194 292.187 259.419 294.716 257.838C295.403 257.408 302.093 253.279 304.545 255.32C305.421 256.049 305.575 257.639 305.223 258.662Z" fill="#51056F"/>
<path d="M301.374 267.207C300.749 266.388 299.701 267.194 299.72 268.272C299.738 269.35 300.808 270.447 301.816 270.212C302.824 269.975 302.216 268.309 301.374 267.207Z" fill="#FED1A7"/>
<path d="M341.653 318.558C339.685 320.382 338.073 321.752 336.588 323.102C336.482 323.208 336.366 323.315 336.25 323.411C333.434 326.015 330.983 328.697 327.231 334.591C325.61 337.128 324.115 339.684 322.755 342.231C322.388 342.887 322.051 343.534 321.713 344.189C321.366 344.855 321.028 345.511 320.71 346.167C320.488 346.611 320.266 347.055 320.063 347.498C319.542 348.569 319.041 349.649 318.568 350.711C318.347 351.183 318.144 351.666 317.941 352.138C317.864 352.302 317.787 352.476 317.719 352.64C317.565 352.997 317.41 353.354 317.266 353.711C317.025 354.28 316.793 354.849 316.562 355.409C316.214 356.277 315.877 357.145 315.549 358.004C315.317 358.592 315.095 359.18 314.893 359.759C314.671 360.347 314.459 360.936 314.266 361.515C314.053 362.093 313.851 362.672 313.668 363.241C313.051 365.084 312.472 366.897 311.951 368.673C311.497 370.216 311.083 371.721 310.696 373.197C310.417 374.258 310.156 375.29 309.915 376.313C309.549 377.818 309.221 379.274 308.931 380.692C308.931 380.721 308.922 380.74 308.922 380.76C308.816 381.242 308.719 381.715 308.622 382.178C307.918 385.689 307.397 388.873 307.002 391.612C306.925 392.152 306.857 392.663 306.78 393.165C306.558 394.873 306.375 396.378 306.221 397.651C305.072 407.288 304.967 415.401 305.101 421.092C299.323 421.806 292.484 422.105 284.872 421.372C284.111 421.304 283.358 421.217 282.615 421.131C282.423 421.102 282.23 421.082 282.046 421.053C281.612 421.005 281.178 420.948 280.744 420.88C280.281 420.822 279.827 420.754 279.374 420.677C278.178 420.494 277.011 420.291 275.853 420.06C275.275 419.944 274.705 419.828 274.136 419.703C273.606 419.587 273.075 419.471 272.554 419.346C272.429 419.326 272.313 419.298 272.187 419.259C271.724 419.152 271.261 419.037 270.808 418.921C270.258 418.786 269.718 418.641 269.187 418.497C268.647 418.352 268.117 418.198 267.596 418.043C267.094 417.898 266.593 417.744 266.091 417.59C265.348 417.358 264.615 417.127 263.901 416.876C263.226 416.654 262.56 416.423 261.904 416.182C261.567 416.056 261.229 415.931 260.891 415.805C260.438 415.641 259.985 415.467 259.541 415.294C258.837 415.014 258.142 414.735 257.467 414.445C256.878 414.204 256.309 413.953 255.741 413.702C255.181 413.461 254.621 413.2 254.081 412.95C253.531 412.699 253.001 412.438 252.47 412.188C247.965 410.008 244.174 407.75 241.184 405.792C235.782 394.197 226.917 370.409 232.328 341.941C237.026 317.217 252.683 288.046 270.065 280.936C270.065 280.936 270.085 280.927 270.133 280.908C272.574 279.914 275.053 279.364 277.542 279.316C282.761 279.219 286.195 281.399 297.115 281.168C297.954 281.149 300.057 281.091 303.048 280.772C305.305 281.351 307.668 282.065 310.128 282.924C318.039 285.683 325.254 294.664 332.923 305.699C335.758 309.771 338.643 314.131 341.653 318.558Z" fill="#AF3AF9"/>
<path d="M341.652 318.559C339.684 320.382 338.073 321.752 336.588 323.102C336.481 323.208 336.366 323.315 336.25 323.411C333.433 326.016 330.983 328.698 327.23 334.591C325.61 337.128 324.115 339.685 322.754 342.231C322.388 342.888 322.041 343.543 321.712 344.189C321.365 344.855 321.028 345.511 320.709 346.167C320.488 346.611 320.265 347.055 320.063 347.498C319.542 348.569 319.041 349.65 318.568 350.711C318.346 351.193 318.143 351.666 317.941 352.138C317.864 352.302 317.786 352.476 317.719 352.64C317.564 352.997 317.41 353.354 317.265 353.711C317.024 354.28 316.793 354.849 316.561 355.409C316.214 356.277 315.876 357.145 315.548 358.004C315.317 358.592 315.105 359.181 314.892 359.759C314.67 360.348 314.468 360.926 314.265 361.515C314.063 362.094 313.86 362.663 313.667 363.241C313.05 365.084 312.471 366.898 311.95 368.673C311.496 370.217 311.082 371.721 310.696 373.197C310.426 374.248 310.165 375.29 309.915 376.313C309.558 377.818 309.23 379.284 308.931 380.693C308.931 380.721 308.921 380.741 308.921 380.76C308.815 381.242 308.718 381.715 308.622 382.178C307.918 385.689 307.397 388.873 307.001 391.612C306.924 392.152 306.857 392.664 306.78 393.165C306.558 394.873 306.374 396.378 306.22 397.651C305.072 407.288 304.966 415.401 305.101 421.092C299.323 421.806 292.483 422.105 284.872 421.372C284.11 421.305 283.358 421.218 282.615 421.131C282.422 421.102 282.229 421.082 282.046 421.054C281.612 421.006 281.178 420.948 280.744 420.88C280.28 420.822 279.827 420.755 279.374 420.677C278.177 420.494 277.01 420.292 275.852 420.06C275.274 419.944 274.705 419.828 274.136 419.703C273.605 419.587 273.074 419.471 272.553 419.346C272.428 419.327 272.312 419.298 272.187 419.259C271.724 419.153 271.261 419.037 270.808 418.921C270.258 418.786 269.717 418.641 269.187 418.497C268.647 418.352 268.116 418.198 267.595 418.043C267.084 417.899 266.582 417.744 266.091 417.59C265.348 417.359 264.614 417.127 263.901 416.876C263.225 416.654 262.56 416.423 261.904 416.182C261.566 416.056 261.228 415.931 260.891 415.805C260.438 415.642 259.984 415.468 259.541 415.294C258.836 415.015 258.141 414.735 257.467 414.445C256.878 414.204 256.309 413.953 255.74 413.702C255.18 413.461 254.621 413.201 254.081 412.95C253.531 412.699 253 412.438 252.47 412.188C260.901 407.924 265.078 402.869 267.258 398.364C271.338 389.885 268.155 383.924 274.184 374.325C280.879 363.656 288.239 365.566 297.809 355.996C304.397 349.408 305.931 343.485 307.021 337.562C308.265 330.858 308.951 324.153 315.732 316.484C321.597 309.847 327.289 307.86 332.922 305.699C335.758 309.771 338.642 314.131 341.652 318.559Z" fill="#AF3AF9"/>
<path d="M403.535 363.791L399.358 376.978C399.358 376.978 353.469 394.757 317.719 352.64C314.024 348.279 310.436 343.282 307.021 337.562C304.484 333.318 302.043 328.678 299.718 323.603L270.064 280.936C270.064 280.936 270.084 280.927 270.132 280.907C271.078 280.483 282.798 275.505 303.047 280.772C305.304 281.351 307.668 282.065 310.127 282.924C318.038 285.682 325.253 294.663 332.922 305.699C335.758 309.77 338.643 314.13 341.653 318.558C356.826 340.851 375 364.9 403.535 363.791Z" fill="#AF3AF9"/>
<path d="M413.547 825.726L352.15 653.369C351.472 651.465 349.241 650.445 347.168 651.09C345.095 651.735 343.964 653.802 344.642 655.706L406.04 828.063C406.718 829.966 408.948 830.987 411.021 830.342C413.094 829.696 414.225 827.63 413.547 825.726Z" fill="#9858EA"/>
<path d="M363.38 695.432C363.355 697.801 361.472 699.819 359.172 699.948L288.048 703.93C285.663 704.063 283.622 702.227 283.491 699.82C283.359 697.404 285.202 695.333 287.604 695.204L359.232 691.346C361.548 691.221 363.404 693.054 363.38 695.432Z" fill="#9858EA"/>
<path d="M381.9 741.024C381.851 743.213 379.912 745.102 377.567 745.25L305.124 749.833C302.697 749.987 300.645 748.317 300.543 746.096C300.441 743.867 302.341 741.932 304.785 741.781L377.718 737.303C380.079 737.157 381.95 738.827 381.9 741.024Z" fill="#9858EA"/>
<path d="M394.139 783.057C394.07 785.086 392.194 786.86 389.946 787.024L320.572 792.103C318.249 792.273 316.308 790.749 316.238 788.693C316.168 786.629 318.009 784.815 320.348 784.648L390.171 779.656C392.433 779.494 394.208 781.02 394.139 783.057Z" fill="#9858EA"/>
<path d="M274.538 660.09C273.847 658.152 271.607 657.104 269.534 657.749C267.461 658.394 266.339 660.488 267.03 662.426L329.524 837.862C330.214 839.8 332.455 840.848 334.528 840.203C336.601 839.557 337.722 837.463 337.032 835.526L274.538 660.09Z" fill="#9858EA"/>
<path d="M495.868 819.064C487.203 818.376 476.116 815.968 465.476 809.011C453.963 801.485 438.968 786.017 442.882 776.27C444.343 772.631 448.55 769.515 452.248 769.812C457.712 770.251 458.347 777.84 467.835 786.094C469.588 787.62 478.653 795.507 483.159 792.849C485.399 791.528 486.062 787.866 485.696 785.083C484.628 776.944 474.691 775.694 465.138 766.884C455.453 757.951 447.379 742.369 451.994 731.834C454.646 725.779 461.661 720.998 466.272 722.342C468.243 722.917 469.492 724.527 475.476 737.453C480.387 748.063 481.479 751.156 484.645 752.161C487.904 753.197 492.971 751.898 494.897 748.687C499.912 740.324 478.235 727.978 476.267 704.576C475.384 694.089 478.221 678.546 487.719 675.214C494.139 672.962 503.285 676.402 506.592 682.292C509.573 687.601 505.951 691.596 508.225 703.524C508.915 707.143 510.335 714.592 513.332 714.983C516.85 715.441 520.786 705.944 521.696 703.631C528.545 686.218 520.692 677.264 527.15 668.811C532.186 662.219 543.144 659.572 551.825 662.901C559.421 665.815 565.497 673.391 565.903 681.242C566.317 689.231 559.598 697.183 546.16 713.088C539.787 720.631 534.717 725.726 535.006 733.223C535.146 736.878 536.595 742.018 539.213 742.488C544.99 743.524 547.834 720.26 561.526 716.668C568.535 714.829 577.244 718.443 581.071 724.761C585.76 732.501 582.619 743.472 576.728 749.241C569.042 756.768 561.16 751.048 546.697 759.133C540.282 762.719 530.199 770.348 531.676 776.658C532.318 779.405 535.197 782.095 538.358 782.454C545.441 783.258 547.78 771.65 559.167 766.547C567.372 762.871 578.716 763.268 581.411 767.895C585.215 774.427 571.703 789.256 564.52 795.809C555.836 803.73 535.355 818.752 495.868 819.064Z" fill="#AD7EFA"/>
<g opacity="0.5">
<path d="M499.462 815.359C498.314 795.897 511.193 756.278 520.564 737.554C529.706 719.285 538.457 690.368 538.544 690.078L539.685 690.421C539.597 690.712 530.817 719.726 521.629 738.087C512.316 756.695 499.514 796.021 500.65 815.29L499.462 815.359Z" fill="#D0B4FF"/>
</g>
<path d="M475.443 821.595C468.918 812.536 459.346 796.191 457.63 774.322C456.923 765.311 455.541 747.712 466.308 732.53C471.674 724.964 483.054 713.773 490.744 717.001C495.691 719.078 498.763 726.979 497.366 732.987C495.958 739.045 490.838 739.606 485.263 749.887C483.2 753.691 480.843 758.156 482.653 760.679C484.166 762.785 488.32 763.169 491.435 761.905C497.87 759.295 495.859 751.284 502.816 745.538C507.762 741.452 516.008 739.531 519.566 742.878C522.656 745.784 522.118 752.572 519.388 757.097C515.016 764.343 507.177 762.217 502.067 770.138C499.8 773.653 498.188 778.961 500.172 781.059C502.433 783.451 509.087 781.383 513.352 778.739C518.982 775.249 519.19 771.535 522.898 771.07C527.034 770.55 532.205 774.489 533.013 778.847C534.146 784.95 526.658 791.532 520.729 794.393C513.138 798.054 507.498 795.905 503.791 800.907C502.43 802.743 501.184 805.739 502.299 807.557C503.891 810.151 509.645 809.295 513.465 808.726C522.762 807.342 525.322 803.971 528.653 805.609C532.026 807.268 533.766 812.87 532.307 816.799C531.496 818.983 529.061 822.366 516.994 824.484C508.548 825.966 494.358 827.009 475.443 821.595Z" fill="#CAAAFF"/>
</g>
<defs>
<linearGradient id="paint0_linear_3_1316" x1="625.793" y1="719.224" x2="709.196" y2="719.224" gradientUnits="userSpaceOnUse">
<stop stop-color="#311944"/>
<stop offset="1" stop-color="#893976"/>
</linearGradient>
<linearGradient id="paint1_linear_3_1316" x1="662.244" y1="532.063" x2="674.561" y2="551.639" gradientUnits="userSpaceOnUse">
<stop offset="0.0036" stop-color="#E38DDD"/>
<stop offset="1" stop-color="#9571F6"/>
</linearGradient>
<clipPath id="clip0_3_1316">
<rect width="970" height="970" fill="white"/>
</clipPath>
</defs>
</svg>
