<svg width="970" height="970" viewBox="0 0 970 970" fill="none" xmlns="http://www.w3.org/2000/svg">
<g clip-path="url(#clip0_2_154)">
<path d="M758.694 736.359C744.009 751.818 730.115 761.787 719.138 769.664C590.1 862.25 437.414 835.262 404.963 828.671C357.045 818.938 264.419 800.125 197.452 721.374C96.1373 602.23 111.913 414.521 190.5 290.612C204.875 267.947 280.807 142.15 435.138 121.976C528.537 109.768 637.411 134.391 716.254 200.447C881.753 339.102 869.971 619.21 758.694 736.359Z" fill="#E6D9FB"/>
<path d="M847.057 849.456H551.223V382.954C551.223 375.927 556.918 370.231 563.945 370.231H838.96C845.986 370.231 851.682 375.927 851.682 382.954V844.832C851.682 847.386 849.611 849.456 847.057 849.456Z" fill="#B68AFF"/>
<path d="M654.926 849.456H393.063V531.646C393.063 524.62 398.759 518.924 405.786 518.924H642.204C649.23 518.924 654.926 524.62 654.926 531.646V849.456Z" fill="#AF3AF9"/>
<path d="M494.595 849.456H252.488C249.934 849.456 247.863 847.385 247.863 844.831V647.451C247.863 640.424 253.559 634.729 260.585 634.729H481.874C488.9 634.729 494.596 640.424 494.596 647.451L494.595 849.456Z" fill="#B68AFF"/>
<path d="M343.958 851.037H122.942C120.388 851.037 118.317 848.967 118.317 846.413V718.896C118.317 711.87 124.013 706.174 131.04 706.174H331.236C338.263 706.174 343.958 711.87 343.958 718.896V851.037Z" fill="#AF3AF9"/>
<g opacity="0.3">
<path d="M314.502 304.175C312.325 303.48 310.981 301.238 311.457 298.952C312.495 293.952 313.767 288.924 315.235 284.006C315.949 281.614 318.468 280.253 320.859 280.967C320.888 280.976 320.916 280.985 320.944 280.994C323.283 281.742 324.604 284.228 323.898 286.592C322.502 291.264 321.295 296.041 320.308 300.79C319.801 303.234 317.407 304.805 314.962 304.296C314.805 304.264 314.652 304.223 314.502 304.175ZM326.763 266.753C326.595 266.699 326.428 266.635 326.262 266.559C323.99 265.526 322.985 262.845 324.019 260.573C326.143 255.906 328.488 251.283 330.988 246.834C332.21 244.658 334.954 243.887 337.143 245.107C339.319 246.33 340.091 249.086 338.869 251.261C336.493 255.491 334.266 259.882 332.248 264.318C331.29 266.425 328.915 267.44 326.763 266.753ZM346.959 232.961C346.48 232.808 346.018 232.571 345.595 232.249C343.61 230.735 343.227 227.898 344.741 225.913C347.843 221.844 351.162 217.858 354.604 214.068C356.284 212.221 359.142 212.087 360.99 213.761C362.837 215.44 362.975 218.299 361.296 220.147C358.027 223.746 354.877 227.529 351.93 231.394C350.739 232.956 348.729 233.526 346.959 232.961ZM374.21 204.528C373.418 204.275 372.686 203.8 372.115 203.114C370.519 201.195 370.781 198.344 372.699 196.748C376.637 193.474 380.763 190.33 384.962 187.405C387.01 185.981 389.826 186.484 391.255 188.531C392.682 190.579 392.177 193.397 390.129 194.824C386.14 197.602 382.221 200.587 378.48 203.7C377.248 204.724 375.632 204.983 374.21 204.528ZM407.116 182.886C406.005 182.531 405.032 181.75 404.462 180.628C403.331 178.402 404.219 175.681 406.444 174.551C410.998 172.238 415.716 170.086 420.466 168.159C422.778 167.218 425.415 168.331 426.354 170.646C427.292 172.959 426.179 175.595 423.865 176.535C419.351 178.366 414.867 180.411 410.539 182.61C409.435 183.171 408.21 183.235 407.116 182.886ZM443.988 169.064C442.549 168.604 441.373 167.435 440.976 165.863C440.366 163.441 441.833 160.985 444.254 160.374C449.214 159.122 454.292 158.068 459.342 157.242C461.807 156.839 464.13 158.51 464.533 160.975C464.936 163.437 463.265 165.761 460.802 166.164C456.002 166.95 451.179 167.95 446.465 169.14C445.617 169.354 444.764 169.312 443.988 169.064ZM605.045 209.219C604.448 209.029 603.884 208.711 603.39 208.264C599.79 205.004 595.998 201.858 592.122 198.914C590.134 197.404 589.746 194.569 591.256 192.582C592.765 190.593 595.601 190.205 597.589 191.715C601.672 194.816 605.666 198.129 609.457 201.561C611.308 203.237 611.45 206.096 609.775 207.946C608.546 209.304 606.682 209.742 605.045 209.219ZM482.981 163.76C481.195 163.189 479.883 161.535 479.838 159.556C479.781 157.06 481.758 154.991 484.254 154.933C489.369 154.816 494.552 154.92 499.659 155.243C502.149 155.412 504.043 157.546 503.886 160.039C503.728 162.53 501.581 164.422 499.088 164.266C494.239 163.959 489.318 163.86 484.46 163.971C483.944 163.982 483.446 163.908 482.981 163.76ZM573.06 186.252C572.776 186.161 572.496 186.042 572.225 185.891C567.984 183.518 563.584 181.299 559.148 179.291C556.874 178.26 555.865 175.582 556.894 173.308C557.925 171.035 560.605 170.013 562.877 171.054C567.544 173.168 572.174 175.504 576.637 177.999C578.816 179.218 579.595 181.972 578.377 184.151C577.31 186.058 575.065 186.892 573.06 186.252ZM522.181 167.299C520.008 166.605 518.664 164.368 519.134 162.084C519.637 159.639 522.027 158.065 524.473 158.566C529.479 159.597 534.509 160.857 539.42 162.315C539.451 162.323 539.482 162.333 539.513 162.342C541.849 163.089 543.169 165.57 542.469 167.932C541.759 170.326 539.244 171.691 536.85 170.981C532.184 169.598 527.407 168.401 522.65 167.423C522.491 167.388 522.334 167.347 522.181 167.299Z" fill="#FFB461"/>
<path d="M626.551 232.564C625.704 232.293 624.926 231.77 624.343 231.01C622.926 229.159 621.446 227.309 619.946 225.506C618.348 223.589 618.607 220.737 620.525 219.14C622.443 217.542 625.296 217.799 626.892 219.721C628.471 221.616 630.027 223.562 631.519 225.509C633.037 227.49 632.662 230.329 630.682 231.846C629.46 232.783 627.914 232.999 626.551 232.564Z" fill="#FFB461"/>
</g>
<g opacity="0.3">
<path d="M661.014 365.997C658.936 365.333 657.588 363.241 657.925 361.015C658.274 358.711 658.581 356.361 658.836 354.031C659.108 351.549 661.34 349.757 663.821 350.029C666.313 350.303 668.095 352.534 667.823 355.015C667.553 357.468 667.231 359.943 666.863 362.369C666.489 364.838 664.185 366.535 661.717 366.162C661.475 366.125 661.24 366.069 661.014 365.997Z" fill="#FFB461"/>
<path d="M433.521 507.513C431.54 506.88 429.562 506.211 427.588 505.506C425.237 504.666 424.011 502.08 424.85 499.729C425.69 497.378 428.29 496.147 430.627 496.99C435.184 498.617 439.796 500.055 444.388 501.277C446.802 501.924 448.236 504.395 447.594 506.808C446.952 509.222 444.475 510.657 442.063 510.014C439.222 509.258 436.348 508.416 433.521 507.513ZM405.713 495.966C405.472 495.889 405.234 495.79 405.002 495.67C400.525 493.348 396.097 490.81 391.841 488.127C389.729 486.796 389.096 484.005 390.427 481.894C391.759 479.782 394.556 479.145 396.661 480.481C400.704 483.029 404.911 485.439 409.165 487.647C411.381 488.796 412.245 491.524 411.096 493.739C410.067 495.723 407.772 496.624 405.713 495.966ZM465.418 514.525C463.388 513.876 462.042 511.857 462.313 509.666C462.62 507.187 464.877 505.428 467.354 505.734C472.094 506.321 476.922 506.713 481.709 506.896C484.204 506.996 486.148 509.093 486.052 511.587C485.956 514.083 483.855 516.027 481.361 515.931C476.321 515.737 471.234 515.324 466.243 514.706C465.958 514.671 465.682 514.609 465.418 514.525ZM373.48 474.437C372.934 474.263 372.413 473.979 371.947 473.588C368.093 470.342 364.331 466.891 360.767 463.334C359 461.57 358.998 458.709 360.761 456.943C362.526 455.175 365.386 455.171 367.154 456.937C370.538 460.314 374.11 463.591 377.77 466.673C379.68 468.281 379.923 471.133 378.316 473.042C377.1 474.485 375.173 474.978 373.48 474.437ZM504.144 514.996C502.478 514.464 501.203 512.985 501.02 511.134C500.773 508.65 502.588 506.436 505.073 506.19C509.822 505.72 514.619 505.039 519.331 504.168C521.785 503.714 524.144 505.335 524.598 507.792C525.051 510.246 523.429 512.603 520.975 513.057C516.015 513.975 510.965 514.691 505.963 515.186C505.331 515.249 504.714 515.178 504.144 514.996ZM542.036 506.958C540.704 506.533 539.588 505.498 539.116 504.07C538.333 501.699 539.619 499.143 541.99 498.36C546.536 496.857 551.072 495.146 555.471 493.274C557.767 492.293 560.421 493.361 561.401 495.662C562.378 497.959 561.309 500.613 559.012 501.592C554.382 503.562 549.61 505.363 544.826 506.943C543.885 507.254 542.914 507.239 542.036 506.958ZM577.274 490.851C576.261 490.528 575.359 489.848 574.771 488.864C573.49 486.721 574.19 483.946 576.333 482.666C580.447 480.208 584.502 477.551 588.385 474.766C590.413 473.312 593.236 473.774 594.692 475.806C596.146 477.835 595.682 480.658 593.652 482.114C589.565 485.043 585.298 487.841 580.969 490.427C579.811 491.118 578.467 491.232 577.274 490.851ZM608.158 467.444C607.457 467.22 606.801 466.821 606.258 466.249C604.54 464.438 604.616 461.578 606.427 459.86C609.903 456.564 613.275 453.084 616.453 449.513C618.113 447.649 620.973 447.484 622.834 449.14C624.7 450.8 624.866 453.658 623.206 455.523C619.859 459.284 616.307 462.95 612.649 466.419C611.409 467.594 609.678 467.929 608.158 467.444ZM633.161 437.816C632.766 437.69 632.383 437.507 632.022 437.265C629.947 435.878 629.39 433.069 630.778 430.996C633.434 427.025 635.956 422.889 638.273 418.698C639.482 416.514 642.238 415.728 644.416 416.931C646.601 418.139 647.392 420.891 646.184 423.076C643.744 427.486 641.089 431.841 638.292 436.021C637.146 437.734 635.031 438.414 633.161 437.816ZM651.031 403.443C650.943 403.414 650.855 403.383 650.767 403.349C648.44 402.446 647.286 399.827 648.189 397.5C649.464 394.215 650.652 390.852 651.722 387.502C652.11 386.289 652.483 385.074 652.842 383.859C653.55 381.464 656.065 380.097 658.458 380.806C660.896 381.476 662.219 384.028 661.512 386.421C661.134 387.7 660.742 388.976 660.334 390.253C659.208 393.776 657.957 397.316 656.616 400.771C655.748 403.01 653.289 404.164 651.031 403.443Z" fill="#FFB461"/>
<path d="M346.717 446.252C345.861 445.978 345.079 445.449 344.495 444.68C343.016 442.73 341.55 440.712 340.138 438.682C338.712 436.632 339.218 433.815 341.268 432.39C343.318 430.966 346.133 431.468 347.56 433.52C348.901 435.448 350.293 437.364 351.697 439.216C353.206 441.203 352.817 444.039 350.828 445.548C349.609 446.473 348.071 446.684 346.717 446.252Z" fill="#FFB461"/>
</g>
<path d="M358.922 404.619C359.267 405.494 360.129 406.055 361.069 406.014L387.892 404.855C395.027 415.166 403.856 424.413 414.204 432.122L412.11 458.87C412.036 459.809 412.566 460.69 413.43 461.066L442.962 473.908C443.825 474.283 444.831 474.069 445.467 473.376L463.603 453.603C476.298 455.914 489.082 456.066 501.489 454.252L518.934 474.661C519.545 475.376 520.543 475.624 521.419 475.28L551.382 463.478C552.258 463.133 552.818 462.27 552.777 461.33L551.619 434.507C561.929 427.373 571.176 418.543 578.885 408.196L605.634 410.29C606.572 410.363 607.454 409.834 607.829 408.971L620.671 379.438C621.047 378.575 620.833 377.568 620.139 376.933L600.366 358.796C602.677 346.102 602.829 333.318 601.015 320.911L621.424 303.466C622.139 302.855 622.388 301.856 622.043 300.981L610.241 271.018C609.896 270.142 609.033 269.582 608.093 269.622L581.27 270.781C574.137 260.47 565.307 251.223 554.959 243.515L557.053 216.765C557.127 215.827 556.597 214.946 555.734 214.57L526.201 201.728C525.338 201.353 524.332 201.566 523.696 202.26L505.56 222.033C492.865 219.722 480.081 219.57 467.674 221.384L450.23 200.976C449.618 200.26 448.62 200.012 447.745 200.357L417.781 212.159C416.906 212.504 416.345 213.366 416.386 214.306L417.544 241.129C407.233 248.263 397.986 257.093 390.278 267.44L363.529 265.346C362.591 265.272 361.709 265.802 361.334 266.666L348.492 296.198C348.117 297.061 348.33 298.067 349.024 298.704L368.797 316.84C366.486 329.534 366.334 342.318 368.148 354.725L347.74 372.17C347.024 372.781 346.776 373.779 347.12 374.655L358.922 404.619Z" fill="#FFB461"/>
<path opacity="0.6" d="M474.709 368.649C459.678 363.847 450.005 348.593 452.639 332.569C455.534 314.954 472.218 302.982 489.831 305.876C498.365 307.276 505.839 311.919 510.88 318.943C515.921 325.967 517.926 334.534 516.523 343.067C513.628 360.681 496.944 372.654 479.331 369.76C477.743 369.498 476.199 369.125 474.709 368.649ZM492.185 314.187C491.024 313.817 489.831 313.528 488.606 313.327C475.102 311.107 462.31 320.289 460.09 333.792C457.871 347.296 467.047 360.093 480.556 362.308C494.059 364.528 506.852 355.346 509.072 341.843C510.147 335.301 508.61 328.732 504.745 323.346C501.602 318.969 497.226 315.798 492.185 314.187Z" fill="white"/>
<path opacity="0.6" d="M461.111 413.387C458.53 412.563 455.975 411.603 453.455 410.508C452.662 410.163 451.875 409.805 451.093 409.436C447.239 407.61 443.537 405.481 440.042 403.081C439.995 403.049 439.947 403.016 439.899 402.984C439.765 402.89 439.63 402.797 439.496 402.702C439.234 402.519 438.974 402.334 438.715 402.148C438.033 401.66 437.774 400.801 438.015 400.042C438.074 399.857 438.163 399.679 438.282 399.513C438.889 398.666 440.068 398.476 440.916 399.081C445.274 402.21 449.999 404.888 454.96 407.044C479.597 417.762 506.882 414.309 527.662 400.3C539.221 392.51 548.767 381.453 554.725 367.749C555.77 365.346 556.687 362.908 557.472 360.446C562.764 343.874 562.201 326.134 555.739 309.73C548.318 290.886 534.002 276.061 515.43 267.985C477.073 251.311 432.336 268.943 415.666 307.28C414.638 309.644 413.733 312.051 412.955 314.491C409.58 325.062 408.555 336.254 409.994 347.268C410.031 347.552 410.003 347.83 409.92 348.086C409.705 348.76 409.116 349.286 408.367 349.384C407.332 349.516 406.384 348.793 406.25 347.755C404.739 336.192 405.814 324.441 409.358 313.344C410.175 310.783 411.124 308.257 412.202 305.775C429.705 265.524 476.699 247.026 516.936 264.522C536.433 273 551.461 288.564 559.252 308.346C566.036 325.567 566.627 344.19 561.072 361.588C560.247 364.173 559.285 366.732 558.189 369.254C549.71 388.752 534.146 403.781 514.365 411.572C497.14 418.358 478.511 418.946 461.111 413.387Z" fill="white"/>
<path d="M184.009 690.697L180.297 698.332C180.297 699.803 181.321 701.07 182.758 701.38C184.246 701.702 186.22 701.908 188.136 701.433C189.334 701.136 190.211 700.106 190.356 698.88L197.566 679.603L184.009 690.697Z" fill="#FED1A7"/>
<path d="M285.593 638.976C278.166 632.511 262.208 627.332 262.208 627.332L252.607 627.542C250.17 630.283 249.068 635.596 248.598 638.926C250.405 640.009 253.794 640.958 260.005 641.254C271.508 641.802 280.791 640.121 285.593 638.976Z" fill="#51056F"/>
<path d="M285.593 638.976C280.791 640.12 271.508 641.802 260.005 641.254C253.793 640.958 250.405 640.009 248.597 638.926C248.559 639.193 248.524 639.452 248.495 639.692C248.324 641.057 249.168 642.341 250.485 642.744C259.255 645.433 278.546 644.568 286.067 644.102C287.675 644.002 288.515 642.116 287.485 640.877C286.949 640.233 286.308 639.599 285.593 638.976Z" fill="#51056F"/>
<path d="M257.103 619.252L253.391 626.887C253.391 628.357 254.415 629.624 255.852 629.935C257.34 630.256 259.314 630.462 261.23 629.987C262.428 629.69 263.305 628.66 263.45 627.435L268.127 619.252L257.103 619.252Z" fill="#FED1A7"/>
<path d="M183.745 692.252L191.982 691.651C193.306 691.695 195.178 690.197 195.483 688.908C198.6 675.739 245.979 571.402 256.682 552.244L223.132 537.56C223.132 537.56 179.971 692.138 183.745 692.252Z" fill="#600A82"/>
<path d="M309.816 538.619C297.534 532.029 263.33 526.331 263.33 526.331L223.545 515.558C223.545 515.558 212.621 548.144 231.762 554.025C250.904 559.905 278.571 557.121 290.171 555.583C290.171 555.583 274.664 566.721 256.1 620.672C256.1 620.672 262.348 620.806 267.431 621.994C267.431 621.994 308.865 570.424 313.207 557.12C316.071 548.345 320.082 544.127 309.816 538.619Z" fill="#51056F"/>
<path d="M333.627 431.172C325.021 430.566 298.873 436.249 298.873 436.249L312.3 447.29C312.3 447.29 322.884 444.715 329.936 443.336C329.936 443.336 347.346 432.139 333.627 431.172Z" fill="#FED1A7"/>
<path d="M364.364 438.985C364.364 438.985 352.833 449.692 345.828 452.599C338.823 455.507 334.728 458.675 330.387 450.919C326.047 443.163 327.718 434.758 333.511 428.488C333.511 428.488 342.402 418.729 347.359 418.477C352.315 418.225 364.364 438.985 364.364 438.985Z" fill="#FED1A7"/>
<path d="M339.62 429.513L339.986 430.558C339.986 430.558 347.301 423.155 350.18 426.391C353.058 429.627 361.373 443.531 367.822 444.896C374.039 446.211 379.681 441.109 380.073 436.302C380.098 435.998 379.865 435.731 379.564 435.686L378.791 435.571C378.262 435.492 378.099 434.809 378.534 434.498C378.947 434.204 378.83 433.549 378.335 433.438C376.398 433.008 372.873 431.237 369.024 424.519C363.563 414.987 357.07 409.697 349.968 412.006C349.518 412.152 349.104 411.761 349.203 411.298C349.397 410.385 349.189 409.105 347.271 407.971C343.934 405.999 338.232 409.288 335.365 417.188C335.229 417.563 334.773 417.721 334.456 417.477C333.341 416.619 331.036 415.566 330.249 420.67C329.443 425.89 330.613 428.4 331.209 429.294C331.369 429.534 331.672 429.627 331.938 429.515L338.046 426.936C338.361 426.803 338.724 426.964 338.838 427.287L339.62 429.513Z" fill="#51056F"/>
<path d="M338.403 430.229C338.403 430.229 346.304 424.914 342.497 421.872C338.69 418.83 333.465 427.317 334.24 430.566L338.403 430.229Z" fill="#FED1A7"/>
<path d="M410.369 464.057C410.369 464.057 416.856 466.362 418.054 462.501C419.251 458.641 415.906 448.35 418.028 446.929C420.151 445.507 423.817 438.405 422.656 435.159L419.998 437.684C419.998 437.684 421.809 431.728 419.82 429.19L414.79 442.128C414.79 442.128 408.122 457.519 410.369 464.057Z" fill="#FED1A7"/>
<path d="M293.128 438.36C293.128 438.36 304.693 425.599 329.974 445.516C347.396 459.241 410.18 456.451 410.18 456.451C410.18 456.451 410.148 460.007 411.378 464.302C411.378 464.302 358.692 478.543 319.142 468.875C319.142 468.875 275.444 518.411 272.079 528.112C272.079 528.112 243.682 532.353 223.545 515.557C223.545 515.557 228.946 498.808 246.432 479.387C269.136 454.17 293.128 438.36 293.128 438.36Z" fill="#955EE3"/>
<path d="M299.2 463.883C298.989 463.805 298.871 463.577 298.932 463.357C298.997 463.125 299.238 462.99 299.469 463.055C299.619 463.098 314.514 467.281 316.863 467.862C317.094 467.922 317.239 468.156 317.181 468.39C317.124 468.623 316.888 468.766 316.654 468.708C314.292 468.123 299.384 463.936 299.234 463.894C299.222 463.891 299.21 463.887 299.2 463.883Z" fill="#FED1A7"/>
<path d="M212.499 710.421C205.073 703.955 189.114 698.776 189.114 698.776L179.513 698.986C177.076 701.728 175.974 707.04 175.504 710.37C177.312 711.454 180.7 712.402 186.912 712.698C198.414 713.247 207.697 711.565 212.499 710.421Z" fill="#51056F"/>
<path d="M212.499 710.421C207.697 711.565 198.414 713.246 186.911 712.698C180.699 712.402 177.311 711.454 175.504 710.37C175.466 710.638 175.431 710.896 175.401 711.136C175.23 712.502 176.075 713.785 177.391 714.189C186.162 716.877 205.452 716.012 212.973 715.546C214.582 715.447 215.422 713.56 214.391 712.321C213.855 711.678 213.215 711.044 212.499 710.421Z" fill="#51056F"/>
</g>
<defs>
<clipPath id="clip0_2_154">
<rect width="970" height="970" fill="white"/>
</clipPath>
</defs>
</svg>
