<svg width="535" height="636" viewBox="0 0 535 636" fill="none" xmlns="http://www.w3.org/2000/svg">
<g filter="url(#filter0_d_131_77)">
<path d="M500.5 37H46.4963L46 188.184C103.074 170.28 150.972 211.573 152.207 263.278C152.207 318.48 96.3291 352.298 46 338.373V489.06H198.362C180.977 538.116 220.19 593.333 277.273 592.998C334.843 591.009 366.605 536.304 348.739 489.06L500.5 488.393V37Z" fill="#E155D2"/>
<path d="M198.362 488.06H47V339.677C97.5079 352.835 153.207 318.803 153.207 263.278V263.266L153.206 263.255C151.966 211.335 104.19 169.741 47.0045 186.83L47.493 38H499.5V487.397L348.735 488.06L347.294 488.066L347.804 489.413C365.435 536.036 334.105 590.025 277.252 591.999C220.823 592.32 182.168 537.748 199.305 489.394L199.777 488.06H198.362Z" stroke="white" stroke-width="2"/>
</g>
<mask id="mask0_131_77" style="mask-type:alpha" maskUnits="userSpaceOnUse" x="48" y="265" width="448" height="222">
<path d="M48.4805 486.245H109.681L103.265 480.277C141.939 443.366 166.933 423.086 209.872 399.712C254.785 374.349 328.324 371.365 360.898 403.691C377.154 418.398 389.031 445.963 392.486 477.293L391.992 485.748H495.144V456.406C480.908 394.381 453.193 355.451 407.292 313.677C355.808 276.628 326.474 264.124 272.553 265.934C217.391 272.84 190.179 283.529 147.684 313.677C114.182 340.582 91.4194 367.387 48.4805 412.513V486.245Z" fill="#D9D9D9"/>
</mask>
<g mask="url(#mask0_131_77)">
<g filter="url(#filter1_dd_131_77)">
<path fill-rule="evenodd" clip-rule="evenodd" d="M481.533 499.843C481.626 615.868 374.821 703.22 255.805 682.055C202.131 666.818 181.255 650.725 157.012 628.732C132.769 606.74 120.673 591.536 91.0917 563.633L41.2705 517.127L-27.9004 591.657C-54.276 618.172 -73.7616 633.161 -100.194 652.647C-119.631 664.511 -151.206 685.111 -200.259 684.488C-310.686 683.085 -379.791 614.76 -392.021 497.17L-392.028 488.707C-386.903 380.287 -325.266 302.819 -207.05 293.909C-170.83 293.772 -143.636 302.162 -111.353 317.527C-83.5062 333.366 -51.5841 360.719 -25.7306 387.7L41.227 462.965L60.6563 441.131L90.966 407.069C112.118 379.553 124.765 371.16 156.256 342.698C186.176 319.824 242.12 290.913 278.34 290.975C398.506 282.826 477.638 360.376 481.52 483.763L481.533 499.843ZM64.5865 491.983L145.547 568.666C161.894 583.886 176.686 598.261 195.365 611.786C215.604 628.696 271.512 649.906 293.408 649.789C369.839 649.727 447.361 567.555 447.306 499.87L447.294 483.791C449.709 395.499 368.586 307.047 271.372 331.602C225.308 337.995 157.832 381.581 133.754 413.805L64.5865 491.983ZM16.3575 490.911L-65.3953 396.195C-78.2525 379.611 -104.237 362.337 -123.77 353.082C-143.304 343.826 -174.231 335.252 -196.127 335.369C-281.899 327.425 -359.418 412.514 -353.912 488.676L-353.905 497.139C-354.265 583.883 -272.401 660.305 -187.691 644.258C-144.082 635.996 -98.6739 607.794 -67.5841 576.456L5.55325 501.922L16.3575 490.911Z" fill="url(#paint0_linear_131_77)"/>
</g>
<path d="M-175.067 272.5C-295.357 257.272 -406.723 387.831 -402.493 493.22L-359.879 494.726C-363.382 419.184 -281.132 294.942 -175.067 302.769C-124.455 306.505 -58.4405 355.726 -3.1175 419.757C2.41341 425.591 7.68463 431.196 13.3299 437.083L25.2916 448.873C87.0766 509.594 139.676 588.498 258.351 614.111C372.182 633.696 437.071 583.477 437.071 475.893L392.214 477.4C390.418 563.187 355.818 593.932 258.545 580.212C192.972 570.962 107.528 486.048 56.6912 434.07L43.2342 419.757C37.7582 414.049 33.6483 410.557 28.2821 404.897C-39.7502 339.153 -70.4022 290.58 -175.067 272.5Z" fill="url(#paint1_linear_131_77)"/>
<path d="M-175.075 278.527C-295.365 263.299 -402.242 388.584 -398.011 493.973L-350.913 492.466C-354.416 416.924 -281.139 302.475 -175.075 310.302C-124.463 314.038 -58.4478 363.259 -3.12487 427.29C2.40605 433.125 7.67722 438.729 13.3225 444.616L25.2842 456.406C87.0692 517.127 139.668 596.031 258.344 621.644C372.174 641.23 449.777 584.231 449.777 476.647L400.435 476.647C401.901 571.194 355.426 601.527 258.538 587.745C192.975 578.418 107.521 493.581 56.6838 441.603L43.2268 427.29C37.7508 421.582 33.6409 418.09 28.2747 412.43C-39.7576 346.686 -70.4095 296.606 -175.075 278.527Z" fill="url(#paint2_linear_131_77)"/>
<path d="M-175.07 285.307C-295.36 270.079 -394.764 389.338 -390.534 494.727L-351.658 492.467C-355.161 416.924 -281.134 310.009 -175.07 317.836C-124.458 321.571 -58.4429 370.792 -3.11995 434.824C2.41096 440.658 7.68214 446.263 13.3274 452.15L25.2891 463.939C87.0741 524.661 139.673 603.565 258.349 629.177C372.179 648.763 447.536 585.738 447.536 478.154L407.165 476.647C408.631 571.194 355.431 609.061 258.543 595.278C192.98 585.952 107.526 501.115 56.6887 449.136L43.2317 434.824C37.7557 429.115 33.6458 425.624 28.2796 419.964C-39.7527 354.22 -70.4046 303.386 -175.07 285.307Z" fill="url(#paint3_linear_131_77)"/>
<path d="M-175.068 292.087C-295.358 276.859 -390.278 387.831 -386.048 493.22H-350.063C-353.566 417.677 -281.132 317.541 -175.068 325.369C-124.456 329.104 -58.4415 378.325 -3.1185 442.356C2.41242 448.191 7.68363 453.796 13.3289 459.683L25.2906 471.472C87.0756 532.193 139.675 611.098 258.35 636.71C372.181 656.296 459.498 584.231 459.498 476.647L415.389 476.647C416.856 571.194 355.433 616.594 258.544 602.811C192.981 593.485 107.527 508.647 56.6902 456.669L43.2332 442.356C37.7572 436.648 33.6473 433.157 28.2811 427.497C-39.7512 361.752 -70.4031 310.166 -175.068 292.087Z" fill="url(#paint4_linear_131_77)"/>
<path d="M-175.068 374.334C-295.358 359.106 -368.597 407.417 -364.367 512.806L-306.8 492.467C-310.303 416.924 -242.984 385.888 -167.745 403.576C-117.06 415.493 -58.4417 461.189 -3.11868 525.22C2.41223 531.055 7.6834 536.66 13.3287 542.546L25.2904 554.336C87.0753 615.057 139.868 673.261 258.544 698.874C372.374 718.46 497.626 584.985 497.626 477.401L458.75 476.647C460.217 571.194 355.432 690.057 258.544 676.274C192.981 666.948 107.527 591.511 56.6899 539.533L43.2329 525.22C37.7569 519.512 33.647 516.021 28.2808 510.361C-39.7515 444.616 -70.4033 392.413 -175.068 374.334Z" fill="url(#paint5_linear_131_77)"/>
<path d="M-173.573 364.404C-293.863 349.176 -371.585 408.033 -367.355 513.422L-311.285 492.467C-314.789 416.924 -251.629 374.677 -169.988 395.906C-120.85 408.684 -56.9463 451.259 -1.6233 515.29C3.90762 521.125 9.17884 526.73 14.8241 532.617L26.7858 544.406C88.5708 605.127 141.364 669.494 260.039 695.107C373.87 714.693 491.645 584.231 491.645 476.647H449.779C451.246 571.194 362.639 675.203 265.751 661.421C200.188 652.095 109.023 581.581 58.1854 529.603L44.7284 515.29C39.2524 509.582 35.1425 506.091 29.7763 500.431C-38.256 434.686 -68.908 382.483 -173.573 364.404Z" fill="url(#paint6_linear_131_77)"/>
<path d="M-175.067 358.907C-295.357 343.679 -376.07 401.029 -371.839 506.419L-315.887 492.68C-319.39 417.137 -256.861 372.915 -173.724 389.264C-123.916 399.058 -58.4401 445.762 -3.11711 509.793C2.41381 515.628 7.685 521.233 13.3303 527.119L25.292 538.909C87.077 599.63 144.203 664.221 262.879 689.833C376.709 709.419 485.649 584.984 485.649 477.4L452.771 477.4C454.238 571.947 359.767 672.943 262.879 659.161C197.316 649.835 107.529 576.084 56.6915 524.106L43.2346 509.793C37.7586 504.085 33.6487 500.594 28.2824 494.934C-39.7499 429.189 -70.4018 376.986 -175.067 358.907Z" fill="url(#paint7_linear_131_77)"/>
<path d="M-175.431 353.228C-295.909 338.091 -368.514 401.839 -364.277 506.602L-320.373 492.68C-323.882 417.586 -262.599 364.937 -170.345 383.045C-120.469 392.835 -58.622 439.566 -3.21262 503.217C2.32693 509.017 7.60634 514.588 13.2604 520.44L25.2409 532.159C87.1223 592.52 139.998 654.87 258.859 680.33C372.867 699.8 481.062 583.805 481.062 476.86L457.129 475.9C458.598 569.884 355.899 653.815 258.859 640.115C193.194 630.844 107.606 569.114 56.6894 517.445L43.2115 503.217C37.7269 497.542 33.6106 494.072 28.2359 488.446C-39.9026 423.092 -70.6024 371.2 -175.431 353.228Z" fill="url(#paint8_linear_131_77)"/>
<path d="M-175.062 344.202C-295.352 328.974 -370.089 390.844 -365.859 496.233L-324.741 492.467C-328.245 416.924 -266.428 358.378 -172.23 371.184C-121.938 378.021 -58.4349 431.057 -3.11189 495.088C2.41903 500.923 7.69031 506.527 13.3356 512.414L25.2973 524.204C87.0822 584.925 144.203 649.155 262.878 674.767C376.709 694.353 477.442 584.231 477.442 476.647L446.79 477.4C448.256 571.947 356.029 662.184 259.14 648.401C193.577 639.075 107.534 561.379 56.6968 509.401L43.2398 495.088C37.7638 489.38 33.6539 485.888 28.2877 480.228C-39.7446 414.484 -70.3966 362.281 -175.062 344.202Z" fill="url(#paint9_linear_131_77)"/>
<path d="M-175.06 330.642C-295.35 315.414 -376.817 393.857 -372.587 499.246L-327.73 492.466C-331.233 416.924 -269.574 343.928 -168.49 360.637C-118.411 368.915 -58.4334 417.497 -3.11045 481.528C2.42046 487.363 7.69157 492.967 13.3368 498.854L25.2986 510.644C87.0835 571.365 139.877 640.115 258.552 665.727C372.383 685.313 474.336 585.197 474.336 477.614L437.073 476.647C438.539 571.194 355.441 655.765 258.552 641.983C192.989 632.657 107.535 547.819 56.6981 495.841L43.2412 481.528C37.7651 475.82 33.6552 472.328 28.289 466.668C-39.7433 400.924 -70.3951 348.721 -175.06 330.642Z" fill="url(#paint10_linear_131_77)"/>
<path d="M-175.056 299.004C-295.346 283.776 -386.536 387.832 -382.306 493.221H-340.558C-344.061 417.678 -281.12 325.075 -175.056 332.903C-124.444 336.638 -58.4289 385.859 -3.10593 449.89C2.42498 455.725 7.69641 461.33 13.3417 467.216L25.3034 479.006C87.0884 539.727 139.687 618.631 258.363 644.244C372.193 663.83 460.994 584.984 460.994 477.401L421.371 476.648C422.838 571.195 355.445 624.127 258.557 610.345C192.994 601.019 107.54 516.181 56.7029 464.203L43.246 449.89C37.77 444.182 33.6601 440.69 28.2938 435.031C-39.7385 369.286 -70.3906 317.083 -175.056 299.004Z" fill="url(#paint11_linear_131_77)"/>
<path d="M-175.067 309.932C-295.357 294.704 -378.909 387.597 -374.678 492.986H-338.199C-341.702 417.443 -281.131 336.003 -175.067 343.831C-124.455 347.566 -58.4404 396.787 -3.11738 460.818C2.41354 466.653 7.68471 472.258 13.33 478.144L25.2917 489.934C87.0767 550.655 139.676 629.559 258.351 655.172C372.182 674.758 463.867 584.445 463.867 476.861L429 472.118C430.467 566.665 355.755 632.527 258.545 621.273C183.457 612.58 97.6348 527.793 56.6912 475.131L43.2343 460.818C37.7583 455.11 33.6484 451.619 28.2821 445.959C-39.7502 380.214 -70.4021 328.011 -175.067 309.932Z" fill="url(#paint12_linear_131_77)"/>
<path d="M-193.16 701.885C-312.03 709.419 -393.807 594.666 -402.49 493.22H-349.41C-339.691 574.577 -285.116 657.441 -193.16 642.375C-143.07 634.168 -66.0667 628.444 -10.7438 564.413C-5.21285 558.578 0.0583234 552.973 5.70361 547.087L17.6653 535.297C79.4503 474.576 134.486 370.43 253.162 344.818C364.197 329.543 455.651 374.22 458.754 477.4L392.217 477.399C378.384 386.338 329.288 373.323 253.162 383.989C190.605 392.754 92.3093 488.16 41.472 540.138L24.277 556.711C18.801 562.419 13.3127 566.657 7.94643 572.317C-60.0859 638.062 -88.495 683.806 -193.16 701.885Z" fill="url(#paint13_linear_131_77)"/>
<path d="M-193.163 695.107C-312.033 702.64 -389.325 594.666 -398.008 493.22H-338.199C-328.48 574.577 -273.905 678.534 -181.949 663.468C-131.859 655.261 -66.07 622.418 -10.747 558.387C-5.21607 552.552 0.0550987 546.948 5.70038 541.061L17.6621 529.271C79.4471 468.55 132.046 374.197 250.722 348.585C361.757 333.31 458.638 374.22 461.741 477.4L400.437 477.4C386.003 382.987 330.793 365.371 250.722 377.964C189.159 387.645 94.6657 479.66 43.8284 531.639L25.1382 549.718C19.6622 555.426 14.057 559.124 8.69081 564.784C-59.3415 630.529 -88.4982 677.027 -193.163 695.107Z" fill="url(#paint14_linear_131_77)"/>
<path d="M-175.969 629.569C-294.838 637.102 -356.43 594.666 -365.113 493.22C-342.252 493.758 -329.528 493.561 -306.8 492.467C-297.081 573.824 -232.787 596.796 -155.036 576.838C-105.859 564.215 -45.254 515.279 10.069 451.248C15.5999 445.413 23.2307 438.089 28.876 432.203L43.8281 417.136C105.613 356.415 152.979 277.02 267.363 266.474C378.398 251.199 494.523 374.221 497.626 477.401L441.555 477.402C435.058 383.12 367.302 295.925 278.577 309.413C213.105 319.365 117.841 373.073 67.004 425.051L53.547 439.364C48.071 445.072 43.9611 448.564 38.5949 454.224C-29.4374 519.968 -71.3035 611.49 -175.969 629.569Z" fill="url(#paint15_linear_131_77)"/>
<path d="M-164.753 604.339C-283.623 611.872 -357.176 594.667 -365.859 493.221C-344.554 493.531 -332.587 493.401 -311.284 492.467C-301.565 573.824 -253.718 599.437 -161.762 584.371C-111.673 576.164 -47.3785 522.599 7.94448 458.568C13.4754 452.733 17.999 447.882 23.6442 441.995L38.5964 428.435C100.381 367.714 147.747 285.307 264.374 269.487C377.263 261.954 488.543 374.221 491.647 477.401H443.052C436.555 383.119 356.09 297.432 267.364 310.919C201.892 320.872 117.843 383.619 67.0055 435.598L53.5485 449.91C48.0725 455.619 43.9626 459.11 38.5964 464.77C-29.4359 530.515 -60.0878 586.259 -164.753 604.339Z" fill="url(#paint16_linear_131_77)"/>
<path d="M-164.754 616.763C-283.624 624.296 -355.682 595.791 -364.365 494.345L-315.888 492.68C-306.169 574.037 -256.71 606.588 -164.754 591.522C-114.664 583.315 -47.3796 529.75 7.9434 465.719C13.4743 459.884 21.7359 452.019 27.3812 446.132L39.3429 434.833C101.128 374.112 152.979 288.32 268.858 277.392C380.252 269.426 482.561 374.22 485.665 477.4C467.974 477.421 457.908 477.036 440.061 476.647C433.563 382.365 357.584 305.718 268.858 319.206C203.386 329.158 117.842 396.043 67.0044 448.022L53.5475 462.334C48.0715 468.043 43.9615 471.534 38.5953 477.194C-29.437 542.938 -60.0889 598.683 -164.754 616.763Z" fill="url(#paint17_linear_131_77)"/>
<path d="M-164.754 625.431C-283.623 632.964 -354.934 594.666 -363.617 493.22C-346.42 493.177 -337.644 493.276 -320.373 492.68C-310.654 574.037 -256.709 610.736 -164.754 595.67C-114.664 587.463 -51.1171 537.665 4.20583 473.634C9.73675 467.799 17.9984 457.675 23.6436 451.788L36.353 440.488C98.1379 379.767 153.727 292.086 268.859 283.8C382.495 280.787 477.959 374.221 481.063 477.401H437.818C431.321 383.119 357.584 315.511 268.859 328.999C203.387 338.951 117.842 404.711 67.0049 456.69L53.5479 471.002C48.0719 476.711 43.962 480.202 38.5958 485.862C-29.4365 551.606 -60.0884 607.351 -164.754 625.431Z" fill="url(#paint18_linear_131_77)"/>
<path d="M-164.754 635.977C-283.623 643.51 -358.672 594.666 -367.355 493.22C-350.568 493.458 -341.767 493.377 -324.742 492.467C-315.023 573.824 -256.71 617.144 -164.754 602.078C-114.664 593.872 -53.3602 545.58 1.96274 481.549C7.49365 475.714 14.26 467.468 19.9053 461.581L34.8575 445.761C96.6424 385.04 163.446 296.606 268.859 291.333C382.689 287.938 474.338 374.221 477.441 477.401C462.146 477.565 453.337 477.06 437.818 476.647C431.321 382.365 357.584 307.607 268.859 321.094C203.387 331.047 117.842 415.258 67.0046 467.236L53.5477 481.549C48.0717 487.257 43.9617 490.748 38.5955 496.408C-29.4368 562.153 -60.0887 617.898 -164.754 635.977Z" fill="url(#paint19_linear_131_77)"/>
<path d="M-190.92 685.685C-309.79 693.218 -381.848 594.666 -390.531 493.22H-347.918C-338.199 574.578 -273.904 666.481 -181.949 651.415C-131.859 643.208 -68.3123 609.23 -12.9894 545.199C-7.45844 539.364 -2.18727 533.759 3.45801 527.872L15.4197 516.083C77.2047 455.362 129.804 376.457 248.479 350.845C359.515 335.57 456.395 374.221 459.499 477.401L407.166 477.401C392.731 382.987 329.466 358.767 248.479 371.938C183.631 382.484 94.6662 472.128 43.8288 524.106L27.3815 542.185C21.9054 547.894 19.2907 549.332 13.9245 554.992C-54.1078 620.736 -86.2549 667.605 -190.92 685.685Z" fill="url(#paint20_linear_131_77)"/>
<path d="M-187.181 679.287C-306.051 686.821 -377.362 594.666 -386.045 493.22H-342.8C-333.082 574.577 -279.137 658.948 -187.181 643.882C-137.092 635.675 -66.0688 596.806 -10.7458 532.774C-5.21488 526.94 0.0562958 521.335 5.70158 515.448L17.6633 503.659C79.4483 442.937 132.047 364.033 250.723 338.421C361.758 323.146 463.872 374.221 466.976 477.401H415.391C406.456 383.957 336.96 351.752 250.723 364.404C185.201 374.017 96.9097 463.47 46.0724 515.448L34.1107 528.626C28.6347 534.334 21.5343 541.045 16.1681 546.705C-51.8642 612.45 -82.5161 661.208 -187.181 679.287Z" fill="url(#paint21_linear_131_77)"/>
<path d="M-182.697 667.988C-301.567 675.521 -373.626 594.666 -382.309 493.22H-344.181C-334.462 574.577 -274.653 651.797 -182.697 636.731C-132.608 628.525 -66.0705 580.233 -10.7476 516.202C-5.21665 510.367 0.0545238 504.762 5.69981 498.876L17.6615 487.086C79.4465 426.365 132.046 347.461 250.721 321.848C361.757 306.573 460.88 374.22 463.983 477.401H421.37C414.872 383.119 339.64 342.26 250.915 355.747C185.443 365.7 101.394 451.035 50.5563 503.013L37.0993 517.326C31.6233 523.034 27.5134 526.732 22.1472 532.392C-45.8851 598.137 -78.0323 649.908 -182.697 667.988Z" fill="url(#paint22_linear_131_77)"/>
<path d="M-164.754 645.018C-283.624 652.551 -355.682 594.667 -364.365 493.22C-349.875 493.156 -341.734 493.135 -327.732 492.467C-318.014 573.824 -256.71 626.185 -164.754 611.119C-114.664 602.912 -54.108 552.732 1.21496 488.701C6.74588 482.866 14.2599 475.755 19.9052 469.868L31.8669 457.815C93.6518 397.094 173.165 302.633 268.859 298.114C376.849 288.412 469.261 378.038 474.334 477.614L436.323 477.401C429.825 383.119 357.584 316.647 268.859 330.134C203.386 340.087 117.842 424.298 67.0044 476.276L53.5475 490.589C48.0715 496.298 43.9616 499.789 38.5954 505.449C-29.437 571.193 -60.0889 626.938 -164.754 645.018Z" fill="url(#paint23_linear_131_77)"/>
<path d="M-175.221 658.577C-294.09 666.11 -366.149 594.295 -374.832 492.849H-338.199C-328.48 574.206 -267.177 639.744 -175.221 624.678C-125.131 616.471 -58.5939 568.18 -3.27097 504.148C2.25994 498.314 7.53112 492.709 13.1764 486.822L25.1381 475.033C86.9231 414.311 139.522 335.407 258.198 309.795C369.233 294.52 460.764 374.434 463.867 477.614L428.992 477.401C422.495 383.119 347.117 330.206 258.392 343.694C192.92 353.646 107.375 437.857 56.5377 489.836L43.0807 504.148C37.6047 509.857 33.4948 513.348 28.1286 519.008C-39.9038 584.753 -70.5557 640.497 -175.221 658.577Z" fill="url(#paint24_linear_131_77)"/>
</g>
<mask id="mask1_131_77" style="mask-type:alpha" maskUnits="userSpaceOnUse" x="220" y="568" width="87" height="24">
<path d="M220.199 568.133C244.191 582.141 277.058 585.593 306.554 584.544C276.273 598.637 242.229 589.685 220.199 568.133Z" fill="#D9D9D9"/>
</mask>
<g mask="url(#mask1_131_77)">
<g filter="url(#filter2_dd_131_77)">
<path fill-rule="evenodd" clip-rule="evenodd" d="M486.447 501.165C486.541 617.19 378.522 704.542 258.154 683.377C203.869 668.141 182.755 652.047 158.237 630.055C133.719 608.062 121.485 592.858 91.5675 564.955L41.1799 518.45L-28.7774 592.979C-55.4528 619.494 -75.1599 634.484 -101.892 653.97C-121.551 665.834 -153.485 686.433 -203.096 685.81C-314.778 684.408 -384.668 616.082 -397.037 498.492L-397.044 490.029C-391.861 381.609 -329.523 304.141 -209.964 295.231C-173.332 295.094 -145.828 303.484 -113.179 318.85C-85.0153 334.689 -52.7303 362.041 -26.5829 389.022L41.1359 464.287L60.786 442.453L91.4403 408.391C112.833 380.875 125.624 372.482 157.472 344.02C187.733 321.146 244.312 292.235 280.945 292.297C402.477 284.148 482.508 361.698 486.434 485.085L486.447 501.165ZM64.7609 493.305L146.642 569.988C163.175 585.208 178.134 599.583 197.027 613.108C217.495 630.018 274.039 651.228 296.184 651.112C373.483 651.049 451.887 568.878 451.832 501.193L451.819 485.113C454.262 396.821 372.217 308.37 273.897 332.924C227.31 339.318 159.066 382.904 134.715 415.127L64.7609 493.305ZM15.9836 492.233L-66.6985 397.517C-79.7019 380.934 -105.982 363.659 -125.737 354.404C-145.493 345.148 -176.772 336.574 -198.916 336.691C-285.664 328.748 -364.064 413.836 -358.495 489.998L-358.488 498.461C-358.852 585.205 -276.058 661.628 -190.384 645.58C-146.28 637.318 -100.355 609.116 -68.9122 577.778L5.05659 503.244L15.9836 492.233Z" fill="url(#paint25_linear_131_77)"/>
</g>
<path d="M-177.617 273.823C-299.275 258.596 -411.906 389.154 -407.628 494.543L-364.53 496.05C-368.073 420.507 -284.887 296.265 -177.617 304.093C-126.43 307.828 -59.6647 357.049 -3.71281 421.08C1.88098 426.915 7.21212 432.52 12.9216 438.406L25.0193 450.196C87.5066 510.917 140.704 589.821 260.728 615.434C375.853 635.02 441.48 584.801 441.48 477.217L396.113 478.723C394.297 564.51 359.303 595.256 260.925 581.535C194.606 572.286 108.191 487.371 56.7758 435.393L43.1658 421.08C37.6276 415.372 33.4709 411.88 28.0437 406.22C-40.762 340.476 -71.7624 291.903 -177.617 273.823Z" fill="url(#paint26_linear_131_77)"/>
<path d="M-177.625 279.849C-299.282 264.621 -407.374 389.906 -403.096 495.295L-355.462 493.789C-359.005 418.246 -284.895 303.797 -177.625 311.625C-126.437 315.36 -59.6722 364.581 -3.72033 428.612C1.87346 434.447 7.20455 440.052 12.914 445.938L25.0117 457.728C87.499 518.449 140.696 597.353 260.721 622.966C375.845 642.552 454.33 585.553 454.33 477.969L404.427 477.969C405.91 572.516 358.907 602.849 260.917 589.067C194.609 579.741 108.183 494.903 56.7682 442.925L43.1583 428.612C37.62 422.904 33.4634 419.413 28.0361 413.753C-40.7696 348.008 -71.7699 297.928 -177.625 279.849Z" fill="url(#paint27_linear_131_77)"/>
<path d="M-177.617 286.629C-299.274 271.402 -399.809 390.66 -395.53 496.049L-356.212 493.789C-359.755 418.247 -284.887 311.331 -177.617 319.158C-126.429 322.894 -59.6643 372.115 -3.71237 436.146C1.88142 441.98 7.21251 447.585 12.922 453.472L25.0197 465.262C87.507 525.983 140.704 604.887 260.729 630.5C375.853 650.085 452.066 587.06 452.066 479.476L411.236 477.97C412.72 572.516 358.915 610.383 260.925 596.601C194.617 587.274 108.191 502.437 56.7762 450.459L43.1662 436.146C37.628 430.438 33.4713 426.946 28.0441 421.286C-40.7616 355.542 -71.7619 304.709 -177.617 286.629Z" fill="url(#paint28_linear_131_77)"/>
<path d="M-177.617 293.409C-299.275 278.181 -395.274 389.153 -390.995 494.542H-354.602C-358.145 419 -284.887 318.864 -177.617 326.691C-126.43 330.427 -59.6649 379.647 -3.71304 443.679C1.88075 449.513 7.21189 455.118 12.9213 461.005L25.0191 472.794C87.5064 533.516 140.703 612.42 260.728 638.032C375.852 657.618 464.162 585.553 464.162 477.969L419.552 477.97C421.035 572.516 358.914 617.916 260.924 604.134C194.616 594.807 108.191 509.97 56.7755 457.992L43.1656 443.679C37.6273 437.97 33.4707 434.479 28.0435 428.819C-40.7622 363.075 -71.7625 311.488 -177.617 293.409Z" fill="url(#paint29_linear_131_77)"/>
<path d="M-177.618 375.656C-299.275 360.428 -373.347 408.739 -369.068 514.128L-310.847 493.789C-314.39 418.246 -246.305 387.21 -170.211 404.899C-118.95 416.815 -59.665 462.511 -3.71314 526.542C1.88065 532.377 7.21175 537.982 12.9212 543.869L25.0189 555.658C87.5062 616.38 140.899 674.584 260.924 700.196C376.049 719.782 502.724 586.307 502.724 478.723L463.406 477.97C464.89 572.517 358.914 691.379 260.924 677.597C194.616 668.27 108.191 592.834 56.7753 540.855L43.1654 526.542C37.6272 520.834 33.4705 517.343 28.0433 511.683C-40.7624 445.938 -71.7627 393.736 -177.618 375.656Z" fill="url(#paint30_linear_131_77)"/>
<path d="M-176.109 365.726C-297.766 350.499 -376.372 409.356 -372.093 514.745L-315.386 493.789C-318.929 418.246 -255.052 375.999 -172.482 397.228C-122.786 410.006 -58.1559 452.581 -2.204 516.613C3.38979 522.447 8.72093 528.052 14.4304 533.939L26.5281 545.728C89.0154 606.45 142.409 670.817 262.433 696.429C377.558 716.015 496.672 585.553 496.672 477.969H454.33C455.813 572.516 366.2 676.526 268.21 662.743C201.902 653.417 109.7 582.904 58.2846 530.926L44.6747 516.613C39.1364 510.904 34.9797 507.413 29.5525 501.753C-39.2532 436.009 -70.2536 383.806 -176.109 365.726Z" fill="url(#paint31_linear_131_77)"/>
<path d="M-177.615 360.23C-299.273 345.002 -380.903 402.352 -376.625 507.741L-320.036 494.002C-323.579 418.46 -260.34 374.238 -176.257 390.586C-125.883 400.381 -59.6626 447.085 -3.71076 511.116C1.88303 516.951 7.21415 522.555 12.9236 528.442L25.0213 540.232C87.5086 600.953 145.284 665.544 265.309 691.156C380.433 710.742 490.612 586.307 490.612 478.723L457.36 478.723C458.843 573.27 363.299 674.266 265.309 660.484C199.001 651.158 108.193 577.407 56.7778 525.429L43.1679 511.116C37.6296 505.408 33.473 501.916 28.0457 496.256C-40.76 430.512 -71.7604 378.309 -177.615 360.23Z" fill="url(#paint32_linear_131_77)"/>
<path d="M-177.983 354.55C-299.831 339.413 -373.262 403.162 -368.976 507.924L-324.574 494.002C-328.122 418.909 -266.143 366.26 -172.839 384.368C-122.397 394.157 -59.8465 440.889 -3.8072 504.54C1.79533 510.339 7.13475 515.911 12.8531 521.763L24.9697 533.482C87.5547 593.842 141.031 656.193 261.244 681.653C376.548 701.122 485.973 585.127 485.973 478.183L461.768 477.222C463.253 571.207 359.386 655.138 261.244 641.438C194.832 632.167 108.271 570.436 56.7758 518.767L43.1446 504.54C37.5977 498.865 33.4346 495.395 27.9989 489.768C-40.9143 424.415 -71.9631 372.522 -177.983 354.55Z" fill="url(#paint33_linear_131_77)"/>
<path d="M-177.609 345.524C-299.267 330.297 -374.854 392.167 -370.575 497.556L-328.991 493.789C-332.534 418.247 -270.015 359.7 -174.745 372.507C-123.882 379.344 -59.6569 432.379 -3.705 496.411C1.88879 502.245 7.22 507.85 12.9295 513.737L25.0271 525.526C87.5144 586.248 145.284 650.478 265.309 676.09C380.433 695.676 482.311 585.554 482.311 477.97L451.311 478.723C452.794 573.27 359.518 663.506 261.528 649.724C195.22 640.398 108.199 562.702 56.7836 510.724L43.1736 496.411C37.6354 490.702 33.4787 487.211 28.0515 481.551C-40.7542 415.807 -71.7546 363.604 -177.609 345.524Z" fill="url(#paint34_linear_131_77)"/>
<path d="M-177.61 331.964C-299.267 316.737 -381.66 395.18 -377.382 500.569L-332.015 493.789C-335.558 418.246 -273.198 345.25 -170.964 361.96C-120.317 370.238 -59.6572 418.82 -3.70531 482.851C1.88848 488.685 7.21951 494.29 12.929 500.177L25.0267 511.966C87.514 572.688 140.907 641.438 260.932 667.05C376.056 686.636 479.169 586.52 479.169 478.936L441.482 477.97C442.965 572.517 358.922 657.088 260.932 643.306C194.624 633.979 108.198 549.142 56.7831 497.164L43.1732 482.851C37.635 477.143 33.4783 473.651 28.0511 467.991C-40.7546 402.247 -71.7549 350.044 -177.61 331.964Z" fill="url(#paint35_linear_131_77)"/>
<path d="M-177.606 300.326C-299.264 285.098 -391.491 389.154 -387.212 494.543H-344.99C-348.533 419 -284.876 326.397 -177.606 334.225C-126.419 337.96 -59.6537 387.181 -3.70179 451.212C1.892 457.047 7.22335 462.652 12.9328 468.538L25.0305 480.328C87.5178 541.049 140.715 619.954 260.739 645.566C375.864 665.152 465.674 586.307 465.674 478.723L425.601 477.97C427.084 572.517 358.926 625.45 260.936 611.667C194.628 602.341 108.202 517.503 56.787 465.525L43.1771 451.212C37.6388 445.504 33.4822 442.013 28.0549 436.353C-40.7508 370.608 -71.7514 318.405 -177.606 300.326Z" fill="url(#paint36_linear_131_77)"/>
<path d="M-177.617 311.254C-299.274 296.026 -383.775 388.919 -379.497 494.308H-342.603C-346.146 418.766 -284.887 337.325 -177.617 345.153C-126.429 348.888 -59.6639 398.109 -3.71205 462.14C1.88174 467.975 7.21284 473.58 12.9223 479.467L25.02 491.256C87.5073 551.977 140.704 630.882 260.729 656.494C375.853 676.08 468.581 585.767 468.581 478.183L433.318 473.44C434.801 567.987 359.24 633.85 260.925 622.595C184.983 613.902 98.1855 529.115 56.7765 476.453L43.1666 462.14C37.6283 456.432 33.4717 452.941 28.0444 447.281C-40.7613 381.536 -71.7616 329.334 -177.617 311.254Z" fill="url(#paint37_linear_131_77)"/>
<path d="M-195.917 703.208C-316.138 710.741 -398.845 595.988 -407.627 494.542H-353.943C-344.114 575.899 -288.918 658.764 -195.917 643.697C-145.258 635.491 -67.379 629.766 -11.4271 565.735C-5.8333 559.9 -0.502201 554.296 5.20726 548.409L17.305 536.619C79.7923 475.898 135.454 371.753 255.479 346.14C367.776 330.865 460.269 375.542 463.408 478.722L396.114 478.722C382.124 387.66 332.47 374.645 255.479 385.311C192.211 394.076 92.7975 489.482 41.3822 541.461L23.9918 558.033C18.4535 563.742 12.9028 567.979 7.47558 573.639C-61.3301 639.384 -90.0622 685.128 -195.917 703.208Z" fill="url(#paint38_linear_131_77)"/>
<path d="M-195.919 696.429C-316.14 703.962 -394.31 595.989 -403.092 494.543H-342.603C-332.774 575.9 -277.578 679.857 -184.577 664.791C-133.918 656.584 -67.3805 623.741 -11.4286 559.71C-5.83478 553.875 -0.503684 548.27 5.20578 542.384L17.3035 530.594C79.7908 469.873 132.988 375.52 253.012 349.908C365.31 334.633 463.292 375.543 466.431 478.723L404.43 478.723C389.831 384.309 333.994 366.694 253.012 379.286C190.75 388.968 95.1825 480.983 43.7672 532.961L24.8645 551.041C19.3263 556.749 13.6574 560.447 8.2302 566.107C-60.5755 631.851 -90.0637 678.35 -195.919 696.429Z" fill="url(#paint39_linear_131_77)"/>
<path d="M-178.531 630.892C-298.752 638.425 -361.044 595.989 -369.826 494.543C-346.705 495.08 -333.836 494.883 -310.85 493.79C-301.02 575.147 -235.995 598.119 -157.36 578.161C-107.624 565.538 -46.3307 516.602 9.62118 452.571C15.215 446.736 22.9325 439.412 28.642 433.525L43.7641 418.459C106.251 357.738 154.156 278.343 269.84 267.797C382.138 252.522 499.582 375.544 502.721 478.724L446.013 478.724C439.442 384.443 370.915 297.248 281.182 310.736C214.965 320.688 118.619 374.396 67.2034 426.374L53.5935 440.687C48.0552 446.395 43.8986 449.887 38.4714 455.546C-30.3343 521.291 -72.6763 612.812 -178.531 630.892Z" fill="url(#paint40_linear_131_77)"/>
<path d="M-167.185 605.662C-287.406 613.195 -361.796 595.99 -370.578 494.544C-349.03 494.854 -336.927 494.724 -315.382 493.789C-305.553 575.147 -257.162 600.76 -164.161 585.693C-113.502 577.487 -48.4768 523.922 7.47512 459.891C13.0689 454.056 17.6439 449.204 23.3534 443.318L38.4755 429.758C100.963 369.037 148.867 286.63 266.82 270.81C380.992 263.277 493.537 375.543 496.676 478.723H447.529C440.958 384.442 359.578 298.755 269.844 312.242C203.628 322.195 118.623 384.942 67.2075 436.92L53.5976 451.233C48.0594 456.941 43.9027 460.433 38.4755 466.093C-30.3302 531.837 -61.3306 587.582 -167.185 605.662Z" fill="url(#paint41_linear_131_77)"/>
<path d="M-167.186 618.085C-287.407 625.618 -360.285 597.113 -369.066 495.667L-320.038 494.002C-310.208 575.36 -260.187 607.91 -167.186 592.844C-116.527 584.637 -48.4772 531.072 7.47466 467.041C13.0684 461.206 21.424 453.341 27.1334 447.455L39.2311 436.155C101.718 375.434 154.159 289.642 271.356 278.714C384.016 270.748 487.488 375.543 490.627 478.723C472.735 478.743 462.555 478.358 444.504 477.969C437.933 383.688 361.09 307.04 271.356 320.528C205.14 330.48 118.622 397.366 67.2071 449.344L53.5972 463.657C48.0589 469.365 43.9023 472.856 38.475 478.516C-30.3307 544.261 -61.331 600.006 -167.186 618.085Z" fill="url(#paint42_linear_131_77)"/>
<path d="M-167.186 626.753C-287.407 634.286 -359.529 595.988 -368.311 494.542C-350.918 494.499 -342.042 494.598 -324.575 494.002C-314.745 575.36 -260.187 612.058 -167.186 596.992C-116.527 588.786 -52.258 538.987 3.69388 474.956C9.28767 469.122 17.6432 458.997 23.3526 453.11L36.2065 441.811C98.6938 381.089 154.915 293.409 271.356 285.122C386.284 282.109 482.833 375.543 485.972 478.723H442.236C435.665 384.441 361.09 316.833 271.356 330.321C205.139 340.273 118.622 406.034 67.2068 458.012L53.5969 472.325C48.0586 478.033 43.902 481.524 38.4748 487.184C-30.3309 552.929 -61.3313 608.674 -167.186 626.753Z" fill="url(#paint43_linear_131_77)"/>
<path d="M-167.185 637.299C-287.406 644.833 -363.308 595.989 -372.09 494.542C-355.111 494.78 -346.21 494.699 -328.992 493.789C-319.162 575.146 -260.186 618.467 -167.185 603.401C-116.526 595.194 -54.5251 546.902 1.42679 482.871C7.02058 477.036 13.8639 468.79 19.5734 462.903L34.6955 447.084C97.1828 386.362 164.746 297.928 271.357 292.655C386.481 289.261 479.172 375.543 482.311 478.723C466.842 478.887 457.932 478.383 442.237 477.969C435.666 383.688 361.091 308.929 271.357 322.416C205.14 332.369 118.623 416.58 67.2081 468.558L53.5981 482.871C48.0599 488.579 43.9032 492.071 38.476 497.731C-30.3297 563.475 -61.33 619.22 -167.185 637.299Z" fill="url(#paint44_linear_131_77)"/>
<path d="M-193.651 687.007C-313.872 694.54 -386.75 595.989 -395.531 494.543H-352.433C-342.604 575.9 -277.579 667.804 -184.578 652.737C-133.918 644.531 -69.6493 610.552 -13.6974 546.521C-8.10365 540.686 -2.77255 535.081 2.9369 529.195L15.0346 517.405C77.5219 456.684 130.719 377.78 250.744 352.167C363.041 336.892 461.023 375.543 464.162 478.723L411.234 478.723C396.636 384.31 332.651 360.089 250.744 373.26C185.159 383.806 95.1819 473.45 43.7667 525.428L27.1323 543.508C21.594 549.216 18.9496 550.654 13.5224 556.314C-55.2833 622.058 -87.7959 668.927 -193.651 687.007Z" fill="url(#paint45_linear_131_77)"/>
<path d="M-189.87 680.61C-310.091 688.143 -382.212 595.989 -390.994 494.542H-347.258C-337.429 575.9 -282.871 660.27 -189.87 645.204C-139.211 636.997 -67.3805 598.128 -11.4286 534.097C-5.83486 528.262 -0.503764 522.657 5.20569 516.771L17.3034 504.981C79.7907 444.26 132.988 365.356 253.012 339.743C365.31 324.468 468.585 375.543 471.723 478.723H419.552C410.516 385.279 340.23 353.075 253.012 365.727C186.745 375.339 97.4507 464.792 46.0354 516.771L33.9377 529.948C28.3995 535.656 21.2184 542.367 15.7912 548.027C-53.0145 613.772 -84.0149 662.53 -189.87 680.61Z" fill="url(#paint46_linear_131_77)"/>
<path d="M-185.332 669.31C-305.553 676.844 -378.431 595.989 -387.213 494.543H-348.651C-338.822 575.9 -278.334 653.12 -185.332 638.054C-134.673 629.847 -67.3798 581.556 -11.4279 517.525C-5.83414 511.69 -0.503047 506.085 5.20641 500.198L17.3041 488.409C79.7914 427.688 132.988 348.783 253.013 323.171C365.311 307.896 465.561 375.543 468.7 478.723H425.602C419.031 384.442 342.943 343.582 253.209 357.07C186.993 367.022 101.988 452.358 50.5728 504.336L36.9629 518.649C31.4246 524.357 27.268 528.055 21.8408 533.715C-46.9649 599.459 -79.4775 651.231 -185.332 669.31Z" fill="url(#paint47_linear_131_77)"/>
<path d="M-167.186 646.339C-287.407 653.872 -360.285 595.988 -369.066 494.542C-354.411 494.477 -346.178 494.457 -332.017 493.789C-322.188 575.146 -260.187 627.507 -167.186 612.44C-116.527 604.234 -55.2822 554.054 0.669699 490.022C6.26349 484.188 13.8629 477.076 19.5724 471.19L31.6701 459.137C94.1574 398.415 174.574 303.955 271.356 299.435C380.574 289.734 474.037 379.36 479.167 478.936L440.724 478.723C434.153 384.441 361.09 317.969 271.356 331.456C205.14 341.409 118.622 425.62 67.2071 477.598L53.5972 491.911C48.0589 497.619 43.9023 501.111 38.475 506.771C-30.3307 572.515 -61.331 628.26 -167.186 646.339Z" fill="url(#paint48_linear_131_77)"/>
<path d="M-177.772 659.9C-297.993 667.433 -370.871 595.618 -379.652 494.172H-342.603C-332.774 575.529 -270.773 641.067 -177.772 626.001C-127.113 617.794 -59.8193 569.503 -3.86739 505.471C1.7264 499.637 7.0575 494.032 12.767 488.145L24.8647 476.356C87.352 415.634 140.549 336.73 260.574 311.118C372.871 295.843 465.442 375.757 468.581 478.937L433.31 478.723C426.739 384.442 350.504 331.529 260.77 345.016C194.554 354.969 108.036 439.18 56.6211 491.158L43.0112 505.471C37.473 511.18 33.3163 514.671 27.8891 520.331C-40.9166 586.075 -71.917 641.82 -177.772 659.9Z" fill="url(#paint49_linear_131_77)"/>
</g>
<defs>
<filter id="filter0_d_131_77" x="0.400002" y="0.400002" width="533.7" height="635.2" filterUnits="userSpaceOnUse" color-interpolation-filters="sRGB">
<feFlood flood-opacity="0" result="BackgroundImageFix"/>
<feColorMatrix in="SourceAlpha" type="matrix" values="0 0 0 0 0 0 0 0 0 0 0 0 0 0 0 0 0 0 127 0" result="hardAlpha"/>
<feOffset dx="-6" dy="3"/>
<feGaussianBlur stdDeviation="19.8"/>
<feComposite in2="hardAlpha" operator="out"/>
<feColorMatrix type="matrix" values="0 0 0 0 0 0 0 0 0 0 0 0 0 0 0 0 0 0 0.25 0"/>
<feBlend mode="normal" in2="BackgroundImageFix" result="effect1_dropShadow_131_77"/>
<feBlend mode="normal" in="SourceGraphic" in2="effect1_dropShadow_131_77" result="shape"/>
</filter>
<filter id="filter1_dd_131_77" x="-434.927" y="227.489" width="961.761" height="515.04" filterUnits="userSpaceOnUse" color-interpolation-filters="sRGB">
<feFlood flood-opacity="0" result="BackgroundImageFix"/>
<feColorMatrix in="SourceAlpha" type="matrix" values="0 0 0 0 0 0 0 0 0 0 0 0 0 0 0 0 0 0 127 0" result="hardAlpha"/>
<feOffset dx="4" dy="16"/>
<feGaussianBlur stdDeviation="20.65"/>
<feComposite in2="hardAlpha" operator="out"/>
<feColorMatrix type="matrix" values="0 0 0 0 0 0 0 0 0 0 0 0 0 0 0 0 0 0 0.2 0"/>
<feBlend mode="normal" in2="BackgroundImageFix" result="effect1_dropShadow_131_77"/>
<feColorMatrix in="SourceAlpha" type="matrix" values="0 0 0 0 0 0 0 0 0 0 0 0 0 0 0 0 0 0 127 0" result="hardAlpha"/>
<feOffset dx="-2" dy="-22"/>
<feGaussianBlur stdDeviation="20.45"/>
<feComposite in2="hardAlpha" operator="out"/>
<feColorMatrix type="matrix" values="0 0 0 0 0 0 0 0 0 0 0 0 0 0 0 0 0 0 0.2 0"/>
<feBlend mode="normal" in2="effect1_dropShadow_131_77" result="effect2_dropShadow_131_77"/>
<feBlend mode="normal" in="SourceGraphic" in2="effect2_dropShadow_131_77" result="shape"/>
</filter>
<filter id="filter2_dd_131_77" x="-439.945" y="228.811" width="971.692" height="515.04" filterUnits="userSpaceOnUse" color-interpolation-filters="sRGB">
<feFlood flood-opacity="0" result="BackgroundImageFix"/>
<feColorMatrix in="SourceAlpha" type="matrix" values="0 0 0 0 0 0 0 0 0 0 0 0 0 0 0 0 0 0 127 0" result="hardAlpha"/>
<feOffset dx="4" dy="16"/>
<feGaussianBlur stdDeviation="20.65"/>
<feComposite in2="hardAlpha" operator="out"/>
<feColorMatrix type="matrix" values="0 0 0 0 0 0 0 0 0 0 0 0 0 0 0 0 0 0 0.2 0"/>
<feBlend mode="normal" in2="BackgroundImageFix" result="effect1_dropShadow_131_77"/>
<feColorMatrix in="SourceAlpha" type="matrix" values="0 0 0 0 0 0 0 0 0 0 0 0 0 0 0 0 0 0 127 0" result="hardAlpha"/>
<feOffset dx="-2" dy="-22"/>
<feGaussianBlur stdDeviation="20.45"/>
<feComposite in2="hardAlpha" operator="out"/>
<feColorMatrix type="matrix" values="0 0 0 0 0 0 0 0 0 0 0 0 0 0 0 0 0 0 0.2 0"/>
<feBlend mode="normal" in2="effect1_dropShadow_131_77" result="effect2_dropShadow_131_77"/>
<feBlend mode="normal" in="SourceGraphic" in2="effect2_dropShadow_131_77" result="shape"/>
</filter>
<linearGradient id="paint0_linear_131_77" x1="-392.795" y1="504.308" x2="481.534" y2="501.461" gradientUnits="userSpaceOnUse">
<stop offset="0.255" stop-color="#A087F1"/>
<stop offset="0.4899" stop-color="#EAE7F9"/>
<stop offset="0.49" stop-color="white"/>
<stop offset="0.4901" stop-color="#F4E9F3"/>
<stop offset="0.685" stop-color="#E056A3"/>
</linearGradient>
<linearGradient id="paint1_linear_131_77" x1="482.675" y1="432.202" x2="-374.831" y2="432.944" gradientUnits="userSpaceOnUse">
<stop stop-color="#F684EB"/>
<stop offset="0.115" stop-color="#F379E7"/>
<stop offset="0.245" stop-color="#751396"/>
<stop offset="0.925" stop-color="#7E23A3"/>
<stop offset="1" stop-color="#D9CFFF"/>
</linearGradient>
<linearGradient id="paint2_linear_131_77" x1="482.672" y1="439.735" x2="-374.834" y2="440.477" gradientUnits="userSpaceOnUse">
<stop offset="0.035" stop-color="#FF8EE7"/>
<stop offset="0.125" stop-color="#EA66D8"/>
<stop offset="0.215" stop-color="#B51C94"/>
<stop offset="0.345" stop-color="#762DA0"/>
<stop offset="0.7" stop-color="#7F34B1"/>
<stop offset="0.95" stop-color="#6927A2"/>
<stop offset="1" stop-color="#CEC2FF"/>
</linearGradient>
<linearGradient id="paint3_linear_131_77" x1="482.673" y1="447.268" x2="-374.833" y2="448.01" gradientUnits="userSpaceOnUse">
<stop offset="0.105" stop-color="#F07EDE"/>
<stop offset="0.15" stop-color="#C444B7"/>
<stop offset="0.225" stop-color="#7F0686"/>
<stop offset="0.455" stop-color="#8136C2"/>
<stop offset="0.925" stop-color="#780EA3"/>
<stop offset="1" stop-color="#DEE5FF"/>
</linearGradient>
<linearGradient id="paint4_linear_131_77" x1="482.674" y1="454.801" x2="-374.832" y2="455.543" gradientUnits="userSpaceOnUse">
<stop offset="0.08" stop-color="#FA81E6"/>
<stop offset="0.15" stop-color="#D134A2"/>
<stop offset="0.175" stop-color="#BB13A5"/>
<stop offset="0.3" stop-color="#9846C8"/>
<stop offset="0.855" stop-color="#6B36B1"/>
<stop offset="1" stop-color="#CFD6FF"/>
</linearGradient>
<linearGradient id="paint5_linear_131_77" x1="482.674" y1="537.666" x2="-374.832" y2="538.408" gradientUnits="userSpaceOnUse">
<stop offset="0.015" stop-color="#790C62"/>
<stop offset="0.135" stop-color="#EA66D8"/>
<stop offset="0.185" stop-color="#F4ACEF"/>
<stop offset="0.275" stop-color="#FFE3FB"/>
<stop offset="0.345" stop-color="#F4AFEB"/>
<stop offset="0.44" stop-color="#B4A3FF"/>
<stop offset="0.615" stop-color="#B8A8FF"/>
<stop offset="0.67" stop-color="#FAF4FF"/>
<stop offset="0.775" stop-color="#9163B9"/>
<stop offset="0.9" stop-color="#311E9B"/>
</linearGradient>
<linearGradient id="paint6_linear_131_77" x1="482.674" y1="530.132" x2="-374.832" y2="530.874" gradientUnits="userSpaceOnUse">
<stop offset="0.025" stop-color="#840A5B"/>
<stop offset="0.1" stop-color="#EA66E1"/>
<stop offset="0.225" stop-color="#F9E0FB"/>
<stop offset="0.31" stop-color="#FCC0FF"/>
<stop offset="0.43" stop-color="#C09BFF"/>
<stop offset="0.615" stop-color="#C6A5FF"/>
<stop offset="0.675" stop-color="#F4F2FD"/>
<stop offset="0.735" stop-color="#BD94F7"/>
<stop offset="0.9" stop-color="#3C1F96"/>
</linearGradient>
<linearGradient id="paint7_linear_131_77" x1="482.675" y1="522.599" x2="-374.831" y2="523.341" gradientUnits="userSpaceOnUse">
<stop offset="0.06" stop-color="#7B0D54"/>
<stop offset="0.105" stop-color="#EA66E8"/>
<stop offset="0.18" stop-color="#F7C7F4"/>
<stop offset="0.245" stop-color="#FCE9FB"/>
<stop offset="0.325" stop-color="#F2A0E7"/>
<stop offset="0.41" stop-color="#B996FE"/>
<stop offset="0.575" stop-color="#B596FF"/>
<stop offset="0.685" stop-color="#E8E0FF"/>
<stop offset="0.77" stop-color="#B985EF"/>
<stop offset="0.915" stop-color="#3E109A"/>
</linearGradient>
<linearGradient id="paint8_linear_131_77" x1="483.336" y1="514.09" x2="-375.509" y2="514.839" gradientUnits="userSpaceOnUse">
<stop offset="0.02" stop-color="#8B0F66"/>
<stop offset="0.16" stop-color="#EB74DF"/>
<stop offset="0.26" stop-color="#FDEAFF"/>
<stop offset="0.335" stop-color="#F6BAF2"/>
<stop offset="0.44" stop-color="#A586F5"/>
<stop offset="0.59" stop-color="#AB8DF6"/>
<stop offset="0.665" stop-color="#F9F7FD"/>
<stop offset="0.77" stop-color="#A780EE"/>
<stop offset="0.87" stop-color="#5217B8"/>
</linearGradient>
<linearGradient id="paint9_linear_131_77" x1="482.675" y1="507.533" x2="-374.831" y2="508.275" gradientUnits="userSpaceOnUse">
<stop offset="0.04" stop-color="#9D1387"/>
<stop offset="0.12" stop-color="#E866EA"/>
<stop offset="0.195" stop-color="#EFB5F5"/>
<stop offset="0.255" stop-color="#FFEBF6"/>
<stop offset="0.3" stop-color="#F7C7F7"/>
<stop offset="0.38" stop-color="#C4A2FF"/>
<stop offset="0.59" stop-color="#C5A4FF"/>
<stop offset="0.66" stop-color="#F8F0FF"/>
<stop offset="0.75" stop-color="#A078F1"/>
<stop offset="0.875" stop-color="#4F0DA0"/>
</linearGradient>
<linearGradient id="paint10_linear_131_77" x1="482.677" y1="493.973" x2="-374.829" y2="494.715" gradientUnits="userSpaceOnUse">
<stop offset="0.03" stop-color="#B61B9E"/>
<stop offset="0.165" stop-color="#EA66D8"/>
<stop offset="0.24" stop-color="#FDECFF"/>
<stop offset="0.305" stop-color="#EAB6F5"/>
<stop offset="0.36" stop-color="#BA9FFF"/>
<stop offset="0.44" stop-color="#C0A7FF"/>
<stop offset="0.555" stop-color="#C2AAFF"/>
<stop offset="0.6" stop-color="#CEBCFF"/>
<stop offset="0.64" stop-color="#F7F3FF"/>
<stop offset="0.695" stop-color="#CEA0FF"/>
<stop offset="0.845" stop-color="#5E23A6"/>
</linearGradient>
<linearGradient id="paint11_linear_131_77" x1="482.675" y1="462.334" x2="-374.831" y2="463.076" gradientUnits="userSpaceOnUse">
<stop offset="0.065" stop-color="#F06EDC"/>
<stop offset="0.125" stop-color="#CF44B7"/>
<stop offset="0.235" stop-color="#B90CA2"/>
<stop offset="0.365" stop-color="#9B5ADA"/>
<stop offset="0.87" stop-color="#8447CB"/>
<stop offset="1" stop-color="#D7DCFA"/>
</linearGradient>
<linearGradient id="paint12_linear_131_77" x1="482.674" y1="473.263" x2="-374.832" y2="474.005" gradientUnits="userSpaceOnUse">
<stop stop-color="#EA69D9"/>
<stop offset="0.145" stop-color="#E578CD"/>
<stop offset="0.33" stop-color="#D6C4F5"/>
<stop offset="0.525" stop-color="#EBE6FE"/>
<stop offset="0.96" stop-color="#CEC4FD"/>
</linearGradient>
<linearGradient id="paint13_linear_131_77" x1="476.697" y1="513.942" x2="-404.807" y2="579.239" gradientUnits="userSpaceOnUse">
<stop offset="0.115" stop-color="#F37AE7"/>
<stop offset="0.16" stop-color="#F9D4F1"/>
<stop offset="0.24" stop-color="#F7B3F2"/>
<stop offset="0.37" stop-color="#F939DF"/>
<stop offset="0.59" stop-color="#F338DC"/>
<stop offset="0.7349" stop-color="#6F2596"/>
<stop offset="0.735" stop-color="#6F2596"/>
<stop offset="0.77" stop-color="#9E51C2"/>
<stop offset="0.805" stop-color="#CBCFF4"/>
<stop offset="0.865" stop-color="#EBEFFF"/>
<stop offset="0.935" stop-color="#DACFFF"/>
</linearGradient>
<linearGradient id="paint14_linear_131_77" x1="476.694" y1="506.409" x2="-404.81" y2="571.706" gradientUnits="userSpaceOnUse">
<stop offset="0.08" stop-color="#F173DD"/>
<stop offset="0.15" stop-color="#F9D4F1"/>
<stop offset="0.2" stop-color="#F7B3F0"/>
<stop offset="0.355" stop-color="#EE55C9"/>
<stop offset="0.53" stop-color="#ED48C4"/>
<stop offset="0.74" stop-color="#8429B3"/>
<stop offset="0.775" stop-color="#9E51C2"/>
<stop offset="0.82" stop-color="#CBCFF4"/>
<stop offset="0.885" stop-color="#EBEFFF"/>
<stop offset="0.98" stop-color="#CEC2FF"/>
</linearGradient>
<linearGradient id="paint15_linear_131_77" x1="494.636" y1="388.892" x2="-386.867" y2="454.189" gradientUnits="userSpaceOnUse">
<stop offset="0.08" stop-color="#790C61"/>
<stop offset="0.175" stop-color="#660944"/>
<stop offset="0.56" stop-color="#D743C8"/>
<stop offset="0.715" stop-color="#9E51C2"/>
<stop offset="0.79" stop-color="#2D0B57"/>
<stop offset="0.875" stop-color="#311E9B"/>
</linearGradient>
<linearGradient id="paint16_linear_131_77" x1="494.637" y1="399.438" x2="-386.866" y2="464.735" gradientUnits="userSpaceOnUse">
<stop offset="0.08" stop-color="#840A5B"/>
<stop offset="0.19" stop-color="#730E45"/>
<stop offset="0.36" stop-color="#D345C5"/>
<stop offset="0.63" stop-color="#CF46C5"/>
<stop offset="0.72" stop-color="#9E51C2"/>
<stop offset="0.81" stop-color="#250C4E"/>
<stop offset="0.91" stop-color="#3C1E96"/>
</linearGradient>
<linearGradient id="paint17_linear_131_77" x1="494.636" y1="409.985" x2="-386.867" y2="475.282" gradientUnits="userSpaceOnUse">
<stop offset="0.04" stop-color="#7B0D54"/>
<stop offset="0.19" stop-color="#7A1556"/>
<stop offset="0.455" stop-color="#E339E1"/>
<stop offset="0.565" stop-color="#D73DDB"/>
<stop offset="0.715" stop-color="#9E51C2"/>
<stop offset="0.81" stop-color="#320C69"/>
<stop offset="0.9" stop-color="#3E109A"/>
</linearGradient>
<linearGradient id="paint18_linear_131_77" x1="494.636" y1="420.531" x2="-386.867" y2="485.828" gradientUnits="userSpaceOnUse">
<stop offset="0.08" stop-color="#8B0F66"/>
<stop offset="0.2" stop-color="#950854"/>
<stop offset="0.425" stop-color="#E44CDA"/>
<stop offset="0.605" stop-color="#D74DD6"/>
<stop offset="0.71" stop-color="#9E51C2"/>
<stop offset="0.8" stop-color="#3A0E74"/>
<stop offset="0.89" stop-color="#5217B8"/>
</linearGradient>
<linearGradient id="paint19_linear_131_77" x1="494.636" y1="431.077" x2="-386.867" y2="496.374" gradientUnits="userSpaceOnUse">
<stop offset="0.08" stop-color="#9D1387"/>
<stop offset="0.19" stop-color="#AF0763"/>
<stop offset="0.4349" stop-color="#DE51CC"/>
<stop offset="0.57" stop-color="#E155D3"/>
<stop offset="0.665" stop-color="#9E51C2"/>
<stop offset="0.735" stop-color="#622C91"/>
<stop offset="0.83" stop-color="#441977"/>
<stop offset="0.915" stop-color="#4F0DA0"/>
</linearGradient>
<linearGradient id="paint20_linear_131_77" x1="476.694" y1="498.876" x2="-404.809" y2="564.173" gradientUnits="userSpaceOnUse">
<stop offset="0.085" stop-color="#F07EDE"/>
<stop offset="0.155" stop-color="#F9D4F1"/>
<stop offset="0.2" stop-color="#F7B3F0"/>
<stop offset="0.37" stop-color="#EF56DB"/>
<stop offset="0.57" stop-color="#ED3BD5"/>
<stop offset="0.635" stop-color="#9926AA"/>
<stop offset="0.75" stop-color="#9E51C2"/>
<stop offset="0.835" stop-color="#CBCFF4"/>
<stop offset="0.875" stop-color="#EBEFFF"/>
<stop offset="0.975" stop-color="#DEE5FF"/>
</linearGradient>
<linearGradient id="paint21_linear_131_77" x1="476.695" y1="482.303" x2="-404.809" y2="547.6" gradientUnits="userSpaceOnUse">
<stop offset="0.07" stop-color="#FA81E6"/>
<stop offset="0.1" stop-color="#F7B3F0"/>
<stop offset="0.175" stop-color="#F9D4F2"/>
<stop offset="0.21" stop-color="#F7B3E8"/>
<stop offset="0.3" stop-color="#F939C9"/>
<stop offset="0.6" stop-color="#F94BCE"/>
<stop offset="0.7" stop-color="#9040B6"/>
<stop offset="0.765" stop-color="#A96FCE"/>
<stop offset="0.81" stop-color="#CBCFF4"/>
<stop offset="0.855" stop-color="#EBEFFF"/>
<stop offset="0.95" stop-color="#CFD6FF"/>
</linearGradient>
<linearGradient id="paint22_linear_131_77" x1="476.693" y1="465.73" x2="-404.81" y2="531.027" gradientUnits="userSpaceOnUse">
<stop offset="0.08" stop-color="#F06EDC"/>
<stop offset="0.11" stop-color="#F9D4F2"/>
<stop offset="0.18" stop-color="#F7B3EB"/>
<stop offset="0.315" stop-color="#EC65CF"/>
<stop offset="0.565" stop-color="#E950C7"/>
<stop offset="0.695" stop-color="#9E51C2"/>
<stop offset="0.755" stop-color="#AD7BD3"/>
<stop offset="0.815" stop-color="#CBCFF4"/>
<stop offset="0.875" stop-color="#EBEFFF"/>
<stop offset="0.94" stop-color="#D7DCFA"/>
</linearGradient>
<linearGradient id="paint23_linear_131_77" x1="494.636" y1="440.118" x2="-386.867" y2="505.415" gradientUnits="userSpaceOnUse">
<stop offset="0.08" stop-color="#B61B9D"/>
<stop offset="0.245" stop-color="#CD438B"/>
<stop offset="0.375" stop-color="#DC49DE"/>
<stop offset="0.59" stop-color="#CC4BD7"/>
<stop offset="0.725" stop-color="#9E51C2"/>
<stop offset="0.81" stop-color="#6129A3"/>
<stop offset="0.935" stop-color="#5D22A6"/>
</linearGradient>
<linearGradient id="paint24_linear_131_77" x1="484.169" y1="453.677" x2="-397.334" y2="518.974" gradientUnits="userSpaceOnUse">
<stop offset="0.02" stop-color="#EA66D8"/>
<stop offset="0.45" stop-color="#FD9DEC"/>
<stop offset="0.625" stop-color="#F8D6FF"/>
<stop offset="0.945" stop-color="#CEC4FD"/>
</linearGradient>
<linearGradient id="paint25_linear_131_77" x1="-397.82" y1="505.631" x2="486.448" y2="502.718" gradientUnits="userSpaceOnUse">
<stop offset="0.255" stop-color="#A087F1"/>
<stop offset="0.4899" stop-color="#EAE7F9"/>
<stop offset="0.49" stop-color="white"/>
<stop offset="0.4901" stop-color="#F4E9F3"/>
<stop offset="0.685" stop-color="#E056A3"/>
</linearGradient>
<linearGradient id="paint26_linear_131_77" x1="487.602" y1="433.525" x2="-379.652" y2="434.284" gradientUnits="userSpaceOnUse">
<stop stop-color="#F684EB"/>
<stop offset="0.115" stop-color="#F379E7"/>
<stop offset="0.245" stop-color="#751396"/>
<stop offset="0.925" stop-color="#7E23A3"/>
<stop offset="1" stop-color="#D9CFFF"/>
</linearGradient>
<linearGradient id="paint27_linear_131_77" x1="487.599" y1="441.057" x2="-379.655" y2="441.816" gradientUnits="userSpaceOnUse">
<stop offset="0.035" stop-color="#FF8EE7"/>
<stop offset="0.125" stop-color="#EA66D8"/>
<stop offset="0.215" stop-color="#B51C94"/>
<stop offset="0.345" stop-color="#762DA0"/>
<stop offset="0.7" stop-color="#7F34B1"/>
<stop offset="0.95" stop-color="#6927A2"/>
<stop offset="1" stop-color="#CEC2FF"/>
</linearGradient>
<linearGradient id="paint28_linear_131_77" x1="487.603" y1="448.59" x2="-379.651" y2="449.349" gradientUnits="userSpaceOnUse">
<stop offset="0.105" stop-color="#F07EDE"/>
<stop offset="0.15" stop-color="#C444B7"/>
<stop offset="0.225" stop-color="#7F0686"/>
<stop offset="0.455" stop-color="#8136C2"/>
<stop offset="0.925" stop-color="#780EA3"/>
<stop offset="1" stop-color="#DEE5FF"/>
</linearGradient>
<linearGradient id="paint29_linear_131_77" x1="487.602" y1="456.123" x2="-379.652" y2="456.882" gradientUnits="userSpaceOnUse">
<stop offset="0.08" stop-color="#FA81E6"/>
<stop offset="0.15" stop-color="#D134A2"/>
<stop offset="0.175" stop-color="#BB13A5"/>
<stop offset="0.3" stop-color="#9846C8"/>
<stop offset="0.855" stop-color="#6B36B1"/>
<stop offset="1" stop-color="#CFD6FF"/>
</linearGradient>
<linearGradient id="paint30_linear_131_77" x1="487.602" y1="538.988" x2="-379.652" y2="539.747" gradientUnits="userSpaceOnUse">
<stop offset="0.015" stop-color="#790C62"/>
<stop offset="0.135" stop-color="#EA66D8"/>
<stop offset="0.185" stop-color="#F4ACEF"/>
<stop offset="0.275" stop-color="#FFE3FB"/>
<stop offset="0.345" stop-color="#F4AFEB"/>
<stop offset="0.44" stop-color="#B4A3FF"/>
<stop offset="0.615" stop-color="#B8A8FF"/>
<stop offset="0.67" stop-color="#FAF4FF"/>
<stop offset="0.775" stop-color="#9163B9"/>
<stop offset="0.9" stop-color="#311E9B"/>
</linearGradient>
<linearGradient id="paint31_linear_131_77" x1="487.599" y1="531.454" x2="-379.655" y2="532.213" gradientUnits="userSpaceOnUse">
<stop offset="0.025" stop-color="#840A5B"/>
<stop offset="0.1" stop-color="#EA66E1"/>
<stop offset="0.225" stop-color="#F9E0FB"/>
<stop offset="0.31" stop-color="#FCC0FF"/>
<stop offset="0.43" stop-color="#C09BFF"/>
<stop offset="0.615" stop-color="#C6A5FF"/>
<stop offset="0.675" stop-color="#F4F2FD"/>
<stop offset="0.735" stop-color="#BD94F7"/>
<stop offset="0.9" stop-color="#3C1F96"/>
</linearGradient>
<linearGradient id="paint32_linear_131_77" x1="487.604" y1="523.922" x2="-379.65" y2="524.681" gradientUnits="userSpaceOnUse">
<stop offset="0.06" stop-color="#7B0D54"/>
<stop offset="0.105" stop-color="#EA66E8"/>
<stop offset="0.18" stop-color="#F7C7F4"/>
<stop offset="0.245" stop-color="#FCE9FB"/>
<stop offset="0.325" stop-color="#F2A0E7"/>
<stop offset="0.41" stop-color="#B996FE"/>
<stop offset="0.575" stop-color="#B596FF"/>
<stop offset="0.685" stop-color="#E8E0FF"/>
<stop offset="0.77" stop-color="#B985EF"/>
<stop offset="0.915" stop-color="#3E109A"/>
</linearGradient>
<linearGradient id="paint33_linear_131_77" x1="488.273" y1="515.413" x2="-380.336" y2="516.178" gradientUnits="userSpaceOnUse">
<stop offset="0.02" stop-color="#8B0F66"/>
<stop offset="0.16" stop-color="#EB74DF"/>
<stop offset="0.26" stop-color="#FDEAFF"/>
<stop offset="0.335" stop-color="#F6BAF2"/>
<stop offset="0.44" stop-color="#A586F5"/>
<stop offset="0.59" stop-color="#AB8DF6"/>
<stop offset="0.665" stop-color="#F9F7FD"/>
<stop offset="0.77" stop-color="#A780EE"/>
<stop offset="0.87" stop-color="#5217B8"/>
</linearGradient>
<linearGradient id="paint34_linear_131_77" x1="487.604" y1="508.855" x2="-379.65" y2="509.614" gradientUnits="userSpaceOnUse">
<stop offset="0.04" stop-color="#9D1387"/>
<stop offset="0.12" stop-color="#E866EA"/>
<stop offset="0.195" stop-color="#EFB5F5"/>
<stop offset="0.255" stop-color="#FFEBF6"/>
<stop offset="0.3" stop-color="#F7C7F7"/>
<stop offset="0.38" stop-color="#C4A2FF"/>
<stop offset="0.59" stop-color="#C5A4FF"/>
<stop offset="0.66" stop-color="#F8F0FF"/>
<stop offset="0.75" stop-color="#A078F1"/>
<stop offset="0.875" stop-color="#4F0DA0"/>
</linearGradient>
<linearGradient id="paint35_linear_131_77" x1="487.604" y1="495.296" x2="-379.65" y2="496.055" gradientUnits="userSpaceOnUse">
<stop offset="0.03" stop-color="#B61B9E"/>
<stop offset="0.165" stop-color="#EA66D8"/>
<stop offset="0.24" stop-color="#FDECFF"/>
<stop offset="0.305" stop-color="#EAB6F5"/>
<stop offset="0.36" stop-color="#BA9FFF"/>
<stop offset="0.44" stop-color="#C0A7FF"/>
<stop offset="0.555" stop-color="#C2AAFF"/>
<stop offset="0.6" stop-color="#CEBCFF"/>
<stop offset="0.64" stop-color="#F7F3FF"/>
<stop offset="0.695" stop-color="#CEA0FF"/>
<stop offset="0.845" stop-color="#5E23A6"/>
</linearGradient>
<linearGradient id="paint36_linear_131_77" x1="487.602" y1="463.656" x2="-379.653" y2="464.415" gradientUnits="userSpaceOnUse">
<stop offset="0.065" stop-color="#F06EDC"/>
<stop offset="0.125" stop-color="#CF44B7"/>
<stop offset="0.235" stop-color="#B90CA2"/>
<stop offset="0.365" stop-color="#9B5ADA"/>
<stop offset="0.87" stop-color="#8447CB"/>
<stop offset="1" stop-color="#D7DCFA"/>
</linearGradient>
<linearGradient id="paint37_linear_131_77" x1="487.602" y1="474.585" x2="-379.652" y2="475.344" gradientUnits="userSpaceOnUse">
<stop stop-color="#EA69D9"/>
<stop offset="0.145" stop-color="#E578CD"/>
<stop offset="0.33" stop-color="#D6C4F5"/>
<stop offset="0.525" stop-color="#EBE6FE"/>
<stop offset="0.96" stop-color="#CEC4FD"/>
</linearGradient>
<linearGradient id="paint38_linear_131_77" x1="481.555" y1="515.264" x2="-409.859" y2="582.046" gradientUnits="userSpaceOnUse">
<stop offset="0.115" stop-color="#F37AE7"/>
<stop offset="0.16" stop-color="#F9D4F1"/>
<stop offset="0.24" stop-color="#F7B3F2"/>
<stop offset="0.37" stop-color="#F939DF"/>
<stop offset="0.59" stop-color="#F338DC"/>
<stop offset="0.7349" stop-color="#6F2596"/>
<stop offset="0.735" stop-color="#6F2596"/>
<stop offset="0.77" stop-color="#9E51C2"/>
<stop offset="0.805" stop-color="#CBCFF4"/>
<stop offset="0.865" stop-color="#EBEFFF"/>
<stop offset="0.935" stop-color="#DACFFF"/>
</linearGradient>
<linearGradient id="paint39_linear_131_77" x1="481.553" y1="507.732" x2="-409.86" y2="574.513" gradientUnits="userSpaceOnUse">
<stop offset="0.08" stop-color="#F173DD"/>
<stop offset="0.15" stop-color="#F9D4F1"/>
<stop offset="0.2" stop-color="#F7B3F0"/>
<stop offset="0.355" stop-color="#EE55C9"/>
<stop offset="0.53" stop-color="#ED48C4"/>
<stop offset="0.74" stop-color="#8429B3"/>
<stop offset="0.775" stop-color="#9E51C2"/>
<stop offset="0.82" stop-color="#CBCFF4"/>
<stop offset="0.885" stop-color="#EBEFFF"/>
<stop offset="0.98" stop-color="#CEC2FF"/>
</linearGradient>
<linearGradient id="paint40_linear_131_77" x1="499.696" y1="390.215" x2="-391.716" y2="456.996" gradientUnits="userSpaceOnUse">
<stop offset="0.08" stop-color="#790C61"/>
<stop offset="0.175" stop-color="#660944"/>
<stop offset="0.56" stop-color="#D743C8"/>
<stop offset="0.715" stop-color="#9E51C2"/>
<stop offset="0.79" stop-color="#2D0B57"/>
<stop offset="0.875" stop-color="#311E9B"/>
</linearGradient>
<linearGradient id="paint41_linear_131_77" x1="499.7" y1="400.761" x2="-391.712" y2="467.543" gradientUnits="userSpaceOnUse">
<stop offset="0.08" stop-color="#840A5B"/>
<stop offset="0.19" stop-color="#730E45"/>
<stop offset="0.36" stop-color="#D345C5"/>
<stop offset="0.63" stop-color="#CF46C5"/>
<stop offset="0.72" stop-color="#9E51C2"/>
<stop offset="0.81" stop-color="#250C4E"/>
<stop offset="0.91" stop-color="#3C1E96"/>
</linearGradient>
<linearGradient id="paint42_linear_131_77" x1="499.7" y1="411.307" x2="-391.713" y2="478.089" gradientUnits="userSpaceOnUse">
<stop offset="0.04" stop-color="#7B0D54"/>
<stop offset="0.19" stop-color="#7A1556"/>
<stop offset="0.455" stop-color="#E339E1"/>
<stop offset="0.565" stop-color="#D73DDB"/>
<stop offset="0.715" stop-color="#9E51C2"/>
<stop offset="0.81" stop-color="#320C69"/>
<stop offset="0.9" stop-color="#3E109A"/>
</linearGradient>
<linearGradient id="paint43_linear_131_77" x1="499.7" y1="421.854" x2="-391.713" y2="488.635" gradientUnits="userSpaceOnUse">
<stop offset="0.08" stop-color="#8B0F66"/>
<stop offset="0.2" stop-color="#950854"/>
<stop offset="0.425" stop-color="#E44CDA"/>
<stop offset="0.605" stop-color="#D74DD6"/>
<stop offset="0.71" stop-color="#9E51C2"/>
<stop offset="0.8" stop-color="#3A0E74"/>
<stop offset="0.89" stop-color="#5217B8"/>
</linearGradient>
<linearGradient id="paint44_linear_131_77" x1="499.701" y1="432.4" x2="-391.712" y2="499.181" gradientUnits="userSpaceOnUse">
<stop offset="0.08" stop-color="#9D1387"/>
<stop offset="0.19" stop-color="#AF0763"/>
<stop offset="0.4349" stop-color="#DE51CC"/>
<stop offset="0.57" stop-color="#E155D3"/>
<stop offset="0.665" stop-color="#9E51C2"/>
<stop offset="0.735" stop-color="#622C91"/>
<stop offset="0.83" stop-color="#441977"/>
<stop offset="0.915" stop-color="#4F0DA0"/>
</linearGradient>
<linearGradient id="paint45_linear_131_77" x1="481.553" y1="500.198" x2="-409.861" y2="566.98" gradientUnits="userSpaceOnUse">
<stop offset="0.085" stop-color="#F07EDE"/>
<stop offset="0.155" stop-color="#F9D4F1"/>
<stop offset="0.2" stop-color="#F7B3F0"/>
<stop offset="0.37" stop-color="#EF56DB"/>
<stop offset="0.57" stop-color="#ED3BD5"/>
<stop offset="0.635" stop-color="#9926AA"/>
<stop offset="0.75" stop-color="#9E51C2"/>
<stop offset="0.835" stop-color="#CBCFF4"/>
<stop offset="0.875" stop-color="#EBEFFF"/>
<stop offset="0.975" stop-color="#DEE5FF"/>
</linearGradient>
<linearGradient id="paint46_linear_131_77" x1="481.553" y1="483.625" x2="-409.86" y2="550.407" gradientUnits="userSpaceOnUse">
<stop offset="0.07" stop-color="#FA81E6"/>
<stop offset="0.1" stop-color="#F7B3F0"/>
<stop offset="0.175" stop-color="#F9D4F2"/>
<stop offset="0.21" stop-color="#F7B3E8"/>
<stop offset="0.3" stop-color="#F939C9"/>
<stop offset="0.6" stop-color="#F94BCE"/>
<stop offset="0.7" stop-color="#9040B6"/>
<stop offset="0.765" stop-color="#A96FCE"/>
<stop offset="0.81" stop-color="#CBCFF4"/>
<stop offset="0.855" stop-color="#EBEFFF"/>
<stop offset="0.95" stop-color="#CFD6FF"/>
</linearGradient>
<linearGradient id="paint47_linear_131_77" x1="481.554" y1="467.053" x2="-409.859" y2="533.834" gradientUnits="userSpaceOnUse">
<stop offset="0.08" stop-color="#F06EDC"/>
<stop offset="0.11" stop-color="#F9D4F2"/>
<stop offset="0.18" stop-color="#F7B3EB"/>
<stop offset="0.315" stop-color="#EC65CF"/>
<stop offset="0.565" stop-color="#E950C7"/>
<stop offset="0.695" stop-color="#9E51C2"/>
<stop offset="0.755" stop-color="#AD7BD3"/>
<stop offset="0.815" stop-color="#CBCFF4"/>
<stop offset="0.875" stop-color="#EBEFFF"/>
<stop offset="0.94" stop-color="#D7DCFA"/>
</linearGradient>
<linearGradient id="paint48_linear_131_77" x1="499.7" y1="441.439" x2="-391.713" y2="508.221" gradientUnits="userSpaceOnUse">
<stop offset="0.08" stop-color="#B61B9D"/>
<stop offset="0.245" stop-color="#CD438B"/>
<stop offset="0.375" stop-color="#DC49DE"/>
<stop offset="0.59" stop-color="#CC4BD7"/>
<stop offset="0.725" stop-color="#9E51C2"/>
<stop offset="0.81" stop-color="#6129A3"/>
<stop offset="0.935" stop-color="#5D22A6"/>
</linearGradient>
<linearGradient id="paint49_linear_131_77" x1="489.114" y1="455" x2="-402.299" y2="521.781" gradientUnits="userSpaceOnUse">
<stop offset="0.02" stop-color="#EA66D8"/>
<stop offset="0.45" stop-color="#FD9DEC"/>
<stop offset="0.625" stop-color="#F8D6FF"/>
<stop offset="0.945" stop-color="#CEC4FD"/>
</linearGradient>
</defs>
</svg>
