<svg width="487" height="588" viewBox="0 0 487 588" fill="none" xmlns="http://www.w3.org/2000/svg">
<g filter="url(#filter0_d_131_145)">
<path d="M15 572H469.5V418.73C422.517 443.808 364.989 399.8 364.159 350.871C364.159 291.863 418.066 256.458 469.5 270.718V122.214H318.165C335.474 59.7647 286.018 16 242.003 16C186.118 16 150.015 64.1898 163.862 122.214H15V572Z" fill="#A04BCD"/>
<path d="M318.165 123.214H468.5V269.413C416.862 255.914 363.159 291.637 363.159 350.871V350.879L363.159 350.888C363.581 375.732 378.38 399.245 398.956 413.378C419.124 427.23 444.991 432.165 468.5 420.373V571H16V123.214H163.862H165.129L164.835 121.982C157.972 93.2261 163.5 66.9817 177.587 47.9428C191.67 28.9087 214.362 17 242.003 17C285.463 17 334.307 60.2326 317.201 121.947L316.85 123.214H318.165Z" stroke="white" stroke-width="2"/>
</g>
<mask id="mask0_131_145" style="mask-type:alpha" maskUnits="userSpaceOnUse" x="17" y="124" width="451" height="212">
<path d="M467.029 124.673H381.259L389.146 132.015C323.095 192.903 286.679 216.217 224.014 219.631C162.397 225.015 118.036 191.969 113.027 124.673H17.9688V134.952C31.7708 208.373 55.8616 255.912 116.555 304.311C178.171 342.979 232.394 346.895 315.206 306.758C348.286 287.974 388.653 244.105 445.34 190.752L467.029 212.289V124.673Z" fill="#D9D9D9"/>
</mask>
<g mask="url(#mask0_131_145)">
<g filter="url(#filter1_dd_131_145)">
<path fill-rule="evenodd" clip-rule="evenodd" d="M897.625 137.076C897.718 251.266 791.397 337.236 672.922 316.405C619.491 301.41 598.709 285.571 574.576 263.927C550.444 242.282 538.403 227.319 508.955 199.857L459.36 154.088L390.503 227.437C364.247 253.534 344.85 268.286 318.537 287.463C299.188 299.14 267.756 319.413 218.926 318.8C109 317.42 40.2085 250.176 28.0336 134.446L28.0269 126.117C33.1285 19.4122 94.4862 -56.8299 212.165 -65.5983C248.221 -65.7334 275.292 -57.4761 307.429 -42.354C335.149 -26.7655 366.926 0.153964 392.663 26.7079L459.317 100.782L478.658 79.2934L508.83 45.771C529.886 18.6902 542.476 10.4296 573.824 -17.5817C603.608 -40.094 659.298 -68.5474 695.354 -68.4865C814.975 -76.5064 893.749 -0.183702 897.613 121.251L897.625 137.076ZM482.57 129.341L563.163 204.811C579.437 219.79 594.161 233.937 612.756 247.249C632.902 263.89 688.557 284.765 710.354 284.65C786.438 284.589 863.608 203.718 863.554 137.104L863.541 121.279C865.946 34.3839 785.191 -52.6681 688.418 -28.5018C642.563 -22.2099 575.393 20.6865 551.424 52.3998L482.57 129.341ZM434.56 128.286L353.178 35.0687C340.379 18.7478 314.512 1.7467 295.068 -7.36225C275.623 -16.4712 244.836 -24.9099 223.039 -24.7951C137.656 -32.6124 60.4885 51.1297 65.9698 126.086L65.9765 134.415C65.6188 219.787 147.111 295 231.437 279.206C274.848 271.076 320.05 243.319 350.999 212.477L423.805 139.122L434.56 128.286Z" fill="url(#paint0_linear_131_145)"/>
</g>
<path d="M244.004 -86.6682C124.26 -101.655 13.3993 26.8374 17.6104 130.559L60.0306 132.042C56.5434 57.6943 138.421 -64.5817 244.004 -56.8779C294.387 -53.2018 360.102 -4.75972 415.174 58.2583C420.68 64.0006 425.927 69.5168 431.547 75.3103L443.454 86.9133C504.959 146.674 557.319 224.329 675.457 249.537C788.771 268.813 853.366 219.388 853.366 113.507L808.713 114.99C806.925 199.419 772.482 229.678 675.65 216.174C610.374 207.071 525.318 123.5 474.711 72.3447L461.315 58.2583C455.864 52.6404 451.773 49.2043 446.431 43.6339C378.707 -21.0703 348.194 -68.8748 244.004 -86.6682Z" fill="url(#paint1_linear_131_145)"/>
<path d="M243.998 -80.737C124.253 -95.7237 17.861 27.5788 22.0721 131.3L68.9565 129.817C65.4692 55.4701 138.414 -57.1677 243.998 -49.464C294.38 -45.7879 360.095 2.65421 415.167 65.6723C420.673 71.4146 425.921 76.9307 431.54 82.7242L443.448 94.3272C504.952 154.088 557.313 231.743 675.45 256.951C788.764 276.227 866.015 220.13 866.015 114.248L816.897 114.248C818.357 207.299 772.092 237.152 675.643 223.588C610.378 214.409 525.312 130.914 474.705 79.7586L461.309 65.6723C455.858 60.0543 451.766 56.6182 446.425 51.0478C378.701 -13.6563 348.188 -62.9437 243.998 -80.737Z" fill="url(#paint2_linear_131_145)"/>
<path d="M244.005 -74.0646C124.261 -89.0514 25.3072 28.32 29.5183 132.041L68.218 129.817C64.7307 55.47 138.422 -49.754 244.005 -42.0502C294.388 -38.3741 360.103 10.068 415.175 73.086C420.681 78.8283 425.928 84.3444 431.548 90.1379L443.455 101.741C504.96 161.501 557.32 239.157 675.458 264.364C788.772 283.64 863.786 221.612 863.786 115.731L823.599 114.248C825.059 207.299 772.1 244.566 675.651 231.002C610.385 221.823 525.319 138.328 474.712 87.1724L461.316 73.086C455.865 67.4681 451.774 64.032 446.432 58.4616C378.708 -6.24259 348.196 -56.2713 244.005 -74.0646Z" fill="url(#paint3_linear_131_145)"/>
<path d="M244.004 -67.3923C124.259 -82.379 29.7701 26.8371 33.9812 130.559H69.8026C66.3153 56.2112 138.42 -42.3402 244.004 -34.6365C294.386 -30.9604 360.101 17.4817 415.173 80.4998C420.679 86.2421 425.926 91.7582 431.546 97.5517L443.454 109.155C504.958 168.915 557.319 246.571 675.456 271.778C788.77 291.054 875.691 220.129 875.691 114.248L831.783 114.248C833.243 207.299 772.098 251.98 675.649 238.416C610.384 229.237 525.317 145.742 474.711 94.5861L461.315 80.4998C455.864 74.8818 451.772 71.4457 446.43 65.8753C378.707 1.17116 348.194 -49.599 244.004 -67.3923Z" fill="url(#paint4_linear_131_145)"/>
<path d="M244.004 13.5536C124.259 -1.43316 51.3526 46.1131 55.5637 149.834L112.87 129.817C109.382 55.4696 176.396 24.9245 251.294 42.3334C301.749 54.0609 360.102 99.0343 415.174 162.052C420.679 167.795 425.927 173.311 431.546 179.104L443.454 190.707C504.959 250.468 557.512 307.751 675.649 332.958C788.964 352.234 913.647 220.871 913.647 114.99L874.948 114.248C876.408 207.299 772.098 324.28 675.649 310.716C610.384 301.537 525.318 227.294 474.711 176.139L461.315 162.052C455.864 156.434 451.773 152.998 446.431 147.428C378.707 82.7238 348.194 31.3469 244.004 13.5536Z" fill="url(#paint5_linear_131_145)"/>
<path d="M245.491 3.78145C125.746 -11.2052 48.3765 46.7205 52.5875 150.442L108.403 129.818C104.916 55.4704 167.788 13.8915 249.06 34.7851C297.975 47.3603 361.588 89.2622 416.66 152.28C422.166 158.022 427.414 163.539 433.033 169.332L444.941 180.935C506.445 240.696 558.999 304.044 677.136 329.251C790.451 348.527 907.692 220.13 907.692 114.248H866.016C867.476 207.299 779.271 309.663 682.822 296.098C617.557 286.92 526.805 217.522 476.198 166.367L462.802 152.28C457.351 146.662 453.26 143.226 447.918 137.656C380.194 72.9516 349.681 21.5748 245.491 3.78145Z" fill="url(#paint6_linear_131_145)"/>
<path d="M244.005 -1.62888C124.26 -16.6156 43.9137 39.8272 48.1248 143.549L103.824 130.027C100.336 55.6799 162.581 12.1577 245.341 28.2475C294.923 37.887 360.103 83.8518 415.175 146.87C420.68 152.612 425.928 158.128 431.547 163.922L443.455 175.525C504.96 235.285 561.827 298.854 679.964 324.061C793.278 343.337 901.724 220.871 901.724 114.99L868.995 114.989C870.455 208.04 776.413 307.438 679.964 293.874C614.698 284.695 525.319 212.112 474.712 160.956L461.316 146.87C455.865 141.252 451.774 137.816 446.432 132.245C378.708 67.5413 348.195 16.1645 244.005 -1.62888Z" fill="url(#paint7_linear_131_145)"/>
<path d="M243.643 -7.21793C123.712 -22.1155 51.4359 40.6244 55.6535 143.729L99.3582 130.027C95.8655 56.1223 156.87 4.30597 248.707 22.1274C298.356 31.7621 359.922 77.7544 415.081 140.398C420.595 146.106 425.85 151.589 431.479 157.348L443.405 168.882C505.006 228.287 557.642 289.651 675.963 314.709C789.455 333.87 897.159 219.71 897.159 114.458L873.334 113.513C874.797 206.01 772.563 288.613 675.963 275.13C610.596 266.006 525.397 205.252 474.711 154.4L461.294 140.398C455.834 134.813 451.737 131.398 446.386 125.86C378.557 61.5409 347.996 10.4696 243.643 -7.21793Z" fill="url(#paint8_linear_131_145)"/>
<path d="M244.012 -16.1014C124.267 -31.0881 49.8689 29.8031 54.08 133.524L95.0107 129.818C91.5234 55.4702 153.06 -2.14965 246.831 10.454C296.895 17.1829 360.109 69.3793 415.181 132.397C420.687 138.14 425.935 143.656 431.554 149.449L443.462 161.052C504.966 220.813 561.828 284.026 679.965 309.234C793.279 328.51 893.555 220.13 893.555 114.248L863.042 114.99C864.502 208.041 772.693 296.849 676.244 283.285C610.979 274.106 525.326 197.639 474.719 146.484L461.323 132.397C455.872 126.779 451.781 123.343 446.439 117.773C378.715 53.0688 348.202 1.69196 244.012 -16.1014Z" fill="url(#paint9_linear_131_145)"/>
<path d="M244.01 -29.4466C124.266 -44.4333 43.1682 32.7684 47.3793 136.49L92.0326 129.817C88.5454 55.47 149.924 -16.371 250.551 0.0742864C300.402 8.22139 360.108 56.0341 415.18 119.052C420.686 124.794 425.933 130.311 431.552 136.104L443.46 147.707C504.965 207.468 557.518 275.13 675.656 300.337C788.97 319.613 890.461 221.081 890.461 115.2L853.366 114.248C854.826 207.299 772.104 290.532 675.656 276.968C610.39 267.789 525.324 184.294 474.717 133.139L461.321 119.052C455.87 113.434 451.779 109.998 446.437 104.428C378.713 39.7236 348.2 -11.6533 244.01 -29.4466Z" fill="url(#paint10_linear_131_145)"/>
<path d="M244.015 -60.5845C124.271 -75.5712 33.4941 26.8378 37.7052 130.559H79.2638C75.7766 56.2119 138.432 -34.9257 244.015 -27.2219C294.398 -23.5458 360.113 24.8962 415.185 87.9143C420.691 93.6566 425.938 99.1727 431.558 104.966L443.466 116.569C504.97 176.33 557.331 253.985 675.468 279.193C788.782 298.469 877.18 220.871 877.18 114.989L837.737 114.249C839.197 207.299 772.11 259.394 675.661 245.83C610.396 236.651 525.329 153.156 474.723 102.001L461.327 87.9143C455.876 82.2963 451.784 78.8602 446.443 73.2898C378.719 8.58569 348.206 -42.7911 244.015 -60.5845Z" fill="url(#paint11_linear_131_145)"/>
<path d="M244.005 -49.8292C124.261 -64.8159 41.0883 26.6068 45.2994 130.328H81.6131C78.1258 55.981 138.422 -24.1705 244.005 -16.4667C294.388 -12.7906 360.103 35.6515 415.175 98.6696C420.681 104.412 425.928 109.928 431.548 115.721L443.455 127.325C504.96 187.085 557.32 264.741 675.458 289.948C788.772 309.224 880.041 220.34 880.041 114.458L845.332 109.79C846.792 202.841 772.42 267.662 675.651 256.585C600.903 248.03 515.47 164.585 474.712 112.756L461.317 98.6696C455.865 93.0516 451.774 89.6155 446.432 84.0451C378.708 19.341 348.196 -32.0359 244.005 -49.8292Z" fill="url(#paint12_linear_131_145)"/>
<path d="M225.99 335.922C107.66 343.336 26.253 230.399 17.6094 130.559H70.4488C80.1236 210.629 134.451 292.182 225.99 277.354C275.853 269.277 352.507 263.643 407.579 200.625C413.085 194.883 418.332 189.367 423.952 183.573L435.859 171.97C497.364 112.21 552.15 9.71219 670.288 -15.495C780.82 -30.5281 871.858 13.442 874.947 114.989L808.712 114.989C794.942 25.3678 746.068 12.5593 670.288 23.0565C608.015 31.6825 510.165 125.579 459.558 176.735L442.441 193.045C436.99 198.663 431.526 202.834 426.184 208.404C358.461 273.108 330.18 318.129 225.99 335.922Z" fill="url(#paint13_linear_131_145)"/>
<path d="M225.99 329.251C107.659 336.665 30.7179 230.4 22.0742 130.559H81.6116C91.2864 210.629 145.614 312.941 237.153 298.113C287.015 290.036 352.506 257.713 407.579 194.695C413.084 188.953 418.332 183.437 423.951 177.643L435.859 166.04C497.363 106.28 549.724 13.4197 667.861 -11.7875C778.393 -26.8206 874.834 13.4424 877.924 114.99L816.898 114.99C802.529 22.07 747.569 4.73289 667.861 17.1264C606.578 26.655 512.513 117.214 461.906 168.37L443.301 186.163C437.85 191.781 432.27 195.42 426.928 200.991C359.204 265.695 330.18 311.458 225.99 329.251Z" fill="url(#paint14_linear_131_145)"/>
<path d="M243.107 264.75C124.777 272.164 63.464 230.4 54.8203 130.559C77.5776 131.088 90.2442 130.894 112.869 129.818C122.544 209.888 186.547 232.496 263.945 212.854C312.899 200.43 373.229 152.269 428.301 89.251C433.807 83.5087 441.403 76.3004 447.023 70.5069L461.907 55.6791C523.412 -4.08137 570.563 -82.2198 684.428 -92.5992C794.96 -107.632 910.557 13.4431 913.646 114.991L857.83 114.991C851.362 22.2009 783.914 -63.6138 695.591 -50.3398C630.416 -40.5447 535.584 12.3131 484.978 63.4688L471.582 77.5551C466.131 83.1731 462.039 86.6092 456.697 92.1796C388.974 156.884 347.297 246.957 243.107 264.75Z" fill="url(#paint15_linear_131_145)"/>
<path d="M254.272 239.919C135.942 247.333 62.7218 230.4 54.0781 130.559C75.2872 130.864 87.1996 130.737 108.406 129.817C118.081 209.887 165.711 235.094 257.249 220.267C307.112 212.19 371.114 159.472 426.186 96.4544C431.692 90.7121 436.195 85.9374 441.815 80.1439L456.699 66.7989C518.204 7.03841 565.355 -74.0649 681.453 -89.6341C793.83 -97.0479 904.605 13.442 907.695 114.989H859.321C852.853 22.1995 772.753 -62.1318 684.43 -48.8578C619.255 -39.0627 535.586 22.692 484.98 73.8477L471.584 87.9341C466.133 93.552 462.041 96.9881 456.699 102.559C388.976 167.263 358.463 222.125 254.272 239.919Z" fill="url(#paint16_linear_131_145)"/>
<path d="M254.27 252.147C135.94 259.56 64.2081 231.507 55.5645 131.666L103.822 130.027C113.497 210.097 162.732 242.133 254.27 227.305C304.133 219.228 371.112 166.511 426.184 103.492C431.69 97.7502 439.914 90.0099 445.534 84.2164L457.442 73.0955C518.946 13.335 570.562 -71.099 685.916 -81.8545C796.804 -89.6939 898.65 13.4422 901.739 114.99C884.128 115.009 874.108 114.631 856.342 114.248C849.874 21.4583 774.239 -53.9761 685.916 -40.7021C620.741 -30.907 535.584 34.9198 484.978 86.0755L471.582 100.162C466.13 105.78 462.039 109.216 456.697 114.786C388.974 179.49 358.461 234.353 254.27 252.147Z" fill="url(#paint17_linear_131_145)"/>
<path d="M254.27 260.677C135.94 268.091 64.9523 230.4 56.3086 130.559C73.4281 130.517 82.1636 130.614 99.3569 130.027C109.032 210.097 162.732 246.215 254.27 231.388C304.133 223.311 367.391 174.301 422.463 111.283C427.969 105.54 436.193 95.5759 441.813 89.7824L454.465 78.6616C515.969 18.9011 571.307 -67.3921 685.916 -75.5474C799.037 -78.5128 894.068 13.4425 897.157 114.99H854.109C847.641 22.2 774.239 -44.338 685.916 -31.064C620.741 -21.2689 535.584 43.4508 484.977 94.6064L471.582 108.693C466.13 114.311 462.039 117.747 456.697 123.317C388.973 188.021 358.461 242.884 254.27 260.677Z" fill="url(#paint18_linear_131_145)"/>
<path d="M254.271 271.057C135.94 278.471 61.2315 230.4 52.5879 130.559C69.2994 130.793 78.0603 130.713 95.0082 129.818C104.683 209.887 162.732 252.523 254.271 237.695C304.133 229.618 365.159 182.091 420.231 119.073C425.737 113.33 432.473 105.214 438.092 99.4206L452.977 83.8514C514.481 24.0909 580.982 -62.9436 685.916 -68.1332C799.231 -71.4744 890.464 13.4427 893.553 114.99C878.327 115.152 869.558 114.655 854.109 114.248C847.642 21.4585 774.239 -52.1172 685.916 -38.8432C620.741 -29.0481 535.585 53.8306 484.978 104.986L471.582 119.073C466.131 124.69 462.039 128.127 456.698 133.697C388.974 198.401 358.461 253.264 254.271 271.057Z" fill="url(#paint19_linear_131_145)"/>
<path d="M228.223 319.977C109.893 327.391 38.1612 230.399 29.5176 130.559H71.9379C81.6128 210.629 145.615 301.078 237.154 286.25C287.017 278.173 350.275 244.732 405.347 181.714C410.853 175.972 416.1 170.456 421.72 164.662L433.627 153.059C495.132 93.2989 547.492 15.6433 665.63 -9.56389C776.162 -24.597 872.603 13.4421 875.692 114.989L823.597 114.99C809.228 22.07 746.249 -1.76747 665.63 11.1951C601.076 21.5746 512.514 109.8 461.908 160.956L445.535 178.749C440.084 184.367 437.481 185.782 432.139 191.352C364.415 256.057 332.414 302.184 228.223 319.977Z" fill="url(#paint20_linear_131_145)"/>
<path d="M231.944 313.682C113.614 321.096 42.6261 230.399 33.9824 130.559H77.0307C86.7055 210.629 140.405 293.664 231.944 278.836C281.807 270.759 352.507 232.505 407.579 169.487C413.085 163.745 418.332 158.229 423.952 152.435L435.859 140.832C497.364 81.0716 549.725 3.41594 667.862 -21.7912C778.394 -36.8243 880.044 13.4421 883.134 114.989H831.783C822.889 23.024 753.708 -8.67064 667.862 3.7811C602.637 13.2418 514.746 101.279 464.14 152.435L452.232 165.404C446.781 171.022 439.713 177.627 434.371 183.197C366.647 247.901 336.134 295.888 231.944 313.682Z" fill="url(#paint21_linear_131_145)"/>
<path d="M236.409 302.561C118.079 309.975 46.3468 230.4 37.7031 130.559H75.6582C85.333 210.629 144.87 286.627 236.409 271.8C286.272 263.723 352.507 216.195 407.579 153.177C413.085 147.435 418.332 141.919 423.952 136.125L435.859 124.522C497.364 64.7619 549.724 -12.8938 667.861 -38.101C778.393 -53.134 877.067 13.4427 880.156 114.99H837.736C831.268 22.2002 756.378 -18.0125 668.055 -4.73849C602.88 5.05663 519.211 89.0415 468.605 140.197L455.209 154.284C449.758 159.902 445.666 163.541 440.324 169.111C372.601 233.816 340.599 284.768 236.409 302.561Z" fill="url(#paint22_linear_131_145)"/>
<path d="M254.27 279.954C135.94 287.368 64.2081 230.4 55.5645 130.559C69.9893 130.495 78.0928 130.475 92.0311 129.818C101.706 209.888 162.732 261.42 254.27 246.592C304.133 238.515 364.414 189.129 419.486 126.111C424.992 120.369 432.472 113.37 438.092 107.576L449.999 95.714C511.504 35.9535 590.656 -57.0121 685.916 -61.4604C793.417 -71.0082 885.41 17.1997 890.459 115.2L852.621 114.99C846.153 22.2001 774.239 -43.2202 685.916 -29.9462C620.741 -20.1511 535.584 62.7276 484.978 113.883L471.582 127.97C466.13 133.588 462.039 137.024 456.697 142.594C388.974 207.298 358.461 262.161 254.27 279.954Z" fill="url(#paint23_linear_131_145)"/>
<path d="M243.852 293.299C125.522 300.713 53.7901 230.034 45.1465 130.194H81.6131C91.2879 210.264 152.314 274.764 243.852 259.937C293.715 251.86 359.95 204.332 415.022 141.314C420.528 135.572 425.775 130.056 431.395 124.262L443.302 112.659C504.807 52.8989 557.168 -24.7567 675.305 -49.9639C785.837 -64.997 876.952 13.6524 880.041 115.2L845.325 114.99C838.857 22.1999 763.821 -29.8754 675.498 -16.6015C610.323 -6.80634 525.166 76.0723 474.56 127.228L461.164 141.314C455.712 146.932 451.621 150.368 446.279 155.939C378.556 220.643 348.043 275.506 243.852 293.299Z" fill="url(#paint24_linear_131_145)"/>
</g>
<mask id="mask1_131_145" style="mask-type:alpha" maskUnits="userSpaceOnUse" x="190" y="17" width="123" height="50">
<path d="M190.074 36.8761C240.519 29.0082 268.025 37.0937 312.725 66.3801C292.734 19.8459 233.9 -0.512989 190.074 36.8761Z" fill="#D9D9D9"/>
</mask>
<g mask="url(#mask1_131_145)">
<path d="M245.495 -88.4151C124.959 -103.472 13.3664 25.6209 17.6053 129.827L60.3059 131.317C56.7955 56.622 139.214 -66.2254 245.495 -58.4856C296.21 -54.7923 362.36 -6.12387 417.796 57.1887C423.338 62.9578 428.62 68.4997 434.277 74.3203L446.263 85.9776C508.174 146.017 560.881 224.036 679.799 249.361C793.862 268.727 858.883 219.071 858.883 112.695L813.935 114.185C812.135 199.009 777.465 229.409 679.993 215.842C614.286 206.697 528.668 122.736 477.727 71.3409L464.242 57.1887C458.755 51.5445 454.637 48.0923 449.26 42.4959C381.088 -22.5106 350.374 -70.5386 245.495 -88.4151Z" fill="url(#paint25_linear_131_145)"/>
<path d="M245.488 -82.4571C124.953 -97.5138 17.8574 26.3649 22.0963 130.571L69.2905 129.081C65.7802 54.3865 139.207 -58.7777 245.488 -51.0379C296.204 -47.3446 362.353 1.32383 417.789 64.6364C423.331 70.4055 428.613 75.9474 434.27 81.768L446.256 93.4252C508.167 153.465 560.874 231.484 679.792 256.808C793.855 276.175 871.616 219.816 871.616 113.44L822.173 113.439C823.643 206.925 777.073 236.918 679.986 223.29C614.29 214.069 528.661 130.183 477.72 78.7886L464.236 64.6364C458.748 58.9922 454.63 55.54 449.253 49.9436C381.082 -15.0629 350.367 -64.5806 245.488 -82.4571Z" fill="url(#paint26_linear_131_145)"/>
<path d="M245.496 -75.7532C124.96 -90.81 25.3525 27.1099 29.5914 131.316L68.5469 129.081C65.0365 54.3867 139.215 -51.329 245.496 -43.5892C296.211 -39.8959 362.361 8.77251 417.796 72.085C423.339 77.8542 428.621 83.3961 434.277 89.2167L446.264 100.874C508.175 160.914 560.881 238.932 679.799 264.257C793.862 283.623 869.372 221.305 869.372 114.929L828.919 113.439C830.389 206.925 777.08 244.366 679.994 230.739C614.297 221.517 528.668 137.632 477.727 86.2372L464.243 72.085C458.756 66.4408 454.637 62.9887 449.26 57.3923C381.089 -7.61426 350.374 -57.8768 245.496 -75.7532Z" fill="url(#paint27_linear_131_145)"/>
<path d="M245.494 -69.0496C124.958 -84.1063 29.8447 25.6202 34.0836 129.826H70.1417C66.6314 55.1315 139.213 -43.8805 245.494 -36.1407C296.209 -32.4474 362.359 16.221 417.795 79.5336C423.337 85.3027 428.619 90.8446 434.276 96.6652L446.262 108.322C508.173 168.362 560.879 246.381 679.797 271.706C793.86 291.072 881.356 219.816 881.356 113.439L837.157 113.439C838.626 206.925 777.078 251.815 679.992 238.187C614.295 228.966 528.667 145.08 477.725 93.6858L464.241 79.5336C458.754 73.8894 454.636 70.4372 449.258 64.8408C381.087 -0.165731 350.373 -51.1731 245.494 -69.0496Z" fill="url(#paint28_linear_131_145)"/>
<path d="M245.494 12.2748C124.959 -2.78196 51.5701 44.9864 55.809 149.193L113.494 129.081C109.983 54.3867 177.44 23.6989 252.833 41.1892C303.621 52.9715 362.359 98.155 417.795 161.467C423.337 167.237 428.619 172.779 434.276 178.599L446.262 190.256C508.173 250.296 561.074 307.847 679.992 333.172C794.055 352.538 919.562 220.561 919.562 114.185L880.607 113.44C882.077 206.926 777.078 324.454 679.992 310.826C614.296 301.604 528.667 227.014 477.726 175.62L464.241 161.467C458.754 155.823 454.636 152.371 449.259 146.775C381.088 81.7682 350.373 30.1513 245.494 12.2748Z" fill="url(#paint29_linear_131_145)"/>
<path d="M246.991 2.4566C126.455 -12.6001 48.5743 45.5963 52.8132 149.802L108.997 129.082C105.487 54.3871 168.775 12.6139 250.584 33.6051C299.822 46.2391 363.856 88.3368 419.292 151.649C424.834 157.418 430.116 162.96 435.773 168.781L447.759 180.438C509.67 240.478 562.571 304.122 681.489 329.447C795.552 348.813 913.568 219.816 913.568 113.44H871.616C873.086 206.925 784.298 309.767 687.212 296.14C621.516 286.918 530.164 217.196 479.223 165.801L465.738 151.649C460.251 146.005 456.133 142.553 450.756 136.956C382.584 71.95 351.87 20.3331 246.991 2.4566Z" fill="url(#paint30_linear_131_145)"/>
<path d="M245.495 -2.97911C124.96 -18.0359 44.0822 38.6707 48.3211 142.877L104.388 129.292C100.878 54.5975 163.534 10.8719 246.841 27.0369C296.75 36.7214 362.36 82.901 417.796 146.214C423.339 151.983 428.621 157.525 434.277 163.345L446.264 175.002C508.175 235.042 565.417 298.908 684.335 324.233C798.398 343.599 907.561 220.561 907.561 114.184L874.616 114.184C876.085 207.67 781.422 307.532 684.335 293.905C618.639 284.683 528.668 211.76 477.727 160.366L464.243 146.214C458.756 140.569 454.637 137.117 449.26 131.521C381.089 66.5143 350.374 14.8974 245.495 -2.97911Z" fill="url(#paint31_linear_131_145)"/>
<path d="M245.133 -8.59447C124.409 -23.5617 51.6553 39.4715 55.9008 143.058L99.8943 129.292C96.3785 55.0417 157.786 2.98328 250.229 20.888C300.207 30.5678 362.18 76.7749 417.703 139.711C423.254 145.446 428.544 150.955 434.21 156.741L446.214 168.329C508.222 228.011 561.206 289.662 680.31 314.836C794.551 334.087 902.966 219.394 902.966 113.65L878.985 112.701C880.457 205.63 777.547 288.619 680.31 275.073C614.51 265.906 528.748 204.868 477.727 153.779L464.222 139.711C458.726 134.1 454.601 130.669 449.216 125.106C380.938 60.4857 350.175 9.1757 245.133 -8.59447Z" fill="url(#paint32_linear_131_145)"/>
<path d="M245.502 -17.5193C124.966 -32.576 50.0766 28.5996 54.3155 132.806L95.5167 129.081C92.0063 54.3867 153.949 -3.50238 248.34 9.16012C298.735 15.9205 362.367 68.3608 417.803 131.673C423.345 137.442 428.627 142.984 434.284 148.805L446.27 160.462C508.181 220.502 565.418 284.011 684.336 309.336C798.399 328.702 899.338 219.816 899.338 113.439L868.623 114.184C870.093 207.67 777.677 296.894 680.591 283.266C614.894 274.044 528.675 197.22 477.734 145.826L464.249 131.673C458.762 126.029 454.644 122.577 449.267 116.981C381.096 51.9741 350.381 0.357182 245.502 -17.5193Z" fill="url(#paint33_linear_131_145)"/>
<path d="M245.5 -30.9267C124.964 -45.9835 43.3309 31.579 47.5698 135.785L92.5182 129.081C89.0079 54.3867 150.793 -17.79 252.084 -1.26791C302.264 6.91726 362.365 54.9534 417.801 118.266C423.343 124.035 428.625 129.577 434.282 135.398L446.268 147.055C508.179 207.095 561.08 275.073 679.998 300.398C794.061 319.764 896.222 220.772 896.222 114.395L858.883 113.44C860.352 206.925 777.084 290.547 679.998 276.92C614.301 267.698 528.673 183.813 477.731 132.418L464.247 118.266C458.76 112.622 454.641 109.17 449.264 103.573C381.093 38.5666 350.379 -13.0503 245.5 -30.9267Z" fill="url(#paint34_linear_131_145)"/>
<path d="M245.506 -62.2099C124.971 -77.2666 33.5942 25.6208 37.8331 129.827H79.6663C76.156 55.1322 139.226 -36.4312 245.506 -28.6915C296.222 -24.9982 362.371 23.6703 417.807 86.9828C423.35 92.7519 428.632 98.2938 434.289 104.114L446.275 115.772C508.186 175.811 560.892 253.83 679.81 279.155C793.873 298.521 882.856 220.561 882.856 114.184L843.151 113.44C844.621 206.926 777.091 259.264 680.005 245.637C614.308 236.415 528.68 152.53 477.738 101.135L464.254 86.9828C458.767 81.3386 454.648 77.8864 449.271 72.29C381.1 7.28348 350.385 -44.3334 245.506 -62.2099Z" fill="url(#paint35_linear_131_145)"/>
<path d="M245.495 -51.4044C124.959 -66.4612 41.2373 25.3888 45.4762 129.595H82.0299C78.5195 54.9002 139.214 -25.6258 245.495 -17.886C296.21 -14.1927 362.36 34.4757 417.796 97.7883C423.338 103.557 428.62 109.099 434.277 114.92L446.263 126.577C508.174 186.617 560.881 264.635 679.799 289.96C793.862 309.326 885.734 220.027 885.734 113.651L850.796 108.961C852.265 202.447 777.401 267.57 679.993 256.442C604.751 247.846 518.754 164.011 477.727 111.94L464.242 97.7883C458.755 92.1441 454.637 88.6919 449.26 83.0955C381.088 18.089 350.374 -33.5279 245.495 -51.4044Z" fill="url(#paint36_linear_131_145)"/>
<path d="M227.363 336.15C108.251 343.598 26.3062 230.134 17.6055 129.826H70.794C80.5328 210.27 135.22 292.204 227.363 277.307C277.555 269.193 354.716 263.533 410.152 200.22C415.694 194.451 420.976 188.909 426.633 183.089L438.619 171.431C500.53 111.392 555.679 8.41519 674.596 -16.9098C785.859 -32.0131 877.499 12.1624 880.608 114.184L813.935 114.184C800.075 24.144 750.878 11.2756 674.596 21.8218C611.912 30.4882 513.415 124.824 462.474 176.218L445.244 192.605C439.757 198.249 434.258 202.439 428.88 208.036C360.709 273.042 332.242 318.273 227.363 336.15Z" fill="url(#paint37_linear_131_145)"/>
<path d="M227.362 329.447C108.25 336.895 30.8004 230.134 22.0996 129.826H82.0304C91.7691 210.27 146.456 313.06 238.599 298.163C288.792 290.049 354.715 257.574 410.151 194.262C415.694 188.493 420.975 182.951 426.632 177.13L438.618 165.473C500.53 105.433 553.236 12.1396 672.154 -13.1854C783.416 -28.2887 880.495 12.1624 883.604 114.184L822.175 114.184C807.711 20.8304 752.389 3.41223 672.154 15.8636C610.466 25.4368 515.779 116.419 464.838 167.814L446.11 185.69C440.623 191.334 435.006 194.991 429.629 200.587C361.458 265.594 332.241 311.57 227.362 329.447Z" fill="url(#paint38_linear_131_145)"/>
<path d="M244.59 264.645C125.477 272.093 63.7594 230.134 55.0586 129.827C77.9663 130.358 90.7166 130.163 113.491 129.082C123.23 209.526 187.655 232.24 265.565 212.506C314.843 200.024 375.571 151.638 431.007 88.3254C436.549 82.5563 444.196 75.3143 449.852 69.4938L464.835 54.5967C526.746 -5.44304 574.209 -83.9466 688.826 -94.3745C800.089 -109.478 916.45 12.1634 919.56 114.185L863.375 114.186C856.864 20.9621 788.97 -65.2537 700.063 -51.9176C634.458 -42.0767 538.999 11.0281 488.058 62.4228L474.574 76.5749C469.087 82.2191 464.968 85.6713 459.591 91.2677C391.42 156.274 349.468 246.768 244.59 264.645Z" fill="url(#paint39_linear_131_145)"/>
<path d="M255.832 239.698C136.719 247.146 63.0152 230.134 54.3145 129.827C75.6637 130.134 87.6548 130.006 109.001 129.081C118.74 209.525 166.685 234.851 258.828 219.954C309.02 211.839 373.446 158.875 428.882 95.5629C434.424 89.7938 438.957 84.9968 444.614 79.1762L459.596 65.7688C521.507 5.72909 568.97 -75.7532 685.835 -91.3952C798.954 -98.8436 910.462 12.1626 913.572 114.184H864.878C858.367 20.961 777.738 -63.7643 688.831 -50.4283C623.226 -40.5874 539.004 21.4559 488.063 72.8506L474.579 87.0028C469.092 92.647 464.973 96.0991 459.596 101.696C391.425 166.702 360.71 221.821 255.832 239.698Z" fill="url(#paint40_linear_131_145)"/>
<path d="M255.829 251.982C136.717 259.431 64.5113 231.246 55.8105 130.939L104.387 129.292C114.126 209.736 163.686 241.922 255.829 227.025C306.021 218.91 373.444 165.946 428.88 102.633C434.422 96.8644 442.7 89.0879 448.357 83.2673L460.343 72.0945C522.254 12.0548 574.212 -72.7739 690.327 -83.5795C801.948 -91.4556 904.467 12.1624 907.576 114.184C889.85 114.204 879.763 113.824 861.879 113.439C855.369 20.216 779.234 -55.5709 690.327 -42.2349C624.722 -32.394 539.002 33.7404 488.061 85.1351L474.577 99.2873C469.09 104.931 464.971 108.384 459.594 113.98C391.423 178.987 360.708 234.106 255.829 251.982Z" fill="url(#paint41_linear_131_145)"/>
<path d="M255.83 260.553C136.718 268.002 65.2613 230.134 56.5605 129.827C73.7932 129.784 82.5864 129.882 99.8933 129.292C109.632 209.737 163.687 246.024 255.83 231.127C306.022 223.012 369.699 173.773 425.135 110.46C430.677 104.691 438.955 94.6801 444.612 88.8595L457.347 77.6867C519.259 17.647 574.962 -69.0495 690.328 -77.2429C804.197 -80.2221 899.856 12.1629 902.965 114.185H859.633C853.122 20.9613 779.235 -45.8876 690.328 -32.5516C624.723 -22.7107 539.003 42.3114 488.062 93.7061L474.578 107.858C469.09 113.502 464.972 116.955 459.595 122.551C391.424 187.558 360.709 242.677 255.83 260.553Z" fill="url(#paint42_linear_131_145)"/>
<path d="M255.83 270.981C136.718 278.43 61.5152 230.134 52.8145 129.827C69.6364 130.061 78.4552 129.981 95.5151 129.081C105.254 209.525 163.686 252.36 255.83 237.463C306.022 229.348 367.451 181.599 422.887 118.286C428.429 112.517 435.209 104.363 440.866 98.5423L455.849 82.9004C517.76 22.8607 584.7 -64.5805 690.328 -69.7943C804.391 -73.1512 896.227 12.1627 899.336 114.185C884.01 114.347 875.183 113.848 859.632 113.439C853.122 20.216 779.234 -53.7036 690.328 -40.3675C624.722 -30.5267 539.003 52.7393 488.062 104.134L474.577 118.286C469.09 123.93 464.972 127.383 459.594 132.979C391.423 197.985 360.709 253.105 255.83 270.981Z" fill="url(#paint43_linear_131_145)"/>
<path d="M229.611 320.13C110.498 327.579 38.2926 230.134 29.5918 129.826H72.2925C82.0312 210.27 146.457 301.143 238.6 286.246C288.792 278.131 352.469 244.534 407.905 181.221C413.447 175.452 418.729 169.91 424.386 164.09L436.372 152.432C498.283 92.3925 550.989 14.374 669.907 -10.951C781.17 -26.0543 878.248 12.1626 881.358 114.184L828.918 114.185C814.454 20.8307 751.059 -3.11811 669.907 9.90508C604.927 20.333 515.78 108.971 464.839 160.365L448.358 178.242C442.871 183.886 440.251 185.308 434.874 190.904C366.702 255.911 334.49 302.254 229.611 320.13Z" fill="url(#paint44_linear_131_145)"/>
<path d="M233.356 313.805C114.243 321.253 42.7867 230.134 34.0859 129.826H77.4187C87.1574 210.27 141.212 293.694 233.356 278.797C283.548 270.682 354.716 232.249 410.151 168.937C415.694 163.167 420.976 157.625 426.632 151.805L438.619 140.148C500.53 80.1079 553.236 2.08942 672.154 -23.2356C783.416 -38.3389 885.739 12.1624 888.848 114.184H837.158C828.206 21.7891 758.567 -10.0536 672.154 2.45628C606.498 11.9612 518.027 100.41 467.086 151.805L455.1 164.834C449.612 170.478 442.498 177.114 437.12 182.711C368.949 247.717 338.235 295.928 233.356 313.805Z" fill="url(#paint45_linear_131_145)"/>
<path d="M237.849 302.632C118.737 310.081 46.5309 230.134 37.8301 129.826H76.0359C85.7747 210.271 145.705 286.624 237.849 271.727C288.041 263.612 354.714 215.863 410.15 152.55C415.692 146.781 420.974 141.239 426.631 135.419L438.617 123.761C500.528 63.7217 553.235 -14.2969 672.152 -39.6218C783.415 -54.7252 882.741 12.1627 885.85 114.185H843.15C836.639 20.9611 761.253 -19.4395 672.347 -6.10347C606.741 3.73743 522.52 88.1148 471.579 139.51L458.095 153.662C452.607 159.306 448.489 162.962 443.112 168.559C374.941 233.565 342.728 284.756 237.849 302.632Z" fill="url(#paint46_linear_131_145)"/>
<path d="M255.829 279.92C136.717 287.368 64.5113 230.134 55.8105 129.826C70.3307 129.762 78.4877 129.742 92.5181 129.082C102.257 209.526 163.686 261.298 255.829 246.401C306.021 238.287 366.701 188.67 422.137 125.357C427.68 119.588 435.209 112.557 440.866 106.736L452.852 94.8185C514.763 34.7788 594.438 -58.6213 690.327 -63.0904C798.539 -72.6828 891.139 15.9372 896.222 114.396L858.134 114.184C851.623 20.9611 779.234 -44.7649 690.327 -31.4289C624.722 -21.588 539.002 61.6779 488.061 113.073L474.577 127.225C469.09 132.869 464.971 136.321 459.594 141.918C391.423 206.924 360.708 262.043 255.829 279.92Z" fill="url(#paint47_linear_131_145)"/>
<path d="M245.341 293.327C126.229 300.775 54.023 229.767 45.3223 129.459H82.0299C91.7686 209.903 153.198 274.705 245.341 259.808C295.533 251.694 362.206 203.944 417.642 140.632C423.184 134.863 428.466 129.321 434.123 123.5L446.109 111.843C508.02 51.8032 560.727 -26.2153 679.645 -51.5403C790.907 -66.6436 882.624 12.3733 885.734 114.395L850.788 114.184C844.278 20.9607 768.746 -31.3579 679.839 -18.0219C614.233 -8.181 528.514 75.0849 477.573 126.48L464.088 140.632C458.601 146.276 454.483 149.728 449.106 155.325C380.935 220.331 350.22 275.45 245.341 293.327Z" fill="url(#paint48_linear_131_145)"/>
</g>
<defs>
<filter id="filter0_d_131_145" x="0.3" y="0.3" width="485.9" height="587.4" filterUnits="userSpaceOnUse" color-interpolation-filters="sRGB">
<feFlood flood-opacity="0" result="BackgroundImageFix"/>
<feColorMatrix in="SourceAlpha" type="matrix" values="0 0 0 0 0 0 0 0 0 0 0 0 0 0 0 0 0 0 127 0" result="hardAlpha"/>
<feOffset dx="1"/>
<feGaussianBlur stdDeviation="7.85"/>
<feComposite in2="hardAlpha" operator="out"/>
<feColorMatrix type="matrix" values="0 0 0 0 0 0 0 0 0 0 0 0 0 0 0 0 0 0 0.25 0"/>
<feBlend mode="normal" in2="BackgroundImageFix" result="effect1_dropShadow_131_145"/>
<feBlend mode="normal" in="SourceGraphic" in2="effect1_dropShadow_131_145" result="shape"/>
</filter>
<filter id="filter1_dd_131_145" x="-14.8727" y="-131.963" width="957.798" height="508.792" filterUnits="userSpaceOnUse" color-interpolation-filters="sRGB">
<feFlood flood-opacity="0" result="BackgroundImageFix"/>
<feColorMatrix in="SourceAlpha" type="matrix" values="0 0 0 0 0 0 0 0 0 0 0 0 0 0 0 0 0 0 127 0" result="hardAlpha"/>
<feOffset dx="4" dy="16"/>
<feGaussianBlur stdDeviation="20.65"/>
<feComposite in2="hardAlpha" operator="out"/>
<feColorMatrix type="matrix" values="0 0 0 0 0 0 0 0 0 0 0 0 0 0 0 0 0 0 0.2 0"/>
<feBlend mode="normal" in2="BackgroundImageFix" result="effect1_dropShadow_131_145"/>
<feColorMatrix in="SourceAlpha" type="matrix" values="0 0 0 0 0 0 0 0 0 0 0 0 0 0 0 0 0 0 127 0" result="hardAlpha"/>
<feOffset dx="-2" dy="-22"/>
<feGaussianBlur stdDeviation="20.45"/>
<feComposite in2="hardAlpha" operator="out"/>
<feColorMatrix type="matrix" values="0 0 0 0 0 0 0 0 0 0 0 0 0 0 0 0 0 0 0.2 0"/>
<feBlend mode="normal" in2="effect1_dropShadow_131_145" result="effect2_dropShadow_131_145"/>
<feBlend mode="normal" in="SourceGraphic" in2="effect2_dropShadow_131_145" result="shape"/>
</filter>
<linearGradient id="paint0_linear_131_145" x1="27.2635" y1="141.471" x2="897.626" y2="138.605" gradientUnits="userSpaceOnUse">
<stop offset="0.255" stop-color="#A087F1"/>
<stop offset="0.4899" stop-color="#EAE7F9"/>
<stop offset="0.49" stop-color="white"/>
<stop offset="0.4901" stop-color="#F4E9F3"/>
<stop offset="0.685" stop-color="#E056A3"/>
</linearGradient>
<linearGradient id="paint1_linear_131_145" x1="898.763" y1="70.5062" x2="45.1462" y2="71.2532" gradientUnits="userSpaceOnUse">
<stop stop-color="#F684EB"/>
<stop offset="0.115" stop-color="#F379E7"/>
<stop offset="0.245" stop-color="#751396"/>
<stop offset="0.925" stop-color="#7E23A3"/>
<stop offset="1" stop-color="#D9CFFF"/>
</linearGradient>
<linearGradient id="paint2_linear_131_145" x1="898.761" y1="77.9201" x2="45.1442" y2="78.6672" gradientUnits="userSpaceOnUse">
<stop offset="0.035" stop-color="#FF8EE7"/>
<stop offset="0.125" stop-color="#EA66D8"/>
<stop offset="0.215" stop-color="#B51C94"/>
<stop offset="0.345" stop-color="#762DA0"/>
<stop offset="0.7" stop-color="#7F34B1"/>
<stop offset="0.95" stop-color="#6927A2"/>
<stop offset="1" stop-color="#CEC2FF"/>
</linearGradient>
<linearGradient id="paint3_linear_131_145" x1="898.765" y1="85.3336" x2="45.1479" y2="86.0807" gradientUnits="userSpaceOnUse">
<stop offset="0.105" stop-color="#F07EDE"/>
<stop offset="0.15" stop-color="#C444B7"/>
<stop offset="0.225" stop-color="#7F0686"/>
<stop offset="0.455" stop-color="#8136C2"/>
<stop offset="0.925" stop-color="#780EA3"/>
<stop offset="1" stop-color="#DEE5FF"/>
</linearGradient>
<linearGradient id="paint4_linear_131_145" x1="898.762" y1="92.7474" x2="45.1456" y2="93.4945" gradientUnits="userSpaceOnUse">
<stop offset="0.08" stop-color="#FA81E6"/>
<stop offset="0.15" stop-color="#D134A2"/>
<stop offset="0.175" stop-color="#BB13A5"/>
<stop offset="0.3" stop-color="#9846C8"/>
<stop offset="0.855" stop-color="#6B36B1"/>
<stop offset="1" stop-color="#CFD6FF"/>
</linearGradient>
<linearGradient id="paint5_linear_131_145" x1="898.763" y1="174.301" x2="45.1462" y2="175.048" gradientUnits="userSpaceOnUse">
<stop offset="0.015" stop-color="#790C62"/>
<stop offset="0.135" stop-color="#EA66D8"/>
<stop offset="0.185" stop-color="#F4ACEF"/>
<stop offset="0.275" stop-color="#FFE3FB"/>
<stop offset="0.345" stop-color="#F4AFEB"/>
<stop offset="0.44" stop-color="#B4A3FF"/>
<stop offset="0.615" stop-color="#B8A8FF"/>
<stop offset="0.67" stop-color="#FAF4FF"/>
<stop offset="0.775" stop-color="#9163B9"/>
<stop offset="0.9" stop-color="#311E9B"/>
</linearGradient>
<linearGradient id="paint6_linear_131_145" x1="898.761" y1="166.887" x2="45.1445" y2="167.634" gradientUnits="userSpaceOnUse">
<stop offset="0.025" stop-color="#840A5B"/>
<stop offset="0.1" stop-color="#EA66E1"/>
<stop offset="0.225" stop-color="#F9E0FB"/>
<stop offset="0.31" stop-color="#FCC0FF"/>
<stop offset="0.43" stop-color="#C09BFF"/>
<stop offset="0.615" stop-color="#C6A5FF"/>
<stop offset="0.675" stop-color="#F4F2FD"/>
<stop offset="0.735" stop-color="#BD94F7"/>
<stop offset="0.9" stop-color="#3C1F96"/>
</linearGradient>
<linearGradient id="paint7_linear_131_145" x1="898.763" y1="159.473" x2="45.1468" y2="160.22" gradientUnits="userSpaceOnUse">
<stop offset="0.06" stop-color="#7B0D54"/>
<stop offset="0.105" stop-color="#EA66E8"/>
<stop offset="0.18" stop-color="#F7C7F4"/>
<stop offset="0.245" stop-color="#FCE9FB"/>
<stop offset="0.325" stop-color="#F2A0E7"/>
<stop offset="0.41" stop-color="#B996FE"/>
<stop offset="0.575" stop-color="#B596FF"/>
<stop offset="0.685" stop-color="#E8E0FF"/>
<stop offset="0.77" stop-color="#B985EF"/>
<stop offset="0.915" stop-color="#3E109A"/>
</linearGradient>
<linearGradient id="paint8_linear_131_145" x1="899.423" y1="151.099" x2="44.4726" y2="151.853" gradientUnits="userSpaceOnUse">
<stop offset="0.02" stop-color="#8B0F66"/>
<stop offset="0.16" stop-color="#EB74DF"/>
<stop offset="0.26" stop-color="#FDEAFF"/>
<stop offset="0.335" stop-color="#F6BAF2"/>
<stop offset="0.44" stop-color="#A586F5"/>
<stop offset="0.59" stop-color="#AB8DF6"/>
<stop offset="0.665" stop-color="#F9F7FD"/>
<stop offset="0.77" stop-color="#A780EE"/>
<stop offset="0.87" stop-color="#5217B8"/>
</linearGradient>
<linearGradient id="paint9_linear_131_145" x1="898.765" y1="144.645" x2="45.1482" y2="145.392" gradientUnits="userSpaceOnUse">
<stop offset="0.04" stop-color="#9D1387"/>
<stop offset="0.12" stop-color="#E866EA"/>
<stop offset="0.195" stop-color="#EFB5F5"/>
<stop offset="0.255" stop-color="#FFEBF6"/>
<stop offset="0.3" stop-color="#F7C7F7"/>
<stop offset="0.38" stop-color="#C4A2FF"/>
<stop offset="0.59" stop-color="#C5A4FF"/>
<stop offset="0.66" stop-color="#F8F0FF"/>
<stop offset="0.75" stop-color="#A078F1"/>
<stop offset="0.875" stop-color="#4F0DA0"/>
</linearGradient>
<linearGradient id="paint10_linear_131_145" x1="898.763" y1="131.3" x2="45.1469" y2="132.047" gradientUnits="userSpaceOnUse">
<stop offset="0.03" stop-color="#B61B9E"/>
<stop offset="0.165" stop-color="#EA66D8"/>
<stop offset="0.24" stop-color="#FDECFF"/>
<stop offset="0.305" stop-color="#EAB6F5"/>
<stop offset="0.36" stop-color="#BA9FFF"/>
<stop offset="0.44" stop-color="#C0A7FF"/>
<stop offset="0.555" stop-color="#C2AAFF"/>
<stop offset="0.6" stop-color="#CEBCFF"/>
<stop offset="0.64" stop-color="#F7F3FF"/>
<stop offset="0.695" stop-color="#CEA0FF"/>
<stop offset="0.845" stop-color="#5E23A6"/>
</linearGradient>
<linearGradient id="paint11_linear_131_145" x1="898.763" y1="100.161" x2="45.1462" y2="100.908" gradientUnits="userSpaceOnUse">
<stop offset="0.065" stop-color="#F06EDC"/>
<stop offset="0.125" stop-color="#CF44B7"/>
<stop offset="0.235" stop-color="#B90CA2"/>
<stop offset="0.365" stop-color="#9B5ADA"/>
<stop offset="0.87" stop-color="#8447CB"/>
<stop offset="1" stop-color="#D7DCFA"/>
</linearGradient>
<linearGradient id="paint12_linear_131_145" x1="898.763" y1="110.917" x2="45.1464" y2="111.664" gradientUnits="userSpaceOnUse">
<stop stop-color="#EA69D9"/>
<stop offset="0.145" stop-color="#E578CD"/>
<stop offset="0.33" stop-color="#D6C4F5"/>
<stop offset="0.525" stop-color="#EBE6FE"/>
<stop offset="0.96" stop-color="#CEC4FD"/>
</linearGradient>
<linearGradient id="paint13_linear_131_145" x1="892.808" y1="150.953" x2="15.4137" y2="216.691" gradientUnits="userSpaceOnUse">
<stop offset="0.115" stop-color="#F37AE7"/>
<stop offset="0.16" stop-color="#F9D4F1"/>
<stop offset="0.24" stop-color="#F7B3F2"/>
<stop offset="0.37" stop-color="#F939DF"/>
<stop offset="0.59" stop-color="#F338DC"/>
<stop offset="0.7349" stop-color="#6F2596"/>
<stop offset="0.735" stop-color="#6F2596"/>
<stop offset="0.77" stop-color="#9E51C2"/>
<stop offset="0.805" stop-color="#CBCFF4"/>
<stop offset="0.865" stop-color="#EBEFFF"/>
<stop offset="0.935" stop-color="#DACFFF"/>
</linearGradient>
<linearGradient id="paint14_linear_131_145" x1="892.808" y1="143.539" x2="15.4134" y2="209.277" gradientUnits="userSpaceOnUse">
<stop offset="0.08" stop-color="#F173DD"/>
<stop offset="0.15" stop-color="#F9D4F1"/>
<stop offset="0.2" stop-color="#F7B3F0"/>
<stop offset="0.355" stop-color="#EE55C9"/>
<stop offset="0.53" stop-color="#ED48C4"/>
<stop offset="0.74" stop-color="#8429B3"/>
<stop offset="0.775" stop-color="#9E51C2"/>
<stop offset="0.82" stop-color="#CBCFF4"/>
<stop offset="0.885" stop-color="#EBEFFF"/>
<stop offset="0.98" stop-color="#CEC2FF"/>
</linearGradient>
<linearGradient id="paint15_linear_131_145" x1="910.67" y1="27.8816" x2="33.2753" y2="93.6197" gradientUnits="userSpaceOnUse">
<stop offset="0.08" stop-color="#790C61"/>
<stop offset="0.175" stop-color="#660944"/>
<stop offset="0.56" stop-color="#D743C8"/>
<stop offset="0.715" stop-color="#9E51C2"/>
<stop offset="0.79" stop-color="#2D0B57"/>
<stop offset="0.875" stop-color="#311E9B"/>
</linearGradient>
<linearGradient id="paint16_linear_131_145" x1="910.671" y1="38.2604" x2="33.2772" y2="103.998" gradientUnits="userSpaceOnUse">
<stop offset="0.08" stop-color="#840A5B"/>
<stop offset="0.19" stop-color="#730E45"/>
<stop offset="0.36" stop-color="#D345C5"/>
<stop offset="0.63" stop-color="#CF46C5"/>
<stop offset="0.72" stop-color="#9E51C2"/>
<stop offset="0.81" stop-color="#250C4E"/>
<stop offset="0.91" stop-color="#3C1E96"/>
</linearGradient>
<linearGradient id="paint17_linear_131_145" x1="910.67" y1="48.6409" x2="33.275" y2="114.379" gradientUnits="userSpaceOnUse">
<stop offset="0.04" stop-color="#7B0D54"/>
<stop offset="0.19" stop-color="#7A1556"/>
<stop offset="0.455" stop-color="#E339E1"/>
<stop offset="0.565" stop-color="#D73DDB"/>
<stop offset="0.715" stop-color="#9E51C2"/>
<stop offset="0.81" stop-color="#320C69"/>
<stop offset="0.9" stop-color="#3E109A"/>
</linearGradient>
<linearGradient id="paint18_linear_131_145" x1="910.669" y1="59.0205" x2="33.2749" y2="124.759" gradientUnits="userSpaceOnUse">
<stop offset="0.08" stop-color="#8B0F66"/>
<stop offset="0.2" stop-color="#950854"/>
<stop offset="0.425" stop-color="#E44CDA"/>
<stop offset="0.605" stop-color="#D74DD6"/>
<stop offset="0.71" stop-color="#9E51C2"/>
<stop offset="0.8" stop-color="#3A0E74"/>
<stop offset="0.89" stop-color="#5217B8"/>
</linearGradient>
<linearGradient id="paint19_linear_131_145" x1="910.67" y1="69.3998" x2="33.2754" y2="135.138" gradientUnits="userSpaceOnUse">
<stop offset="0.08" stop-color="#9D1387"/>
<stop offset="0.19" stop-color="#AF0763"/>
<stop offset="0.4349" stop-color="#DE51CC"/>
<stop offset="0.57" stop-color="#E155D3"/>
<stop offset="0.665" stop-color="#9E51C2"/>
<stop offset="0.735" stop-color="#622C91"/>
<stop offset="0.83" stop-color="#441977"/>
<stop offset="0.915" stop-color="#4F0DA0"/>
</linearGradient>
<linearGradient id="paint20_linear_131_145" x1="892.809" y1="136.125" x2="15.4146" y2="201.863" gradientUnits="userSpaceOnUse">
<stop offset="0.085" stop-color="#F07EDE"/>
<stop offset="0.155" stop-color="#F9D4F1"/>
<stop offset="0.2" stop-color="#F7B3F0"/>
<stop offset="0.37" stop-color="#EF56DB"/>
<stop offset="0.57" stop-color="#ED3BD5"/>
<stop offset="0.635" stop-color="#9926AA"/>
<stop offset="0.75" stop-color="#9E51C2"/>
<stop offset="0.835" stop-color="#CBCFF4"/>
<stop offset="0.875" stop-color="#EBEFFF"/>
<stop offset="0.975" stop-color="#DEE5FF"/>
</linearGradient>
<linearGradient id="paint21_linear_131_145" x1="892.809" y1="119.814" x2="15.4141" y2="185.552" gradientUnits="userSpaceOnUse">
<stop offset="0.07" stop-color="#FA81E6"/>
<stop offset="0.1" stop-color="#F7B3F0"/>
<stop offset="0.175" stop-color="#F9D4F2"/>
<stop offset="0.21" stop-color="#F7B3E8"/>
<stop offset="0.3" stop-color="#F939C9"/>
<stop offset="0.6" stop-color="#F94BCE"/>
<stop offset="0.7" stop-color="#9040B6"/>
<stop offset="0.765" stop-color="#A96FCE"/>
<stop offset="0.81" stop-color="#CBCFF4"/>
<stop offset="0.855" stop-color="#EBEFFF"/>
<stop offset="0.95" stop-color="#CFD6FF"/>
</linearGradient>
<linearGradient id="paint22_linear_131_145" x1="892.808" y1="103.504" x2="15.4138" y2="169.242" gradientUnits="userSpaceOnUse">
<stop offset="0.08" stop-color="#F06EDC"/>
<stop offset="0.11" stop-color="#F9D4F2"/>
<stop offset="0.18" stop-color="#F7B3EB"/>
<stop offset="0.315" stop-color="#EC65CF"/>
<stop offset="0.565" stop-color="#E950C7"/>
<stop offset="0.695" stop-color="#9E51C2"/>
<stop offset="0.755" stop-color="#AD7BD3"/>
<stop offset="0.815" stop-color="#CBCFF4"/>
<stop offset="0.875" stop-color="#EBEFFF"/>
<stop offset="0.94" stop-color="#D7DCFA"/>
</linearGradient>
<linearGradient id="paint23_linear_131_145" x1="910.67" y1="78.2967" x2="33.2752" y2="144.035" gradientUnits="userSpaceOnUse">
<stop offset="0.08" stop-color="#B61B9D"/>
<stop offset="0.245" stop-color="#CD438B"/>
<stop offset="0.375" stop-color="#DC49DE"/>
<stop offset="0.59" stop-color="#CC4BD7"/>
<stop offset="0.725" stop-color="#9E51C2"/>
<stop offset="0.81" stop-color="#6129A3"/>
<stop offset="0.935" stop-color="#5D22A6"/>
</linearGradient>
<linearGradient id="paint24_linear_131_145" x1="900.251" y1="91.6415" x2="22.8571" y2="157.38" gradientUnits="userSpaceOnUse">
<stop offset="0.02" stop-color="#EA66D8"/>
<stop offset="0.45" stop-color="#FD9DEC"/>
<stop offset="0.625" stop-color="#F8D6FF"/>
<stop offset="0.945" stop-color="#CEC4FD"/>
</linearGradient>
<linearGradient id="paint25_linear_131_145" x1="904.58" y1="69.4937" x2="45.3231" y2="70.2472" gradientUnits="userSpaceOnUse">
<stop stop-color="#F684EB"/>
<stop offset="0.115" stop-color="#F379E7"/>
<stop offset="0.245" stop-color="#751396"/>
<stop offset="0.925" stop-color="#7E23A3"/>
<stop offset="1" stop-color="#D9CFFF"/>
</linearGradient>
<linearGradient id="paint26_linear_131_145" x1="904.578" y1="76.9414" x2="45.3209" y2="77.6949" gradientUnits="userSpaceOnUse">
<stop offset="0.035" stop-color="#FF8EE7"/>
<stop offset="0.125" stop-color="#EA66D8"/>
<stop offset="0.215" stop-color="#B51C94"/>
<stop offset="0.345" stop-color="#762DA0"/>
<stop offset="0.7" stop-color="#7F34B1"/>
<stop offset="0.95" stop-color="#6927A2"/>
<stop offset="1" stop-color="#CEC2FF"/>
</linearGradient>
<linearGradient id="paint27_linear_131_145" x1="904.582" y1="84.3899" x2="45.3243" y2="85.1434" gradientUnits="userSpaceOnUse">
<stop offset="0.105" stop-color="#F07EDE"/>
<stop offset="0.15" stop-color="#C444B7"/>
<stop offset="0.225" stop-color="#7F0686"/>
<stop offset="0.455" stop-color="#8136C2"/>
<stop offset="0.925" stop-color="#780EA3"/>
<stop offset="1" stop-color="#DEE5FF"/>
</linearGradient>
<linearGradient id="paint28_linear_131_145" x1="904.579" y1="91.8385" x2="45.3218" y2="92.5919" gradientUnits="userSpaceOnUse">
<stop offset="0.08" stop-color="#FA81E6"/>
<stop offset="0.15" stop-color="#D134A2"/>
<stop offset="0.175" stop-color="#BB13A5"/>
<stop offset="0.3" stop-color="#9846C8"/>
<stop offset="0.855" stop-color="#6B36B1"/>
<stop offset="1" stop-color="#CFD6FF"/>
</linearGradient>
<linearGradient id="paint29_linear_131_145" x1="904.58" y1="173.774" x2="45.3227" y2="174.527" gradientUnits="userSpaceOnUse">
<stop offset="0.015" stop-color="#790C62"/>
<stop offset="0.135" stop-color="#EA66D8"/>
<stop offset="0.185" stop-color="#F4ACEF"/>
<stop offset="0.275" stop-color="#FFE3FB"/>
<stop offset="0.345" stop-color="#F4AFEB"/>
<stop offset="0.44" stop-color="#B4A3FF"/>
<stop offset="0.615" stop-color="#B8A8FF"/>
<stop offset="0.67" stop-color="#FAF4FF"/>
<stop offset="0.775" stop-color="#9163B9"/>
<stop offset="0.9" stop-color="#311E9B"/>
</linearGradient>
<linearGradient id="paint30_linear_131_145" x1="904.578" y1="166.324" x2="45.321" y2="167.078" gradientUnits="userSpaceOnUse">
<stop offset="0.025" stop-color="#840A5B"/>
<stop offset="0.1" stop-color="#EA66E1"/>
<stop offset="0.225" stop-color="#F9E0FB"/>
<stop offset="0.31" stop-color="#FCC0FF"/>
<stop offset="0.43" stop-color="#C09BFF"/>
<stop offset="0.615" stop-color="#C6A5FF"/>
<stop offset="0.675" stop-color="#F4F2FD"/>
<stop offset="0.735" stop-color="#BD94F7"/>
<stop offset="0.9" stop-color="#3C1F96"/>
</linearGradient>
<linearGradient id="paint31_linear_131_145" x1="904.581" y1="158.876" x2="45.3235" y2="159.629" gradientUnits="userSpaceOnUse">
<stop offset="0.06" stop-color="#7B0D54"/>
<stop offset="0.105" stop-color="#EA66E8"/>
<stop offset="0.18" stop-color="#F7C7F4"/>
<stop offset="0.245" stop-color="#FCE9FB"/>
<stop offset="0.325" stop-color="#F2A0E7"/>
<stop offset="0.41" stop-color="#B996FE"/>
<stop offset="0.575" stop-color="#B596FF"/>
<stop offset="0.685" stop-color="#E8E0FF"/>
<stop offset="0.77" stop-color="#B985EF"/>
<stop offset="0.915" stop-color="#3E109A"/>
</linearGradient>
<linearGradient id="paint32_linear_131_145" x1="905.246" y1="150.462" x2="44.646" y2="151.222" gradientUnits="userSpaceOnUse">
<stop offset="0.02" stop-color="#8B0F66"/>
<stop offset="0.16" stop-color="#EB74DF"/>
<stop offset="0.26" stop-color="#FDEAFF"/>
<stop offset="0.335" stop-color="#F6BAF2"/>
<stop offset="0.44" stop-color="#A586F5"/>
<stop offset="0.59" stop-color="#AB8DF6"/>
<stop offset="0.665" stop-color="#F9F7FD"/>
<stop offset="0.77" stop-color="#A780EE"/>
<stop offset="0.87" stop-color="#5217B8"/>
</linearGradient>
<linearGradient id="paint33_linear_131_145" x1="904.582" y1="143.978" x2="45.3247" y2="144.732" gradientUnits="userSpaceOnUse">
<stop offset="0.04" stop-color="#9D1387"/>
<stop offset="0.12" stop-color="#E866EA"/>
<stop offset="0.195" stop-color="#EFB5F5"/>
<stop offset="0.255" stop-color="#FFEBF6"/>
<stop offset="0.3" stop-color="#F7C7F7"/>
<stop offset="0.38" stop-color="#C4A2FF"/>
<stop offset="0.59" stop-color="#C5A4FF"/>
<stop offset="0.66" stop-color="#F8F0FF"/>
<stop offset="0.75" stop-color="#A078F1"/>
<stop offset="0.875" stop-color="#4F0DA0"/>
</linearGradient>
<linearGradient id="paint34_linear_131_145" x1="904.58" y1="130.571" x2="45.3227" y2="131.325" gradientUnits="userSpaceOnUse">
<stop offset="0.03" stop-color="#B61B9E"/>
<stop offset="0.165" stop-color="#EA66D8"/>
<stop offset="0.24" stop-color="#FDECFF"/>
<stop offset="0.305" stop-color="#EAB6F5"/>
<stop offset="0.36" stop-color="#BA9FFF"/>
<stop offset="0.44" stop-color="#C0A7FF"/>
<stop offset="0.555" stop-color="#C2AAFF"/>
<stop offset="0.6" stop-color="#CEBCFF"/>
<stop offset="0.64" stop-color="#F7F3FF"/>
<stop offset="0.695" stop-color="#CEA0FF"/>
<stop offset="0.845" stop-color="#5E23A6"/>
</linearGradient>
<linearGradient id="paint35_linear_131_145" x1="904.58" y1="99.287" x2="45.3233" y2="100.04" gradientUnits="userSpaceOnUse">
<stop offset="0.065" stop-color="#F06EDC"/>
<stop offset="0.125" stop-color="#CF44B7"/>
<stop offset="0.235" stop-color="#B90CA2"/>
<stop offset="0.365" stop-color="#9B5ADA"/>
<stop offset="0.87" stop-color="#8447CB"/>
<stop offset="1" stop-color="#D7DCFA"/>
</linearGradient>
<linearGradient id="paint36_linear_131_145" x1="904.579" y1="110.093" x2="45.3222" y2="110.847" gradientUnits="userSpaceOnUse">
<stop stop-color="#EA69D9"/>
<stop offset="0.145" stop-color="#E578CD"/>
<stop offset="0.33" stop-color="#D6C4F5"/>
<stop offset="0.525" stop-color="#EBE6FE"/>
<stop offset="0.96" stop-color="#CEC4FD"/>
</linearGradient>
<linearGradient id="paint37_linear_131_145" x1="898.588" y1="150.316" x2="15.4143" y2="216.615" gradientUnits="userSpaceOnUse">
<stop offset="0.115" stop-color="#F37AE7"/>
<stop offset="0.16" stop-color="#F9D4F1"/>
<stop offset="0.24" stop-color="#F7B3F2"/>
<stop offset="0.37" stop-color="#F939DF"/>
<stop offset="0.59" stop-color="#F338DC"/>
<stop offset="0.7349" stop-color="#6F2596"/>
<stop offset="0.735" stop-color="#6F2596"/>
<stop offset="0.77" stop-color="#9E51C2"/>
<stop offset="0.805" stop-color="#CBCFF4"/>
<stop offset="0.865" stop-color="#EBEFFF"/>
<stop offset="0.935" stop-color="#DACFFF"/>
</linearGradient>
<linearGradient id="paint38_linear_131_145" x1="898.587" y1="142.867" x2="15.4138" y2="209.166" gradientUnits="userSpaceOnUse">
<stop offset="0.08" stop-color="#F173DD"/>
<stop offset="0.15" stop-color="#F9D4F1"/>
<stop offset="0.2" stop-color="#F7B3F0"/>
<stop offset="0.355" stop-color="#EE55C9"/>
<stop offset="0.53" stop-color="#ED48C4"/>
<stop offset="0.74" stop-color="#8429B3"/>
<stop offset="0.775" stop-color="#9E51C2"/>
<stop offset="0.82" stop-color="#CBCFF4"/>
<stop offset="0.885" stop-color="#EBEFFF"/>
<stop offset="0.98" stop-color="#CEC2FF"/>
</linearGradient>
<linearGradient id="paint39_linear_131_145" x1="916.563" y1="26.6693" x2="33.3902" y2="92.9678" gradientUnits="userSpaceOnUse">
<stop offset="0.08" stop-color="#790C61"/>
<stop offset="0.175" stop-color="#660944"/>
<stop offset="0.56" stop-color="#D743C8"/>
<stop offset="0.715" stop-color="#9E51C2"/>
<stop offset="0.79" stop-color="#2D0B57"/>
<stop offset="0.875" stop-color="#311E9B"/>
</linearGradient>
<linearGradient id="paint40_linear_131_145" x1="916.568" y1="37.097" x2="33.3951" y2="103.396" gradientUnits="userSpaceOnUse">
<stop offset="0.08" stop-color="#840A5B"/>
<stop offset="0.19" stop-color="#730E45"/>
<stop offset="0.36" stop-color="#D345C5"/>
<stop offset="0.63" stop-color="#CF46C5"/>
<stop offset="0.72" stop-color="#9E51C2"/>
<stop offset="0.81" stop-color="#250C4E"/>
<stop offset="0.91" stop-color="#3C1E96"/>
</linearGradient>
<linearGradient id="paint41_linear_131_145" x1="916.566" y1="47.5257" x2="33.3929" y2="113.824" gradientUnits="userSpaceOnUse">
<stop offset="0.04" stop-color="#7B0D54"/>
<stop offset="0.19" stop-color="#7A1556"/>
<stop offset="0.455" stop-color="#E339E1"/>
<stop offset="0.565" stop-color="#D73DDB"/>
<stop offset="0.715" stop-color="#9E51C2"/>
<stop offset="0.81" stop-color="#320C69"/>
<stop offset="0.9" stop-color="#3E109A"/>
</linearGradient>
<linearGradient id="paint42_linear_131_145" x1="916.567" y1="57.9539" x2="33.3936" y2="124.252" gradientUnits="userSpaceOnUse">
<stop offset="0.08" stop-color="#8B0F66"/>
<stop offset="0.2" stop-color="#950854"/>
<stop offset="0.425" stop-color="#E44CDA"/>
<stop offset="0.605" stop-color="#D74DD6"/>
<stop offset="0.71" stop-color="#9E51C2"/>
<stop offset="0.8" stop-color="#3A0E74"/>
<stop offset="0.89" stop-color="#5217B8"/>
</linearGradient>
<linearGradient id="paint43_linear_131_145" x1="916.567" y1="68.3813" x2="33.3933" y2="134.68" gradientUnits="userSpaceOnUse">
<stop offset="0.08" stop-color="#9D1387"/>
<stop offset="0.19" stop-color="#AF0763"/>
<stop offset="0.4349" stop-color="#DE51CC"/>
<stop offset="0.57" stop-color="#E155D3"/>
<stop offset="0.665" stop-color="#9E51C2"/>
<stop offset="0.735" stop-color="#622C91"/>
<stop offset="0.83" stop-color="#441977"/>
<stop offset="0.915" stop-color="#4F0DA0"/>
</linearGradient>
<linearGradient id="paint44_linear_131_145" x1="898.588" y1="135.418" x2="15.4146" y2="201.717" gradientUnits="userSpaceOnUse">
<stop offset="0.085" stop-color="#F07EDE"/>
<stop offset="0.155" stop-color="#F9D4F1"/>
<stop offset="0.2" stop-color="#F7B3F0"/>
<stop offset="0.37" stop-color="#EF56DB"/>
<stop offset="0.57" stop-color="#ED3BD5"/>
<stop offset="0.635" stop-color="#9926AA"/>
<stop offset="0.75" stop-color="#9E51C2"/>
<stop offset="0.835" stop-color="#CBCFF4"/>
<stop offset="0.875" stop-color="#EBEFFF"/>
<stop offset="0.975" stop-color="#DEE5FF"/>
</linearGradient>
<linearGradient id="paint45_linear_131_145" x1="898.587" y1="119.031" x2="15.4139" y2="185.33" gradientUnits="userSpaceOnUse">
<stop offset="0.07" stop-color="#FA81E6"/>
<stop offset="0.1" stop-color="#F7B3F0"/>
<stop offset="0.175" stop-color="#F9D4F2"/>
<stop offset="0.21" stop-color="#F7B3E8"/>
<stop offset="0.3" stop-color="#F939C9"/>
<stop offset="0.6" stop-color="#F94BCE"/>
<stop offset="0.7" stop-color="#9040B6"/>
<stop offset="0.765" stop-color="#A96FCE"/>
<stop offset="0.81" stop-color="#CBCFF4"/>
<stop offset="0.855" stop-color="#EBEFFF"/>
<stop offset="0.95" stop-color="#CFD6FF"/>
</linearGradient>
<linearGradient id="paint46_linear_131_145" x1="898.586" y1="102.645" x2="15.4125" y2="168.943" gradientUnits="userSpaceOnUse">
<stop offset="0.08" stop-color="#F06EDC"/>
<stop offset="0.11" stop-color="#F9D4F2"/>
<stop offset="0.18" stop-color="#F7B3EB"/>
<stop offset="0.315" stop-color="#EC65CF"/>
<stop offset="0.565" stop-color="#E950C7"/>
<stop offset="0.695" stop-color="#9E51C2"/>
<stop offset="0.755" stop-color="#AD7BD3"/>
<stop offset="0.815" stop-color="#CBCFF4"/>
<stop offset="0.875" stop-color="#EBEFFF"/>
<stop offset="0.94" stop-color="#D7DCFA"/>
</linearGradient>
<linearGradient id="paint47_linear_131_145" x1="916.566" y1="77.3198" x2="33.393" y2="143.618" gradientUnits="userSpaceOnUse">
<stop offset="0.08" stop-color="#B61B9D"/>
<stop offset="0.245" stop-color="#CD438B"/>
<stop offset="0.375" stop-color="#DC49DE"/>
<stop offset="0.59" stop-color="#CC4BD7"/>
<stop offset="0.725" stop-color="#9E51C2"/>
<stop offset="0.81" stop-color="#6129A3"/>
<stop offset="0.935" stop-color="#5D22A6"/>
</linearGradient>
<linearGradient id="paint48_linear_131_145" x1="906.078" y1="90.7269" x2="22.9046" y2="157.025" gradientUnits="userSpaceOnUse">
<stop offset="0.02" stop-color="#EA66D8"/>
<stop offset="0.45" stop-color="#FD9DEC"/>
<stop offset="0.625" stop-color="#F8D6FF"/>
<stop offset="0.945" stop-color="#CEC4FD"/>
</linearGradient>
</defs>
</svg>
