<svg width="945" height="945" viewBox="0 0 945 945" fill="none" xmlns="http://www.w3.org/2000/svg">
<g clip-path="url(#clip0_8_586)">
<path d="M743.325 716.323C728.846 731.186 715.146 740.771 704.322 748.344C577.088 837.361 426.537 811.413 394.54 805.076C347.292 795.719 255.961 777.631 189.931 701.916C90.0322 587.365 105.588 406.894 183.076 287.762C197.25 265.971 272.12 145.025 424.293 125.629C516.386 113.891 623.737 137.565 701.478 201.073C864.663 334.383 853.046 603.691 743.325 716.323Z" fill="#FEE9FC"/>
<path d="M247.82 120.376C225.035 183.042 104.704 550.298 371.37 657.311C371.37 657.311 502.412 423.68 256.056 117.167C253.901 114.485 249.309 116.282 247.82 120.376Z" fill="#F9BDF9"/>
<path d="M261.886 177.238C261.886 177.238 261.444 184.672 261.094 197.714C260.747 210.754 260.481 229.396 260.845 251.759C261.193 274.121 262.184 300.205 264.232 328.083C266.313 355.955 269.436 385.626 274.052 415.071C276.348 429.793 278.993 444.459 281.999 458.81C285.02 473.157 288.41 487.186 292.132 500.636C295.853 514.087 299.911 526.957 304.22 538.991C308.526 551.027 313.085 562.224 317.712 572.362C322.346 582.496 327.005 591.592 331.49 599.445C332.594 601.418 333.748 603.278 334.815 605.101C335.354 606.009 335.883 606.9 336.402 607.775C336.947 608.634 337.483 609.476 338.007 610.301C339.057 611.951 340.064 613.533 341.026 615.045C342.035 616.525 342.997 617.936 343.911 619.276C345.706 621.978 347.446 624.291 348.936 626.32C349.683 627.333 350.374 628.271 351.007 629.13C351.67 629.966 352.272 630.725 352.81 631.405C354.965 634.126 356.115 635.577 356.115 635.577L356.155 635.627C356.738 636.363 356.614 637.432 355.877 638.015C355.142 638.598 354.073 638.474 353.49 637.738L353.485 637.732C353.485 637.732 352.324 636.255 350.148 633.485C349.603 632.792 348.996 632.019 348.327 631.167C347.689 630.294 346.992 629.34 346.239 628.31C344.736 626.246 342.981 623.893 341.174 621.149C340.255 619.788 339.286 618.355 338.269 616.852C337.302 615.317 336.289 613.712 335.233 612.038C334.707 611.201 334.169 610.346 333.621 609.475C333.099 608.588 332.568 607.685 332.026 606.765C330.955 604.918 329.796 603.031 328.689 601.033C324.188 593.078 319.523 583.877 314.894 573.64C310.271 563.401 305.726 552.105 301.444 539.978C297.158 527.853 293.133 514.899 289.45 501.372C285.767 487.846 282.422 473.749 279.45 459.34C276.493 444.929 273.901 430.209 271.659 415.439C267.153 385.899 264.145 356.158 262.175 328.231C260.239 300.299 259.354 274.176 259.098 251.784C258.561 206.989 260.447 177.152 260.447 177.152C260.471 176.755 260.813 176.453 261.21 176.477C261.608 176.501 261.91 176.841 261.886 177.238Z" fill="#FEE9FC"/>
<path d="M306.16 529.782C306.16 529.782 91.8733 454.287 125.147 183.373C125.702 178.856 132.83 176.359 136.905 179.25C174.835 206.164 304.71 314.011 306.16 529.782Z" fill="#FB90F8"/>
<path d="M162.639 237.801C162.639 237.801 170.336 253.855 181.884 277.936C187.642 289.983 194.314 304.061 201.407 319.172C204.906 326.748 208.523 334.577 212.198 342.533C214.023 346.517 215.861 350.532 217.708 354.563C219.525 358.607 221.351 362.667 223.175 366.727C226.809 374.855 230.442 382.982 234.019 390.983C237.564 398.998 241.052 406.886 244.429 414.519C247.731 422.185 250.925 429.596 253.952 436.623C256.979 443.65 259.76 450.33 262.37 456.477C263.682 459.547 264.902 462.506 266.043 465.328C267.194 468.146 268.285 470.819 269.311 473.332C270.335 475.844 271.294 478.195 272.181 480.369C273.046 482.552 273.841 484.558 274.558 486.369C277.405 493.623 279.031 497.768 279.031 497.768C279.159 498.094 278.999 498.461 278.672 498.589C278.354 498.714 277.994 498.562 277.859 498.25L277.855 498.241C277.855 498.241 276.105 494.151 273.039 486.994C272.279 485.203 271.438 483.219 270.522 481.06C269.584 478.91 268.569 476.584 267.486 474.099C265.312 469.132 262.859 463.528 260.183 457.415C257.484 451.312 254.607 444.68 251.479 437.702C248.349 430.725 245.05 423.367 241.636 415.755C238.223 408.143 234.697 400.277 231.113 392.284C227.497 384.306 223.824 376.2 220.15 368.095C212.796 351.888 205.44 335.68 198.545 320.486C191.696 305.268 185.304 291.065 179.826 278.891C174.315 266.731 169.722 256.598 166.507 249.505C164.891 245.962 163.622 243.178 162.757 241.28C161.88 239.388 161.412 238.378 161.412 238.378C161.254 238.039 161.402 237.636 161.741 237.478C162.078 237.322 162.478 237.467 162.639 237.801Z" fill="#FFCDFF"/>
<path d="M157.649 337.203L769.213 326.868C793.835 326.452 813.598 347.57 812.135 372.733L791.084 734.736C789.932 754.548 773.997 770.068 754.609 770.259L166.748 776.073C152.228 776.217 140.231 764.509 139.678 749.656L125.613 371.838C124.917 353.141 139.373 337.512 157.649 337.203Z" fill="#C52E8F"/>
<path d="M167.024 346.425L762.626 336.593C786.606 336.197 805.852 356.288 804.427 380.229L783.926 724.639C782.804 743.488 767.285 758.254 748.403 758.437L175.884 763.967C161.743 764.104 150.06 752.965 149.521 738.834L135.823 379.377C135.145 361.588 149.224 346.719 167.024 346.425Z" fill="#F27AE6"/>
<path d="M179.006 364.912L747.919 355.699C770.824 355.328 789.208 374.155 787.847 396.588L768.264 719.319C767.193 736.982 752.369 750.818 734.333 750.989L187.47 756.172C173.962 756.3 162.802 745.862 162.288 732.62L149.204 395.79C148.556 379.121 162.004 365.188 179.006 364.912Z" fill="#FB90F8"/>
<path opacity="0.53" d="M346.921 411.548L180.137 411.987C179.789 411.988 179.506 411.707 179.505 411.359L179.47 397.8C179.469 397.452 179.75 397.17 180.098 397.169L346.882 396.729C347.23 396.728 347.512 397.01 347.513 397.357L347.549 410.916C347.55 411.264 347.269 411.547 346.921 411.548Z" fill="#FDCBFC"/>
<path opacity="0.53" d="M452.136 411.593L394.381 411.745C394.047 411.746 393.776 411.477 393.775 411.143L393.739 397.533C393.738 397.199 394.008 396.928 394.342 396.927L452.097 396.775C452.431 396.775 452.702 397.044 452.703 397.378L452.739 410.988C452.74 411.321 452.47 411.592 452.136 411.593Z" fill="#FDCBFC"/>
<path opacity="0.53" d="M580.383 411.255L465.852 411.557C465.322 411.558 464.891 411.129 464.889 410.599L464.855 397.702C464.854 397.171 465.283 396.74 465.813 396.739L580.344 396.438C580.874 396.436 581.305 396.865 581.307 397.395L581.341 410.293C581.342 410.823 580.913 411.254 580.383 411.255Z" fill="#FDCBFC"/>
<path opacity="0.53" d="M223.41 437.915L180.283 438.029C179.752 438.03 179.321 437.601 179.32 437.071L179.286 424.174C179.285 423.644 179.714 423.213 180.244 423.211L223.371 423.098C223.901 423.096 224.332 423.525 224.334 424.055L224.367 436.953C224.369 437.483 223.94 437.914 223.41 437.915Z" fill="#FDCBFC"/>
<path opacity="0.53" d="M347.322 437.615L226.371 437.933C226.023 437.934 225.741 437.653 225.74 437.306L225.704 423.746C225.703 423.399 225.984 423.116 226.332 423.115L347.283 422.797C347.631 422.796 347.913 423.077 347.914 423.425L347.95 436.984C347.951 437.332 347.67 437.614 347.322 437.615Z" fill="#FDCBFC"/>
<path opacity="0.53" d="M452.679 437.659L394.924 437.811C394.59 437.813 394.319 437.543 394.318 437.209L394.282 423.599C394.281 423.266 394.551 422.995 394.885 422.994L452.64 422.842C452.974 422.841 453.245 423.111 453.246 423.444L453.282 437.054C453.283 437.387 453.013 437.658 452.679 437.659Z" fill="#FDCBFC"/>
<path opacity="0.53" d="M675.791 437.072L507.117 437.517C506.586 437.518 506.155 437.089 506.154 436.559L506.12 423.661C506.119 423.131 506.548 422.7 507.078 422.699L675.752 422.255C676.282 422.253 676.713 422.682 676.715 423.212L676.748 436.11C676.75 436.64 676.321 437.071 675.791 437.072Z" fill="#FDCBFC"/>
<path opacity="0.53" d="M223.445 463.946L180.318 464.059C179.787 464.06 179.356 463.632 179.355 463.102L179.321 450.204C179.32 449.674 179.749 449.243 180.279 449.242L223.406 449.128C223.936 449.127 224.367 449.555 224.369 450.085L224.403 462.983C224.404 463.513 223.975 463.944 223.445 463.946Z" fill="#FDCBFC"/>
<path opacity="0.53" d="M347.333 463.646L226.382 463.965C226.034 463.966 225.752 463.684 225.751 463.337L225.715 449.778C225.714 449.43 225.995 449.148 226.343 449.147L347.294 448.828C347.641 448.827 347.924 449.108 347.925 449.456L347.961 463.015C347.961 463.363 347.68 463.645 347.333 463.646Z" fill="#FDCBFC"/>
<path opacity="0.53" d="M452.705 463.69L394.949 463.842C394.615 463.843 394.344 463.573 394.344 463.239L394.308 449.63C394.307 449.296 394.576 449.025 394.91 449.024L452.666 448.872C452.999 448.871 453.271 449.141 453.271 449.474L453.307 463.085C453.308 463.418 453.038 463.689 452.705 463.69Z" fill="#FDCBFC"/>
<path opacity="0.53" d="M748.437 462.911L528.061 463.492C527.531 463.493 527.1 463.064 527.098 462.534L527.064 449.637C527.063 449.106 527.492 448.675 528.022 448.674L748.398 448.094C748.928 448.092 749.359 448.521 749.361 449.051L749.394 461.949C749.396 462.479 748.967 462.91 748.437 462.911Z" fill="#FDCBFC"/>
<path opacity="0.53" d="M223.876 490.013L180.748 490.127C180.218 490.128 179.787 489.699 179.786 489.169L179.752 476.271C179.751 475.741 180.179 475.31 180.709 475.309L223.837 475.195C224.367 475.194 224.798 475.623 224.799 476.153L224.833 489.05C224.835 489.58 224.406 490.011 223.876 490.013Z" fill="#FDCBFC"/>
<path opacity="0.53" d="M348.044 489.713L227.093 490.031C226.745 490.032 226.462 489.751 226.461 489.403L226.426 475.844C226.425 475.496 226.706 475.214 227.054 475.213L348.005 474.895C348.352 474.894 348.635 475.175 348.636 475.522L348.672 489.082C348.672 489.429 348.391 489.712 348.044 489.713Z" fill="#FDCBFC"/>
<path opacity="0.53" d="M453.247 489.757L395.491 489.909C395.157 489.91 394.886 489.641 394.886 489.307L394.85 475.697C394.849 475.364 395.118 475.092 395.452 475.092L453.208 474.939C453.541 474.939 453.813 475.208 453.813 475.542L453.849 489.152C453.85 489.486 453.58 489.757 453.247 489.757Z" fill="#FDCBFC"/>
<path opacity="0.53" d="M749.674 488.977L529.298 489.557C528.768 489.558 528.337 489.13 528.336 488.6L528.302 475.702C528.3 475.172 528.729 474.741 529.259 474.739L749.635 474.159C750.166 474.158 750.597 474.587 750.598 475.117L750.632 488.014C750.633 488.545 750.205 488.976 749.674 488.977Z" fill="#FDCBFC"/>
<path opacity="0.53" d="M223.81 517.063L180.683 517.176C180.153 517.178 179.722 516.749 179.72 516.219L179.687 503.321C179.685 502.791 180.114 502.36 180.644 502.359L223.771 502.245C224.302 502.244 224.733 502.673 224.734 503.203L224.768 516.1C224.769 516.63 224.341 517.061 223.81 517.063Z" fill="#FDCBFC"/>
<path opacity="0.53" d="M347.873 516.762L226.922 517.081C226.574 517.082 226.292 516.8 226.291 516.453L226.255 502.894C226.254 502.546 226.535 502.264 226.883 502.263L347.834 501.944C348.182 501.943 348.464 502.225 348.465 502.572L348.501 516.131C348.501 516.479 348.22 516.761 347.873 516.762Z" fill="#FDCBFC"/>
<path opacity="0.53" d="M453.139 516.807L395.384 516.959C395.05 516.96 394.779 516.69 394.778 516.357L394.742 502.747C394.741 502.413 395.011 502.142 395.345 502.141L453.1 501.989C453.434 501.988 453.705 502.258 453.706 502.592L453.742 516.202C453.743 516.535 453.473 516.806 453.139 516.807Z" fill="#FDCBFC"/>
<path opacity="0.53" d="M749.304 516.027L528.928 516.607C528.398 516.608 527.967 516.179 527.966 515.649L527.932 502.752C527.93 502.221 528.359 501.791 528.889 501.789L749.265 501.209C749.795 501.208 750.226 501.636 750.228 502.166L750.262 515.064C750.263 515.594 749.834 516.025 749.304 516.027Z" fill="#FDCBFC"/>
<path opacity="0.53" d="M224.241 543.129L181.114 543.243C180.583 543.244 180.152 542.816 180.151 542.285L180.117 529.388C180.116 528.857 180.545 528.426 181.075 528.425L224.202 528.312C224.732 528.31 225.163 528.739 225.165 529.269L225.199 542.167C225.2 542.697 224.771 543.128 224.241 543.129Z" fill="#FDCBFC"/>
<path opacity="0.53" d="M348.583 542.83L227.632 543.148C227.284 543.149 227.002 542.868 227.001 542.52L226.965 528.961C226.964 528.614 227.245 528.331 227.593 528.33L348.544 528.012C348.892 528.011 349.174 528.292 349.175 528.64L349.211 542.199C349.212 542.546 348.93 542.829 348.583 542.83Z" fill="#FDCBFC"/>
<path opacity="0.53" d="M453.681 542.874L395.926 543.026C395.592 543.027 395.321 542.758 395.32 542.424L395.284 528.814C395.283 528.481 395.553 528.21 395.887 528.209L453.642 528.057C453.976 528.056 454.247 528.325 454.248 528.659L454.284 542.269C454.285 542.602 454.015 542.873 453.681 542.874Z" fill="#FDCBFC"/>
<path opacity="0.53" d="M600.472 542.488L466.198 542.841C465.667 542.843 465.236 542.414 465.235 541.884L465.201 528.986C465.2 528.456 465.629 528.025 466.159 528.023L600.433 527.67C600.963 527.668 601.394 528.097 601.395 528.627L601.429 541.525C601.43 542.056 601.002 542.487 600.472 542.488Z" fill="#FDCBFC"/>
<path opacity="0.53" d="M348.683 568.859L180.983 569.301C180.636 569.302 180.353 569.02 180.352 568.673L180.316 555.114C180.315 554.766 180.597 554.483 180.944 554.482L348.644 554.041C348.992 554.04 349.275 554.321 349.276 554.669L349.311 568.228C349.312 568.576 349.031 568.858 348.683 568.859Z" fill="#FDCBFC"/>
<path opacity="0.53" d="M453.708 568.905L395.952 569.057C395.618 569.057 395.347 568.788 395.346 568.454L395.311 554.844C395.31 554.511 395.579 554.24 395.913 554.239L453.669 554.087C454.002 554.086 454.273 554.356 454.274 554.689L454.31 568.299C454.311 568.633 454.041 568.904 453.708 568.905Z" fill="#FDCBFC"/>
<path opacity="0.53" d="M664.837 568.348L496.96 568.79C496.43 568.791 495.999 568.363 495.998 567.832L495.964 554.935C495.963 554.405 496.391 553.974 496.921 553.972L664.798 553.53C665.329 553.529 665.759 553.957 665.761 554.488L665.795 567.385C665.796 567.916 665.367 568.347 664.837 568.348Z" fill="#FDCBFC"/>
<path opacity="0.53" d="M223.012 595.232L181.686 595.341C181.156 595.342 180.725 594.913 180.723 594.383L180.689 581.485C180.688 580.955 181.117 580.524 181.647 580.523L222.974 580.414C223.504 580.413 223.935 580.841 223.936 581.372L223.97 594.269C223.971 594.799 223.543 595.23 223.012 595.232Z" fill="#FDCBFC"/>
<path opacity="0.53" d="M349.304 594.927L228.353 595.245C228.006 595.246 227.723 594.965 227.722 594.617L227.687 581.058C227.686 580.71 227.967 580.428 228.314 580.427L349.265 580.108C349.613 580.107 349.896 580.389 349.897 580.736L349.932 594.295C349.933 594.643 349.652 594.926 349.304 594.927Z" fill="#FDCBFC"/>
<path opacity="0.53" d="M454.25 594.971L396.494 595.123C396.16 595.124 395.889 594.854 395.888 594.521L395.853 580.911C395.852 580.577 396.121 580.306 396.455 580.305L454.211 580.153C454.544 580.152 454.815 580.422 454.816 580.756L454.852 594.366C454.853 594.699 454.583 594.97 454.25 594.971Z" fill="#FDCBFC"/>
<path opacity="0.53" d="M750.976 594.19L523.049 594.79C522.519 594.791 522.088 594.363 522.087 593.832L522.053 580.935C522.051 580.404 522.48 579.973 523.01 579.972L750.937 579.372C751.467 579.371 751.898 579.799 751.899 580.33L751.933 593.227C751.935 593.758 751.506 594.189 750.976 594.19Z" fill="#FDCBFC"/>
<path opacity="0.53" d="M223.978 673.022L180.851 673.135C180.321 673.137 179.89 672.708 179.888 672.178L179.854 659.28C179.853 658.75 180.282 658.319 180.812 658.318L223.939 658.204C224.47 658.203 224.901 658.632 224.902 659.162L224.936 672.059C224.937 672.589 224.509 673.02 223.978 673.022Z" fill="#FDCBFC"/>
<path opacity="0.53" d="M348.38 672.721L227.429 673.04C227.081 673.041 226.798 672.76 226.797 672.412L226.762 658.853C226.761 658.505 227.042 658.223 227.39 658.222L348.341 657.903C348.688 657.902 348.971 658.184 348.972 658.531L349.008 672.09C349.008 672.438 348.727 672.721 348.38 672.721Z" fill="#FDCBFC"/>
<path opacity="0.53" d="M453.419 672.766L395.663 672.918C395.329 672.919 395.058 672.649 395.057 672.316L395.021 658.706C395.021 658.372 395.29 658.101 395.624 658.1L453.38 657.948C453.713 657.947 453.984 658.217 453.985 658.551L454.021 672.16C454.022 672.494 453.752 672.765 453.419 672.766Z" fill="#FDCBFC"/>
<path opacity="0.53" d="M600.208 672.38L465.934 672.734C465.404 672.735 464.973 672.306 464.971 671.776L464.938 658.879C464.936 658.348 465.365 657.917 465.895 657.916L600.169 657.563C600.699 657.561 601.13 657.99 601.132 658.52L601.166 671.418C601.167 671.948 600.738 672.379 600.208 672.38Z" fill="#FDCBFC"/>
<path opacity="0.53" d="M348.479 698.752L180.779 699.193C180.431 699.194 180.149 698.913 180.148 698.565L180.112 685.006C180.111 684.659 180.393 684.376 180.74 684.375L348.44 683.934C348.788 683.933 349.07 684.214 349.071 684.561L349.107 698.121C349.108 698.469 348.827 698.751 348.479 698.752Z" fill="#FDCBFC"/>
<path opacity="0.53" d="M453.444 698.796L395.688 698.948C395.355 698.949 395.084 698.68 395.083 698.346L395.047 684.736C395.046 684.402 395.316 684.131 395.649 684.131L453.405 683.979C453.739 683.978 454.01 684.247 454.011 684.581L454.046 698.191C454.047 698.525 453.778 698.796 453.444 698.796Z" fill="#FDCBFC"/>
<path opacity="0.53" d="M664.483 698.241L496.606 698.682C496.076 698.684 495.645 698.255 495.643 697.725L495.609 684.827C495.608 684.297 496.037 683.866 496.567 683.865L664.444 683.423C664.974 683.421 665.405 683.85 665.406 684.38L665.44 697.278C665.442 697.808 665.013 698.239 664.483 698.241Z" fill="#FDCBFC"/>
<path opacity="0.53" d="M222.749 725.124L181.422 725.233C180.892 725.234 180.461 724.806 180.46 724.276L180.426 711.378C180.425 710.848 180.853 710.417 181.383 710.415L222.71 710.307C223.24 710.305 223.671 710.734 223.672 711.264L223.706 724.162C223.708 724.692 223.279 725.123 222.749 725.124Z" fill="#FDCBFC"/>
<path opacity="0.53" d="M349.1 724.819L228.149 725.138C227.802 725.139 227.519 724.857 227.518 724.51L227.482 710.951C227.481 710.603 227.763 710.32 228.11 710.319L349.061 710.001C349.409 710 349.692 710.281 349.693 710.629L349.728 724.188C349.729 724.536 349.448 724.818 349.1 724.819Z" fill="#FDCBFC"/>
<path opacity="0.53" d="M453.987 724.864L396.231 725.016C395.898 725.017 395.627 724.747 395.626 724.413L395.59 710.803C395.589 710.47 395.859 710.199 396.192 710.198L453.948 710.046C454.281 710.045 454.553 710.315 454.554 710.648L454.589 724.258C454.59 724.592 454.32 724.863 453.987 724.864Z" fill="#FDCBFC"/>
<path opacity="0.53" d="M750.622 724.082L522.696 724.682C522.165 724.684 521.734 724.255 521.733 723.725L521.699 710.827C521.698 710.297 522.127 709.866 522.657 709.865L750.583 709.265C751.114 709.263 751.545 709.692 751.546 710.222L751.58 723.12C751.581 723.65 751.152 724.081 750.622 724.082Z" fill="#FDCBFC"/>
<path opacity="0.53" d="M222.576 621.745L181.249 621.854C180.719 621.855 180.288 621.427 180.287 620.897L180.253 607.999C180.252 607.469 180.68 607.038 181.21 607.037L222.537 606.928C223.067 606.926 223.498 607.355 223.5 607.885L223.533 620.783C223.535 621.313 223.106 621.744 222.576 621.745Z" fill="#FDCBFC"/>
<path opacity="0.53" d="M348.44 621.441L227.489 621.76C227.141 621.761 226.859 621.479 226.858 621.132L226.822 607.573C226.821 607.225 227.102 606.942 227.45 606.941L348.401 606.623C348.749 606.622 349.031 606.903 349.032 607.251L349.068 620.81C349.069 621.158 348.788 621.44 348.44 621.441Z" fill="#FDCBFC"/>
<path opacity="0.53" d="M453.631 621.486L395.875 621.638C395.541 621.639 395.27 621.369 395.269 621.036L395.233 607.426C395.233 607.092 395.502 606.821 395.836 606.82L453.592 606.668C453.925 606.667 454.196 606.937 454.197 607.27L454.233 620.88C454.234 621.214 453.964 621.485 453.631 621.486Z" fill="#FDCBFC"/>
<path opacity="0.53" d="M749.288 620.707L521.362 621.307C520.831 621.309 520.4 620.88 520.399 620.35L520.365 607.452C520.364 606.922 520.793 606.491 521.323 606.49L749.249 605.89C749.779 605.888 750.21 606.317 750.212 606.847L750.245 619.745C750.247 620.275 749.818 620.706 749.288 620.707Z" fill="#FDCBFC"/>
<path opacity="0.53" d="M222.993 647.813L181.666 647.921C181.136 647.923 180.705 647.494 180.704 646.964L180.67 634.066C180.669 633.536 181.097 633.105 181.627 633.104L222.954 632.995C223.484 632.994 223.915 633.422 223.917 633.953L223.95 646.85C223.952 647.38 223.523 647.811 222.993 647.813Z" fill="#FDCBFC"/>
<path opacity="0.53" d="M349.151 647.509L228.2 647.827C227.852 647.828 227.57 647.547 227.569 647.199L227.533 633.64C227.532 633.292 227.813 633.01 228.161 633.009L349.112 632.69C349.46 632.689 349.742 632.971 349.743 633.318L349.779 646.877C349.78 647.225 349.499 647.508 349.151 647.509Z" fill="#FDCBFC"/>
<path opacity="0.53" d="M454.173 647.553L396.417 647.705C396.083 647.706 395.812 647.436 395.811 647.103L395.775 633.493C395.775 633.159 396.044 632.888 396.378 632.887L454.134 632.735C454.467 632.735 454.738 633.004 454.739 633.338L454.775 646.948C454.776 647.281 454.506 647.552 454.173 647.553Z" fill="#FDCBFC"/>
<path opacity="0.53" d="M750.565 646.772L522.639 647.372C522.109 647.373 521.678 646.945 521.676 646.414L521.643 633.517C521.641 632.986 522.07 632.556 522.6 632.554L750.526 631.954C751.057 631.953 751.488 632.382 751.489 632.912L751.523 645.809C751.524 646.34 751.095 646.771 750.565 646.772Z" fill="#FDCBFC"/>
<path opacity="0.53" d="M374.98 742.3L370.245 742.313C370.051 742.313 369.893 742.156 369.892 741.961L368.933 377.5C368.932 377.305 369.09 377.147 369.284 377.146L374.019 377.134C374.213 377.133 374.371 377.291 374.372 377.485L375.331 741.947C375.332 742.141 375.175 742.3 374.98 742.3Z" fill="#FDCBFC"/>
<path d="M529.768 808.229H202.395C199.468 808.229 197.096 810.602 197.096 813.529C197.096 816.456 199.468 818.828 202.395 818.828H529.768C532.694 818.828 535.067 816.456 535.067 813.529C535.067 810.602 532.694 808.229 529.768 808.229Z" fill="url(#paint0_linear_8_586)"/>
<path d="M483.398 754.352H248.764C241.69 754.352 235.956 760.086 235.956 767.159V808.23H496.206V767.159C496.206 760.086 490.472 754.352 483.398 754.352Z" fill="url(#paint1_linear_8_586)"/>
<path d="M466.039 731.467H266.123C259.05 731.467 253.315 737.201 253.315 744.274V754.352H478.847V744.274C478.847 737.201 473.113 731.467 466.039 731.467Z" fill="url(#paint2_linear_8_586)"/>
<path d="M426.302 731.467H305.86V667.185C305.86 665.404 307.304 663.96 309.085 663.96H423.077C424.859 663.96 426.302 665.404 426.302 667.185V731.467Z" fill="url(#paint3_linear_8_586)"/>
<path d="M169.676 470.833C166.742 473.535 166.486 478.081 169.1 481.094L333.912 673.55C336.638 676.693 341.422 676.962 344.482 674.144L358.504 661.233L176.992 464.097L169.676 470.833Z" fill="url(#paint4_linear_8_586)"/>
<path d="M192.245 409C186.634 403.152 177.377 402.866 171.415 408.355L156.633 421.965C150.672 427.454 150.194 436.704 155.56 442.777L352.212 667.027L393.434 629.073C396.777 625.995 396.929 620.768 393.771 617.5L192.245 409Z" fill="url(#paint5_linear_8_586)"/>
<path d="M206.349 455.988L204.803 457.411C200.015 461.819 199.708 469.273 204.116 474.06L307.89 586.768C312.298 591.555 319.752 591.862 324.539 587.455L326.085 586.031C330.872 581.623 331.18 574.169 326.772 569.382L222.997 456.675C218.59 451.888 211.136 451.58 206.349 455.988Z" fill="#E343AD"/>
<path d="M207.746 454.716L203.389 458.728L323.116 588.778L327.473 584.767L207.746 454.716Z" fill="#FF80EA"/>
<path d="M367.447 701.979C396.462 701.979 419.984 678.457 419.984 649.442C419.984 620.427 396.462 596.905 367.447 596.905C338.432 596.905 314.91 620.427 314.91 649.442C314.91 678.457 338.432 701.979 367.447 701.979Z" fill="#E845B3"/>
<path d="M395.817 677.817C411.489 662.145 411.489 636.736 395.817 621.064C380.145 605.392 354.735 605.392 339.063 621.064C323.391 636.736 323.391 662.145 339.063 677.817C354.735 693.489 380.145 693.489 395.817 677.817Z" fill="#F47DE5"/>
<path d="M191.626 436.301L204.643 444.353C207.484 446.111 211.215 445.173 212.888 442.281L313.642 265.503C315.245 262.73 314.354 259.185 311.63 257.499L304.838 253.298L191.626 436.301Z" fill="url(#paint6_linear_8_586)"/>
<path d="M300.776 208.495L314.497 216.984C320.032 220.408 321.812 227.629 318.502 233.233L197.467 439.914L159.2 416.241C156.097 414.321 155.184 410.222 157.178 407.166L284.448 212.166C287.985 206.702 295.241 205.071 300.776 208.495Z" fill="url(#paint7_linear_8_586)"/>
<path d="M263.573 260.668L195.895 370.067C192.9 374.907 194.397 381.258 199.237 384.253C204.077 387.247 210.428 385.751 213.422 380.91L281.1 271.512C284.095 266.672 282.598 260.32 277.758 257.326C272.918 254.332 266.567 255.828 263.573 260.668Z" fill="#E343AD"/>
<path d="M275.729 256.084L197.208 383.008L201.253 385.51L279.774 258.587L275.729 256.084Z" fill="#FF80EA"/>
<path d="M182.783 470.547C206.084 470.547 224.972 451.659 224.972 428.359C224.972 405.058 206.084 386.17 182.783 386.17C159.483 386.17 140.595 405.058 140.595 428.359C140.595 451.659 159.483 470.547 182.783 470.547Z" fill="#D93CAB"/>
<path d="M205.567 451.145C218.152 438.56 218.152 418.155 205.567 405.57C192.982 392.985 172.578 392.985 159.992 405.57C147.407 418.155 147.407 438.56 159.992 451.145C172.578 463.73 192.982 463.73 205.567 451.145Z" fill="#F47DE5"/>
<path d="M442.311 281.866L435.729 292.687C433.074 297.052 428.272 299.012 424.925 297.099L301.369 227.273L319.725 197.097C321.214 194.649 323.931 193.607 325.742 194.79L441.26 270.244C444.499 272.336 444.966 277.502 442.311 281.866Z" fill="url(#paint8_linear_8_586)"/>
<path d="M317.983 246.839C336.272 246.839 351.099 232.013 351.099 213.723C351.099 195.433 336.272 180.606 317.983 180.606C299.693 180.606 284.866 195.433 284.866 213.723C284.866 232.013 299.693 246.839 317.983 246.839Z" fill="#E542AD"/>
<path d="M343.18 215.86C344.365 201.939 334.041 189.694 320.12 188.509C306.199 187.325 293.954 197.649 292.769 211.57C291.584 225.49 301.909 237.736 315.83 238.921C329.75 240.105 341.996 229.781 343.18 215.86Z" fill="#F47DE5"/>
<path d="M463.203 284.946L490.872 264.971L529.21 311.599L523.398 318.462L488.735 281.278L467.322 296.952L463.203 284.946Z" fill="#D93CAB"/>
<g opacity="0.3">
<path d="M598.538 210.333C599.001 208.431 600.836 207.148 602.818 207.417C607.152 208.005 611.525 208.79 615.815 209.749C617.903 210.216 619.217 212.286 618.75 214.373C618.744 214.398 618.738 214.422 618.732 214.446C618.234 216.49 616.188 217.768 614.126 217.306C610.05 216.394 605.896 215.649 601.779 215.091C599.66 214.804 598.174 212.853 598.461 210.733C598.479 210.597 598.506 210.464 598.538 210.333ZM631.25 218.564C631.286 218.417 631.331 218.27 631.385 218.125C632.132 216.121 634.362 215.102 636.366 215.848C640.482 217.383 644.573 219.109 648.524 220.978C650.457 221.893 651.281 224.191 650.37 226.135C649.455 228.068 647.146 228.893 645.214 227.979C641.458 226.203 637.572 224.563 633.66 223.105C631.802 222.412 630.792 220.444 631.25 218.564ZM661.337 233.793C661.439 233.375 661.614 232.966 661.864 232.585C663.039 230.798 665.439 230.301 667.226 231.475C670.89 233.881 674.494 236.478 677.939 239.192C679.619 240.517 679.905 242.95 678.585 244.63C677.262 246.309 674.826 246.598 673.147 245.275C669.876 242.697 666.453 240.233 662.974 237.947C661.568 237.023 660.96 235.34 661.337 233.793ZM687.268 255.373C687.437 254.681 687.799 254.027 688.351 253.498C689.895 252.018 692.347 252.071 693.826 253.615C696.86 256.783 699.794 260.12 702.546 263.533C703.885 265.198 703.624 267.634 701.961 268.978C700.296 270.32 697.859 270.058 696.516 268.393C693.903 265.152 691.117 261.982 688.233 258.972C687.284 257.98 686.966 256.615 687.268 255.373ZM707.736 282.192C707.973 281.222 708.583 280.343 709.507 279.789C711.341 278.689 713.72 279.284 714.818 281.118C717.069 284.871 719.19 288.773 721.122 292.716C722.064 294.635 721.271 296.955 719.35 297.897C717.43 298.837 715.111 298.044 714.168 296.123C712.332 292.376 710.316 288.667 708.178 285.101C707.632 284.191 707.503 283.147 707.736 282.192ZM721.76 312.87C722.067 311.612 722.995 310.537 724.315 310.104C726.347 309.437 728.534 310.543 729.202 312.575C730.569 316.739 731.775 321.014 732.783 325.28C733.275 327.362 731.987 329.448 729.906 329.94C727.826 330.432 725.739 329.143 725.247 327.063C724.288 323.009 723.143 318.947 721.844 314.991C721.61 314.278 721.595 313.548 721.76 312.87ZM697.113 452.902C697.24 452.381 697.478 451.879 697.83 451.43C700.399 448.158 702.86 444.73 705.143 441.24C706.314 439.451 708.714 438.95 710.502 440.12C712.292 441.291 712.794 443.69 711.623 445.48C709.218 449.155 706.627 452.767 703.922 456.212C702.601 457.895 700.167 458.187 698.485 456.866C697.251 455.899 696.765 454.331 697.113 452.902ZM728.633 345.87C729.013 344.31 730.347 343.09 732.036 342.933C734.166 342.734 736.052 344.299 736.251 346.428C736.658 350.792 736.88 355.227 736.911 359.61C736.916 361.748 735.206 363.495 733.066 363.51C730.928 363.525 729.182 361.803 729.167 359.664C729.138 355.502 728.927 351.291 728.541 347.147C728.501 346.707 728.534 346.277 728.633 345.87ZM714.819 424.192C714.88 423.944 714.965 423.697 715.078 423.457C716.851 419.691 718.483 415.798 719.933 411.887C720.677 409.882 722.905 408.859 724.91 409.602C726.914 410.346 727.948 412.575 727.195 414.579C725.669 418.693 723.951 422.79 722.086 426.754C721.176 428.689 718.868 429.52 716.934 428.609C715.24 427.812 714.392 425.944 714.819 424.192ZM727.961 379.579C728.424 377.681 730.255 376.398 732.234 376.663C734.354 376.946 735.842 378.894 735.561 381.014C734.981 385.354 734.206 389.727 733.255 394.011C733.25 394.038 733.243 394.065 733.237 394.092C732.739 396.133 730.698 397.41 728.638 396.953C726.549 396.49 725.232 394.423 725.696 392.335C726.598 388.265 727.333 384.111 727.884 379.988C727.903 379.849 727.929 379.712 727.961 379.579Z" fill="#2A8CEA"/>
<path d="M678.457 472.68C678.637 471.94 679.037 471.244 679.652 470.7C681.148 469.378 682.64 468.003 684.091 466.612C685.633 465.132 688.085 465.182 689.565 466.725C691.046 468.268 690.997 470.721 689.451 472.2C687.927 473.663 686.357 475.11 684.783 476.501C683.181 477.918 680.733 477.768 679.317 476.166C678.443 475.179 678.166 473.871 678.457 472.68Z" fill="#2A8CEA"/>
</g>
<g opacity="0.3">
<path d="M566.506 510.136C566.949 508.32 568.655 507.043 570.577 507.197C572.567 507.358 574.594 507.479 576.6 507.557C578.737 507.64 580.402 509.44 580.319 511.577C580.235 513.723 578.435 515.378 576.299 515.295C574.186 515.212 572.052 515.085 569.957 514.917C567.825 514.745 566.236 512.878 566.407 510.746C566.424 510.537 566.458 510.333 566.506 510.136Z" fill="#2A8CEA"/>
<path d="M431.929 324.238C432.35 322.507 432.804 320.776 433.287 319.047C433.864 316.988 436 315.785 438.06 316.361C440.119 316.937 441.326 319.086 440.746 321.133C439.63 325.124 438.678 329.151 437.909 333.149C437.501 335.251 435.476 336.624 433.376 336.221C431.275 335.816 429.9 333.786 430.304 331.686C430.78 329.213 431.327 326.707 431.929 324.238ZM440.127 299.783C440.178 299.572 440.248 299.363 440.337 299.157C442.053 295.193 443.956 291.256 445.993 287.458C447.004 285.574 449.351 284.866 451.234 285.876C453.119 286.887 453.831 289.24 452.816 291.119C450.881 294.726 449.075 298.466 447.443 302.233C446.594 304.196 444.315 305.098 442.353 304.249C440.595 303.488 439.689 301.582 440.127 299.783ZM427.852 351.914C428.284 350.141 429.928 348.869 431.817 348.969C433.953 349.082 435.592 350.906 435.479 353.041C435.262 357.126 435.217 361.276 435.347 365.377C435.412 367.515 433.737 369.302 431.6 369.37C429.462 369.437 427.674 367.759 427.607 365.621C427.47 361.303 427.517 356.932 427.745 352.63C427.759 352.384 427.796 352.145 427.852 351.914ZM456.589 270.948C456.705 270.47 456.916 270.008 457.223 269.586C459.765 266.098 462.488 262.677 465.314 259.418C466.715 257.803 469.159 257.629 470.774 259.03C472.391 260.431 472.566 262.875 471.163 264.492C468.48 267.587 465.895 270.835 463.48 274.148C462.222 275.876 459.798 276.256 458.071 274.996C456.765 274.044 456.228 272.427 456.589 270.948ZM429.773 385.033C430.128 383.579 431.315 382.4 432.885 382.132C434.994 381.773 436.994 383.19 437.354 385.299C438.04 389.329 438.91 393.387 439.937 397.361C440.472 399.431 439.228 401.544 437.156 402.079C435.086 402.613 432.975 401.369 432.44 399.299C431.358 395.116 430.443 390.844 429.719 386.6C429.628 386.063 429.652 385.531 429.773 385.033ZM438.915 416.929C439.199 415.766 440.016 414.751 441.208 414.261C443.187 413.45 445.448 414.396 446.26 416.375C447.816 420.169 449.551 423.942 451.414 427.589C452.391 429.491 451.637 431.823 449.73 432.799C447.826 433.772 445.494 433.018 444.52 431.114C442.558 427.276 440.733 423.306 439.096 419.313C438.773 418.527 438.728 417.696 438.915 416.929ZM454.794 446.074C455.009 445.189 455.536 444.377 456.342 443.816C458.095 442.593 460.509 443.024 461.732 444.778C464.079 448.147 466.592 451.451 469.205 454.603C470.569 456.249 470.344 458.688 468.695 460.055C467.048 461.419 464.608 461.191 463.243 459.545C460.494 456.228 457.847 452.749 455.378 449.206C454.717 448.257 454.54 447.115 454.794 446.074ZM476.649 471.06C476.798 470.447 477.099 469.862 477.555 469.364C479 467.787 481.448 467.681 483.025 469.125C486.05 471.897 489.226 474.57 492.468 477.071C494.161 478.378 494.474 480.811 493.169 482.502C491.863 484.195 489.431 484.509 487.738 483.202C484.324 480.568 480.978 477.753 477.794 474.835C476.715 473.846 476.325 472.387 476.649 471.06ZM503.466 490.646C503.55 490.301 503.683 489.963 503.868 489.639C504.929 487.783 507.296 487.139 509.151 488.201C512.703 490.232 516.389 492.138 520.109 493.867C522.048 494.769 522.885 497.077 521.987 499.01C521.086 500.95 518.783 501.791 516.843 500.889C512.928 499.069 509.047 497.062 505.308 494.923C503.775 494.046 503.068 492.28 503.466 490.646ZM533.91 503.853C533.929 503.776 533.951 503.699 533.974 503.622C534.606 501.579 536.775 500.435 538.817 501.068C541.701 501.96 544.646 502.773 547.573 503.487C548.633 503.745 549.694 503.99 550.753 504.225C552.842 504.686 554.161 506.753 553.698 508.841C553.272 510.964 551.171 512.248 549.084 511.787C547.968 511.541 546.854 511.282 545.739 511.011C542.66 510.26 539.561 509.404 536.528 508.465C534.563 507.857 533.429 505.826 533.91 503.853Z" fill="#2A8CEA"/>
<path d="M479.067 246.387C479.249 245.639 479.655 244.939 480.277 244.394C481.854 243.013 483.49 241.64 485.14 240.311C486.806 238.97 489.244 239.233 490.584 240.899C491.925 242.565 491.664 245.001 489.997 246.343C488.429 247.605 486.875 248.91 485.377 250.22C483.77 251.629 481.323 251.467 479.914 249.858C479.051 248.871 478.778 247.57 479.067 246.387Z" fill="#2A8CEA"/>
</g>
<path d="M521.463 262.1C520.767 262.433 520.357 263.171 520.445 263.938L522.935 285.823C514.907 292.254 507.847 300.012 502.133 308.923L480.122 308.747C479.35 308.74 478.659 309.225 478.401 309.953L469.589 334.86C469.332 335.588 469.564 336.399 470.168 336.879L487.392 350.585C486.231 361.107 486.841 371.578 489.039 381.627L473.34 397.076C472.789 397.618 472.643 398.449 472.976 399.145L484.357 422.988C484.69 423.686 485.427 424.095 486.194 424.007L508.079 421.517C514.51 429.545 522.268 436.605 531.179 442.319L531.003 464.33C530.996 465.102 531.481 465.793 532.209 466.051L557.116 474.863C557.844 475.12 558.655 474.888 559.135 474.283L572.841 457.059C583.363 458.221 593.834 457.611 603.882 455.413L619.332 471.112C619.873 471.662 620.705 471.808 621.401 471.475L645.244 460.095C645.941 459.762 646.35 459.024 646.263 458.257L643.773 436.372C651.801 429.942 658.861 422.184 664.574 413.273L686.586 413.449C687.357 413.455 688.048 412.971 688.306 412.243L697.118 387.336C697.376 386.608 697.143 385.797 696.539 385.316L679.315 371.611C680.477 361.089 679.866 350.617 677.669 340.569L693.367 325.119C693.918 324.578 694.064 323.747 693.731 323.05L682.35 299.207C682.018 298.511 681.28 298.102 680.513 298.189L658.628 300.679C652.197 292.651 644.439 285.591 635.529 279.877L635.705 257.866C635.711 257.094 635.227 256.402 634.498 256.145L609.592 247.333C608.864 247.076 608.053 247.308 607.572 247.912L593.866 265.136C583.345 263.975 572.874 264.585 562.825 266.783L547.375 251.084C546.834 250.534 546.003 250.388 545.306 250.72L521.463 262.1Z" fill="#2A8CEA"/>
<path opacity="0.7" d="M557.555 354.791C560.621 342.214 572.549 333.421 585.814 334.655C600.395 336.013 611.152 348.978 609.796 363.558C609.14 370.623 605.771 377.007 600.312 381.535C594.854 386.065 587.957 388.198 580.894 387.54C566.312 386.183 555.555 373.218 556.911 358.638C557.034 357.323 557.251 356.038 557.555 354.791ZM603.129 365.963C603.366 364.992 603.534 363.998 603.628 362.984C604.669 351.806 596.419 341.864 585.241 340.824C574.062 339.784 564.116 348.029 563.08 359.212C562.039 370.39 570.289 380.332 581.467 381.372C586.883 381.876 592.17 380.241 596.356 376.768C599.758 373.945 602.101 370.181 603.129 365.963Z" fill="white"/>
<path opacity="0.7" d="M520.161 346.233C520.688 344.073 521.326 341.927 522.077 339.803C522.314 339.134 522.561 338.469 522.819 337.808C524.091 334.549 525.621 331.396 527.384 328.399C527.408 328.358 527.432 328.317 527.456 328.276C527.525 328.161 527.593 328.045 527.664 327.93C527.798 327.705 527.935 327.482 528.072 327.259C528.433 326.673 529.12 326.411 529.755 326.565C529.909 326.603 530.061 326.666 530.203 326.753C530.931 327.202 531.155 328.156 530.708 328.884C528.398 332.631 526.478 336.652 524.999 340.835C517.644 361.613 522.038 383.744 534.696 399.945C541.736 408.957 551.334 416.133 562.891 420.222C564.917 420.939 566.965 421.549 569.026 422.05C582.892 425.429 597.378 423.948 610.431 417.717C625.425 410.56 636.735 397.992 642.277 382.33C653.718 349.981 636.717 314.382 604.384 302.943C602.391 302.238 600.369 301.636 598.328 301.139C589.482 298.985 580.264 298.789 571.334 300.6C571.103 300.647 570.874 300.64 570.66 300.587C570.095 300.449 569.631 299.997 569.508 299.39C569.341 298.551 569.878 297.733 570.719 297.564C580.095 295.663 589.774 295.867 599.06 298.13C601.202 298.651 603.324 299.283 605.417 300.023C639.363 312.033 657.203 349.429 645.198 383.363C639.38 399.806 627.507 412.999 611.766 420.512C598.062 427.054 582.855 428.608 568.298 425.062C566.135 424.535 563.985 423.895 561.858 423.143C545.414 417.324 532.221 405.452 524.707 389.711C518.164 376.004 516.612 360.793 520.161 346.233Z" fill="white"/>
<path d="M457.609 273.707L445.553 266.437C445.29 266.279 444.948 266.363 444.789 266.627L422.918 302.896C422.759 303.159 422.844 303.501 423.107 303.66L435.163 310.929C435.426 311.088 435.768 311.003 435.927 310.74L457.798 274.471C457.957 274.208 457.872 273.866 457.609 273.707Z" fill="#F47DE5"/>
<path d="M455.989 317.953L451.727 351.811L511.027 363.098L514.263 354.707L465.013 342.117L468.5 315.812L455.989 317.953Z" fill="#D93CAB"/>
<path d="M447.056 317.072C452.747 321.735 460.692 323.34 468.091 320.602C479.188 316.494 484.854 304.167 480.746 293.07C478.667 287.453 474.483 283.228 469.418 280.957L447.056 317.072Z" fill="url(#paint9_linear_8_586)"/>
<path d="M434.881 309.555L431.381 315.36C430.75 316.407 431.147 317.803 432.267 318.479L443.029 324.968C444.149 325.644 445.569 325.343 446.2 324.296L474.108 278.017C474.739 276.97 474.343 275.574 473.222 274.898L462.461 268.409C461.34 267.733 459.92 268.034 459.289 269.081L456.082 274.399L434.881 309.555Z" fill="#D93CAB"/>
<g opacity="0.3">
<path d="M616.692 474.654C616.678 473.54 617.509 472.573 618.64 472.441C621.113 472.153 623.635 471.967 626.136 471.89C627.354 471.852 628.371 472.808 628.408 474.025C628.408 474.039 628.408 474.053 628.409 474.068C628.423 475.265 627.475 476.259 626.273 476.296C623.896 476.369 621.5 476.545 619.151 476.82C617.942 476.961 616.847 476.095 616.706 474.886C616.697 474.808 616.692 474.731 616.692 474.654ZM635.894 474.569C635.893 474.483 635.897 474.396 635.906 474.308C636.035 473.097 637.12 472.22 638.331 472.348C640.817 472.613 643.317 472.986 645.76 473.459C646.956 473.689 647.734 474.84 647.507 476.041C647.275 477.236 646.119 478.017 644.924 477.787C642.602 477.338 640.227 476.983 637.864 476.732C636.742 476.613 635.907 475.671 635.894 474.569ZM654.637 478.714C654.634 478.469 654.673 478.218 654.757 477.973C655.152 476.822 656.406 476.208 657.557 476.603C659.917 477.412 662.272 478.334 664.555 479.344C665.669 479.837 666.171 481.139 665.68 482.251C665.188 483.364 663.886 483.868 662.773 483.376C660.604 482.417 658.369 481.541 656.127 480.773C655.221 480.462 654.648 479.62 654.637 478.714ZM671.987 486.948C671.982 486.542 672.089 486.131 672.319 485.761C672.961 484.727 674.321 484.41 675.354 485.051C677.475 486.37 679.565 487.795 681.565 489.288C682.538 490.016 682.739 491.397 682.012 492.373C681.284 493.348 679.903 493.548 678.927 492.82C677.028 491.402 675.043 490.048 673.028 488.796C672.364 488.383 671.995 487.676 671.987 486.948ZM687.064 498.844C687.057 498.275 687.27 497.704 687.701 497.268C688.557 496.402 689.953 496.394 690.818 497.25C692.589 499.001 694.311 500.853 695.933 502.754C696.724 503.679 696.615 505.071 695.688 505.862C694.762 506.652 693.371 506.542 692.58 505.616C691.038 503.809 689.402 502.049 687.719 500.385C687.289 499.96 687.071 499.403 687.064 498.844ZM699.134 513.777C699.125 513.041 699.485 512.317 700.152 511.891C701.178 511.236 702.541 511.537 703.196 512.563C704.538 514.666 705.808 516.853 706.967 519.063C707.532 520.141 707.117 521.473 706.038 522.039C704.961 522.604 703.628 522.189 703.063 521.111C701.961 519.011 700.756 516.933 699.48 514.935C699.25 514.575 699.139 514.175 699.134 513.777ZM705.337 594.479C705.334 594.173 705.394 593.863 705.525 593.566C706.479 591.399 707.351 589.16 708.117 586.914C708.51 585.761 709.762 585.146 710.914 585.539C712.066 585.931 712.682 587.183 712.289 588.336C711.483 590.702 710.564 593.06 709.56 595.342C709.069 596.457 707.768 596.962 706.654 596.471C705.837 596.112 705.347 595.316 705.337 594.479ZM707.589 531.003C707.578 530.089 708.141 529.228 709.05 528.902C710.196 528.492 711.458 529.088 711.868 530.234C712.71 532.583 713.459 534.997 714.096 537.41C714.401 538.588 713.704 539.793 712.527 540.103C711.35 540.414 710.144 539.711 709.833 538.534C709.229 536.243 708.517 533.951 707.718 531.72C707.634 531.483 707.591 531.242 707.589 531.003ZM711.043 576.145C711.041 575.999 711.053 575.851 711.082 575.703C711.527 573.376 711.876 570.998 712.123 568.637C712.25 567.426 713.334 566.547 714.545 566.673C715.755 566.8 716.64 567.883 716.508 569.095C716.248 571.579 715.88 574.081 715.412 576.53C715.184 577.726 714.029 578.51 712.833 578.282C711.786 578.082 711.055 577.171 711.043 576.145ZM711.983 549.686C711.97 548.574 712.798 547.608 713.927 547.474C715.136 547.331 716.232 548.194 716.377 549.403C716.67 551.878 716.861 554.399 716.942 556.896C716.943 556.911 716.944 556.928 716.944 556.943C716.958 558.139 716.013 559.132 714.812 559.171C713.595 559.211 712.577 558.257 712.537 557.041C712.459 554.669 712.278 552.274 711.998 549.923C711.989 549.843 711.984 549.764 711.983 549.686Z" fill="#2A8CEA"/>
<path d="M697.846 608.022C697.841 607.588 697.963 607.148 698.225 606.761C698.863 605.821 699.492 604.851 700.095 603.88C700.736 602.845 702.096 602.526 703.13 603.168C704.165 603.81 704.485 605.169 703.841 606.203C703.207 607.225 702.546 608.245 701.875 609.235C701.192 610.243 699.82 610.506 698.814 609.823C698.192 609.402 697.854 608.72 697.846 608.022Z" fill="#2A8CEA"/>
</g>
<g opacity="0.3">
<path d="M641.408 644.5C641.396 643.437 642.156 642.491 643.238 642.304C644.358 642.112 645.492 641.892 646.61 641.651C647.8 641.395 648.973 642.153 649.229 643.342C649.486 644.538 648.727 645.705 647.538 645.961C646.361 646.214 645.166 646.446 643.987 646.649C642.788 646.856 641.648 646.051 641.44 644.851C641.42 644.734 641.41 644.616 641.408 644.5Z" fill="#2A8CEA"/>
<path d="M540.92 561.016C540.908 560.002 540.913 558.983 540.936 557.961C540.963 556.744 541.971 555.779 543.188 555.806C544.405 555.832 545.374 556.846 545.344 558.057C545.293 560.416 545.337 562.771 545.478 565.084C545.55 566.301 544.627 567.344 543.412 567.419C542.197 567.493 541.152 566.568 541.078 565.353C540.99 563.922 540.937 562.462 540.92 561.016ZM541.984 546.371C541.983 546.248 541.992 546.123 542.012 545.997C542.397 543.568 542.89 541.129 543.477 538.746C543.768 537.565 544.962 536.842 546.143 537.133C547.325 537.424 548.051 538.621 547.757 539.8C547.2 542.063 546.732 544.38 546.365 546.688C546.174 547.89 545.045 548.71 543.843 548.52C542.766 548.349 541.997 547.426 541.984 546.371ZM542.584 576.854C542.572 575.814 543.299 574.88 544.355 574.669C545.549 574.429 546.71 575.203 546.95 576.397C547.407 578.68 547.969 580.975 548.621 583.218C548.958 584.387 548.288 585.61 547.119 585.949C545.949 586.289 544.727 585.616 544.387 584.447C543.701 582.085 543.11 579.668 542.627 577.263C542.6 577.126 542.586 576.989 542.584 576.854ZM546.986 528.144C546.982 527.865 547.033 527.58 547.143 527.304C548.052 525.021 549.069 522.75 550.167 520.553C550.711 519.464 552.035 519.023 553.124 519.567C554.213 520.111 554.655 521.434 554.11 522.524C553.068 524.61 552.102 526.766 551.239 528.934C550.789 530.065 549.506 530.617 548.376 530.167C547.521 529.827 546.996 529.011 546.986 528.144ZM548.325 594.844C548.315 593.992 548.803 593.174 549.632 592.805C550.743 592.309 552.047 592.808 552.543 593.919C553.491 596.045 554.544 598.16 555.673 600.206C556.26 601.272 555.873 602.612 554.806 603.2C553.74 603.788 552.4 603.4 551.813 602.334C550.625 600.181 549.516 597.954 548.518 595.716C548.391 595.433 548.329 595.136 548.325 594.844ZM557.876 611.141C557.867 610.459 558.175 609.783 558.763 609.345C559.739 608.618 561.12 608.82 561.847 609.796C563.242 611.669 564.732 613.504 566.275 615.251C567.082 616.163 566.996 617.555 566.083 618.362C565.17 619.168 563.777 619.082 562.971 618.17C561.347 616.331 559.779 614.399 558.312 612.429C558.023 612.042 557.881 611.59 557.876 611.141ZM570.751 624.967C570.745 624.449 570.92 623.927 571.286 623.503C572.08 622.581 573.472 622.477 574.394 623.272C576.164 624.797 578.017 626.265 579.904 627.633C580.888 628.348 581.109 629.725 580.393 630.711C579.678 631.696 578.3 631.916 577.315 631.201C575.33 629.76 573.379 628.216 571.516 626.612C571.018 626.182 570.758 625.577 570.751 624.967ZM586.334 635.656C586.33 635.296 586.414 634.932 586.595 634.592C587.168 633.519 588.503 633.114 589.577 633.687C591.637 634.788 593.766 635.813 595.907 636.734C597.026 637.215 597.542 638.513 597.062 639.629C596.581 640.748 595.284 641.264 594.166 640.783C591.911 639.813 589.668 638.734 587.499 637.575C586.765 637.183 586.344 636.433 586.334 635.656ZM603.891 642.665C603.888 642.463 603.914 642.258 603.97 642.053C604.293 640.88 605.507 640.19 606.68 640.513C608.926 641.131 611.228 641.661 613.523 642.089C614.72 642.311 615.508 643.466 615.286 644.659C615.063 645.856 613.912 646.645 612.715 646.422C610.299 645.972 607.875 645.414 605.511 644.763C604.542 644.496 603.902 643.622 603.891 642.665ZM622.545 645.644C622.545 645.599 622.546 645.554 622.548 645.508C622.608 644.292 623.642 643.355 624.858 643.415C626.574 643.499 628.313 643.531 630.028 643.511C630.649 643.504 631.268 643.489 631.886 643.468C633.103 643.428 634.122 644.381 634.163 645.598C634.228 646.829 633.25 647.834 632.034 647.875C631.384 647.896 630.734 647.911 630.08 647.919C628.277 647.941 626.446 647.906 624.641 647.817C623.471 647.76 622.559 646.8 622.545 645.644Z" fill="#2A8CEA"/>
<path d="M555.909 511.424C555.904 510.985 556.029 510.542 556.295 510.153C556.969 509.169 557.677 508.18 558.4 507.215C559.129 506.24 560.51 506.04 561.485 506.769C562.46 507.499 562.66 508.879 561.93 509.854C561.245 510.772 560.572 511.711 559.931 512.645C559.244 513.649 557.872 513.906 556.868 513.218C556.252 512.795 555.917 512.117 555.909 511.424Z" fill="#2A8CEA"/>
</g>
<path d="M581.509 514.095C581.172 514.377 581.05 514.842 581.207 515.253L585.673 526.968C582.156 531.65 579.359 536.925 577.468 542.647L565.306 545.661C564.879 545.767 564.566 546.132 564.527 546.569L563.189 561.549C563.15 561.987 563.393 562.401 563.794 562.581L575.229 567.704C576.076 573.67 577.892 579.358 580.525 584.589L574.052 595.327C573.825 595.704 573.862 596.182 574.144 596.519L583.79 608.058C584.072 608.396 584.537 608.517 584.947 608.36L596.663 603.894C601.344 607.411 606.62 610.208 612.341 612.099L615.355 624.261C615.461 624.688 615.826 625 616.264 625.04L631.244 626.378C631.682 626.417 632.096 626.174 632.275 625.773L637.398 614.338C643.364 613.491 649.052 611.675 654.283 609.042L665.021 615.515C665.397 615.742 665.877 615.705 666.214 615.423L677.752 605.777C678.09 605.495 678.211 605.031 678.054 604.62L673.588 592.904C677.105 588.223 679.902 582.948 681.793 577.226L693.956 574.212C694.382 574.106 694.694 573.741 694.734 573.304L696.072 558.323C696.111 557.886 695.868 557.471 695.467 557.292L684.032 552.169C683.186 546.202 681.368 540.515 678.736 535.284L685.209 524.546C685.436 524.169 685.399 523.69 685.117 523.353L675.471 511.814C675.189 511.477 674.725 511.356 674.314 511.512L662.598 515.979C657.917 512.461 652.641 509.665 646.92 507.773L643.906 495.611C643.8 495.185 643.435 494.872 642.997 494.833L628.017 493.494C627.58 493.455 627.165 493.698 626.986 494.099L621.863 505.535C615.897 506.381 610.209 508.198 604.978 510.83L594.24 504.357C593.863 504.131 593.385 504.167 593.047 504.449L581.509 514.095Z" fill="#2A8CEA"/>
<path opacity="0.7" d="M614.513 560.105C614.425 552.737 619.76 546.202 627.249 545.007C635.482 543.695 643.246 549.323 644.559 557.555C645.196 561.543 644.241 565.54 641.871 568.808C639.501 572.078 636 574.229 632.012 574.865C623.779 576.178 616.015 570.549 614.702 562.317C614.584 561.575 614.521 560.836 614.513 560.105ZM641.223 559.824C641.216 559.255 641.168 558.683 641.077 558.111C640.071 551.799 634.116 547.484 627.805 548.49C621.494 549.497 617.175 555.449 618.184 561.762C619.191 568.073 625.145 572.389 631.456 571.383C634.514 570.895 637.198 569.246 639.016 566.739C640.492 564.702 641.252 562.295 641.223 559.824Z" fill="white"/>
<path opacity="0.7" d="M592.683 560.673C592.668 559.407 592.717 558.133 592.831 556.856C592.867 556.453 592.909 556.052 592.958 555.651C593.199 553.674 593.597 551.719 594.145 549.817C594.153 549.791 594.16 549.765 594.168 549.739C594.189 549.666 594.211 549.593 594.233 549.519C594.275 549.376 594.319 549.234 594.363 549.091C594.479 548.717 594.822 548.476 595.194 548.471C595.284 548.47 595.376 548.483 595.467 548.511C595.932 548.656 596.19 549.15 596.047 549.615C595.303 552.007 594.812 554.496 594.588 557.012C593.469 569.509 599.02 581.092 608.291 588.236C613.446 592.21 619.753 594.811 626.704 595.432C627.923 595.541 629.139 595.588 630.346 595.573C638.469 595.476 646.248 592.611 652.565 587.33C659.822 581.265 664.282 572.735 665.123 563.315C666.86 543.86 652.453 526.633 633.007 524.896C631.808 524.789 630.608 524.743 629.412 524.757C624.23 524.819 619.119 526.015 614.45 528.276C614.329 528.334 614.202 528.363 614.077 528.364C613.746 528.367 613.426 528.184 613.273 527.866C613.062 527.427 613.243 526.901 613.682 526.688C618.584 524.315 623.95 523.059 629.39 522.994C630.645 522.979 631.905 523.027 633.163 523.139C653.58 524.963 668.703 543.063 666.88 563.472C665.996 573.362 661.314 582.315 653.696 588.683C647.065 594.227 638.899 597.234 630.37 597.336C629.103 597.351 627.827 597.302 626.548 597.188C616.658 596.304 607.704 591.622 601.336 584.005C595.79 577.371 592.784 569.203 592.683 560.673Z" fill="white"/>
<path d="M654.009 620.118L653.327 614.227C667.13 612.043 676.86 603.783 680.982 601.409C685.261 606.945 688.192 611.964 691.335 618.541C674.212 626.035 654.009 620.118 654.009 620.118Z" fill="#FED1A7"/>
<path d="M815.025 800.695C815.025 800.695 817.579 804.72 818.222 815.991C818.282 817.041 817.45 817.936 816.398 817.936H796.424C795.621 817.936 795.047 817.148 795.304 816.387C796.475 812.922 800.014 804.477 807.91 799.65L815.025 800.695Z" fill="#680443"/>
<path d="M815.894 793.057L814.764 802.529C814.667 803.347 814.027 804.001 813.209 804.095C812.116 804.221 810.529 804.31 808.985 804.055C807.583 803.824 806.573 802.575 806.573 801.153V792.007L815.894 793.057Z" fill="#FED1A7"/>
<path d="M765.608 799.649C765.608 799.649 769.431 805.592 769.349 813.748C769.329 815.67 767.721 817.2 765.8 817.2H734.778C733.325 817.2 732.736 815.333 733.925 814.499C739.795 810.377 751.332 802.676 759.677 799.649H765.608Z" fill="#680443"/>
<path d="M768.802 789.419L766.392 801.119C766.123 802.427 764.843 803.307 763.539 803.016C762.746 802.839 761.811 802.5 760.812 801.875C759.862 801.281 759.381 800.152 759.575 799.048L762.067 784.875L768.802 789.419Z" fill="#FED1A7"/>
<path d="M811.468 626.762C811.468 626.762 819.847 634.148 821.423 643.035C823 651.922 816.956 796.367 816.956 796.367C816.956 796.367 808.578 797.761 804.259 795.143C804.259 795.143 799.136 701.4 795.243 679.739C795.243 679.739 774.823 776.844 769.166 794.39C769.166 794.39 761.094 795.372 758.491 793.836C758.491 793.836 763.84 667.96 770.561 645.581L811.468 626.762Z" fill="#E53FAD"/>
<path d="M795.487 676.691C795.891 676.691 796.26 676.42 796.366 676.011L799.835 662.703L807.224 657.963C807.647 657.692 807.77 657.129 807.499 656.706C807.228 656.283 806.666 656.16 806.242 656.432L798.553 661.364C798.361 661.487 798.221 661.679 798.164 661.9L794.606 675.552C794.479 676.039 794.77 676.535 795.256 676.662C795.334 676.682 795.41 676.691 795.487 676.691Z" fill="#680443"/>
<path d="M728.787 543.299C764.058 540.37 773.276 547.669 773.276 547.669L756.327 574.428C756.327 574.428 721.67 573.743 696.837 554.603C701.484 549.598 704.712 544.067 706.782 539.76C713.186 542.421 720.56 543.981 728.787 543.299Z" fill="#E142A4"/>
<path d="M673.554 491.526C673.601 490.396 675.133 490.089 675.613 491.113L680.114 500.717C680.983 502.572 681.262 504.65 680.912 506.669L679.333 512.259C678.861 514.985 679.573 517.778 681.301 519.938C685.437 525.108 694.244 534.55 706.782 539.76C704.712 544.067 701.484 549.598 696.836 554.604C687.725 547.581 679.934 538.076 675.665 525.205C673.62 524.577 672.253 522.652 672.334 520.514L673.554 491.526Z" fill="#FED1A7"/>
<path d="M717.177 558.813C729.594 545.433 753.244 539.389 766.938 536.906C772.937 535.818 778.85 539.156 780.976 544.87C787.138 561.435 803.897 604.53 807.145 611.937C809.81 618.014 812.593 623.949 814.361 627.659C815.417 629.876 814.494 632.528 812.282 633.594C800.762 639.147 780.032 645.43 771.628 647.881C769.779 648.42 767.938 647.032 767.938 645.106C767.938 643.473 767.494 641.871 766.654 640.471L734.825 587.431C714.987 609.427 702.799 618.26 689.557 619.563C685.187 615.113 678.006 605.697 680.357 601.225C697.315 592.35 717.177 558.813 717.177 558.813Z" fill="#FC4FC3"/>
<path d="M658.95 619.343L644.941 633.703L624.455 638.921C625.235 635.894 638.442 628.049 638.442 628.049C638.442 628.049 648.178 615.554 651.25 612.633C653.802 610.208 656.92 614.228 657.903 615.659C658.104 615.952 658.216 616.136 658.216 616.136L658.95 619.343Z" fill="#FED1A7"/>
<path d="M748.102 512.334L758.679 538.143C758.679 538.143 746.527 546.555 736.749 545.755L731.471 522.547L748.102 512.334Z" fill="#FED1A7"/>
<path d="M730.236 494.739C729.993 495.082 722.584 521.849 722.584 521.849L737.958 525.755L748.75 501.429C748.75 501.429 734.291 488.993 730.236 494.739Z" fill="#FED1A7"/>
<path d="M742.961 505.124L738.283 518.375C738.223 518.545 738.142 518.702 738.039 518.849C737.404 519.751 734.992 522.695 732.131 520.044C729.535 517.638 727.131 515.481 724.91 515.09C723.913 514.914 722.947 515.522 722.677 516.498C722.004 518.93 720.59 524.439 720.092 529.413C719.991 530.422 720.688 531.334 721.684 531.523C724.687 532.093 731.053 533.119 736.368 532.744C737.088 532.693 737.722 532.261 738.022 531.605C739.487 528.404 743.975 518.693 745.644 516.18C747.21 513.822 751.051 513.888 752.662 514.031C753.19 514.078 753.709 513.907 754.108 513.558C755.517 512.323 758.198 509.169 754.426 505.394C753.637 504.604 753.658 503.33 754.472 502.565C756.091 501.041 757.824 498.34 755.125 494.989C752.382 491.584 748.76 492.126 746.542 492.936C745.644 493.263 744.666 492.884 744.178 492.063C743.9 491.595 743.416 491.241 742.576 491.314C741.445 491.411 740.493 490.467 740.514 489.331C740.553 487.15 739.772 484.393 735.987 483.215C729.271 481.125 725.083 487.613 724.669 492.454C724.254 497.296 731.664 499.148 736.021 498.821C739.334 498.573 741.794 501.857 742.782 503.445C743.096 503.949 743.158 504.565 742.961 505.124Z" fill="#680443"/>
<path d="M743.893 520.988C743.893 520.988 744.977 512.584 748.474 512.172C751.97 511.76 755.373 514.633 751.897 519.351C747.573 525.219 743.893 520.988 743.893 520.988Z" fill="#FED1A7"/>
</g>
<defs>
<linearGradient id="paint0_linear_8_586" x1="368.607" y1="774.38" x2="367.392" y2="793.213" gradientUnits="userSpaceOnUse">
<stop offset="0.2" stop-color="#DE3DA9"/>
<stop offset="1" stop-color="#C42E8F"/>
</linearGradient>
<linearGradient id="paint1_linear_8_586" x1="369.083" y1="722.362" x2="364.83" y2="814.703" gradientUnits="userSpaceOnUse">
<stop offset="0.37" stop-color="#DE3DA9"/>
<stop offset="1" stop-color="#C42E8F"/>
</linearGradient>
<linearGradient id="paint2_linear_8_586" x1="368.533" y1="697.259" x2="364.888" y2="774.412" gradientUnits="userSpaceOnUse">
<stop offset="0.375" stop-color="#DE3DA9"/>
<stop offset="1" stop-color="#C42E8F"/>
</linearGradient>
<linearGradient id="paint3_linear_8_586" x1="370.186" y1="643.172" x2="364.71" y2="718.012" gradientUnits="userSpaceOnUse">
<stop offset="0.555" stop-color="#DE3DA9"/>
<stop offset="1" stop-color="#C42E8F"/>
</linearGradient>
<linearGradient id="paint4_linear_8_586" x1="248.299" y1="580.574" x2="267.749" y2="562.664" gradientUnits="userSpaceOnUse">
<stop stop-color="#DE3DA9"/>
<stop offset="1" stop-color="#C42E8F"/>
</linearGradient>
<linearGradient id="paint5_linear_8_586" x1="246.287" y1="551.987" x2="293.46" y2="508.553" gradientUnits="userSpaceOnUse">
<stop offset="0.095" stop-color="#DE3DA9"/>
<stop offset="1" stop-color="#C42E8F"/>
</linearGradient>
<linearGradient id="paint6_linear_8_586" x1="289.748" y1="378.7" x2="250.192" y2="345.661" gradientUnits="userSpaceOnUse">
<stop stop-color="#DE3DA9"/>
<stop offset="1" stop-color="#C42E8F"/>
</linearGradient>
<linearGradient id="paint7_linear_8_586" x1="175.571" y1="426.369" x2="307.695" y2="212.775" gradientUnits="userSpaceOnUse">
<stop stop-color="#DE3DA9"/>
<stop offset="1" stop-color="#C42E8F"/>
</linearGradient>
<linearGradient id="paint8_linear_8_586" x1="311.871" y1="210.006" x2="438.989" y2="287.327" gradientUnits="userSpaceOnUse">
<stop stop-color="#DE3DA9"/>
<stop offset="1" stop-color="#C42E8F"/>
</linearGradient>
<linearGradient id="paint9_linear_8_586" x1="458.082" y1="298.944" x2="478.959" y2="311.643" gradientUnits="userSpaceOnUse">
<stop offset="0.21" stop-color="#DE3DA9"/>
<stop offset="0.54" stop-color="#C42E8F"/>
</linearGradient>
<clipPath id="clip0_8_586">
<rect width="945" height="945" fill="white"/>
</clipPath>
</defs>
</svg>
