<svg width="838" height="838" viewBox="0 0 838 838" fill="none" xmlns="http://www.w3.org/2000/svg">
<g clip-path="url(#clip0_5_2638)">
<path d="M659.572 647.104C643.079 664.104 628.323 674.097 617.024 681.641C506.834 755.216 380.875 734.01 341.932 726.762C279.101 715.068 226.064 706.818 180.495 665.649C76.9486 572.099 81.985 376.947 161.107 256.059C170.488 241.725 249.49 124.62 375.722 108.118C378.81 107.715 381.113 107.485 383.131 107.271C402.659 105.203 523.669 94.2914 622.34 176.958C636.464 188.792 659.194 210.136 680.273 242.69C757.344 361.72 757.588 546.073 659.572 647.104Z" fill="#FEE9FC"/>
<path d="M302.649 397.631C317.978 367.855 346.49 346.862 379.607 343.113L381.872 199.74C381.892 198.515 380.897 197.506 379.673 197.52C286.265 198.531 203.843 256.667 165.378 342.778C164.818 344.031 165.437 345.501 166.72 345.988L302.649 397.631Z" fill="#FB90F8"/>
<path d="M487.222 466.322C485.305 466.27 483.589 467.491 483.016 469.322C481.412 474.448 478.48 484.283 478 485.527C475.665 491.578 472.93 497.479 469.726 503.12C463.784 513.58 456.186 523.168 446.811 530.759C423.052 550 388.896 553.574 360.407 544.052C359.595 543.78 358.79 543.488 357.988 543.189C356.504 542.634 354.838 543.25 354.077 544.639L282.241 675.643C317.123 693.135 349.949 697.71 391.132 695.07C510.785 687.402 604.742 590.249 615.17 469.771L487.222 466.322Z" fill="#F27AE6"/>
<path d="M487.222 466.321C479.434 514.129 444.102 551.484 396.091 553.114C382.584 553.573 366.469 550.435 354.622 545.636C353.386 545.136 351.97 545.641 351.301 546.793L277.463 673.815C312.345 691.307 351.735 699.869 392.918 697.23C512.571 689.562 606.528 589.46 616.956 468.982L487.222 466.321Z" fill="#FB90F8"/>
<path d="M262.073 653.76L333.566 525.53C334.072 524.622 333.857 523.488 333.062 522.819C311.052 504.284 293.456 479.432 293.456 447.205C293.456 439.257 289.931 427.688 291.546 420.23L157.095 372.153C149.632 396.43 145.603 422.269 145.603 449.042C145.603 535.592 191.59 611.713 254.733 655.47C257.202 657.181 260.61 656.383 262.073 653.76Z" fill="#F27AE6"/>
<path d="M254.924 650.117L329.012 523.473C329.953 521.864 329.629 519.812 328.23 518.581C306.977 499.889 293.455 471.791 293.455 440.088C293.455 432.14 294.314 424.391 295.928 416.934L159.109 365.789C158.019 365.382 156.805 365.979 156.472 367.093C149.408 390.771 145.603 415.907 145.603 441.926C145.603 530.581 189.407 606.922 254.924 650.117Z" fill="#FB90F8"/>
<path d="M405.816 343.794C448.225 350.887 481.111 386.596 486.681 431.219C486.979 433.606 488.95 435.43 491.354 435.511L696.465 442.385C697.103 441.767 697.439 441.441 698.076 440.823C697.449 269.236 574.412 122.231 409.604 102.773L405.816 343.794Z" fill="#DE3DA9"/>
<path d="M561.062 246.997C580.447 227.612 580.447 196.183 561.062 176.798C541.677 157.414 510.248 157.414 490.864 176.798C471.479 196.183 471.479 227.612 490.864 246.997C510.248 266.381 541.677 266.381 561.062 246.997Z" fill="#FB90F8"/>
<path d="M557.415 243.967C575.046 226.336 575.046 197.752 557.415 180.121C539.785 162.49 511.2 162.49 493.569 180.121C475.939 197.752 475.939 226.336 493.569 243.967C511.2 261.597 539.785 261.597 557.415 243.967Z" fill="white"/>
<mask id="mask0_5_2638" style="mask-type:luminance" maskUnits="userSpaceOnUse" x="480" y="167" width="91" height="91">
<path d="M557.673 244.32C575.304 226.69 575.304 198.105 557.673 180.475C540.043 162.844 511.458 162.844 493.827 180.475C476.197 198.105 476.197 226.69 493.827 244.32C511.458 261.951 540.043 261.951 557.673 244.32Z" fill="white"/>
</mask>
<g mask="url(#mask0_5_2638)">
<path d="M500.888 256.365C501.599 253.064 502.161 250.903 502.161 250.903L489.612 229.65C489.612 229.65 485.55 233.762 483.116 251.675C482.778 254.156 484.707 256.366 487.211 256.366L500.888 256.365Z" fill="#BF1487"/>
<path d="M568.761 251.604C565.276 236.073 559.073 228.843 559.073 228.843L551.22 254.861C551.22 254.861 551.457 255.375 551.82 256.366H564.95C567.452 256.366 569.309 254.045 568.761 251.604Z" fill="#BF1487"/>
<path d="M500.791 256.366C513.692 261.111 531.221 260.447 551.676 256.366C552.156 254.385 552.807 252.253 553.676 249.8L559.073 228.836C551.508 222.054 540.874 219.814 536.783 219.178C527.276 216.82 516.165 218.91 516.165 218.91C501.099 219.961 489.612 229.629 489.612 229.629L498.947 250.872C499.684 252.66 500.3 254.495 500.791 256.366Z" fill="#BF1487"/>
<path d="M518.095 208.667L517.774 219.255C517.742 220.303 518.391 221.246 519.379 221.594C522.086 222.549 527.691 224.001 533.002 222.099C534.074 221.716 534.719 220.619 534.553 219.493L532.961 208.667H518.095Z" fill="#FED1A7"/>
<path d="M514.174 190.89C514.174 190.89 514.796 205.195 517.284 210.792C519.772 216.389 525.991 216.389 526.613 216.389C527.234 216.389 532.832 215.146 535.942 210.17C539.051 205.195 540.295 189.024 540.295 189.024C540.295 189.024 534.698 182.805 527.234 182.183C519.771 181.561 514.174 187.78 514.174 190.89Z" fill="#FED1A7"/>
<path d="M537.58 196.054C537.58 196.054 540.434 191.773 541.861 193.199C543.288 194.626 540.434 203.903 537.58 203.903C534.726 203.903 537.58 196.054 537.58 196.054Z" fill="#FED1A7"/>
<path d="M516.174 196.767C516.174 196.767 512.606 191.773 511.179 193.2C509.752 194.627 513.32 203.903 516.174 203.903V196.767Z" fill="#FED1A7"/>
<path d="M542.057 187.387C542.075 186.419 542.02 185.419 541.971 184.279C541.922 183.139 542.028 181.999 542.149 180.865C542.5 177.595 539.087 175.006 535.998 175.826C535.76 175.89 535.504 175.97 535.274 175.88C534.987 175.768 534.861 175.442 534.747 175.157C534.033 173.376 532.134 171.076 530.336 170.323C528.791 169.676 527.083 169.405 525.416 169.596C522.058 169.981 518.973 172.222 517.569 175.296C517.49 175.47 517.407 175.655 517.246 175.757C517.1 175.849 516.918 175.854 516.745 175.857C515.063 175.879 513.122 175.51 511.7 176.546C510.494 177.425 509.614 178.791 509.528 180.303C509.434 181.954 510.145 183.534 510.876 185.017C511.319 185.915 511.785 186.942 511.43 187.879C511.321 188.167 511.141 188.421 511.003 188.695C509.47 191.737 513.496 194.73 514.239 197.459C514.803 199.53 515.367 201.6 515.931 203.671C516.182 202.349 516.254 200.992 516.142 199.65C515.988 197.803 515.489 195.98 515.555 194.128C515.602 192.794 515.91 191.479 516.524 190.292C517.114 189.151 518.189 188.648 518.993 187.648C519.736 188.342 520.546 189.069 521.553 189.215C522.186 189.308 522.829 189.156 523.439 188.965C524.363 188.676 525.674 187.633 526.572 187.562C527.466 187.491 527.778 188.431 528.37 188.927C530.015 190.308 532.815 190.691 534.786 189.866C534.329 190.057 536.998 195.037 537.085 195.488C537.592 198.138 537.899 200.826 538.002 203.522C538.215 203.678 538.454 203.361 538.523 203.106C539.008 201.31 539.159 199.443 539.472 197.609C539.826 195.536 540.665 193.584 541.34 191.603C541.866 190.057 542.033 188.754 542.057 187.387Z" fill="#6A0E4C"/>
</g>
<path d="M656.533 218.988C674.296 201.225 674.296 172.426 656.533 154.663C638.77 136.9 609.971 136.9 592.208 154.663C574.445 172.426 574.445 201.225 592.208 218.988C609.971 236.75 638.77 236.75 656.533 218.988Z" fill="#FB90F8"/>
<path d="M623.945 228.325C646.792 228.325 665.314 209.804 665.314 186.957C665.314 164.109 646.792 145.588 623.945 145.588C601.098 145.588 582.576 164.109 582.576 186.957C582.576 209.804 601.098 228.325 623.945 228.325Z" fill="white"/>
<mask id="mask1_5_2638" style="mask-type:luminance" maskUnits="userSpaceOnUse" x="582" y="145" width="84" height="84">
<path d="M624.182 228.651C647.03 228.651 665.551 210.129 665.551 187.282C665.551 164.434 647.03 145.913 624.182 145.913C601.335 145.913 582.813 164.434 582.813 187.282C582.813 210.129 601.335 228.651 624.182 228.651Z" fill="white"/>
</mask>
<g mask="url(#mask1_5_2638)">
<path d="M615.075 177.971C612.456 177.971 609.74 178.305 608.715 175.15C606.784 169.208 610.027 160.326 615.344 157.091C617.123 156.009 619.197 155.536 621.238 155.126C623.638 154.644 625.712 154.524 627.877 155.688C629.874 156.762 631.813 155.036 633.883 156.415C635.642 157.587 636.991 159.432 637.931 161.297C639.159 163.732 639.797 166.417 640.332 169.091C640.453 169.697 640.57 170.324 640.434 170.927C640.321 171.432 640.039 171.881 639.758 172.316C637.611 175.641 634.753 177.971 630.621 177.971C630.62 177.971 615.144 177.971 615.075 177.971Z" fill="#6A0E4C"/>
<path d="M614.549 167.513C614.549 167.513 615.023 168.505 611.939 170.054C610.219 170.919 606.874 172.196 606.432 175.927C606.204 177.853 605.452 182.609 603.619 182.903C599.055 183.636 592.894 186.484 592.319 192.023C591.66 198.379 593.488 201.716 596.724 202.547C599.101 203.158 599.704 203.796 599.223 206.309C598.762 208.718 600.589 217.364 604.577 219.567C613.512 224.504 621.296 202.013 621.296 202.013L623.124 172.974L614.549 167.513Z" fill="#6A0E4C"/>
<path d="M634.998 164.974C634.998 164.974 634.516 166.024 637.656 167.667C639.407 168.582 642.813 169.935 643.262 173.888C643.494 175.929 644.037 178.797 645.903 179.108C650.55 179.884 655.935 184.412 657.081 193.202C657.955 199.911 656.046 207.107 652.752 207.987C650.332 208.634 650.514 207.352 651.003 210.014C651.473 212.567 650.371 211.581 646.312 213.915C637.215 219.145 628.13 201.525 628.13 201.525L626.269 170.76L634.998 164.974Z" fill="#6A0E4C"/>
<path d="M622.837 197.215C622.837 197.215 629.743 195.435 631.209 197.635C631.942 201.293 632.32 204.928 632.32 204.928L624.363 206.422L619.101 205.211L617.849 204.484L617.33 199.301C617.33 199.301 620.021 197.74 622.837 197.215Z" fill="#FF45C2"/>
<path d="M614.555 178.76C614.555 178.76 613.444 175.429 611.779 176.539C610.113 177.649 614.278 184.735 614.278 184.735L614.555 178.76Z" fill="#FED1A7"/>
<path d="M631.209 178.761C631.209 178.761 631.209 173.764 633.985 176.54C636.761 179.316 631.209 183.202 631.209 183.202V178.761Z" fill="#FED1A7"/>
<path d="M657.356 224.134C655.032 212.916 651.695 204.147 650.64 203.64L644.338 219.233C644.338 219.233 643.065 223.879 643.168 229.648H652.861C655.767 229.648 657.945 226.98 657.356 224.134Z" fill="#FF45C2"/>
<path d="M608.839 229.648C609.129 224.637 609.002 221.48 609.002 221.48L600.12 207.06C600.12 207.06 599.009 211.48 597.899 223.139C597.847 223.681 597.798 224.232 597.751 224.791C597.532 227.405 599.599 229.648 602.222 229.648H608.839Z" fill="#FF45C2"/>
<path d="M621.135 229.679H630.807L633.43 202.11C633.43 202.11 631.209 201.538 630.099 197.652C628.988 193.766 628.433 185.985 628.433 185.985L618.44 188.202C618.44 188.202 619.551 198.781 617.33 203.777L621.135 229.679Z" fill="#FED1A7"/>
<path d="M636.027 229.679L637.418 212.276C627.287 218.337 616.869 218.043 606.303 214.829L609.302 229.679H636.027Z" fill="#B1127C"/>
<path d="M623.509 229.648C620.507 215.168 617.33 199.318 617.33 199.318L615.665 202.641L600.12 207.095C600.881 210.647 603.205 220.423 605.542 229.648L623.509 229.648Z" fill="#FF45C2"/>
<path d="M645.721 229.648C646.549 225.213 647.279 221.75 647.279 221.75L650.64 203.64C649.582 202.582 632.986 200.306 632.986 200.306L631.209 197.654C631.209 197.654 628.993 213.765 627.099 229.648H645.721V229.648Z" fill="#FF45C2"/>
<path d="M613.444 170.988C613.444 170.988 612.889 184.312 614.555 186.533C616.22 188.753 618.441 193.75 622.327 194.305C626.213 194.86 632.32 183.757 632.32 183.202C632.32 182.647 631.765 168.213 631.765 168.213C631.765 168.213 620.106 158.775 613.444 170.988Z" fill="#FED1A7"/>
<path d="M611.223 168.767C611.223 168.767 609.003 175.429 615.665 173.209C622.327 170.988 622.327 170.988 622.327 170.988C622.327 170.988 628.989 167.102 630.099 168.768C631.209 170.433 632.32 174.535 632.32 174.535C632.32 174.535 634.54 168.768 632.32 165.437C630.099 162.105 616.22 159.33 611.223 168.767Z" fill="#6A0E4C"/>
</g>
<path d="M546.535 373.855C574.921 373.855 597.931 350.844 597.931 322.459C597.931 294.074 574.921 271.063 546.535 271.063C518.15 271.063 495.14 294.074 495.14 322.459C495.14 350.844 518.15 373.855 546.535 373.855Z" fill="#FB90F8"/>
<path d="M546.049 369.356C571.865 369.356 592.793 348.427 592.793 322.611C592.793 296.795 571.865 275.866 546.049 275.866C520.232 275.866 499.304 296.795 499.304 322.611C499.304 348.427 520.232 369.356 546.049 369.356Z" fill="white"/>
<mask id="mask2_5_2638" style="mask-type:luminance" maskUnits="userSpaceOnUse" x="499" y="276" width="95" height="94">
<path d="M546.316 369.722C572.133 369.722 593.061 348.794 593.061 322.977C593.061 297.161 572.133 276.232 546.316 276.232C520.5 276.232 499.571 297.161 499.571 322.977C499.571 348.794 520.5 369.722 546.316 369.722Z" fill="white"/>
</mask>
<g mask="url(#mask2_5_2638)">
<path d="M547.339 317.705C555.759 317.705 562.585 310.879 562.585 302.459C562.585 294.039 555.759 287.213 547.339 287.213C538.919 287.213 532.093 294.039 532.093 302.459C532.093 310.879 538.919 317.705 547.339 317.705Z" fill="#6A0E4C"/>
<path d="M532.695 298.201C525.99 321.39 521.43 342.471 522.17 348.399L541.72 346.334L543.987 303.442L532.695 298.201Z" fill="#6A0E4C"/>
<path d="M554.338 295.807L551.654 348.238L573.775 360.018C573.312 342.099 564.158 296.058 560.411 294.823L554.338 295.807Z" fill="#6A0E4C"/>
<path d="M554.342 324.201L554.986 338.481L541.136 340.566L540.264 325.576L554.342 324.201Z" fill="#FED1A7"/>
<path d="M560.911 315.602C560.911 315.602 557.591 330.427 548.611 332.208C539.629 333.989 536.969 320.022 536.495 319.017C536.495 319.017 534.487 319.965 534.036 317.968C533.585 315.971 531.216 310.95 535.684 311.052C535.684 311.052 534.805 306.065 536.351 303.617C537.897 301.169 541.011 295.28 547.431 296.917C553.85 298.554 564.112 303.956 560.911 315.602Z" fill="#FED1A7"/>
<path d="M554.771 333.707L563.554 338.365L552.051 350.986L530.786 337.61C534.025 336.401 537.21 334.776 540.12 334.292L554.771 333.707Z" fill="#FED1A7"/>
<path d="M536.187 297.79C533.185 301.988 535.545 305.712 534.739 308.726C537.646 307.669 547.464 306.09 550.419 306.38C551.03 304.372 549.83 301.03 549.216 298.396C550.175 300.897 552.366 304.726 552.133 306.702C556.101 306.884 555.289 306.939 559.749 308.726L556.276 296.618C548.544 293.006 541.866 293.466 536.187 297.79Z" fill="#6A0E4C"/>
<path d="M550.968 283.559C550.968 286.471 548.228 289.738 546.253 289.738C544.627 289.738 541.539 286.471 541.539 283.559C541.539 280.648 543.65 278.288 546.253 278.288C548.857 278.288 550.968 280.648 550.968 283.559Z" fill="#6A0E4C"/>
<path d="M569.856 369.965L574.691 343.067C568.113 338.592 562.015 336.463 554.77 333.717C552.524 338.386 542.265 337.924 540.12 334.297C533.297 336.029 526.802 339.233 520.523 343.381L527.141 369.965H569.856Z" fill="#FF45C2"/>
<path d="M583.119 365.208C579.203 348.462 574.691 343.067 574.691 343.067L567.456 365.084C567.456 365.084 568.327 366.841 569.473 369.965H579.341C581.837 369.965 583.688 367.64 583.119 365.208Z" fill="#FF45C2"/>
<path d="M527.62 369.965C528.421 367.09 529.489 364.072 530.876 360.98L520.524 343.388C520.524 343.388 515.418 352.257 513.727 365.617C513.435 367.926 515.244 369.965 517.572 369.965H527.62Z" fill="#FF45C2"/>
<path d="M555.822 296.888C560.952 309.858 563.514 346.44 560.38 365.787C565.285 348.899 571.394 327.476 562.06 298.671L555.822 296.888Z" fill="#6A0E4C"/>
</g>
<path d="M654.156 330.399C679.691 330.399 700.391 309.699 700.391 284.163C700.391 258.628 679.691 237.928 654.156 237.928C628.62 237.928 607.92 258.628 607.92 284.163C607.92 309.699 628.62 330.399 654.156 330.399Z" fill="#FB90F8"/>
<path d="M683.445 314.037C699.867 297.615 699.867 270.99 683.445 254.568C667.023 238.146 640.398 238.146 623.976 254.568C607.554 270.99 607.554 297.615 623.976 314.037C640.398 330.459 667.023 330.459 683.445 314.037Z" fill="white"/>
<mask id="mask3_5_2638" style="mask-type:luminance" maskUnits="userSpaceOnUse" x="611" y="242" width="86" height="85">
<path d="M683.686 314.367C700.108 297.945 700.108 271.32 683.686 254.898C667.264 238.476 640.639 238.476 624.217 254.898C607.795 271.32 607.795 297.945 624.217 314.367C640.639 330.789 667.264 330.789 683.686 314.367Z" fill="white"/>
</mask>
<g mask="url(#mask3_5_2638)">
<path d="M681.956 330.99C684.3 330.99 686.196 329.081 686.18 326.736C686.135 320.022 685.999 314.122 685.686 310.866C684.887 302.555 680.477 299.918 680.477 299.918L678.229 330.99H681.956Z" fill="#B1127C"/>
<path d="M671.105 330.99C670.777 313.583 670.454 299.187 670.454 299.187C662.573 294.337 633.471 294.946 633.471 294.946C633.471 294.946 631.45 311.738 629.146 330.99H671.105Z" fill="#FF45C2"/>
<path d="M623.043 330.99H650.126C649.255 322.575 642.262 291.442 642.262 291.442L620.539 298.09C620.539 298.09 622.254 317.501 622.254 323.564C622.254 324.952 622.644 327.647 623.043 330.99Z" fill="#B1127C"/>
<path d="M623.858 330.99C623.954 320.731 623.771 301.808 620.539 298.114C620.539 298.114 616.354 300.268 612.11 314.213C610.885 318.237 609.773 322.058 608.736 325.697C607.981 328.351 609.976 330.991 612.735 330.991L623.858 330.99Z" fill="#B1127C"/>
<path d="M679.66 330.989C680.442 316.234 681.124 300.512 680.476 299.864C679.264 298.651 664.695 293.895 664.695 293.895C664.695 293.895 655.203 322.92 652.998 330.989H679.66Z" fill="#B1127C"/>
<path d="M643.172 296.591L646.81 283.858H660.148L661.967 298.409C661.967 298.409 650.447 301.441 643.172 296.591Z" fill="#FED1A7"/>
<path d="M643.171 267.321C643.171 267.321 644.425 279.5 646.538 284.256C648.652 289.012 653.937 289.012 654.465 289.012C654.994 289.012 659.75 287.955 662.392 283.728C665.034 279.5 666.091 265.76 666.091 265.76C666.091 265.76 661.335 260.475 654.994 259.947C648.652 259.419 643.171 264.678 643.171 267.321Z" fill="#FED1A7"/>
<path d="M663.785 271.733C663.785 271.733 666.21 268.095 667.423 269.308C668.635 270.521 666.21 278.402 663.785 278.402C661.36 278.402 663.785 271.733 663.785 271.733Z" fill="#FED1A7"/>
<path d="M645.596 272.339C645.596 272.339 642.565 268.095 641.352 269.308C640.14 270.52 643.171 278.402 645.596 278.402V272.339Z" fill="#FED1A7"/>
<path d="M670.008 264.516C670.648 262.848 670.816 260.99 670.607 259.206C670.294 256.514 668.846 251.521 666.843 249.518C667.413 250.087 661.977 252.387 661.139 252.304C662.773 250.973 664.807 249.451 664.88 247.129C662.989 248.402 660.682 248.864 658.437 249.26C652.835 250.247 646.815 250.041 642.505 254.279C640.704 256.05 639.484 258.785 639.946 261.339C640.283 263.203 643.059 265.169 641.351 266.884C640.143 268.097 643.802 270.304 644.396 273.746C644.439 273.993 644.482 274.25 644.554 274.485C644.501 272.725 643.825 270.833 643.868 269.123C643.956 265.612 649.248 265.365 651.837 265.132C655.282 264.823 659.037 264.853 662.018 262.84C663.23 262.022 664 268.637 664.051 268.961C664.352 270.842 664.709 272.861 664.392 274.764L665.226 274.764C665.468 272.533 665.246 270.398 666.886 268.774C667.679 267.99 668.476 267.199 669.099 266.274C669.47 265.723 669.771 265.133 670.008 264.516Z" fill="#6A0E4C"/>
<path d="M646.162 286.123C645.7 288.911 645.557 290.256 644.671 292.94C643.87 295.361 644.459 298.736 644.507 301.282C644.574 304.836 647.337 308.725 646.731 312.22C645.184 307.873 640.463 304.492 638.046 300.433C635.685 296.469 633.999 293.269 636.697 289.526C638.371 287.205 646.198 285.906 646.162 286.123Z" fill="#B1127C"/>
<path d="M660.441 297.779C660.776 305.181 659.324 306.684 658.147 314.163C659.728 309.109 663.289 306.455 666.092 301.949C668.855 297.508 669.75 291.972 665.227 289.012C664.918 288.809 660.542 286.783 660.563 287.176C660.618 288.257 660.297 294.572 660.441 297.779Z" fill="#B1127C"/>
</g>
<path d="M236.648 348.694C254.158 348.694 268.353 334.499 268.353 316.989C268.353 299.478 254.158 285.283 236.648 285.283C219.137 285.283 204.942 299.478 204.942 316.989C204.942 334.499 219.137 348.694 236.648 348.694Z" fill="#CC2493"/>
<path d="M236.648 347.64C253.577 347.64 267.3 333.917 267.3 316.988C267.3 300.06 253.577 286.337 236.648 286.337C219.72 286.337 205.997 300.06 205.997 316.988C205.997 333.917 219.72 347.64 236.648 347.64Z" fill="#CC2493"/>
<path opacity="0.7" d="M208.393 315.777C208.388 315.777 208.383 315.777 208.378 315.777C208.218 315.768 208.095 315.631 208.103 315.472C208.166 314.269 208.306 313.061 208.518 311.881C208.547 311.724 208.697 311.619 208.855 311.647C209.013 311.676 209.118 311.827 209.09 311.984C208.881 313.14 208.744 314.324 208.683 315.502C208.674 315.657 208.546 315.777 208.393 315.777Z" fill="white"/>
<path opacity="0.7" d="M211.373 304.546C211.329 304.546 211.285 304.536 211.243 304.514C211.099 304.442 211.042 304.268 211.114 304.125C216.009 294.427 225.793 288.403 236.648 288.403C238.38 288.403 240.115 288.559 241.805 288.867C241.962 288.896 242.067 289.047 242.038 289.205C242.01 289.362 241.86 289.468 241.701 289.438C240.045 289.137 238.345 288.984 236.648 288.984C226.014 288.984 216.428 294.886 211.633 304.386C211.581 304.487 211.479 304.546 211.373 304.546Z" fill="white"/>
<path opacity="0.78" d="M255.656 335.999C265.787 325.868 265.787 309.442 255.656 299.311C245.525 289.18 229.099 289.18 218.968 299.311C208.837 309.442 208.837 325.868 218.968 335.999C229.099 346.13 245.525 346.13 255.656 335.999Z" fill="white"/>
<path d="M245.258 307.853C245.258 312.246 241.697 316.988 237.304 316.988C232.912 316.988 229.351 312.246 229.351 307.853C229.351 303.46 232.912 300.344 237.304 300.344C241.697 300.344 245.258 303.46 245.258 307.853Z" fill="#CC2493"/>
<path d="M227.434 333.901H246.851C248.895 333.901 250.704 332.58 251.327 330.633L252.372 327.368C253.137 324.976 251.893 322.388 249.536 321.526C241.634 318.637 233.463 319.007 225.093 321.792C222.748 322.572 221.447 325.081 222.094 327.466L222.899 330.431C223.454 332.479 225.313 333.901 227.434 333.901Z" fill="#CC2493"/>
<path d="M293.852 299.434C311.362 299.434 325.558 285.238 325.558 267.728C325.558 250.218 311.362 236.022 293.852 236.022C276.342 236.022 262.146 250.218 262.146 267.728C262.146 285.238 276.342 299.434 293.852 299.434Z" fill="#CC2493"/>
<path d="M293.852 298.379C310.78 298.379 324.503 284.656 324.503 267.728C324.503 250.799 310.78 237.076 293.852 237.076C276.923 237.076 263.2 250.799 263.2 267.728C263.2 284.656 276.923 298.379 293.852 298.379Z" fill="#CC2493"/>
<path opacity="0.7" d="M265.597 266.517C265.592 266.517 265.587 266.517 265.582 266.517C265.422 266.508 265.299 266.372 265.307 266.212C265.37 265.009 265.509 263.801 265.722 262.621C265.751 262.464 265.901 262.359 266.059 262.387C266.217 262.416 266.322 262.567 266.293 262.725C266.085 263.881 265.948 265.064 265.886 266.242C265.879 266.397 265.75 266.517 265.597 266.517Z" fill="white"/>
<path opacity="0.7" d="M268.577 255.286C268.533 255.286 268.489 255.276 268.447 255.255C268.303 255.182 268.246 255.008 268.318 254.865C273.213 245.168 282.997 239.144 293.852 239.144C295.584 239.144 297.319 239.3 299.009 239.607C299.166 239.636 299.271 239.787 299.242 239.945C299.214 240.103 299.064 240.209 298.905 240.178C297.249 239.877 295.549 239.724 293.852 239.724C283.218 239.724 273.632 245.626 268.837 255.126C268.785 255.227 268.683 255.286 268.577 255.286Z" fill="white"/>
<path opacity="0.78" d="M312.86 286.739C322.991 276.608 322.991 260.183 312.86 250.052C302.729 239.92 286.303 239.92 276.172 250.052C266.041 260.183 266.041 276.608 276.172 286.739C286.303 296.871 302.729 296.871 312.86 286.739Z" fill="white"/>
<path d="M302.462 258.593C302.462 262.986 298.901 267.728 294.508 267.728C290.116 267.728 286.555 262.986 286.555 258.593C286.555 254.2 290.116 251.084 294.508 251.084C298.901 251.084 302.462 254.2 302.462 258.593Z" fill="#CC2493"/>
<path d="M284.638 284.64H304.054C306.098 284.64 307.908 283.319 308.531 281.372L309.575 278.107C310.34 275.716 309.097 273.127 306.739 272.265C298.837 269.376 290.666 269.746 282.296 272.531C279.952 273.312 278.65 275.82 279.297 278.205L280.102 281.171C280.657 283.218 282.516 284.64 284.638 284.64Z" fill="#CC2493"/>
<path d="M305.546 372.756C323.057 372.756 337.252 358.561 337.252 341.05C337.252 323.54 323.057 309.345 305.546 309.345C288.036 309.345 273.841 323.54 273.841 341.05C273.841 358.561 288.036 372.756 305.546 372.756Z" fill="#CC2493"/>
<path d="M305.546 371.701C322.474 371.701 336.197 357.978 336.197 341.05C336.197 324.122 322.474 310.398 305.546 310.398C288.618 310.398 274.895 324.122 274.895 341.05C274.895 357.978 288.618 371.701 305.546 371.701Z" fill="#CC2493"/>
<path opacity="0.7" d="M277.291 339.838C277.286 339.838 277.281 339.838 277.276 339.838C277.116 339.83 276.993 339.693 277.001 339.533C277.064 338.331 277.204 337.123 277.417 335.943C277.445 335.785 277.595 335.68 277.754 335.709C277.912 335.737 278.016 335.888 277.988 336.046C277.78 337.202 277.643 338.385 277.581 339.564C277.573 339.718 277.445 339.838 277.291 339.838Z" fill="white"/>
<path opacity="0.7" d="M280.272 328.608C280.228 328.608 280.183 328.598 280.141 328.577C279.998 328.505 279.94 328.33 280.013 328.187C284.908 318.49 294.691 312.466 305.547 312.466C307.278 312.466 309.013 312.622 310.703 312.93C310.861 312.958 310.965 313.11 310.937 313.267C310.908 313.425 310.758 313.531 310.599 313.501C308.944 313.199 307.244 313.046 305.547 313.046C294.912 313.046 285.327 318.948 280.531 328.449C280.48 328.55 280.378 328.608 280.272 328.608Z" fill="white"/>
<path opacity="0.78" d="M306.214 367.66C320.542 367.66 332.157 356.046 332.157 341.718C332.157 327.39 320.542 315.775 306.214 315.775C291.886 315.775 280.271 327.39 280.271 341.718C280.271 356.046 291.886 367.66 306.214 367.66Z" fill="white"/>
<path d="M314.157 331.915C314.157 336.308 310.596 341.051 306.203 341.051C301.81 341.051 298.249 336.308 298.249 331.915C298.249 327.523 301.81 324.406 306.203 324.406C310.595 324.406 314.157 327.523 314.157 331.915Z" fill="#CC2493"/>
<path d="M296.332 357.962H315.749C317.793 357.962 319.602 356.641 320.225 354.695L321.27 351.429C322.035 349.038 320.791 346.449 318.433 345.587C310.531 342.698 302.361 343.069 293.991 345.854C291.646 346.634 290.345 349.142 290.992 351.527L291.796 354.493C292.352 356.541 294.211 357.962 296.332 357.962Z" fill="#CC2493"/>
<path d="M357.842 339.79C357.842 339.79 349.083 344.051 347.472 348.945C346.18 352.872 336.495 353.378 335.538 361.101C335.044 365.089 332.093 368.282 328.122 368.891C318.23 370.407 302.985 375.544 300.546 392.719C298.685 405.828 305.367 410.799 312.381 412.519C317.532 413.783 320.955 418.793 319.913 423.994C318.914 428.982 320.404 434.749 329.046 439.309C348.411 449.527 367.75 415.1 367.75 415.1L371.714 354.989L357.842 339.79Z" fill="#6A0E4C"/>
<path d="M463.215 325.54C463.215 325.54 424.549 386.698 378.571 398.511C378.571 398.511 387.53 424.028 394.445 426.948C394.445 426.948 451.011 379.75 465.547 334.231L463.215 325.54Z" fill="#FED1A7"/>
<path d="M278.243 716.707L276.99 727.008C276.752 728.963 275.213 730.508 273.257 730.731C269.955 731.109 264.655 731.495 259.47 730.947C257.194 730.707 255.716 728.402 256.409 726.221C257.673 722.244 259.986 716.274 263.32 712.761H274.748C276.861 712.761 278.498 714.609 278.243 716.707Z" fill="#6A0E4C"/>
<path d="M367.751 596.026L369.68 607.373C369.68 607.373 363.22 672.801 362.071 698.972C361.891 703.076 362.953 707.13 365.106 710.628L376.338 728.867L347.792 712.023L347.224 708.539L351.897 702.114L345.776 628.818C345.417 624.512 346.305 620.194 348.335 616.38L354.24 605.288L367.751 596.026Z" fill="#FED1A7"/>
<path d="M378.218 731.509H369.108C367.403 731.509 365.795 730.726 364.755 729.375C361.915 725.685 356.032 718.485 353.218 718.297C349.431 718.044 349.916 731.509 349.916 731.509H347.793L345.104 714.778C344.427 710.568 346.52 706.398 350.3 704.426C350.3 704.426 351.166 710.828 355.861 713.66C360.555 716.492 374.963 726.635 374.963 726.635C374.963 726.635 376.728 726.383 378.666 726.733C381.54 727.253 381.138 731.509 378.218 731.509Z" fill="#6A0E4C"/>
<path d="M328.653 601.416C328.653 601.416 290.812 673.196 284.796 689.585C278.781 705.974 276.674 719.646 276.593 720.94C276.467 722.963 273.951 724.904 267.015 724.904C263.436 724.904 261.683 723.469 260.824 722.08C260.092 720.895 260.054 719.412 260.671 718.164C262.86 713.734 269.807 699.577 272.379 693.156C275.451 685.49 282.058 650.747 285.682 638.668C289.305 626.589 293.401 613.485 309.181 601.416C309.181 601.416 320.014 590.806 328.653 601.416Z" fill="#FED1A7"/>
<path d="M352.558 483.799C362.319 442.436 337.591 419.042 337.591 419.042C353.194 404.065 381.622 397.25 381.622 397.25C381.622 397.25 408.749 417.082 405.531 432.605C403.645 441.704 386.464 487.102 386.464 487.102C386.464 487.102 370.576 494.621 352.558 483.799Z" fill="#FC4FC3"/>
<path d="M330.915 504.276C334.887 492.309 352.557 483.799 352.557 483.799C370.575 494.621 386.463 487.102 386.463 487.102C386.463 487.102 390.026 500.721 387.567 513.377C385.108 526.033 369.679 607.372 369.679 607.372C345.369 612.298 307.979 602.416 307.979 602.416C323.464 574.925 326.942 516.244 330.915 504.276Z" fill="#A51F78"/>
<path d="M363.888 369.917L355.952 405.564C355.192 408.704 358.054 408.19 361.229 407.592C366.428 406.611 373.128 404.593 375.368 400.547C375.596 400.136 375.71 399.67 375.774 399.204L379.184 374.485C379.454 372.524 378.394 370.621 376.584 369.819L370.005 366.901C367.472 365.778 364.54 367.223 363.888 369.917Z" fill="#FED1A7"/>
<path d="M379.088 337.42C379.088 337.42 387.537 343.14 391.168 357.704C394.798 372.269 388.898 377.493 382.851 377.173C376.803 376.853 368.034 374.983 360.436 364.534C352.839 354.085 368.017 330.432 379.088 337.42Z" fill="#FED1A7"/>
<path d="M368.099 358.659C368.099 358.659 365.003 337.789 382.33 340.981L385.834 344.629C385.834 344.629 394.315 335.078 384.929 327.858C375.544 320.638 362.519 322.487 355.313 335.631C348.108 348.775 345.492 358.011 351.532 366.179C357.572 374.347 362.115 367.341 362.115 367.341C362.115 367.341 359.345 360.272 361.643 357.239C363.942 354.205 366.907 359.003 366.907 359.003L368.099 358.659Z" fill="#6A0E4C"/>
<path d="M365.731 360.446C365.731 360.446 364.202 349.709 358.719 352.778C353.235 355.848 360.695 362.809 363.686 365.177L365.731 360.446Z" fill="#FED1A7"/>
<path d="M462.949 338.13C463.066 339.392 458.375 340.264 456.882 334.886C457.292 332.55 458.021 322.326 459.811 320.737C469.347 312.276 486.35 302.759 486.35 302.759C488.251 305.662 485.758 307.574 485.758 307.574L477.27 313.302C478.156 316.235 479.448 318.827 479.594 322.175C479.704 324.711 478.768 327.193 477.085 329.116C475.396 331.046 473.122 333.538 471.072 335.43C467.192 339.011 462.949 338.13 462.949 338.13Z" fill="#FED1A7"/>
<path d="M467.559 333.962L466.262 333.428C466.434 333.008 470.508 323.111 472.477 321.052C473.226 320.271 473.587 319.602 473.554 319.062C473.537 318.771 473.393 318.482 473.119 318.189L466.251 321.862L463.217 326.611L462.035 325.855L465.265 320.796L473.31 316.495L473.673 316.791C474.487 317.456 474.907 318.17 474.955 318.976C475.014 319.936 474.536 320.932 473.493 322.023C472.008 323.573 468.706 331.166 467.559 333.962Z" fill="#FED1A7"/>
<path d="M361.402 505.62C361.456 505.622 361.51 505.624 361.565 505.623L432.464 505.547C434.217 505.545 435.636 504.138 435.634 502.404C435.633 500.669 434.205 499.236 432.457 499.267L361.558 499.344C359.805 499.345 358.386 500.752 358.388 502.487C358.39 504.167 359.725 505.537 361.402 505.62Z" fill="#2A8CEA"/>
<path d="M496.199 441.928H437.154C432.798 441.928 428.833 444.415 426.975 448.313L399.679 505.583H473.056C475.863 505.583 478.385 503.886 479.417 501.303L500.584 448.308C501.807 445.246 499.527 441.928 496.199 441.928Z" fill="#2A8CEA"/>
<path d="M463.407 474.159C464.702 470.231 463.776 466.395 461.338 465.592C458.901 464.788 455.875 467.321 454.58 471.25C453.286 475.178 454.212 479.014 456.65 479.817C459.087 480.62 462.113 478.087 463.407 474.159Z" fill="#FB90F8"/>
<path d="M337.489 419.128C327.815 428.89 315.541 472.159 321.631 479.386C326.993 487.8 345.249 499.252 362.633 499.268H388.282C377.505 487.816 370.084 484.912 361.245 492.919C354.232 489.923 345.138 478.315 339.069 473.132C336.685 471.097 336.123 467.626 337.717 464.928C342.539 456.765 348.586 448.372 350.509 440.244C350.922 430.718 343.873 419.815 337.489 419.128Z" fill="#FED1A7"/>
<path d="M465.05 734.442C464.362 734.401 463.724 734.088 463.273 733.566C456.697 725.968 408.542 666.254 462 604.342C512.747 545.568 536.769 532.478 537.663 500.12C537.767 496.342 542.768 495.061 544.69 498.316C559.055 522.642 582.907 580.135 521.549 623.66C453.864 671.674 463.192 718.027 467.62 731.066C468.206 732.789 466.867 734.552 465.05 734.442Z" fill="#EA3AB0"/>
<path d="M473.932 734.978C472.303 734.88 470.931 733.732 470.562 732.142C468.046 721.318 460.813 680.708 490.145 667.589C522.435 653.148 551.553 682.042 574.13 656.016C575.317 654.646 577.559 655.593 577.387 657.398C576.164 670.199 568.695 700.197 526.107 709.322C480.524 719.089 475.739 724.762 477.161 731.246C477.6 733.246 475.975 735.101 473.932 734.978Z" fill="#EA3AB0"/>
<path d="M538.52 532.978C538.136 535.402 537.556 537.694 536.83 539.98C536.12 542.262 535.273 544.499 534.332 546.697C532.472 551.104 530.159 555.315 527.584 559.355C522.393 567.419 515.923 574.645 508.664 580.907C505.043 584.021 501.14 586.926 497.264 589.577C493.492 592.161 489.889 595.006 486.462 598.052C479.603 604.142 473.489 611.071 468.194 618.562C457.648 633.551 450.692 651.206 449.344 669.548C448.64 678.7 449.321 687.966 451.253 696.996C453.171 706.039 456.448 714.788 460.53 723.155C460.75 723.601 460.567 724.141 460.121 724.361C459.693 724.573 459.174 724.406 458.939 723.998C454.283 715.776 450.602 706.94 448.238 697.709C447.038 693.099 446.178 688.391 445.677 683.636C445.204 678.881 445.045 674.082 445.289 669.296C445.729 659.719 447.708 650.221 450.905 641.18C454.114 632.133 458.607 623.571 464.013 615.662C469.417 607.743 475.835 600.539 482.963 594.131C486.535 590.933 490.296 587.94 494.252 585.207C498.128 582.578 501.796 579.928 505.319 576.959C512.354 571.09 518.763 564.443 524.148 557.003C526.879 553.31 529.31 549.395 531.494 545.34C533.629 541.281 535.59 537.02 536.904 532.668L536.921 532.612C537.052 532.177 537.511 531.931 537.945 532.063C538.343 532.183 538.583 532.578 538.52 532.978Z" fill="#FFCDFF"/>
<path d="M471.461 727.695C471.572 727.288 471.501 726.923 471.459 726.545L471.339 725.419L471.143 723.165C471.033 721.661 470.952 720.155 470.905 718.648C470.813 715.633 470.844 712.613 471.021 709.596C471.392 703.572 472.296 697.525 474.282 691.744C476.244 686.005 479.449 680.419 484.419 676.553C486.897 674.653 489.745 673.218 492.745 672.373C495.741 671.502 498.862 671.172 501.941 671.211C514.034 671.7 525.959 673.115 537.881 674.095C543.816 674.529 549.827 674.863 555.529 673.642C556.945 673.324 558.333 672.906 559.67 672.362C560.99 671.787 562.281 671.132 563.471 670.31C565.869 668.69 567.925 666.569 569.731 664.251L569.736 664.244C569.985 663.924 570.445 663.867 570.765 664.116C571.08 664.361 571.139 664.813 570.902 665.132C569.08 667.579 566.96 669.874 564.416 671.673C563.154 672.585 561.774 673.326 560.359 673.976C558.929 674.594 557.446 675.076 555.942 675.446C549.873 676.807 543.733 676.5 537.735 676.132C531.718 675.733 525.757 675.071 519.786 674.56C513.833 674.045 507.814 673.567 501.906 673.32C498.994 673.258 496.076 673.546 493.3 674.326C490.518 675.084 487.901 676.376 485.603 678.104C480.968 681.57 477.808 686.768 475.811 692.287C473.788 697.835 472.783 703.753 472.31 709.684C472.08 712.654 471.995 715.639 472.032 718.623C472.051 720.115 472.103 721.606 472.185 723.097L472.338 725.329L472.436 726.442C472.474 726.81 472.485 727.191 472.693 727.527C472.891 727.847 472.792 728.266 472.472 728.464C472.152 728.661 471.733 728.562 471.535 728.243C471.433 728.076 471.41 727.883 471.457 727.708L471.461 727.695Z" fill="#FFCDFF"/>
</g>
<defs>
<clipPath id="clip0_5_2638">
<rect width="838" height="838" fill="white"/>
</clipPath>
</defs>
</svg>
