<svg width="500" height="500" viewBox="0 0 500 500" fill="none" xmlns="http://www.w3.org/2000/svg">
<path d="M500 382.4H0V382.65H500V382.4Z" fill="#EBEBEB"/>
<path d="M449.9 398.49H416.78V398.74H449.9V398.49Z" fill="#EBEBEB"/>
<path d="M331.22 401.211H322.53V401.461H331.22V401.211Z" fill="#EBEBEB"/>
<path d="M415.78 389.211H396.59V389.461H415.78V389.211Z" fill="#EBEBEB"/>
<path d="M95.65 390.891H52.46V391.141H95.65V390.891Z" fill="#EBEBEB"/>
<path d="M110.89 390.891H104.56V391.141H110.89V390.891Z" fill="#EBEBEB"/>
<path d="M225.15 395.109H131.47V395.359H225.15V395.109Z" fill="#EBEBEB"/>
<path d="M237 337.8H43.91C42.3973 337.797 40.9475 337.195 39.8788 336.124C38.8102 335.054 38.21 333.603 38.21 332.09V60.66C38.2231 59.156 38.8292 57.718 39.8964 56.6582C40.9637 55.5985 42.4059 55.0026 43.91 55H237C238.514 55 239.967 55.6016 241.038 56.6724C242.108 57.7433 242.71 59.1956 242.71 60.71V332.09C242.71 333.604 242.108 335.057 241.038 336.128C239.967 337.198 238.514 337.8 237 337.8ZM43.91 55.2C42.4636 55.2026 41.0774 55.7791 40.0556 56.8027C39.0338 57.8264 38.46 59.2136 38.46 60.66V332.09C38.46 333.536 39.0338 334.924 40.0556 335.947C41.0774 336.971 42.4636 337.547 43.91 337.55H237C238.447 337.547 239.834 336.971 240.858 335.948C241.881 334.924 242.457 333.537 242.46 332.09V60.66C242.457 59.2127 241.881 57.8255 240.858 56.8021C239.834 55.7787 238.447 55.2026 237 55.2H43.91Z" fill="#EBEBEB"/>
<path d="M453.31 337.8H260.21C258.696 337.797 257.246 337.195 256.175 336.125C255.105 335.054 254.503 333.604 254.5 332.09V60.66C254.516 59.1551 255.124 57.7171 256.193 56.6576C257.262 55.5981 258.705 55.0025 260.21 55H453.31C454.812 55.0052 456.252 55.6022 457.317 56.6617C458.382 57.7212 458.987 59.1578 459 60.66V332.09C459 333.601 458.401 335.05 457.335 336.121C456.268 337.191 454.821 337.795 453.31 337.8ZM260.21 55.2C258.763 55.2026 257.375 55.7787 256.352 56.8021C255.329 57.8255 254.753 59.2127 254.75 60.66V332.09C254.753 333.537 255.329 334.924 256.352 335.948C257.375 336.971 258.763 337.547 260.21 337.55H453.31C454.757 337.547 456.145 336.971 457.168 335.948C458.191 334.924 458.767 333.537 458.77 332.09V60.66C458.767 59.2127 458.191 57.8255 457.168 56.8021C456.145 55.7787 454.757 55.2026 453.31 55.2H260.21Z" fill="#EBEBEB"/>
<path d="M237 181.11V198.67L246 199.52C247.207 205.307 249.498 210.814 252.75 215.75L246.94 222.75L259.36 235.17L266.36 229.36C271.293 232.61 276.797 234.896 282.58 236.1L283.43 245.1H301.1L301.95 236.1C307.736 234.896 313.243 232.61 318.18 229.36L325.18 235.17L337.6 222.75L331.79 215.75C335.039 210.813 337.326 205.307 338.53 199.52L347.58 198.67V181.11L338.53 180.25C337.334 174.459 335.054 168.945 331.81 164L337.62 157L325.2 144.59L318.2 150.4C313.27 147.156 307.775 144.866 302 143.65L301.15 134.65H283.53L282.68 143.65C276.898 144.862 271.395 147.152 266.46 150.4L259.46 144.59L247 157L252.81 164C249.561 168.935 247.271 174.438 246.06 180.22L237 181.11ZM292.28 166.11C296.983 166.11 301.581 167.505 305.491 170.118C309.402 172.731 312.45 176.445 314.25 180.79C316.05 185.135 316.521 189.917 315.603 194.53C314.686 199.143 312.421 203.38 309.095 206.705C305.769 210.031 301.532 212.296 296.919 213.213C292.306 214.131 287.525 213.66 283.18 211.86C278.835 210.06 275.121 207.012 272.508 203.102C269.895 199.191 268.5 194.594 268.5 189.89C268.5 186.764 269.116 183.669 270.314 180.781C271.512 177.893 273.267 175.27 275.479 173.061C277.692 170.853 280.318 169.102 283.207 167.909C286.097 166.716 289.194 166.105 292.32 166.11H292.28Z" fill="#F0F0F0"/>
<path d="M207.36 259.711L212.36 263.891L221.29 254.961L217.11 249.961C219.467 246.406 221.127 242.436 222 238.261L228.5 237.651V225.001L222 224.391C221.134 220.233 219.488 216.276 217.15 212.731L221.33 207.731L212.4 198.801L207.4 202.981C203.852 200.646 199.896 199.001 195.74 198.131L195.13 191.631H182.47L181.86 198.131C177.701 199.007 173.746 200.659 170.2 203.001L165.2 198.821L156.27 207.751L160.45 212.751C158.111 216.296 156.465 220.253 155.6 224.411L149.1 225.021V237.641L155.6 238.251C156.465 242.409 158.111 246.365 160.45 249.911L156.27 254.911L165.2 263.841L170.2 259.661C173.747 261.995 177.703 263.641 181.86 264.511L182.47 271.011H195.09L195.7 264.511C199.853 263.656 203.808 262.028 207.36 259.711ZM171.7 231.341C171.7 227.96 172.702 224.656 174.58 221.845C176.459 219.034 179.128 216.844 182.252 215.551C185.375 214.258 188.812 213.92 192.127 214.58C195.443 215.24 198.488 216.869 200.878 219.26C203.267 221.651 204.894 224.697 205.552 228.013C206.211 231.329 205.871 234.765 204.576 237.888C203.281 241.01 201.089 243.679 198.277 245.556C195.465 247.432 192.16 248.433 188.78 248.431C186.536 248.431 184.314 247.989 182.241 247.13C180.168 246.271 178.285 245.012 176.699 243.425C175.113 241.838 173.855 239.954 172.997 237.88C172.139 235.807 171.698 233.585 171.7 231.341Z" fill="#F5F5F5"/>
<path d="M263.45 345.2C268.4 344.171 273.11 342.214 277.33 339.43L283.33 344.43L294 333.78L289 327.78C291.784 323.56 293.742 318.85 294.77 313.9L302.51 313.18V298.18L294.77 297.45C293.746 292.487 291.788 287.763 289 283.53L294 277.53L283.34 266.9L277.34 271.9C273.118 269.122 268.409 267.164 263.46 266.13L262.73 258.4H247.73L247 266.1C242.052 267.134 237.343 269.092 233.12 271.87L227.12 266.87L216.49 277.5L221.49 283.5C218.712 287.723 216.754 292.432 215.72 297.38L207.98 298.11V313.11L215.72 313.83C216.753 318.779 218.71 323.488 221.49 327.71L216.49 333.71L227.12 344.33L233.12 339.33C237.333 342.149 242.044 344.141 247 345.2L247.73 352.94H262.73L263.45 345.2ZM234.87 305.65C234.872 301.628 236.067 297.696 238.303 294.353C240.539 291.009 243.717 288.404 247.434 286.866C251.15 285.328 255.24 284.926 259.185 285.712C263.13 286.498 266.753 288.436 269.597 291.281C272.44 294.126 274.376 297.751 275.16 301.696C275.944 305.641 275.541 309.73 274.001 313.446C272.461 317.163 269.854 320.339 266.51 322.573C263.165 324.808 259.233 326 255.21 326C252.539 326 249.893 325.474 247.424 324.451C244.956 323.428 242.713 321.929 240.824 320.039C238.936 318.15 237.437 315.906 236.416 313.437C235.394 310.968 234.869 308.322 234.87 305.65Z" fill="#FAFAFA"/>
<path d="M141.464 163.368L95.4609 157.083L89.1757 203.086L135.178 209.371L141.464 163.368Z" fill="#F5F5F5"/>
<path d="M102.227 169.698L101.821 172.67L131.773 176.762L132.179 173.79L102.227 169.698Z" fill="#E0E0E0"/>
<path d="M100.948 179.028L100.542 182L130.494 186.092L130.9 183.12L100.948 179.028Z" fill="#E0E0E0"/>
<path d="M99.6385 188.672L99.2324 191.645L116.869 194.054L117.275 191.082L99.6385 188.672Z" fill="#E0E0E0"/>
<path d="M399.02 112.267L352.59 112.429L352.752 158.858L399.182 158.696L399.02 112.267Z" fill="#F0F0F0"/>
<path d="M391.301 123.805L361.071 123.916L361.082 126.916L391.312 126.805L391.301 123.805Z" fill="#E0E0E0"/>
<path d="M391.346 133.225L361.116 133.336L361.127 136.336L391.357 136.225L391.346 133.225Z" fill="#E0E0E0"/>
<path d="M378.941 143.01L361.142 143.075L361.153 146.075L378.952 146.01L378.941 143.01Z" fill="#E0E0E0"/>
<path d="M426.883 225.499L380.821 231.334L386.657 277.396L432.718 271.561L426.883 225.499Z" fill="#F5F5F5"/>
<path d="M420.647 237.943L390.656 241.742L391.033 244.718L421.024 240.919L420.647 237.943Z" fill="#E0E0E0"/>
<path d="M421.831 247.281L391.841 251.08L392.218 254.056L422.208 250.257L421.831 247.281Z" fill="#E0E0E0"/>
<path d="M410.721 258.501L393.062 260.738L393.44 263.714L411.098 261.477L410.721 258.501Z" fill="#E0E0E0"/>
<path d="M179.907 300.26L133.478 300.422L133.64 346.852L180.069 346.69L179.907 300.26Z" fill="#F0F0F0"/>
<path d="M172.242 311.836L142.013 311.947L142.024 314.947L172.253 314.836L172.242 311.836Z" fill="#E0E0E0"/>
<path d="M172.277 321.256L142.047 321.367L142.058 324.367L172.288 324.256L172.277 321.256Z" fill="#E0E0E0"/>
<path d="M159.883 331.042L142.083 331.107L142.094 334.107L159.894 334.042L159.883 331.042Z" fill="#E0E0E0"/>
<path d="M384.976 322.994L338.546 323.156L338.708 369.586L385.138 369.424L384.976 322.994Z" fill="#F0F0F0"/>
<path d="M377.304 334.536L347.074 334.646L347.085 337.646L377.315 337.536L377.304 334.536Z" fill="#E0E0E0"/>
<path d="M377.348 343.956L347.118 344.066L347.129 347.066L377.359 346.956L377.348 343.956Z" fill="#E0E0E0"/>
<path d="M364.944 353.739L347.145 353.805L347.156 356.805L364.955 356.739L364.944 353.739Z" fill="#E0E0E0"/>
<path d="M189.325 109.234L143.999 119.299L154.064 164.625L199.39 154.56L189.325 109.234Z" fill="#F0F0F0"/>
<path d="M184.249 122.225L154.738 128.778L155.389 131.707L184.9 125.154L184.249 122.225Z" fill="#E0E0E0"/>
<path d="M186.295 131.424L156.784 137.978L157.435 140.906L186.946 134.353L186.295 131.424Z" fill="#E0E0E0"/>
<path d="M176.269 143.621L158.893 147.479L159.543 150.408L176.92 146.549L176.269 143.621Z" fill="#E0E0E0"/>
<path d="M99.2398 162.1H98.4098L97.2598 156.8H100.38L99.2398 162.1Z" fill="#E0E0E0"/>
<path d="M98.8196 160.79C101.15 160.79 103.04 159.299 103.04 157.46C103.04 155.621 101.15 154.13 98.8196 154.13C96.489 154.13 94.5996 155.621 94.5996 157.46C94.5996 159.299 96.489 160.79 98.8196 160.79Z" fill="#E6E6E6"/>
<path d="M184.07 115.83H183.24L182.1 110.54H185.22L184.07 115.83Z" fill="#E0E0E0"/>
<path d="M183.66 114.53C185.996 114.53 187.89 113.039 187.89 111.2C187.89 109.361 185.996 107.87 183.66 107.87C181.324 107.87 179.43 109.361 179.43 111.2C179.43 113.039 181.324 114.53 183.66 114.53Z" fill="#E6E6E6"/>
<path d="M375.14 117.16H374.31L373.16 111.87H376.28L375.14 117.16Z" fill="#E0E0E0"/>
<path d="M374.72 115.86C377.051 115.86 378.94 114.369 378.94 112.53C378.94 110.691 377.051 109.2 374.72 109.2C372.389 109.2 370.5 110.691 370.5 112.53C370.5 114.369 372.389 115.86 374.72 115.86Z" fill="#E6E6E6"/>
<path d="M422.6 232.149H421.77L420.63 226.859H423.75L422.6 232.149Z" fill="#E0E0E0"/>
<path d="M422.19 230.849C424.52 230.849 426.41 229.359 426.41 227.519C426.41 225.68 424.52 224.189 422.19 224.189C419.859 224.189 417.97 225.68 417.97 227.519C417.97 229.359 419.859 230.849 422.19 230.849Z" fill="#E6E6E6"/>
<path d="M362.59 328.271H361.75L360.61 322.971H363.73L362.59 328.271Z" fill="#E0E0E0"/>
<path d="M362.17 326.961C364.501 326.961 366.39 325.47 366.39 323.631C366.39 321.792 364.501 320.301 362.17 320.301C359.84 320.301 357.95 321.792 357.95 323.631C357.95 325.47 359.84 326.961 362.17 326.961Z" fill="#E6E6E6"/>
<path d="M155.48 304.47H154.65L153.51 299.17H156.63L155.48 304.47Z" fill="#E0E0E0"/>
<path d="M155.07 303.16C157.4 303.16 159.29 301.669 159.29 299.83C159.29 297.991 157.4 296.5 155.07 296.5C152.739 296.5 150.85 297.991 150.85 299.83C150.85 301.669 152.739 303.16 155.07 303.16Z" fill="#E6E6E6"/>
<path d="M250 427.56C357.083 427.56 443.89 422.492 443.89 416.24C443.89 409.988 357.083 404.92 250 404.92C142.918 404.92 56.1104 409.988 56.1104 416.24C56.1104 422.492 142.918 427.56 250 427.56Z" fill="#F5F5F5"/>
<path d="M143.67 248.84C143.67 242.25 148 236.84 153.33 236.84C158.66 236.84 162.99 242.2 162.99 248.84C162.99 255.48 158.66 260.78 153.33 260.78C148 260.78 143.67 255.43 143.67 248.84ZM145.67 248.84C145.67 254.32 149.11 258.78 153.33 258.78C157.55 258.78 160.99 254.32 160.99 248.84C160.99 243.36 157.56 238.84 153.33 238.84C149.1 238.84 145.67 243.36 145.67 248.84Z" fill="#263238"/>
<path d="M124.659 248.84C124.659 242.25 128.989 236.84 134.319 236.84C139.649 236.84 143.979 242.2 143.979 248.84C143.979 255.48 139.649 260.78 134.319 260.78C128.989 260.78 124.659 255.43 124.659 248.84ZM126.659 248.84C126.659 254.32 130.089 258.78 134.319 258.78C138.549 258.78 141.979 254.32 141.979 248.84C141.979 243.36 138.539 238.84 134.319 238.84C130.099 238.84 126.659 243.36 126.659 248.84Z" fill="#263238"/>
<path d="M105.64 248.84C105.64 242.25 109.98 236.84 115.31 236.84C120.64 236.84 124.97 242.2 124.97 248.84C124.97 255.48 120.63 260.78 115.31 260.78C109.99 260.78 105.64 255.43 105.64 248.84ZM107.64 248.84C107.64 254.32 111.08 258.78 115.31 258.78C119.54 258.78 122.97 254.32 122.97 248.84C122.97 243.36 119.53 238.84 115.31 238.84C111.09 238.84 107.64 243.36 107.64 248.84Z" fill="#263238"/>
<path d="M86.6299 248.84C86.6299 242.25 90.9699 236.84 96.2999 236.84C101.63 236.84 105.96 242.2 105.96 248.84C105.96 255.48 101.62 260.78 96.2999 260.78C90.9799 260.78 86.6299 255.43 86.6299 248.84ZM88.6299 248.84C88.6299 254.32 92.0699 258.78 96.2999 258.78C100.53 258.78 103.96 254.32 103.96 248.84C103.96 243.36 100.52 238.84 96.2999 238.84C92.0799 238.84 88.6299 243.36 88.6299 248.84Z" fill="#263238"/>
<path d="M162.68 248.84C162.68 242.25 167.01 236.84 172.34 236.84C177.67 236.84 182.01 242.2 182.01 248.84C182.01 255.48 177.67 260.78 172.34 260.78C167.01 260.78 162.68 255.43 162.68 248.84ZM164.68 248.84C164.68 254.32 168.12 258.78 172.34 258.78C176.56 258.78 180.01 254.32 180.01 248.84C180.01 243.36 176.57 238.84 172.34 238.84C168.11 238.84 164.68 243.36 164.68 248.84Z" fill="#263238"/>
<path d="M74.0596 413.789H193.14L193.14 249.069L74.0596 249.069L74.0596 413.789Z" fill="#263238"/>
<path opacity="0.7" d="M74.0596 413.789H193.14L193.14 249.069L74.0596 249.069L74.0596 413.789Z" fill="white"/>
<path opacity="0.6" d="M84.7896 413.789H193.14L193.14 249.069H84.7896L84.7896 413.789Z" fill="white"/>
<path opacity="0.2" d="M77.6299 413.79L77.1299 259.85L76.6299 413.79H77.6299Z" fill="black"/>
<path opacity="0.2" d="M82.6094 413.789L82.1094 269.439L81.6094 413.789H82.6094Z" fill="black"/>
<path opacity="0.2" d="M79.1191 249.189L79.6191 364.919L80.1191 249.189H79.1191Z" fill="black"/>
<path d="M175.219 256.9C175.322 257.433 175.574 257.926 175.946 258.321C176.319 258.716 176.796 258.997 177.322 259.131C177.848 259.265 178.401 259.247 178.917 259.078C179.433 258.909 179.89 258.597 180.236 258.178C180.581 257.759 180.799 257.25 180.866 256.712C180.933 256.173 180.845 255.626 180.612 255.136C180.38 254.645 180.013 254.231 179.554 253.941C179.094 253.651 178.562 253.498 178.019 253.5C177.2 253.586 176.447 253.991 175.923 254.627C175.399 255.263 175.147 256.079 175.219 256.9Z" fill="#263238"/>
<path d="M178.2 257.91C178.343 257.908 178.483 257.876 178.613 257.816C178.742 257.756 178.857 257.668 178.95 257.56C180.965 255.104 182.048 252.016 182.01 248.84C182.01 242.25 177.67 236.84 172.34 236.84C168.42 236.84 164.91 239.74 163.41 244.21C163.368 244.335 163.351 244.466 163.36 244.598C163.369 244.729 163.403 244.857 163.462 244.975C163.52 245.093 163.601 245.199 163.701 245.285C163.8 245.372 163.915 245.438 164.04 245.48C164.165 245.522 164.296 245.539 164.428 245.53C164.559 245.521 164.687 245.486 164.805 245.428C164.923 245.369 165.029 245.288 165.115 245.189C165.202 245.09 165.268 244.975 165.31 244.85C166.53 241.2 169.31 238.85 172.31 238.85C176.54 238.85 179.98 243.32 179.98 248.85C180.022 251.545 179.112 254.169 177.41 256.26C177.282 256.405 177.2 256.584 177.172 256.775C177.144 256.966 177.172 257.161 177.252 257.336C177.332 257.512 177.462 257.66 177.625 257.764C177.787 257.867 177.977 257.922 178.17 257.92L178.2 257.91Z" fill="#263238"/>
<g opacity="0.4">
<path d="M178.2 257.91C178.343 257.908 178.483 257.876 178.613 257.816C178.742 257.756 178.857 257.668 178.95 257.56C180.965 255.104 182.048 252.016 182.01 248.84C182.01 242.25 177.67 236.84 172.34 236.84C168.42 236.84 164.91 239.74 163.41 244.21C163.368 244.335 163.351 244.466 163.36 244.598C163.369 244.729 163.403 244.857 163.462 244.975C163.52 245.093 163.601 245.199 163.701 245.285C163.8 245.372 163.915 245.438 164.04 245.48C164.165 245.522 164.296 245.539 164.428 245.53C164.559 245.521 164.687 245.486 164.805 245.428C164.923 245.369 165.029 245.288 165.115 245.189C165.202 245.09 165.268 244.975 165.31 244.85C166.53 241.2 169.31 238.85 172.31 238.85C176.54 238.85 179.98 243.32 179.98 248.85C180.022 251.545 179.112 254.169 177.41 256.26C177.282 256.405 177.2 256.584 177.172 256.775C177.144 256.966 177.172 257.161 177.252 257.336C177.332 257.512 177.462 257.66 177.625 257.764C177.787 257.867 177.977 257.922 178.17 257.92L178.2 257.91Z" fill="white"/>
</g>
<path d="M156.21 256.9C156.314 257.43 156.566 257.919 156.938 258.311C157.309 258.703 157.785 258.981 158.308 259.113C158.832 259.245 159.382 259.226 159.895 259.058C160.408 258.889 160.863 258.579 161.206 258.162C161.549 257.745 161.767 257.239 161.834 256.703C161.901 256.168 161.814 255.624 161.584 255.135C161.354 254.647 160.99 254.234 160.534 253.944C160.078 253.655 159.549 253.501 159.01 253.5C158.19 253.586 157.437 253.991 156.913 254.627C156.39 255.263 156.137 256.079 156.21 256.9Z" fill="#263238"/>
<path d="M159.179 257.91C159.324 257.91 159.466 257.879 159.598 257.818C159.729 257.758 159.845 257.67 159.939 257.56C161.951 255.103 163.031 252.015 162.989 248.84C162.989 242.25 158.659 236.84 153.329 236.84C149.399 236.84 145.899 239.74 144.399 244.21C144.314 244.462 144.333 244.737 144.451 244.975C144.569 245.213 144.777 245.395 145.029 245.48C145.281 245.565 145.556 245.546 145.795 245.428C146.033 245.31 146.214 245.102 146.299 244.85C147.519 241.2 150.299 238.85 153.299 238.85C157.529 238.85 160.959 243.32 160.959 248.85C161.005 251.544 160.099 254.168 158.399 256.26C158.272 256.404 158.19 256.582 158.161 256.772C158.133 256.962 158.16 257.156 158.239 257.332C158.318 257.507 158.446 257.655 158.608 257.76C158.769 257.864 158.957 257.92 159.149 257.92L159.179 257.91Z" fill="#263238"/>
<g opacity="0.4">
<path d="M159.179 257.91C159.324 257.91 159.466 257.879 159.598 257.818C159.729 257.758 159.845 257.67 159.939 257.56C161.951 255.103 163.031 252.015 162.989 248.84C162.989 242.25 158.659 236.84 153.329 236.84C149.399 236.84 145.899 239.74 144.399 244.21C144.314 244.462 144.333 244.737 144.451 244.975C144.569 245.213 144.777 245.395 145.029 245.48C145.281 245.565 145.556 245.546 145.795 245.428C146.033 245.31 146.214 245.102 146.299 244.85C147.519 241.2 150.299 238.85 153.299 238.85C157.529 238.85 160.959 243.32 160.959 248.85C161.005 251.544 160.099 254.168 158.399 256.26C158.272 256.404 158.19 256.582 158.161 256.772C158.133 256.962 158.16 257.156 158.239 257.332C158.318 257.507 158.446 257.655 158.608 257.76C158.769 257.864 158.957 257.92 159.149 257.92L159.179 257.91Z" fill="white"/>
</g>
<path d="M137.189 256.9C137.292 257.433 137.543 257.925 137.915 258.32C138.287 258.715 138.764 258.996 139.289 259.131C139.815 259.265 140.368 259.247 140.883 259.079C141.399 258.911 141.857 258.6 142.202 258.182C142.548 257.764 142.767 257.256 142.835 256.718C142.903 256.18 142.816 255.633 142.585 255.142C142.355 254.651 141.989 254.236 141.531 253.946C141.073 253.655 140.542 253.5 139.999 253.5C139.179 253.586 138.425 253.99 137.9 254.626C137.374 255.262 137.119 256.078 137.189 256.9Z" fill="#263238"/>
<path d="M140.169 257.91C140.314 257.91 140.456 257.879 140.588 257.818C140.719 257.758 140.835 257.67 140.929 257.56C142.923 255.096 143.985 252.009 143.929 248.84C143.929 242.25 139.599 236.84 134.269 236.84C130.339 236.84 126.839 239.74 125.339 244.21C125.297 244.335 125.28 244.466 125.288 244.598C125.297 244.729 125.332 244.858 125.39 244.976C125.449 245.094 125.53 245.199 125.629 245.286C125.729 245.372 125.844 245.438 125.969 245.48C126.094 245.522 126.226 245.539 126.357 245.531C126.489 245.522 126.617 245.487 126.735 245.429C126.853 245.37 126.958 245.289 127.045 245.19C127.131 245.09 127.197 244.975 127.239 244.85C128.459 241.2 131.239 238.85 134.239 238.85C138.459 238.85 141.899 243.32 141.899 248.85C141.947 251.546 141.036 254.172 139.329 256.26C139.202 256.405 139.119 256.584 139.091 256.775C139.063 256.966 139.091 257.161 139.171 257.336C139.252 257.512 139.381 257.66 139.544 257.764C139.707 257.867 139.896 257.922 140.089 257.92L140.169 257.91Z" fill="#263238"/>
<g opacity="0.4">
<path d="M140.169 257.91C140.314 257.91 140.456 257.879 140.588 257.818C140.719 257.758 140.835 257.67 140.929 257.56C142.923 255.096 143.985 252.009 143.929 248.84C143.929 242.25 139.599 236.84 134.269 236.84C130.339 236.84 126.839 239.74 125.339 244.21C125.297 244.335 125.28 244.466 125.288 244.598C125.297 244.729 125.332 244.858 125.39 244.976C125.449 245.094 125.53 245.199 125.629 245.286C125.729 245.372 125.844 245.438 125.969 245.48C126.094 245.522 126.226 245.539 126.357 245.531C126.489 245.522 126.617 245.487 126.735 245.429C126.853 245.37 126.958 245.289 127.045 245.19C127.131 245.09 127.197 244.975 127.239 244.85C128.459 241.2 131.239 238.85 134.239 238.85C138.459 238.85 141.899 243.32 141.899 248.85C141.947 251.546 141.036 254.172 139.329 256.26C139.202 256.405 139.119 256.584 139.091 256.775C139.063 256.966 139.091 257.161 139.171 257.336C139.252 257.512 139.381 257.66 139.544 257.764C139.707 257.867 139.896 257.922 140.089 257.92L140.169 257.91Z" fill="white"/>
</g>
<path d="M118.179 256.9C118.282 257.433 118.534 257.925 118.905 258.32C119.277 258.715 119.754 258.996 120.279 259.131C120.805 259.265 121.358 259.247 121.874 259.079C122.389 258.911 122.847 258.6 123.192 258.182C123.538 257.764 123.758 257.256 123.825 256.718C123.893 256.18 123.807 255.633 123.576 255.142C123.345 254.651 122.979 254.236 122.521 253.946C122.063 253.655 121.532 253.5 120.989 253.5C120.169 253.586 119.415 253.99 118.89 254.626C118.365 255.262 118.109 256.078 118.179 256.9Z" fill="#263238"/>
<path d="M121.16 257.91C121.304 257.91 121.447 257.879 121.578 257.818C121.709 257.758 121.826 257.67 121.92 257.56C123.914 255.096 124.976 252.009 124.92 248.84C124.92 242.25 120.58 236.84 115.26 236.84C111.33 236.84 107.83 239.74 106.33 244.21C106.277 244.336 106.251 244.472 106.253 244.609C106.255 244.746 106.285 244.881 106.342 245.006C106.398 245.131 106.48 245.243 106.582 245.335C106.683 245.427 106.802 245.497 106.932 245.541C107.062 245.585 107.199 245.602 107.336 245.59C107.472 245.579 107.605 245.54 107.726 245.475C107.847 245.41 107.953 245.321 108.038 245.214C108.123 245.106 108.185 244.982 108.22 244.85C109.44 241.2 112.22 238.85 115.22 238.85C119.44 238.85 122.88 243.32 122.88 248.85C122.922 251.545 122.012 254.169 120.31 256.26C120.182 256.405 120.099 256.584 120.071 256.775C120.043 256.966 120.071 257.161 120.152 257.336C120.232 257.512 120.361 257.66 120.524 257.764C120.687 257.867 120.877 257.922 121.07 257.92L121.16 257.91Z" fill="#263238"/>
<g opacity="0.4">
<path d="M121.16 257.91C121.304 257.91 121.447 257.879 121.578 257.818C121.709 257.758 121.826 257.67 121.92 257.56C123.914 255.096 124.976 252.009 124.92 248.84C124.92 242.25 120.58 236.84 115.26 236.84C111.33 236.84 107.83 239.74 106.33 244.21C106.277 244.336 106.251 244.472 106.253 244.609C106.255 244.746 106.285 244.881 106.342 245.006C106.398 245.131 106.48 245.243 106.582 245.335C106.683 245.427 106.802 245.497 106.932 245.541C107.062 245.585 107.199 245.602 107.336 245.59C107.472 245.579 107.605 245.54 107.726 245.475C107.847 245.41 107.953 245.321 108.038 245.214C108.123 245.106 108.185 244.982 108.22 244.85C109.44 241.2 112.22 238.85 115.22 238.85C119.44 238.85 122.88 243.32 122.88 248.85C122.922 251.545 122.012 254.169 120.31 256.26C120.182 256.405 120.099 256.584 120.071 256.775C120.043 256.966 120.071 257.161 120.152 257.336C120.232 257.512 120.361 257.66 120.524 257.764C120.687 257.867 120.877 257.922 121.07 257.92L121.16 257.91Z" fill="white"/>
</g>
<path d="M99.1699 256.9C99.1699 258.78 100.43 260.3 101.97 260.3C102.762 260.15 103.478 259.729 103.992 259.108C104.507 258.487 104.788 257.706 104.788 256.9C104.788 256.094 104.507 255.313 103.992 254.692C103.478 254.071 102.762 253.65 101.97 253.5C100.43 253.5 99.1699 255 99.1699 256.9Z" fill="#263238"/>
<path d="M102.15 257.91C102.294 257.91 102.437 257.879 102.568 257.818C102.699 257.758 102.816 257.67 102.91 257.56C104.9 255.094 105.962 252.008 105.91 248.84C105.91 242.25 101.57 236.84 96.2499 236.84C92.3199 236.84 88.8099 239.74 87.3199 244.21C87.2672 244.336 87.2412 244.472 87.2433 244.609C87.2454 244.746 87.2756 244.881 87.3322 245.006C87.3887 245.131 87.4702 245.243 87.5717 245.335C87.6733 245.427 87.7926 245.497 87.9224 245.541C88.0522 245.585 88.1896 245.602 88.3262 245.59C88.4627 245.579 88.5955 245.54 88.7162 245.475C88.8369 245.41 88.943 245.321 89.028 245.214C89.1129 245.106 89.1748 244.982 89.2099 244.85C90.4299 241.2 93.2099 238.85 96.2099 238.85C100.43 238.85 103.87 243.32 103.87 248.85C103.912 251.545 103.002 254.169 101.3 256.26C101.212 256.359 101.145 256.475 101.103 256.601C101.061 256.726 101.044 256.859 101.053 256.991C101.062 257.123 101.098 257.252 101.157 257.37C101.217 257.488 101.299 257.594 101.4 257.68C101.503 257.767 101.622 257.832 101.751 257.871C101.88 257.911 102.016 257.924 102.15 257.91Z" fill="#263238"/>
<g opacity="0.4">
<path d="M102.15 257.91C102.294 257.91 102.437 257.879 102.568 257.818C102.699 257.758 102.816 257.67 102.91 257.56C104.9 255.094 105.962 252.008 105.91 248.84C105.91 242.25 101.57 236.84 96.2499 236.84C92.3199 236.84 88.8099 239.74 87.3199 244.21C87.2672 244.336 87.2412 244.472 87.2433 244.609C87.2454 244.746 87.2756 244.881 87.3322 245.006C87.3887 245.131 87.4702 245.243 87.5717 245.335C87.6733 245.427 87.7926 245.497 87.9224 245.541C88.0522 245.585 88.1896 245.602 88.3262 245.59C88.4627 245.579 88.5955 245.54 88.7162 245.475C88.8369 245.41 88.943 245.321 89.028 245.214C89.1129 245.106 89.1748 244.982 89.2099 244.85C90.4299 241.2 93.2099 238.85 96.2099 238.85C100.43 238.85 103.87 243.32 103.87 248.85C103.912 251.545 103.002 254.169 101.3 256.26C101.212 256.359 101.145 256.475 101.103 256.601C101.061 256.726 101.044 256.859 101.053 256.991C101.062 257.123 101.098 257.252 101.157 257.37C101.217 257.488 101.299 257.594 101.4 257.68C101.503 257.767 101.622 257.832 101.751 257.871C101.88 257.911 102.016 257.924 102.15 257.91Z" fill="white"/>
</g>
<path d="M116.079 324.85H107.699V339.14H116.079V324.85Z" fill="#BA68C8"/>
<path d="M129.65 314.449H121.27V339.139H129.65V314.449Z" fill="#BA68C8"/>
<path d="M143.23 318.35H134.85V339.14H143.23V318.35Z" fill="#BA68C8"/>
<path d="M156.81 307.949H148.43V339.139H156.81V307.949Z" fill="#BA68C8"/>
<path d="M170.38 297.551H162V339.141H170.38V297.551Z" fill="#BA68C8"/>
<path opacity="0.5" d="M116.079 324.85H107.699V339.14H116.079V324.85Z" fill="white"/>
<path opacity="0.5" d="M129.65 314.449H121.27V339.139H129.65V314.449Z" fill="white"/>
<path opacity="0.5" d="M143.23 318.35H134.85V339.14H143.23V318.35Z" fill="white"/>
<path opacity="0.5" d="M156.81 307.949H148.43V339.139H156.81V307.949Z" fill="white"/>
<path opacity="0.5" d="M170.38 297.551H162V339.141H170.38V297.551Z" fill="white"/>
<path d="M181.559 337.16H96.1895V341.12H181.559V337.16Z" fill="#263238"/>
<path d="M99.7892 327.789L97.9492 325.469L125.329 303.679L138.879 311.539L175.459 280.359L177.379 282.609L139.209 315.159L125.599 307.259L99.7892 327.789Z" fill="#BA68C8"/>
<path d="M178.6 279.65L173.04 280.51L176.96 284.69L178.6 279.65Z" fill="#BA68C8"/>
<g opacity="0.3">
<path d="M144.6 354H96.29C96.0248 354 95.7705 353.895 95.5829 353.707C95.3954 353.52 95.29 353.265 95.29 353C95.29 352.735 95.3954 352.48 95.5829 352.293C95.7705 352.105 96.0248 352 96.29 352H144.6C144.865 352 145.12 352.105 145.307 352.293C145.495 352.48 145.6 352.735 145.6 353C145.6 353.265 145.495 353.52 145.307 353.707C145.12 353.895 144.865 354 144.6 354Z" fill="black"/>
</g>
<g opacity="0.3">
<path d="M181.92 362.91H103.19C102.925 362.91 102.671 362.805 102.483 362.617C102.296 362.43 102.19 362.175 102.19 361.91C102.19 361.645 102.296 361.391 102.483 361.203C102.671 361.015 102.925 360.91 103.19 360.91H181.92C182.186 360.91 182.44 361.015 182.628 361.203C182.815 361.391 182.92 361.645 182.92 361.91C182.92 362.175 182.815 362.43 182.628 362.617C182.44 362.805 182.186 362.91 181.92 362.91Z" fill="black"/>
<path d="M182 367.92H96.29C96.0248 367.92 95.7705 367.815 95.5829 367.627C95.3954 367.439 95.29 367.185 95.29 366.92C95.29 366.655 95.3954 366.4 95.5829 366.213C95.7705 366.025 96.0248 365.92 96.29 365.92H182C182.265 365.92 182.52 366.025 182.707 366.213C182.895 366.4 183 366.655 183 366.92C183 367.185 182.895 367.439 182.707 367.627C182.52 367.815 182.265 367.92 182 367.92Z" fill="black"/>
<path d="M182.14 372.93H96.4004C96.1352 372.93 95.8808 372.824 95.6933 372.637C95.5057 372.449 95.4004 372.195 95.4004 371.93C95.4004 371.664 95.5057 371.41 95.6933 371.223C95.8808 371.035 96.1352 370.93 96.4004 370.93H182.14C182.406 370.93 182.66 371.035 182.847 371.223C183.035 371.41 183.14 371.664 183.14 371.93C183.14 372.195 183.035 372.449 182.847 372.637C182.66 372.824 182.406 372.93 182.14 372.93Z" fill="black"/>
<path d="M168.24 377.939H96.5098C96.2445 377.939 95.9902 377.834 95.8027 377.647C95.6151 377.459 95.5098 377.205 95.5098 376.939C95.5098 376.674 95.6151 376.42 95.8027 376.232C95.9902 376.045 96.2445 375.939 96.5098 375.939H168.24C168.505 375.939 168.759 376.045 168.947 376.232C169.134 376.42 169.24 376.674 169.24 376.939C169.24 377.205 169.134 377.459 168.947 377.647C168.759 377.834 168.505 377.939 168.24 377.939Z" fill="black"/>
</g>
<g opacity="0.3">
<path d="M181.92 386.93H103.19C102.925 386.93 102.671 386.824 102.483 386.637C102.296 386.449 102.19 386.195 102.19 385.93C102.19 385.664 102.296 385.41 102.483 385.223C102.671 385.035 102.925 384.93 103.19 384.93H181.92C182.186 384.93 182.44 385.035 182.628 385.223C182.815 385.41 182.92 385.664 182.92 385.93C182.92 386.195 182.815 386.449 182.628 386.637C182.44 386.824 182.186 386.93 181.92 386.93Z" fill="black"/>
<path d="M182 391.939H96.29C96.0248 391.939 95.7705 391.834 95.5829 391.647C95.3954 391.459 95.29 391.205 95.29 390.939C95.29 390.674 95.3954 390.42 95.5829 390.232C95.7705 390.045 96.0248 389.939 96.29 389.939H182C182.265 389.939 182.52 390.045 182.707 390.232C182.895 390.42 183 390.674 183 390.939C183 391.205 182.895 391.459 182.707 391.647C182.52 391.834 182.265 391.939 182 391.939Z" fill="black"/>
<path d="M182.14 397H96.4004C96.1352 397 95.8808 396.895 95.6933 396.707C95.5057 396.52 95.4004 396.265 95.4004 396C95.4004 395.735 95.5057 395.48 95.6933 395.293C95.8808 395.105 96.1352 395 96.4004 395H182.14C182.406 395 182.66 395.105 182.847 395.293C183.035 395.48 183.14 395.735 183.14 396C183.14 396.265 183.035 396.52 182.847 396.707C182.66 396.895 182.406 397 182.14 397Z" fill="black"/>
<path d="M168.24 402H96.5098C96.2445 402 95.9902 401.895 95.8027 401.707C95.6151 401.52 95.5098 401.265 95.5098 401C95.5098 400.735 95.6151 400.48 95.8027 400.293C95.9902 400.105 96.2445 400 96.5098 400H168.24C168.505 400 168.759 400.105 168.947 400.293C169.134 400.48 169.24 400.735 169.24 401C169.24 401.265 169.134 401.52 168.947 401.707C168.759 401.895 168.505 402 168.24 402Z" fill="black"/>
</g>
<g opacity="0.3">
<path d="M144.6 270.92H96.29C96.0248 270.92 95.7705 270.815 95.5829 270.627C95.3954 270.439 95.29 270.185 95.29 269.92C95.29 269.655 95.3954 269.4 95.5829 269.213C95.7705 269.025 96.0248 268.92 96.29 268.92H144.6C144.865 268.92 145.12 269.025 145.307 269.213C145.495 269.4 145.6 269.655 145.6 269.92C145.6 270.185 145.495 270.439 145.307 270.627C145.12 270.815 144.865 270.92 144.6 270.92Z" fill="black"/>
</g>
<path d="M410.44 171.24H295.61C293.699 171.24 292.15 172.789 292.15 174.7V364.4C292.15 366.311 293.699 367.86 295.61 367.86H410.44C412.351 367.86 413.9 366.311 413.9 364.4V174.7C413.9 172.789 412.351 171.24 410.44 171.24Z" fill="#BA68C8"/>
<path d="M320.84 170.301H385.22C385.39 170.301 385.553 170.368 385.673 170.488C385.793 170.608 385.86 170.771 385.86 170.941V177.381H320.19V170.941C320.19 170.856 320.207 170.772 320.24 170.694C320.273 170.615 320.321 170.544 320.381 170.485C320.442 170.425 320.514 170.378 320.592 170.347C320.671 170.315 320.756 170.3 320.84 170.301Z" fill="#263238"/>
<path opacity="0.9" d="M409.091 177.381H296.971V361.691H409.091V177.381Z" fill="white"/>
<path d="M375 185.862H355.29L355.06 185.172C354.921 184.745 354.65 184.372 354.286 184.108C353.922 183.844 353.485 183.702 353.035 183.702C352.586 183.702 352.148 183.844 351.784 184.108C351.42 184.372 351.15 184.745 351.01 185.172L350.78 185.862H331.05C330.285 185.862 329.552 185.559 329.01 185.019C328.468 184.479 328.163 183.747 328.16 182.982V175.722C328.165 174.958 328.472 174.227 329.013 173.688C329.554 173.148 330.286 172.844 331.05 172.842H375.05C375.813 172.844 376.544 173.149 377.084 173.688C377.623 174.228 377.928 174.959 377.93 175.722V183.002C377.928 183.383 377.85 183.759 377.7 184.109C377.551 184.46 377.334 184.777 377.062 185.043C376.789 185.309 376.467 185.518 376.113 185.659C375.759 185.799 375.381 185.868 375 185.862ZM356.66 183.862H375C375.116 183.863 375.231 183.841 375.339 183.798C375.446 183.754 375.543 183.689 375.625 183.607C375.707 183.525 375.772 183.428 375.816 183.32C375.86 183.213 375.881 183.098 375.88 182.982V175.722C375.88 175.488 375.787 175.265 375.622 175.1C375.457 174.935 375.234 174.842 375 174.842H331C330.884 174.84 330.768 174.862 330.66 174.906C330.552 174.95 330.454 175.014 330.371 175.096C330.289 175.178 330.223 175.275 330.178 175.383C330.133 175.49 330.11 175.605 330.11 175.722V183.002C330.11 183.118 330.133 183.233 330.178 183.341C330.223 183.448 330.289 183.546 330.371 183.628C330.454 183.709 330.552 183.774 330.66 183.818C330.768 183.861 330.884 183.883 331 183.882H349.4C349.754 183.226 350.279 182.678 350.919 182.296C351.559 181.914 352.29 181.712 353.035 181.712C353.78 181.712 354.512 181.914 355.152 182.296C355.792 182.678 356.316 183.226 356.67 183.882L356.66 183.862Z" fill="#263238"/>
<g opacity="0.5">
<path d="M375 185.862H355.29L355.06 185.172C354.921 184.745 354.65 184.372 354.286 184.108C353.922 183.844 353.485 183.702 353.035 183.702C352.586 183.702 352.148 183.844 351.784 184.108C351.42 184.372 351.15 184.745 351.01 185.172L350.78 185.862H331.05C330.285 185.862 329.552 185.559 329.01 185.019C328.468 184.479 328.163 183.747 328.16 182.982V175.722C328.165 174.958 328.472 174.227 329.013 173.688C329.554 173.148 330.286 172.844 331.05 172.842H375.05C375.813 172.844 376.544 173.149 377.084 173.688C377.623 174.228 377.928 174.959 377.93 175.722V183.002C377.928 183.383 377.85 183.759 377.7 184.109C377.551 184.46 377.334 184.777 377.062 185.043C376.789 185.309 376.467 185.518 376.113 185.659C375.759 185.799 375.381 185.868 375 185.862ZM356.66 183.862H375C375.116 183.863 375.231 183.841 375.339 183.798C375.446 183.754 375.543 183.689 375.625 183.607C375.707 183.525 375.772 183.428 375.816 183.32C375.86 183.213 375.881 183.098 375.88 182.982V175.722C375.88 175.488 375.787 175.265 375.622 175.1C375.457 174.935 375.234 174.842 375 174.842H331C330.884 174.84 330.768 174.862 330.66 174.906C330.552 174.95 330.454 175.014 330.371 175.096C330.289 175.178 330.223 175.275 330.178 175.383C330.133 175.49 330.11 175.605 330.11 175.722V183.002C330.11 183.118 330.133 183.233 330.178 183.341C330.223 183.448 330.289 183.546 330.371 183.628C330.454 183.709 330.552 183.774 330.66 183.818C330.768 183.861 330.884 183.883 331 183.882H349.4C349.754 183.226 350.279 182.678 350.919 182.296C351.559 181.914 352.29 181.712 353.035 181.712C353.78 181.712 354.512 181.914 355.152 182.296C355.792 182.678 356.316 183.226 356.67 183.882L356.66 183.862Z" fill="white"/>
</g>
<path d="M371.92 171.682H334.14C333.594 171.682 333.15 172.125 333.15 172.672V175.042C333.15 175.588 333.594 176.032 334.14 176.032H371.92C372.467 176.032 372.91 175.588 372.91 175.042V172.672C372.91 172.125 372.467 171.682 371.92 171.682Z" fill="#263238"/>
<path opacity="0.2" d="M371.92 171.682H334.14C333.594 171.682 333.15 172.125 333.15 172.672V175.042C333.15 175.588 333.594 176.032 334.14 176.032H371.92C372.467 176.032 372.91 175.588 372.91 175.042V172.672C372.91 172.125 372.467 171.682 371.92 171.682Z" fill="white"/>
<path d="M400.322 331.788C403.022 320.35 395.937 308.889 384.499 306.189C373.061 303.489 361.6 310.573 358.9 322.012C356.2 333.45 363.284 344.911 374.723 347.611C386.161 350.311 397.622 343.227 400.322 331.788Z" fill="#BA68C8"/>
<path opacity="0.3" d="M379.621 326.921H400.901C400.901 331.129 399.653 335.244 397.314 338.743C394.976 342.243 391.653 344.97 387.764 346.581C383.876 348.191 379.597 348.613 375.469 347.792C371.341 346.971 367.55 344.944 364.574 341.968C361.598 338.992 359.571 335.2 358.75 331.072C357.929 326.944 358.35 322.666 359.961 318.777C361.571 314.889 364.299 311.565 367.798 309.227C371.298 306.889 375.412 305.641 379.621 305.641H379.701L379.621 326.921Z" fill="white"/>
<path opacity="0.3" d="M379.62 326.921L391.1 344.831C388.317 346.616 385.156 347.729 381.868 348.08C378.58 348.431 375.256 348.012 372.158 346.854C369.061 345.696 366.276 343.833 364.024 341.411C361.772 338.989 360.116 336.076 359.186 332.903C358.257 329.729 358.079 326.383 358.669 323.129C359.258 319.875 360.597 316.804 362.58 314.158C364.564 311.512 367.136 309.364 370.094 307.886C373.052 306.407 376.314 305.639 379.62 305.641H379.69L379.62 326.921Z" fill="white"/>
<path opacity="0.3" d="M379.62 326.921L361.68 338.361C359.63 335.144 358.481 331.436 358.355 327.623C358.229 323.811 359.131 320.035 360.964 316.69C362.798 313.345 365.498 310.555 368.78 308.611C372.062 306.667 375.806 305.641 379.62 305.641H379.69L379.62 326.921Z" fill="white"/>
<g opacity="0.5">
<path d="M305.051 210.391V260.611H401.051V210.391H305.051ZM400.261 218.231H383.651V211.141H400.261V218.231ZM347.211 218.231H330.111V211.141H347.211V218.231ZM347.961 211.141H365.051V218.231H348.001L347.961 211.141ZM347.211 218.981V259.861H330.111V219.001L347.211 218.981ZM347.961 218.981H365.051V259.861H348.001L347.961 218.981ZM365.801 218.981H382.901V259.861H365.801V218.981ZM365.801 218.231V211.141H382.901V218.231H365.801ZM329.361 211.141V218.231H305.801V211.141H329.361ZM305.801 219.001H329.361V259.881H305.801V219.001ZM383.651 259.881V219.001H400.261V259.881H383.651Z" fill="black"/>
<path d="M335.561 226H342.481C342.746 226 343 225.895 343.188 225.707C343.375 225.52 343.481 225.265 343.481 225C343.481 224.735 343.375 224.48 343.188 224.293C343 224.105 342.746 224 342.481 224H335.561C335.295 224 335.041 224.105 334.853 224.293C334.666 224.48 334.561 224.735 334.561 225C334.561 225.265 334.666 225.52 334.853 225.707C335.041 225.895 335.295 226 335.561 226Z" fill="black"/>
<path d="M353.001 235.07H360.511C360.776 235.07 361.031 234.965 361.218 234.777C361.406 234.59 361.511 234.336 361.511 234.07C361.511 233.805 361.406 233.551 361.218 233.363C361.031 233.176 360.776 233.07 360.511 233.07H353.001C352.736 233.07 352.481 233.176 352.294 233.363C352.106 233.551 352.001 233.805 352.001 234.07C352.001 234.336 352.106 234.59 352.294 234.777C352.481 234.965 352.736 235.07 353.001 235.07Z" fill="black"/>
<path d="M360.871 251.221H353.001C352.736 251.221 352.481 251.326 352.294 251.514C352.106 251.701 352.001 251.955 352.001 252.221C352.001 252.486 352.106 252.74 352.294 252.928C352.481 253.115 352.736 253.221 353.001 253.221H360.841C361.106 253.221 361.361 253.115 361.548 252.928C361.736 252.74 361.841 252.486 361.841 252.221C361.841 251.955 361.736 251.701 361.548 251.514C361.361 251.326 361.106 251.221 360.841 251.221H360.871Z" fill="black"/>
<path d="M378.271 242.141H370.001C369.736 242.141 369.481 242.246 369.294 242.434C369.106 242.621 369.001 242.875 369.001 243.141C369.001 243.406 369.106 243.66 369.294 243.848C369.481 244.035 369.736 244.141 370.001 244.141H378.291C378.556 244.141 378.811 244.035 378.998 243.848C379.186 243.66 379.291 243.406 379.291 243.141C379.291 242.875 379.186 242.621 378.998 242.434C378.811 242.246 378.556 242.141 378.291 242.141H378.271Z" fill="black"/>
<path d="M396.161 224H387.761C387.496 224 387.241 224.105 387.054 224.293C386.866 224.48 386.761 224.735 386.761 225C386.761 225.265 386.866 225.52 387.054 225.707C387.241 225.895 387.496 226 387.761 226H396.161C396.426 226 396.68 225.895 396.868 225.707C397.055 225.52 397.161 225.265 397.161 225C397.161 224.735 397.055 224.48 396.868 224.293C396.68 224.105 396.426 224 396.161 224Z" fill="black"/>
<path d="M395.081 251.221H387.761C387.496 251.221 387.241 251.326 387.054 251.514C386.866 251.701 386.761 251.955 386.761 252.221C386.761 252.486 386.866 252.74 387.054 252.928C387.241 253.115 387.496 253.221 387.761 253.221H395.081C395.346 253.221 395.6 253.115 395.788 252.928C395.975 252.74 396.081 252.486 396.081 252.221C396.081 251.955 395.975 251.701 395.788 251.514C395.6 251.326 395.346 251.221 395.081 251.221Z" fill="black"/>
<path d="M335.561 244.141H341.491C341.756 244.141 342.01 244.035 342.198 243.848C342.385 243.66 342.491 243.406 342.491 243.141C342.491 242.875 342.385 242.621 342.198 242.434C342.01 242.246 341.756 242.141 341.491 242.141H335.561C335.295 242.141 335.041 242.246 334.853 242.434C334.666 242.621 334.561 242.875 334.561 243.141C334.561 243.406 334.666 243.66 334.853 243.848C335.041 244.035 335.295 244.141 335.561 244.141Z" fill="black"/>
<path d="M342.481 251.221H335.561C335.295 251.221 335.041 251.326 334.853 251.514C334.666 251.701 334.561 251.955 334.561 252.221C334.561 252.486 334.666 252.74 334.853 252.928C335.041 253.115 335.295 253.221 335.561 253.221H342.481C342.746 253.221 343 253.115 343.188 252.928C343.375 252.74 343.481 252.486 343.481 252.221C343.481 251.955 343.375 251.701 343.188 251.514C343 251.326 342.746 251.221 342.481 251.221Z" fill="black"/>
<path d="M309.411 226H325.231C325.496 226 325.751 225.895 325.938 225.707C326.126 225.52 326.231 225.265 326.231 225C326.231 224.735 326.126 224.48 325.938 224.293C325.751 224.105 325.496 224 325.231 224H309.411C309.146 224 308.892 224.105 308.704 224.293C308.516 224.48 308.411 224.735 308.411 225C308.411 225.265 308.516 225.52 308.704 225.707C308.892 225.895 309.146 226 309.411 226Z" fill="black"/>
<path d="M309.411 235.07H319.941C320.206 235.07 320.461 234.965 320.648 234.777C320.836 234.59 320.941 234.336 320.941 234.07C320.941 233.805 320.836 233.551 320.648 233.363C320.461 233.176 320.206 233.07 319.941 233.07H309.411C309.146 233.07 308.892 233.176 308.704 233.363C308.516 233.551 308.411 233.805 308.411 234.07C308.411 234.336 308.516 234.59 308.704 234.777C308.892 234.965 309.146 235.07 309.411 235.07Z" fill="black"/>
<path d="M325.231 242.141H309.411C309.146 242.141 308.892 242.246 308.704 242.434C308.516 242.621 308.411 242.875 308.411 243.141C308.411 243.406 308.516 243.66 308.704 243.848C308.892 244.035 309.146 244.141 309.411 244.141H325.231C325.496 244.141 325.751 244.035 325.938 243.848C326.126 243.66 326.231 243.406 326.231 243.141C326.231 242.875 326.126 242.621 325.938 242.434C325.751 242.246 325.496 242.141 325.231 242.141Z" fill="black"/>
<path d="M317.321 251.221H309.411C309.146 251.221 308.892 251.326 308.704 251.514C308.516 251.701 308.411 251.955 308.411 252.221C308.411 252.486 308.516 252.74 308.704 252.928C308.892 253.115 309.146 253.221 309.411 253.221H317.321C317.586 253.221 317.841 253.115 318.028 252.928C318.216 252.74 318.321 252.486 318.321 252.221C318.321 251.955 318.216 251.701 318.028 251.514C317.841 251.326 317.586 251.221 317.321 251.221Z" fill="black"/>
</g>
<g opacity="0.5">
<path d="M343.491 199.861H306.051C305.786 199.861 305.531 199.756 305.344 199.568C305.156 199.381 305.051 199.127 305.051 198.861C305.051 198.596 305.156 198.342 305.344 198.154C305.531 197.967 305.786 197.861 306.051 197.861H343.491C343.756 197.861 344.01 197.967 344.198 198.154C344.385 198.342 344.491 198.596 344.491 198.861C344.491 199.127 344.385 199.381 344.198 199.568C344.01 199.756 343.756 199.861 343.491 199.861Z" fill="black"/>
</g>
<g opacity="0.5">
<path d="M330.361 205.471H306.051C305.786 205.471 305.531 205.365 305.344 205.178C305.156 204.99 305.051 204.736 305.051 204.471C305.051 204.205 305.156 203.951 305.344 203.764C305.531 203.576 305.786 203.471 306.051 203.471H330.361C330.626 203.471 330.88 203.576 331.068 203.764C331.255 203.951 331.361 204.205 331.361 204.471C331.361 204.736 331.255 204.99 331.068 205.178C330.88 205.365 330.626 205.471 330.361 205.471Z" fill="black"/>
</g>
<g opacity="0.5">
<path d="M354.361 269.281H306.051C305.786 269.281 305.531 269.176 305.344 268.988C305.156 268.801 305.051 268.546 305.051 268.281C305.051 268.016 305.156 267.762 305.344 267.574C305.531 267.387 305.786 267.281 306.051 267.281H354.361C354.626 267.281 354.88 267.387 355.068 267.574C355.255 267.762 355.361 268.016 355.361 268.281C355.361 268.546 355.255 268.801 355.068 268.988C354.88 269.176 354.626 269.281 354.361 269.281Z" fill="black"/>
</g>
<path d="M311.021 308.92H305.051V314.89H311.021V308.92Z" fill="#BA68C8"/>
<g opacity="0.5">
<path d="M345 312.91H315.36C315.095 312.91 314.841 312.805 314.653 312.617C314.466 312.43 314.36 312.175 314.36 311.91C314.36 311.645 314.466 311.391 314.653 311.203C314.841 311.015 315.095 310.91 315.36 310.91H345C345.266 310.91 345.52 311.015 345.707 311.203C345.895 311.391 346 311.645 346 311.91C346 312.175 345.895 312.43 345.707 312.617C345.52 312.805 345.266 312.91 345 312.91Z" fill="black"/>
</g>
<path d="M311.021 318.932H305.051V324.902H311.021V318.932Z" fill="#BA68C8"/>
<g opacity="0.5">
<path d="M345 322.91H315.36C315.095 322.91 314.841 322.805 314.653 322.617C314.466 322.43 314.36 322.175 314.36 321.91C314.36 321.645 314.466 321.391 314.653 321.203C314.841 321.015 315.095 320.91 315.36 320.91H345C345.266 320.91 345.52 321.015 345.707 321.203C345.895 321.391 346 321.645 346 321.91C346 322.175 345.895 322.43 345.707 322.617C345.52 322.805 345.266 322.91 345 322.91Z" fill="black"/>
</g>
<path d="M311.021 328.932H305.051V334.902H311.021V328.932Z" fill="#BA68C8"/>
<g opacity="0.5">
<path d="M345 332.92H315.36C315.095 332.92 314.841 332.815 314.653 332.627C314.466 332.439 314.36 332.185 314.36 331.92C314.36 331.655 314.466 331.4 314.653 331.213C314.841 331.025 315.095 330.92 315.36 330.92H345C345.266 330.92 345.52 331.025 345.707 331.213C345.895 331.4 346 331.655 346 331.92C346 332.185 345.895 332.439 345.707 332.627C345.52 332.815 345.266 332.92 345 332.92Z" fill="black"/>
</g>
<path d="M311.021 338.941H305.051V344.911H311.021V338.941Z" fill="#BA68C8"/>
<g opacity="0.5">
<path d="M345 342.932H315.36C315.095 342.932 314.841 342.826 314.653 342.639C314.466 342.451 314.36 342.197 314.36 341.932C314.36 341.666 314.466 341.412 314.653 341.225C314.841 341.037 315.095 340.932 315.36 340.932H345C345.266 340.932 345.52 341.037 345.707 341.225C345.895 341.412 346 341.666 346 341.932C346 342.197 345.895 342.451 345.707 342.639C345.52 342.826 345.266 342.932 345 342.932Z" fill="black"/>
</g>
<g opacity="0.5">
<path d="M399.68 278.221H312.94C312.675 278.221 312.421 278.115 312.233 277.928C312.046 277.74 311.94 277.486 311.94 277.221C311.94 276.955 312.046 276.701 312.233 276.514C312.421 276.326 312.675 276.221 312.94 276.221H399.68C399.946 276.221 400.2 276.326 400.388 276.514C400.575 276.701 400.68 276.955 400.68 277.221C400.68 277.486 400.575 277.74 400.388 277.928C400.2 278.115 399.946 278.221 399.68 278.221Z" fill="black"/>
<path d="M399.791 283.23H306.051C305.786 283.23 305.531 283.125 305.344 282.938C305.156 282.75 305.051 282.496 305.051 282.23C305.051 281.965 305.156 281.711 305.344 281.523C305.531 281.336 305.786 281.23 306.051 281.23H399.791C400.056 281.23 400.31 281.336 400.498 281.523C400.685 281.711 400.791 281.965 400.791 282.23C400.791 282.496 400.685 282.75 400.498 282.938C400.31 283.125 400.056 283.23 399.791 283.23Z" fill="black"/>
<path d="M399.901 288.24H306.161C305.896 288.24 305.642 288.135 305.454 287.947C305.266 287.76 305.161 287.505 305.161 287.24C305.161 286.975 305.266 286.721 305.454 286.533C305.642 286.346 305.896 286.24 306.161 286.24H399.901C400.166 286.24 400.421 286.346 400.608 286.533C400.796 286.721 400.901 286.975 400.901 287.24C400.901 287.505 400.796 287.76 400.608 287.947C400.421 288.135 400.166 288.24 399.901 288.24Z" fill="black"/>
<path d="M386.001 293.25H306.271C306.005 293.25 305.751 293.145 305.563 292.957C305.376 292.77 305.271 292.515 305.271 292.25C305.271 291.985 305.376 291.73 305.563 291.543C305.751 291.355 306.005 291.25 306.271 291.25H386.001C386.266 291.25 386.52 291.355 386.708 291.543C386.895 291.73 387.001 291.985 387.001 292.25C387.001 292.515 386.895 292.77 386.708 292.957C386.52 293.145 386.266 293.25 386.001 293.25Z" fill="black"/>
</g>
<path opacity="0.3" d="M311.021 318.932H305.051V324.902H311.021V318.932Z" fill="white"/>
<path opacity="0.5" d="M311.021 328.932H305.051V334.902H311.021V328.932Z" fill="white"/>
<path opacity="0.7" d="M311.021 338.941H305.051V344.911H311.021V338.941Z" fill="white"/>
<path d="M407.41 393.25C407.41 393.25 402.66 382.89 408.09 372.67C413.52 362.45 415.09 360.05 411.63 357.96C408.17 355.87 406.58 366.13 406.58 366.13C404.868 361.488 404.693 356.419 406.08 351.67C408.48 344.28 409.99 332.24 406.71 330.95C403.43 329.66 406.08 345.95 403.22 351.53C401.769 347.624 400.831 343.547 400.43 339.4C400.04 333.47 400.65 323.99 398.06 321.56C395.47 319.13 393.8 320.81 396.35 333.91C397.882 341.738 398.729 349.684 398.88 357.66C398.88 357.66 393.25 340.47 389.46 339.97C385.67 339.47 385.68 345.04 388.92 349.87C392.16 354.7 398.41 363.34 399.43 367.79C399.43 367.79 393.24 354.86 387.68 358.79C382.12 362.72 392.52 370.57 397.16 373.39C401.8 376.21 405 393.94 405 393.94L407.41 393.25Z" fill="#BA68C8"/>
<path opacity="0.2" d="M407.41 393.25C407.41 393.25 402.66 382.89 408.09 372.67C413.52 362.45 415.09 360.05 411.63 357.96C408.17 355.87 406.58 366.13 406.58 366.13C404.868 361.488 404.693 356.419 406.08 351.67C408.48 344.28 409.99 332.24 406.71 330.95C403.43 329.66 406.08 345.95 403.22 351.53C401.769 347.624 400.831 343.547 400.43 339.4C400.04 333.47 400.65 323.99 398.06 321.56C395.47 319.13 393.8 320.81 396.35 333.91C397.882 341.738 398.729 349.684 398.88 357.66C398.88 357.66 393.25 340.47 389.46 339.97C385.67 339.47 385.68 345.04 388.92 349.87C392.16 354.7 398.41 363.34 399.43 367.79C399.43 367.79 393.24 354.86 387.68 358.79C382.12 362.72 392.52 370.57 397.16 373.39C401.8 376.21 405 393.94 405 393.94L407.41 393.25Z" fill="black"/>
<path d="M403.659 397.499C403.659 397.499 408.289 387.069 402.739 376.939C397.189 366.809 395.589 364.419 399.019 362.269C402.449 360.119 404.169 370.369 404.169 370.369C405.826 365.709 405.942 360.639 404.499 355.909C402.009 348.549 400.349 336.539 403.619 335.199C406.889 333.859 404.429 350.199 407.349 355.719C408.755 351.797 409.646 347.71 409.999 343.559C410.319 337.609 409.589 328.139 412.159 325.669C414.729 323.199 416.409 324.859 414.009 337.999C412.572 345.848 411.823 353.809 411.769 361.789C411.769 361.789 417.199 344.519 420.999 343.999C424.799 343.479 424.839 348.999 421.659 353.879C418.479 358.759 412.339 367.499 411.369 371.959C411.369 371.959 417.369 358.959 423.009 362.819C428.649 366.679 418.309 374.669 413.709 377.559C409.109 380.449 406.089 398.189 406.089 398.189L403.659 397.499Z" fill="#BA68C8"/>
<path d="M425 390.07H386.79L389.88 417.41H421.9L425 390.07Z" fill="#263238"/>
<path d="M194.26 155.57H223C225.345 155.57 227.593 156.502 229.251 158.159C230.909 159.817 231.84 162.066 231.84 164.41V189.41C231.84 191.755 230.909 194.003 229.251 195.661C227.593 197.319 225.345 198.25 223 198.25H214.6L217.6 209.15L208.6 198.25H194.26C193.098 198.252 191.948 198.024 190.874 197.58C189.8 197.137 188.825 196.486 188.003 195.665C187.181 194.844 186.529 193.869 186.084 192.796C185.639 191.722 185.41 190.572 185.41 189.41V164.41C185.41 163.249 185.639 162.098 186.084 161.025C186.529 159.952 187.181 158.977 188.003 158.156C188.825 157.335 189.8 156.684 190.874 156.24C191.948 155.797 193.098 155.569 194.26 155.57Z" fill="#BA68C8"/>
<path opacity="0.7" d="M194.26 155.57H223C225.345 155.57 227.593 156.502 229.251 158.159C230.909 159.817 231.84 162.066 231.84 164.41V189.41C231.84 191.755 230.909 194.003 229.251 195.661C227.593 197.319 225.345 198.25 223 198.25H214.6L217.6 209.15L208.6 198.25H194.26C193.098 198.252 191.948 198.024 190.874 197.58C189.8 197.137 188.825 196.486 188.003 195.665C187.181 194.844 186.529 193.869 186.084 192.796C185.639 191.722 185.41 190.572 185.41 189.41V164.41C185.41 163.249 185.639 162.098 186.084 161.025C186.529 159.952 187.181 158.977 188.003 158.156C188.825 157.335 189.8 156.684 190.874 156.24C191.948 155.797 193.098 155.569 194.26 155.57Z" fill="white"/>
<path opacity="0.7" d="M204.28 182.361C209.223 182.361 213.23 178.354 213.23 173.411C213.23 168.468 209.223 164.461 204.28 164.461C199.337 164.461 195.33 168.468 195.33 173.411C195.33 178.354 199.337 182.361 204.28 182.361Z" fill="white"/>
<path d="M204.28 183.65C201.912 183.648 199.617 182.825 197.787 181.321C195.957 179.817 194.705 177.725 194.244 175.402C193.784 173.078 194.143 170.667 195.26 168.579C196.378 166.49 198.185 164.854 200.374 163.948C202.562 163.042 204.997 162.923 207.264 163.612C209.53 164.3 211.488 165.752 212.804 167.722C214.12 169.692 214.712 172.056 214.48 174.414C214.247 176.771 213.205 178.975 211.53 180.65C210.579 181.603 209.449 182.359 208.205 182.873C206.961 183.388 205.627 183.652 204.28 183.65ZM204.28 165.76C202.511 165.76 200.796 166.374 199.428 167.497C198.06 168.62 197.123 170.183 196.778 171.919C196.433 173.655 196.701 175.456 197.535 177.017C198.37 178.578 199.72 179.801 201.355 180.478C202.99 181.155 204.81 181.244 206.503 180.73C208.197 180.216 209.66 179.131 210.643 177.659C211.626 176.188 212.068 174.42 211.895 172.659C211.721 170.898 210.942 169.251 209.69 168C208.982 167.287 208.139 166.722 207.21 166.337C206.281 165.953 205.286 165.756 204.28 165.76Z" fill="#BA68C8"/>
<path d="M211.533 178.82L209.694 180.658L219.898 190.862L221.736 189.023L211.533 178.82Z" fill="#BA68C8"/>
<path d="M221.91 193.001C221.393 192.996 220.899 192.792 220.53 192.431L212.74 184.641C212.545 184.464 212.388 184.249 212.279 184.009C212.17 183.769 212.11 183.51 212.104 183.247C212.098 182.984 212.145 182.722 212.242 182.477C212.34 182.232 212.486 182.01 212.672 181.824C212.858 181.637 213.08 181.49 213.324 181.392C213.568 181.293 213.83 181.245 214.093 181.25C214.357 181.256 214.616 181.314 214.856 181.423C215.096 181.531 215.312 181.687 215.49 181.881L223.29 189.681C223.56 189.954 223.743 190.301 223.816 190.678C223.89 191.055 223.85 191.445 223.703 191.8C223.555 192.154 223.307 192.457 222.988 192.671C222.669 192.885 222.294 193 221.91 193.001Z" fill="#BA68C8"/>
<path d="M205.67 169.359C205.67 169.755 205.553 170.142 205.333 170.471C205.113 170.799 204.801 171.056 204.435 171.207C204.07 171.359 203.668 171.398 203.28 171.321C202.892 171.244 202.535 171.053 202.256 170.774C201.976 170.494 201.786 170.138 201.708 169.75C201.631 169.362 201.671 168.959 201.822 168.594C201.974 168.229 202.23 167.916 202.559 167.696C202.888 167.477 203.274 167.359 203.67 167.359C204.2 167.359 204.709 167.57 205.084 167.945C205.459 168.32 205.67 168.829 205.67 169.359Z" fill="white"/>
<path d="M208.641 170.82C208.641 171.018 208.582 171.211 208.472 171.376C208.362 171.54 208.206 171.668 208.023 171.744C207.841 171.82 207.64 171.84 207.446 171.801C207.252 171.763 207.073 171.667 206.934 171.527C206.794 171.388 206.698 171.209 206.66 171.015C206.621 170.821 206.641 170.62 206.717 170.438C206.792 170.255 206.921 170.099 207.085 169.989C207.25 169.879 207.443 169.82 207.641 169.82C207.906 169.82 208.16 169.926 208.348 170.113C208.535 170.301 208.641 170.555 208.641 170.82Z" fill="white"/>
<path d="M288.78 339.459H139.84V363.429H288.78V339.459Z" fill="#BA68C8"/>
<path opacity="0.8" d="M288.78 339.459H139.84V363.429H288.78V339.459Z" fill="white"/>
<path opacity="0.2" d="M288.78 345.8V343.85L186.81 344.66L288.78 345.8Z" fill="black"/>
<path opacity="0.2" d="M288.78 354.199V352.689L243 354.329L288.78 354.199Z" fill="black"/>
<path opacity="0.2" d="M288.78 359.819V357.869L214.97 358.999L288.78 359.819Z" fill="black"/>
<path opacity="0.2" d="M173.14 339.459L171 357.329L173.55 354.609C174.407 357.871 176.009 360.89 178.23 363.429C179.823 361.342 181.091 359.026 181.99 356.559L251.55 355.759L182.65 354.249C182.864 353.263 182.975 352.258 182.98 351.249C182.976 350.413 182.896 349.58 182.74 348.759L284.8 348.499L182.5 347.699C182.14 346.353 181.637 345.049 181 343.809C182.471 342.511 184.368 341.8 186.33 341.809H288.78V339.459H173.14Z" fill="black"/>
<path d="M175.44 351.309C175.448 354.182 176.594 356.935 178.628 358.965C180.662 360.995 183.417 362.136 186.29 362.139H290.5C290.605 362.139 290.709 362.159 290.806 362.2C290.903 362.24 290.992 362.299 291.066 362.373C291.14 362.447 291.199 362.535 291.239 362.632C291.28 362.73 291.3 362.834 291.3 362.939V363.799C291.3 364.011 291.216 364.214 291.066 364.364C290.916 364.514 290.712 364.599 290.5 364.599H136.56C134.804 364.599 133.066 364.251 131.445 363.576C129.824 362.901 128.353 361.911 127.117 360.664C125.88 359.418 124.903 357.938 124.241 356.312C123.579 354.686 123.246 352.944 123.26 351.189C123.347 347.64 124.826 344.267 127.378 341.799C129.93 339.331 133.35 337.966 136.9 337.999H290.5C290.712 337.999 290.916 338.083 291.066 338.233C291.216 338.383 291.3 338.586 291.3 338.799V339.649C291.3 339.861 291.216 340.064 291.066 340.214C290.916 340.364 290.712 340.449 290.5 340.449H186.61C183.699 340.442 180.901 341.575 178.814 343.604C176.727 345.633 175.516 348.399 175.44 351.309Z" fill="#BA68C8"/>
<path opacity="0.4" d="M175.44 351.309C175.448 354.182 176.594 356.935 178.628 358.965C180.662 360.995 183.417 362.136 186.29 362.139H290.5C290.605 362.139 290.709 362.159 290.806 362.2C290.903 362.24 290.992 362.299 291.066 362.373C291.14 362.447 291.199 362.535 291.239 362.632C291.28 362.73 291.3 362.834 291.3 362.939V363.799C291.3 364.011 291.216 364.214 291.066 364.364C290.916 364.514 290.712 364.599 290.5 364.599H136.56C134.804 364.599 133.066 364.251 131.445 363.576C129.824 362.901 128.353 361.911 127.117 360.664C125.88 359.418 124.903 357.938 124.241 356.312C123.579 354.686 123.246 352.944 123.26 351.189C123.347 347.64 124.826 344.267 127.378 341.799C129.93 339.331 133.35 337.966 136.9 337.999H290.5C290.712 337.999 290.916 338.083 291.066 338.233C291.216 338.383 291.3 338.586 291.3 338.799V339.649C291.3 339.861 291.216 340.064 291.066 340.214C290.916 340.364 290.712 340.449 290.5 340.449H186.61C183.699 340.442 180.901 341.575 178.814 343.604C176.727 345.633 175.516 348.399 175.44 351.309Z" fill="white"/>
<path d="M175.44 351.31C175.448 354.184 176.594 356.937 178.628 358.967C180.662 360.996 183.417 362.138 186.29 362.14H290.5C290.605 362.14 290.709 362.161 290.806 362.201C290.903 362.241 290.992 362.3 291.066 362.375C291.14 362.449 291.199 362.537 291.239 362.634C291.279 362.731 291.3 362.835 291.3 362.94V363.8C291.3 364.012 291.216 364.216 291.066 364.366C290.916 364.516 290.712 364.6 290.5 364.6H185.69C183.934 364.599 182.196 364.251 180.575 363.575C178.954 362.899 177.483 361.91 176.246 360.664C175.009 359.417 174.031 357.939 173.367 356.313C172.704 354.687 172.368 352.946 172.38 351.19C172.472 347.646 173.95 344.28 176.496 341.813C179.043 339.347 182.455 337.978 186 338H290.5C290.712 338 290.916 338.085 291.066 338.235C291.216 338.385 291.3 338.588 291.3 338.8V339.65C291.3 339.862 291.216 340.066 291.066 340.216C290.916 340.366 290.712 340.45 290.5 340.45H186.61C183.699 340.444 180.901 341.577 178.814 343.606C176.727 345.635 175.516 348.4 175.44 351.31Z" fill="#BA68C8"/>
<path d="M195.06 344.85V354.46L198.54 350.98L201.91 354.35V344.85H195.06Z" fill="#263238"/>
<path opacity="0.6" d="M175.44 351.31C175.448 354.184 176.594 356.937 178.628 358.967C180.662 360.996 183.417 362.138 186.29 362.14H290.5C290.605 362.14 290.709 362.161 290.806 362.201C290.903 362.241 290.992 362.3 291.066 362.375C291.14 362.449 291.199 362.537 291.239 362.634C291.279 362.731 291.3 362.835 291.3 362.94V363.8C291.3 364.012 291.216 364.216 291.066 364.366C290.916 364.516 290.712 364.6 290.5 364.6H185.69C183.934 364.599 182.196 364.251 180.575 363.575C178.954 362.899 177.483 361.91 176.246 360.664C175.009 359.417 174.031 357.939 173.367 356.313C172.704 354.687 172.368 352.946 172.38 351.19C172.472 347.646 173.95 344.28 176.496 341.813C179.043 339.347 182.455 337.978 186 338H290.5C290.712 338 290.916 338.085 291.066 338.235C291.216 338.385 291.3 338.588 291.3 338.8V339.65C291.3 339.862 291.216 340.066 291.066 340.216C290.916 340.366 290.712 340.45 290.5 340.45H186.61C183.699 340.444 180.901 341.577 178.814 343.606C176.727 345.635 175.516 348.4 175.44 351.31Z" fill="white"/>
<path d="M295.97 392.279H147.03V416.249H295.97V392.279Z" fill="#BA68C8"/>
<path opacity="0.7" d="M295.97 392.279H147.03V416.249H295.97V392.279Z" fill="white"/>
<path opacity="0.2" d="M295.97 398.61V396.66L194 397.48L295.97 398.61Z" fill="black"/>
<path opacity="0.2" d="M295.97 407.01V405.51L250.19 407.14L295.97 407.01Z" fill="black"/>
<path opacity="0.2" d="M295.97 412.629V410.689L222.16 411.809L295.97 412.629Z" fill="black"/>
<path opacity="0.2" d="M180.33 392.279L178.17 410.149L180.72 407.429C181.586 410.69 183.191 413.708 185.41 416.249C186.996 414.156 188.26 411.837 189.16 409.369L258.72 408.569L189.82 407.069C190.036 406.084 190.15 405.078 190.16 404.069C190.153 403.233 190.069 402.4 189.91 401.579L292 401.349L189.69 400.549C189.33 399.206 188.827 397.905 188.19 396.669C189.654 395.354 191.552 394.624 193.52 394.619H296V392.279H180.33Z" fill="black"/>
<path d="M182.63 404.12C182.625 405.548 182.902 406.963 183.445 408.283C183.988 409.604 184.786 410.804 185.794 411.815C186.802 412.826 188 413.627 189.319 414.174C190.638 414.721 192.052 415.001 193.48 415H297.69C297.902 415 298.106 415.084 298.256 415.234C298.406 415.385 298.49 415.588 298.49 415.8V416.66C298.49 416.872 298.406 417.076 298.256 417.226C298.106 417.376 297.902 417.46 297.69 417.46H135.56C133.806 417.458 132.069 417.108 130.45 416.433C128.831 415.757 127.362 414.769 126.126 413.524C124.89 412.278 123.912 410.801 123.249 409.177C122.586 407.553 122.249 405.814 122.26 404.06C122.344 400.507 123.823 397.129 126.377 394.657C128.931 392.185 132.356 390.818 135.91 390.85H297.69C297.902 390.85 298.106 390.934 298.256 391.084C298.406 391.235 298.49 391.438 298.49 391.65V392.51C298.49 392.722 298.406 392.926 298.256 393.076C298.106 393.226 297.902 393.31 297.69 393.31H193.8C190.897 393.304 188.107 394.429 186.021 396.448C183.935 398.466 182.719 401.219 182.63 404.12Z" fill="#263238"/>
<path opacity="0.2" d="M182.63 404.12C182.625 405.548 182.902 406.963 183.445 408.283C183.988 409.604 184.786 410.804 185.794 411.815C186.802 412.826 188 413.627 189.319 414.174C190.638 414.721 192.052 415.001 193.48 415H297.69C297.902 415 298.106 415.084 298.256 415.234C298.406 415.385 298.49 415.588 298.49 415.8V416.66C298.49 416.872 298.406 417.076 298.256 417.226C298.106 417.376 297.902 417.46 297.69 417.46H135.56C133.806 417.458 132.069 417.108 130.45 416.433C128.831 415.757 127.362 414.769 126.126 413.524C124.89 412.278 123.912 410.801 123.249 409.177C122.586 407.553 122.249 405.814 122.26 404.06C122.344 400.507 123.823 397.129 126.377 394.657C128.931 392.185 132.356 390.818 135.91 390.85H297.69C297.902 390.85 298.106 390.934 298.256 391.084C298.406 391.235 298.49 391.438 298.49 391.65V392.51C298.49 392.722 298.406 392.926 298.256 393.076C298.106 393.226 297.902 393.31 297.69 393.31H193.8C190.897 393.304 188.107 394.429 186.021 396.448C183.935 398.466 182.719 401.219 182.63 404.12Z" fill="white"/>
<path d="M182.63 404.12C182.625 405.548 182.902 406.963 183.445 408.283C183.988 409.604 184.787 410.804 185.795 411.815C186.803 412.826 188.001 413.627 189.32 414.174C190.639 414.721 192.053 415.001 193.48 415H297.69C297.903 415 298.106 415.084 298.256 415.234C298.406 415.385 298.49 415.588 298.49 415.8V416.66C298.49 416.872 298.406 417.076 298.256 417.226C298.106 417.376 297.903 417.46 297.69 417.46H192.88C191.125 417.46 189.388 417.113 187.768 416.438C186.147 415.764 184.677 414.775 183.44 413.529C182.204 412.284 181.226 410.806 180.564 409.181C179.902 407.555 179.567 405.815 179.58 404.06C179.662 400.508 181.139 397.13 183.691 394.658C186.244 392.186 189.667 390.818 193.22 390.85H297.69C297.903 390.85 298.106 390.934 298.256 391.084C298.406 391.235 298.49 391.438 298.49 391.65V392.51C298.49 392.722 298.406 392.926 298.256 393.076C298.106 393.226 297.903 393.31 297.69 393.31H193.8C190.898 393.304 188.107 394.429 186.021 396.448C183.935 398.466 182.719 401.219 182.63 404.12Z" fill="#263238"/>
<path d="M194 401.08V410.69L197.47 407.21L200.84 410.58V401.08H194Z" fill="#BA68C8"/>
<path opacity="0.4" d="M182.63 404.12C182.625 405.548 182.902 406.963 183.445 408.283C183.988 409.604 184.787 410.804 185.795 411.815C186.803 412.826 188.001 413.627 189.32 414.174C190.639 414.721 192.053 415.001 193.48 415H297.69C297.903 415 298.106 415.084 298.256 415.234C298.406 415.385 298.49 415.588 298.49 415.8V416.66C298.49 416.872 298.406 417.076 298.256 417.226C298.106 417.376 297.903 417.46 297.69 417.46H192.88C191.125 417.46 189.388 417.113 187.768 416.438C186.147 415.764 184.677 414.775 183.44 413.529C182.204 412.284 181.226 410.806 180.564 409.181C179.902 407.555 179.567 405.815 179.58 404.06C179.662 400.508 181.139 397.13 183.691 394.658C186.244 392.186 189.667 390.818 193.22 390.85H297.69C297.903 390.85 298.106 390.934 298.256 391.084C298.406 391.235 298.49 391.438 298.49 391.65V392.51C298.49 392.722 298.406 392.926 298.256 393.076C298.106 393.226 297.903 393.31 297.69 393.31H193.8C190.898 393.304 188.107 394.429 186.021 396.448C183.935 398.466 182.719 401.219 182.63 404.12Z" fill="white"/>
<path d="M133.63 389.799H188.81V365.859H133.63V389.799Z" fill="#BA68C8"/>
<path opacity="0.8" d="M133.63 389.799H188.81V365.859H133.63V389.799Z" fill="white"/>
<path opacity="0.2" d="M184.39 368.209H133.63V365.869H184.33L184.39 368.209Z" fill="black"/>
<path opacity="0.2" d="M184.39 370.25L138.6 371.23L184.39 372.2V370.25Z" fill="black"/>
<path opacity="0.2" d="M184.39 379.1L135.9 379.92L184.39 380.61V379.1Z" fill="black"/>
<path opacity="0.2" d="M184.39 384.279L136.33 385.249L184.39 386.219V384.279Z" fill="black"/>
<path opacity="0.2" d="M133.63 373.66L180.12 375.06L133.63 376.04V373.66Z" fill="black"/>
<path d="M256.79 377.709C256.785 380.584 255.64 383.34 253.606 385.372C251.572 387.404 248.815 388.547 245.94 388.549H131.08C130.868 388.549 130.665 388.633 130.515 388.784C130.365 388.934 130.28 389.137 130.28 389.349V390.199C130.28 390.411 130.365 390.615 130.515 390.765C130.665 390.915 130.868 390.999 131.08 390.999H246.54C248.296 391.002 250.035 390.656 251.656 389.983C253.278 389.309 254.749 388.321 255.986 387.074C257.223 385.828 258.201 384.349 258.862 382.723C259.524 381.096 259.856 379.355 259.84 377.599C259.759 374.047 258.282 370.669 255.73 368.197C253.177 365.725 249.754 364.357 246.2 364.389H131.08C130.868 364.389 130.665 364.474 130.515 364.624C130.365 364.774 130.28 364.977 130.28 365.189V366.049C130.28 366.261 130.365 366.465 130.515 366.615C130.665 366.765 130.868 366.849 131.08 366.849H245.62C248.531 366.843 251.329 367.976 253.417 370.005C255.504 372.034 256.715 374.799 256.79 377.709Z" fill="#263238"/>
<path opacity="0.4" d="M256.79 377.709C256.785 380.584 255.64 383.34 253.606 385.372C251.572 387.404 248.815 388.547 245.94 388.549H131.08C130.868 388.549 130.665 388.633 130.515 388.784C130.365 388.934 130.28 389.137 130.28 389.349V390.199C130.28 390.411 130.365 390.615 130.515 390.765C130.665 390.915 130.868 390.999 131.08 390.999H246.54C248.296 391.002 250.035 390.656 251.656 389.983C253.278 389.309 254.749 388.321 255.986 387.074C257.223 385.828 258.201 384.349 258.862 382.723C259.524 381.096 259.856 379.355 259.84 377.599C259.759 374.047 258.282 370.669 255.73 368.197C253.177 365.725 249.754 364.357 246.2 364.389H131.08C130.868 364.389 130.665 364.474 130.515 364.624C130.365 364.774 130.28 364.977 130.28 365.189V366.049C130.28 366.261 130.365 366.465 130.515 366.615C130.665 366.765 130.868 366.849 131.08 366.849H245.62C248.531 366.843 251.329 367.976 253.417 370.005C255.504 372.034 256.715 374.799 256.79 377.709Z" fill="white"/>
<path d="M298.68 377.85C298.68 381.032 297.415 384.084 295.165 386.335C292.914 388.585 289.862 389.85 286.68 389.85H184.39V365.85H286.69C289.871 365.852 292.92 367.118 295.168 369.368C297.417 371.618 298.68 374.669 298.68 377.85Z" fill="#BA68C8"/>
<path opacity="0.7" d="M184.39 365.869V389.869H286.7C289.882 389.869 292.934 388.605 295.185 386.354C297.435 384.104 298.7 381.052 298.7 377.869C298.7 374.687 297.435 371.634 295.185 369.384C292.934 367.133 289.882 365.869 286.7 365.869H184.39Z" fill="white"/>
<path opacity="0.2" d="M184.39 372.2V370.25L286.36 371.07L184.39 372.2Z" fill="black"/>
<path opacity="0.2" d="M184.39 380.61V379.1L230.17 380.74L184.39 380.61Z" fill="black"/>
<path opacity="0.2" d="M184.39 386.219V384.279L258.2 385.399L184.39 386.219Z" fill="black"/>
<path opacity="0.2" d="M286.86 368.21C288.828 368.214 290.726 368.944 292.19 370.26C291.552 371.501 291.046 372.804 290.68 374.15L188.38 374.95L290.45 375.2C290.29 376.024 290.207 376.861 290.2 377.7C290.202 378.71 290.319 379.717 290.55 380.7L221.64 382.2L291.19 383.01C291.792 384.67 292.567 386.261 293.5 387.76C295.593 386.303 297.168 384.218 297.996 381.805C298.824 379.393 298.862 376.779 298.104 374.344C297.346 371.909 295.832 369.778 293.781 368.262C291.731 366.745 289.25 365.922 286.7 365.91H184.39V368.25L286.86 368.21Z" fill="black"/>
<path d="M297.73 377.709C297.725 380.584 296.58 383.34 294.546 385.372C292.512 387.404 289.755 388.547 286.88 388.549H182.67C182.458 388.549 182.254 388.633 182.104 388.784C181.954 388.934 181.87 389.137 181.87 389.349V390.199C181.87 390.411 181.954 390.615 182.104 390.765C182.254 390.915 182.458 390.999 182.67 390.999H287.48C289.236 391.002 290.975 390.656 292.596 389.983C294.218 389.309 295.689 388.321 296.926 387.074C298.163 385.828 299.14 384.349 299.802 382.723C300.464 381.096 300.796 379.355 300.78 377.599C300.699 374.047 299.222 370.669 296.669 368.197C294.117 365.725 290.694 364.357 287.14 364.389H182.67C182.458 364.389 182.254 364.474 182.104 364.624C181.954 364.774 181.87 364.977 181.87 365.189V366.049C181.87 366.261 181.954 366.465 182.104 366.615C182.254 366.765 182.458 366.849 182.67 366.849H286.56C289.471 366.843 292.269 367.976 294.356 370.005C296.444 372.034 297.654 374.799 297.73 377.709Z" fill="#263238"/>
<path d="M286.36 374.67V384.28L282.88 380.8L279.51 384.17V374.67H286.36Z" fill="#BA68C8"/>
<path d="M313.39 239.589H310.89C310.425 239.599 309.97 239.719 309.561 239.94C309.152 240.161 308.802 240.476 308.54 240.859L306.06 244.479C305.568 245.194 305.254 246.017 305.147 246.879C305.039 247.74 305.139 248.615 305.44 249.429L305.82 250.429C309.97 250.629 314.61 247.789 314.61 247.789L316.03 247.129C316.323 247.001 316.588 246.816 316.81 246.585C317.031 246.354 317.205 246.081 317.32 245.783C317.435 245.484 317.49 245.166 317.482 244.846C317.473 244.526 317.401 244.211 317.27 243.919L316 241.169C315.763 240.682 315.391 240.274 314.928 239.994C314.465 239.714 313.931 239.573 313.39 239.589Z" fill="#EEC1BB"/>
<path d="M266 244C272.42 249.19 279.35 254.19 287 257.25L286.05 257.05C286.75 257.22 288.59 256.52 289.55 256.05C294.89 253.45 299.95 249.55 304.75 245.99C305.241 245.634 305.844 245.466 306.448 245.516C307.052 245.566 307.619 245.83 308.046 246.261C308.472 246.693 308.73 247.262 308.773 247.867C308.816 248.472 308.641 249.073 308.28 249.56C303.49 255.56 292.71 267.75 284.17 265.97C274.81 263.18 266.54 257.97 259.17 251.6C254.39 247 260.8 239.81 266 244Z" fill="#EBC0BB"/>
<path d="M252.53 236.93C250.19 243.45 253.96 249.93 263.03 257.56C267.54 256.89 273.63 247.64 273.63 247.64C273.63 247.64 260.87 234.88 252.53 236.93Z" fill="#BA68C8"/>
<path d="M260.33 196.429C260.33 196.429 251.4 187.289 239.76 198.759C228.12 210.229 225.85 248.229 225.85 248.229L256.23 254.129C256.23 254.129 260.16 249.619 262.18 236.609C264.2 223.599 265.27 211.159 267.83 208.259C270.39 205.359 260.33 196.429 260.33 196.429Z" fill="#263238"/>
<path d="M286.42 388.869L279.84 386.249L282.41 376.659L284.78 367.859L293.1 369.699L289.57 379.849L286.42 388.869Z" fill="#EEC1BB"/>
<path opacity="0.2" d="M289.49 380.059L282.34 376.839L284.75 367.949L293.08 369.749L289.49 380.059Z" fill="black"/>
<path d="M236.63 302.46C236.63 302.46 291.63 295.04 306.91 304.8C322.19 314.56 292.6 374 292.6 374L283.34 372C283.34 372 290.28 324.88 289.76 322.91C289.24 320.94 263.34 333.79 227.89 335.01L236.63 302.46Z" fill="#263238"/>
<path opacity="0.2" d="M236.63 302.46C236.63 302.46 291.63 295.04 306.91 304.8C322.19 314.56 292.6 374 292.6 374L283.34 372C283.34 372 290.28 324.88 289.76 322.91C289.24 320.94 263.34 333.79 227.89 335.01L236.63 302.46Z" fill="black"/>
<path d="M282.83 369L294.48 372.78L292.39 378.09L281.69 374.45L282.83 369Z" fill="#263238"/>
<path d="M292.51 390.35C291.25 390.35 289.03 388.35 288.57 387.87C288.543 387.845 288.523 387.814 288.51 387.78V387.72C288.508 387.656 288.525 387.594 288.56 387.54C288.62 387.47 290.08 385.54 291.48 385.48C291.692 385.459 291.905 385.484 292.106 385.555C292.307 385.626 292.489 385.74 292.64 385.89C292.99 386.22 293.11 386.54 292.99 386.84C292.8 387.32 291.99 387.58 291.08 387.74C291.816 387.845 292.509 388.153 293.08 388.63C293.18 388.731 293.258 388.851 293.308 388.984C293.358 389.117 293.379 389.259 293.37 389.4C293.37 389.98 293.06 390.21 292.84 390.29C292.735 390.331 292.623 390.351 292.51 390.35ZM289.41 387.98C290.57 388.98 292.11 390.06 292.66 389.84C292.66 389.84 292.86 389.77 292.88 389.37C292.884 389.294 292.872 389.218 292.845 389.148C292.817 389.077 292.774 389.013 292.72 388.96C292.18 388.36 290.51 388.08 289.41 388V387.98ZM291.59 385.98H291.5C290.616 386.212 289.832 386.729 289.27 387.45C290.8 387.38 292.36 387.09 292.52 386.68C292.57 386.55 292.4 386.36 292.29 386.26C292.099 386.086 291.848 385.993 291.59 386V385.98Z" fill="#BA68C8"/>
<path d="M278.61 382.16C278.87 381.42 287.8 384.97 287.8 384.97C287.8 384.97 291.56 392.5 296.6 395.56C301.64 398.62 297.52 400.9 291.43 398.91L276.35 394C272 392.6 275.92 389.8 278.61 382.16Z" fill="#2E353A"/>
<path opacity="0.4" d="M282.83 369L294.48 372.78L292.39 378.09L281.69 374.45L282.83 369Z" fill="white"/>
<path d="M315.12 407.899L308.3 409.819L304.5 400.639L301.04 392.219L308.76 388.619L312.13 398.829L315.12 407.899Z" fill="#EEC1BB"/>
<path d="M305.27 404.999C305.27 404.219 314.89 405.069 314.89 405.069C314.89 405.069 320.64 411.219 326.34 412.709C332.04 414.199 328.75 417.559 322.34 417.409L306.49 417.009C301.94 416.899 304.88 413.089 305.27 404.999Z" fill="#2E353A"/>
<path d="M319.94 407.64C318.539 407.45 317.183 407.006 315.94 406.33L315.87 406.28C315.867 406.254 315.867 406.227 315.87 406.2C315.866 406.177 315.866 406.153 315.87 406.13C315.86 406.098 315.86 406.063 315.87 406.03C315.87 405.92 316.76 403.72 318.07 403.21C318.268 403.129 318.48 403.094 318.693 403.106C318.906 403.118 319.113 403.177 319.3 403.28C319.73 403.49 319.93 403.76 319.91 404.09C319.86 404.6 319.14 405.09 318.34 405.49C319.083 405.379 319.842 405.48 320.53 405.78C320.653 405.848 320.76 405.941 320.844 406.053C320.929 406.165 320.989 406.293 321.02 406.43C321.085 406.602 321.095 406.79 321.051 406.969C321.006 407.147 320.908 407.308 320.77 407.43C320.527 407.596 320.233 407.671 319.94 407.64ZM316.77 406.2C318.18 406.83 319.95 407.42 320.42 407.05C320.42 407.05 320.59 406.92 320.5 406.54C320.484 406.465 320.451 406.395 320.404 406.335C320.358 406.274 320.298 406.225 320.23 406.19C319.53 405.77 317.85 406 316.77 406.2ZM318.57 403.59C318.444 403.59 318.318 403.614 318.2 403.66C317.429 404.127 316.826 404.827 316.48 405.66C317.93 405.16 319.34 404.43 319.38 404C319.38 403.86 319.17 403.72 319.04 403.66C318.891 403.601 318.73 403.578 318.57 403.59Z" fill="#BA68C8"/>
<path opacity="0.2" d="M312.19 399.04L304.56 400.83L301.06 392.31L308.77 388.67L312.19 399.04Z" fill="black"/>
<path d="M252.23 309.57C252.23 309.57 251.44 298.69 251.07 296.47C250.765 294.269 250.314 292.091 249.72 289.95C247.31 282.7 214.98 291.23 214.98 291.23L214.06 296.23C214.06 296.23 199.47 323.74 209.22 333.65C212.22 336.65 217.99 338.01 223.92 337.97C223.92 337.97 242.05 338.84 275.77 337.27C275.77 337.27 273.27 356.91 301.06 395.39L310.36 392.39C310.36 392.39 292 322.53 290.44 321.29C277 310.43 252.23 309.57 252.23 309.57Z" fill="#263238"/>
<path d="M299.38 394.92L310.93 390.83L312.5 396.32L301.79 399.94L299.38 394.92Z" fill="#263238"/>
<path d="M263.1 242.14C263.1 242.14 261.94 244.98 260.32 249.94C259.93 251.1 259.53 252.38 259.11 253.76C258.56 255.57 257.97 257.56 257.38 259.76C256.95 261.32 256.52 262.95 256.1 264.67C255.68 266.39 255.23 268.25 254.8 270.14C254.8 270.36 254.7 270.59 254.66 270.81C252.831 278.547 251.495 286.393 250.66 294.3L215.14 291.2C215.134 283.404 215.538 275.613 216.35 267.86C216.99 261.142 218.232 254.495 220.06 248C221.47 243.32 223.29 239.3 225.63 236.67C225.63 236.71 244.89 230.39 263.1 242.14Z" fill="#BA68C8"/>
<path d="M245 231.61C234.31 228.19 230.16 236.61 230.16 236.61L235.85 236.05L247.4 250.55L254.17 241.78L258.43 244.07C258.43 244.07 254.26 234.57 245 231.61Z" fill="#BA68C8"/>
<path opacity="0.6" d="M245 231.61C234.31 228.19 230.16 236.61 230.16 236.61L235.85 236.05L247.4 250.55L254.17 241.78L258.43 244.07C258.43 244.07 254.26 234.57 245 231.61Z" fill="white"/>
<path d="M247.1 249.76L237.3 235.09C241.92 233 244.98 224.16 245.65 219.18L252.57 229.64C250.31 233 248.8 236.84 253.98 239.74C254 239.74 247.09 249.73 247.1 249.76Z" fill="#EEC1BB"/>
<path opacity="0.2" d="M248.47 223.449L252.57 229.639C252.031 230.407 251.566 231.224 251.18 232.079C249.13 231.159 246.95 228.079 247.46 225.949C247.634 225.059 247.977 224.21 248.47 223.449Z" fill="black"/>
<path d="M214.59 292.33L225.7 293.06L225.3 296.2L213.5 295.35L214.59 292.33Z" fill="black"/>
<path d="M251.55 298.068L226.64 296.288L227.04 293.148L251.15 294.738L251.55 298.068Z" fill="black"/>
<path d="M242.42 298.06H242.32L239.32 297.86C238.961 297.837 238.627 297.674 238.387 297.406C238.148 297.139 238.023 296.788 238.04 296.43L238.12 294.43C238.118 294.241 238.158 294.053 238.236 293.881C238.313 293.708 238.427 293.554 238.57 293.43C238.702 293.303 238.859 293.206 239.031 293.144C239.204 293.082 239.387 293.057 239.57 293.07L242.69 293.25C242.871 293.26 243.049 293.306 243.213 293.386C243.377 293.466 243.523 293.577 243.643 293.714C243.763 293.851 243.855 294.01 243.913 294.183C243.97 294.356 243.993 294.538 243.98 294.72L243.83 296.8C243.797 297.149 243.633 297.473 243.372 297.707C243.11 297.94 242.77 298.066 242.42 298.06ZM239.08 294.42L238.99 296.42C238.987 296.517 239.021 296.612 239.087 296.685C239.152 296.757 239.242 296.802 239.34 296.81L242.34 297.02C242.439 297.025 242.536 296.992 242.611 296.926C242.686 296.861 242.732 296.769 242.74 296.67L242.89 294.6C242.894 294.549 242.889 294.499 242.874 294.45C242.858 294.402 242.833 294.358 242.8 294.32C242.766 294.284 242.726 294.254 242.682 294.234C242.637 294.213 242.589 294.202 242.54 294.2L239.42 294.02C239.32 294.016 239.223 294.052 239.15 294.12C239.112 294.152 239.082 294.192 239.061 294.237C239.04 294.281 239.029 294.33 239.03 294.38L239.08 294.42Z" fill="white"/>
<path opacity="0.5" d="M299.38 394.92L310.93 390.83L312.5 396.32L301.79 399.94L299.38 394.92Z" fill="white"/>
<path d="M269.93 216.49C269.878 216.491 269.827 216.478 269.783 216.451C269.739 216.425 269.703 216.386 269.68 216.34C269.403 215.8 269.007 215.331 268.522 214.967C268.037 214.603 267.475 214.355 266.88 214.24C266.843 214.239 266.806 214.23 266.772 214.214C266.739 214.198 266.709 214.175 266.684 214.147C266.66 214.119 266.641 214.086 266.63 214.05C266.619 214.014 266.616 213.977 266.62 213.94C266.63 213.868 266.666 213.803 266.721 213.757C266.777 213.71 266.848 213.687 266.92 213.69C267.611 213.808 268.266 214.087 268.83 214.504C269.394 214.92 269.853 215.464 270.17 216.09C270.187 216.122 270.197 216.157 270.201 216.193C270.204 216.229 270.2 216.266 270.189 216.3C270.177 216.335 270.159 216.367 270.135 216.394C270.112 216.422 270.082 216.444 270.05 216.46L269.93 216.49Z" fill="#263238"/>
<path d="M266.59 220.82C266.698 222.208 266.974 223.578 267.41 224.9C267.056 225.117 266.649 225.231 266.235 225.231C265.82 225.231 265.413 225.117 265.06 224.9L266.59 220.82Z" fill="#D4827D"/>
<path d="M268.8 219.329C268.54 219.949 268 220.329 267.58 220.149C267.16 219.969 267.03 219.329 267.29 218.709C267.55 218.089 268.09 217.709 268.51 217.889C268.93 218.069 269.05 218.699 268.8 219.329Z" fill="#263238"/>
<path d="M268.32 217.85H269.89C269.89 217.85 268.75 218.74 268.32 217.85Z" fill="#263238"/>
<path d="M245.78 224.709C245.817 224.811 245.868 224.909 245.93 224.999C246.03 225.199 246.14 225.379 246.25 225.579C246.892 226.81 247.764 227.907 248.82 228.809C252.23 231.639 255.17 232.539 257.82 231.809C257.95 231.809 258.07 231.729 258.2 231.689C262.12 230.209 265.2 225.689 267.81 219.589C268.94 217.227 269.68 214.698 270 212.099C270 212.099 270 212.009 270 211.989C270 211.969 270 211.779 270 211.689C270.127 210.194 269.88 208.692 269.279 207.317C268.678 205.943 267.743 204.74 266.56 203.819C265.549 202.987 264.449 202.269 263.28 201.679C251.92 195.779 240.29 213.729 245.78 224.709Z" fill="#EEC1BB"/>
<path d="M270 212C270 212 266.58 220.36 257.22 220C257.22 220 249.74 226.71 244.87 224.4C238.22 221.25 237.14 208.99 244.21 200.62C253.4 189.76 272.6 198.18 270 212Z" fill="#263238"/>
<path d="M262.27 219.64C262.9 218.38 262.95 215.77 260.86 215.07C258.77 214.37 255.06 218.76 259.46 222.37C260.09 222.89 261 222.26 262.27 219.64Z" fill="#EEC1BB"/>
<path d="M260.33 196.43C260.33 196.43 268.98 198.35 271.66 203.57C274.8 209.67 274.8 214.34 266.02 217.17C266.02 217.17 255.25 206.51 250.52 205.24C247.762 204.482 244.945 203.957 242.1 203.67C245.49 194.71 256.92 192.53 260.33 196.43Z" fill="#263238"/>
<path d="M257.24 220C251.8 230.87 239.84 249.34 227.09 236.31C227.09 236.31 231.67 221.57 240.92 215.49C250.17 209.41 257.24 220 257.24 220Z" fill="#263238"/>
<path d="M255.27 238.13C259.92 241.57 253.97 252.89 259.84 255.41C259.288 254.647 258.941 253.756 258.833 252.821C258.724 251.886 258.857 250.939 259.22 250.07C260.45 246.99 265.44 238.85 263.45 227.83L255.27 238.13Z" fill="#263238"/>
<path opacity="0.2" d="M231.18 261.999C231.18 261.999 223.58 267.149 216.39 267.789C217.021 261.096 218.249 254.473 220.06 247.999C220.98 247.481 222.006 247.18 223.06 247.119C228.4 247.219 230.35 252.229 230.35 252.229C230.928 255.453 231.205 258.724 231.18 261.999Z" fill="black"/>
<path d="M258.92 297.67L257.32 295.75C257.019 295.399 256.639 295.126 256.211 294.952C255.783 294.778 255.32 294.709 254.86 294.75L250.48 295.07C249.614 295.133 248.776 295.403 248.037 295.857C247.297 296.311 246.678 296.936 246.23 297.68L245.67 298.61C248.11 301.98 253.22 303.83 253.22 303.83L254.62 304.52C254.901 304.672 255.21 304.766 255.528 304.798C255.846 304.83 256.168 304.799 256.473 304.706C256.779 304.613 257.064 304.46 257.31 304.257C257.557 304.053 257.761 303.803 257.91 303.52L259.31 300.76C259.561 300.265 259.658 299.706 259.588 299.155C259.519 298.604 259.286 298.087 258.92 297.67Z" fill="#EEC1BB"/>
<path d="M228.13 251.699C228.008 257.997 228.459 264.293 229.48 270.509C229.854 272.497 230.338 274.464 230.93 276.399L230.49 275.529C232.8 279.059 236.18 282.329 239.13 285.529L244.07 290.629L249.07 295.759C249.51 296.203 249.771 296.794 249.801 297.418C249.832 298.042 249.63 298.656 249.235 299.14C248.84 299.625 248.279 299.946 247.662 300.042C247.044 300.137 246.413 300.001 245.89 299.659C243.82 298.349 241.89 296.969 239.89 295.569C233.79 290.979 227.64 286.689 222.89 280.569C218.75 271.399 217.74 261.209 218.09 251.249C218.68 244.599 228.32 245.089 228.24 251.759L228.13 251.699Z" fill="#EBC0BB"/>
<path d="M225.29 236.77C218.74 239.02 216.03 246.02 215.74 257.86C219.09 260.97 230.11 259.94 230.11 259.94C230.11 259.94 232.1 242 225.29 236.77Z" fill="#BA68C8"/>
<path d="M295.87 306.87V310C295.87 310.81 294.87 311.14 294.11 311.14H231C230.19 311.14 229.21 310.81 229.21 310V306.84L295.87 306.87Z" fill="#263238"/>
<path opacity="0.4" d="M295.87 306.87V310C295.87 310.81 294.87 311.14 294.11 311.14H231C230.19 311.14 229.21 310.81 229.21 310V306.84L295.87 306.87Z" fill="white"/>
<path opacity="0.2" d="M295.87 306.87V310C295.87 310.81 294.87 311.14 294.11 311.14H252.49C251.68 311.14 250.72 310.81 250.72 310V306.84L295.87 306.87Z" fill="black"/>
<path d="M306.431 274.09L298.911 308.16C298.777 308.709 298.465 309.197 298.023 309.549C297.581 309.9 297.035 310.094 296.471 310.1H255.471C255.216 310.093 254.966 310.027 254.741 309.907C254.516 309.787 254.321 309.618 254.172 309.411C254.023 309.204 253.924 308.965 253.882 308.714C253.84 308.462 253.857 308.204 253.931 307.96L261.441 274.14C261.593 273.625 261.917 273.178 262.359 272.874C262.802 272.57 263.335 272.428 263.871 272.47H304.921C306.001 272.47 306.671 273 306.431 274.09Z" fill="#263238"/>
<path opacity="0.4" d="M306.43 274.089L298.91 308.159C298.777 308.708 298.465 309.196 298.023 309.547C297.581 309.899 297.034 310.093 296.47 310.099H256.83C256.574 310.093 256.323 310.028 256.097 309.909C255.871 309.79 255.675 309.621 255.525 309.413C255.375 309.206 255.274 308.967 255.232 308.715C255.19 308.463 255.206 308.204 255.28 307.959L262.79 274.139C262.942 273.622 263.268 273.174 263.713 272.87C264.157 272.566 264.693 272.424 265.23 272.469H304.88C306 272.469 306.67 272.999 306.43 274.089Z" fill="white"/>
<path opacity="0.2" d="M286.19 291.409C286.19 294.319 283.06 296.689 280.77 296.689C278.48 296.689 277.12 294.319 277.77 291.409C278.42 288.499 280.71 286.209 282.95 286.129C282.3 289.039 283.7 291.409 285.95 291.409H286.19Z" fill="black"/>
</svg>
